<svg xmlns="http://www.w3.org/2000/svg" width="120" height="120" viewBox="0 0 120 120">
  <g id="Grupo_1115900" data-name="Grupo 1115900" transform="translate(-64 -6445)">
    <rect id="Rect치ngulo_402033" data-name="Rect치ngulo 402033" width="120" height="120" rx="8" transform="translate(64 6445)" fill="#0042db"/>
    <g id="Rect치ngulo_412110" data-name="Rect치ngulo 412110" transform="translate(69 6450)" fill="none" stroke="#fff" stroke-width="1">
      <rect width="110" height="110" rx="6" stroke="none"/>
      <rect x="0.5" y="0.5" width="109" height="109" rx="5.5" fill="none"/>
    </g>
    <g id="Grupo_1116315" data-name="Grupo 1116315" transform="translate(84.001 6454.712)">
      <g id="Grupo_1116306" data-name="Grupo 1116306" transform="translate(17.379 60.807)">
        <g id="Grupo_1116301" data-name="Grupo 1116301" transform="translate(0 4.261)">
          <path id="Trazado_957596" data-name="Trazado 957596" d="M160.663,359.517a13.564,13.564,0,0,0,3.256,8.932H114.837a1.553,1.553,0,0,1-1.267-.648,15.812,15.812,0,0,1,0-16.568,1.553,1.553,0,0,1,1.267-.648h49.082A13.565,13.565,0,0,0,160.663,359.517Z" transform="translate(-111.226 -350.585)" fill="#fb3a82"/>
          <path id="Trazado_957597" data-name="Trazado 957597" d="M126.2,350.587l-13.841,14.992a15.684,15.684,0,0,1-1.133-6.059,14.175,14.175,0,0,1,2.344-8.284,1.551,1.551,0,0,1,1.267-.648Z" transform="translate(-111.229 -350.587)" fill="#fb1466"/>
          <path id="Trazado_957598" data-name="Trazado 957598" d="M195.228,359.517a13.564,13.564,0,0,0,3.256,8.932H148.655s-2.864-2.9-2.864-8.932,2.864-8.932,2.864-8.932h49.829A13.565,13.565,0,0,0,195.228,359.517Z" transform="translate(-140.39 -350.585)" fill="#e0d3ce"/>
          <g id="Grupo_1116300" data-name="Grupo 1116300" transform="translate(5.401 0)">
            <path id="Trazado_957599" data-name="Trazado 957599" d="M155.364,350.587,145.842,360.9c-.033-.441-.052-.9-.052-1.381,0-6.033,2.864-8.933,2.864-8.933Z" transform="translate(-145.79 -350.587)" fill="#cdbfbb"/>
            <path id="Trazado_957600" data-name="Trazado 957600" d="M430.3,359.524a13.562,13.562,0,0,0,3.256,8.932h-5.9a13.878,13.878,0,0,1,0-17.864h5.9A13.558,13.558,0,0,0,430.3,359.524Z" transform="translate(-380.866 -350.591)" fill="#cdbfbb"/>
          </g>
        </g>
        <g id="Grupo_1116305" data-name="Grupo 1116305" transform="translate(6.724)">
          <g id="Grupo_1116303" data-name="Grupo 1116303" transform="translate(0)">
            <path id="Trazado_957601" data-name="Trazado 957601" d="M208.984,325.911a2.593,2.593,0,0,1-2.592,2.592h-49.54a2.593,2.593,0,0,1,0-5.186h49.54A2.593,2.593,0,0,1,208.984,325.911Z" transform="translate(-154.26 -323.317)" fill="#fb3a82"/>
            <g id="Grupo_1116302" data-name="Grupo 1116302">
              <path id="Trazado_957602" data-name="Trazado 957602" d="M166.443,323.317l-4.786,5.186h-4.8a2.593,2.593,0,0,1,0-5.186Z" transform="translate(-154.26 -323.317)" fill="#fb1466"/>
              <path id="Trazado_957603" data-name="Trazado 957603" d="M463.336,325.913a2.6,2.6,0,0,1-2.594,2.594h-5.029a2.593,2.593,0,0,0,0-5.186h5.029A2.593,2.593,0,0,1,463.336,325.913Z" transform="translate(-408.611 -323.32)" fill="#fb1466"/>
            </g>
          </g>
          <g id="Grupo_1116304" data-name="Grupo 1116304" transform="translate(0 21.2)">
            <path id="Trazado_957604" data-name="Trazado 957604" d="M206.389,464.182H156.85a2.593,2.593,0,0,1,0-5.186h49.539a2.593,2.593,0,0,1,0,5.186Z" transform="translate(-154.257 -458.996)" fill="#fb3a82"/>
            <path id="Trazado_957605" data-name="Trazado 957605" d="M463.336,461.592a2.592,2.592,0,0,1-2.594,2.592h-5.029a2.592,2.592,0,0,0,0-5.184h5.029A2.594,2.594,0,0,1,463.336,461.592Z" transform="translate(-408.61 -458.999)" fill="#fb1466"/>
          </g>
        </g>
      </g>
      <g id="Grupo_1116314" data-name="Grupo 1116314" transform="translate(-0.001 12.193)">
        <g id="Grupo_1116309" data-name="Grupo 1116309" transform="translate(1.172 30.967)">
          <g id="Grupo_1116307" data-name="Grupo 1116307" transform="translate(0 9.918)">
            <path id="Trazado_957606" data-name="Trazado 957606" d="M41.632,278.043l-4.186-4.186-28.495,26.3a4.512,4.512,0,1,0,6.376,6.376Z" transform="translate(-7.5 -273.857)" fill="#873f30"/>
            <path id="Trazado_957607" data-name="Trazado 957607" d="M16.4,313.621a4.514,4.514,0,0,1-6.38,0,4.468,4.468,0,0,1-1.1-1.8,4.505,4.505,0,0,0,4.579-1.1c.043-.043.087-.089.128-.134L39.93,282.1l2.9,2.9-26.3,28.495C16.482,313.534,16.44,313.579,16.4,313.621Z" transform="translate(-8.696 -280.809)" fill="#6c3328"/>
          </g>
          <path id="Trazado_957608" data-name="Trazado 957608" d="M200.275,210.382l-9.639,11.5,3.938,3.937,11.5-9.639Z" transform="translate(-162.021 -210.382)" fill="#873f30"/>
          <path id="Trazado_957609" data-name="Trazado 957609" d="M208.65,210.382l-3.115,3.715.935.935a1.761,1.761,0,0,1,0,2.491l-5.908,5.908,2.387,2.386,11.5-9.639Z" transform="translate(-170.396 -210.382)" fill="#6c3328"/>
          <g id="Grupo_1116308" data-name="Grupo 1116308" transform="translate(25.426 9.143)">
            <path id="Trazado_957610" data-name="Trazado 957610" d="M174.873,277.552l-3.822-3.822a2.83,2.83,0,0,1,4-4l3.822,3.822a2.83,2.83,0,0,1-4,4Z" transform="translate(-170.222 -268.899)" fill="#ba5d4f"/>
            <path id="Trazado_957611" data-name="Trazado 957611" d="M188.339,287.022a2.829,2.829,0,0,1-4,0l-2.9-2.9a2.83,2.83,0,0,0,4-4l2.9,2.9A2.828,2.828,0,0,1,188.339,287.022Z" transform="translate(-179.688 -278.369)" fill="#a34f41"/>
          </g>
        </g>
        <g id="Grupo_1116310" data-name="Grupo 1116310" transform="translate(31.096 4.689)">
          <path id="Trazado_957612" data-name="Trazado 957612" d="M0,0H12V18.846H0Z" transform="translate(13.324 0) rotate(45)" fill="#ba5d4f"/>
          <path id="Trazado_957613" data-name="Trazado 957613" d="M0,0H12V18.846H0Z" transform="translate(27.077 40.412) rotate(-135)" fill="#a34f41"/>
        </g>
        <g id="Grupo_1116313" data-name="Grupo 1116313" transform="translate(0 0)">
          <path id="Trazado_957614" data-name="Trazado 957614" d="M177.613,39.459l-.295-.295a2.862,2.862,0,0,1,0-4.048L191.9,20.532a2.862,2.862,0,0,1,4.048,0l.295.295a2.862,2.862,0,0,1,0,4.048L181.661,39.459a2.863,2.863,0,0,1-4.048,0Z" transform="translate(-148.904 -18.522)" fill="#873f30"/>
          <path id="Trazado_957615" data-name="Trazado 957615" d="M349.082,210.927l.295.295a2.862,2.862,0,0,0,4.048,0l14.584-14.584a2.862,2.862,0,0,0,0-4.048l-.295-.295a2.862,2.862,0,0,0-4.048,0l-14.584,14.584A2.863,2.863,0,0,0,349.082,210.927Z" transform="translate(-293.83 -163.447)" fill="#6c3328"/>
          <g id="Grupo_1116312" data-name="Grupo 1116312">
            <path id="Trazado_957616" data-name="Trazado 957616" d="M0,0H13.48V28.463H0Z" transform="translate(56.59 10.058) rotate(45)" fill="#fcc16d"/>
            <path id="Trazado_957617" data-name="Trazado 957617" d="M0,0H28.463V6.823H0Z" transform="translate(41.168 34.899) rotate(-45)" fill="#fca62f"/>
            <path id="Trazado_957618" data-name="Trazado 957618" d="M245.343,67.98l-2.335-.955a2.147,2.147,0,0,0-2.331.469l-16.4,16.4a2.147,2.147,0,0,0-.469,2.331l.955,2.335a1.431,1.431,0,0,0,2.337.47l18.71-18.71A1.431,1.431,0,0,0,245.343,67.98Z" transform="translate(-188.706 -58.323)" fill="#873f30"/>
            <path id="Trazado_957619" data-name="Trazado 957619" d="M309.887,132.525l.955,2.335a2.147,2.147,0,0,1-.469,2.331l-16.4,16.4a2.147,2.147,0,0,1-2.331.469l-2.335-.955a1.431,1.431,0,0,1-.47-2.337l18.71-18.71a1.431,1.431,0,0,1,2.337.47Z" transform="translate(-243.354 -112.972)" fill="#6c3328"/>
            <g id="Grupo_1116311" data-name="Grupo 1116311">
              <path id="Trazado_957620" data-name="Trazado 957620" d="M76.235,80.835h-.872a12.12,12.12,0,0,1-1.01-1.924,1.172,1.172,0,0,0-2.166.9c.145.35.307.691.478,1.028H26.7a3.75,3.75,0,0,0-1.021.142A13.623,13.623,0,0,1,23.951,74c0-.511.023-1.015.067-1.508H46.471a1.172,1.172,0,1,0,0-2.344H25.005l2.754-2.983h44.9a14.628,14.628,0,0,0-1.128,2.983h-15.4a1.172,1.172,0,1,0,0,2.344H71.121c-.046.476-.072.957-.075,1.442a1.172,1.172,0,0,0,1.167,1.177h.005a1.172,1.172,0,0,0,1.172-1.167,12.54,12.54,0,0,1,1.971-6.779h.874a3.765,3.765,0,1,0,0-7.529H61.585L75.007,46.213a4.034,4.034,0,0,0,0-5.705l-.3-.3a4.032,4.032,0,0,0-5.5-.192L67.14,37.947l.706-.706a3.311,3.311,0,0,0,.725-3.6L67.617,31.3a2.6,2.6,0,0,0-1.885-1.564l-1.63-1.63a1.172,1.172,0,0,0-1.657,1.657l.8.8L44.777,49.036,39.346,43.6,57.815,25.136l.719.719A1.172,1.172,0,1,0,60.191,24.2l-1.547-1.547a2.6,2.6,0,0,0-1.564-1.885h0l-2.335-.955a3.312,3.312,0,0,0-3.6.725l-.706.706-2.075-2.074a4.032,4.032,0,0,0-.192-5.5l-.3-.3a4.034,4.034,0,0,0-5.706,0L27.584,27.958a4.034,4.034,0,0,0,0,5.706l.295.295a4.033,4.033,0,0,0,5.5.192l2.075,2.075-.706.706a3.311,3.311,0,0,0-.725,3.6l.955,2.335a2.6,2.6,0,0,0,1.859,1.558l-5.876,7.009a4,4,0,0,0-5.289,5.076L23,58.973a1.172,1.172,0,0,0,1.59,1.722l2.463-2.273,2.9,2.9L8.138,84.964a3.34,3.34,0,1,1-4.72-4.72l17.117-15.8a1.172,1.172,0,0,0-1.59-1.722L1.828,78.522a5.684,5.684,0,0,0,3.851,9.86H5.8A5.636,5.636,0,0,0,9.86,86.554l7.023-7.608a13.506,13.506,0,0,0,1.884,4.018A2.729,2.729,0,0,0,20.99,84.1h1.974a3.759,3.759,0,0,0,3.731,4.26H76.235a3.765,3.765,0,0,0,0-7.529ZM77.655,63.4a1.423,1.423,0,0,1-1.421,1.421H29.922l1.948-2.11a4.005,4.005,0,0,0,4-.732H76.235A1.423,1.423,0,0,1,77.655,63.4ZM42.3,49.875l-6.786,5.689-2.7-2.7,5.689-6.786Zm-5.112,9.76a4.024,4.024,0,0,0-.244-2.211l7.009-5.876a2.6,2.6,0,0,0,1.558,1.859l2.335.955a3.312,3.312,0,0,0,3.6-.725l.706-.706L54.231,55a4.042,4.042,0,0,0-.466,4.631H37.189Zm34.67-18.26a1.68,1.68,0,0,1,1.2.5l.3.3a1.69,1.69,0,0,1,0,2.391L58.766,59.14a1.69,1.69,0,0,1-2.391,0l-.295-.295a1.693,1.693,0,0,1,0-2.391L70.664,41.87A1.679,1.679,0,0,1,71.86,41.375Zm-4.311.3L55.88,53.339l-2.067-2.067L65.482,39.6ZM46.314,50.814,65.024,32.1a.247.247,0,0,1,.179-.077.286.286,0,0,1,.055.006.249.249,0,0,1,.189.156l.955,2.335a.972.972,0,0,1-.213,1.058l-16.4,16.4a.973.973,0,0,1-1.058.213L46.4,51.238a.259.259,0,0,1-.085-.424ZM30.732,32.8a1.679,1.679,0,0,1-1.2-.5l-.295-.295a1.691,1.691,0,0,1,0-2.391L43.826,15.032a1.691,1.691,0,0,1,2.391,0l.3.3a1.691,1.691,0,0,1,0,2.391L31.928,32.3a1.681,1.681,0,0,1-1.2.495Zm4.31-.3L46.711,20.833,48.778,22.9,37.109,34.568Zm1.36,6.088,16.4-16.4a.973.973,0,0,1,1.058-.213l2.335.955a.259.259,0,0,1,.085.423l-18.71,18.71a.259.259,0,0,1-.423-.085l-.955-2.335a.973.973,0,0,1,.213-1.058ZM27.769,55.133a1.658,1.658,0,0,1,2.83-1.172l3.822,3.822a1.658,1.658,0,0,1-2.344,2.344l-3.822-3.822a1.647,1.647,0,0,1-.486-1.172ZM20.677,81.6A11.823,11.823,0,0,1,18.8,76.869l2.809-3.043c0,.058,0,.116,0,.174a16.26,16.26,0,0,0,1.818,7.761H20.99A.381.381,0,0,1,20.677,81.6ZM76.235,86.02H26.7a1.421,1.421,0,0,1,0-2.842H76.235a1.421,1.421,0,0,1,0,2.842Z" transform="translate(0.001 -12.193)"/>
              <path id="Trazado_957621" data-name="Trazado 957621" d="M203.5,417.166a1.172,1.172,0,1,0,0,2.344h27.3a1.172,1.172,0,1,0,0-2.344Z" transform="translate(-170.713 -353.888)"/>
            </g>
          </g>
        </g>
      </g>
    </g>
  </g>
</svg>
