<svg xmlns="http://www.w3.org/2000/svg" width="120" height="120" viewBox="0 0 120 120">
  <g id="Grupo_1115935" data-name="Grupo 1115935" transform="translate(-64 -6445)">
    <rect id="Rectángulo_402033" data-name="Rectángulo 402033" width="120" height="120" rx="8" transform="translate(64 6445)" fill="#0042db"/>
    <g id="Rectángulo_412110" data-name="Rectángulo 412110" transform="translate(69 6450)" fill="none" stroke="#fff" stroke-width="1">
      <rect width="110" height="110" rx="6" stroke="none"/>
      <rect x="0.5" y="0.5" width="109" height="109" rx="5.5" fill="none"/>
    </g>
    <g id="Grupo_1116360" data-name="Grupo 1116360" transform="translate(81.5 6461.964)">
      <rect id="Rectángulo_416110" data-name="Rectángulo 416110" width="56" height="79" transform="translate(4.377 2.841)" fill="#fff"/>
      <g id="Grupo_1116336" data-name="Grupo 1116336" transform="translate(10.513 73.512)">
        <path id="Trazado_957661" data-name="Trazado 957661" d="M67.4,57.2v1.051a7.9,7.9,0,0,1-7.882,7.882H9.6a8.074,8.074,0,0,0,8.013-8.013V57.2Z" transform="translate(-8.286 -55.886)" fill="#64c4f6"/>
        <path id="Trazado_957662" data-name="Trazado 957662" d="M59.832,67.76H9.914a1.314,1.314,0,0,1,0-2.627,6.667,6.667,0,0,0,4.729-1.97,6.45,6.45,0,0,0,1.97-4.729v-.92A1.241,1.241,0,0,1,17.927,56.2H67.713a1.241,1.241,0,0,1,1.314,1.314v1.051A9.139,9.139,0,0,1,59.832,67.76ZM16.35,65.133H59.832A6.535,6.535,0,0,0,66.4,58.827H19.24a9.38,9.38,0,0,1-2.89,6.305h0Z" transform="translate(-8.6 -56.2)" fill="#101f2d"/>
      </g>
      <g id="Grupo_1116337" data-name="Grupo 1116337" transform="translate(2.5 1)">
        <path id="Trazado_957663" data-name="Trazado 957663" d="M11.7,85.072a9.139,9.139,0,0,1-9.2-9.2V7.568A6.5,6.5,0,0,1,9.068,1h46.24a6.5,6.5,0,0,1,6.568,6.568V31.213a1.314,1.314,0,0,1-2.627,0V7.568a3.871,3.871,0,0,0-3.941-3.941H9.068A3.871,3.871,0,0,0,5.127,7.568V75.877A6.5,6.5,0,0,0,11.7,82.445a6.5,6.5,0,0,0,6.568-6.568v-.92a1.314,1.314,0,1,1,2.627,0v.92A9.139,9.139,0,0,1,11.7,85.072Z" transform="translate(-2.5 -1)" fill="#101f2d"/>
      </g>
      <g id="Grupo_1116338" data-name="Grupo 1116338" transform="translate(59.249 47.765)">
        <path id="Trazado_957664" data-name="Trazado 957664" d="M47.014,64.449A1.241,1.241,0,0,1,45.7,63.135V37.914a1.314,1.314,0,1,1,2.627,0V63.135A1.241,1.241,0,0,1,47.014,64.449Z" transform="translate(-45.7 -36.6)" fill="#101f2d"/>
      </g>
      <g id="Grupo_1116339" data-name="Grupo 1116339" transform="translate(30.086 59.588)">
        <path id="Trazado_957665" data-name="Trazado 957665" d="M43.942,53.562H24.5v-3.81A3.2,3.2,0,0,1,27.653,46.6h13a3.2,3.2,0,0,1,3.153,3.153Z" transform="translate(-23.186 -45.286)" fill="#64c4f6"/>
        <path id="Trazado_957666" data-name="Trazado 957666" d="M44.255,55.189H24.814A1.241,1.241,0,0,1,23.5,53.876v-3.81A4.6,4.6,0,0,1,27.966,45.6h13a4.6,4.6,0,0,1,4.466,4.466l.131,3.81a1.347,1.347,0,0,1-1.314,1.314ZM26.127,52.562H42.942l-.131-2.5a1.879,1.879,0,0,0-1.839-1.839h-13a1.978,1.978,0,0,0-1.839,1.839Z" transform="translate(-23.5 -45.6)" fill="#101f2d"/>
      </g>
      <g id="Grupo_1116340" data-name="Grupo 1116340" transform="translate(27.065 66.55)">
        <path id="Trazado_957667" data-name="Trazado 957667" d="M47.867,60.621H22.514A1.241,1.241,0,0,1,21.2,59.307V52.214A1.241,1.241,0,0,1,22.514,50.9H47.867a1.241,1.241,0,0,1,1.314,1.314v7.094A1.241,1.241,0,0,1,47.867,60.621ZM23.827,57.994H46.553V53.527H23.827Z" transform="translate(-21.2 -50.9)" fill="#101f2d"/>
      </g>
      <g id="Grupo_1116345" data-name="Grupo 1116345" transform="translate(38.625 21.624)">
        <g id="Grupo_1116341" data-name="Grupo 1116341" transform="translate(4.992 4.992)">
          <path id="Trazado_957668" data-name="Trazado 957668" d="M55.949,30.433A89.474,89.474,0,0,0,43.733,42.649L34.8,33.717A67.227,67.227,0,0,0,47.017,21.5Z" transform="translate(-33.486 -20.186)" fill="#64c4f6"/>
          <path id="Trazado_957669" data-name="Trazado 957669" d="M44.046,44.277a1.193,1.193,0,0,1-.92-.394L34.194,34.95A1.492,1.492,0,0,1,33.8,33.9a1.106,1.106,0,0,1,.525-.92A64.379,64.379,0,0,0,46.279,21.025a1.33,1.33,0,0,1,.92-.525,1.492,1.492,0,0,1,1.051.394l8.933,8.933a1.492,1.492,0,0,1,.394,1.051.992.992,0,0,1-.525.92A87.559,87.559,0,0,0,44.966,43.883,1.023,1.023,0,0,1,44.046,44.277ZM37.084,34.162l6.831,6.831A96.758,96.758,0,0,1,54.293,30.615l-6.831-6.831A77.469,77.469,0,0,1,37.084,34.162Z" transform="translate(-33.8 -20.5)" fill="#101f2d"/>
        </g>
        <g id="Grupo_1116342" data-name="Grupo 1116342" transform="translate(0 16.289)">
          <path id="Trazado_957670" data-name="Trazado 957670" d="M44.662,44.156l.394-.394a2.54,2.54,0,0,0,0-3.678l-9.2-9.2a2.54,2.54,0,0,0-3.678,0l-.394.394a2.54,2.54,0,0,0,0,3.678l9.2,9.2A2.54,2.54,0,0,0,44.662,44.156Z" transform="translate(-29.686 -28.786)" fill="#ef6561"/>
          <path id="Trazado_957671" data-name="Trazado 957671" d="M43.136,46.571a3.781,3.781,0,0,1-2.759-1.182l-9.2-9.2a3.81,3.81,0,0,1,0-5.517l.394-.394a3.809,3.809,0,0,1,5.517,0l9.2,9.2a3.81,3.81,0,0,1,0,5.517l-.394.394a3.781,3.781,0,0,1-2.759,1.182Zm-8.8-14.844a1.193,1.193,0,0,0-.92.394l-.394.394a1.27,1.27,0,0,0,0,1.839l9.2,9.2a1.27,1.27,0,0,0,1.839,0l.394-.394a1.27,1.27,0,0,0,0-1.839l-9.2-9.2A1.193,1.193,0,0,0,34.335,31.727Z" transform="translate(-30 -29.1)" fill="#101f2d"/>
        </g>
        <g id="Grupo_1116343" data-name="Grupo 1116343" transform="translate(16.289)">
          <path id="Trazado_957672" data-name="Trazado 957672" d="M57.062,31.756l.394-.394a2.54,2.54,0,0,0,0-3.678l-9.2-9.2a2.54,2.54,0,0,0-3.678,0l-.394.394a2.54,2.54,0,0,0,0,3.678l9.2,9.2A2.539,2.539,0,0,0,57.062,31.756Z" transform="translate(-42.086 -16.386)" fill="#ef6561"/>
          <path id="Trazado_957673" data-name="Trazado 957673" d="M55.536,34.171h0a3.845,3.845,0,0,1-2.759-1.182l-9.2-9.2a3.81,3.81,0,0,1,0-5.517l.394-.394a3.81,3.81,0,0,1,5.517,0l9.2,9.2a3.81,3.81,0,0,1,0,5.517l-.394.394a3.781,3.781,0,0,1-2.759,1.182Zm-8.8-14.844a1.193,1.193,0,0,0-.92.394l-.394.394a1.27,1.27,0,0,0,0,1.839l9.2,9.2a.888.888,0,0,0,.788.394,1.492,1.492,0,0,0,1.051-.394l.394-.394a1.27,1.27,0,0,0,0-1.839l-9.2-9.2a1.193,1.193,0,0,0-.92-.394Z" transform="translate(-42.4 -16.7)" fill="#101f2d"/>
        </g>
        <g id="Grupo_1116344" data-name="Grupo 1116344" transform="translate(17.734 17.847)">
          <path id="Trazado_957674" data-name="Trazado 957674" d="M64.387,56.446a5.461,5.461,0,0,1-3.941-1.708L43.894,36.872a1.3,1.3,0,1,1,1.839-1.839L62.416,52.9a2.794,2.794,0,0,0,1.97.92,2.694,2.694,0,0,0,2.759-2.759,2.364,2.364,0,0,0-.92-1.97L48.36,32.538a1.3,1.3,0,0,1,1.708-1.97L67.934,47.119a5.4,5.4,0,0,1,1.708,3.81,5.053,5.053,0,0,1-1.576,3.81,4.316,4.316,0,0,1-3.678,1.708Z" transform="translate(-43.5 -30.286)" fill="#101f2d"/>
        </g>
      </g>
      <g id="Grupo_1116353" data-name="Grupo 1116353" transform="translate(12.878 7.7)">
        <g id="Grupo_1116348" data-name="Grupo 1116348">
          <g id="Grupo_1116347" data-name="Grupo 1116347">
            <g id="Grupo_1116346" data-name="Grupo 1116346">
              <path id="Trazado_957675" data-name="Trazado 957675" d="M22.434,26.542s11.034-6.831,11.034-13.136A6.225,6.225,0,0,0,27.164,7.1a6.359,6.359,0,0,0-4.729,2.1,6.152,6.152,0,0,0-4.729-2.1A6.225,6.225,0,0,0,11.4,13.405c0,6.437,11.034,13.136,11.034,13.136Z" transform="translate(-10.086 -5.786)" fill="#ef6561"/>
              <path id="Trazado_957676" data-name="Trazado 957676" d="M22.748,28.169a.984.984,0,0,1-.657-.131C21.566,27.775,10.4,20.813,10.4,13.719A7.462,7.462,0,0,1,18.019,6.1a7.335,7.335,0,0,1,4.729,1.576A7.6,7.6,0,0,1,27.477,6.1,7.462,7.462,0,0,1,35.1,13.719c0,6.831-10.509,13.53-11.691,14.319a.984.984,0,0,1-.657.131ZM18.019,8.727a4.99,4.99,0,0,0-4.992,4.992c0,4.335,6.437,9.458,9.721,11.56,3.284-2.1,9.721-7.356,9.721-11.56a4.99,4.99,0,0,0-4.992-4.992,5.4,5.4,0,0,0-3.81,1.708,1.419,1.419,0,0,1-.92.394,1.023,1.023,0,0,1-.92-.394,4.915,4.915,0,0,0-3.81-1.708Z" transform="translate(-10.4 -6.1)" fill="#101f2d"/>
            </g>
          </g>
        </g>
        <g id="Grupo_1116352" data-name="Grupo 1116352" transform="translate(9.984 2.233)">
          <g id="Grupo_1116349" data-name="Grupo 1116349" transform="translate(16.946)">
            <path id="Trazado_957677" data-name="Trazado 957677" d="M38.256,18.309H35.1a4.15,4.15,0,0,1-4.2-4.2V9.114A1.241,1.241,0,0,1,32.214,7.8h1.708a1.241,1.241,0,0,1,1.314,1.314,1.241,1.241,0,0,1-1.314,1.314h-.394v3.678A1.518,1.518,0,0,0,35.1,15.682h3.153a1.518,1.518,0,0,0,1.576-1.576V10.427h-.394a1.241,1.241,0,0,1-1.314-1.314A1.241,1.241,0,0,1,39.439,7.8h1.708A1.241,1.241,0,0,1,42.46,9.114v4.992A4.15,4.15,0,0,1,38.256,18.309Z" transform="translate(-30.9 -7.8)" fill="#101f2d"/>
          </g>
          <g id="Grupo_1116350" data-name="Grupo 1116350" transform="translate(1.051 7.882)">
            <path id="Trazado_957678" data-name="Trazado 957678" d="M37.848,23.652H25.105A6.393,6.393,0,0,1,18.8,17.347v-.263a1.314,1.314,0,0,1,2.627,0v.263a3.759,3.759,0,0,0,3.678,3.678H37.848a1.454,1.454,0,0,0,1.445-1.445V15.114a1.314,1.314,0,0,1,2.627,0V19.58A4.093,4.093,0,0,1,37.848,23.652Z" transform="translate(-18.8 -13.8)" fill="#101f2d"/>
          </g>
          <g id="Grupo_1116351" data-name="Grupo 1116351" transform="translate(0 6.305)">
            <circle id="Elipse_13533" data-name="Elipse 13533" cx="2.365" cy="2.365" r="2.365" fill="#fff"/>
          </g>
        </g>
      </g>
      <g id="Grupo_1116359" data-name="Grupo 1116359" transform="translate(10.168 35.154)">
        <g id="Grupo_1116354" data-name="Grupo 1116354" transform="translate(0.345)">
          <path id="Trazado_957679" data-name="Trazado 957679" d="M33.559,29.627H9.914a1.314,1.314,0,0,1,0-2.627H33.559a1.314,1.314,0,0,1,0,2.627Z" transform="translate(-8.6 -27)" fill="#101f2d"/>
        </g>
        <g id="Grupo_1116355" data-name="Grupo 1116355" transform="translate(0.345 7.356)">
          <path id="Trazado_957680" data-name="Trazado 957680" d="M27.516,35.227H9.914a1.314,1.314,0,0,1,0-2.627h17.6a1.314,1.314,0,1,1,0,2.627Z" transform="translate(-8.6 -32.6)" fill="#101f2d"/>
        </g>
        <g id="Grupo_1116356" data-name="Grupo 1116356" transform="translate(0.345 14.713)">
          <path id="Trazado_957681" data-name="Trazado 957681" d="M31.589,40.827H9.914a1.314,1.314,0,1,1,0-2.627H31.589a1.314,1.314,0,1,1,0,2.627Z" transform="translate(-8.6 -38.2)" fill="#101f2d"/>
        </g>
        <g id="Grupo_1116357" data-name="Grupo 1116357" transform="translate(0.345 22.069)">
          <path id="Trazado_957682" data-name="Trazado 957682" d="M23.313,46.427H9.914a1.314,1.314,0,1,1,0-2.627h13.4a1.314,1.314,0,1,1,0,2.627Z" transform="translate(-8.6 -43.8)" fill="#101f2d"/>
        </g>
        <g id="Grupo_1116358" data-name="Grupo 1116358" transform="translate(0 29.378)">
          <path id="Trazado_957683" data-name="Trazado 957683" d="M13.543,54.272a12.224,12.224,0,0,1-4.335-.92,1.33,1.33,0,1,1,.92-2.5c3.021,1.182,4.072.788,4.466.525a1.022,1.022,0,0,0,.394-.788,1.262,1.262,0,0,1,.92-1.182,1.247,1.247,0,0,1,1.445.525c.788,1.051,1.445,1.708,1.97,1.708s1.182-1.051,1.445-1.445a1.294,1.294,0,1,1,2.365,1.051c-.131.263-1.314,2.759-3.547,3.021a3.631,3.631,0,0,1-2.89-1.051,2.865,2.865,0,0,1-.657.525,5.9,5.9,0,0,1-2.5.525Z" transform="translate(-8.337 -49.364)" fill="#101f2d"/>
        </g>
      </g>
    </g>
  </g>
</svg>
