<svg xmlns="http://www.w3.org/2000/svg" width="120" height="120" viewBox="0 0 120 120">
  <g id="Grupo_1115928" data-name="Grupo 1115928" transform="translate(-64 -6445)">
    <rect id="Rect치ngulo_402033" data-name="Rect치ngulo 402033" width="120" height="120" rx="8" transform="translate(64 6445)" fill="#0042db"/>
    <g id="Rect치ngulo_412110" data-name="Rect치ngulo 412110" transform="translate(69 6450)" fill="none" stroke="#fff" stroke-width="1">
      <rect width="110" height="110" rx="6" stroke="none"/>
      <rect x="0.5" y="0.5" width="109" height="109" rx="5.5" fill="none"/>
    </g>
    <g id="Grupo_1116385" data-name="Grupo 1116385" transform="translate(72.388 6466.179)">
      <g id="Grupo_1116361" data-name="Grupo 1116361" transform="translate(30.43 1.137)">
        <path id="Trazado_957684" data-name="Trazado 957684" d="M165.365,7.5H117.073a.758.758,0,0,0-.758.758V29.28h4.973a3.716,3.716,0,0,1,.259,7.423v4.61h0a1.515,1.515,0,0,1,1.286,1.5v9.413a1.515,1.515,0,0,1-1.286,1.5h0v4.61a3.716,3.716,0,0,1-.259,7.423h-4.973v6.223H126.78a1.516,1.516,0,0,1,1.516,1.516V76.51s0,0,0,0h1.155a1.516,1.516,0,0,1,1.516,1.516v4.836h35.155V8.258A.758.758,0,0,0,165.365,7.5Z" transform="translate(-116.315 -7.5)" fill="#fff3de"/>
      </g>
      <g id="Grupo_1116362" data-name="Grupo 1116362" transform="translate(30.43 1.137)">
        <path id="Trazado_957685" data-name="Trazado 957685" d="M121.288,29.28c.045,0,.09,0,.135,0V8.258a.758.758,0,0,1,.758-.758h-5.108a.758.758,0,0,0-.758.758V29.28Z" transform="translate(-116.315 -7.5)" fill="#ffe5c2"/>
        <path id="Trazado_957686" data-name="Trazado 957686" d="M121.288,391.63h-4.973v6.223h5.108v-6.226C121.378,391.628,121.333,391.63,121.288,391.63Z" transform="translate(-116.315 -333.376)" fill="#ffe5c2"/>
      </g>
      <g id="Grupo_1116380" data-name="Grupo 1116380" transform="translate(16.215 22.918)">
        <g id="Grupo_1116363" data-name="Grupo 1116363" transform="translate(20.732 15.644)">
          <path id="Trazado_957687" data-name="Trazado 957687" d="M159.3,254.29h7.019v5.186H159.3Z" transform="translate(-159.296 -254.29)" fill="#883f2e"/>
          <path id="Trazado_957688" data-name="Trazado 957688" d="M237.5,254.29h10.026v5.186H237.5Z" transform="translate(-225.643 -254.29)" fill="#883f2e"/>
        </g>
        <g id="Grupo_1116364" data-name="Grupo 1116364" transform="translate(20.732 18.33)">
          <path id="Trazado_957689" data-name="Trazado 957689" d="M159.3,272h7.019v2.5H159.3Z" transform="translate(-159.296 -272)" fill="#6d3326"/>
          <path id="Trazado_957690" data-name="Trazado 957690" d="M237.5,272h10.026v2.5H237.5Z" transform="translate(-225.643 -272)" fill="#6d3326"/>
        </g>
        <g id="Grupo_1116365" data-name="Grupo 1116365" transform="translate(42.618 14.434)">
          <path id="Trazado_957691" data-name="Trazado 957691" d="M331.792,250.113a3.8,3.8,0,0,1-3.8,3.8H304.48a.864.864,0,0,1-.864-.864v-5.877a.864.864,0,0,1,.864-.864h23.509A3.8,3.8,0,0,1,331.792,250.113Z" transform="translate(-303.616 -246.31)" fill="#ca6e59"/>
        </g>
        <g id="Grupo_1116366" data-name="Grupo 1116366" transform="translate(42.618 14.434)">
          <path id="Trazado_957692" data-name="Trazado 957692" d="M308.784,250.661a.864.864,0,0,1-.864-.864V246.31h-3.44a.864.864,0,0,0-.864.864v5.877a.864.864,0,0,0,.864.864h23.509a3.8,3.8,0,0,0,3.763-3.255Z" transform="translate(-303.616 -246.31)" fill="#bb5d4c"/>
        </g>
        <g id="Grupo_1116367" data-name="Grupo 1116367" transform="translate(27.752 14.434)">
          <path id="Trazado_957693" data-name="Trazado 957693" d="M210.425,247.069v6.089a.758.758,0,0,1-.758.758h-3.324a.758.758,0,0,1-.758-.758v-6.089a.758.758,0,0,1,.758-.758h3.324A.758.758,0,0,1,210.425,247.069Z" transform="translate(-205.585 -246.311)" fill="#ca6e59"/>
        </g>
        <g id="Grupo_1116368" data-name="Grupo 1116368" transform="translate(27.752 14.434)">
          <path id="Trazado_957694" data-name="Trazado 957694" d="M207.784,253.159v-6.089a.758.758,0,0,1,.758-.758h-2.2a.758.758,0,0,0-.758.758v6.089a.758.758,0,0,0,.758.758h2.2A.758.758,0,0,1,207.784,253.159Z" transform="translate(-205.585 -246.311)" fill="#bb5d4c"/>
        </g>
        <g id="Grupo_1116369" data-name="Grupo 1116369" transform="translate(9.421 7.423)">
          <path id="Trazado_957695" data-name="Trazado 957695" d="M94.5,312.316H84.934a1.522,1.522,0,0,1-.231-.019v4.61c.086-.006.172-.01.259-.01H94.47c.087,0,.173,0,.259.01V312.3A1.507,1.507,0,0,1,94.5,312.316Z" transform="translate(-84.703 -295.28)" fill="#883f2e"/>
          <path id="Trazado_957696" data-name="Trazado 957696" d="M84.934,312.316a1.523,1.523,0,0,1-.231-.019v4.61c.086-.006.172-.01.259-.01h3.559v-4.581H84.934Z" transform="translate(-84.703 -295.28)" fill="#6d3326"/>
          <path id="Trazado_957697" data-name="Trazado 957697" d="M84.934,204.67H94.5a1.526,1.526,0,0,1,.231.019v-4.61c-.086.006-.172.01-.259.01H84.962c-.087,0-.173,0-.259-.01v4.61A1.526,1.526,0,0,1,84.934,204.67Z" transform="translate(-84.703 -200.079)" fill="#883f2e"/>
          <path id="Trazado_957698" data-name="Trazado 957698" d="M84.934,204.669h3.588v-4.581H84.962c-.087,0-.173,0-.259-.01v4.61a1.542,1.542,0,0,1,.231-.019Z" transform="translate(-84.703 -200.078)" fill="#6d3326"/>
        </g>
        <g id="Grupo_1116370" data-name="Grupo 1116370" transform="translate(8.135 12.014)">
          <path id="Trazado_957699" data-name="Trazado 957699" d="M88.822,231.868v9.413a1.516,1.516,0,0,1-1.516,1.516H77.741a1.516,1.516,0,0,1-1.516-1.516v-9.413a1.516,1.516,0,0,1,1.516-1.516h9.564A1.516,1.516,0,0,1,88.822,231.868Z" transform="translate(-76.225 -230.352)" fill="#ca6e59"/>
        </g>
        <g id="Grupo_1116371" data-name="Grupo 1116371" transform="translate(8.135 12.014)">
          <path id="Trazado_957700" data-name="Trazado 957700" d="M81.347,241.281v-9.413a1.516,1.516,0,0,1,1.516-1.516H77.741a1.516,1.516,0,0,0-1.516,1.516v9.413a1.516,1.516,0,0,0,1.516,1.516h5.122A1.516,1.516,0,0,1,81.347,241.281Z" transform="translate(-76.225 -230.352)" fill="#bb5d4c"/>
        </g>
        <g id="Grupo_1116374" data-name="Grupo 1116374" transform="translate(0 42.696)">
          <path id="Trazado_957701" data-name="Trazado 957701" d="M63.712,437.374a1.549,1.549,0,0,0,.008-.156V434.2a1.516,1.516,0,0,0-1.516-1.516H41.711a1.516,1.516,0,0,0-1.516,1.516v3.017a1.551,1.551,0,0,0,.008.156Z" transform="translate(-37.523 -432.685)" fill="#ca6e59"/>
          <path id="Trazado_957702" data-name="Trazado 957702" d="M45.329,437.374a1.55,1.55,0,0,1-.008-.156V434.2a1.516,1.516,0,0,1,1.516-1.516H41.711a1.516,1.516,0,0,0-1.516,1.516v3.017a1.551,1.551,0,0,0,.008.156Z" transform="translate(-37.523 -432.685)" fill="#bb5d4c"/>
          <g id="Grupo_1116372" data-name="Grupo 1116372" transform="translate(0 4.538)">
            <path id="Trazado_957703" data-name="Trazado 957703" d="M51.446,468.961H23.336a.758.758,0,0,1-.758-.758v-4.078a1.516,1.516,0,0,1,1.516-1.516H49.929a1.516,1.516,0,0,1,1.516,1.516Z" transform="translate(-22.578 -462.608)" fill="#883f2e"/>
          </g>
          <g id="Grupo_1116373" data-name="Grupo 1116373" transform="translate(0 4.538)">
            <path id="Trazado_957704" data-name="Trazado 957704" d="M27.646,468.2v-4.078a1.516,1.516,0,0,1,1.516-1.516H24.094a1.516,1.516,0,0,0-1.516,1.516V468.2a.758.758,0,0,0,.758.758H28.4A.758.758,0,0,1,27.646,468.2Z" transform="translate(-22.578 -462.608)" fill="#6d3326"/>
          </g>
        </g>
        <g id="Grupo_1116379" data-name="Grupo 1116379" transform="translate(5.964)">
          <g id="Grupo_1116375" data-name="Grupo 1116375" transform="translate(0 29.041)">
            <path id="Trazado_957705" data-name="Trazado 957705" d="M78.845,346.349a3.717,3.717,0,0,1-3.716,3.716H65.621a3.716,3.716,0,0,1,0-7.433h9.507A3.717,3.717,0,0,1,78.845,346.349Z" transform="translate(-61.905 -342.633)" fill="#ca6e59"/>
          </g>
          <g id="Grupo_1116376" data-name="Grupo 1116376" transform="translate(0 29.041)">
            <path id="Trazado_957706" data-name="Trazado 957706" d="M66.967,346.349a3.717,3.717,0,0,1,3.716-3.716H65.621a3.716,3.716,0,1,0,0,7.433h5.062A3.717,3.717,0,0,1,66.967,346.349Z" transform="translate(-61.905 -342.633)" fill="#bb5d4c"/>
          </g>
          <g id="Grupo_1116377" data-name="Grupo 1116377" transform="translate(0)">
            <path id="Trazado_957707" data-name="Trazado 957707" d="M78.845,154.844a3.717,3.717,0,0,1-3.716,3.716H65.621a3.716,3.716,0,0,1,0-7.433h9.507A3.717,3.717,0,0,1,78.845,154.844Z" transform="translate(-61.905 -151.128)" fill="#ca6e59"/>
          </g>
          <g id="Grupo_1116378" data-name="Grupo 1116378">
            <path id="Trazado_957708" data-name="Trazado 957708" d="M66.967,154.844a3.717,3.717,0,0,1,3.716-3.716H65.621a3.716,3.716,0,1,0,0,7.433h5.062A3.716,3.716,0,0,1,66.967,154.844Z" transform="translate(-61.905 -151.128)" fill="#bb5d4c"/>
          </g>
        </g>
      </g>
      <g id="Grupo_1116383" data-name="Grupo 1116383" transform="translate(44.693 8.205)">
        <g id="Grupo_1116381" data-name="Grupo 1116381">
          <circle id="Elipse_13534" data-name="Elipse 13534" cx="10.641" cy="10.641" r="10.641" fill="#4fc123"/>
        </g>
        <g id="Grupo_1116382" data-name="Grupo 1116382" transform="translate(0)">
          <path id="Trazado_957709" data-name="Trazado 957709" d="M215.471,64.748a10.643,10.643,0,0,1,8.091-10.331,10.641,10.641,0,1,0,0,20.662A10.644,10.644,0,0,1,215.471,64.748Z" transform="translate(-210.372 -54.107)" fill="#47a920"/>
        </g>
      </g>
      <g id="Grupo_1116384" data-name="Grupo 1116384" transform="translate(15.078 0)">
        <path id="Trazado_957710" data-name="Trazado 957710" d="M83.206,36.214H81.375V16.529A1.137,1.137,0,0,0,80.2,15.392a1.169,1.169,0,0,0-1.1,1.184V36.214H71.478a1.137,1.137,0,1,0,0,2.275H83.206a2.666,2.666,0,0,1,0,5.331H59.971V38.489h6.2a1.137,1.137,0,0,0,0-2.275H59.7a2,2,0,0,0-1.838,1.21H49.814a1.9,1.9,0,0,0-1.765-1.21H44.725a1.9,1.9,0,0,0-1.765,1.21H38.085v-.976a2.652,2.652,0,0,0-1.286-2.27v-2.9a4.854,4.854,0,0,0-1.4-9.5H31.567V2.275H79.1v8.947a1.137,1.137,0,0,0,1.172,1.137,1.169,1.169,0,0,0,1.1-1.184V1.9A1.9,1.9,0,0,0,79.48,0H31.188a1.9,1.9,0,0,0-1.9,1.9V21.78H25.9a4.854,4.854,0,0,0-1.4,9.5v2.9a2.652,2.652,0,0,0-1.286,2.27v9.413A2.652,2.652,0,0,0,24.5,48.13v2.9a4.854,4.854,0,0,0,1.4,9.5h3.4v3.948H20.4a2.657,2.657,0,0,0-2.654,2.654v1.884h-.018a2.657,2.657,0,0,0-2.654,2.654v4.078a1.9,1.9,0,0,0,1.9,1.9H79.48a1.9,1.9,0,0,0,1.9-1.9V46.095h1.831a4.94,4.94,0,0,0,0-9.881ZM49.945,39.7H57.7V42.61H49.945Zm-4.84-1.21H47.67V43.82H45.1ZM38.085,39.7H42.83V42.61H38.085ZM23.316,26.634A2.582,2.582,0,0,1,25.9,24.055H35.4a2.579,2.579,0,1,1,0,5.158H25.9A2.582,2.582,0,0,1,23.316,26.634ZM25.867,46.24a.38.38,0,0,1-.379-.379V36.448a.38.38,0,0,1,.379-.379h9.564a.38.38,0,0,1,.379.379v9.413a.38.38,0,0,1-.379.379Zm8.658,2.275v2.306H26.774V48.515ZM26.774,33.794V31.488h7.751v2.306ZM25.9,58.254a2.579,2.579,0,1,1,0-5.158H35.4a2.579,2.579,0,1,1,0,5.158Zm18.05,17.113H17.353v-3.7a.38.38,0,0,1,.379-.379h7.04a1.137,1.137,0,0,0,0-2.275H20.024V67.131a.38.38,0,0,1,.379-.379H40.895a.38.38,0,0,1,.379.379v1.884h-11.2a1.137,1.137,0,1,0,0,2.275H43.567a.38.38,0,0,1,.379.379Zm35.155,0H46.22v-3.7a2.657,2.657,0,0,0-2.654-2.654h-.018V67.131a2.657,2.657,0,0,0-2.654-2.654H31.567V60.528H35.4a4.854,4.854,0,0,0,1.4-9.5v-2.9a2.652,2.652,0,0,0,1.286-2.27v-.976H42.96a1.9,1.9,0,0,0,1.765,1.21h3.324a1.9,1.9,0,0,0,1.765-1.21H57.86a2,2,0,0,0,1.838,1.21H79.1V75.367Z" transform="translate(-15.078 0)"/>
        <path id="Trazado_957711" data-name="Trazado 957711" d="M202.872,58.385A11.778,11.778,0,1,0,214.65,46.607,11.791,11.791,0,0,0,202.872,58.385Zm21.281,0a9.5,9.5,0,1,1-9.5-9.5A9.514,9.514,0,0,1,224.153,58.385Z" transform="translate(-174.394 -39.539)"/>
        <path id="Trazado_957712" data-name="Trazado 957712" d="M248.285,103.417a1.137,1.137,0,1,0-1.608,1.608l3.5,3.5a1.137,1.137,0,0,0,1.609,0l5.422-5.422a1.137,1.137,0,0,0-1.608-1.608l-4.618,4.618Z" transform="translate(-211.273 -85.819)"/>
        <path id="Trazado_957713" data-name="Trazado 957713" d="M243.681,328.206a1.137,1.137,0,0,0,1.137,1.137h20.916a1.137,1.137,0,0,0,0-2.275H244.818A1.137,1.137,0,0,0,243.681,328.206Z" transform="translate(-209.015 -277.471)"/>
        <path id="Trazado_957714" data-name="Trazado 957714" d="M322.421,363.546H311.637a1.137,1.137,0,0,0,0,2.275h10.783a1.137,1.137,0,0,0,0-2.275Z" transform="translate(-265.701 -308.416)"/>
        <path id="Trazado_957715" data-name="Trazado 957715" d="M244.818,365.821h6.19a1.137,1.137,0,1,0,0-2.275h-6.19a1.137,1.137,0,1,0,0,2.275Z" transform="translate(-209.015 -308.416)"/>
        <path id="Trazado_957716" data-name="Trazado 957716" d="M265.734,400.023H244.817a1.137,1.137,0,1,0,0,2.275h20.916a1.137,1.137,0,1,0,0-2.275Z" transform="translate(-209.014 -339.362)"/>
        <path id="Trazado_957717" data-name="Trazado 957717" d="M352.113,436.5h-5.476a1.137,1.137,0,0,0,0,2.275h5.476a1.137,1.137,0,0,0,0-2.275Z" transform="translate(-295.393 -370.307)"/>
        <path id="Trazado_957718" data-name="Trazado 957718" d="M256.771,436.5H244.818a1.137,1.137,0,1,0,0,2.275h11.952a1.137,1.137,0,0,0,0-2.275Z" transform="translate(-209.015 -370.307)"/>
      </g>
    </g>
  </g>
</svg>
