<svg xmlns="http://www.w3.org/2000/svg" width="120" height="120" viewBox="0 0 120 120">
  <g id="Grupo_1115861" data-name="Grupo 1115861" transform="translate(-64 -6445)">
    <rect id="Rectángulo_402033" data-name="Rectángulo 402033" width="120" height="120" rx="8" transform="translate(64 6445)" fill="#0042db"/>
    <g id="Rectángulo_412110" data-name="Rectángulo 412110" transform="translate(69 6450)" fill="none" stroke="#fff" stroke-width="1">
      <rect width="110" height="110" rx="6" stroke="none"/>
      <rect x="0.5" y="0.5" width="109" height="109" rx="5.5" fill="none"/>
    </g>
    <g id="Filled_outline" data-name="Filled outline" transform="translate(68.052 6448.795)">
      <path id="Trazado_957311" data-name="Trazado 957311" d="M192.723,48H161.09l10.384-15.755L176.907,24Z" transform="translate(-120.954 -6.476)" fill="#60d1e0"/>
      <path id="Trazado_957312" data-name="Trazado 957312" d="M101.325,289.331H24L35.424,272H89.9Z" transform="translate(-6.71 -213.148)" fill="#348fd9"/>
      <path id="Trazado_957313" data-name="Trazado 957313" d="M135.6,168H103.968L92.545,185.331h54.479Z" transform="translate(-63.832 -126.479)" fill="#4db7e5"/>
      <path id="Trazado_957314" data-name="Trazado 957314" d="M233.667,48,223.4,32.242,228.833,24l15.817,24Z" transform="translate(-172.88 -6.476)" fill="#5ac6d4"/>
      <path id="Trazado_957315" data-name="Trazado 957315" d="M296.3,185.331,285.01,168h10.982l11.422,17.331Z" transform="translate(-224.223 -126.479)" fill="#48add9"/>
      <path id="Trazado_957316" data-name="Trazado 957316" d="M375.314,289.331h-11.24L352.78,272h11.11Z" transform="translate(-280.699 -213.148)" fill="#3086cd"/>
      <path id="Trazado_957317" data-name="Trazado 957317" d="M61.329,350.664a4,4,0,0,1-4,4H28a4,4,0,1,1,0-8l.235-.157A17.433,17.433,0,0,0,36,332v-4H49.33v4c0,.153,0,.307.007.46a17.433,17.433,0,0,0,7.757,14.048l.235.157a4,4,0,0,1,4,4Z" transform="translate(-6.71 -259.815)" fill="#95573a"/>
      <path id="Trazado_957318" data-name="Trazado 957318" d="M83.655,372.965a4,4,0,0,1-4,4H50.79c6.953-4.384,14.428-11.275,20.873-22.2a17.433,17.433,0,0,0,7.757,14.048l.235.157a4,4,0,0,1,4,4Z" transform="translate(-29.035 -282.116)" fill="#8f4d2e"/>
      <rect id="Rectángulo_416079" data-name="Rectángulo 416079" width="23.997" height="7.999" rx="4" transform="translate(23.956 60.186)" fill="#a15d3d"/>
      <path id="Trazado_957319" data-name="Trazado 957319" d="M157.333,280H152a4,4,0,1,1,0,8h5.333a4,4,0,0,0,0-8Z" transform="translate(-113.379 -219.814)" fill="#8f4d2e"/>
      <path id="Trazado_957320" data-name="Trazado 957320" d="M96,240H82.666L80,232H98.665Z" transform="translate(-53.377 -179.814)" fill="#95573a"/>
      <path id="Trazado_957321" data-name="Trazado 957321" d="M104,116l-5.333-1.333L100,120H92l1.333-5.333L88,116v-8l5.333,1.333L92,104h8l-1.333,5.333,3.326-.832L104,108Z" transform="translate(-60.044 -73.144)" fill="#ffb531"/>
      <path id="Trazado_957322" data-name="Trazado 957322" d="M96,200h13.332v5.333H96Z" transform="translate(-66.711 -153.146)" fill="#8f4d2e"/>
      <path id="Trazado_957323" data-name="Trazado 957323" d="M124.14,136l-5.333-1.333L120.141,140H112.17l9.964-11.5,2.006-.5Z" transform="translate(-80.186 -93.145)" fill="#ffa912"/>
      <path id="Trazado_957324" data-name="Trazado 957324" d="M96,328h13.332v4H96Z" transform="translate(-66.711 -259.815)" fill="#8f4d2e"/>
      <path id="Trazado_957325" data-name="Trazado 957325" d="M155.858,232h-4.28l-2.947,8h4.561Z" transform="translate(-110.571 -179.814)" fill="#8f4d2e"/>
      <path id="Trazado_957326" data-name="Trazado 957326" d="M152,200h4v5.333h-4Z" transform="translate(-113.379 -153.146)" fill="#82462a"/>
      <path id="Trazado_957327" data-name="Trazado 957327" d="M203.232,16.789a1.384,1.384,0,0,0-2.226,0l-9.662,14.665,2.226,1.467,8.549-12.976L215.46,40.188H194.12v2.666h23.1l9.666,14.665h-30.1v2.666H228.64l9.666,14.665H192.786v2.666h47.995a1.333,1.333,0,0,0,1.113-2.067Z" transform="translate(-146.166)"/>
      <path id="Trazado_957328" data-name="Trazado 957328" d="M20.611,331.6l-4.39,6.666a1.333,1.333,0,0,0,1.113,2.066h8v-2.666H19.809l3.028-4.6Z" transform="translate(-0.044 -262.815)"/>
      <path id="Trazado_957329" data-name="Trazado 957329" d="M0,0H2.423V2.666H0Z" transform="translate(53.506 28.513) rotate(-56.628)"/>
      <path id="Trazado_957330" data-name="Trazado 957330" d="M0,0H7.467V2.666H0Z" transform="translate(48.045 36.797) rotate(-56.628)"/>
      <path id="Trazado_957331" data-name="Trazado 957331" d="M51.049,152.01a16.07,16.07,0,0,1-7.1-13.348V136a5.319,5.319,0,0,0,.5-10.615l2.1-6.295a1.332,1.332,0,0,0-1.265-1.754H43.954v-4A1.333,1.333,0,0,0,42.621,112H40.995l-.542-2.168,3.178.794a1.313,1.313,0,0,0,1.143-.242,1.332,1.332,0,0,0,.513-1.051v-8a1.333,1.333,0,0,0-1.656-1.293l-3.178.794.794-3.178A1.333,1.333,0,0,0,39.954,96h-8a1.333,1.333,0,0,0-1.293,1.656l.794,3.178-3.178-.794a1.333,1.333,0,0,0-1.656,1.293v8a1.333,1.333,0,0,0,1.656,1.293l3.178-.794L30.915,112H29.289a1.333,1.333,0,0,0-1.333,1.333v4H26.623a1.332,1.332,0,0,0-1.264,1.755l2.1,6.294a5.319,5.319,0,0,0,.5,10.615v2.666a16.07,16.07,0,0,1-7.1,13.348,5.333,5.333,0,0,0,.43,10.649H50.62a5.333,5.333,0,0,0,.43-10.649ZM28.472,120H43.437L41.66,125.33H30.25Zm5.758-12.941a1.329,1.329,0,0,0-1.266-.35l-3.676.918v-4.583l3.677.918a1.332,1.332,0,0,0,1.616-1.616l-.919-3.676h4.583l-.918,3.677a1.332,1.332,0,0,0,1.616,1.616l3.676-.919v4.583l-3.677-.918a1.332,1.332,0,0,0-1.616,1.616L38.246,112H33.663l.918-3.677a1.33,1.33,0,0,0-.35-1.266Zm-3.609,7.608H41.288v2.666H30.622Zm-5.333,16A2.67,2.67,0,0,1,27.956,128h16a2.666,2.666,0,0,1,0,5.333h-16A2.67,2.67,0,0,1,25.289,130.663Zm25.33,29.33H21.29a2.666,2.666,0,0,1,0-5.333,1.335,1.335,0,0,0,.74-.224l.234-.156a18.732,18.732,0,0,0,8.358-15.618V136H41.288v2.666a18.7,18.7,0,0,0,5.6,13.332H27.956v2.666H50.62a2.666,2.666,0,1,1,0,5.333Z" transform="translate(0 -66.478)"/>
    </g>
  </g>
</svg>
