<svg xmlns="http://www.w3.org/2000/svg" width="120" height="120" viewBox="0 0 120 120">
  <g id="Grupo_1115914" data-name="Grupo 1115914" transform="translate(-64 -6445)">
    <rect id="Rect치ngulo_402033" data-name="Rect치ngulo 402033" width="120" height="120" rx="8" transform="translate(64 6445)" fill="#0042db"/>
    <g id="Rect치ngulo_412110" data-name="Rect치ngulo 412110" transform="translate(69 6450)" fill="none" stroke="#fff" stroke-width="1">
      <rect width="110" height="110" rx="6" stroke="none"/>
      <rect x="0.5" y="0.5" width="109" height="109" rx="5.5" fill="none"/>
    </g>
    <g id="Grupo_1116389" data-name="Grupo 1116389" transform="translate(78.758 6464.164)">
      <g id="Grupo_1116387" data-name="Grupo 1116387" transform="translate(9.371 1.196)">
        <path id="Trazado_957719" data-name="Trazado 957719" d="M163.148,86.78H104.441a2.321,2.321,0,0,1-2.321-2.321V9.821A2.321,2.321,0,0,1,104.441,7.5h58.706a2.321,2.321,0,0,1,2.321,2.321V84.458a2.322,2.322,0,0,1-2.321,2.322Z" transform="translate(-90.795 -7.5)" fill="#60b7ff"/>
        <path id="Trazado_957720" data-name="Trazado 957720" d="M451.079,7.5H444.7a2.321,2.321,0,0,1,2.321,2.321V84.458a2.321,2.321,0,0,1-2.321,2.321h6.381a2.321,2.321,0,0,0,2.321-2.321V9.821A2.322,2.322,0,0,0,451.079,7.5Z" transform="translate(-378.726 -7.5)" fill="#26a6fe"/>
        <path id="Trazado_957721" data-name="Trazado 957721" d="M183.177,39.24v61.51a4.734,4.734,0,0,0-4.737,4.736H132.861a4.737,4.737,0,0,0-4.737-4.736V39.24a4.737,4.737,0,0,0,4.737-4.736v0h45.578v0A4.737,4.737,0,0,0,183.177,39.24Z" transform="translate(-112.651 -30.196)" fill="#fff9df"/>
        <path id="Trazado_957722" data-name="Trazado 957722" d="M459.251,60.7v62.627a4.72,4.72,0,0,1,2.233-.558V61.258A4.715,4.715,0,0,1,459.251,60.7Z" transform="translate(-390.958 -52.213)" fill="#fff6ce"/>
        <path id="Trazado_957723" data-name="Trazado 957723" d="M337.192,336.058a8.138,8.138,0,0,1,7.74,5.624,8.139,8.139,0,0,1-2.956,9.1,8.139,8.139,0,0,1-9.567,0,8.139,8.139,0,0,1-2.956-9.1,8.138,8.138,0,0,1,7.74-5.624Z" transform="translate(-281.008 -283.338)" fill="#fe76a8"/>
        <g id="Grupo_1116386" data-name="Grupo 1116386" transform="translate(0 32.717)">
          <path id="Trazado_957724" data-name="Trazado 957724" d="M53.619,393.2H35.162a3.079,3.079,0,0,0-3.043,2.608l-.995,6.421H57.657l-.995-6.421a3.08,3.08,0,0,0-3.043-2.608Z" transform="translate(-31.124 -364.389)" fill="#dc8758"/>
          <path id="Trazado_957725" data-name="Trazado 957725" d="M76.243,369.069H58.418V366.6a2.108,2.108,0,0,1,2.108-2.108H74.134a2.109,2.109,0,0,1,2.108,2.108Z" transform="translate(-54.064 -340.261)" fill="#ffe177"/>
          <path id="Trazado_957726" data-name="Trazado 957726" d="M153.311,395.806a3.08,3.08,0,0,0-3.043-2.608h-4.151a3.079,3.079,0,0,1,3.043,2.608l.995,6.421h4.151Z" transform="translate(-127.773 -364.39)" fill="#d77f4a"/>
          <path id="Trazado_957727" data-name="Trazado 957727" d="M135.068,364.491h-4.151a2.109,2.109,0,0,1,2.108,2.108v2.471h4.151V366.6A2.109,2.109,0,0,0,135.068,364.491Z" transform="translate(-114.998 -340.262)" fill="#ffd15b"/>
          <path id="Trazado_957728" data-name="Trazado 957728" d="M93.223,290.786h-10.1a49.835,49.835,0,0,1,0,11.757h10.1A49.712,49.712,0,0,1,93.223,290.786Z" transform="translate(-74.825 -278.314)" fill="#dc8758"/>
          <path id="Trazado_957729" data-name="Trazado 957729" d="M122.748,290.79a49.791,49.791,0,0,0,0,11.756H118.6a49.622,49.622,0,0,1,0-11.756Z" transform="translate(-104.35 -278.318)" fill="#d77f4a"/>
          <path id="Trazado_957730" data-name="Trazado 957730" d="M82.6,220.663c0,4.1-3.323,6.784-7.422,6.784a7.422,7.422,0,0,1,0-14.845C79.281,212.6,82.6,216.563,82.6,220.663Z" transform="translate(-61.915 -212.602)" fill="#ffe177"/>
          <path id="Trazado_957731" data-name="Trazado 957731" d="M102.9,212.6a7.419,7.419,0,0,0-2.161.321,8.307,8.307,0,0,1,5.432,7.74,6.612,6.612,0,0,1-5.246,6.517,7.425,7.425,0,0,0,1.975.268c4.1,0,7.422-2.685,7.422-6.784S107,212.6,102.9,212.6Z" transform="translate(-89.637 -212.601)" fill="#ffd15b"/>
        </g>
        <path id="Trazado_957732" data-name="Trazado 957732" d="M231.983,99.3a2.461,2.461,0,0,1,2.461-2.461h17a2.461,2.461,0,0,1,0,4.923h-17A2.461,2.461,0,0,1,231.983,99.3Z" transform="translate(-199.943 -82.587)" fill="#8ac9fe"/>
      </g>
      <g id="Grupo_1116388" data-name="Grupo 1116388" transform="translate(5.242 0)">
        <path id="Trazado_957733" data-name="Trazado 957733" d="M84.046,60.449a1.2,1.2,0,0,0,1.2-1.2V3.517A3.522,3.522,0,0,0,81.723,0H23.018A3.522,3.522,0,0,0,19.5,3.517V33.311a8.61,8.61,0,0,0-2.93,14.139,49.082,49.082,0,0,1,.025,9.5h-.762a3.309,3.309,0,0,0-3.3,3.3v1.367a4.248,4.248,0,0,0-3.345,3.528l-.838,5.408H6.438a1.2,1.2,0,0,0,0,2.393H19.5v5.208a3.522,3.522,0,0,0,3.519,3.517H81.723a3.522,3.522,0,0,0,3.519-3.517v-13.3a1.2,1.2,0,1,0-2.393,0v13.3a1.127,1.127,0,0,1-1.126,1.125H23.018a1.127,1.127,0,0,1-1.126-1.125V72.947h2.953a3.539,3.539,0,0,1,3.54,3.538,1.2,1.2,0,0,0,1.2,1.2H75.159a1.2,1.2,0,0,0,1.2-1.2A3.536,3.536,0,0,1,79.9,72.949a1.2,1.2,0,0,0,1.2-1.2V10.241a1.2,1.2,0,0,0-1.2-1.2A3.545,3.545,0,0,1,76.355,5.5a1.2,1.2,0,0,0-1.2-1.2H29.58a1.2,1.2,0,0,0-1.2,1.2,3.544,3.544,0,0,1-3.54,3.54,1.2,1.2,0,0,0-1.2,1.2V28.594a1.2,1.2,0,1,0,2.393,0V11.316A5.951,5.951,0,0,0,30.656,6.7H74.084A5.951,5.951,0,0,0,78.7,11.316v59.36a5.937,5.937,0,0,0-4.618,4.614H30.657a5.856,5.856,0,0,0-1.051-2.343h9.229a1.2,1.2,0,1,0,0-2.393H36.928l-.838-5.408a4.247,4.247,0,0,0-3.345-3.528V60.251a3.309,3.309,0,0,0-3.3-3.3h-.6a48.328,48.328,0,0,1,0-9.3,7.648,7.648,0,0,0,2.411-5.67c0-4.931-4.027-9.257-8.619-9.257-.251,0-.5.013-.745.034V3.517a1.127,1.127,0,0,1,1.126-1.125H81.723A1.127,1.127,0,0,1,82.85,3.517V59.253a1.2,1.2,0,0,0,1.2,1.2Zm-50.32,5.063.781,5.042H10.767l.781-5.042a1.873,1.873,0,0,1,1.861-1.595H31.865A1.874,1.874,0,0,1,33.726,65.512Zm-3.373-5.262v1.274H14.921V60.251a.913.913,0,0,1,.912-.912H29.44A.913.913,0,0,1,30.353,60.251Zm-3.918-3.3H19a50.261,50.261,0,0,0,.1-7.752,8.566,8.566,0,0,0,3.533.761,9.726,9.726,0,0,0,3.687-.705,49.658,49.658,0,0,0,.111,7.7Zm2.428-14.972c0,3.238-2.618,5.588-6.226,5.588a6.226,6.226,0,1,1,0-12.452C25.9,35.11,28.863,38.382,28.863,41.974Z" transform="translate(-5.242 0)"/>
        <path id="Trazado_957734" data-name="Trazado 957734" d="M245.137,96.653a3.658,3.658,0,1,0,0-7.315h-17a3.658,3.658,0,0,0,0,7.315ZM226.876,93a1.266,1.266,0,0,1,1.265-1.265h17a1.265,1.265,0,1,1,0,2.53h-17A1.266,1.266,0,0,1,226.876,93Z" transform="translate(-189.51 -75.087)"/>
        <path id="Trazado_957735" data-name="Trazado 957735" d="M160.638,168.081a1.2,1.2,0,0,0,1.2,1.2h42.287a1.2,1.2,0,0,0,0-2.393H161.834A1.2,1.2,0,0,0,160.638,168.081Z" transform="translate(-135.85 -140.264)"/>
        <path id="Trazado_957736" data-name="Trazado 957736" d="M161.834,200.04h42.287a1.2,1.2,0,0,0,0-2.393H161.834a1.2,1.2,0,1,0,0,2.393Z" transform="translate(-135.85 -166.119)"/>
        <path id="Trazado_957737" data-name="Trazado 957737" d="M205,230.8h28.319a1.2,1.2,0,0,0,0-2.393H205a1.2,1.2,0,1,0,0,2.393Z" transform="translate(-172.133 -191.975)"/>
        <path id="Trazado_957738" data-name="Trazado 957738" d="M205,261.566h28.319a1.2,1.2,0,1,0,0-2.393H205a1.2,1.2,0,1,0,0,2.393Z" transform="translate(-172.133 -217.831)"/>
        <path id="Trazado_957739" data-name="Trazado 957739" d="M234.519,291.132a1.2,1.2,0,0,0-1.2-1.2H205a1.2,1.2,0,0,0,0,2.393h28.319A1.2,1.2,0,0,0,234.519,291.132Z" transform="translate(-172.133 -243.686)"/>
        <path id="Trazado_957740" data-name="Trazado 957740" d="M325.3,345.495a7.987,7.987,0,0,0,11.09,0,9.434,9.434,0,0,0,3.427-10.547,9.434,9.434,0,0,0-8.972-6.519,9.434,9.434,0,0,0-8.972,6.519,9.434,9.434,0,0,0,3.427,10.547Zm-1.335-9.315a1.2,1.2,0,0,0,.325-1,2.411,2.411,0,0,1,1.979-2.723,1.2,1.2,0,0,0,.85-.618,2.411,2.411,0,0,1,3.2-1.04,1.2,1.2,0,0,0,1.051,0,2.411,2.411,0,0,1,3.2,1.04,1.2,1.2,0,0,0,.85.618,2.411,2.411,0,0,1,1.979,2.723,1.2,1.2,0,0,0,.325,1,2.411,2.411,0,0,1,0,3.366,1.2,1.2,0,0,0-.325,1,2.411,2.411,0,0,1-1.979,2.723,1.2,1.2,0,0,0-.85.618,2.411,2.411,0,0,1-3.2,1.04,1.2,1.2,0,0,0-1.051,0,2.411,2.411,0,0,1-3.2-1.04,1.2,1.2,0,0,0-.85-.618,2.411,2.411,0,0,1-1.979-2.723,1.2,1.2,0,0,0-.325-1A2.411,2.411,0,0,1,323.966,336.18Z" transform="translate(-270.535 -275.808)"/>
        <path id="Trazado_957741" data-name="Trazado 957741" d="M363.371,383.911h4.358a1.2,1.2,0,1,0,0-2.393h-4.358a1.2,1.2,0,1,0,0,2.393Z" transform="translate(-305.238 -320.66)"/>
        <path id="Trazado_957742" data-name="Trazado 957742" d="M215.045,350.558a1.2,1.2,0,0,0,1.4-.252c.764-.81,3.078-3.009,4.585-3.447a1.2,1.2,0,0,0-.668-2.3,11.716,11.716,0,0,0-3.822,2.365,2.848,2.848,0,0,0-.375-.68,2.322,2.322,0,0,0-1.619-.924,4.973,4.973,0,0,0-3.408,1.486c-.335-1.264-1.027-2.22-2.232-2.291-2.036-.118-4.126,3.005-4.932,4.355a1.2,1.2,0,0,0,2.054,1.227,10.586,10.586,0,0,1,2.643-3.142,6.3,6.3,0,0,1,.317,2.47,1.2,1.2,0,0,0,2.119.819c1.074-1.3,2.606-2.545,3.149-2.545h.01a2.953,2.953,0,0,1,.128,1.594A1.2,1.2,0,0,0,215.045,350.558Z" transform="translate(-172.13 -289.558)"/>
        <circle id="Elipse_13535" data-name="Elipse 13535" cx="1.196" cy="1.196" r="1.196" transform="translate(16.199 40.146)"/>
      </g>
    </g>
  </g>
</svg>
