<svg xmlns="http://www.w3.org/2000/svg" xmlns:xlink="http://www.w3.org/1999/xlink" width="295" height="234.001" viewBox="0 0 295 234.001">
  <defs>
    <clipPath id="clip-path">
      <rect id="Rectángulo_412220" data-name="Rectángulo 412220" width="262.714" height="174.807" fill="none"/>
    </clipPath>
    <clipPath id="clip-path-3">
      <rect id="Rectángulo_412176" data-name="Rectángulo 412176" width="21.454" height="68.094" fill="none"/>
    </clipPath>
    <clipPath id="clip-path-4">
      <rect id="Rectángulo_412177" data-name="Rectángulo 412177" width="27.38" height="133.842" fill="none"/>
    </clipPath>
    <clipPath id="clip-path-5">
      <rect id="Rectángulo_412178" data-name="Rectángulo 412178" width="21.454" height="40.448" fill="none"/>
    </clipPath>
    <clipPath id="clip-path-6">
      <rect id="Rectángulo_412179" data-name="Rectángulo 412179" width="27.38" height="86.464" fill="none"/>
    </clipPath>
    <clipPath id="clip-path-7">
      <rect id="Rectángulo_412186" data-name="Rectángulo 412186" width="10.107" height="9.433" fill="none"/>
    </clipPath>
    <clipPath id="clip-path-8">
      <rect id="Rectángulo_412187" data-name="Rectángulo 412187" width="10.108" height="9.433" fill="none"/>
    </clipPath>
    <clipPath id="clip-path-9">
      <rect id="Rectángulo_412188" data-name="Rectángulo 412188" width="10.107" height="9.434" fill="none"/>
    </clipPath>
    <clipPath id="clip-path-10">
      <rect id="Rectángulo_412189" data-name="Rectángulo 412189" width="13.056" height="12.184" fill="none"/>
    </clipPath>
    <clipPath id="clip-path-11">
      <rect id="Rectángulo_412190" data-name="Rectángulo 412190" width="4.976" height="4.644" fill="none"/>
    </clipPath>
    <clipPath id="clip-path-12">
      <rect id="Rectángulo_412191" data-name="Rectángulo 412191" width="7.872" height="7.346" fill="none"/>
    </clipPath>
    <clipPath id="clip-path-14">
      <rect id="Rectángulo_412193" data-name="Rectángulo 412193" width="12.965" height="12.132" fill="none"/>
    </clipPath>
    <clipPath id="clip-path-15">
      <rect id="Rectángulo_412199" data-name="Rectángulo 412199" width="5.022" height="15.562" fill="none"/>
    </clipPath>
    <clipPath id="clip-path-17">
      <rect id="Rectángulo_412216" data-name="Rectángulo 412216" width="23.651" height="22.075" fill="none"/>
    </clipPath>
  </defs>
  <g id="Grupo_1100184" data-name="Grupo 1100184" transform="translate(-600.256 -404)">
    <rect id="Rectángulo_35929" data-name="Rectángulo 35929" width="295" height="234.001" transform="translate(600.256 404)" fill="#99b3f1"/>
    <g id="Grupo_1114690" data-name="Grupo 1114690" transform="translate(616.399 433.598)">
      <g id="Grupo_1114689" data-name="Grupo 1114689" clip-path="url(#clip-path)">
        <g id="Grupo_1114688" data-name="Grupo 1114688">
          <g id="Grupo_1114687" data-name="Grupo 1114687" clip-path="url(#clip-path)">
            <path id="Trazado_924149" data-name="Trazado 924149" d="M248.147,53.732C227.565,26.054,170.772,28,161.269,28.2s-17.582-2.253-24.007-16.559S114.885-1.626,93.653,3.351,3,44.61.115,101.767q-.044.857-.074,1.7a64.124,64.124,0,0,0,10.294,37.176,68.971,68.971,0,0,0,10.287,12.464q.788.757,1.6,1.492a72.42,72.42,0,0,0,10.482,7.849,74.575,74.575,0,0,0,17.066,7.75,76.437,76.437,0,0,0,13.872,2.924c3.213.373,4.6,1.438,7.93,1.4H175.826l6.948-1.989q3.754-.055,7.384-.407,2.941-.283,5.8-.754a84.96,84.96,0,0,0,10.437-2.393,81.836,81.836,0,0,0,17.121-7.279,80.115,80.115,0,0,0,10.38-7.021q1.542-1.232,3.013-2.529a78.611,78.611,0,0,0,9.913-10.51c18.887-24.146,22.565-58.274,2.161-86.772q-.413-.577-.832-1.141" transform="translate(0 0)" fill="#fdeacf"/>
            <g id="Grupo_1114644" data-name="Grupo 1114644" transform="translate(4.345 85.015)" style="mix-blend-mode: multiply;isolation: isolate">
              <g id="Grupo_1114643" data-name="Grupo 1114643">
                <g id="Grupo_1114642" data-name="Grupo 1114642" clip-path="url(#clip-path-3)">
                  <path id="Trazado_924150" data-name="Trazado 924150" d="M52.075,864.349l-10.732,14.4,6,0-.014,41.229A68.975,68.975,0,0,0,57.62,932.443l-.827-53.691,6,0Z" transform="translate(-41.343 -864.349)" fill="#feefdc"/>
                </g>
              </g>
            </g>
            <g id="Grupo_1114647" data-name="Grupo 1114647" transform="translate(32.938 38.638)" style="mix-blend-mode: multiply;isolation: isolate">
              <g id="Grupo_1114646" data-name="Grupo 1114646">
                <g id="Grupo_1114645" data-name="Grupo 1114645" clip-path="url(#clip-path-4)">
                  <path id="Trazado_924151" data-name="Trazado 924151" d="M327.074,392.839l-13.7,18.376,7.662,0L321,523.757a76.433,76.433,0,0,0,13.872,2.924l-1.778-115.46,7.662,0Z" transform="translate(-313.377 -392.839)" fill="#feefdc"/>
                </g>
              </g>
            </g>
            <g id="Grupo_1114650" data-name="Grupo 1114650" transform="translate(174.313 132.116)" style="mix-blend-mode: multiply;isolation: isolate">
              <g id="Grupo_1114649" data-name="Grupo 1114649">
                <g id="Grupo_1114648" data-name="Grupo 1114648" clip-path="url(#clip-path-5)">
                  <path id="Trazado_924152" data-name="Trazado 924152" d="M1669.144,1343.229l-10.731,14.4,6,0-.009,26.047,2.467-.025q3.754-.055,7.384-.407l-.4-25.613,6,0Z" transform="translate(-1658.413 -1343.229)" fill="#feefdc"/>
                </g>
              </g>
            </g>
            <g id="Grupo_1114653" data-name="Grupo 1114653" transform="translate(226.253 68.22)" style="mix-blend-mode: multiply;isolation: isolate">
              <g id="Grupo_1114652" data-name="Grupo 1114652">
                <g id="Grupo_1114651" data-name="Grupo 1114651" clip-path="url(#clip-path-6)">
                  <path id="Trazado_924153" data-name="Trazado 924153" d="M2166.269,693.6l-13.7,18.376,7.662,0-.023,68.087q1.541-1.232,3.013-2.529a78.587,78.587,0,0,0,9.912-10.51l-.848-55.043,7.662,0Z" transform="translate(-2152.573 -693.599)" fill="#feefdc"/>
                </g>
              </g>
            </g>
            <path id="Trazado_924154" data-name="Trazado 924154" d="M1032.62,198.257a9.269,9.269,0,0,0-3.5-6.528,7.847,7.847,0,0,0-6.806-1.555l-9.026,2.313.634,2.167,9.027-2.313a5.77,5.77,0,0,1,5,1.144,6.816,6.816,0,0,1,2.573,4.8l1.211,14.9a25.934,25.934,0,0,1-8.353,21.7l1.405,1.761A26.41,26.41,0,0,0,1032,226.234a29.879,29.879,0,0,0,1.826-13.08Z" transform="translate(-906.783 -171.262)" fill="#fff"/>
            <path id="Trazado_924155" data-name="Trazado 924155" d="M973.252,206.51a.506.506,0,0,0-.474-.374h-.014l-.085.012h0l-4.154.6-.177.025a.71.71,0,0,0-.447.906l.939,3.207a.768.768,0,0,0,.9.562.647.647,0,0,0,.062-.019l.011,0,3.981-1.5h0l.07-.027h0a.463.463,0,0,0,.219-.555Z" transform="translate(-866.135 -185.861)" fill="#f7597f"/>
            <path id="Trazado_924156" data-name="Trazado 924156" d="M762.879,275.735l-7.07-13.4a6.555,6.555,0,0,1-.4-5.357,5.341,5.341,0,0,1,3.684-3.37l9.027-2.313-.634-2.167-9.026,2.313a7.264,7.264,0,0,0-5.01,4.583,8.915,8.915,0,0,0,.544,7.286l7.07,13.4a32.181,32.181,0,0,0,8.693,10.384,29.134,29.134,0,0,0,11.876,5.516l.25-2.185a28.4,28.4,0,0,1-19-14.689" transform="translate(-673.775 -224.628)" fill="#fff"/>
            <path id="Trazado_924157" data-name="Trazado 924157" d="M888.629,225.978a.771.771,0,0,0-.878-.566l-.166.062-3.9,1.468h0l-.079.03-.012.006a.466.466,0,0,0-.2.548l.829,2.831a.5.5,0,0,0,.49.374h0l.075-.01h0l4.241-.609.011,0c.021,0,.043-.007.064-.013a.708.708,0,0,0,.465-.911Z" transform="translate(-790.517 -203.226)" fill="#f7597f"/>
            <path id="Trazado_924158" data-name="Trazado 924158" d="M901.833,502.784a23.763,23.763,0,0,1-10.583,15.2,1.077,1.077,0,0,1-.674.173,26.134,26.134,0,0,1-17.385-8.036c-.442-.481-.678-.78-.68-.783l-2.813,1.726c.012.015.3.38.824.952a27.192,27.192,0,0,0,8.694,6.262,31.84,31.84,0,0,0,10.8,2.8l9.327,31.869.028-.007,3.244-.831.028-.007-9.327-31.869a29.222,29.222,0,0,0,7.773-7.557,24.661,24.661,0,0,0,4.071-9.533c.141-.743.189-1.194.191-1.212l-3.36-.144s-.041.373-.159,1" transform="translate(-778.285 -452.432)" fill="#4cb7d8"/>
            <path id="Trazado_924159" data-name="Trazado 924159" d="M1166.356,500.838a13.306,13.306,0,0,1-1.127,4.451l.19.083a13.477,13.477,0,0,0,1.139-4.424l3.258.139.01-.2-3.462-.148Z" transform="translate(-1042.754 -451.491)"/>
            <path id="Trazado_924160" data-name="Trazado 924160" d="M1176.881,279.573l-.209.015c.009.109.891,10.964,1.209,14.949a23.038,23.038,0,0,1-.421,6.869l.2.046a23.224,23.224,0,0,0,.426-6.93c-.318-3.986-1.2-14.84-1.209-14.949" transform="translate(-1052.994 -252.075)"/>
            <path id="Trazado_924161" data-name="Trazado 924161" d="M1097.6,189.385a8.181,8.181,0,0,0-3.025.277l.07.185a8.145,8.145,0,0,1,8.58,2.828l.168-.118a8.2,8.2,0,0,0-5.793-3.172" transform="translate(-979.523 -170.729)"/>
            <path id="Trazado_924162" data-name="Trazado 924162" d="M772.5,298.842a6.117,6.117,0,0,1,3.1-3.126l-.082-.181a6.333,6.333,0,0,0-3.213,3.236c-.7,1.76-.425,3.835.806,6.169l7.053,13.342.188-.087L773.3,304.853c-1.2-2.282-1.473-4.3-.8-6.011" transform="translate(-690.795 -266.467)"/>
            <path id="Trazado_924163" data-name="Trazado 924163" d="M798.679,466.7c1.943,4.112,5.2,9.376,5.233,9.428l.182-.1c-.033-.053-3.284-5.307-5.223-9.409Z" transform="translate(-714.731 -420.724)"/>
            <path id="Trazado_924164" data-name="Trazado 924164" d="M872.1,577.344l-.06-.068-2.892,1.774.115.165L872,577.537c.582.645,5.216,5.66,9.338,6.6l.05-.191c-4.316-.985-9.237-6.546-9.286-6.6" transform="translate(-777.793 -520.497)"/>
            <path id="Trazado_940692" data-name="Trazado 940692" d="M0,0,4.253.041l0,.2L0,.2Z" transform="translate(102.195 20.812) rotate(-8.713)"/>
            <path id="Trazado_940693" data-name="Trazado 940693" d="M0,0,4.345.1l0,.2L0,.2Z" transform="translate(93.127 23.624) rotate(-21.896)"/>
            <path id="Trazado_940694" data-name="Trazado 940694" d="M0,0,1.037.029l.006.207L.006.207Z" transform="translate(93.529 24.901) rotate(-62.269)"/>
            <path id="Trazado_940695" data-name="Trazado 940695" d="M0,0,1.037.029l.006.207L.006.207Z" transform="translate(93.783 25.507) rotate(-62.255)"/>
            <path id="Trazado_940696" data-name="Trazado 940696" d="M0,0,1.037.029l.006.207L.006.207Z" transform="translate(106.251 23.295) rotate(-62.269)"/>
            <path id="Trazado_940697" data-name="Trazado 940697" d="M0,0,1.037.029l.006.207L.006.207Z" transform="translate(106.504 23.9) rotate(-62.217)"/>
            <path id="Trazado_924165" data-name="Trazado 924165" d="M1546.152,566.866q-.708-.056-1.419-.087a10.786,10.786,0,0,1,.406,2.937v52.661h2.838V569.716a13.346,13.346,0,0,0-.272-2.688q-.771-.1-1.552-.161" transform="translate(-1382.369 -511.032)" fill="#ff424d"/>
            <path id="Trazado_924166" data-name="Trazado 924166" d="M688.265,567.847a37.05,37.05,0,0,0-27.62,1.929c-29.308,14.949-9.469,49.206,7.4,65.986q1.4,1.54,2.838,3.06A405.562,405.562,0,0,0,707.586,672.7V585.909c-4.638-7.323-10.233-15.308-19.321-18.062" transform="translate(-577.794 -510.36)" fill="#ef3a4c"/>
            <g id="Grupo_1114656" data-name="Grupo 1114656" transform="translate(177.135 38.638)" style="mix-blend-mode: multiply;isolation: isolate">
              <g id="Grupo_1114655" data-name="Grupo 1114655">
                <g id="Grupo_1114654" data-name="Grupo 1114654" clip-path="url(#clip-path-7)">
                  <path id="Trazado_924167" data-name="Trazado 924167" d="M1692.244,392.839h-3.852v2.919h-3.127v3.6h3.127v2.919h3.852v-2.919h3.127v-3.6h-3.127Zm2.61,3.4v2.63h-3.128v2.919h-2.818v-2.919h-3.127v-2.63h3.127v-2.919h2.818v2.919Z" transform="translate(-1685.264 -392.839)" fill="#fdeacf"/>
                </g>
              </g>
            </g>
            <g id="Grupo_1114659" data-name="Grupo 1114659" transform="translate(100.385 36.161)" style="mix-blend-mode: multiply;isolation: isolate">
              <g id="Grupo_1114658" data-name="Grupo 1114658">
                <g id="Grupo_1114657" data-name="Grupo 1114657" clip-path="url(#clip-path-8)">
                  <path id="Trazado_924168" data-name="Trazado 924168" d="M962.045,367.649h-3.852v2.919h-3.127v3.6h3.127v2.919h3.852v-2.919h3.128v-3.6h-3.128Zm2.611,3.4v2.63h-3.128V376.6h-2.818v-2.919h-3.127v-2.63h3.127v-2.919h2.818v2.919Z" transform="translate(-955.065 -367.649)" fill="#fdeacf"/>
                </g>
              </g>
            </g>
            <g id="Grupo_1114662" data-name="Grupo 1114662" transform="translate(21.257 73.207)" style="mix-blend-mode: multiply;isolation: isolate">
              <g id="Grupo_1114661" data-name="Grupo 1114661">
                <g id="Grupo_1114660" data-name="Grupo 1114660" clip-path="url(#clip-path-9)">
                  <path id="Trazado_924169" data-name="Trazado 924169" d="M209.223,744.305H205.37v2.919h-3.127v3.6h3.127v2.919h3.852v-2.919h3.128v-3.6h-3.128Zm2.61,3.4v2.63h-3.128v2.919h-2.818v-2.919H202.76v-2.63h3.127v-2.919h2.818v2.919Z" transform="translate(-202.243 -744.305)" fill="#fdeacf"/>
                </g>
              </g>
            </g>
            <g id="Grupo_1114665" data-name="Grupo 1114665" transform="translate(195.327 55.403)" style="mix-blend-mode: multiply;isolation: isolate">
              <g id="Grupo_1114664" data-name="Grupo 1114664">
                <g id="Grupo_1114663" data-name="Grupo 1114663" clip-path="url(#clip-path-10)">
                  <path id="Trazado_924170" data-name="Trazado 924170" d="M1867.354,563.288h-4.976v3.77h-4.04V571.7h4.04v3.77h4.976V571.7h4.04v-4.644h-4.04Zm3.372,4.394v3.4h-4.04v3.77h-3.64v-3.77h-4.04v-3.4h4.04v-3.77h3.64v3.77Z" transform="translate(-1858.338 -563.288)" fill="#fdeacf"/>
                </g>
              </g>
            </g>
            <g id="Grupo_1114668" data-name="Grupo 1114668" transform="translate(223.765 50.599)" style="mix-blend-mode: multiply;isolation: isolate">
              <g id="Grupo_1114667" data-name="Grupo 1114667">
                <g id="Grupo_1114666" data-name="Grupo 1114666" clip-path="url(#clip-path-11)">
                  <path id="Trazado_924171" data-name="Trazado 924171" d="M2132.337,514.445h-1.9v1.437h-1.54v1.77h1.54v1.437h1.9v-1.437h1.54v-1.77h-1.54Zm1.285,1.675v1.3h-1.54v1.437H2130.7v-1.437h-1.54v-1.3h1.54v-1.437h1.388v1.437Z" transform="translate(-2128.901 -514.445)" fill="#fdeacf"/>
                </g>
              </g>
            </g>
            <g id="Grupo_1114671" data-name="Grupo 1114671" transform="translate(111.113 5.991)" style="mix-blend-mode: multiply;isolation: isolate">
              <g id="Grupo_1114670" data-name="Grupo 1114670">
                <g id="Grupo_1114669" data-name="Grupo 1114669" clip-path="url(#clip-path-12)">
                  <path id="Trazado_924172" data-name="Trazado 924172" d="M1062.562,60.908h-3v2.273h-2.436v2.8h2.436v2.273h3V65.981H1065v-2.8h-2.436Zm2.033,2.649v2.049h-2.436v2.273h-2.195V65.606h-2.436V63.557h2.436V61.284h2.195v2.273Z" transform="translate(-1057.126 -60.908)" fill="#fdeacf"/>
                </g>
              </g>
            </g>
            <g id="Grupo_1114674" data-name="Grupo 1114674" transform="translate(30.469 60.685)" style="mix-blend-mode: multiply;isolation: isolate">
              <g id="Grupo_1114673" data-name="Grupo 1114673">
                <g id="Grupo_1114672" data-name="Grupo 1114672" clip-path="url(#clip-path-11)">
                  <path id="Trazado_924173" data-name="Trazado 924173" d="M293.314,616.993h-1.9v1.437h-1.54v1.77h1.54v1.437h1.9V620.2h1.54v-1.77h-1.54Zm1.285,1.675v1.295h-1.54V621.4h-1.388v-1.437h-1.54v-1.295h1.54v-1.437h1.388v1.437Z" transform="translate(-289.878 -616.993)" fill="#fdeacf"/>
                </g>
              </g>
            </g>
            <path id="Trazado_924174" data-name="Trazado 924174" d="M557.841,670.343c-8.875,0-16.07,6.733-16.07,15.038A15.129,15.129,0,0,0,552.295,699.5v3a2.929,2.929,0,0,0,3.021,2.827h6.138a2.929,2.929,0,0,0,3.021-2.827v-3.413a15.028,15.028,0,0,0,9.436-13.7c0-8.305-7.195-15.038-16.07-15.038" transform="translate(-484.826 -604.41)" fill="#49263e"/>
            <path id="Trazado_924175" data-name="Trazado 924175" d="M576.04,690.68c-7.695,0-13.932,5.837-13.932,13.037s6.238,13.037,13.932,13.037,13.932-5.837,13.932-13.037-6.238-13.037-13.932-13.037" transform="translate(-503.026 -622.747)" fill="#fff"/>
            <path id="Trazado_924176" data-name="Trazado 924176" d="M737.764,755.381a7.37,7.37,0,0,1,2.505,3.363l4.088-1.679a12.053,12.053,0,0,0-3.14-4.7Z" transform="translate(-660.219 -678.368)" fill="#ef3a4c"/>
            <path id="Trazado_924177" data-name="Trazado 924177" d="M589.273,757.065l4.088,1.679a7.37,7.37,0,0,1,2.5-3.363l-3.453-3.012a12.05,12.05,0,0,0-3.14,4.7" transform="translate(-527.336 -678.368)" fill="#fdeacf"/>
            <path id="Trazado_924178" data-name="Trazado 924178" d="M626.463,718.827l3.491,3.045a6.706,6.706,0,0,1,7.359,0l3.491-3.045a10.953,10.953,0,0,0-14.341,0" transform="translate(-560.617 -645.714)" fill="#80c4a4"/>
            <path id="Trazado_924179" data-name="Trazado 924179" d="M688.031,825.192a.73.73,0,1,0,.779.729.755.755,0,0,0-.779-.729" transform="translate(-615.017 -744.029)" fill="#49263e"/>
            <path id="Trazado_924180" data-name="Trazado 924180" d="M686.666,774.461l-8.433,6.558a.261.261,0,0,0-.038.385.306.306,0,0,0,.411.035l8.433-6.558a.261.261,0,0,0,.038-.385.306.306,0,0,0-.411-.036" transform="translate(-606.851 -698.23)" fill="#49263e"/>
            <path id="Trazado_924181" data-name="Trazado 924181" d="M1270.386,566.37a13.363,13.363,0,0,1,.272,2.688v52.661h-2.838V569.058a10.781,10.781,0,0,0-.406-2.937c-10.914-.634-18.594,2.978-24.7,9.221q-1.239,1.288-2.359,2.665v-.038a62.767,62.767,0,0,0-5.51,7.954v84.356q1.771-.212,3.345-.5c5.554-4.832,11.669-10.033,17.794-15.554l.111-.1.088-.08q1.3-1.173,2.6-2.364l.147-.136.035-.032c17.617-16.2,34.579-34.987,37.731-55.165,2.1-15.3-10.284-28.31-26.305-29.98" transform="translate(-1105.051 -510.375)" fill="#f24e66"/>
            <path id="Trazado_924182" data-name="Trazado 924182" d="M1234.843,1623.628q1.49-1.315,3.048-2.67l.28-.243.017-.016q-1.575.285-3.345.5Z" transform="translate(-1105.051 -1461.292)" fill="#f94e67"/>
            <path id="Trazado_924183" data-name="Trazado 924183" d="M1287.263,663.194q1.123-1.375,2.359-2.665-1.219,1.245-2.359,2.627Z" transform="translate(-1151.961 -595.561)" fill="#f94e67"/>
            <path id="Trazado_924184" data-name="Trazado 924184" d="M1302.415,452.469c-8.355,0-15.152,6.362-15.152,14.18V475.6q1.123-1.375,2.359-2.665.236-.248.479-.491v-5.793c0-6.355,5.524-11.525,12.314-11.525a12.223,12.223,0,0,1,11.91,8.588,10.786,10.786,0,0,1,.406,2.937V519.31h2.838V466.649a13.364,13.364,0,0,0-.272-2.688c-1.347-6.538-7.507-11.492-14.881-11.492" transform="translate(-1151.961 -407.966)" fill="#49263e"/>
            <path id="Trazado_924185" data-name="Trazado 924185" d="M715.208,1025.005H705.1c-8.445,0-15.315-6.43-15.315-14.332v-24.7h-2.838v24.7c0,9.367,8.144,16.987,18.153,16.987h12.845c-.981-.88-1.77-1.765-2.742-2.656" transform="translate(-614.747 -888.996)" fill="#49263e"/>
            <path id="Trazado_924186" data-name="Trazado 924186" d="M1023,1435.309l-.147.136q-1.3,1.192-2.6,2.364l-.088.08c0,.083,0,.164,0,.247a15.37,15.37,0,0,1-.619,4.37,11.895,11.895,0,0,1-3.563,5.529c-2.917,2.6-7.426,4.411-13.742,5.525q-1.217.215-2.525.4-.4.054-.8.106c-1.612.205-3.319.374-5.137.505-2.182.157-4.523.263-7.046.315-3.257.068-6.818.049-10.737-.056l-.107,0-.11,0q-2.146-.059-4.437-.152l-.137,2.949q1.55.063,3.045.109c.043,0,.087,0,.13,0l.12,0q4.257.133,8.067.133,2.154,0,4.171-.042c16.225-.344,25.941-2.773,31.421-7.65a15.5,15.5,0,0,0,5.16-11.876c0-.047,0-.093,0-.141a11.9,11.9,0,0,0-.144-1.953q-.071-.451-.178-.9" transform="translate(-869.122 -1294.137)" fill="#4cb7d8"/>
            <path id="Trazado_924187" data-name="Trazado 924187" d="M817.444,1495.173c-6.219,0-11.26,4.718-11.26,10.537s5.041,10.537,11.26,10.537,11.26-4.718,11.26-10.537-5.041-10.537-11.26-10.537" transform="translate(-721.447 -1348.112)" fill="#4cb7d8"/>
            <g id="Grupo_1114677" data-name="Grupo 1114677" transform="translate(89.514 151.531)" opacity="0.6">
              <g id="Grupo_1114676" data-name="Grupo 1114676">
                <g id="Grupo_1114675" data-name="Grupo 1114675" clip-path="url(#clip-path-14)">
                  <path id="Trazado_924188" data-name="Trazado 924188" d="M858.123,1540.63a6.079,6.079,0,1,0,6.482,6.066,6.285,6.285,0,0,0-6.482-6.066" transform="translate(-851.641 -1540.63)" fill="#fff"/>
                </g>
              </g>
            </g>
            <path id="Trazado_924189" data-name="Trazado 924189" d="M1212.306,1460.809l-.111.1a11.08,11.08,0,0,1-.172,2.648c-.061.33-.107.629-.141.912a6.523,6.523,0,0,1-.192.957,8.807,8.807,0,0,1-.542,1.452c-1.4,2.969-5.4,7.552-16.746,9.586q-1.575.285-3.344.5c-1.59.191-3.3.335-5.143.427l.006.1.005.1q2.694-.134,5.131-.423,1.58-.187,3.048-.44c5.883-1.009,10.446-2.8,13.619-5.344,3.538-2.84,4.233-5.763,4.367-6.888.032-.279.079-.573.139-.9a11.256,11.256,0,0,0,.165-2.86l-.088.08" transform="translate(-1061.264 -1317.056)"/>
            <path id="Trazado_924190" data-name="Trazado 924190" d="M913.315,1494.173v.2c6.151,0,11.155,4.683,11.155,10.439s-5,10.439-11.155,10.439v.2c6.267,0,11.365-4.771,11.365-10.635s-5.1-10.636-11.365-10.636" transform="translate(-817.318 -1347.211)"/>
            <path id="Trazado_924191" data-name="Trazado 924191" d="M913.315,1539.63v.2a5.981,5.981,0,1,1,0,11.936v.2a6.178,6.178,0,1,0,0-12.329" transform="translate(-817.318 -1388.197)"/>
            <path id="Trazado_924192" data-name="Trazado 924192" d="M806.353,1550.527a12.383,12.383,0,0,1,1.385-4.023l-.183-.1a12.581,12.581,0,0,0-1.409,4.085,9.589,9.589,0,0,0,2.454,8.271l.159-.129a9.4,9.4,0,0,1-2.406-8.107" transform="translate(-721.29 -1394.307)"/>
            <path id="Trazado_924193" data-name="Trazado 924193" d="M1422.314,1435.916c-.044-.351-.095-.662-.143-.927l-.035.031-.147.136a17.93,17.93,0,0,1,.212,4.3,15.256,15.256,0,0,1-4.979,10.36l.073.071.073.071a15.445,15.445,0,0,0,5.043-10.495c.037-.506.048-.993.044-1.452a18.481,18.481,0,0,0-.142-2.093" transform="translate(-1268.261 -1293.848)"/>
            <path id="Trazado_924194" data-name="Trazado 924194" d="M912.329,894.991l-5.738,19.538-.792-5.292H894.146l-2.159,12.4-5.112-27.166-4.265,16.216h-23.1v1.337h24.219l2.914-11.078,5.4,28.689,3.319-19.06h9.2l1.579,10.551,6.452-21.969,6.028,13.953h9.067v-1.337h-8.1Z" transform="translate(-769.169 -806.492)" fill="#fff"/>
            <rect id="Rectángulo_412194" data-name="Rectángulo 412194" width="5.437" height="1.574" transform="translate(156.939 95.403)" fill="#49263e"/>
            <path id="Trazado_924195" data-name="Trazado 924195" d="M1534.785,937.38h-2.541a1.8,1.8,0,0,0-1.86,1.74v5.525a1.8,1.8,0,0,0,1.86,1.74h2.541a1.8,1.8,0,0,0,1.859-1.74V939.12a1.8,1.8,0,0,0-1.859-1.74" transform="translate(-1369.529 -845.182)" fill="#71d3ea"/>
            <path id="Trazado_924196" data-name="Trazado 924196" d="M1471.958,1044.936h-7.848s-12.408,20.283,0,38.906h10.322c12.409-18.622,0-38.906,0-38.906Z" transform="translate(-1305.284 -942.159)" fill="#49263e"/>
            <path id="Trazado_924197" data-name="Trazado 924197" d="M1507.867,1012.936h-10.109a1.577,1.577,0,1,0,0,3.147h10.109a1.577,1.577,0,1,0,0-3.147" transform="translate(-1338.827 -913.307)" fill="#4cb7d8"/>
            <path id="Trazado_924198" data-name="Trazado 924198" d="M1507.867,1440.491h-10.109a1.577,1.577,0,1,0,0,3.147h10.109a1.577,1.577,0,1,0,0-3.147" transform="translate(-1338.827 -1298.809)" fill="#4cb7d8"/>
            <path id="Trazado_924199" data-name="Trazado 924199" d="M1468.558,943.01h0a1.76,1.76,0,0,0-1.815,1.7v3.48a1.819,1.819,0,0,0,3.631,0v-3.48a1.76,1.76,0,0,0-1.815-1.7" transform="translate(-1312.576 -850.259)" fill="#4cb7d8"/>
            <path id="Trazado_924200" data-name="Trazado 924200" d="M150.136,1570.652c-5.145-8.034-12.278-1.7-12.278-1.7s-.19-16.655-15.884-15.367c-13.684,1.123-12.678,18.076-12.678,18.076-2.922.191-4.659,1.019-5.678,2.034a2.369,2.369,0,0,0-.724,1.549h60.762a1.341,1.341,0,0,0-.143-.521c-4.485-8.882-13.376-4.073-13.376-4.073" transform="translate(-92.078 -1400.717)" fill="#7fc6a6"/>
            <path id="Trazado_924201" data-name="Trazado 924201" d="M1727.167,1571.663s1.006-16.953-12.678-18.076c-15.695-1.288-15.885,15.367-15.885,15.367s-7.133-6.337-12.278,1.7c0,0-8.891-4.809-13.376,4.073a1.337,1.337,0,0,0-.143.521h60.762a2.369,2.369,0,0,0-.724-1.549c-1.018-1.015-2.756-1.843-5.677-2.034" transform="translate(-1496.98 -1400.717)" fill="#7fc6a6"/>
            <path id="Trazado_924202" data-name="Trazado 924202" d="M438.063,1221.721l-.456-.511-.652.552-1.264-.735s-2,3.9-1.925,5.873,3.953,11.228,3.953,11.228l3.421-1.452-1.979-8.882Z" transform="translate(-388.172 -1100.931)" fill="#fe9f73"/>
            <path id="Trazado_924203" data-name="Trazado 924203" d="M473.464,1379.006l-.948-2.169c-.133-.071-2.882,1.017-3.534,1.2l.874,1.986a4.48,4.48,0,0,0,.632,1.264c.3.207.575,0,.944-.12.519-.162,1.149-.317,1.642-.45a.1.1,0,0,1,.062-.045l.107-.028c-.016-.055.338-.208.8-.39-.2-.527-.392-.969-.474-1.193Z" transform="translate(-419.689 -1241.412)" fill="#fe9f73"/>
            <path id="Trazado_924204" data-name="Trazado 924204" d="M495.446,1386.314a.662.662,0,0,0-.5.248l.158,1.527c.017.168.212.3.459.281.282-.017.5-.2.483-.386l-.147-1.425c-.016-.158-.281-.263-.452-.245" transform="translate(-442.923 -1249.958)" fill="#fe9f73"/>
            <path id="Trazado_924205" data-name="Trazado 924205" d="M471.4,1393.9l-4.789,1.229a1.077,1.077,0,0,0-.809,1.329l.284.969.734-.188-.284-.969a.368.368,0,0,1,.276-.454l4.789-1.229a.4.4,0,0,1,.485.259l.269.918.734-.188-.269-.918a1.168,1.168,0,0,0-1.42-.757" transform="translate(-416.802 -1256.767)" fill="#49263e"/>
            <path id="Trazado_940698" data-name="Trazado 940698" d="M.477.008,1.756.029a.484.484,0,0,1,.485.459.446.446,0,0,1-.47.443L.493.91A.484.484,0,0,1,.008.451h0A.446.446,0,0,1,.477.008Z" transform="translate(48.437 140.407) rotate(-15.339)" fill="#4cb7d8"/>
            <path id="Trazado_940699" data-name="Trazado 940699" d="M.478.008,1.756.029a.484.484,0,0,1,.486.459h0a.446.446,0,0,1-.47.443L.493.91A.484.484,0,0,1,.008.451.446.446,0,0,1,.478.008Z" transform="translate(54.676 138.806) rotate(-15.339)" fill="#4cb7d8"/>
            <path id="Trazado_940700" data-name="Trazado 940700" d="M0,0,25.333.417l.28,16.081L.28,16.081Z" transform="matrix(0.964, -0.265, 0.265, 0.964, 40.527, 142.917)" fill="#fff"/>
            <path id="Trazado_924206" data-name="Trazado 924206" d="M385.57,1448.308l.552,1.883a1.942,1.942,0,0,0,1.46-2.4Z" transform="translate(-345.043 -1305.391)" fill="#49263e"/>
            <path id="Trazado_924207" data-name="Trazado 924207" d="M599.908,1389.512a2.107,2.107,0,0,0,2.564,1.367l-.552-1.883Z" transform="translate(-536.853 -1252.379)" fill="#e83c4e"/>
            <path id="Trazado_924208" data-name="Trazado 924208" d="M642.315,1529.165l2.013-.516-.552-1.883a1.942,1.942,0,0,0-1.461,2.4" transform="translate(-574.735 -1376.597)" fill="#e83c4e"/>
            <path id="Trazado_924209" data-name="Trazado 924209" d="M423.362,1590.171l.552,1.883,2.013-.516a2.107,2.107,0,0,0-2.565-1.367" transform="translate(-378.863 -1433.703)" fill="#49263e"/>
            <g id="Grupo_1114680" data-name="Grupo 1114680" transform="translate(45.676 141.467)" opacity="0.5" style="mix-blend-mode: multiply;isolation: isolate">
              <g id="Grupo_1114679" data-name="Grupo 1114679">
                <g id="Grupo_1114678" data-name="Grupo 1114678" clip-path="url(#clip-path-15)">
                  <path id="Trazado_940701" data-name="Trazado 940701" d="M0,0,.514.008l.28,16.081L.28,16.081Z" transform="matrix(0.964, -0.265, 0.265, 0.964, 0, 0.128)" fill="#e83c4e"/>
                </g>
              </g>
            </g>
            <g id="Grupo_1114683" data-name="Grupo 1114683" transform="translate(58.868 138.081)" opacity="0.5" style="mix-blend-mode: multiply;isolation: isolate">
              <g id="Grupo_1114682" data-name="Grupo 1114682">
                <g id="Grupo_1114681" data-name="Grupo 1114681" clip-path="url(#clip-path-15)">
                  <path id="Trazado_940702" data-name="Trazado 940702" d="M0,0,.514.008l.28,16.081L.28,16.081Z" transform="translate(0 0.128) rotate(-15.34)" fill="#e83c4e"/>
                </g>
              </g>
            </g>
            <path id="Trazado_924210" data-name="Trazado 924210" d="M496.614,1400.63c-.226.082-.346.272-.284.428l.505,1.283a.461.461,0,0,0,.481.078.657.657,0,0,0,.376-.365l-.5-1.278c-.066-.168-.328-.237-.575-.147" transform="translate(-444.147 -1262.833)" fill="#fe9f73"/>
            <path id="Trazado_924211" data-name="Trazado 924211" d="M487.918,1402.966c-.224.085-.339.276-.274.43l.584,1.37a.689.689,0,0,0,.544.008.481.481,0,0,0,.326-.265l-.6-1.406a.455.455,0,0,0-.581-.138" transform="translate(-436.373 -1264.937)" fill="#fe9f73"/>
            <path id="Trazado_924212" data-name="Trazado 924212" d="M479.811,1405.825c-.208.081-.312.259-.249.4l.566,1.269a.647.647,0,0,0,.508,0,.443.443,0,0,0,.3-.249l-.58-1.3a.428.428,0,0,0-.544-.124" transform="translate(-429.14 -1267.515)" fill="#fe9f73"/>
            <path id="Trazado_924213" data-name="Trazado 924213" d="M496.553,1400.2a.364.364,0,0,0-.262-.2.723.723,0,0,0-.421.028c-.264.1-.413.319-.339.506l.551,1.38a.046.046,0,0,0,.007.011.092.092,0,0,0,.1.018c.045-.014.071-.05.059-.081l-.551-1.38c-.051-.13.05-.283.23-.349a.494.494,0,0,1,.288-.019.245.245,0,0,1,.179.138l.5,1.265a.083.083,0,0,0,.1.029c.045-.014.071-.05.06-.08Z" transform="translate(-443.43 -1262.277)" fill="#f07162"/>
            <path id="Trazado_924214" data-name="Trazado 924214" d="M504.555,1396.608c-.07-.17-.342-.235-.592-.136-.218.087-.326.275-.264.426l.569,1.373a.664.664,0,0,0,.543.01c.155-.053.334-.25.275-.392Z" transform="translate(-450.74 -1259.077)" fill="#fe9f73"/>
            <path id="Trazado_924215" data-name="Trazado 924215" d="M503.914,1396.024a.369.369,0,0,0-.266-.2.729.729,0,0,0-.422.031c-.263.1-.408.321-.331.508l.577,1.372a.035.035,0,0,0,.007.011.092.092,0,0,0,.1.017c.045-.014.071-.051.058-.081l-.576-1.372c-.053-.129.045-.283.224-.35a.5.5,0,0,1,.289-.021.249.249,0,0,1,.182.136l.521,1.257a.083.083,0,0,0,.1.028c.045-.014.071-.05.058-.081Z" transform="translate(-450.019 -1258.52)" fill="#f07162"/>
            <path id="Trazado_924216" data-name="Trazado 924216" d="M487.966,1402.521a.372.372,0,0,0-.268-.2.727.727,0,0,0-.422.034c-.261.1-.393.307-.313.494l.6,1.328.006.01a.092.092,0,0,0,.1.017c.044-.015.069-.051.056-.081l-.6-1.327c-.055-.13.03-.268.208-.335a.5.5,0,0,1,.288-.023.251.251,0,0,1,.183.135l.6,1.406a.084.084,0,0,0,.1.028c.045-.015.07-.051.058-.081Z" transform="translate(-435.759 -1264.38)" fill="#f07162"/>
            <path id="Trazado_924217" data-name="Trazado 924217" d="M480.205,1405.066a.354.354,0,0,0-.256-.184.688.688,0,0,0-.4.035c-.246.1-.378.307-.3.481l.566,1.269a.039.039,0,0,0,.006.01.092.092,0,0,0,.1.017c.044-.015.07-.051.056-.081l-.566-1.269c-.052-.117.034-.259.2-.323a.458.458,0,0,1,.265-.023.232.232,0,0,1,.17.122l.58,1.3a.085.085,0,0,0,.1.027c.044-.015.07-.051.056-.081Z" transform="translate(-428.858 -1266.689)" fill="#f07162"/>
            <path id="Trazado_924218" data-name="Trazado 924218" d="M493.8,1381.031l-.342.378.264,1.259.118.609.137.156.379.032.318-.206.054-.333-.014-1.322Z" transform="translate(-441.591 -1245.198)" fill="#fe9f73"/>
            <path id="Trazado_924219" data-name="Trazado 924219" d="M494.079,1386.7c-.049,0-.088.032-.088.066l.031,1.4a.242.242,0,0,1-.117.2.511.511,0,0,1-.287.086c-.2,0-.361-.11-.365-.254l-.3-1.508c0-.034-.041-.059-.09-.056a.091.091,0,0,0-.086.052.045.045,0,0,0,0,.013l.3,1.509c0,.209.239.37.534.367a.744.744,0,0,0,.42-.126.359.359,0,0,0,.172-.291l-.031-1.4c0-.034-.041-.059-.09-.056" transform="translate(-440.983 -1250.255)" fill="#f07162"/>
            <path id="Trazado_924220" data-name="Trazado 924220" d="M225.558,1680.265l3.494,2.28,2.554-3.455-3.756-1.912Z" transform="translate(-201.85 -1512.216)" fill="#fe9f73"/>
            <path id="Trazado_924221" data-name="Trazado 924221" d="M224.557,1715.878l-.482-.324-1.281-2.75-2.18.425L217.6,1711.2a.175.175,0,0,0-.234.036l-.328.428a.1.1,0,0,0,.026.15l7.017,4.713a.438.438,0,0,0,.632-.159.39.39,0,0,0-.152-.492" transform="translate(-194.202 -1542.867)" fill="#fdeacf"/>
            <path id="Trazado_924222" data-name="Trazado 924222" d="M227.535,1701.3a2.136,2.136,0,0,1-2.328-1.316,1.373,1.373,0,0,0-1.523-.548l-.889,1.159,6.939,4.661c.08-.48-.454-1.172-.454-1.172Z" transform="translate(-199.378 -1532.239)" fill="#fc5b73"/>
            <path id="Trazado_940703" data-name="Trazado 940703" d="M0,0,1.453.046l0,.062L0,.062Z" transform="matrix(0.583, -0.812, 0.812, 0.583, 23.396, 168.334)"/>
            <path id="Trazado_924223" data-name="Trazado 924223" d="M245.516,1705.372l-.059.02a2.214,2.214,0,0,0,.829,1.021,1.573,1.573,0,0,0,.165.1l.029-.053a2.154,2.154,0,0,1-.963-1.087" transform="translate(-219.657 -1537.637)"/>
            <path id="Trazado_924224" data-name="Trazado 924224" d="M228.7,1709.224l.169.426.059-.021-.169-.426Z" transform="translate(-204.663 -1541.092)"/>
            <path id="Trazado_940704" data-name="Trazado 940704" d="M0,0H.063L.073.46H.01Z" transform="matrix(0.938, -0.347, 0.347, 0.938, 24.318, 168.232)"/>
            <path id="Trazado_924225" data-name="Trazado 924225" d="M225.02,1715.764l-6.938-4.66a.255.255,0,0,0-.34.052l-.246.321.051.034.246-.32a.189.189,0,0,1,.252-.039l6.938,4.661a.351.351,0,0,1,.09.511.4.4,0,0,1-.286.151l.005.059a.461.461,0,0,0,.332-.176.408.408,0,0,0-.1-.593" transform="translate(-194.635 -1542.766)"/>
            <path id="Trazado_924226" data-name="Trazado 924226" d="M267.68,1718.7l-.055.03c.016.025,1.561,2.489,1.919,3.041a1.368,1.368,0,0,1,.287.9l.062.011a1.389,1.389,0,0,0-.295-.941c-.358-.552-1.9-3.015-1.918-3.04" transform="translate(-239.495 -1549.656)"/>
            <path id="Trazado_924227" data-name="Trazado 924227" d="M404.817,1719.527l.061,3.759,4.259-.055-.078-4.2Z" transform="translate(-362.267 -1549.952)" fill="#fe9f73"/>
            <path id="Trazado_924228" data-name="Trazado 924228" d="M411.8,1752.324h-.593l-2.755-1.535-1.506,1.535h-3.715a.163.163,0,0,0-.168.157v.527a.111.111,0,0,0,.115.107h8.638a.4.4,0,0,0,.415-.474.428.428,0,0,0-.43-.317" transform="translate(-360.701 -1578.587)" fill="#fdeacf"/>
            <path id="Trazado_924229" data-name="Trazado 924229" d="M412.419,1747.278l-3.154-1.309a2.256,2.256,0,0,1-2.711.2,1.368,1.368,0,0,0-1.578.386v1.427h8.542c-.234-.434-1.1-.7-1.1-.7" transform="translate(-362.41 -1574.241)" fill="#fc5b73"/>
            <rect id="Rectángulo_412204" data-name="Rectángulo 412204" width="0.063" height="1.42" transform="translate(42.535 172.315)"/>
            <path id="Trazado_924230" data-name="Trazado 924230" d="M419.857,1747.765l-.036.049a2.452,2.452,0,0,0,1.309.377,1.66,1.66,0,0,0,.2-.01l-.009-.059a2.365,2.365,0,0,1-1.46-.357" transform="translate(-375.694 -1575.86)"/>
            <path id="Trazado_940705" data-name="Trazado 940705" d="M0,0,.06,0,.075.478l-.06,0Z" transform="translate(42.931 173.221) rotate(-56.014)"/>
            <path id="Trazado_940706" data-name="Trazado 940706" d="M0,0,.06,0,.075.478l-.06,0Z" transform="translate(43.22 173.149) rotate(-56.004)"/>
            <path id="Trazado_924231" data-name="Trazado 924231" d="M411.55,1766.124H403.01a.236.236,0,0,0-.244.228v.394h.063v-.394a.175.175,0,0,1,.18-.169h8.541a.38.38,0,0,1,.391.366.356.356,0,0,1-.138.279l.041.045a.414.414,0,0,0,.16-.324.441.441,0,0,0-.454-.425" transform="translate(-360.432 -1592.414)"/>
            <path id="Trazado_924232" data-name="Trazado 924232" d="M449.139,1747.117c-.635-.253-3.425-1.411-3.453-1.423l-.026.054c.028.012,2.819,1.17,3.454,1.423a1.513,1.513,0,0,1,.793.574l.057-.025a1.538,1.538,0,0,0-.826-.6" transform="translate(-398.817 -1573.993)"/>
            <path id="Trazado_924233" data-name="Trazado 924233" d="M383.685,1346.78a1.6,1.6,0,0,0-2.138-1.161l-5.921,2.128a1.487,1.487,0,0,0-1.017,1.436c.161,4.418.859,21.7,2.326,33.005a1.551,1.551,0,0,0,1.574,1.306A12.936,12.936,0,0,0,382,1383a1.509,1.509,0,0,0,1.132-1.4l.6-34.4a1.4,1.4,0,0,0-.018-.25Z" transform="translate(-335.234 -1213.179)" fill="#1d7c7a"/>
            <path id="Trazado_924234" data-name="Trazado 924234" d="M247.022,1378.041s-7.173,10.418-9.925,14.943a1.2,1.2,0,0,0,.337,1.607,12.348,12.348,0,0,0,3.506,1.794,1.4,1.4,0,0,0,1.482-.4l12.838-14.36a3.193,3.193,0,0,0,.759-1.51l3.144-15.956-11.147-2.059Z" transform="translate(-212.02 -1228.13)" fill="#258d8c"/>
            <path id="Trazado_924235" data-name="Trazado 924235" d="M233.536,1685.035h0Z" transform="translate(-208.989 -1519.3)" fill="#21111d"/>
            <path id="Trazado_924236" data-name="Trazado 924236" d="M345.725,1084.636a2.151,2.151,0,0,0-.546-2.834c-1.515-1.514-2.212.482-2.932.553s-1.9-.375-2.6.737-.61,2.031-1.364,2.092-3.445,1.36-3.276,3.7a2.887,2.887,0,0,0,2.52,2.617s9.065,1.926,10.116-.193.356-3.231-.657-4.18c-.622-.583-1.979-1.211-1.264-2.5" transform="translate(-299.791 -974.89)" fill="#49263e"/>
            <path id="Trazado_924237" data-name="Trazado 924237" d="M302.354,1178.311c-.534-.51-3.329-.75-3.785-.8l-.4.037s-1.882-.085-2.828-.085c-.192,0-.346,0-.437.012-.342.007-1.411.035-2.5.111l-.126-.076-.988.173-.121.014a.533.533,0,0,0-.122.029l-.778.137-1.63.736-1.42,1.39-1.572,1.833-1.5,1.9-.517.683s.224.2.631.5c.307-.584.591-1.117.8-1.517a15.835,15.835,0,0,0,4.232,2.1c-.307.507-.631,1.074-.934,1.613.248.089.5.172.764.248l.36-.739-.55,8.031-.091,1.339-.143,2.075c4.35.483,13.95.68,13.95.68l-.42-8.883.316-4.51.194-.258.809-.28.473-.384.364-.244-.357-1.561a15.23,15.23,0,0,0-1.666-4.3" transform="translate(-253.816 -1061.651)" fill="#80c5a6"/>
            <path id="Trazado_924238" data-name="Trazado 924238" d="M383.794,1114.941l-.661,6.422,2.952.266.2-1.957a1.213,1.213,0,0,0,.971-.3c.633-.643.457-3.816.457-3.816Z" transform="translate(-342.863 -1005.279)" fill="#fe9f73"/>
            <path id="Trazado_924239" data-name="Trazado 924239" d="M414.635,1131.245a.758.758,0,0,1,.19-.557.024.024,0,0,0,0-.036.028.028,0,0,0-.038,0,.794.794,0,0,0-.2.6.763.763,0,0,0,.4.516.548.548,0,0,1-.345.271.026.026,0,0,0-.024.028.026.026,0,0,0,.024.022h.006c.239-.026.392-.307.4-.319l.011-.02-.021-.012a.73.73,0,0,1-.394-.493" transform="translate(-371 -1019.439)" fill="#f07162"/>
            <path id="Trazado_924240" data-name="Trazado 924240" d="M394.031,1156.493l.081-.787a6.088,6.088,0,0,1-2.234-.8,7.1,7.1,0,0,0,2.153,1.587" transform="translate(-350.688 -1041.313)" fill="#f07162"/>
            <path id="Trazado_924241" data-name="Trazado 924241" d="M400.317,1126.736a.048.048,0,0,0-.006.071.055.055,0,0,0,.036.017.057.057,0,0,0,.04-.012c.028-.022.69-.543,1.2-.076a.057.057,0,0,0,.076,0,.048.048,0,0,0,0-.071c-.581-.532-1.339.066-1.346.072" transform="translate(-358.223 -1015.651)"/>
            <path id="Trazado_924242" data-name="Trazado 924242" d="M418.214,1128.255a.049.049,0,0,0-.013.071.056.056,0,0,0,.075.012s.464-.3.678-.1a.056.056,0,0,0,.076,0,.048.048,0,0,0,0-.071c-.279-.271-.8.069-.819.084" transform="translate(-374.236 -1017.114)"/>
            <path id="Trazado_924243" data-name="Trazado 924243" d="M421.437,1133.873a.148.148,0,0,0-.164.127.144.144,0,0,0,.135.154.148.148,0,0,0,.164-.127.144.144,0,0,0-.135-.154" transform="translate(-376.993 -1022.348)" fill="#49263e"/>
            <path id="Trazado_924244" data-name="Trazado 924244" d="M408.816,1132.658a.149.149,0,0,0-.164.127.144.144,0,0,0,.135.154.148.148,0,0,0,.164-.127.144.144,0,0,0-.135-.154" transform="translate(-365.699 -1021.253)" fill="#49263e"/>
            <path id="Trazado_924245" data-name="Trazado 924245" d="M377.7,1129.787a.83.83,0,0,0-.921.71.806.806,0,0,0,.759.862.831.831,0,0,0,.921-.71.805.805,0,0,0-.759-.862" transform="translate(-337.17 -1018.662)" fill="#fe9f73"/>
            <path id="Trazado_924246" data-name="Trazado 924246" d="M381.238,1133.673a.606.606,0,0,0-.41-.063.025.025,0,0,0-.02.03.027.027,0,0,0,.032.019.556.556,0,0,1,.367.055.351.351,0,0,1,.145.2.419.419,0,0,0-.435-.048.306.306,0,0,0-.171.351.345.345,0,0,0,.307.278h0a.026.026,0,0,0,.029-.023.026.026,0,0,0-.025-.027.29.29,0,0,1-.264-.237.259.259,0,0,1,.142-.3.378.378,0,0,1,.434.092l.062.07-.014-.09a.425.425,0,0,0-.186-.308" transform="translate(-340.721 -1022.102)" fill="#f07162"/>
            <path id="Trazado_924247" data-name="Trazado 924247" d="M391.492,1105.34c-1.716-.289-2.074.9-2.074.9l1.935.552,1.859.046.127.02s-.131-1.233-1.847-1.522" transform="translate(-348.487 -996.581)" fill="#fe9f73"/>
            <path id="Trazado_924248" data-name="Trazado 924248" d="M385.42,1101.29c-.12-.011-2.082.539-2.082.539s-.777,2.161.225,2.326,1.633-1.389,1.633-1.389a3.287,3.287,0,0,0,2.55-.539l-.192-.857s-2.015-.069-2.135-.079" transform="translate(-342.789 -992.97)" fill="#49263e"/>
            <path id="Trazado_924249" data-name="Trazado 924249" d="M411.33,1138.186a.031.031,0,1,0-.006.062.031.031,0,1,0,.006-.062" transform="translate(-368.064 -1026.237)" fill="#ea5942"/>
            <path id="Trazado_924250" data-name="Trazado 924250" d="M409.294,1139.141a.031.031,0,1,0-.006.062.031.031,0,1,0,.006-.062" transform="translate(-366.242 -1027.099)" fill="#ea5942"/>
            <path id="Trazado_924251" data-name="Trazado 924251" d="M406.018,1136.523a.031.031,0,1,0-.006.062.031.031,0,1,0,.006-.062" transform="translate(-363.31 -1024.738)" fill="#ea5942"/>
            <path id="Trazado_924252" data-name="Trazado 924252" d="M402.8,1138.516a.031.031,0,1,0-.006.062.031.031,0,1,0,.006-.062" transform="translate(-360.432 -1026.536)" fill="#ea5942"/>
            <path id="Trazado_924253" data-name="Trazado 924253" d="M399.958,1135.146a.031.031,0,1,0-.006.062.031.031,0,1,0,.006-.062" transform="translate(-357.887 -1023.497)" fill="#ea5942"/>
            <path id="Trazado_924254" data-name="Trazado 924254" d="M398.377,1139.6a.031.031,0,1,0-.006.063.031.031,0,1,0,.006-.062" transform="translate(-356.473 -1027.515)" fill="#ea5942"/>
            <path id="Trazado_924255" data-name="Trazado 924255" d="M417.858,1136.942a.031.031,0,1,0-.006.062.031.031,0,1,0,.006-.062" transform="translate(-373.906 -1025.116)" fill="#ea5942"/>
            <path id="Trazado_924256" data-name="Trazado 924256" d="M419.965,1139.737a.031.031,0,1,0-.006.062.031.031,0,1,0,.006-.062" transform="translate(-375.791 -1027.636)" fill="#ea5942"/>
            <path id="Trazado_924257" data-name="Trazado 924257" d="M422.929,1138.87a.031.031,0,1,0-.006.062.031.031,0,1,0,.006-.062" transform="translate(-378.444 -1026.855)" fill="#ea5942"/>
            <path id="Trazado_924258" data-name="Trazado 924258" d="M422.71,1143.385a.031.031,0,1,0-.006.062.031.031,0,1,0,.006-.062" transform="translate(-378.248 -1030.926)" fill="#ea5942"/>
            <path id="Trazado_924259" data-name="Trazado 924259" d="M425.1,1140.952a.031.031,0,1,0-.006.062.031.031,0,1,0,.006-.062" transform="translate(-380.39 -1028.731)" fill="#ea5942"/>
            <path id="Trazado_924260" data-name="Trazado 924260" d="M424.983,1136.979a.031.031,0,1,0-.006.062.031.031,0,1,0,.006-.062" transform="translate(-380.282 -1025.15)" fill="#ea5942"/>
            <path id="Trazado_924261" data-name="Trazado 924261" d="M406.819,1140.92a.031.031,0,1,0-.006.062.031.031,0,1,0,.006-.062" transform="translate(-364.027 -1028.702)" fill="#ea5942"/>
            <path id="Trazado_924262" data-name="Trazado 924262" d="M341.48,1186.95a2.978,2.978,0,0,0-1.319.876.044.044,0,0,0,.01.065.052.052,0,0,0,.03.009.051.051,0,0,0,.04-.019,2.933,2.933,0,0,1,1.27-.843.046.046,0,0,0,.032-.058.05.05,0,0,0-.062-.03" transform="translate(-304.398 -1070.203)" fill="#21111d"/>
            <path id="Trazado_924263" data-name="Trazado 924263" d="M342.369,1191.321a2.977,2.977,0,0,0-1.319.876.044.044,0,0,0,.01.065.052.052,0,0,0,.03.009.051.051,0,0,0,.04-.019,2.935,2.935,0,0,1,1.27-.844.046.046,0,0,0,.032-.058.05.05,0,0,0-.062-.03" transform="translate(-305.194 -1074.144)" fill="#21111d"/>
            <path id="Trazado_924264" data-name="Trazado 924264" d="M407.027,1255.361h-4.943a.084.084,0,1,0,0,.168h4.943a.084.084,0,1,0,0-.168" transform="translate(-359.741 -1131.888)"/>
            <path id="Trazado_924265" data-name="Trazado 924265" d="M414.424,1263.576h-3.275a.084.084,0,1,0,0,.168h3.275a.084.084,0,1,0,0-.168" transform="translate(-367.853 -1139.295)"/>
            <path id="Trazado_924266" data-name="Trazado 924266" d="M408.327,1146.737a.619.619,0,0,0,.614-.231c-.015-.007-.985-.283-.985-.283a.561.561,0,0,0,.371.513" transform="translate(-365.076 -1033.485)" fill="#fbfdfc"/>
            <path id="Trazado_924267" data-name="Trazado 924267" d="M362.711,1177.149a6,6,0,0,0,3.888,1.2,6.944,6.944,0,0,0,4-1.2,38.7,38.7,0,0,0-7.888,0" transform="translate(-324.587 -1061.173)" fill="#fe9f73"/>
            <path id="Trazado_924268" data-name="Trazado 924268" d="M433.3,1183.193c-.422-1.668-1.3-5.139-2.342-5.483a20,20,0,0,0-3.092-.605.09.09,0,0,0-.1.073.085.085,0,0,0,.078.093,19.794,19.794,0,0,1,3.054.6c.95.313,1.845,3.852,2.227,5.363.058.23.105.416.141.547a2.807,2.807,0,0,1-1.562.891.085.085,0,0,0-.075.1.088.088,0,0,0,.088.071h.014a2.97,2.97,0,0,0,1.7-.986l.026-.032-.011-.04c-.037-.13-.088-.331-.152-.584" transform="translate(-382.808 -1061.328)"/>
            <path id="Trazado_924269" data-name="Trazado 924269" d="M459.734,1211.453a.08.08,0,0,0,0,.118,3.228,3.228,0,0,1,.341,4.275l-.013.018-.385,4.877.182-.025.379-4.8a3.438,3.438,0,0,0-.377-4.467.094.094,0,0,0-.127,0" transform="translate(-411.361 -1092.276)"/>
            <path id="Trazado_940707" data-name="Trazado 940707" d="M0,0,27.655.031V.26L0,.228Z" transform="translate(47.822 166.061) rotate(-89.05)"/>
            <path id="Trazado_924270" data-name="Trazado 924270" d="M318.154,1437.759a4.6,4.6,0,0,1-1.045,1.811l-10.63,11.891.175.137,10.63-11.891a4.706,4.706,0,0,0,1.094-1.907l2.307-11.7-.224-.039Z" transform="translate(-274.266 -1285.794)"/>
            <path id="Trazado_924271" data-name="Trazado 924271" d="M292.44,1176.765h0l-.068,0a9.594,9.594,0,0,0-3.686.617c-2.106.777-5.961,6.1-6.124,6.323a.1.1,0,0,0,.031.148.12.12,0,0,0,.064.018.116.116,0,0,0,.095-.047c.04-.055,3.978-5.49,6.018-6.244a9.342,9.342,0,0,1,3.591-.6c.049,0,.081,0,.094,0a.108.108,0,0,0,.1-.112.113.113,0,0,0-.115-.1" transform="translate(-252.841 -1061.012)"/>
            <path id="Trazado_924272" data-name="Trazado 924272" d="M572.868,1388.929l.06.206,4.714-1.21,4.464,15.228-5.041,1.294.06.206,5.261-1.351-4.585-15.64Z" transform="translate(-512.655 -1251.176)"/>
            <path id="Trazado_940708" data-name="Trazado 940708" d="M0,0,.216.005.28,2.8.064,2.793Z" transform="matrix(0.384, -0.923, 0.923, 0.384, 51.386, 151.921)"/>
            <path id="Trazado_940709" data-name="Trazado 940709" d="M0,0,.216.005.28,2.8.064,2.793Z" transform="translate(51.379 152.934) rotate(-67.433)"/>
            <path id="Trazado_924273" data-name="Trazado 924273" d="M286.912,1310.777a6.99,6.99,0,0,1-2.061-.919,5.108,5.108,0,0,1-2.352-4.159.345.345,0,0,0-.356-.316h0a.341.341,0,0,0-.348.351,5.813,5.813,0,0,0,2.673,4.681,7.687,7.687,0,0,0,2.257,1,.353.353,0,0,0,.442-.261v0a.329.329,0,0,0-.251-.375" transform="translate(-252.171 -1176.99)" fill="#ffb357"/>
            <path id="Trazado_924274" data-name="Trazado 924274" d="M285.578,1328.664l-.108.034a6.156,6.156,0,0,0,3.251,3.285l.044-.1a6.034,6.034,0,0,1-3.187-3.22" transform="translate(-255.465 -1197.981)"/>
            <path id="Trazado_940710" data-name="Trazado 940710" d="M0,0,.955.026l0,.113L0,.113Z" transform="translate(37.122 126.418) rotate(-63.15)"/>
            <path id="Trazado_940711" data-name="Trazado 940711" d="M0,0,.955.026l0,.113L0,.113Z" transform="translate(36.681 126.24) rotate(-63.197)"/>
            <path id="Trazado_924275" data-name="Trazado 924275" d="M289.633,1239.15a16.449,16.449,0,0,0,4.094,2.195c.3-.538.627-1.105.934-1.613a15.837,15.837,0,0,1-4.232-2.1c-.2.4-.489.932-.8,1.516" transform="translate(-259.19 -1115.903)" fill="#80c5a6"/>
            <path id="Trazado_924276" data-name="Trazado 924276" d="M276.318,1257.233c.228-.37.651-1.144,1.124-1.986a16.466,16.466,0,0,1-4.094-2.195c-.878,1.665-1.948,3.747-1.912,4.326.169,2.705,3.695,7.062,5.2,8.248l1.286-1.5.5-.583a6.135,6.135,0,0,1-.409-.756c-.786-1.65-2.02-5.032-1.7-5.553" transform="translate(-242.905 -1129.806)" fill="#fe9f73"/>
            <path id="Trazado_924277" data-name="Trazado 924277" d="M311.728,1260.163a17.122,17.122,0,0,0,2.535,1.1l.616-1.627-1.509-.28Z" transform="translate(-278.963 -1135.489)" fill="#80c5a6"/>
            <path id="Trazado_924278" data-name="Trazado 924278" d="M336.617,1239.218a.091.091,0,0,0-.116.049l-1.5,3.72a.082.082,0,0,0,.052.108.093.093,0,0,0,.032.005.089.089,0,0,0,.084-.054l1.5-3.72a.082.082,0,0,0-.052-.108" transform="translate(-299.781 -1117.327)"/>
            <path id="Trazado_924279" data-name="Trazado 924279" d="M307.7,1341.742c-.289-.18-1.172-.728-1.746-1.039-.221-.344.448-.628.861-.68.213-.027.474-.191-.052-.376a6.02,6.02,0,0,0-1.457-.13l-1.389-2.429-2.557,2.15s1.871,2.435,2.109,2.748a5.613,5.613,0,0,0,1.946,1.238c.97.224.725-.157.725-.157,1.031.145.553-.428.553-.428.911.206.573-.415.573-.415.5.063.6-.091.59-.231a.321.321,0,0,0-.157-.251" transform="translate(-269.687 -1205.576)" fill="#fe9f73"/>
            <path id="Trazado_924280" data-name="Trazado 924280" d="M349.483,1385.2a6.261,6.261,0,0,1-.892-.393.052.052,0,0,0-.068.014.044.044,0,0,0,0,.054.048.048,0,0,0,.012.01,6.286,6.286,0,0,0,.911.4.05.05,0,0,0,.064-.027.045.045,0,0,0-.029-.059" transform="translate(-311.883 -1248.598)" fill="#f07162"/>
            <path id="Trazado_924281" data-name="Trazado 924281" d="M344.806,1389.033a3.137,3.137,0,0,1-.8-.432.052.052,0,0,0-.069.006.044.044,0,0,0,0,.059l.006.006a3.175,3.175,0,0,0,.825.447.05.05,0,0,0,.063-.027.045.045,0,0,0-.029-.059" transform="translate(-307.779 -1252.014)" fill="#f07162"/>
            <path id="Trazado_924282" data-name="Trazado 924282" d="M340.164,1394.081a2.7,2.7,0,0,1-.721-.356.052.052,0,0,0-.069.008.044.044,0,0,0,0,.058l.008.007a2.76,2.76,0,0,0,.752.371.05.05,0,0,0,.062-.03.046.046,0,0,0-.032-.058" transform="translate(-303.694 -1256.634)" fill="#f07162"/>
            <path id="Trazado_924283" data-name="Trazado 924283" d="M494.026,1468.025a2.869,2.869,0,0,0-2.09,3.595,3.131,3.131,0,0,0,3.842,1.956,2.869,2.869,0,0,0,2.09-3.595,3.13,3.13,0,0,0-3.842-1.956" transform="translate(-440.115 -1323.528)" fill="#ff424d"/>
            <path id="Trazado_924284" data-name="Trazado 924284" d="M505.5,1478.779l-1.689.462-.516-1.574-.595.171.513,1.567-1.681.46.175.559,1.689-.463.516,1.574.595-.171-.513-1.567,1.681-.46Z" transform="translate(-448.818 -1332.328)" fill="#fff"/>
            <path id="Trazado_924285" data-name="Trazado 924285" d="M1961.847,1717.919l4.7.06.067-4.133-4.677-.545Z" transform="translate(-1755.641 -1544.786)" fill="#fe9f73"/>
            <path id="Trazado_924286" data-name="Trazado 924286" d="M2038.764,1717.919l4.7.06.067-4.133-4.677-.545Z" transform="translate(-1824.474 -1544.786)" fill="#fe9f73"/>
            <path id="Trazado_924287" data-name="Trazado 924287" d="M1959.634,1362.284l-5.735-2.056c-.916-.328-1.5-.075-1.653.83l-.142.387a3.451,3.451,0,0,0-.1.375l.361,33.175a1.458,1.458,0,0,0,1.1,1.352,12.559,12.559,0,0,0,3.383.476,1.5,1.5,0,0,0,1.525-1.261c1.422-10.924,2.1-27.62,2.254-31.889a1.436,1.436,0,0,0-.985-1.387" transform="translate(-1746.829 -1226.316)" fill="#33192c"/>
            <path id="Trazado_924288" data-name="Trazado 924288" d="M1988.948,1339.925l1.677,8.175,2.723,29.444a1.239,1.239,0,0,0,.962,1.067,12.52,12.52,0,0,0,3.854.332,1.259,1.259,0,0,0,1.2-1.119c1.018-12.665.627-33.2.627-33.2Z" transform="translate(-1779.893 -1208.134)" fill="#49263e"/>
            <path id="Trazado_924289" data-name="Trazado 924289" d="M2087.252,1735.161h0Z" transform="translate(-1867.865 -1564.496)" fill="#21111d"/>
            <path id="Trazado_924290" data-name="Trazado 924290" d="M1924.612,1742.875a2.519,2.519,0,0,1-3.021-.223l-3.514,1.455s-1.29.4-1.29,1.022h9.584V1743.3a1.527,1.527,0,0,0-1.759-.429" transform="translate(-1715.317 -1571.25)" fill="#33192c"/>
            <rect id="Rectángulo_412212" data-name="Rectángulo 412212" width="0.07" height="1.55" transform="translate(211.018 172.054)"/>
            <path id="Trazado_924291" data-name="Trazado 924291" d="M1975.481,1745.045l-.01.065a1.736,1.736,0,0,0,.218.011,2.74,2.74,0,0,0,1.459-.419l-.04-.054a2.645,2.645,0,0,1-1.627.4" transform="translate(-1767.833 -1573.05)"/>
            <path id="Trazado_940712" data-name="Trazado 940712" d="M0,0,.53.016l0,.067L0,.067Z" transform="translate(210.159 173.289) rotate(-33.968)"/>
            <path id="Trazado_924292" data-name="Trazado 924292" d="M1922.9,1765.385h-9.687a.37.37,0,0,0-.382.357v.166a.37.37,0,0,0,.382.357h9.687a.149.149,0,0,0,.154-.144v-.592a.149.149,0,0,0-.154-.144" transform="translate(-1711.773 -1591.747)" fill="#ef9029"/>
            <path id="Trazado_924293" data-name="Trazado 924293" d="M1917.926,1743.927a1.711,1.711,0,0,0-.92.671l.064.028a1.685,1.685,0,0,1,.884-.638c.707-.282,3.817-1.569,3.848-1.582l-.029-.06c-.031.013-3.14,1.3-3.847,1.581" transform="translate(-1715.513 -1570.974)"/>
            <path id="Trazado_924294" data-name="Trazado 924294" d="M1946.02,1748.364l1.011,1.474h.653l-1.155-1.684-.509.21" transform="translate(-1741.477 -1576.211)" fill="#d7e4f7"/>
            <path id="Trazado_924295" data-name="Trazado 924295" d="M1953.792,1744.935l1.242,1.811h.653l-1.386-2.021-.509.21" transform="translate(-1748.432 -1573.119)" fill="#d7e4f7"/>
            <path id="Trazado_924296" data-name="Trazado 924296" d="M1922.514,1765.05H1913a.491.491,0,0,0-.506.472.459.459,0,0,0,.179.36l.045-.05a.4.4,0,0,1-.154-.31.422.422,0,0,1,.436-.407h9.516a.2.2,0,0,1,.2.188v.438h.07v-.438a.263.263,0,0,0-.271-.253" transform="translate(-1711.473 -1591.445)"/>
            <path id="Trazado_924297" data-name="Trazado 924297" d="M2001.293,1742.875a2.519,2.519,0,0,1-3.021-.223l-3.514,1.455s-1.29.4-1.29,1.022h9.583V1743.3a1.527,1.527,0,0,0-1.758-.429" transform="translate(-1783.938 -1571.25)" fill="#49263e"/>
            <rect id="Rectángulo_412214" data-name="Rectángulo 412214" width="0.07" height="1.55" transform="translate(219.078 172.054)"/>
            <path id="Trazado_924298" data-name="Trazado 924298" d="M2052.161,1745.045l-.01.065a1.738,1.738,0,0,0,.218.011,2.739,2.739,0,0,0,1.459-.419l-.04-.054a2.645,2.645,0,0,1-1.627.4" transform="translate(-1836.453 -1573.05)"/>
            <path id="Trazado_940713" data-name="Trazado 940713" d="M0,0,.53.016l0,.067L0,.067Z" transform="matrix(0.829, -0.56, 0.56, 0.829, 218.219, 173.289)"/>
            <path id="Trazado_924299" data-name="Trazado 924299" d="M2073.07,1758.437l.039.054.449-.282-.039-.054Z" transform="translate(-1855.174 -1585.228)"/>
            <path id="Trazado_924300" data-name="Trazado 924300" d="M1999.576,1765.385h-9.687a.37.37,0,0,0-.382.357v.166a.37.37,0,0,0,.382.357h9.687a.149.149,0,0,0,.154-.144v-.592a.149.149,0,0,0-.154-.144" transform="translate(-1780.393 -1591.747)" fill="#ffb357"/>
            <path id="Trazado_924301" data-name="Trazado 924301" d="M1994.6,1743.927a1.711,1.711,0,0,0-.92.671l.064.028a1.686,1.686,0,0,1,.884-.638c.707-.282,3.817-1.569,3.848-1.582l-.029-.06c-.031.013-3.14,1.3-3.847,1.581" transform="translate(-1784.132 -1570.974)"/>
            <path id="Trazado_924302" data-name="Trazado 924302" d="M2022.7,1748.364l1.011,1.474h.653l-1.155-1.684-.51.21" transform="translate(-1810.098 -1576.211)" fill="#d7e4f7"/>
            <path id="Trazado_924303" data-name="Trazado 924303" d="M2030.472,1744.935l1.242,1.811h.654l-1.386-2.021-.509.21" transform="translate(-1817.053 -1573.119)" fill="#d7e4f7"/>
            <path id="Trazado_924304" data-name="Trazado 924304" d="M1999.194,1765.05h-9.516a.491.491,0,0,0-.506.472.46.46,0,0,0,.179.36l.046-.05a.4.4,0,0,1-.154-.31.422.422,0,0,1,.436-.407h9.516a.2.2,0,0,1,.2.188v.438h.07v-.438a.263.263,0,0,0-.271-.253" transform="translate(-1780.094 -1591.445)"/>
            <path id="Trazado_924305" data-name="Trazado 924305" d="M1949.935,1302.912l3.476.414.15-25.68-3.44-1.021Z" transform="translate(-1744.981 -1151.061)" fill="#fff"/>
            <path id="Trazado_924306" data-name="Trazado 924306" d="M2040.158,1257.814c-.867,5.56-.352,26.8-.352,26.8,1.345.236,7.355,0,7.355,0l.518-23.477s-6.654-8.878-7.521-3.318" transform="translate(-1825.27 -1132.449)" fill="#fff"/>
            <path id="Trazado_924307" data-name="Trazado 924307" d="M1902.826,1270.016l4.231-1.009,1.812-4.859c-.189,0-4.377,1.341-4.377,1.341Z" transform="translate(-1702.823 -1139.81)" fill="#fff"/>
            <path id="Trazado_924308" data-name="Trazado 924308" d="M1925.541,1133.071c-1.844-.179-6.694-.188-6.694-.188s-.636.177-.435.083c-5.317,1.052-5.773,4.773-5.773,4.773l-2.22,10.78-2.9.239a18.574,18.574,0,0,0-1.358,4.244l7.919,2.074,7.069,1.012s2.77,1.01,5.231-2.152c.25-.322,1.646-3.3,1.839-3.8,1.06-2.74.958-8.586.816-12.454,0,0-.625-4.336-3.491-4.614" transform="translate(-1705.807 -1021.456)" fill="#fff"/>
            <path id="Trazado_924309" data-name="Trazado 924309" d="M1926.62,1266.662l-2.748.815a.084.084,0,0,0-.061.105.093.093,0,0,0,.114.053h0l2.748-.814a.084.084,0,0,0,.061-.105.094.094,0,0,0-.115-.053" transform="translate(-1721.599 -1142.074)" fill="#21111d"/>
            <path id="Trazado_924310" data-name="Trazado 924310" d="M1826.159,1217.549l-1.973.871-.13.057-1.973.872,9.049,21.615a1.239,1.239,0,0,0,1.64.608l5.022-2.218a1.092,1.092,0,0,0,.536-1.569Z" transform="translate(-1630.567 -1097.795)" fill="#ff424d"/>
            <path id="Trazado_924311" data-name="Trazado 924311" d="M1808.627,1191.09l-5.847,2.583,1.1,2.006c.13.257.895.37,1.17.249l4.426-1.955a.5.5,0,0,0,.263-.687Z" transform="translate(-1613.293 -1073.938)" fill="#f99247"/>
            <path id="Trazado_924312" data-name="Trazado 924312" d="M1804.176,1219.119a.942.942,0,0,1-1.215-.405l-.913-1.8-.194.086.913,1.8a1.165,1.165,0,0,0,1.5.5l3.183-1.406-.092-.182Z" transform="translate(-1612.464 -1097.22)" fill="#21111d"/>
            <g id="Grupo_1114686" data-name="Grupo 1114686" transform="translate(175.416 97.316)" opacity="0.5">
              <g id="Grupo_1114685" data-name="Grupo 1114685">
                <g id="Grupo_1114684" data-name="Grupo 1114684" clip-path="url(#clip-path-17)">
                  <path id="Trazado_924313" data-name="Trazado 924313" d="M1675.682,990.483c-5.9,2.607-8.423,9.185-5.63,14.694s9.842,7.861,15.744,5.254,8.423-9.186,5.63-14.694-9.842-7.861-15.744-5.254" transform="translate(-1668.913 -989.42)" fill="#fff"/>
                </g>
              </g>
            </g>
            <path id="Trazado_924314" data-name="Trazado 924314" d="M1761.587,1016.017c-2.416-.393-4.538.161-4.74,1.238s1.594,2.269,4.01,2.662,4.538-.161,4.739-1.238-1.594-2.269-4.01-2.662" transform="translate(-1572.175 -915.971)" fill="#f3fffe"/>
            <path id="Trazado_924315" data-name="Trazado 924315" d="M1823.435,1239.973l8.928,21.47.2-.073-8.928-21.47Z" transform="translate(-1631.777 -1117.947)" fill="#21111d"/>
            <path id="Trazado_924316" data-name="Trazado 924316" d="M1658.865,972.806c-6.841,3.021-9.762,10.646-6.525,17.031s11.407,9.111,18.248,6.09,9.762-10.646,6.525-17.031-11.407-9.111-18.248-6.09m10.918,21.535c-5.9,2.607-12.951.254-15.744-5.254s-.272-12.087,5.63-14.694,12.951-.254,15.744,5.254.273,12.087-5.63,14.694" transform="translate(-1477.485 -876.013)" fill="#80c4a4"/>
            <path id="Trazado_924317" data-name="Trazado 924317" d="M1669.662,994.9c-6.776,2.993-14.9.282-18.1-6.042s-.3-13.9,6.474-16.9a14.424,14.424,0,0,1,10.1-.574l.068-.19a14.652,14.652,0,0,0-10.256.583c-6.884,3.04-9.833,10.74-6.576,17.165s11.507,9.178,18.391,6.138a13.243,13.243,0,0,0,6.952-6.95l-.2-.073a13.037,13.037,0,0,1-6.844,6.841" transform="translate(-1476.604 -875.081)" fill="#21111d"/>
            <path id="Trazado_924318" data-name="Trazado 924318" d="M1858.92,1276.934a1.857,1.857,0,0,0-.633.223l-1.558-.059c-.524-.083-1.237-.248-1.237-.248a.387.387,0,0,0-.521.22.416.416,0,0,0,.3.495l2.116.617a.1.1,0,0,1,.072.11l-.019.1a.1.1,0,0,1-.12.079l-2.355-.383a.4.4,0,1,0-.13.792l2.337.38a.1.1,0,0,1,.085.113l-.006.032a.1.1,0,0,1-.1.081l-2.141.047a.547.547,0,0,0-.512.412.331.331,0,0,0,.362.393l2.1-.047a.1.1,0,0,1,.105.114.1.1,0,0,1-.087.079l-1.4.207a.4.4,0,1,0,.116.794l.194-.029a6.888,6.888,0,0,1,2.323.054l2.649.517a30.612,30.612,0,0,0,.43-3.342c.1-.219.153-.5.064-.622,0,0-1.812-1.3-2.434-1.132" transform="translate(-1659.544 -1151.241)" fill="#fe9f73"/>
            <path id="Trazado_924319" data-name="Trazado 924319" d="M2065.413,1130.6c-1.572-.766-4.8-.558-4.8-.558s4.325,7.106,4.456,7.434,2.257.346,2.257.346.43-6.079-1.915-7.222" transform="translate(-1844.027 -1018.872)" fill="#fff"/>
            <path id="Trazado_924320" data-name="Trazado 924320" d="M2048.229,1204.374a.091.091,0,0,0-.113.052c-1.3,3.519-3.823,9.034-3.848,9.089a.081.081,0,0,0,.047.109.093.093,0,0,0,.052.005.088.088,0,0,0,.065-.049c.026-.055,2.556-5.576,3.853-9.1a.082.082,0,0,0-.055-.105" transform="translate(-1829.392 -1085.911)" fill="#21111d"/>
            <path id="Trazado_924321" data-name="Trazado 924321" d="M2046.967,1295.2l-2.436.118a.085.085,0,0,0-.084.087.087.087,0,0,0,.093.079l2.436-.118h.012a.084.084,0,0,0,.072-.086.087.087,0,0,0-.093-.078" transform="translate(-1829.559 -1167.812)" fill="#21111d"/>
            <path id="Trazado_924322" data-name="Trazado 924322" d="M1872.877,1265.264l2.641.4-1.171-1.9Z" transform="translate(-1676.022 -1139.465)" fill="#ff424d"/>
            <path id="Trazado_924323" data-name="Trazado 924323" d="M1985.843,1130.937c-1.022.709-1.834,5.166-1.834,5.166l-.07.37-.3,3.52-.411,5.365,6.3,1.193c.088-2.678,2.372-16.483,2.372-16.483l-2.2.047s-2.827.113-3.849.821" transform="translate(-1774.772 -1018.919)" fill="#7fc6a6"/>
            <path id="Trazado_924324" data-name="Trazado 924324" d="M1974.189,1190.75a.089.089,0,0,0-.1.067c-.426,2.25-.847,9.029-.851,9.1a.08.08,0,0,0,.03.067.091.091,0,0,0,.054.021.087.087,0,0,0,.094-.078c0-.068.424-6.837.848-9.077a.084.084,0,0,0-.072-.1" transform="translate(-1765.832 -1073.631)" fill="#21111d"/>
            <path id="Trazado_924325" data-name="Trazado 924325" d="M1953.331,1134.971a4.819,4.819,0,0,0-.982,2.127l-1.71,8.3-.006.032.631.935a.093.093,0,0,0,.109.032l.014-.007a.08.08,0,0,0,.028-.115l-.594-.88,1.7-8.273v-.006a4.726,4.726,0,0,1,.956-2.06,7.757,7.757,0,0,1,5.12-2.71,1.063,1.063,0,0,1-.027-.164,7.925,7.925,0,0,0-5.244,2.785" transform="translate(-1745.604 -1020.828)" fill="#21111d"/>
            <path id="Trazado_924326" data-name="Trazado 924326" d="M1904.1,1280.107a12.377,12.377,0,0,0,0,2.308l4.57,1.124.29-6.7-3.643-.471a7.822,7.822,0,0,0-1.217,3.74" transform="translate(-1703.932 -1150.828)" fill="#fff"/>
            <path id="Trazado_924327" data-name="Trazado 924327" d="M1983.01,1365.932l5.954.9.091-7.882-6.023-1.064Z" transform="translate(-1774.579 -1224.328)" fill="#7fc6a6"/>
            <path id="Trazado_924328" data-name="Trazado 924328" d="M1921.217,1277.351c-.125-.024-12.575-2.418-16.643-2.751l-.053,0-.029.041a9.314,9.314,0,0,0-1.212,3.923.085.085,0,0,0,.077.093.088.088,0,0,0,.1-.073,9.78,9.78,0,0,1,1.156-3.81c4.114.349,16.443,2.72,16.567,2.744a.091.091,0,0,0,.035,0,.086.086,0,0,0,.071-.065.083.083,0,0,0-.069-.1" transform="translate(-1703.229 -1149.23)" fill="#21111d"/>
            <path id="Trazado_924329" data-name="Trazado 924329" d="M1927.656,1288.76a.1.1,0,0,0-.123.075c-.015.07-1.6,7.027-5.237,7.7-3.684.684-17.131-2.956-17.267-2.992a.1.1,0,0,0-.128.066.1.1,0,0,0,.07.12c.375.1,6.451,1.746,11.51,2.592a20.535,20.535,0,0,0,5.855.4c3.776-.7,5.335-7.562,5.4-7.854a.1.1,0,0,0-.081-.114" transform="translate(-1704.677 -1161.999)" fill="#21111d"/>
            <path id="Trazado_924330" data-name="Trazado 924330" d="M2023.038,1057.224a4.729,4.729,0,0,0-2.786-.3,1.8,1.8,0,0,0-1.362,1.608l-.042.734,4.144-1.414s.625.315.578.226-.532-.85-.532-.85" transform="translate(-1806.651 -952.869)" fill="#fe9f73"/>
            <path id="Trazado_924331" data-name="Trazado 924331" d="M2022.079,1063.427l-4.318.981-.176,3.1a1.175,1.175,0,0,0,.917,1.294l-.278,1.467a1.144,1.144,0,0,0,.774,1.283,3.439,3.439,0,0,0,.972.19,1.988,1.988,0,0,0,2-1.15,14.345,14.345,0,0,0-.061-2.408l.092-.973Z" transform="translate(-1805.517 -958.832)" fill="#fe9f73"/>
            <path id="Trazado_924332" data-name="Trazado 924332" d="M2033.615,1085.006a.044.044,0,0,0-.011.064.052.052,0,0,0,.069.01c.574-.386,1.14.213,1.164.239a.052.052,0,0,0,.07,0,.044.044,0,0,0,.005-.065c-.006-.007-.649-.69-1.3-.253" transform="translate(-1819.847 -978.157)" fill="#21111d"/>
            <path id="Trazado_924333" data-name="Trazado 924333" d="M2019.277,1082.458a.044.044,0,0,0-.009.065.052.052,0,0,0,.069.009c.244-.175.647.183.651.186a.052.052,0,0,0,.07,0,.044.044,0,0,0,0-.065c-.019-.017-.469-.417-.781-.193" transform="translate(-1807.017 -975.929)" fill="#21111d"/>
            <path id="Trazado_924334" data-name="Trazado 924334" d="M2036.292,1089.748a.145.145,0,0,0-.156.131.142.142,0,0,0,.14.146.145.145,0,0,0,.156-.131.142.142,0,0,0-.14-.146" transform="translate(-1822.121 -982.564)"/>
            <path id="Trazado_924335" data-name="Trazado 924335" d="M2021.374,1087.546a.145.145,0,0,0-.156.131.143.143,0,0,0,.14.146.145.145,0,0,0,.156-.131.142.142,0,0,0-.14-.146" transform="translate(-1808.771 -980.578)"/>
            <path id="Trazado_924336" data-name="Trazado 924336" d="M2054.37,1060.493l.1.3-.616,1.328.225,3.424c1.541.231,1.436-1.841,1.465-2.146a2.75,2.75,0,0,0,.342-1.861c-.26-1.041-1.519-1.047-1.519-1.047" transform="translate(-1837.981 -956.186)" fill="#21111d"/>
            <path id="Trazado_924337" data-name="Trazado 924337" d="M2048.739,1083.209a.87.87,0,0,0-.937.786.855.855,0,0,0,.842.875.87.87,0,0,0,.937-.786.855.855,0,0,0-.842-.874" transform="translate(-1832.56 -976.667)" fill="#fe9f73"/>
            <path id="Trazado_924338" data-name="Trazado 924338" d="M2053.842,1087.642a.6.6,0,0,1,.4,0,.025.025,0,0,0,.032-.013.023.023,0,0,0-.014-.03.64.64,0,0,0-.435.005.456.456,0,0,0-.244.291l-.026.079.066-.055a.408.408,0,0,1,.474-.032.271.271,0,0,1,.1.333.317.317,0,0,1-.314.211h-.005a.024.024,0,0,0-.026.022.024.024,0,0,0,.023.025h.005a.369.369,0,0,0,.364-.242.313.313,0,0,0-.119-.386.443.443,0,0,0-.468-.008.386.386,0,0,1,.191-.2" transform="translate(-1837.706 -980.589)" fill="#f07162"/>
            <path id="Trazado_924339" data-name="Trazado 924339" d="M2024.6,1110.527l-.2,1.082c2.489-.054,2.664-1.9,2.664-1.9a2.479,2.479,0,0,1-2.459.821" transform="translate(-1811.614 -1000.559)" fill="#f07162"/>
            <path id="Trazado_924340" data-name="Trazado 924340" d="M2026.132,1088.073l-.487-.177.219-1.08a.024.024,0,0,0-.02-.027.025.025,0,0,0-.029.018l-.226,1.118.525.191.008,0a.025.025,0,0,0,.024-.015.023.023,0,0,0-.014-.03" transform="translate(-1812.683 -979.895)" fill="#f07162"/>
            <path id="Trazado_924341" data-name="Trazado 924341" d="M2053.422,1098.473l-.089,1.564.59-.016-.083-1.57Z" transform="translate(-1837.51 -990.41)" fill="#fe9f73"/>
            <path id="Trazado_924342" data-name="Trazado 924342" d="M2053.254,1059.886a2.262,2.262,0,0,1-.285,1.72c-.539,1.057,1.247-.342,1.247-.342s-.028-1.588-.963-1.378" transform="translate(-1837.095 -955.622)" fill="#21111d"/>
            <path id="Trazado_924343" data-name="Trazado 924343" d="M2017.746,1048.039c-1.121-.4-1.022.778-1.022.778s-.89-.022-.7.815,3.951,1.234,3.951,1.234,2.089-.33,1.55-1.346-2.655-1.076-3.776-1.48" transform="translate(-1804.097 -944.881)" fill="#21111d"/>
            <path id="Trazado_924344" data-name="Trazado 924344" d="M2049.8,1072.732a2.381,2.381,0,0,0,.022,1.372l.154.2.2-.635.729-.688s-.856-.682-1.1-.25" transform="translate(-1834.253 -967.092)" fill="#21111d"/>
            <path id="Trazado_924345" data-name="Trazado 924345" d="M2024.759,1103.984a.59.59,0,0,0,.5-.409s-1.022.032-1.038.035a.6.6,0,0,0,.534.373" transform="translate(-1811.462 -995.031)" fill="#fbfdfc"/>
            <path id="Trazado_924346" data-name="Trazado 924346" d="M1847.834,1327.076l-1.427.711a.429.429,0,0,0-.085.613.444.444,0,0,0,.547.228l1.433-.714a.432.432,0,0,0,.019-.507.765.765,0,0,0-.487-.331" transform="translate(-1652.181 -1196.549)" fill="#fe9f73"/>
            <path id="Trazado_924347" data-name="Trazado 924347" d="M1851.856,1335.1l-1.563.828a.5.5,0,0,0,.474.834l1.524-.808a.634.634,0,0,0-.074-.56.547.547,0,0,0-.361-.295" transform="translate(-1655.664 -1203.786)" fill="#fe9f73"/>
            <path id="Trazado_924348" data-name="Trazado 924348" d="M1856.155,1344.563l-1.444.794a.462.462,0,0,0,.448.773l1.408-.774a.6.6,0,0,0-.074-.522.507.507,0,0,0-.339-.271" transform="translate(-1659.631 -1212.316)" fill="#fe9f73"/>
            <path id="Trazado_924349" data-name="Trazado 924349" d="M1847.731,1327.057l-1.54.776a.361.361,0,0,1-.446-.184.456.456,0,0,1-.066-.293.258.258,0,0,1,.135-.2l1.413-.7a.079.079,0,0,0,.019-.11.084.084,0,0,0-.1-.049l-1.413.7a.382.382,0,0,0-.2.3.668.668,0,0,0,.1.429.526.526,0,0,0,.647.271l1.54-.776.012-.008a.085.085,0,0,0,.006-.1.084.084,0,0,0-.1-.049" transform="translate(-1651.547 -1195.834)" fill="#f07162"/>
            <path id="Trazado_924350" data-name="Trazado 924350" d="M1842.123,1319.133l-1.428.74a.5.5,0,0,0,.471.835l1.53-.793a.612.612,0,0,0-.07-.56c-.086-.151-.345-.3-.5-.223" transform="translate(-1647.073 -1189.367)" fill="#fe9f73"/>
            <path id="Trazado_924351" data-name="Trazado 924351" d="M1842.013,1319.388l-1.527.8a.358.358,0,0,1-.446-.178.46.46,0,0,1-.069-.293.26.26,0,0,1,.133-.208l1.4-.726a.08.08,0,0,0,.018-.111.083.083,0,0,0-.1-.048l-1.4.726a.385.385,0,0,0-.194.3.671.671,0,0,0,.1.429.522.522,0,0,0,.648.263l1.527-.8.012-.009a.086.086,0,0,0,.005-.1.083.083,0,0,0-.1-.047" transform="translate(-1646.438 -1188.925)" fill="#f07162"/>
            <path id="Trazado_924352" data-name="Trazado 924352" d="M1851.538,1335.08l-1.471.814a.327.327,0,0,1-.426-.163.459.459,0,0,1-.071-.293.26.26,0,0,1,.131-.209l1.563-.828a.08.08,0,0,0,.017-.111.083.083,0,0,0-.1-.047l-1.563.828a.386.386,0,0,0-.192.306.672.672,0,0,0,.1.428.49.49,0,0,0,.629.246l1.472-.815.01-.007a.086.086,0,0,0,.005-.1.083.083,0,0,0-.1-.045" transform="translate(-1655.029 -1203.005)" fill="#f07162"/>
            <path id="Trazado_924353" data-name="Trazado 924353" d="M1855.485,1344.006l-1.408.774a.324.324,0,0,1-.41-.154.424.424,0,0,1-.068-.268.24.24,0,0,1,.118-.193l1.444-.794a.081.081,0,0,0,.016-.111.082.082,0,0,0-.1-.046l-1.444.794a.367.367,0,0,0-.177.291.637.637,0,0,0,.1.4.486.486,0,0,0,.612.235l1.408-.774.01-.008a.086.086,0,0,0,.005-.1.082.082,0,0,0-.1-.046" transform="translate(-1658.636 -1211.093)" fill="#f07162"/>
            <path id="Trazado_924354" data-name="Trazado 924354" d="M1325.682,478.469c-6.848,0-12.42,5.214-12.42,11.623h.21c0-6.3,5.477-11.426,12.209-11.426a12.111,12.111,0,0,1,11.808,8.514,10.706,10.706,0,0,1,.4,2.912h.21a10.891,10.891,0,0,0-.409-2.962,12.32,12.32,0,0,0-12.011-8.661" transform="translate(-1175.228 -431.408)" fill="#1d1d1b"/>
            <path id="Trazado_924355" data-name="Trazado 924355" d="M1301.52,451.469c-8.413,0-15.257,6.405-15.257,14.278h.21c0-7.765,6.75-14.082,15.047-14.082,7.2,0,13.416,4.8,14.778,11.412a13.306,13.306,0,0,1,.271,2.67h.21a13.5,13.5,0,0,0-.274-2.707c-1.381-6.705-7.683-11.572-14.985-11.572" transform="translate(-1151.066 -407.064)" fill="#1d1d1b"/>
            <path id="Trazado_924356" data-name="Trazado 924356" d="M1533.89,936.38h-2.541a1.907,1.907,0,0,0-1.964,1.838v5.691h.21v-5.691a1.7,1.7,0,0,1,1.754-1.642h2.541a1.7,1.7,0,0,1,1.754,1.642v5.691h.21v-5.691a1.907,1.907,0,0,0-1.965-1.838" transform="translate(-1368.634 -844.281)" fill="#1d1d1b"/>
            <rect id="Rectángulo_412217" data-name="Rectángulo 412217" width="10.295" height="0.197" transform="translate(158.513 99.531)" fill="#1d1d1b"/>
            <rect id="Rectángulo_412218" data-name="Rectángulo 412218" width="236.018" height="0.555" transform="translate(5.452 174.252)" fill="#49263e"/>
          </g>
        </g>
      </g>
    </g>
  </g>
</svg>
