<svg id="Grupo_1116296" data-name="Grupo 1116296" xmlns="http://www.w3.org/2000/svg" xmlns:xlink="http://www.w3.org/1999/xlink" width="119.75" height="132.064" viewBox="0 0 119.75 132.064">
  <defs>
    <clipPath id="clip-path">
      <rect id="Rect치ngulo_416103" data-name="Rect치ngulo 416103" width="119.75" height="132.064" fill="none"/>
    </clipPath>
    <clipPath id="clip-path-2">
      <rect id="Rect치ngulo_416104" data-name="Rect치ngulo 416104" width="119.75" height="110.43" fill="none"/>
    </clipPath>
  </defs>
  <g id="Grupo_1116291" data-name="Grupo 1116291">
    <g id="Grupo_1116290" data-name="Grupo 1116290" clip-path="url(#clip-path)">
      <path id="Trazado_957574" data-name="Trazado 957574" d="M177.657,106.475c-2.942-1.351-4.635-5.689-6.259-8.288-1.223-1.958-2.333-3.969-3.452-5.973-.23.488-.426.946-.578,1.27a6.951,6.951,0,0,1-1.62,2.666c-2.274,1.954-6.459,1.855-9.277,1.62a2.988,2.988,0,0,1-1.321.274l-.841-.113c-.067-.022-.132-.05-.2-.074a3.468,3.468,0,0,1-1.052-.488l-.184-.078-.186-.142c-.035-.021-.07-.04-.1-.062a3.4,3.4,0,0,1-1.024-1.014h-9.343a1,1,0,0,1-.189-.02.972.972,0,0,1-.182-.056,1.061,1.061,0,0,1-.167-.09,1.024,1.024,0,0,1-.146-.121.983.983,0,0,1-.12-.148.962.962,0,0,1-.09-.167.98.98,0,0,1-.055-.182.957.957,0,0,1,0-.378.98.98,0,0,1,.055-.182.957.957,0,0,1,.09-.167.985.985,0,0,1,.12-.148,1.045,1.045,0,0,1,.146-.121,1.009,1.009,0,0,1,.167-.09.975.975,0,0,1,.182-.057.941.941,0,0,1,.189-.019h8.238a3.2,3.2,0,0,1-.09-.706,3.17,3.17,0,0,1,.667-1.991,3,3,0,0,1,2.484-1.246,4.451,4.451,0,0,1,1.942.529,3.209,3.209,0,0,1,.612.441,2.637,2.637,0,0,1,.706.314,18.3,18.3,0,0,0,2.891.033c.3-.024,1.2-.282,1.756-.363.171-.314.4-.682.48-.844a22.25,22.25,0,0,1,1.16-2.116c1.472-2.4,3.891-5.826,7.16-3.877,1.4.833,1.781,2.573,2.491,3.922.793,1.507,1.747,2.932,2.648,4.376l3,4.8c.119.19.242.419.372.669,1.157-2.7,2-5.555,3.279-8.192,1.014-2.086,2.1-4.108,2.934-6.274a10.253,10.253,0,0,1,3-4.788c1.344-1.04,3.155-1.348,4.474,0a3.272,3.272,0,0,1,.8,1.5c1.81,1.941,2.663,5.3,3.348,7.569q.429,1.429.738,2.889.138.625.247,1.255c.049.131.083.237.11.33.658-.023,1.539-.237,2.094-.25a18.158,18.158,0,0,0,2.5-.08,2.872,2.872,0,0,1,.867-.553,3.41,3.41,0,0,1,.9-.764,2.964,2.964,0,0,1,.274-.139A3.443,3.443,0,0,1,206.133,90a3.188,3.188,0,0,1,2.237.927,3.223,3.223,0,0,1,.927,2.237,2.893,2.893,0,0,1-.164.964H217.3a.974.974,0,0,1,.19.018,1.009,1.009,0,0,1,.184.055.98.98,0,0,1,.169.09.951.951,0,0,1,.149.121,1,1,0,0,1,.122.148,1.029,1.029,0,0,1,.09.168,1,1,0,0,1,.056.183.973.973,0,0,1,0,.381,1.014,1.014,0,0,1-.056.183,1.024,1.024,0,0,1-.09.168,1.012,1.012,0,0,1-.122.148.951.951,0,0,1-.149.121.98.98,0,0,1-.169.09,1.01,1.01,0,0,1-.184.055.973.973,0,0,1-.19.017h-9.324a3.533,3.533,0,0,1-1.1,1.053,2.935,2.935,0,0,1-.816.326l-.071.028,0-.012c-.164.037-.331.064-.5.086a3.367,3.367,0,0,1-.818.394c-2.276.745-4.878.551-7.238.752a5.3,5.3,0,0,1-5.006-2.289c-1.2-1.835-1.245-4.371-1.841-6.441-.189-.655-.391-1.342-.614-2.031-.038.094-.075.193-.115.284-.849,1.9-1.87,3.708-2.741,5.593-1.774,3.841-2.657,8.022-5.132,11.526a3.28,3.28,0,0,1-4.329,1.135m-14.5,6.347a1.748,1.748,0,0,0-1.146-1.056c-1.09-.27-2.1-.048-2.869-1.117-.444-.62-.458-1.4-1-2.016a2.977,2.977,0,0,0-3.557-.715c-1.3.557-3,1.172-3.672,2.533-.761,1.543-.171,4.118-1.891,5.005a1.321,1.321,0,0,0-.773.131,2.442,2.442,0,0,0-1.061,1.259,2.425,2.425,0,0,0-.134.542,5.213,5.213,0,0,1-.176,1.112,3.521,3.521,0,0,1-.347.538,6.962,6.962,0,0,1-.578.669s-.179.153-.18.164l-.026.015a1.975,1.975,0,0,0-.458-.317,6.063,6.063,0,0,1-.223-.732,1.6,1.6,0,0,1-.062-.4,2.973,2.973,0,0,1,.013-.579c0,.086.008.052.032-.1a2.6,2.6,0,0,1,.084-.275,4.105,4.105,0,0,0,.228-.519,1.653,1.653,0,0,0,.035-.185,1.671,1.671,0,0,0,.013-.188,1.65,1.65,0,0,0-.037-.374,1.643,1.643,0,0,0-.051-.182,1.675,1.675,0,0,0-.071-.174,1.716,1.716,0,0,0-.091-.165,1.477,1.477,0,0,0-.108-.153,1.524,1.524,0,0,0-.126-.14,1.542,1.542,0,0,0-.141-.125,1.763,1.763,0,0,0-.154-.108,1.675,1.675,0,0,0-.166-.09,1.762,1.762,0,0,0-.175-.069,1.6,1.6,0,0,0-.182-.049,1.636,1.636,0,0,0-.186-.028,1.7,1.7,0,0,0-.188-.007,1.994,1.994,0,0,0-1.861,1.829,5.316,5.316,0,0,0,.226,2.642,4.161,4.161,0,0,0,1.381,2.093,2.739,2.739,0,0,0,.812,1.039,10,10,0,0,1,.059,2.443,1.043,1.043,0,0,0,.317.809l-.016.142a1.254,1.254,0,0,0,.218.752,42.25,42.25,0,0,1-1.239,8.253.461.461,0,0,0,.189.509.611.611,0,0,0,.213.283,10.092,10.092,0,0,0,5.308,2.009,9.151,9.151,0,0,0,4.277-.285c1.357-.444,2.971-1.3,3.381-2.785,0-.01.007-.02.009-.031a.451.451,0,0,0,0-.248c-.1-.832-.164-1.667-.189-2.506.064-.006.129-.008.193-.015a6.317,6.317,0,0,0,6.47-4.77,14.976,14.976,0,0,0,.766-5.146c.109-2.575.1-5.153.1-7.731a1.325,1.325,0,0,0-.015-.249,1.372,1.372,0,0,0-.061-.243,1.406,1.406,0,0,0-.1-.227,1.436,1.436,0,0,0-.145-.2,1.288,1.288,0,0,0-.18-.174,1.347,1.347,0,0,0-.439-.236,1.383,1.383,0,0,0-.245-.053m12.554,76.618c-.035-.186-.07-.373-.106-.559-.049-.251-.049-.616-.289-.757a.226.226,0,0,0-.027-.1.229.229,0,0,0-.068-.078.236.236,0,0,0-.1-.04.243.243,0,0,0-.1.006c-.387.145-.774.3-1.163.448a.237.237,0,0,0-.2.006,36.523,36.523,0,0,1-3.882.981c-.066,0-.132,0-.2-.009a.189.189,0,0,0-.086,0,.193.193,0,0,0-.075.04.19.19,0,0,0-.051.07.182.182,0,0,0-.016.085.227.227,0,0,0-.06.209,34.387,34.387,0,0,0,1.049,4.282.22.22,0,0,0,.072.112.224.224,0,0,0,.122.053.535.535,0,0,0,.272.212.877.877,0,0,0,.4.228,13.725,13.725,0,0,0,4.438.4,1.083,1.083,0,0,0,.428-.128c.12,0,.24,0,.36-.008a.458.458,0,0,0,.375-.213.247.247,0,0,0,.135.021.241.241,0,0,0,.124-.054.243.243,0,0,0,.081-.248l-1.434-4.961M215.155,117c-.023.115-.053.228-.086.34a1.454,1.454,0,0,0-.044.57,1.478,1.478,0,0,0,.062.28,1.508,1.508,0,0,0,.116.263,1.438,1.438,0,0,0,.165.235,1.544,1.544,0,0,0,.208.2,1.507,1.507,0,0,0,.243.153,1.421,1.421,0,0,0,.268.1,1.442,1.442,0,0,0,.283.049,1.4,1.4,0,0,0,.287-.008,1.462,1.462,0,0,0,1.228-1.066,4.819,4.819,0,0,0,.188-1.78,1.566,1.566,0,0,0-.428-1.032,1.46,1.46,0,0,0-2.493,1.032,5.759,5.759,0,0,1,.007.638c0,.008,0,.017,0,.025m17.15,41.317a66.921,66.921,0,0,0-.774-11.422,15.841,15.841,0,0,0-.832-4.044c0-.013-.012-.022-.017-.035-1.036-3.97-3.1-7.691-6.886-9.59-.045-.023-.09-.035-.134-.053-.019-.015-.037-.032-.057-.046a8.526,8.526,0,0,0-1.092-.627l-.283-.162c-.13-.075-.26-.157-.4-.221a2.186,2.186,0,0,0-.243-.1,1.808,1.808,0,0,0-.241-.181,2.789,2.789,0,0,0-.587-.231q-.552-.173-1.114-.317a.743.743,0,0,0-.345,0,.816.816,0,0,0-.359.021.806.806,0,0,0-.316.172c-.492.408-.965.836-1.427,1.276-2.682,1.182-4.469,4.892-5.565,7.5-.278.527-.553,1.055-.814,1.59-.413.844-.8,1.7-1.141,2.578a8.19,8.19,0,0,0-.656,2.323c-.075.222-.149.444-.216.669a15.436,15.436,0,0,0-.518,2.3,3.164,3.164,0,0,0-3.779-2.7c0-.022,0-.044,0-.066a30.564,30.564,0,0,1,2.194-9.428.567.567,0,0,0,.058-.226.585.585,0,0,0-.16-.428.564.564,0,0,0-.192-.132.6.6,0,0,0-.432-.144,6.037,6.037,0,0,0-2.4.923,17.114,17.114,0,0,0-1.982,1.224,8.574,8.574,0,0,0-1.771,1.714,9.468,9.468,0,0,0-.553.825,10.856,10.856,0,0,0-1.932,4.8c-.8,2.158-.715,4.622-.862,6.883a.674.674,0,0,0,.061.344q-.131,2.284-.037,4.576l-3.03-1.984c-.655-.429-1.323-.949-2.027-1.38-.142-.118-.278-.241-.421-.357a18.1,18.1,0,0,0-2-1.521,17.145,17.145,0,0,0-1.587-1.105.371.371,0,0,0-.032-.1c-.026-.032-.051-.065-.076-.1a.479.479,0,0,0-.215-.125l-.13-.017a.461.461,0,0,0-.171.035.4.4,0,0,0-.226.128l-.036.041a.722.722,0,0,0-.263.206.73.73,0,0,0-.113.221l-4.833,5.475a.476.476,0,0,0-.034.061.616.616,0,0,0-.167.193c-.014.027-.026.057-.038.087v0l0,.006c-.009.02-.025.06-.024.06s-.018.039-.025.059v0l0,.007v.005c-.006.033-.013.1-.017.131a.092.092,0,0,0,0,.015.7.7,0,0,0,.009.071.67.67,0,0,0,.01.072l0,.006v0c.007.02.024.059.024.06s.017.041.026.06l0,.006,0,0h0l.005.007a2.063,2.063,0,0,0,.454.653c.149.153.3.3.454.452a5.556,5.556,0,0,0,1.052.809,47.856,47.856,0,0,0,3.441,3.467,1.393,1.393,0,0,0,.336.224q.322.3.653.594c.678.618,1.36,1.23,2.053,1.83a1.831,1.831,0,0,0,.163.119l2.791,2.8a1.568,1.568,0,0,0,.421.3c.426.445.85.892,1.286,1.327a4.147,4.147,0,0,0,1.616,1.211q.534.469,1.1.91a1.722,1.722,0,0,0,.293.185q.027,9.164.056,18.327a1.732,1.732,0,0,0,3.13.945,1.81,1.81,0,0,0,.388-.071,29.347,29.347,0,0,0,9.439-5.237c2.789-2.113,6.108-4.141,8.38-6.834a45.828,45.828,0,0,1,3.125-3.916,38.124,38.124,0,0,0,3.478-3.369c1.125-1.387,1.576-3.094,2.706-4.467a20.342,20.342,0,0,0,1.825-2.625,1.622,1.622,0,0,0,.5-.592l1.41-2.752a9.428,9.428,0,0,0,1.08-2.56,1.911,1.911,0,0,0-.434-1.636" transform="translate(-119.929 -66.15)" fill="#fff"/>
      <path id="Trazado_957575" data-name="Trazado 957575" d="M123.551,29.92h13.234a47.769,47.769,0,0,1-7.357,8.727c-4.8,4.616-9.722,9.1-14.649,13.578q-3.13,2.844-6.275,5.671-3.147-2.823-6.274-5.671c-4.927-4.477-9.852-8.962-14.649-13.578a47.734,47.734,0,0,1-7.357-8.727h11.51A.991.991,0,0,0,92,29.884a.973.973,0,0,0,.247-.11.937.937,0,0,0,.208-.174.962.962,0,0,0,.152-.224l3.8-7.756,11.275,17.738a.974.974,0,0,0,.822.451c.025,0,.051,0,.077,0a.976.976,0,0,0,.817-.583L119,17.064l3.622,12.161a.953.953,0,0,0,.135.28.973.973,0,0,0,.8.416M76.516,25.407c.094.234,1.289-.065,1.389.165.357.822.752,1.62,1.176,2.4H91.126l4.3-8.77a.974.974,0,0,1,1.319-.438.957.957,0,0,1,.377.344L108.34,36.764l9.932-22.928a.992.992,0,0,1,.158-.25.972.972,0,0,1,.794-.334.966.966,0,0,1,.289.062.983.983,0,0,1,.257.147.971.971,0,0,1,.328.484l4.179,14.028h13.65c.424-.781.818-1.58,1.175-2.4.1-.24,1.911.218,2.01-.025.319-.791.021-1.579.275-2.411.061-.2-1-1.127-.941-1.331a30.027,30.027,0,0,0,.678-3.018c2.824-16.519-17.845-24.718-27.679-13.869a30.7,30.7,0,0,0-4.942,7.374,30.671,30.671,0,0,0-4.941-7.374c-9.834-10.849-30.5-2.65-27.679,13.869a29.851,29.851,0,0,0,.678,3.018c.049.175-1.182,1.4-1.13,1.576.263.874.748,1.2,1.084,2.027m67.5,28.94-.127.05a37.923,37.923,0,0,0,2.5,8.514,1.813,1.813,0,0,1,.145.58,1.72,1.72,0,0,1,0,.3,1.858,1.858,0,0,1-.05.3,1.8,1.8,0,0,1-.1.285,1.776,1.776,0,0,1-.143.264,1.717,1.717,0,0,1-.184.237,1.789,1.789,0,0,1-.22.2,1.912,1.912,0,0,1-.3.287c-2.562,1.921-5.646,2.8-8.7,3.6a1.687,1.687,0,0,1-.189.03,1.845,1.845,0,0,1-.637.363,1.728,1.728,0,0,1-2.1-1.189c-.105-.346-.219-.689-.344-1.027-.058-.157-.119-.313-.182-.469-.019-.041-.108-.251-.121-.282a2.291,2.291,0,0,1-.146-.453,8.666,8.666,0,0,1-5.552-1.514c-1.853-1.288-2.738-3.138-3.709-5.108a1.464,1.464,0,0,1-.156-.738,1.417,1.417,0,0,1-.267-.579c-.752-3.33-1.469-6.909-.143-10.194.994-2.463,3.064-5.377,5.785-6a1.487,1.487,0,0,1,1.848,1.408c.472,4.2,5.036,3.159,7.679,5.254a10.039,10.039,0,0,1,2.967,4.186,1.908,1.908,0,0,1,.877-.173,16.218,16.218,0,0,0,.318-1.731,3.974,3.974,0,0,1,.949-2.131,2.072,2.072,0,0,1,1.483-.693,2.042,2.042,0,0,1,.557.058,1.675,1.675,0,0,1,.824.524,1.686,1.686,0,0,1,.395.893h0a3.768,3.768,0,0,1-.534,3.644,1.8,1.8,0,0,1-.506.387,3.152,3.152,0,0,0-.483.252.555.555,0,0,1-.3.129.6.6,0,0,1-.088.1.545.545,0,0,1-.248.13Zm.3-4.3.348,2.231a2.864,2.864,0,0,0,.561.117.567.567,0,0,1,.317.129.839.839,0,0,0,.134-.1,1.738,1.738,0,0,0,.4-.707c.054-.165.1-.334.139-.5a4.2,4.2,0,0,0,.086-.453,1.2,1.2,0,0,0,0-.454,1.17,1.17,0,0,0-.17-.421.359.359,0,0,1-.033-.09.432.432,0,0,1-.088-.268.541.541,0,0,0-.014-.106.46.46,0,0,1-.463,0,.713.713,0,0,0-.213-.088.692.692,0,0,0-.23-.015.679.679,0,0,0-.222.059.706.706,0,0,0-.193.128,1.3,1.3,0,0,0-.357.542m-40.466,70.933c-.035-.146-.074-.289-.109-.435a9.056,9.056,0,0,0-.325-1.294c-1.075-4.285-2.266-8.536-3.465-12.788-.3-3.423.077-6.86-.313-10.274a34.694,34.694,0,0,1-.149-5.154,6.666,6.666,0,0,0-.215-2.318,20.746,20.746,0,0,1-.8-1.979,1.13,1.13,0,0,0-.255-.911,19.485,19.485,0,0,1-2.055-2.318,6.258,6.258,0,0,1-.767-2.665,8.993,8.993,0,0,1,.4-3.149,12.149,12.149,0,0,1,.51-1.4,2.5,2.5,0,0,0,.393-1.634,5.721,5.721,0,0,0-1.719-2.287,11.711,11.711,0,0,0-2.444-1.741A23.724,23.724,0,0,0,86.17,68.5a.977.977,0,0,0-.427,0c-.41,1.48-2.024,2.34-3.382,2.785a9.16,9.16,0,0,1-4.276.285,10.107,10.107,0,0,1-5.309-2.009.614.614,0,0,1-.212-.283.455.455,0,0,1-.174-.217h0a1.27,1.27,0,0,0-.247.238l-.234.031a.984.984,0,0,0-.285.138,1.34,1.34,0,0,1-.242.137c-.117.042-.235.083-.35.13a3.452,3.452,0,0,0-.458.208,2.136,2.136,0,0,0-.225.157,25.792,25.792,0,0,0-7.436,4.254A10.122,10.122,0,0,0,60.6,76.827a11.8,11.8,0,0,0-2.141,4.642,17.343,17.343,0,0,0-.445,3.055c-.119,1.215-.179,2.437-.238,3.667l-.358,7.481a.794.794,0,0,0,.136.495,1.569,1.569,0,0,0-.229.822,1.56,1.56,0,0,0,.237.821c2.164,3.787,4.425,7.544,6.934,11.115,2.424,3.451,5.6,5.987,8.531,8.966,2.734,2.778,6.707,2.438,10.308,2.182,2.221-.157,4.437-.391,6.654-.591a9.961,9.961,0,0,1,3.455-.1c1.392.419,1.311,1.781,1.685,2.953a1.63,1.63,0,0,0,.1.26,1.664,1.664,0,0,0,.143.239,1.592,1.592,0,0,0,.182.211,1.648,1.648,0,0,0,.215.178,1.6,1.6,0,0,0,.242.139,1.673,1.673,0,0,0,.262.1,1.622,1.622,0,0,0,.274.05,1.572,1.572,0,0,0,.278,0,1.1,1.1,0,0,0,.105.138,1.989,1.989,0,0,1,.717-.245l.048-.011.057-.01.014,0c1.131-.378,2.324-.483,3.477-.761a.371.371,0,0,1,.21-.171c.84-.3,1.661-.64,2.508-.9-.028-.079-.06-.16-.09-.239a1.017,1.017,0,0,0-.023-.331m11.035-36.07a.393.393,0,0,0-.059-.02.466.466,0,0,0-.213-.279c-.082-.05-.153-.1-.22-.144q-1.794-2.3-3.679-4.534c-.536-.634-1.075-1.269-1.646-1.872a4.619,4.619,0,0,1-.951-.444,11.235,11.235,0,0,0-1.143-.5,25.95,25.95,0,0,0-2.689-.812,12.52,12.52,0,0,0-2.362-.422c-.017,0-.032,0-.05-.006l.067.034c-.127.011-.252.026-.377.039-.317.034-.634.072-.946.113-.653.088-1.3.193-1.948.322a2.573,2.573,0,0,0-1.511.664.476.476,0,0,0-.068.087.492.492,0,0,0-.046.1.509.509,0,0,0-.024.108.523.523,0,0,0,0,.111.488.488,0,0,0,.026.107.478.478,0,0,0,.05.1.512.512,0,0,0,.158.152,2.226,2.226,0,0,0,.9.216c-.089.057-.178.114-.262.178a4.015,4.015,0,0,0-.691.651.7.7,0,0,0-.13.172.706.706,0,0,0-.08.418.717.717,0,0,0,.058.208.534.534,0,0,0,.333.275c-.026.084-.051.168-.079.252a.961.961,0,0,1-.058.1.91.91,0,0,1-.112.114.477.477,0,0,0-.128.22.472.472,0,0,0,0,.254.494.494,0,0,0,.34.34,3.846,3.846,0,0,0,.419.1.624.624,0,0,0,.423.137,4.285,4.285,0,0,0,.649-.088c.364-.013.725-.13,1.09-.175a7.548,7.548,0,0,1,1.359-.038,7.084,7.084,0,0,1,1.143.166l0,0,.029.013a4.64,4.64,0,0,1,.451.267l.072.061c.064.056.124.114.183.175s.1.113.151.17l.068.1c.034.052.061.108.09.162.009.049.019.1.03.145-.374-.038-.75-.068-1.127-.074-.11,0-.22,0-.33,0a8.019,8.019,0,0,0-2.607.447.763.763,0,0,0-.251.132.751.751,0,0,0-.259.767.778.778,0,0,0,.546.52.808.808,0,0,0,.376.077.677.677,0,0,0,.33.047c.307-.027.63-.072.957-.112a6.271,6.271,0,0,1,1.921-.029,3.66,3.66,0,0,1,2.021,1.292c.584.674.883,1.509,1.67,2a4.528,4.528,0,0,0,2.338.576,16.412,16.412,0,0,0,1.517,1.548.534.534,0,0,0,.245.124.522.522,0,0,0,.274-.014.5.5,0,0,0,.5-.229,13.474,13.474,0,0,1,1.622-2.035q.451-.465.94-.885a3.307,3.307,0,0,0,.861-.975.5.5,0,0,0,.058-.18.49.49,0,0,0-.012-.188.5.5,0,0,0-.221-.3" transform="translate(-48.674 0)" fill="#ff889c"/>
    </g>
  </g>
  <g id="Grupo_1116293" data-name="Grupo 1116293" transform="translate(0 21.635)">
    <g id="Grupo_1116292" data-name="Grupo 1116292" clip-path="url(#clip-path-2)">
      <path id="Trazado_957576" data-name="Trazado 957576" d="M90.25,229.489q-.226,4.611-.142,9.229a.484.484,0,0,1-.039.186.469.469,0,0,1-.105.156.492.492,0,0,1-.342.145q-1.809.013-3.612.162a.493.493,0,0,1-.387-.78c0-.355,0-.708,0-1.062a44.813,44.813,0,0,1-.2-5.647.076.076,0,0,1,0-.013.455.455,0,0,1,.026-.152.465.465,0,0,1,.072-.135.5.5,0,0,1,.112-.105.485.485,0,0,1,.14-.064,6.982,6.982,0,0,0,1.347-.39,8.024,8.024,0,0,0,1.3-.807c.3-.233.58-.483.859-.738a.485.485,0,0,1,.321-.424.493.493,0,0,1,.185-.028.245.245,0,0,1,.117-.034.238.238,0,0,1,.119.026.241.241,0,0,1,.094.078.253.253,0,0,1,.046.113.412.412,0,0,1,.088.286M27.671,175.033c0-.006,0-.013,0-.019.005-.055.008-.11.009-.165a4.217,4.217,0,0,0-1.812-4.156,3.022,3.022,0,0,0-1.895-.3,3.03,3.03,0,0,0-.626.176c-.676.244-1.482.606-1.713,1.345a2.575,2.575,0,0,0-.37.921.949.949,0,0,0-.131.273,2.451,2.451,0,0,0-.015.854c0,.053.017.105.023.158a1.988,1.988,0,0,0,.075.6v0a3.487,3.487,0,0,0,.717,2,.3.3,0,0,0,.038.081,1.252,1.252,0,0,0,.676.412.716.716,0,0,0,.5-.046.482.482,0,0,0,.27-.351.26.26,0,0,0-.024-.188.214.214,0,0,0-.041-.046.468.468,0,0,0-.123-.258c-.046-.047-.09-.1-.133-.145l-.017-.022c-.014-.018-.027-.037-.039-.055a2.736,2.736,0,0,1-.189-.317c-.023-.044-.043-.089-.064-.134l-.009-.02c-.012-.031-.024-.062-.035-.093q-.059-.163-.1-.33a4.6,4.6,0,0,1-.1-.527c.012-.814.05-1.884.839-2.341a2.109,2.109,0,0,1,1.263-.192,1.1,1.1,0,0,1,.921.548,1.065,1.065,0,0,1,.058.16c0,.014-.009.136-.008.142s0,.02-.005.03c-.017.03-.032.061-.05.09s-.037.057-.057.084l-.005.008-.013.014a2.453,2.453,0,0,1-.343.314,1.913,1.913,0,0,0-.238.225,2.338,2.338,0,0,0-.562.586,1.643,1.643,0,0,0-.214,1.246.782.782,0,0,0,.123.529.756.756,0,0,0,.259.247.458.458,0,0,0,.278.244,1.351,1.351,0,0,0,.461.071,2.335,2.335,0,0,0,.457-.016,2.288,2.288,0,0,0,1.929-1.079.458.458,0,0,0,.023-.408c.01-.053.014-.105.019-.157ZM92.2,144.457a29.114,29.114,0,0,1-1.344,3.767q.967.632,1.906,1.3t1.851,1.382q.912.71,1.792,1.457t1.73,1.531q.849.783,1.666,1.6t1.6,1.668q.782.85,1.528,1.733t1.454,1.794q.709.912,1.379,1.853t1.3,1.908q.631.967,1.222,1.961t1.138,2.009q.548,1.016,1.055,2.055t.969,2.1q.463,1.058.881,2.135t.792,2.17q.374,1.092.7,2.2t.61,2.228q.283,1.119.518,2.251t.424,2.27q.189,1.14.33,2.286t.235,2.3q.093,1.152.139,2.306t.044,2.309q0,1.155-.052,2.309t-.147,2.3q-.1,1.151-.242,2.3t-.337,2.285q-.192,1.139-.431,2.269t-.525,2.249q-.285,1.119-.617,2.225t-.709,2.2q-.216.625-.447,1.242-.79,2.107-1.746,4.145t-2.072,3.991q-1.116,1.954-2.384,3.812t-2.682,3.61q-1.413,1.751-2.962,3.384t-3.223,3.136q-1.675,1.5-3.464,2.868t-3.682,2.582c-.086.055-.937-1.558-1.024-1.5s-.812-.048-.888,0a13.352,13.352,0,0,1-1.965,1.027c-.094.05-.533.42-.627.469-.064.033-.336,2.789-.4,2.822a55.371,55.371,0,0,1-7.346,3.1c-.16.054-.322.1-.483.157a55.644,55.644,0,0,1-17.4,2.778c-.855,0-1.706-.022-2.552-.061l-.508-.024a55.969,55.969,0,0,1-6.22-.69c-.175-.03-.653-1.2-.827-1.228-7.581-1.347-12.9-3.062-19.095-7.144-.255-.168-1.95-.367-2.2-.539a56.107,56.107,0,0,1-6.8-5.459c-.157-.148-.315-.295-.469-.444A56.1,56.1,0,0,1,9.514,218.268q-.235-.508-.459-1.022-.491-1.121-.93-2.263t-.829-2.3q-.389-1.159-.727-2.336t-.625-2.366q-.285-1.19-.52-2.391t-.415-2.411q-.182-1.21-.309-2.427t-.2-2.438q-.074-1.222-.1-2.445t.013-2.447q.033-1.223.12-2.443t.226-2.436q.139-1.215.333-2.424t.44-2.407q.245-1.2.544-2.385t.649-2.359q.349-1.172.751-2.329t.852-2.293q.452-1.137.952-2.254t1.05-2.21q.548-1.093,1.146-2.161t1.24-2.11q.643-1.04,1.331-2.053t1.419-1.993q.732-.981,1.505-1.928t1.589-1.861q.815-.913,1.669-1.789t1.745-1.715q.892-.838,1.819-1.637t1.889-1.555q.961-.757,1.955-1.471t2.018-1.384a29.1,29.1,0,0,1-1.344-3.767,59.754,59.754,0,1,0,63.884,0m-8.144,62.774a25.843,25.843,0,0,0,.531,5.759c.053.258.391.2.46,0a.21.21,0,0,0,.021-.024c.074-.127.152-.251.228-.377q1.553-2.146,3.248-4.183a.268.268,0,0,0,.051-.1.251.251,0,0,0,0-.113.258.258,0,0,0-.046-.1.245.245,0,0,0-.087-.073.736.736,0,0,0,.112-.355,21.8,21.8,0,0,1,1.486-6.027c.473-1.329.935-2.681,1.491-3.987a10.026,10.026,0,0,0,.772-1.223c.326-.6.627-1.211.973-1.8.115-.18.232-.359.347-.539.066-.1.127-.2.2-.29,0-.005,0-.013.007-.018.585-.749,1.167-1.5,1.756-2.247.357-.312.7-.635,1.048-.962.024-.014.045-.033.07-.047a.443.443,0,0,0,.177-.19q.506-.49,1-.994a.393.393,0,0,0,.066-.025,7.525,7.525,0,0,0,1.2-1.041,1.249,1.249,0,0,0,.462-.8,3.205,3.205,0,0,0-.076-.482c-.024-.137-.048-.274-.072-.41a.43.43,0,0,0-.1-.189.436.436,0,0,0-.177-.12.509.509,0,0,0-.33-.138h-.012a.4.4,0,0,0-.349.132,28.1,28.1,0,0,1-2.645,1.134c-.428.157-.857.306-1.285.458a.368.368,0,0,0-.236,0c-.353.143-.7.3-1.038.473a6.5,6.5,0,0,0-.863.318l-1.16.494-1.518.645c-1.294.479-2.592.947-3.9,1.384a.451.451,0,0,0-.244.191.445.445,0,0,0-.174.057.488.488,0,0,0-.16.165.2.2,0,0,0-.083.054.231.231,0,0,0-.052.079.245.245,0,0,0,0,.186.231.231,0,0,0,.052.079l.053.048a.43.43,0,0,0,.118.178.423.423,0,0,0,.188.1h0l.312.283a4.866,4.866,0,0,0,.491.418l0,0a29.581,29.581,0,0,0-1.622,5.292.81.81,0,0,0-.022.182c-.006.018-.014.034-.02.053a22.854,22.854,0,0,0-.594,4.635c-.068.529-.119,1.061-.145,1.593q-.034.71-.016,1.422a3.906,3.906,0,0,0,.107,1.039m-29.867-3.271a7.1,7.1,0,0,0-1.143-.166,7.561,7.561,0,0,0-1.359.038c-.366.046-.726.163-1.09.175a4.285,4.285,0,0,1-.649.088.624.624,0,0,1-.423-.137,4.02,4.02,0,0,1-.419-.1.482.482,0,0,1-.214-.126.491.491,0,0,1-.126-.214.479.479,0,0,1,.126-.474.964.964,0,0,0,.112-.114.942.942,0,0,0,.058-.1c.028-.083.053-.168.079-.252a.533.533,0,0,1-.333-.275.721.721,0,0,1-.057-.208.7.7,0,0,1,.008-.215.686.686,0,0,1,.072-.2.7.7,0,0,1,.13-.172,3.99,3.99,0,0,1,.691-.651c.084-.064.173-.121.262-.178a2.226,2.226,0,0,1-.9-.216.511.511,0,0,1-.158-.153.485.485,0,0,1-.05-.1.56.56,0,0,1-.027-.107.514.514,0,0,1,0-.111.505.505,0,0,1,.024-.108.449.449,0,0,1,.046-.1.481.481,0,0,1,.068-.087,2.572,2.572,0,0,1,1.51-.664c.646-.128,1.3-.234,1.949-.322.312-.042.628-.08.946-.113a.775.775,0,0,0-.064-.266c-.173-.087-.349-.169-.524-.251a.131.131,0,0,0,0-.072c-.046-.205-.295-.312-.465-.4a4.6,4.6,0,0,0-.653-.264c-.219-.071-.443-.13-.667-.185a.771.771,0,0,0-.616-.014.124.124,0,0,0-.05.056,3.648,3.648,0,0,0-2.161.753c-1.314.928-1.87,2.862-2.038,4.383a6.868,6.868,0,0,0-.032,1.252,6.881,6.881,0,0,0,1.237,3.5,3.213,3.213,0,0,0,4.229,1.1,4.954,4.954,0,0,0,1.382-1.346c-.327.041-.65.085-.957.112a.676.676,0,0,1-.33-.047.807.807,0,0,1-.377-.077.779.779,0,0,1-.546-.52.744.744,0,0,1,.075-.551.735.735,0,0,1,.184-.215.754.754,0,0,1,.25-.132,8.028,8.028,0,0,1,2.607-.447A7.452,7.452,0,0,0,54,204.23a1.518,1.518,0,0,0,.193-.267Z" transform="translate(-0.425 -144.286)" fill="#cc2f60"/>
    </g>
  </g>
  <g id="Grupo_1116295" data-name="Grupo 1116295">
    <g id="Grupo_1116294" data-name="Grupo 1116294" clip-path="url(#clip-path)">
      <path id="Trazado_957577" data-name="Trazado 957577" d="M73.919,227.675a.244.244,0,0,1,.358.275.237.237,0,0,1-.112.145l-.918.414a.243.243,0,0,1-.245-.42Zm59.937.661a1.743,1.743,0,0,0-.043-1,.262.262,0,0,0-.229-.164c-.91-.068-.184,2.19.272,1.167m27.311,38.05q-.216.625-.447,1.242c-.064-2.094-.137-4.189-.256-6.282-.25-4.381-.756-8.837-2.9-12.751a14.92,14.92,0,0,0-3.8-4.575c-.054-.042-.11-.08-.164-.122a5.507,5.507,0,0,0-3.3,1.271,18.488,18.488,0,0,0-2.924,2.723q-.655.731-1.263,1.5-.314.394-.616.8a1.836,1.836,0,0,1-.363.449,4.237,4.237,0,0,1-.59.269l-1.1.5-1.162.529,1.216.631a.246.246,0,0,1,.116.179.246.246,0,0,1-.01.109.243.243,0,0,1-.057.094q-1.439,1.822-2.852,3.661c-3.618,4.7-7.186,9.435-10.651,14.246l2.354,1.67c.253.179.01.6-.246.42l-2.086-1.48-6.5-4.61a20.418,20.418,0,0,1-2.465,2.4,17.256,17.256,0,0,1-6.366,3.291q.861.81,1.72,1.621c1.889,1.785,3.755,3.6,5.671,5.359,1.309,1.2,2.658,2.37,4.065,3.456a8.7,8.7,0,0,0,2.143,1.283,8.42,8.42,0,0,0,3.806.562,9.04,9.04,0,0,0,5.531-2.829c.141-.137.277-.278.413-.419a.129.129,0,0,1,.015-.015,40.419,40.419,0,0,0,3.655-4.59c1.458-2.029,2.983-4.009,4.468-6.019,1.688-2.285,3.368-4.575,5.1-6.829.188-.245.611,0,.42.246q-.684.89-1.36,1.789c-1.7,2.262-3.367,4.551-5.059,6.821-.776,1.041-1.572,2.066-2.336,3.115-.626.858-1.236,1.727-1.869,2.58a32.758,32.758,0,0,1-2.611,3.175q.011,1.535.01,3.072c0,3.408-.023,6.815-.011,10.223-.162.1-.326.2-.489.307q-1.92,1.207-3.94,2.26c-.094.049-.188.1-.282.146l-.193.1c-.01-.325-.023-.649-.032-.973-.112-3.942-.178-7.885-.328-11.826a8.944,8.944,0,0,1-6.218-1,10.92,10.92,0,0,1-1.089-.767c.042,1.021.072,2.043.1,3.064.073,2.933.12,5.868.16,8.8q.04,2.895.064,5.791c-.16.054-.322.1-.483.157q-.009-1.128-.021-2.256-.048-4.4-.126-8.8c-.044-2.385-.081-4.772-.191-7.155l-.219-.176c-1.314-1.061-2.608-2.162-3.831-3.328-2.016-1.925-4.052-3.831-6.076-5.748-.373-.352-.742-.708-1.114-1.061a15.93,15.93,0,0,1-2.245.366,12.9,12.9,0,0,1-9.406-2.823,13.029,13.029,0,0,1-3.013-3.62q.039,1.2.079,2.4.214,6.541.427,13.083.656,2.329,1.29,4.663,2.331,8.565,4.491,17.174c-.17-.008-.339-.015-.508-.024q-.548-2.165-1.1-4.33-.217-.843-.436-1.685a26.84,26.84,0,0,1-5.689,1.452c.333,1.293.666,2.585,1.009,3.874-.175-.03-.351-.057-.526-.088a55.528,55.528,0,0,1-20.836-8.314c-.255-.168-.51-.337-.763-.509q.939.028,1.877.045,4.706.082,9.416-.068a61.336,61.336,0,0,0,7.9-.61q-.06-3.232-.134-6.465-.134-5.949-.282-11.9-.142-5.921-.259-11.842a.241.241,0,0,1,.074-.168.248.248,0,0,1,.169-.068.242.242,0,0,1,.091.018.235.235,0,0,1,.079.05.257.257,0,0,1,.053.076.246.246,0,0,1,.021.091q.062,3.335.138,6.671.133,5.949.282,11.9.14,5.9.258,11.808c.446,1.674.879,3.352,1.311,5.031a26.374,26.374,0,0,0,5.689-1.457c-1.316-5.087-2.662-10.166-4.088-15.223a.224.224,0,0,1,0-.04c0-.008,0-.016-.006-.024q-.061-1.883-.123-3.766-.208-6.375-.416-12.749a16.638,16.638,0,0,1-1.211-3.52c-2.208-.262-3.947-2.829-3.947-5.95a6.383,6.383,0,0,1,2.567-5.458,11.783,11.783,0,0,0-1.857-2.371c-2.37-2.293-5.66-2.965-8.773-3.648a5.791,5.791,0,0,1-2.2,2.165,9.323,9.323,0,0,1-5.98.789,11.976,11.976,0,0,1-5.467-2.3,53.194,53.194,0,0,0-7.006,3.5,16.2,16.2,0,0,0-5.164,5.007,15.724,15.724,0,0,0-2.03,7.33c-.166,2.429-.173,4.874-.24,7.307-.028,1.007-.049,2.014-.074,3.021q-.236-.508-.46-1.022c.027-1.02.048-2.04.077-3.06.071-2.5.045-5.029.322-7.52a14.569,14.569,0,0,1,2.558-7.147c2.915-3.969,7.485-5.924,11.845-7.868a22.5,22.5,0,0,0,.652-2.695,35.534,35.534,0,0,0,.509-5.046,4.017,4.017,0,0,1-3.268-1.5c-.169-.174-.393-.378-.329-.648.061-.249.341-.359.548-.467a5.484,5.484,0,0,0,1.07-.618,5.109,5.109,0,0,1-1.62-.454.243.243,0,0,1-.079-.076.238.238,0,0,1-.038-.1.232.232,0,0,1,.011-.109.236.236,0,0,1,.057-.094c.649-.613,1.456-1.387,1.243-2.373a1.591,1.591,0,0,1-.421-.169,2.251,2.251,0,0,1-.934-1.225,5.25,5.25,0,0,1-.094-3.679,3.994,3.994,0,0,1,.9-1.354.23.23,0,0,1-.033-.12,18.78,18.78,0,0,1,.573-5c1.263-4.405,5.927-7.417,10.41-7.464A7.882,7.882,0,0,1,83.773,211a10.372,10.372,0,0,1,8.26,3.67,11.658,11.658,0,0,1,2.649,4.237,2.939,2.939,0,0,0,1.059,1.9,3.088,3.088,0,0,0,1.868.366.243.243,0,0,1,.108.025.24.24,0,0,1,.086.071.249.249,0,0,1,.046.1.239.239,0,0,1,0,.111,5.156,5.156,0,0,1-3.075,2.648,6.111,6.111,0,0,1-1.524.352c.037,1.512-.039,3.026-.085,4.537-.042,1.395-.056,2.794-.159,4.186a11.3,11.3,0,0,1-1.745,5.957A6.944,6.944,0,0,1,86.8,241.7c-.358.066-.722.112-1.085.146a12.828,12.828,0,0,0,.081,1.422c.027.312.059.623.092.934.957.211,1.914.419,2.862.667a15.657,15.657,0,0,1,4.535,1.834,11.425,11.425,0,0,1,3.561,3.765,3.2,3.2,0,0,1,1.26-.285,4.122,4.122,0,0,1,2.58.738,7.336,7.336,0,0,1,.9.771,10.2,10.2,0,0,1,1.653.088,18.412,18.412,0,0,1,4.9,1.509,9.749,9.749,0,0,1,2.982,2.823c1.293,1.594,2.6,3.172,3.977,4.7.057-.061.112-.123.169-.182l.079-.055.009-.006a.181.181,0,0,1,.207.023l2.086,1.48,5.43,3.852a26.707,26.707,0,0,0,1.8-2.4c.023-.935.061-1.868.13-2.8a34.518,34.518,0,0,1,.866-5.845,13.6,13.6,0,0,1,1.412-3.682A9.028,9.028,0,0,1,129,249.115l0,0a.216.216,0,0,1,.108-.1c.215-.191.438-.372.667-.546a17.624,17.624,0,0,1-.883-2.428,18.621,18.621,0,0,1-.684-4.67.455.455,0,0,1,.051-.236,7.872,7.872,0,0,1-2.708-2.183,10.966,10.966,0,0,1-1.652-2.942,4.412,4.412,0,0,1-1.366,1.2,4.4,4.4,0,0,1-1.734.541c-.224.017-.3-.272-.172-.416a5.048,5.048,0,0,0,.816-1.223c1.983-4.152-1.337-8.3-1.54-12.444a9.931,9.931,0,0,1,.026-1.2,9.993,9.993,0,0,1,.482-2.355,10.024,10.024,0,0,1,1.027-2.174,9.814,9.814,0,0,1,.7-.979,10,10,0,0,1,1.727-1.673,17,17,0,0,1,9.081-3.137,16.453,16.453,0,0,1,5.889.477c.877-2,2.234-4.055,4.292-4.968a6.42,6.42,0,0,1,4.227-.276,6.348,6.348,0,0,1,1.332.538,7.1,7.1,0,0,1,3.274,4.887c.287,1.28.4,2.589.6,3.882a29.294,29.294,0,0,0,.9,3.943c.576,1.912,1.414,4.524,3.62,5.061.258.062.2.385,0,.469a8.536,8.536,0,0,1-3.766.634,8.662,8.662,0,0,1-3.283-.832,7.788,7.788,0,0,1-2.341-1.778,12.61,12.61,0,0,1-1.473-1.925,15.669,15.669,0,0,1,.05,1.863,3.292,3.292,0,0,1,.983,3.384,4.16,4.16,0,0,1-1.555,2.24,30.509,30.509,0,0,1-.6,4.988,34.8,34.8,0,0,0,1.656,4.515l.553-.215a.255.255,0,0,1,.094-.006.247.247,0,0,1,.205.176l.429,1.513a16.213,16.213,0,0,1,6.547,3.357c3.151,2.739,4.853,6.7,5.652,10.727a51.98,51.98,0,0,1,.767,7.5c.068,1.361.119,2.722.164,4.083m-91.558-38.51c.083-.014.167-.032.249-.051a4.425,4.425,0,0,0,.508-.154.168.168,0,0,1,.068-.007,2.457,2.457,0,0,1,.412-1.705,2.151,2.151,0,0,1,.28-.313,2.076,2.076,0,0,1,.335-.252,2.113,2.113,0,0,1,.786-.283,2.081,2.081,0,0,1,.419-.02,2.059,2.059,0,0,1,.415.063,2.112,2.112,0,0,1,.752.362.184.184,0,0,1,.08.173,1.061,1.061,0,0,1-.148.994,4.055,4.055,0,0,1-.927.653,1.144,1.144,0,0,0-.227.212,1.175,1.175,0,0,0-.163.264,1.157,1.157,0,0,0-.09.3,1.176,1.176,0,0,0-.009.311,1.474,1.474,0,0,0,.454,1.042,1.839,1.839,0,0,0,1.7.066,1.622,1.622,0,0,0,1.05-1.054,1.589,1.589,0,0,0,.075-.508,5.134,5.134,0,0,0-.5-2.723,2.961,2.961,0,0,0-5.476.752,4.1,4.1,0,0,0-.123,1.893l.079-.013m1.789,2.309-.019-.027a5.771,5.771,0,0,1-.876-2.023l-.008,0a4.4,4.4,0,0,1-.88.224c.035.159.072.316.116.47a2.15,2.15,0,0,0,.638,1.145,1.048,1.048,0,0,0,1.028.207m14.021,14.161q-.059-.538-.106-1.077a13.627,13.627,0,0,1-.083-1.385,13.031,13.031,0,0,1-4-.41,8.519,8.519,0,0,1-4.4-2.52c-.2-.238.141-.584.344-.344a8.513,8.513,0,0,0,4.907,2.561,11.924,11.924,0,0,0,5.28-.092,6.026,6.026,0,0,0,4-3.018,14.038,14.038,0,0,0,1.211-5.942c.055-1.3.082-2.592.121-3.888.037-1.244.09-2.488.062-3.733a4.177,4.177,0,0,1-1.745-.345,2.356,2.356,0,0,1-1.218-1.08c-.093-.2-.086-.429-.337-.475a4.29,4.29,0,0,0-.46,0,3.733,3.733,0,0,1-2.651-1.366,8,8,0,0,1-.73-1.413c-.237-.487-.554-1.03-1.147-1.1a1.57,1.57,0,0,0-1.48,1.215h0c-.035.186-.2.283-.494-.1a.863.863,0,0,0-1.171-.335,1.535,1.535,0,0,0-.581,1.175c-.094.941-.054,1.878-.22,2.815a5.864,5.864,0,0,1-2.635,4.19.245.245,0,0,1-.268-.02.245.245,0,0,1-.089-.254,5.474,5.474,0,0,0,.225-1.8,4.787,4.787,0,0,1-1.553,1.557.239.239,0,0,1-.1.037,5.018,5.018,0,0,1-.025,1.16,2.092,2.092,0,0,1-1.507,1.657,2.265,2.265,0,0,1-2.035-.156A2,2,0,0,1,72,227.608a1.857,1.857,0,0,1,.881-.862c.407-.23.677-.445.561-.915a1.548,1.548,0,0,0-.808-.267,1.543,1.543,0,0,0-.828.2,1.748,1.748,0,0,0-.876,1.766,4.92,4.92,0,0,0,2.474,3.855.2.2,0,0,1,.116.189c0,.008,0,.013.005.02.056.985.094,1.971.106,2.958a33.843,33.843,0,0,1-1.181,10.41,10.3,10.3,0,0,0,2.635,1.482c3.348,1.309,8.326,1.5,10.331-2.1m48.3,40.7q.053,1.415.093,2.83.064,2.235.115,4.469,2.044-.011,4.082-.158c.006-3.281.028-6.563.01-9.844a15.038,15.038,0,0,1-1.3,1.133,9.2,9.2,0,0,1-2.587,1.442c-.135.047-.272.089-.41.128M102.9,252.225a11.724,11.724,0,0,0-3.266.153q-.788.136-1.567.32c-.237.055-.92.182-.953.5-.017.167.255.332.373.394a1.932,1.932,0,0,0,1.024.175,11.208,11.208,0,0,1,1.884-.365,10.571,10.571,0,0,1,5.748.9c.3.141,0,.554-.29.435a10.98,10.98,0,0,0-5.915-.789,12.146,12.146,0,0,0-1.377.321,3.542,3.542,0,0,0-1.045.41c-.388.262-.629.871.013.937.02-.009.041-.019.061-.027,2.105-.8,4.047-1.089,7.619.561a.233.233,0,0,1,.079.044.23.23,0,0,1,.054.072.221.221,0,0,1,.022.087.215.215,0,0,1-.014.089.23.23,0,0,1-.123.126.223.223,0,0,1-.088.017.226.226,0,0,1-.088-.02,12.692,12.692,0,0,0-4.493-1.139,8.354,8.354,0,0,0-1.739.285c-.2.046-.392.107-.586.168-.163.052-.35.1-.517.171a.192.192,0,0,1-.09.045,1,1,0,0,0-.1.055c-.161.109-.4.392-.272.594.081.13.293.172.429.2a3.855,3.855,0,0,0,1.454-.023,6.739,6.739,0,0,1,2.8.066,2.239,2.239,0,0,1,1.625,1.105c.062.157-.092.3-.234.308-.712.04-1.425-.016-2.137.014a3.294,3.294,0,0,0-2,.545c-.127.109-.316.289-.267.474.061.229.459.327.652.376a4.031,4.031,0,0,0,1.346.046,4.787,4.787,0,0,1,2.741.237,3.916,3.916,0,0,1,1.366,1.124,13.708,13.708,0,0,0,1.175,1.438,5.943,5.943,0,0,0,2.9,1.152c.006,0,.01.006.016.007l0,0a.223.223,0,0,1,.1.061l.23.213,1.5,1.388q1.857-2.208,3.829-4.315c-1.409-1.566-2.753-3.186-4.079-4.823-.284-.35-.565-.7-.849-1.055a5.17,5.17,0,0,0-1.837-1.45,15.513,15.513,0,0,0-5.109-1.617m-6.234,2.8a1.455,1.455,0,0,1,.843-.894,1.464,1.464,0,0,1-.6-.352,3.835,3.835,0,0,0-.744,2.376c0,1.691.9,3.065,2.006,3.065a1.2,1.2,0,0,0,.281-.035,1.715,1.715,0,0,1,1-.931,3.97,3.97,0,0,1,.925-.254c.024-.233.044-.466.052-.7-.031,0-.061,0-.092,0-1.009.021-2.1.44-3.082.027a.75.75,0,0,1-.508-.806.987.987,0,0,1,.285-.569.761.761,0,0,1-.21-.168.8.8,0,0,1-.14-.229.78.78,0,0,1-.014-.53m4.929,2.9c.008-.038.016-.076.023-.115a2.635,2.635,0,0,0,.018-.377,5.25,5.25,0,0,0-.723-.112c-.008.209-.027.418-.046.625.241-.017.485-.021.729-.021m1.27.012a2.24,2.24,0,0,0-.748-.375,2.884,2.884,0,0,1-.032.367c.261,0,.522.01.78.008m-4.7,3.708a3.22,3.22,0,0,0,2.446-1.271l-.125.006c-.616.023-1.693-.045-2-.71a1.512,1.512,0,0,1-.326.038c-1.375,0-2.493-1.593-2.493-3.552a4.2,4.2,0,0,1,.976-2.8c-.1-.429.305-.781.709-.949a7.352,7.352,0,0,1,1.327-.338c.494-.1.991-.192,1.491-.259.2-.027.4-.048.6-.066-1.575-1.288-2.6-1.072-2.613-1.072-2.113,0-3.832,2.462-3.832,5.488s1.719,5.488,3.832,5.488m15.175,10.243c-.586-.558-1.174-1.113-1.756-1.674-.789-.762-1.6-1.517-2.341-2.322a.227.227,0,0,1-.05-.24c0-.007,0-.013.006-.02a2.823,2.823,0,0,0,.045-.085q.683-.852,1.384-1.69l-.078-.072-1.638-1.513a6.578,6.578,0,0,1-2.9-1.124,8.608,8.608,0,0,1-1.2-1.414,3.848,3.848,0,0,0-1.4-1.212,3.715,3.715,0,0,0-2.152-.2,4.07,4.07,0,0,1-2.474,1.75c.064.274.132.547.211.818a13.063,13.063,0,0,0,5.123,7.326,12.324,12.324,0,0,0,9.157,1.691l.067-.014m9.419-5.6-1.734-1.23-5.549-3.937q-3,3.178-5.738,6.583c.067.07.133.141.2.21,1.289,1.314,2.62,2.588,3.959,3.853a16.459,16.459,0,0,0,7.685-4.235c.411-.4.8-.815,1.175-1.243m2.121.91q-.025-.973-.024-1.947-.469.635-.975,1.238Zm19.993-31.51a21.663,21.663,0,0,1-2,5.06l3.423-1.329a38.178,38.178,0,0,1-1.424-3.731m-.183-5.4a3.836,3.836,0,0,1-.51.155c.1.62.209,1.241.331,1.857q.122-1,.179-2.012m1-2.452a1.152,1.152,0,0,0,.165-.273,2.3,2.3,0,0,0,.152-.942c-.011-.553-.194-1.321-.887-1.172a.646.646,0,0,0-.446.337,1.66,1.66,0,0,0-.194.649,2.686,2.686,0,0,0,.032.774,1.589,1.589,0,0,0,.233.616.229.229,0,0,0,.017.023l0,0,.034.037a.475.475,0,0,1,.079-.1.488.488,0,0,1,.1-.079.505.505,0,0,1,.372-.058.512.512,0,0,1,.12.044.5.5,0,0,1,.105.073.468.468,0,0,1,.083.1l.03-.029m-14.679,13.689a10.362,10.362,0,0,0,10.156-4.38c.169-.263.59-.019.421.245a10.405,10.405,0,0,1-5.227,4.067,10.973,10.973,0,0,1-3.008.636,17.044,17.044,0,0,1,.728,2.068l.59-.229,6.767-2.626a21.331,21.331,0,0,0,1.133-2.046,20.941,20.941,0,0,0,1.738-5.592c-.261-1.107-.462-2.227-.642-3.35a.234.234,0,0,1,0-.047.2.2,0,0,1,.026-.165.192.192,0,0,1,.061-.06.2.2,0,0,1,.081-.027,3.616,3.616,0,0,0,.878-.27q.028-.653.033-1.305a1.167,1.167,0,0,1-.5-.513,2.831,2.831,0,0,1-.188-1.88,1.559,1.559,0,0,1,.424-.8,1.192,1.192,0,0,1,.954-.3c.8.1,1.046.977,1.06,1.667a1.993,1.993,0,0,1-.774,1.81c0,.219,0,.439-.01.657a3.5,3.5,0,0,0,1.176-2.551,2.483,2.483,0,0,0-1-2.083.222.222,0,0,1-.046-.029,1.916,1.916,0,0,0-.281-.153,1.494,1.494,0,0,0-1.244-.023,2.428,2.428,0,0,0-.87.833c.006.03.016.058.022.088a11.036,11.036,0,0,1-.211,5.312,9.612,9.612,0,0,1-1.064,2.423,3,3,0,0,1-1.8,1.468.247.247,0,0,1-.185-.025.271.271,0,0,1-.05-.038.262.262,0,0,1-.038-.05.261.261,0,0,1-.034-.122.283.283,0,0,1,.008-.063,8.533,8.533,0,0,0-.168-5.223,7.145,7.145,0,0,0-2.733-3.805c-1.349-.857-3-.741-4.493-1.155a4.915,4.915,0,0,1-2.816-2.059,8.225,8.225,0,0,1-1.144-3.239,9.642,9.642,0,0,0-5.785,8.026,19.692,19.692,0,0,1,.332,2.983,37.18,37.18,0,0,0,.388,3.722,13.876,13.876,0,0,0,.513,2.046.269.269,0,0,1,.015.048,10.23,10.23,0,0,0,1.982,3.535,8.06,8.06,0,0,0,1.022.95,7.969,7.969,0,0,0,1.17.759,8.036,8.036,0,0,0,2.642.862m2.767,7.286a20.991,20.991,0,0,0,2.485-1.717A23.351,23.351,0,0,0,140.993,242l-3.1,1.2-4.5,1.745,1.1,1.1a.2.2,0,0,1,.065.063.192.192,0,0,1,.053.229c-.313.811-.583,1.635-.826,2.469m.174-2.1a19.448,19.448,0,0,0-3.167,1.619,5.992,5.992,0,0,0,1.053,1.478q.678-.3,1.331-.653.341-1.238.783-2.445m-4.148-1a16.654,16.654,0,0,0,.771,2.194,20.688,20.688,0,0,1,3.363-1.711l-1.108-1.108a.213.213,0,0,1-.073-.083.239.239,0,0,1-.046-.16.243.243,0,0,1,.066-.153.208.208,0,0,1,.1-.057l.009-.006.739-.287a15.908,15.908,0,0,0-.741-2.116.32.32,0,0,1-.025-.1,9.956,9.956,0,0,1-3.674-.579,17.566,17.566,0,0,0,.62,4.171m-2.66,9.829q.964-.006,1.924.054,1.11-2.534,2.036-5.137a6.712,6.712,0,0,1-1.117-1.555c-.1.078-.2.154-.3.236s-.194.167-.289.252c-1.1,1.94-2.169,3.888-2.252,6.15m-1.778,7.232c.612-.971,1.176-1.973,1.7-2.987.046-.088.09-.178.135-.266q-.286-.938-.546-1.877a.233.233,0,0,1,.009-.157.236.236,0,0,1,.1-.119c.365-.154.723-.33,1.072-.516a9.879,9.879,0,0,0,.907-.531c.038-.084.074-.168.111-.252q-.982-.054-1.967-.039a.25.25,0,0,1-.171-.072.257.257,0,0,1-.053-.079.237.237,0,0,1-.019-.093,8.936,8.936,0,0,1,.6-3.195c.188-.491.407-.97.642-1.441a8.738,8.738,0,0,0-.462.8,15.659,15.659,0,0,0-1.3,3.98,39.908,39.908,0,0,0-.764,6.848m1.82-5.058c.077.272.157.542.237.813.035.116.072.233.108.349q.43-.857.836-1.729c-.389.215-.792.4-1.181.567m4.006,10.742a.235.235,0,0,1-.056-.046,12.015,12.015,0,0,1-1.469-2.437,42.912,42.912,0,0,1-2.049-5.149c-.127.236-.253.473-.384.707-.583,1.042-1.214,2.07-1.9,3.057,0,.963.01,1.925.037,2.88a.247.247,0,0,1-.013.072l1.329.943,2.957,2.1c.513-.711,1.032-1.417,1.55-2.125m1.274-1.741a31.224,31.224,0,0,1-.591-4.259,40.319,40.319,0,0,1,.294-8.331c.171-1.251.4-2.5.687-3.727q-.414.2-.837.384c-.143.4-.287.8-.437,1.2a73.7,73.7,0,0,1-3.631,8.223c.344,1.054.71,2.1,1.111,3.135.348.9.722,1.783,1.149,2.644a10.888,10.888,0,0,0,1.267,2.083c.265-.361.526-.725.792-1.085.065-.088.131-.175.2-.264Zm3.907-5.237a37.863,37.863,0,0,1,1.037-5.131,31.615,31.615,0,0,1,3.795-8.616,26.943,26.943,0,0,1,6.348-6.907l-.35-1.234-1.558.6-3.153,1.224a23.621,23.621,0,0,1-9.063,8.69c-.033.135-.07.27-.1.4a40.226,40.226,0,0,0-1.047,8.244,33.91,33.91,0,0,0,.576,7.432q1.748-2.363,3.517-4.711m16.6-18.035a16.216,16.216,0,0,0-5.087-2.264,25.721,25.721,0,0,0-3.878,3.617,31.4,31.4,0,0,0-7.027,15.879q2.973-3.935,6.02-7.812l-1.4-.726a.272.272,0,0,1-.05-.039.235.235,0,0,1-.038-.05.219.219,0,0,1-.024-.058.282.282,0,0,1-.008-.063.277.277,0,0,1,.008-.062.22.22,0,0,1,.024-.058.217.217,0,0,1,.038-.05.236.236,0,0,1,.05-.039l1.922-.875,1.031-.47a2.965,2.965,0,0,0,.3-.137h0a.967.967,0,0,1,.094-.123l.123-.164a33.409,33.409,0,0,1,2.558-3.046,15.858,15.858,0,0,1,2.978-2.525,5.93,5.93,0,0,1,2.36-.93M70.617,257.19a12.865,12.865,0,0,0-2.4-5.3,12.75,12.75,0,0,0-1.3-1.458c-.226-.217-.571.126-.344.344a12.433,12.433,0,0,1,3.582,6.547c.061.307.53.177.469-.13M89.964,227.3a1.8,1.8,0,0,0,.1-1.2.489.489,0,0,0-.249-.373.371.371,0,0,0-.124-.016.369.369,0,0,0-.228.094.368.368,0,0,0-.078.1c-.268.419,0,2.186.575,1.4M70.678,262.723q-.414,10.8-.829,21.594-.078,2.047-.157,4.1c.156.149.313.3.47.444q.384-10.033.77-20.067.117-3.033.233-6.066c.013-.313-.475-.312-.487,0m77.906-14.418c-.312.015-.314.5,0,.487a6.622,6.622,0,0,1,1.872.2,6.627,6.627,0,0,1,1.741.714,6.728,6.728,0,0,1,.777.535,6.638,6.638,0,0,1,1.772,2.182c.138.281.558.034.42-.246a6.943,6.943,0,0,0-.52-.862,7.022,7.022,0,0,0-.637-.781,7.139,7.139,0,0,0-.74-.682,7.1,7.1,0,0,0-4.686-1.543M82.737,227.3a1.8,1.8,0,0,0,.1-1.2.489.489,0,0,0-.249-.373.37.37,0,0,0-.124-.016.36.36,0,0,0-.122.027.377.377,0,0,0-.106.067.372.372,0,0,0-.078.1c-.267.419,0,2.186.575,1.4M135.292,236c.171-.264-.251-.508-.421-.246a4,4,0,0,1-5.281,1.466.236.236,0,0,0-.089-.028.243.243,0,0,0-.092.008.234.234,0,0,0-.083.042.23.23,0,0,0-.061.07.24.24,0,0,0-.031.087.244.244,0,0,0,.111.241A4.5,4.5,0,0,0,135.292,236m-9.59-6.158c.322.359.509-.051.524-.5a.93.93,0,0,0-.193-.7c-.736-.627-.624.873-.33,1.2m6.366,4.088a.231.231,0,0,0,.052-.079.237.237,0,0,0,0-.186.231.231,0,0,0-.052-.079.248.248,0,0,0-.265-.051.24.24,0,0,0-.079.051,2,2,0,0,1-1.331.446,2,2,0,0,1-.7-.152,2.1,2.1,0,0,1-.317-.167,2,2,0,0,1-.282-.221,1.507,1.507,0,0,1-.447-1.308,2.353,2.353,0,0,1,.711-1.395c.232-.211-.113-.555-.344-.344a2.569,2.569,0,0,0-.7,2.767,2.372,2.372,0,0,0,1.566,1.251,2.388,2.388,0,0,0,.685.064,2.653,2.653,0,0,0,1.5-.6m-45.756-.17a7.492,7.492,0,0,0,1.012-.711,3.762,3.762,0,0,0,.819-.837,1.294,1.294,0,0,0,.015-1.04q-.175-.693-.336-1.391-.637-2.76-1.069-5.559c-.048-.309-.517-.178-.469.129q.388,2.5.938,4.978.136.611.282,1.219c.046.193.093.386.141.579a1.946,1.946,0,0,1,.131.672c-.045.322-.48.631-.715.835a6.785,6.785,0,0,1-1,.7.224.224,0,0,0-.067.064.233.233,0,0,0-.038.084.242.242,0,0,0,0,.093.222.222,0,0,0,.031.087.245.245,0,0,0,.144.112.257.257,0,0,0,.092.008.254.254,0,0,0,.089-.027m-3.729,1.548a27.111,27.111,0,0,0,5.146.359.2.2,0,0,1,.138.038.208.208,0,0,1,.083.116.206.206,0,0,1-.011.213,2.988,2.988,0,0,1-2.748,1.488,3.726,3.726,0,0,1-1.751-.6,2.5,2.5,0,0,1-1.157-1.311.235.235,0,0,1,0-.126.219.219,0,0,1,.024-.058.225.225,0,0,1,.038-.05.239.239,0,0,1,.05-.038.233.233,0,0,1,.059-.025.242.242,0,0,1,.063-.009.246.246,0,0,1,.063.008m.36.545a2.77,2.77,0,0,0,.891.734,3.051,3.051,0,0,0,1.433.451,2.467,2.467,0,0,0,1.09-.211,2.454,2.454,0,0,0,.888-.667,27.766,27.766,0,0,1-4.3-.307m42.467-7.037,0-.006,0,.006Zm-50.8-1.12.049.038a.239.239,0,0,0,.123.033h.032a.252.252,0,0,0,.223-.151.251.251,0,0,0,.02-.092l-.009-.065a.237.237,0,0,0-.062-.107l-.05-.038a.239.239,0,0,0-.123-.033h-.032a.252.252,0,0,0-.092.02.249.249,0,0,0-.078.053.255.255,0,0,0-.073.171l.009.064a.232.232,0,0,0,.063.107" transform="translate(-48.537 -175.876)"/>
    </g>
  </g>
</svg>
