<svg xmlns="http://www.w3.org/2000/svg" xmlns:xlink="http://www.w3.org/1999/xlink" width="295" height="91" viewBox="0 0 295 91">
  <defs>
    <linearGradient id="linear-gradient" x1="4.208" y1="-16.696" x2="2.937" y2="-17.532" gradientUnits="objectBoundingBox">
      <stop offset="0" stop-color="#ed655d"/>
      <stop offset="1" stop-color="#f1af96"/>
    </linearGradient>
    <linearGradient id="linear-gradient-2" x1="6.523" y1="2.029" x2="7.875" y2="1.428" gradientUnits="objectBoundingBox">
      <stop offset="0" stop-color="#0a6c77"/>
      <stop offset="1" stop-color="#068484"/>
    </linearGradient>
  </defs>
  <g id="_279982585_76798f20-25c9-4d0b-bc8a-033f6da35832" data-name="279982585_76798f20-25c9-4d0b-bc8a-033f6da35832" transform="translate(93.413)">
    <path id="Trazado_960671" data-name="Trazado 960671" d="M0,0H295V91H0Z" transform="translate(-93.413)" fill="#8bc34a"/>
    <g id="Grupo_1117919" data-name="Grupo 1117919" transform="translate(-12.413 0.545)">
      <path id="Trazado_960672" data-name="Trazado 960672" d="M287.3,1456.11a1.172,1.172,0,0,0,.292-.21,2.462,2.462,0,0,1,.521.108l.076.146a7.083,7.083,0,0,0,.21.953l.076.3Z" transform="translate(-278.026 -1370.935)" fill="#65d1e9"/>
      <path id="Trazado_960673" data-name="Trazado 960673" d="M2255.144,648.072a1,1,0,0,1,.515-.032.873.873,0,0,1,.363.464.779.779,0,0,1-.26.5l-.045.032a.58.58,0,0,1-.521.025c-.159-.165-.3-.273-.3-.521S2255,648.218,2255.144,648.072Z" transform="translate(-2120.548 -614.412)" fill="#39add1"/>
      <path id="Trazado_960674" data-name="Trazado 960674" d="M366.714,383.057a1.331,1.331,0,0,1,.318-.057.6.6,0,0,1,.439.178.732.732,0,0,1,.184.61c-.032.267-.165.337-.356.5a.88.88,0,0,1-.184.051.636.636,0,0,1-.534-.178.7.7,0,0,1-.235-.572C366.364,383.331,366.53,383.216,366.714,383.057Z" transform="translate(-352.043 -366.236)" fill="#0ea09e"/>
      <path id="Trazado_960675" data-name="Trazado 960675" d="M2139.52,443.1a.458.458,0,0,1,.134-.032.756.756,0,0,1,.687.2.84.84,0,0,1,.2.693.869.869,0,0,1-.426.464l-.1.019a.821.821,0,0,1-.687-.242.891.891,0,0,1-.153-.534A.691.691,0,0,1,2139.52,443.1Z" transform="translate(-2012.182 -422.479)" fill="#ef9579"/>
      <path id="Trazado_960676" data-name="Trazado 960676" d="M429.982,273.6a1.891,1.891,0,0,1,.528.1,1.171,1.171,0,0,1,.655.648,1.414,1.414,0,0,1-.1,1.043,1.224,1.224,0,0,1-.89.6,1.967,1.967,0,0,1-.629-.172,1.273,1.273,0,0,1-.61-.756,1.137,1.137,0,0,1,.108-.839A1.264,1.264,0,0,1,429.982,273.6Z" transform="translate(-410.62 -263.79)" fill="#a7e1ee"/>
      <path id="Trazado_960677" data-name="Trazado 960677" d="M2219.436,510.125a2.274,2.274,0,0,1,.776.045,1.282,1.282,0,0,1,.75.623,1.642,1.642,0,0,1,.127,1.189,1.582,1.582,0,0,1-.972.865,3.132,3.132,0,0,1-.731-.038,1.532,1.532,0,0,1-.789-.642,1.515,1.515,0,0,1-.1-1.176A1.539,1.539,0,0,1,2219.436,510.125Z" transform="translate(-2086.396 -485.269)" fill="#a7e1ee"/>
      <path id="Trazado_960678" data-name="Trazado 960678" d="M1591.362,328.8a10.071,10.071,0,0,1-.026-1.519,3.451,3.451,0,0,0,.038-.922c-.477-.013-.947-.146-1.411-.172h-.063l.057-.14c.2.045.394.025.585.07l.235.038c.108.013.6.064.68-.019a3.1,3.1,0,0,0,.1-.413A4.018,4.018,0,0,1,1593,323.5a1.418,1.418,0,0,0-.013.763,7.545,7.545,0,0,1,1.367.121,24.071,24.071,0,0,0-2.079,2.9A10.109,10.109,0,0,1,1591.362,328.8Z" transform="translate(-1497.823 -310.518)" fill="#052059"/>
      <path id="Trazado_960679" data-name="Trazado 960679" d="M2217.774,817.543a2.971,2.971,0,0,1,.788.006,1.56,1.56,0,0,1,.992.712,1.671,1.671,0,0,1,.121,1.227l-.025.07-.058.159a1.61,1.61,0,0,1-.979.769,2.239,2.239,0,0,1-.9-.064,1.766,1.766,0,0,1-.948-.845,1.6,1.6,0,0,1,.032-1.138A1.727,1.727,0,0,1,2217.774,817.543Z" transform="translate(-2084.76 -773.133)" fill="#f2b194"/>
      <path id="Trazado_960680" data-name="Trazado 960680" d="M216.721,652.73a2.475,2.475,0,0,1,.865,0,1.507,1.507,0,0,1,.934.712,1.668,1.668,0,0,1,.114,1.271,1.7,1.7,0,0,1-.992.985,2.369,2.369,0,0,1-.763.019,1.641,1.641,0,0,1-.973-.693,1.679,1.679,0,0,1-.184-1.271A1.659,1.659,0,0,1,216.721,652.73Z" transform="translate(-210.949 -618.783)" fill="#65d1e9"/>
      <path id="Trazado_960681" data-name="Trazado 960681" d="M2126.71,711.388a1.785,1.785,0,0,1,1.449.432,1.528,1.528,0,0,1,.439,1.119c-.013.947-.934,1.7-1.563,2.288l-2.46,2-1.074-.9c.394-.222.839-.369,1.233-.6a5.38,5.38,0,0,0,2.25-2.237A2.437,2.437,0,0,0,2126.71,711.388Z" transform="translate(-1997.505 -673.748)" fill="#c93040"/>
      <path id="Trazado_960682" data-name="Trazado 960682" d="M226.4,1314.7a1.893,1.893,0,0,1,.61.534c.375.635.248,1.456.788,2.027.82.871,2.11.655,2.988,1.342a2.614,2.614,0,0,1,.6.833,1.461,1.461,0,0,0-.795.14,11.183,11.183,0,0,0-.032,1.532l-.006,2.575a.883.883,0,0,1-.292.21,5.687,5.687,0,0,1-.826-1.112,20.893,20.893,0,0,1-2.53-6.058C226.731,1316.048,226.521,1315.38,226.4,1314.7Z" transform="translate(-220.997 -1238.71)" fill="#a7e1ee"/>
      <path id="Trazado_960683" data-name="Trazado 960683" d="M324.125,534.662a1.721,1.721,0,0,1,.54.026,1.2,1.2,0,0,1,.776.6,1.328,1.328,0,0,1,.083,1.055c-.356,1.138-1.882,2.276-2.88,2.81a11.074,11.074,0,0,1-1.468-.941c-.578-.5-1.468-1.341-1.519-2.136a1.339,1.339,0,0,1,.3-1,1.019,1.019,0,0,1,.763-.343,2.5,2.5,0,0,1,1.78,1A4.455,4.455,0,0,1,324.125,534.662Z" transform="translate(-308.322 -508.248)" fill="#1db8a9"/>
      <path id="Trazado_960684" data-name="Trazado 960684" d="M2086.6,714.666l-1.5-1.3a2.805,2.805,0,0,1-1-1.958,1.861,1.861,0,0,1,.565-1.373,1.837,1.837,0,0,1,1.361-.413,2.514,2.514,0,0,1,1.792,1,2.986,2.986,0,0,1,2-.89,2.464,2.464,0,0,1,.28,2.1,5.383,5.383,0,0,1-2.25,2.238C2087.442,714.3,2087,714.443,2086.6,714.666Z" transform="translate(-1960.608 -672.093)" fill="#e74a4b"/>
      <path id="Trazado_960685" data-name="Trazado 960685" d="M1880.009,589.052c.731-.006,1.825-.153,2.416.369a.986.986,0,0,1,.235.381,2.947,2.947,0,0,1-.057.75c-.006.1-.019.1.032.191a2.022,2.022,0,0,1,.21,1.5,2.1,2.1,0,0,1-1.1,1.119,11.783,11.783,0,0,1-5.06.845l-.381-.261a9.127,9.127,0,0,0-3.674-1.5l-.229-.013a3.316,3.316,0,0,1,.674-1.259C1874.777,589.237,1877.631,589.218,1880.009,589.052Z" transform="translate(-1762.365 -559.167)" fill="#fefefe"/>
      <path id="Trazado_960686" data-name="Trazado 960686" d="M1880.1,589.052c.731-.006,1.824-.153,2.416.369a.982.982,0,0,1,.235.381,2.98,2.98,0,0,1-.057.75c-.006.1-.019.1.032.191a2.026,2.026,0,0,1,.21,1.5,2.1,2.1,0,0,1-1.1,1.119,11.785,11.785,0,0,1-5.06.845l-.381-.261a17.8,17.8,0,0,0,4.5-.483,2.86,2.86,0,0,0,1.78-1.176,1.563,1.563,0,0,0,.019-1.074,1.034,1.034,0,0,0-.706-.687c-.14-.337-1.157-.973-1.481-1.233-2.371.121-5.39.14-7.113,2.034a2.641,2.641,0,0,0-.668,1.132l-.229-.013a3.309,3.309,0,0,1,.674-1.259C1874.871,589.237,1877.725,589.218,1880.1,589.052Z" transform="translate(-1762.46 -559.167)" fill="#39add1"/>
      <path id="Trazado_960687" data-name="Trazado 960687" d="M1998.4,592.907a2.69,2.69,0,0,1,1.837.35.809.809,0,0,1,.235.483,2.2,2.2,0,0,1-.585.407C1999.741,593.8,1998.724,593.174,1998.4,592.907Z" transform="translate(-1880.357 -562.793)" fill="#c7ddf1"/>
      <path id="Trazado_960688" data-name="Trazado 960688" d="M146.8,1193.057c-1.03-.49-2.25-1.049-2.485-2.3a3.935,3.935,0,0,1,.006-.865,2.451,2.451,0,0,0-.146-1.246,8.12,8.12,0,0,0-.979-1.316l-1.8-2.53a6.62,6.62,0,0,0,1.468.521c-.083.165-.114.172-.064.362l.083.051c.782.458,1.456,1.112,2.206,1.621.184.127.331.3.521.407.14.076.21.216.331.292a4.347,4.347,0,0,1,.642.483,2.44,2.44,0,0,0,.68.6l.076.172a5.982,5.982,0,0,0,1.011,1.036,8.469,8.469,0,0,1,1.182,1.259c.146.229.388.375.54.623a2.477,2.477,0,0,0,.369.362,5.509,5.509,0,0,1,.718.953,4.671,4.671,0,0,0,.992,1.183,22.894,22.894,0,0,0,1.856,2.689l.076.3a7.41,7.41,0,0,1-2.3.076,2.526,2.526,0,0,0-.6-.833c-.877-.686-2.168-.471-2.988-1.341-.54-.572-.413-1.392-.788-2.028A1.7,1.7,0,0,0,146.8,1193.057Z" transform="translate(-141.4 -1117.068)" fill="#13396f"/>
      <path id="Trazado_960689" data-name="Trazado 960689" d="M1440,200.284a2.656,2.656,0,0,1,2-.807,2.922,2.922,0,0,1,1.958.973l.757,1.042a4.052,4.052,0,0,1,2.479-2.009,2.9,2.9,0,0,1,2.295.572,2.812,2.812,0,0,1,.477,3.973,11.242,11.242,0,0,1-1.913,1.773,2.662,2.662,0,0,1-.515.388,1.33,1.33,0,0,0-.5-.1,9.119,9.119,0,0,1-5.791-3.833c-.445-.623-.775-1.316-1.233-1.92Z" transform="translate(-1357.452 -194.345)" fill="#e74a4b"/>
      <path id="Trazado_960690" data-name="Trazado 960690" d="M294.793,1371.5l.089.006.032,1.106,5.212.026-.979,2.581-.42,1.373a1.768,1.768,0,0,1-.146.426,24.01,24.01,0,0,0-.807,2.886l-.229.979-4.208-.019-.75-2.5-.076-.3a6.077,6.077,0,0,1-.21-.954l-.076-.146a2.935,2.935,0,0,0-.521-.108l.006-2.575a10.25,10.25,0,0,1,.032-1.532,1.532,1.532,0,0,1,.795-.14,7.421,7.421,0,0,0,2.3-.076l-.076-.3A2.045,2.045,0,0,0,294.793,1371.5Z" transform="translate(-282.143 -1291.9)" fill="#ef9579"/>
      <path id="Trazado_960691" data-name="Trazado 960691" d="M311.646,1415.37a4.218,4.218,0,0,1,1.062-.051,5.6,5.6,0,0,1,1.6.051,2.047,2.047,0,0,1-.038.623,7.464,7.464,0,0,1-1.252.032,6.506,6.506,0,0,1-1.367-.038A1.436,1.436,0,0,1,311.646,1415.37Z" transform="translate(-300.795 -1332.904)" fill="#fefefe"/>
      <path id="Trazado_960692" data-name="Trazado 960692" d="M301.2,1456.716l.064-.216,6.122.006.1.114a24.014,24.014,0,0,0-.807,2.886c-1.214-.572-2.32-1.843-3.655-2.091a2,2,0,0,0-1.6.261A6.5,6.5,0,0,1,301.2,1456.716Z" transform="translate(-291.042 -1371.497)" fill="#c93040"/>
      <path id="Trazado_960693" data-name="Trazado 960693" d="M304.5,1470.1a2,2,0,0,1,1.6-.261c1.335.254,2.441,1.526,3.655,2.091l-.229.979-4.208-.019-.75-2.5Z" transform="translate(-294.133 -1383.937)" fill="#e74a4b"/>
      <path id="Trazado_960694" data-name="Trazado 960694" d="M1958.528,449.588c-1.335-1.735-2.517-3.515-2.238-5.816a4.1,4.1,0,0,1,1.653-2.746,4.4,4.4,0,0,1,3.248-.89,4.181,4.181,0,0,1,2.8,1.659,4.535,4.535,0,0,1,.9,3.63,9.763,9.763,0,0,1-3.439,5.441l-.331.223a3.294,3.294,0,0,0,.057-.75.91.91,0,0,0-.235-.381C1960.346,449.436,1959.253,449.582,1958.528,449.588Z" transform="translate(-1840.885 -419.704)" fill="#c7ddf1"/>
      <path id="Trazado_960695" data-name="Trazado 960695" d="M1984.622,469.3a2.074,2.074,0,0,1,.337.057.906.906,0,0,1,.235.458,1.149,1.149,0,0,1-.216.795,1.043,1.043,0,0,1-.718.439,1.311,1.311,0,0,1-.273,0c-.2-.032-.248-.108-.363-.261a1.184,1.184,0,0,1,1-1.487Z" transform="translate(-1866.496 -447.05)" fill="#fefefe"/>
      <path id="Trazado_960696" data-name="Trazado 960696" d="M2056.254,481a1.381,1.381,0,0,1,.6,0,.768.768,0,0,1,.5.477,3.235,3.235,0,0,1,.127,2.327,1.059,1.059,0,0,1-.616.68.883.883,0,0,1-.407-.006,1.048,1.048,0,0,1-.661-.534,2.533,2.533,0,0,1-.286-1.894A1.577,1.577,0,0,1,2056.254,481Z" transform="translate(-1933.773 -457.973)" fill="#fefefe"/>
      <path id="Trazado_960697" data-name="Trazado 960697" d="M1687.729,187.371l.852-2.708a12.56,12.56,0,0,1,.578-1.729,2.208,2.208,0,0,1,1.138-.14,7.248,7.248,0,0,1,1.577.045c1.049.235,2.149.153,3.2.5a13.1,13.1,0,0,1,2.816.807,4.251,4.251,0,0,1,.839.35,15.81,15.81,0,0,1,4.837,3.019l-1.551,4.469-.3.814a9.41,9.41,0,0,0-1.964-1.2,10.194,10.194,0,0,0-1.539-.7,37.332,37.332,0,0,0-4.895-1.608,23.6,23.6,0,0,0-2.956-.731.911.911,0,0,1-.26-.057,10.879,10.879,0,0,0-2.6-.413Z" transform="translate(-1589.219 -178.736)" fill="#1db8a9"/>
      <path id="Trazado_960698" data-name="Trazado 960698" d="M1687.635,188.239l2.441.426.985-3.5a4.624,4.624,0,0,1,.464-1.468l.153.07a3.763,3.763,0,0,1-.279,1.2l-.572,2.1c-.159.534-.362,1.062-.47,1.615l2.95.687,1.449-5.1.229-.083a2.956,2.956,0,0,1-.121.661c-.324.973-.547,2-.826,2.988a5.579,5.579,0,0,0-.426,1.589l2.053.585a6.594,6.594,0,0,0,1.182.343,2.629,2.629,0,0,0,.26-.8l1.024-3.229c.1-.292.127-.756.362-.96l.14-.025.006.057a.76.76,0,0,1-.051.375l-1.176,3.865a2.663,2.663,0,0,0-.254.96l2.613,1.081a6.518,6.518,0,0,1,.267-.845.526.526,0,0,0,.051-.159,20.932,20.932,0,0,1,1.335-3.712l.1.114-1.551,4.723a15.443,15.443,0,0,1,1.945,1.049l-.3.814a9.4,9.4,0,0,0-1.964-1.2,10.181,10.181,0,0,0-1.538-.7,37.348,37.348,0,0,0-4.895-1.608,23.6,23.6,0,0,0-2.956-.731.909.909,0,0,1-.26-.057,10.879,10.879,0,0,0-2.6-.413Z" transform="translate(-1589.126 -179.605)" fill="#0ea09e"/>
      <path id="Trazado_960699" data-name="Trazado 960699" d="M1786.4,191.6a13.088,13.088,0,0,1,2.816.807,4.243,4.243,0,0,1,.839.35l-.139.025c-.242.2-.267.667-.362.96l-1.03,3.229a2.893,2.893,0,0,1-.26.8,6.111,6.111,0,0,1-1.183-.343l-2.053-.585a5.678,5.678,0,0,1,.425-1.589c.28-.985.5-2.015.827-2.988A3.049,3.049,0,0,0,1786.4,191.6Z" transform="translate(-1680.544 -187.002)" fill="#1db8a9"/>
      <path id="Trazado_960700" data-name="Trazado 960700" d="M1842.36,209.9a15.811,15.811,0,0,1,4.838,3.019l-1.551,4.469a13.954,13.954,0,0,0-1.945-1.049l1.545-4.723-.1-.114a20.77,20.77,0,0,0-1.335,3.712.52.52,0,0,1-.051.159,6.553,6.553,0,0,0-.267.845l-2.612-1.081a2.952,2.952,0,0,1,.254-.96l1.176-3.839a.761.761,0,0,0,.051-.375Z" transform="translate(-1732.847 -204.139)" fill="#1db8a9"/>
      <path id="Trazado_960701" data-name="Trazado 960701" d="M761.173,166.719a8.054,8.054,0,0,1-2.8-1.894,8.789,8.789,0,0,1,.178-12.44,8.455,8.455,0,0,1,6.2-2.225,8.627,8.627,0,0,1,6.141,3.058,8.922,8.922,0,0,1,1.9,6.6,9.084,9.084,0,0,1-3.414,5.893,9.368,9.368,0,0,1-2.8,1.392,3.559,3.559,0,0,1-.953.21l-.044-.013a4.971,4.971,0,0,1-2.079,3.382,4.617,4.617,0,0,1-3.267.661,6.768,6.768,0,0,1-1.208-.413c-.293-.133-.782-.559-1.062-.578l-.032.2-.045.013-.057-.445-.114-.394.222-.1c.1.331.305.445.6.617a5.47,5.47,0,0,0,1.812.591l.439-2.416A14.685,14.685,0,0,0,761.173,166.719Z" transform="translate(-716.822 -148.193)" fill="#65d1e9"/>
      <path id="Trazado_960702" data-name="Trazado 960702" d="M827.207,410.7a9.532,9.532,0,0,0,3.14.661,2.638,2.638,0,0,0,.744-.025,4.185,4.185,0,0,1-4.691,3.49l.439-2.416A16.072,16.072,0,0,0,827.207,410.7Z" transform="translate(-782.857 -392.175)" fill="#a7e1ee"/>
      <path id="Trazado_960703" data-name="Trazado 960703" d="M774.218,160.278a8.021,8.021,0,0,1,5.187,1.767,7.713,7.713,0,0,1,2.841,5.276,8.287,8.287,0,0,1-1.913,6.128,7.574,7.574,0,0,1-5.422,2.714,7.91,7.91,0,0,1-5.4-1.837A8.061,8.061,0,0,1,766.7,168.9a8.323,8.323,0,0,1,1.818-5.918A7.75,7.75,0,0,1,774.218,160.278Z" transform="translate(-726.925 -157.664)" fill="#fefefe"/>
      <path id="Trazado_960704" data-name="Trazado 960704" d="M852.153,233.3a3.56,3.56,0,0,1,.807,2.816,6.345,6.345,0,0,1-2.625,3.839,9.789,9.789,0,0,1-2.88,1.6,11.292,11.292,0,0,1-2.956-1.869,4.46,4.46,0,0,1,1.1-.159,8.544,8.544,0,0,0,3.833-1.367,6.135,6.135,0,0,0,2.473-3.394C852.033,234.3,852.065,233.783,852.153,233.3Z" transform="translate(-799.807 -226.052)" fill="#c93040"/>
      <path id="Trazado_960705" data-name="Trazado 960705" d="M805.373,223.042a9.609,9.609,0,0,1-1.646-1.761,4.606,4.606,0,0,1-.954-3.483,2.773,2.773,0,0,1,1.106-1.8,2.844,2.844,0,0,1,2.206-.407,3.513,3.513,0,0,1,2.13,1.7l.508-.623a3.148,3.148,0,0,1,2.161-.947,2.92,2.92,0,0,1,2.129.922c-.089.483-.121,1-.248,1.468a6.166,6.166,0,0,1-2.46,3.394,8.477,8.477,0,0,1-3.833,1.373A4.462,4.462,0,0,0,805.373,223.042Z" transform="translate(-760.673 -209.405)" fill="#e74a4b"/>
      <path id="Trazado_960706" data-name="Trazado 960706" d="M809.113,229.632a4.542,4.542,0,0,1,.508-.032c.178.089.216.083.305.267l-.057.133a3.024,3.024,0,0,0-1.392,1.341.785.785,0,0,1-.362.261l-.127-.064a2.444,2.444,0,0,1,.267-1.055A1.438,1.438,0,0,1,809.113,229.632Z" transform="translate(-765.614 -222.586)" fill="#e17c6c"/>
      <path id="Trazado_960707" data-name="Trazado 960707" d="M360.2,1361.772l.369-.172a1.973,1.973,0,0,1,.2,1.03,4.251,4.251,0,0,1-.21.826,2.919,2.919,0,0,0,.623-.006,2.034,2.034,0,0,1,.432.045l1.513.019-.083,3.477,2.263-.038-.013,1.64-.013,3.02h1.36c.464,0,1.761-.153,2.085.1a2.743,2.743,0,0,1,.273.273.935.935,0,0,1-.045.68.872.872,0,0,1-.528.3,23.177,23.177,0,0,1-2.574.013h-5.7l-18.441-.013-60.9-.006H254.378l-8.868.006h-4.494a.674.674,0,0,1-.439-.115.721.721,0,0,1-.292-.477.807.807,0,0,1,.261-.616.772.772,0,0,1,.242-.14,6.642,6.642,0,0,1,1.233-.013l3.159-.013,4.208.019c1.144.108,2.352.025,3.5.025l6.573-.006,17.773.038a.667.667,0,0,0,.273-.07l.14.083a5.624,5.624,0,0,0,1.831-.063l.006-.7.083.7a3.444,3.444,0,0,0,1.176.057l3.019-.007,3.439.013a16.716,16.716,0,0,1,1.958.045l14.233.019,2.11-.006h6.433l16.012-.045,23.927-.006.337-.044-.1-4.634h-.235l-.28-.2a7.44,7.44,0,0,1-.083-2.5,1.02,1.02,0,0,1,.432-.845l1.157-.045,3.223.019a6.263,6.263,0,0,0,1.583-.044l.089-.013.242-.388a2.937,2.937,0,0,0,.54-.286,5.613,5.613,0,0,1,1.023-.642A.754.754,0,0,0,360.2,1361.772Z" transform="translate(-233.999 -1282.629)" fill="#39add1"/>
      <path id="Trazado_960708" data-name="Trazado 960708" d="M2096.866,1445.838l2.263-.038-.013,1.64-.013,3.02-7.3-.032c.445-.331.934-.6,1.373-.941a7.054,7.054,0,0,0,2.549-3.674Z" transform="translate(-1967.82 -1361.477)" fill="#c93040"/>
      <path id="Trazado_960709" data-name="Trazado 960709" d="M1999.8,1446.125l9.77-.025a7.132,7.132,0,0,1-2.549,3.674c-.439.343-.928.61-1.373.941l-5.747.051Z" transform="translate(-1881.668 -1361.758)" fill="#e74a4b"/>
      <path id="Trazado_960710" data-name="Trazado 960710" d="M1998.031,1361.772l.369-.172a1.973,1.973,0,0,1,.2,1.03,4.251,4.251,0,0,1-.21.826,2.92,2.92,0,0,0,.623-.006,2.034,2.034,0,0,1,.432.045l1.513.019-.083,3.477-1.151-.019-9.77.026h-.235l-.28-.2a7.429,7.429,0,0,1-.083-2.5,1.02,1.02,0,0,1,.432-.846l1.157-.044,3.223.019a6.279,6.279,0,0,0,1.583-.044l.089-.013.242-.388a2.916,2.916,0,0,0,.54-.286,5.632,5.632,0,0,1,1.024-.642A.729.729,0,0,0,1998.031,1361.772Z" transform="translate(-1871.832 -1282.629)" fill="url(#linear-gradient)"/>
      <path id="Trazado_960711" data-name="Trazado 960711" d="M2094.393,1361.772l.368-.172a1.973,1.973,0,0,1,.2,1.03,4.26,4.26,0,0,1-.21.826,15.507,15.507,0,0,1-2.555-.083l.242-.388a2.924,2.924,0,0,0,.54-.286,5.624,5.624,0,0,1,1.023-.642A.764.764,0,0,0,2094.393,1361.772Z" transform="translate(-1968.194 -1282.629)" fill="#13396f"/>
      <path id="Trazado_960712" data-name="Trazado 960712" d="M2011.848,1409.578a4.216,4.216,0,0,1,1.023-.044h2.06a3.667,3.667,0,0,1,.991.032c.166.063.185.178.255.318a.6.6,0,0,1-.267.5,15.876,15.876,0,0,1-1.907.045,14.516,14.516,0,0,1-2.168-.032.5.5,0,0,1-.235-.356A.732.732,0,0,1,2011.848,1409.578Z" transform="translate(-1892.718 -1327.499)" fill="#fefefe"/>
      <path id="Trazado_960713" data-name="Trazado 960713" d="M1614.253,270.017a8.269,8.269,0,0,1,.9-2.74,2.746,2.746,0,0,1,2.193-.877,11.1,11.1,0,0,1,2.6.413,1.277,1.277,0,0,0,.26.057,24.151,24.151,0,0,1,2.956.731,36.711,36.711,0,0,1,4.895,1.608,10.179,10.179,0,0,1,1.538.7,9.513,9.513,0,0,1,1.964,1.2l.013.064c.121.362.451.636.572,1.049.407,1.373-.712,2.829-.966,4.157.07,1.443-.509,3.795.661,4.869a3.193,3.193,0,0,0,.858.489,25.657,25.657,0,0,1-4.895,2.689,16.8,16.8,0,0,1-1.691.407l-.267-2.981a1.453,1.453,0,0,0-.248.648,7.643,7.643,0,0,1-4.443,4.132,7.5,7.5,0,0,1-1.246.267,7.757,7.757,0,0,1-2.95-.439,6.819,6.819,0,0,1-3.858-3.827l-.159-.947-.133-1.856a22.527,22.527,0,0,1-.127-3.07l-.063-.381c-.057-.35.089-.7-.019-1.043a9.642,9.642,0,0,0,.909-1.519,23.371,23.371,0,0,1,2.078-2.9,7.532,7.532,0,0,0-1.367-.121A1.687,1.687,0,0,1,1614.253,270.017Z" transform="translate(-1519.081 -257.048)" fill="#f2b194"/>
      <path id="Trazado_960714" data-name="Trazado 960714" d="M1613.456,410.616a1.939,1.939,0,0,1,1.278-.413c.076.019.1.108.14.165l-.063.191a5.027,5.027,0,0,0-.795.254c-.311.159-.559.4-.852.578l-.063-.381Z" transform="translate(-1519.549 -391.69)" fill="#052059"/>
      <path id="Trazado_960715" data-name="Trazado 960715" d="M1706.752,409.184a1.267,1.267,0,0,1,.312-.019,2.6,2.6,0,0,1,1.7.871l-.115.222c-.362-.057-.693-.407-1.068-.521-.312-.1-.712-.006-.973-.21l-.013-.191Z" transform="translate(-1607.105 -390.735)" fill="#052059"/>
      <path id="Trazado_960716" data-name="Trazado 960716" d="M1705.242,449.607l.076-.013a.583.583,0,0,1,.477.2,1.055,1.055,0,0,1,.191.814.931.931,0,0,1-.394.623l-.254.032a.908.908,0,0,1-.318-.216,1.149,1.149,0,0,1-.2-.941A.771.771,0,0,1,1705.242,449.607Z" transform="translate(-1605.417 -428.596)" fill="#052059"/>
      <path id="Trazado_960717" data-name="Trazado 960717" d="M1621.588,449.706l.1-.006a.509.509,0,0,1,.451.267,1.147,1.147,0,0,1,.114.9.725.725,0,0,1-.426.5l-.273-.032a.957.957,0,0,1-.362-.311,1,1,0,0,1-.057-.776A.784.784,0,0,1,1621.588,449.706Z" transform="translate(-1527.019 -428.696)" fill="#052059"/>
      <path id="Trazado_960718" data-name="Trazado 960718" d="M1616.1,477.4c.4,0,.826-.07,1.144.229a.855.855,0,0,1,.305.623.974.974,0,0,1-.356.687,1.643,1.643,0,0,1-.966.318Z" transform="translate(-1522.358 -454.624)" fill="#f37e74"/>
      <path id="Trazado_960719" data-name="Trazado 960719" d="M1652.62,505.532l3.592-.032a5.862,5.862,0,0,1-.623,1.246,2.545,2.545,0,0,1-.578.464,1.236,1.236,0,0,1-1.049.019,2.336,2.336,0,0,1-1.309-1.189A.519.519,0,0,1,1652.62,505.532Z" transform="translate(-1556.507 -480.949)" fill="#fefefe"/>
      <path id="Trazado_960720" data-name="Trazado 960720" d="M1615.7,337.2l.82.089a15.966,15.966,0,0,0,3.077,3.585l-.057-.013a7.727,7.727,0,0,1-2.7-2.136c-.153-.159-.439-.585-.61-.648a32.08,32.08,0,0,0-2.219,2.854,7.659,7.659,0,0,1-.934,1.138l-.013.2-.349.394c-.057-.35.089-.7-.019-1.042a9.612,9.612,0,0,0,.909-1.519A24.2,24.2,0,0,1,1615.7,337.2Z" transform="translate(-1519.174 -323.347)" fill="#e17c6c"/>
      <path id="Trazado_960721" data-name="Trazado 960721" d="M1723.777,462.641a3.236,3.236,0,0,1,1.284.1,1.223,1.223,0,0,1,.775.674.988.988,0,0,1-.019.75,1.857,1.857,0,0,1-1.246.934,2.792,2.792,0,0,1-1.125-.089l-.089-.038a1.652,1.652,0,0,1-.826-.687,1.007,1.007,0,0,1-.013-.845A2.382,2.382,0,0,1,1723.777,462.641Z" transform="translate(-1621.931 -440.798)" fill="#f37e74"/>
      <path id="Trazado_960722" data-name="Trazado 960722" d="M1672.7,338.6a37,37,0,0,1,12.77,4.157,11.179,11.179,0,0,1,2,1.22c.07,1.443-.509,3.795.661,4.869a3.192,3.192,0,0,0,.858.489,25.672,25.672,0,0,1-4.895,2.689,16.79,16.79,0,0,1-1.691.407l-.267-2.981a.99.99,0,0,1,.089-.623,2.562,2.562,0,0,0,.852.045,1.912,1.912,0,0,0,1.278-.833,2.42,2.42,0,0,0,.4-1.793,1.917,1.917,0,0,0-.884-1.373,1.525,1.525,0,0,0-1.1-.191,2.025,2.025,0,0,0-1.151,1.093,6.2,6.2,0,0,0-1.761-1.481c-.6-.248-1.227-.369-1.824-.661a16.231,16.231,0,0,1-2.263-1.443A16.436,16.436,0,0,1,1672.7,338.6Z" transform="translate(-1575.36 -324.658)" fill="#052059"/>
      <path id="Trazado_960723" data-name="Trazado 960723" d="M1637.594,270.017a8.281,8.281,0,0,1,.9-2.74,2.746,2.746,0,0,1,2.193-.877,11.1,11.1,0,0,1,2.6.413,1.281,1.281,0,0,0,.261.057,24.177,24.177,0,0,1,2.956.731,36.72,36.72,0,0,1,4.894,1.608,10.171,10.171,0,0,1,1.538.7,9.513,9.513,0,0,1,1.964,1.2l.013.064c.121.362.451.636.572,1.049.407,1.373-.712,2.829-.966,4.157a11.173,11.173,0,0,0-2-1.22A37.006,37.006,0,0,0,1639.755,271l-.82-.089a7.533,7.533,0,0,0-1.367-.121A1.609,1.609,0,0,1,1637.594,270.017Z" transform="translate(-1542.422 -257.048)" fill="#1db8a9"/>
      <path id="Trazado_960724" data-name="Trazado 960724" d="M1012.574,1244.2l2.918.909a34.5,34.5,0,0,0,15.72.706c1.182-.223,2.307-.667,3.477-.9l.07-.013-.083.623-2.6,16.273h-6.433l-2.11.006-14.233-.019,1.6-8.423Z" transform="translate(-954.13 -1172.692)" fill="#13396f"/>
      <path id="Trazado_960725" data-name="Trazado 960725" d="M1036.265,1244.2l2.918.909a34.5,34.5,0,0,0,15.72.706c1.182-.223,2.308-.667,3.477-.9l.07-.013-.083.623a10.166,10.166,0,0,1-5.111,1.793.338.338,0,0,0-.337.5l-.432,1.589-3.14,12.4-2.11.006,5.473-14.4a40.235,40.235,0,0,1-12.885-.693l-3.477,4.545a12.777,12.777,0,0,1-1.653,2.212l-.1-.1Z" transform="translate(-977.823 -1172.692)" fill="#052059"/>
      <path id="Trazado_960726" data-name="Trazado 960726" d="M1266.5,1281.18l3.141-12.4.432-1.589a2.463,2.463,0,0,1,.133-.464c.006-.006.2-.032.2-.038,1.939-.324,3.522-.56,5.111-1.793l-2.6,16.273Z" transform="translate(-1194.981 -1192.076)" fill="#13396f"/>
      <path id="Trazado_960727" data-name="Trazado 960727" d="M1642.613,1146.4l1.049,5.365c.279,1.583.42,3.178.585,4.78.184,1.754.394,3.572.407,5.333l-1.157.044a1.021,1.021,0,0,0-.432.845,7.282,7.282,0,0,0,.083,2.5l.28.2h.235l.1,4.634-.337.044-23.927.006.947-17.78.14-1.774a23.138,23.138,0,0,0,11.27.636,3.167,3.167,0,0,0,1.081-.235,4.92,4.92,0,0,1,2.644-.756l.273.013a7.573,7.573,0,0,0,1.9-.044,6.981,6.981,0,0,0,2.326-1.576Z" transform="translate(-1525.542 -1081.108)" fill="#1db8a9"/>
      <path id="Trazado_960728" data-name="Trazado 960728" d="M1996,1446.5h.235l.1,4.634-.337.044Z" transform="translate(-1878.109 -1362.132)" fill="#047a7d"/>
      <path id="Trazado_960729" data-name="Trazado 960729" d="M1679.3,1325.4c.515.343.985.75,1.506,1.081a13.106,13.106,0,0,0,3.293,1.481l1.551,9.8-1.984.019c-.591-3.242-1.157-6.751-2.638-9.726A16.437,16.437,0,0,0,1679.3,1325.4Z" transform="translate(-1581.54 -1248.73)" fill="#047a7d"/>
      <path id="Trazado_960730" data-name="Trazado 960730" d="M1656.565,1146.4l1.049,5.365c.28,1.583.419,3.178.585,4.78.184,1.754.394,3.572.407,5.333l-1.157.044a4.446,4.446,0,0,1-.191-1.3,8.874,8.874,0,0,0-2.123-4.933l.025-.1a7.757,7.757,0,0,1,1.856,2.3l.025.045a29.163,29.163,0,0,0-1.284-5.588c-5.67.928-11.416,2.409-17.176,1.3a26.607,26.607,0,0,1-4.182-1.259l.14-1.773a23.141,23.141,0,0,0,11.271.636,3.178,3.178,0,0,0,1.081-.235,4.921,4.921,0,0,1,2.644-.756l.273.013a7.592,7.592,0,0,0,1.9-.044,6.993,6.993,0,0,0,2.326-1.577Z" transform="translate(-1539.495 -1081.108)" fill="#047a7d"/>
      <path id="Trazado_960731" data-name="Trazado 960731" d="M1831.1,1207.67a4.918,4.918,0,0,1,2.645-.756,5,5,0,0,1-2.447.865Z" transform="translate(-1723.691 -1137.77)" fill="#036373"/>
      <path id="Trazado_960732" data-name="Trazado 960732" d="M1378.22,807.2a11.118,11.118,0,0,0,.845,1.4l.356.534a11.06,11.06,0,0,0,2.416,2.269,5.142,5.142,0,0,0,.273.737l-.025.324a9.59,9.59,0,0,1,.591,1.888l.89,2.46.1.2a16.728,16.728,0,0,1,.286,1.672c.057.75-.006,1.551-.019,2.307l-.076,4.564-.108,7.081,1.055.33-.14,1.773-.947,17.78-16.012.044,2.6-16.273.083-.623c.267-.114.578-.191.858-.28l-.9-20.621c-.108-.566-.089-1.208-.152-1.793a8.578,8.578,0,0,0,4.507-2.454l.21.343c.115.152.222.362.407.413Z" transform="translate(-1289.748 -763.47)" fill="#a7e1ee"/>
      <path id="Trazado_960733" data-name="Trazado 960733" d="M1406.8,861.954a8.581,8.581,0,0,0,4.507-2.454l.209.343a8.053,8.053,0,0,1-2.155,1.913l1.31,3.795a5.166,5.166,0,0,0,.515,1.3.687.687,0,0,0,.229.153,1.548,1.548,0,0,0,.833.051,7.14,7.14,0,0,0,1.373-.655l3.719-1.907a17.066,17.066,0,0,0,1.939-1.17l.89,2.46-2.931,1.551-3.5,1.691a8.792,8.792,0,0,1-1.793.693,2.833,2.833,0,0,1-1.284-.1,2.013,2.013,0,0,1-.96-.642,10.013,10.013,0,0,1-.992-1.792l-1.773-3.458C1406.845,863.181,1406.864,862.539,1406.8,861.954Z" transform="translate(-1326.363 -812.446)" fill="#e17c6c"/>
      <path id="Trazado_960734" data-name="Trazado 960734" d="M1452.573,807.2a11.09,11.09,0,0,0,.846,1.4l.356.534a11.058,11.058,0,0,0,2.416,2.269,5.143,5.143,0,0,0,.274.737l-.026.324a9.59,9.59,0,0,1,.591,1.888,16.187,16.187,0,0,1-1.939,1.17l-3.719,1.907a7.339,7.339,0,0,1-1.373.655,1.548,1.548,0,0,1-.833-.051.687.687,0,0,1-.229-.153,5.266,5.266,0,0,1-.515-1.3l-1.322-3.8a8.372,8.372,0,0,0,2.155-1.913c.115.152.222.362.407.413Z" transform="translate(-1364.101 -763.47)" fill="#f2b194"/>
      <path id="Trazado_960735" data-name="Trazado 960735" d="M1552.1,837.7a11.065,11.065,0,0,0,2.416,2.269,5.174,5.174,0,0,0,.273.737l-.025.324A5.963,5.963,0,0,1,1552.1,837.7Z" transform="translate(-1462.427 -792.032)" fill="#e17c6c"/>
      <path id="Trazado_960736" data-name="Trazado 960736" d="M1989.334,859.3c5.658,1.151,11.506,3.331,14.824,8.34,2.88,4.348,3.49,10.616,2.467,15.644a24.759,24.759,0,0,1-5.562,11.366l-2.047,2.1c-.527.5-1.1.947-1.589,1.475l.013-1.64-2.263.038.083-3.477-1.513-.019a2.041,2.041,0,0,0-.432-.044,2.916,2.916,0,0,1-.623.006,4.143,4.143,0,0,0,.21-.826,2,2,0,0,0-.2-1.03l-.369.172a.741.741,0,0,1-.388.28,5,5,0,0,0-1.023.642,2.211,2.211,0,0,1-.54.286l-.242.388-.089.013a6.581,6.581,0,0,1-1.583.044l-3.223-.019c-.019-1.761-.229-3.585-.407-5.333-.165-1.6-.311-3.2-.585-4.78l-1.049-5.365.9-.826,3.794-3.776a31.5,31.5,0,0,0,5.321-6.776,48.883,48.883,0,0,0-3.827-6.675Z" transform="translate(-1866.123 -812.259)" fill="#a7e1ee"/>
      <path id="Trazado_960737" data-name="Trazado 960737" d="M2044.3,1215.21l.343-.61a5.385,5.385,0,0,1,.744,1.4A7.748,7.748,0,0,1,2044.3,1215.21Z" transform="translate(-1923.339 -1144.973)" fill="#02476c"/>
      <path id="Trazado_960738" data-name="Trazado 960738" d="M2171.489,1391.6l2.829.083a2.492,2.492,0,0,1,.279.375,12.815,12.815,0,0,1,.038,2.485.61.61,0,0,1-.28.458l-.693.038-2.263.038Z" transform="translate(-2042.359 -1310.722)" fill="#cb494d"/>
      <path id="Trazado_960739" data-name="Trazado 960739" d="M2165.32,1002.3l.121.083a14.287,14.287,0,0,0,.032,2.028c.076.814.61,2.263.311,3.007a1.311,1.311,0,0,1-.445.451,23.547,23.547,0,0,1-3.1,1.557l-.286.121-.051-.076c.705-1.773,1.571-3.5,2.416-5.2A14.077,14.077,0,0,0,2165.32,1002.3Z" transform="translate(-2033.463 -946.168)" fill="#13396f"/>
      <path id="Trazado_960740" data-name="Trazado 960740" d="M2129.232,1000.922l-.833-1.526a4.842,4.842,0,0,1,1.507-1.958,21.345,21.345,0,0,1,3.305-2.072c.2-.114.719-.5.928-.477l-.2.47a4.336,4.336,0,0,0-.839,1.4l-1.952,3.992-.6,1.386a1.716,1.716,0,0,1-.292.578Z" transform="translate(-2002.093 -939.228)" fill="#13396f"/>
      <path id="Trazado_960741" data-name="Trazado 960741" d="M2098.558,1275.289l.26-.089a5.318,5.318,0,0,1-.031.725c.012.184.089.362.1.54a3.605,3.605,0,0,1-.725,2.1,18.612,18.612,0,0,1-1.494,1.684,4.916,4.916,0,0,0-.591.617.744.744,0,0,1-.388.28,4.973,4.973,0,0,0-1.024.642,2.195,2.195,0,0,1-.541.286l-.127-.108a16.874,16.874,0,0,1,.235-2.117l.5-3.159Z" transform="translate(-1969.88 -1201.721)" fill="#02476c"/>
      <path id="Trazado_960742" data-name="Trazado 960742" d="M2086.322,1070.1h.426a6.767,6.767,0,0,1,.82,1.347l1.106,1.875a32.633,32.633,0,0,0-1.926,5.327.261.261,0,0,1-.2.013l-.026-.063c-.782-1.894-3.223-4.03-2.308-6.287a4.384,4.384,0,0,1,2.053-2.187Z" transform="translate(-1960.53 -1009.659)" fill="#13396f"/>
      <path id="Trazado_960743" data-name="Trazado 960743" d="M2134.079,1092.538a1.062,1.062,0,0,1,.248-.038.647.647,0,0,1,.483.248c.331.426.2,1.716.153,2.25-.05.719-.184,2.448-.705,2.892a11.181,11.181,0,0,0-1.621.47l-3.14,1.125-.9.28.839-2.657.826-2.18a2.633,2.633,0,0,1,.261-.61,4.084,4.084,0,0,1,.953-.49Z" transform="translate(-2002.28 -1030.635)" fill="#13396f"/>
      <path id="Trazado_960744" data-name="Trazado 960744" d="M2110.3,1186.695l-3.712,1.29a3.517,3.517,0,0,1,.2-1.15l.756-3.007a5.851,5.851,0,0,1,.388-1.22c.121-.2,1-.407,1.252-.5l3.973-1.411-.006.045-.579.413c.178.305.471.541.648.852.311.553-.076,1.666-.242,2.263-.159.464-1.131.9-1.525,1.259a7.364,7.364,0,0,0-.865,1.068Z" transform="translate(-1981.653 -1113.228)" fill="#02476c"/>
      <path id="Trazado_960745" data-name="Trazado 960745" d="M2048.209,1148.068c-.617-1.233-1.183-2.282-.718-3.719a2.908,2.908,0,0,1,1.2-1.755,1.183,1.183,0,0,1,.928-.07,20.4,20.4,0,0,1,2.073,3.178,2.764,2.764,0,0,0,.508.712,1.414,1.414,0,0,1,.083.311,4.992,4.992,0,0,1-.312,1.087l-.565,2.085-.655,2.937Z" transform="translate(-1926.168 -1077.418)" fill="#02476c"/>
      <path id="Trazado_960746" data-name="Trazado 960746" d="M1984.184,1133.4l1.7,1.875a14.246,14.246,0,0,1,.464,3.172,3.1,3.1,0,0,0,.057.464c.082.083.616.172.775.261a8.744,8.744,0,0,0,1.081.788,8.359,8.359,0,0,1,.553,1.157l1.513,2.625a4.433,4.433,0,0,1,.464.788,2.026,2.026,0,0,1-.076.458l-.222,1.411-.35,3.28a6.55,6.55,0,0,1-1.583.044l-3.223-.019c-.019-1.761-.229-3.585-.407-5.333-.165-1.6-.311-3.2-.585-4.78l-1.049-5.365Z" transform="translate(-1866.216 -1068.935)" fill="#39add1"/>
      <path id="Trazado_960747" data-name="Trazado 960747" d="M2048.649,1254.8l1.513,2.625a4.4,4.4,0,0,1,.464.788,2.043,2.043,0,0,1-.076.458l-.223,1.411-.35,3.28a6.591,6.591,0,0,1-1.583.045,3.389,3.389,0,0,1-.178-.776,10.494,10.494,0,0,1,.318-1.024,1.366,1.366,0,0,0-.165-1.132l-.057-.082c-.216-.324-.687-.712-.846-1.036a2.39,2.39,0,0,1-.082-.534l-.184-1.576A5.126,5.126,0,0,0,2048.649,1254.8Z" transform="translate(-1926.055 -1182.618)" fill="#02476c"/>
      <path id="Trazado_960748" data-name="Trazado 960748" d="M2132.111,1200.928l.171.045.076-.045a2.322,2.322,0,0,1,1.449-.381.825.825,0,0,1,.528.426l.095.172.128.229a3.755,3.755,0,0,1,2.263-2.27,16.434,16.434,0,0,1,4.024-.566l.057.153.387-.191.045.076c-.585,1.233-.967,2.727-2.384,3.216a2.2,2.2,0,0,1-1.036-.013l-.013.057a.983.983,0,0,0,.674.2l.292-.076a.434.434,0,0,1,.255-.013,3.839,3.839,0,0,1-.356,3.261,3.992,3.992,0,0,1-2.715,1.494c-.19.032-.413.019-.534.178l.051.076a1.248,1.248,0,0,1,.191,1,2.484,2.484,0,0,1-1.227,1.328,11.676,11.676,0,0,1-2.346.693,5.223,5.223,0,0,1,.572.865l-2.828-.083-1.513-.019a2.047,2.047,0,0,0-.432-.044,2.9,2.9,0,0,1-.623.006,4.137,4.137,0,0,0,.21-.826,2,2,0,0,0-.2-1.03l-.369.172a4.9,4.9,0,0,1,.591-.617,19.74,19.74,0,0,0,1.494-1.684,3.58,3.58,0,0,0,.725-2.1c-.013-.184-.089-.362-.1-.54a6.912,6.912,0,0,0,.032-.725l-.261.089-.031-.1.292-.1a7.373,7.373,0,0,1,.865-1.068C2130.98,1201.824,2131.952,1201.392,2132.111,1200.928Z" transform="translate(-2000.782 -1129.897)" fill="#39add1"/>
      <path id="Trazado_960749" data-name="Trazado 960749" d="M160.62,738.925l.28-.083a5.493,5.493,0,0,0-.248-1.189l-.324-1.608a36.141,36.141,0,0,1-.648-10.844,22.958,22.958,0,0,1,6.973-13.228A58.858,58.858,0,0,1,171.567,708a7.193,7.193,0,0,0,.146,2.212,6.2,6.2,0,0,0,.96,2c.725,1,1.971,1.907,1.99,3.242a2.539,2.539,0,0,1-.47,1.31c-.4.706-.9,1.348-1.3,2.047a6.093,6.093,0,0,0-.845,3.929,5.579,5.579,0,0,0,1.424,2.969,7.242,7.242,0,0,0,1.055.966,9.573,9.573,0,0,0,5.435,1.589,7.9,7.9,0,0,0-.337,1.646,3.461,3.461,0,0,0,.242.693l.7,2.2,1.3,5,.343,1.634a2.671,2.671,0,0,0,.191.814l.025.032-.14.191-.617.928-.6.922-4.049,7.361-.2.521-.121.083-2.962-2.225a7.533,7.533,0,0,0,1.011.839l1.92,1.507a3.455,3.455,0,0,1-.21.61l-.14.3-5.213-.025-.032-1.106-.089-.006a1.954,1.954,0,0,1-.038.744,22.363,22.363,0,0,1-1.856-2.689,4.935,4.935,0,0,1-.992-1.182,5.513,5.513,0,0,0-.718-.954,2.834,2.834,0,0,1-.369-.362c-.153-.248-.394-.394-.54-.623a8.162,8.162,0,0,0-1.182-1.259,5.973,5.973,0,0,1-1.011-1.036l-.076-.172c-.254-.1-.483-.413-.68-.6a4.04,4.04,0,0,0-.642-.483c-.121-.076-.191-.216-.331-.292a6.377,6.377,0,0,1-.521-.407c-.75-.5-1.424-1.163-2.206-1.621l-.083-.051c-.044-.184-.019-.2.064-.362Z" transform="translate(-158.339 -670.576)" fill="#a7e1ee"/>
      <path id="Trazado_960750" data-name="Trazado 960750" d="M467.4,1060.368l.432-4.068,2.7,10.323-.617.928-.6.934c-.407-1.4-.114-3.051-.826-4.393l-.025-.083a2.922,2.922,0,0,0-.248-.68,9.951,9.951,0,0,0-.915-1.748Z" transform="translate(-446.583 -996.736)" fill="#0e999e"/>
      <path id="Trazado_960751" data-name="Trazado 960751" d="M467.4,1120.3a6.7,6.7,0,0,1,.826,1.583,18.684,18.684,0,0,1,.877,2.155c.324,1.125.47,2.333.814,3.446l-.6.934c-.407-1.4-.114-3.051-.826-4.392l-.025-.083a2.916,2.916,0,0,0-.248-.68,9.948,9.948,0,0,0-.915-1.748Z" transform="translate(-446.583 -1056.668)" fill="#036373"/>
      <path id="Trazado_960752" data-name="Trazado 960752" d="M233.5,902.4a14.191,14.191,0,0,1,2.772,3.407,49.842,49.842,0,0,1,3.439,6.649c-.515-.286-1.017-.68-1.507-1.017l-2.663-1.786a6.943,6.943,0,0,1-1.227-.839c-.038-.051-.038-1.685-.044-1.856A17.821,17.821,0,0,0,233.5,902.4Z" transform="translate(-227.646 -852.619)" fill="#0e999e"/>
      <path id="Trazado_960753" data-name="Trazado 960753" d="M419.045,1178.9c.712,1.341.42,2.994.826,4.392l-4.049,7.361-1.322-4.6Z" transform="translate(-397.14 -1111.543)" fill="#0e999e"/>
      <path id="Trazado_960754" data-name="Trazado 960754" d="M163.3,1193l.807.1a4.876,4.876,0,0,1,3.738,1.093,9.681,9.681,0,0,1,.083,1.716,3.331,3.331,0,0,0,.025.909h.064l-.07-2.53a8.843,8.843,0,0,1,2.53,1.812c.4.566,1.03,2.613,1.646,2.772a5.651,5.651,0,0,0,.21-2.009l.127.038a16.431,16.431,0,0,0,1.475,2.835,3.014,3.014,0,0,1,.324.515,4.9,4.9,0,0,1,.006.865l.07,1.354a6.542,6.542,0,0,0,.146,1.882,1.952,1.952,0,0,1-.038.744,22.351,22.351,0,0,1-1.856-2.689,4.93,4.93,0,0,1-.992-1.182,5.516,5.516,0,0,0-.718-.953,2.844,2.844,0,0,1-.369-.362c-.153-.248-.394-.394-.54-.623a8.173,8.173,0,0,0-1.182-1.259,5.977,5.977,0,0,1-1.011-1.036l-.076-.172c-.254-.1-.483-.413-.68-.6a4.036,4.036,0,0,0-.642-.483c-.121-.076-.191-.216-.331-.292a6.411,6.411,0,0,1-.521-.407c-.75-.5-1.424-1.163-2.206-1.621l-.083-.051C163.188,1193.178,163.22,1193.165,163.3,1193Z" transform="translate(-161.828 -1124.747)" fill="#02476c"/>
      <path id="Trazado_960755" data-name="Trazado 960755" d="M238.02,901.418a11.13,11.13,0,0,0-.992,1.538l-1.92,3.108a53.737,53.737,0,0,0-3.229-6.706,21.855,21.855,0,0,0-2.212-3.267A18.466,18.466,0,0,0,227.9,894.4a13.207,13.207,0,0,1,3.2,1.252,26.149,26.149,0,0,1,6.929,5.587Z" transform="translate(-222.402 -845.127)" fill="#0e999e"/>
      <path id="Trazado_960756" data-name="Trazado 960756" d="M387.592,1102.607l.216-.407h.051c.14.515.343.6.655.979l1.062,1.373a9.526,9.526,0,0,1,.915,1.748,2.909,2.909,0,0,1,.248.68c-.439.216-.909,1.125-1.182,1.538L386.149,1114l-1.36-4.45a7.868,7.868,0,0,1-.49-1.526,8.1,8.1,0,0,1,.852-1.3A28.912,28.912,0,0,0,387.592,1102.607Z" transform="translate(-368.859 -1039.718)" fill="#0e999e"/>
      <path id="Trazado_960757" data-name="Trazado 960757" d="M246.366,1006.9l4.583,3.083a4.437,4.437,0,0,1,.852.547,5.315,5.315,0,0,1,.407.883c.432.966.775,1.964,1.132,2.962l1.316,3.655-7.933-4.92A33.265,33.265,0,0,1,246.366,1006.9Z" transform="translate(-239.691 -950.476)" fill="#0e999e"/>
      <path id="Trazado_960758" data-name="Trazado 960758" d="M345.9,1005.5c.222.013.388.292.528.464a11.015,11.015,0,0,1,2.714,5.321l-.318.687c-.578,1.131-1.252,2.206-1.939,3.274a22.777,22.777,0,0,1-1.354,2.015L343,1010.3l2.854-4.717Z" transform="translate(-330.185 -949.165)" fill="#0e999e"/>
      <path id="Trazado_960759" data-name="Trazado 960759" d="M252.6,1107.6l6.636,4.081a5.8,5.8,0,0,1,1.348.928,11.894,11.894,0,0,1,.718,2.1l1.335,4.342L255.982,1115a.967.967,0,0,1-.21-.115,3.956,3.956,0,0,1-.61-.788A15.915,15.915,0,0,1,252.6,1107.6Z" transform="translate(-245.531 -1044.775)" fill="#0e999e"/>
      <path id="Trazado_960760" data-name="Trazado 960760" d="M303.891,1226.262a5.259,5.259,0,0,0-.191-1.862,28.353,28.353,0,0,0,2.466,1.475l3.439,2.117a3.84,3.84,0,0,1,.979.7,5.754,5.754,0,0,1,.305,1.068,36.407,36.407,0,0,1,.973,3.534,2.4,2.4,0,0,1,.019.477l-.121.083-2.962-2.225a7.551,7.551,0,0,0,1.011.839l1.92,1.506a3.461,3.461,0,0,1-.21.61l-.14.3-5.213-.025-.032-1.106-.089-.006a6.543,6.543,0,0,1-.146-1.882l-.07-1.354a4.891,4.891,0,0,0-.006-.865,3.282,3.282,0,0,0-.324-.515,16.9,16.9,0,0,1-1.475-2.835Z" transform="translate(-293.383 -1154.151)" fill="#0e999e"/>
      <path id="Trazado_960761" data-name="Trazado 960761" d="M338.672,1313.033a.316.316,0,0,1,.273-.013l.248.153c.394.267.845.458,1.227.737.153.115.928.553.953.68a7.522,7.522,0,0,0,1.011.839l1.92,1.507a3.47,3.47,0,0,1-.21.61l-.14.3-5.212-.025-.032-1.106a3.513,3.513,0,0,0-.013-.731,6.715,6.715,0,0,1-.051-1.132l-.146-1.723Z" transform="translate(-325.971 -1237.114)" fill="#13396f"/>
      <path id="Trazado_960762" data-name="Trazado 960762" d="M341.2,1313.033a.316.316,0,0,1,.273-.013l.248.153c.394.267.845.458,1.227.737.153.115.928.553.953.68a7.522,7.522,0,0,0,1.011.839l1.92,1.507a3.467,3.467,0,0,1-.21.61c-1.081-.686-2.25-1.163-3.28-1.945a8.244,8.244,0,0,1-1.329-1.335A4.567,4.567,0,0,1,341.2,1313.033Z" transform="translate(-328.5 -1237.114)" fill="#0ea09e"/>
      <path id="Trazado_960763" data-name="Trazado 960763" d="M359.8,360.384a10.217,10.217,0,0,1-1.468-3.941,8.881,8.881,0,0,1,1.7-6.147,8.271,8.271,0,0,1,8.124-3.318,7.64,7.64,0,0,1,1.24.35,4.567,4.567,0,0,0,.68.318c.292,0,.775-.407,1.151-.458a4.928,4.928,0,0,1,3.439,1.2,7.507,7.507,0,0,1,2.638,5.422l-.223.1.114.394.057.445.045-.013.032-.2c.28.013.769.439,1.062.578a6.771,6.771,0,0,0,1.208.413l-.528,3.191a6.131,6.131,0,0,1-.356,1.589c.032,1.748.1,4.049-1.208,5.422-.706.744-2.409.9-3.394.9a6.311,6.311,0,0,1-1.589-.083l.07,2.314c.019.407-.07,1.068.223,1.341a1.419,1.419,0,0,1,.388.311,2.072,2.072,0,0,1-.725,1.462,5.947,5.947,0,0,1-3.846,1.532,9.125,9.125,0,0,0-1.322.051l8.849,8.378,1.354,1.227a3.9,3.9,0,0,1,.623.5,3.3,3.3,0,0,1,.261,1.049l-.076.1-.521-.1-.064.14a35.432,35.432,0,0,1-7.7-3.522l1.646-2.9a10.812,10.812,0,0,1-3.388-.9,7.148,7.148,0,0,1-1.983-2.155,19.53,19.53,0,0,1-1.379-2.219,10.3,10.3,0,0,0-.585-1.316,10.6,10.6,0,0,0-5.613,6.287c-1.2,3.986-.14,7.908.985,11.76a10.218,10.218,0,0,1-1.913.191,9.607,9.607,0,0,1-5.435-1.589,7.582,7.582,0,0,1-1.055-.966,5.578,5.578,0,0,1-1.424-2.969,6.015,6.015,0,0,1,.845-3.928c.4-.7.9-1.341,1.3-2.047a2.6,2.6,0,0,0,.47-1.309c-.019-1.335-1.265-2.231-1.99-3.242a6.136,6.136,0,0,1-.96-2,7.191,7.191,0,0,1-.146-2.212,5.184,5.184,0,0,1,2.7-3.433,4.472,4.472,0,0,1,.756-.795,38.631,38.631,0,0,1,3.833-2.956C357.707,361.872,358.724,361.058,359.8,360.384Z" transform="translate(-336.165 -332.375)" fill="#052059"/>
      <path id="Trazado_960764" data-name="Trazado 960764" d="M391.9,565.788a4.47,4.47,0,0,1,.756-.795,38.669,38.669,0,0,1,3.833-2.956c1.03-.75,2.047-1.557,3.115-2.237l.674.909a5.116,5.116,0,0,1-3.07,2.816Z" transform="translate(-375.977 -531.797)" fill="#a7e1ee"/>
      <path id="Trazado_960765" data-name="Trazado 960765" d="M587.73,729.4a2.515,2.515,0,0,0,.96,1.78l.833.6,8.849,8.378,1.354,1.227a3.906,3.906,0,0,1,.623.5,3.3,3.3,0,0,1,.261,1.049l-.076.1-.521-.1a51.429,51.429,0,0,1-7.437-3.483l1.7-2.988a16.516,16.516,0,0,1-3.375-.8c-1.64-.661-3.515-4.075-4.2-5.657A9.9,9.9,0,0,1,587.73,729.4Z" transform="translate(-558.394 -690.616)" fill="#fefefe"/>
      <path id="Trazado_960766" data-name="Trazado 960766" d="M604.309,618.4a9.648,9.648,0,0,0,4.087,2.168c.534.121,1.081.133,1.608.267l.07,2.314c.019.407-.07,1.068.223,1.341a1.42,1.42,0,0,1,.388.311,2.072,2.072,0,0,1-.725,1.462,5.947,5.947,0,0,1-3.846,1.532,9.159,9.159,0,0,0-1.322.051l-.833-.6a2.5,2.5,0,0,1-.96-1.78c.4-.312,1.074-5.378,1.189-6.185Z" transform="translate(-573.657 -586.672)" fill="#ef9579"/>
      <path id="Trazado_960767" data-name="Trazado 960767" d="M621.821,618.4a9.648,9.648,0,0,0,4.087,2.168c.534.121,1.081.133,1.608.267l.07,2.314c-2.492-.528-4.208-2.079-5.886-3.871Z" transform="translate(-591.169 -586.672)" fill="#cb494d"/>
      <path id="Trazado_960768" data-name="Trazado 960768" d="M563.491,420.764a9.643,9.643,0,0,0,3.547-3.274,6.122,6.122,0,0,0,.718-4.99,35.117,35.117,0,0,0,6.579,2.066l.318.833.114.394.057.445.044-.013.032-.2c.28.013.769.439,1.061.578a6.776,6.776,0,0,0,1.208.413l-.528,3.191a6.131,6.131,0,0,1-.356,1.589c.032,1.748.1,4.049-1.208,5.422-.706.744-2.409.9-3.394.9a6.308,6.308,0,0,1-1.589-.083c-.528-.127-1.074-.146-1.608-.267A9.509,9.509,0,0,1,564.4,425.6l.14-1.106a2.8,2.8,0,0,1-.985.362,3.245,3.245,0,0,1-2.225-.9,2.557,2.557,0,0,1-.947-1.85,1.929,1.929,0,0,1,.534-1.354,1.706,1.706,0,0,1,1.125-.566,1.846,1.846,0,0,1,1.3.623Z" transform="translate(-533.748 -393.86)" fill="#ef9579"/>
      <path id="Trazado_960769" data-name="Trazado 960769" d="M606.941,542.5a2.807,2.807,0,0,1,.75,1.36l-.006.07-.134.083a.9.9,0,0,1-.528-.508,1.55,1.55,0,0,1-.229-.973Z" transform="translate(-577.198 -515.597)" fill="#e17c6c"/>
      <path id="Trazado_960770" data-name="Trazado 960770" d="M672.42,491.3a.445.445,0,0,1,.413.133c-.089.273-.642.356-.877.578a2.31,2.31,0,0,0-.4.61,1.067,1.067,0,0,1-.235.133l-.159-.1a.68.68,0,0,1,.121-.5A1.745,1.745,0,0,1,672.42,491.3Z" transform="translate(-637.478 -467.647)" fill="#052059"/>
      <path id="Trazado_960771" data-name="Trazado 960771" d="M756.6,463.342c-.273.076-.661-.184-.992-.108s-.509.356-.814.47c-.114.045-.14,0-.242-.044l-.057-.165a.842.842,0,0,1,.343-.413,2.04,2.04,0,0,1,1.71-.178Z" transform="translate(-715.527 -440.965)" fill="#052059"/>
      <path id="Trazado_960772" data-name="Trazado 960772" d="M691.048,524.3c.14.006.216-.013.331.083a1.327,1.327,0,0,1,.413.928.6.6,0,0,1-.242.54h-.044a.475.475,0,0,1-.458-.235,1.531,1.531,0,0,1-.222-1.163Z" transform="translate(-655.877 -498.554)" fill="#052059"/>
      <path id="Trazado_960773" data-name="Trazado 960773" d="M775.361,495.638l.241-.038a.89.89,0,0,1,.235.14.868.868,0,0,1,.242.6.9.9,0,0,1-.2.776.693.693,0,0,1-.165.032.457.457,0,0,1-.305-.14,1.092,1.092,0,0,1-.311-.795A.629.629,0,0,1,775.361,495.638Z" transform="translate(-734.818 -471.678)" fill="#052059"/>
      <path id="Trazado_960774" data-name="Trazado 960774" d="M579.6,544.892a.7.7,0,0,1,.515-.292,2.362,2.362,0,0,1,1.24.947,3.1,3.1,0,0,1,.426.89,1.109,1.109,0,0,1-.127.057.681.681,0,0,1-.508-.083,5.356,5.356,0,0,0-.591-.254A9.7,9.7,0,0,1,579.6,544.892Z" transform="translate(-551.745 -517.563)" fill="#c93040"/>
      <path id="Trazado_960775" data-name="Trazado 960775" d="M577.623,550.84a4.458,4.458,0,0,0,.458,1.615,3.034,3.034,0,0,1-.839-.547,3.316,3.316,0,0,1-1.049-2.066.818.818,0,0,1,.222-.642,9.638,9.638,0,0,0,.947,1.265,4.9,4.9,0,0,1,.591.254.682.682,0,0,0,.508.083.557.557,0,0,0,.127-.057,1.33,1.33,0,0,1,0,1.132.556.556,0,0,1-.375.331,3.69,3.69,0,0,1-.14-.7A1.753,1.753,0,0,0,577.623,550.84Z" transform="translate(-548.554 -521.87)" fill="#cb494d"/>
      <path id="Trazado_960776" data-name="Trazado 960776" d="M729,566.789a.414.414,0,0,1,.216,0,2.847,2.847,0,0,1-.419,1.634,1.506,1.506,0,0,1-.947.648,1.772,1.772,0,0,1-1.475-.471,6.961,6.961,0,0,1-.776-1.062A7.308,7.308,0,0,0,729,566.789Z" transform="translate(-688.465 -538.329)" fill="#fefefe"/>
      <path id="Trazado_960777" data-name="Trazado 960777" d="M788.4,468l.032-.2c.28.013.769.439,1.062.578a6.767,6.767,0,0,0,1.208.413l-.528,3.191a6.133,6.133,0,0,1-.356,1.589,22.581,22.581,0,0,0-.464-2.911A23.57,23.57,0,0,0,788.4,468Z" transform="translate(-747.273 -445.645)" fill="#fefefe"/>
      <path id="Trazado_960778" data-name="Trazado 960778" d="M657.211,556.544a1.908,1.908,0,0,1,.782.064,1.457,1.457,0,0,1,.826.82,1.719,1.719,0,0,1-.025,1.221,1.477,1.477,0,0,1-.935.782,2.737,2.737,0,0,1-.82-.064,1.4,1.4,0,0,1-.795-.693,1.445,1.445,0,0,1-.1-1.125A1.847,1.847,0,0,1,657.211,556.544Z" transform="translate(-623.355 -528.738)" fill="#f37e74"/>
      <path id="Trazado_960779" data-name="Trazado 960779" d="M664.491,563.729a1.576,1.576,0,0,1,.6-.038.952.952,0,0,1,.629.464,1.094,1.094,0,0,1,.089.8,1.047,1.047,0,0,1-.61.629,2.022,2.022,0,0,1-.553.032,1.012,1.012,0,0,1-.629-.413,1.006,1.006,0,0,1,.477-1.475Z" transform="translate(-630.654 -535.427)" fill="#e74a4b"/>
      <path id="Trazado_960780" data-name="Trazado 960780" d="M1549.068,509.2l.267,2.981.712,3.75a11.4,11.4,0,0,0,.381,1.456l1.507.223.388.063.229.013a8.954,8.954,0,0,1,3.674,1.5l.381.261a18.14,18.14,0,0,1,2.886,2.473,37.228,37.228,0,0,1,5.759,7.018l-.884.629a12.164,12.164,0,0,0,1.132,1.888l.057.2a48.857,48.857,0,0,1,3.827,6.674,31.539,31.539,0,0,1-5.321,6.776l-3.8,3.77-.9.826-2.524,2.244a6.894,6.894,0,0,1-2.326,1.576,7.3,7.3,0,0,1-1.9.045l-.273-.013a4.935,4.935,0,0,0-2.644.757,3.17,3.17,0,0,1-1.081.235,23.133,23.133,0,0,1-11.27-.636l-1.055-.331.108-7.081.076-4.564c.013-.756.076-1.557.019-2.307a16.681,16.681,0,0,0-.286-1.672l-.1-.2-.89-2.46a9.35,9.35,0,0,0-.591-1.888l.026-.324a4.889,4.889,0,0,1-.274-.737,10.916,10.916,0,0,1-2.415-2.269l-.356-.534a11.589,11.589,0,0,1-.846-1.4,1.278,1.278,0,0,1-.172-.566,30.046,30.046,0,0,1,8.715-8.3,19.753,19.753,0,0,1,2.873-1.3l.343-.1a9.765,9.765,0,0,1,1.208-.356l-.33-1.786-.267-1.487a7.016,7.016,0,0,0,5.689-4.4A1.311,1.311,0,0,1,1549.068,509.2Z" transform="translate(-1442.288 -484.413)" fill="#1db8a9"/>
      <path id="Trazado_960781" data-name="Trazado 960781" d="M1708.024,645.8l.343-.1-.254,6.872a26.766,26.766,0,0,1,2.994-2.244l.07-.013a.986.986,0,0,0,.49-.222l.032.038-.038.083c-.045.1-.038.057-.038.153a3.585,3.585,0,0,1-.763.636l-3.159,2.358Z" transform="translate(-1608.135 -612.236)" fill="url(#linear-gradient-2)"/>
      <path id="Trazado_960782" data-name="Trazado 960782" d="M1594.025,885a10,10,0,0,0,1.684,1.716,6.411,6.411,0,0,0,2.441.884c-.578.534-1.367.744-1.926,1.265-.267.248-.394.877-.649,1.017l-.095-.2-.89-2.46a9.333,9.333,0,0,0-.591-1.888Z" transform="translate(-1501.662 -836.325)" fill="#047a7d"/>
      <path id="Trazado_960783" data-name="Trazado 960783" d="M1674.77,800.6l5.288.985.006.038a5.216,5.216,0,0,1-.5,2.053,3,3,0,0,1-1.246-.114c-1.189-.2-2.447-.394-3.61-.7a.51.51,0,0,1-.413-.311A5.622,5.622,0,0,1,1674.77,800.6Z" transform="translate(-1576.858 -757.29)" fill="#fefefe"/>
      <path id="Trazado_960784" data-name="Trazado 960784" d="M1546.5,683.778a32.205,32.205,0,0,1,6.821-8.925,8.919,8.919,0,0,1,1.068-.953,26.04,26.04,0,0,1-1.939,2.835c-2.053,2.9-3.909,6.179-3.166,9.846a10.923,10.923,0,0,1-2.415-2.269Z" transform="translate(-1457.183 -638.644)" fill="#047a7d"/>
      <path id="Trazado_960785" data-name="Trazado 960785" d="M1721.1,509.2l.267,2.981.712,3.75a11.338,11.338,0,0,0,.381,1.456,2.273,2.273,0,0,1-.6,1.4l-3.274,2.651a10.963,10.963,0,0,0-1.29,1.055,26.774,26.774,0,0,0-2.994,2.244l.254-6.872a9.769,9.769,0,0,1,1.208-.356l-.331-1.786-.267-1.487a7.018,7.018,0,0,0,5.689-4.4A1.311,1.311,0,0,1,1721.1,509.2Z" transform="translate(-1614.316 -484.413)" fill="#ef9579"/>
      <path id="Trazado_960786" data-name="Trazado 960786" d="M1733.489,519.4a6.953,6.953,0,0,1-2.066,4.17,6.719,6.719,0,0,1-3.356,1.716l-.267-1.487a7.019,7.019,0,0,0,5.689-4.4Z" transform="translate(-1626.958 -493.965)" fill="#cb494d"/>
      <path id="Trazado_960787" data-name="Trazado 960787" d="M1766.468,638l1.506.222-.044.025a1.028,1.028,0,0,1-.407.115c-.5.057-.839.521-1.131.9a7.6,7.6,0,0,0-1.259,3.579,5.784,5.784,0,0,0,.057,1.1,11.587,11.587,0,0,0,.318,1.468,14.4,14.4,0,0,0,2.886,4.6l2.886,3.3,1.2,1.373a3.16,3.16,0,0,0,.483.521,1.034,1.034,0,0,0,.375.076l-1.513,4.183a6.518,6.518,0,0,0-.464,1.252,6.214,6.214,0,0,0,.344.75l1.665,3.77.057.1-2.969,4.2-2.136-8a12.664,12.664,0,0,1-3.216.044c.292-.146.674-.184.985-.305a7.27,7.27,0,0,0,2.187-1.443l.49-7.768a6.743,6.743,0,0,0,.032-1.182c-.032-.165-1.742-2.1-2.041-2.536a12.185,12.185,0,0,1-1.57-3.185c-.1-.3-.115-.6-.184-.9a6.752,6.752,0,0,1-.064-1.341,8.124,8.124,0,0,1,.521-2.6,5.812,5.812,0,0,0-1.081.775c-.852.668-1.678,1.411-2.562,2.041,0-.089-.006-.044.038-.152l.038-.083-.032-.038a.989.989,0,0,1-.489.222l-.07.013a10.852,10.852,0,0,1,1.29-1.055l3.274-2.651A2.184,2.184,0,0,0,1766.468,638Z" transform="translate(-1658.329 -605.026)" fill="#047a7d"/>
      <path id="Trazado_960788" data-name="Trazado 960788" d="M1875.048,998.677c.178-.019.2-.038.356.064l-.076.121a7.354,7.354,0,0,1-1.659.362l-.331.013-.038-.114A4.759,4.759,0,0,1,1875.048,998.677Z" transform="translate(-1763.209 -942.762)" fill="#036373"/>
      <path id="Trazado_960789" data-name="Trazado 960789" d="M1824.348,641.6l.388.064.229.013a8.952,8.952,0,0,1,3.674,1.5l.381.261a18.139,18.139,0,0,1,2.886,2.473,37.224,37.224,0,0,1,5.759,7.018l-.884.629-5.257,3.731-.877.642a4.054,4.054,0,0,0-.947.718,1.039,1.039,0,0,1-.375-.076,2.715,2.715,0,0,1-.483-.521l-1.2-1.373-2.886-3.3a14.511,14.511,0,0,1-2.886-4.6,13.6,13.6,0,0,1-.318-1.468,5.775,5.775,0,0,1-.057-1.1,7.623,7.623,0,0,1,1.259-3.579c.292-.375.629-.839,1.131-.9a1.028,1.028,0,0,0,.407-.114Z" transform="translate(-1714.702 -608.397)" fill="#1db8a9"/>
      <path id="Trazado_960790" data-name="Trazado 960790" d="M1979.482,709.3a37.253,37.253,0,0,1,5.759,7.018l-.884.629-5.257,3.731a31.66,31.66,0,0,0,1.411-4.488,10.088,10.088,0,0,0-.3-4.685,10.538,10.538,0,0,0-.4-1.163A2.412,2.412,0,0,1,1979.482,709.3Z" transform="translate(-1862.283 -671.793)" fill="#047a7d"/>
      <path id="Trazado_960791" data-name="Trazado 960791" d="M1785.926,829.6a12.179,12.179,0,0,0,1.132,1.888l.057.2a48.9,48.9,0,0,1,3.827,6.674,31.539,31.539,0,0,1-5.321,6.776l-3.8,3.769-.9.826-2.524,2.244a6.9,6.9,0,0,1-2.327,1.576,7.291,7.291,0,0,1-1.9.044l-.273-.013a4.936,4.936,0,0,0-2.645.757,3.17,3.17,0,0,1-1.08.235c0-1.2,1.659-2,2.32-2.841a11.675,11.675,0,0,0-1.386.89,17.3,17.3,0,0,0-1.4,1.239c-.216.21-.54.623-.858.636-.133-.127-.158-.146-.165-.337a2.154,2.154,0,0,1,.261-.8,5.228,5.228,0,0,1,2.3-2.428c.324-.165.991-.235,1.2-.471-.686-.33-3.737,1.189-4.615,1.284a.753.753,0,0,1-.636-.127l.006-.235a2.1,2.1,0,0,1,.489-.572c1.532-1.373,3.223-1.367,5.13-1.252a16.223,16.223,0,0,0-2.46-.5l-1.576-.178a1.519,1.519,0,0,1-.782-.191l-.013-.185a1.137,1.137,0,0,1,.509-.375c1.92-.8,3.8-.076,5.587.68-.2-.369-.623-1-.559-1.43.025-.172.115-.2.235-.3.763.013,1.265.75,1.6,1.367a3.041,3.041,0,0,0,.419.725l.172-.235,2.969-4.2-.057-.1-1.665-3.769a5.778,5.778,0,0,1-.343-.75,6.5,6.5,0,0,1,.464-1.252l1.513-4.183a4.041,4.041,0,0,1,.947-.718l.877-.642Z" transform="translate(-1663.853 -784.446)" fill="#f2b194"/>
      <path id="Trazado_960792" data-name="Trazado 960792" d="M1971.434,829.6a12.2,12.2,0,0,0,1.131,1.888l.057.2-4.329,1.519a25.684,25.684,0,0,0-2.886.985l-.108-.216.877-.642Z" transform="translate(-1849.361 -784.446)" fill="#f37e74"/>
      <path id="Trazado_960793" data-name="Trazado 960793" d="M1922.322,898.4l.108.216,3.744,4.253-4.71,6.306-.057-.1-1.666-3.77a5.768,5.768,0,0,1-.343-.75,6.513,6.513,0,0,1,.464-1.252l1.513-4.183A3.905,3.905,0,0,1,1922.322,898.4Z" transform="translate(-1806.377 -848.873)" fill="#a7e1ee"/>
      <path id="Trazado_960794" data-name="Trazado 960794" d="M730.829,124.288a36.8,36.8,0,0,1,3.045-2.085,23.338,23.338,0,0,1,15.116-2.613A18.553,18.553,0,0,1,759.3,125.21l.013.051c.458.6.782,1.3,1.233,1.92a9.119,9.119,0,0,0,5.791,3.833,1.331,1.331,0,0,1,.5.1l-1.945,1.481a3.393,3.393,0,0,1-.744.534c.305.985.47,2,.807,2.975a20.739,20.739,0,0,0,4.221,7.215,10.1,10.1,0,0,0,1.608,1.519,6.838,6.838,0,0,0,3.859,3.827,7.776,7.776,0,0,0,2.949.439l.267,1.487.331,1.786a8.775,8.775,0,0,0-1.208.356l-.343.1a19.768,19.768,0,0,0-2.873,1.3,29.966,29.966,0,0,0-8.715,8.3,1.3,1.3,0,0,0,.172.566l-2.9,4.087c-.184-.051-.292-.261-.407-.413l-.21-.343.47-.642a5.328,5.328,0,0,0-.617-1.214l-2.1-3.795a5.8,5.8,0,0,1-2.4.674,4.945,4.945,0,0,1-.75-.1,3.013,3.013,0,0,1-1.411-.426l-.083.064a11.007,11.007,0,0,1-1.354.782l-3.89,2.193a4.39,4.39,0,0,0-1.03.636,2.289,2.289,0,0,0-.191.42,12.083,12.083,0,0,0-.547,1.322,2.453,2.453,0,0,1-.248.687l-.343.032-1.062.369-6.052,2.549c-.979.693-1.793,1.519-2.822,2.161a6.284,6.284,0,0,0-1.138.814.808.808,0,0,1-.127-.165l.782-1.831a8.819,8.819,0,0,0,.4-1.615,15.226,15.226,0,0,1-5.842-1.729L730.2,169.4a7.047,7.047,0,0,1-2.67,2.352,6.45,6.45,0,0,1-1.093.292,3.507,3.507,0,0,1-.737-.909,14.628,14.628,0,0,1-1.354-2.714c-.108-.318-.28-.617-.388-.928a16.422,16.422,0,0,0-4.92-7.386c-.807-.667-2.956-2.32-3.992-2.218a1.531,1.531,0,0,0-.483-.3l-.013.006-.254-.083-.165-.172a1,1,0,0,0-.737-.248c-.292-.273-.2-.934-.222-1.341l-.07-2.314a6.027,6.027,0,0,0,1.589.083c.985-.006,2.689-.159,3.395-.9,1.3-1.373,1.233-3.674,1.208-5.422a6.015,6.015,0,0,0,.356-1.589l.528-3.191a4.617,4.617,0,0,0,3.267-.661,4.972,4.972,0,0,0,2.079-3.382l.044.013a3.331,3.331,0,0,0,.953-.21,9.3,9.3,0,0,0,2.8-1.392,9.083,9.083,0,0,0,3.413-5.893A8.887,8.887,0,0,0,730.829,124.288Z" transform="translate(-676.759 -119.271)" fill="#a7e1ee"/>
      <path id="Trazado_960795" data-name="Trazado 960795" d="M1118.5,655l.165-.114c.356-.216,1.392-.858,1.735-.782a5.426,5.426,0,0,0-.254.769Z" transform="translate(-1056.389 -620.104)" fill="#fefefe"/>
      <path id="Trazado_960796" data-name="Trazado 960796" d="M1285.5,642.2a10.809,10.809,0,0,1,3.986,1.856l-.617,1.163-1.964-1.557a10.345,10.345,0,0,0-1.335-1.081Z" transform="translate(-1212.773 -608.959)" fill="#cb494d"/>
      <path id="Trazado_960797" data-name="Trazado 960797" d="M1433.371,221.37c-.388-.038-.864-.5-1.182-.731a23.583,23.583,0,0,1-3.541-2.892,3.383,3.383,0,0,1-.89-2.568,2.447,2.447,0,0,1,.788-1.678c.458.6.782,1.3,1.233,1.92a9.118,9.118,0,0,0,5.791,3.833,1.33,1.33,0,0,1,.5.1l-1.945,1.481A3.657,3.657,0,0,1,1433.371,221.37Z" transform="translate(-1345.979 -207.51)" fill="#c93040"/>
      <path id="Trazado_960798" data-name="Trazado 960798" d="M1042,484.449a71.849,71.849,0,0,1,3.553-6.249,2.7,2.7,0,0,0,1.64,1.418,2.1,2.1,0,0,0,.953.038,3.894,3.894,0,0,1,.687-.178,10.712,10.712,0,0,0,2.841,4l-.006.439-.439,2.822c-1.494-.2-2.982-.394-4.456-.718a3.17,3.17,0,0,1-1.176-.356l-.013-.305a3.719,3.719,0,0,1-.756-.165.414.414,0,0,1-.2.235Z" transform="translate(-984.752 -455.384)" fill="#052059"/>
      <path id="Trazado_960799" data-name="Trazado 960799" d="M1086.5,547.94a11.32,11.32,0,0,1,1.055-2.74l-.3,2.905A4.467,4.467,0,0,1,1086.5,547.94Z" transform="translate(-1026.423 -518.125)" fill="#fefefe"/>
      <path id="Trazado_960800" data-name="Trazado 960800" d="M1000.978,666.427l1.64-.127a7.5,7.5,0,0,0,.947,5.3,4.259,4.259,0,0,0,1.907,2.187,24.331,24.331,0,0,0,3.744,2.142l-.642,2.295a6.7,6.7,0,0,0-.324,1.348l-6.052,2.549c-.979.693-1.792,1.519-2.822,2.161a6.272,6.272,0,0,0-1.138.814.807.807,0,0,1-.127-.165l.782-1.831a8.809,8.809,0,0,0,.4-1.615,15.228,15.228,0,0,1-5.842-1.729,1.231,1.231,0,0,1-.451-.451,28.12,28.12,0,0,1,2.886-7.927C997.113,669.04,998.334,667.253,1000.978,666.427Z" transform="translate(-938.867 -631.527)" fill="#f37e74"/>
      <path id="Trazado_960801" data-name="Trazado 960801" d="M1075.381,777.566c.432-1.894,1.068-3.782,1.6-5.651l.508-1.837a7.235,7.235,0,0,1,.369-1.278l-.267,9.325c-.979.693-1.793,1.519-2.822,2.161a6.276,6.276,0,0,0-1.138.814.814.814,0,0,1-.127-.165l.782-1.831a8.811,8.811,0,0,0,.4-1.614A1.427,1.427,0,0,1,1075.381,777.566Z" transform="translate(-1014.249 -727.511)" fill="#c93040"/>
      <path id="Trazado_960802" data-name="Trazado 960802" d="M1074.582,905.3a1.714,1.714,0,0,1,.706.089l-.623,2.714a6.285,6.285,0,0,0-1.138.814.828.828,0,0,1-.127-.165l.782-1.831A8.6,8.6,0,0,0,1074.582,905.3Z" transform="translate(-1014.156 -855.334)" fill="#65d1e9"/>
      <path id="Trazado_960803" data-name="Trazado 960803" d="M1145.135,561.2a6.783,6.783,0,0,0,4.8,1.971,3.147,3.147,0,0,0,.648-.115l.07.7.292.057-.241.057a1.691,1.691,0,0,0,.032.668,6.207,6.207,0,0,0,.2,1.812l.069.388a9.918,9.918,0,0,1,1.335,1.081l1.964,1.557.616-1.163.572-.623a4.923,4.923,0,0,1,3.7-1.144,4.487,4.487,0,0,1,2.994,1.735,4.308,4.308,0,0,1,.814,3.191,4.413,4.413,0,0,1-1.64,2.848l-.458.305a5.8,5.8,0,0,1-2.4.674,4.959,4.959,0,0,1-.75-.1,3.013,3.013,0,0,1-1.411-.426l-.083.064a11.029,11.029,0,0,1-1.354.782l-3.89,2.193a4.395,4.395,0,0,0-1.03.636,2.275,2.275,0,0,0-.191.42,12.008,12.008,0,0,0-.547,1.322,2.457,2.457,0,0,1-.248.687l-.343.032-1.062.369a6.608,6.608,0,0,1,.324-1.348l.642-2.295a24.857,24.857,0,0,1-3.744-2.142,4.261,4.261,0,0,1-1.907-2.187,7.5,7.5,0,0,1-.947-5.3,7.186,7.186,0,0,1,.254-.769l.146-.261a3.461,3.461,0,0,1,2.2-1.608,3.156,3.156,0,0,0,.127-.776l.439-2.822Z" transform="translate(-1078.212 -533.108)" fill="#f37e74"/>
      <path id="Trazado_960804" data-name="Trazado 960804" d="M1307.319,665.2l1.964,1.557a5.715,5.715,0,0,0-.3,1.964,3.769,3.769,0,0,1-.674-1.062c-.362-.687-.706-1.367-1.011-2.079Z" transform="translate(-1233.188 -630.497)" fill="#e74a4b"/>
      <path id="Trazado_960805" data-name="Trazado 960805" d="M1159.764,638.2l.038.032c.248.223.394.521.642.75a4.847,4.847,0,0,0,3.191,1.144,3.364,3.364,0,0,0,2.409-.941,3.18,3.18,0,0,1,.312-.343,9.941,9.941,0,0,1,1.335,1.081l-.019.381a5.179,5.179,0,0,1-.267.744,3.612,3.612,0,0,1-2.085,1.913c-1.646.54-3.356-.8-4.666-1.634-.807-.509-1.6-.992-2.454-1.424A3.094,3.094,0,0,1,1159.764,638.2Z" transform="translate(-1093.565 -605.214)" fill="#fefefe"/>
      <path id="Trazado_960806" data-name="Trazado 960806" d="M1183.618,561.2a6.784,6.784,0,0,0,4.8,1.971,3.149,3.149,0,0,0,.648-.115l.07.7.292.057-.241.057a1.691,1.691,0,0,0,.032.668,6.211,6.211,0,0,0,.2,1.812l.07.388a4.033,4.033,0,0,0-.311.343,3.364,3.364,0,0,1-2.409.941,4.844,4.844,0,0,1-3.191-1.144c-.248-.229-.394-.528-.642-.75l-.038-.032a4.218,4.218,0,0,0,.153-.852,3.161,3.161,0,0,0,.127-.775l.439-2.822V561.2Z" transform="translate(-1116.695 -533.108)" fill="#f2b194"/>
      <path id="Trazado_960807" data-name="Trazado 960807" d="M1194.013,561.2a6.783,6.783,0,0,0,4.8,1.971,3.147,3.147,0,0,0,.648-.115l.07.7.292.057-.241.057a1.691,1.691,0,0,0,.032.668,4.534,4.534,0,0,1-.973.07c-2.078-.165-3.356-1.469-4.64-2.962Z" transform="translate(-1127.089 -533.108)" fill="#e17c6c"/>
      <path id="Trazado_960808" data-name="Trazado 960808" d="M1142.217,626.669l.146-.261a3.461,3.461,0,0,1,2.2-1.608,3.581,3.581,0,0,1-.153.852,3.05,3.05,0,0,0-1.557,1.71,6.653,6.653,0,0,0,.769,4.876c.7,1.22,2.295,1.844,3.484,2.517.763.426,1.5.9,2.288,1.271l5.333-3.28a5.513,5.513,0,0,1-.718-1.856,5.738,5.738,0,0,1,.3-1.964l.617-1.163.572-.623a4.925,4.925,0,0,1,3.7-1.144,4.486,4.486,0,0,1,2.994,1.735,4.307,4.307,0,0,1,.814,3.191,4.414,4.414,0,0,1-1.64,2.848l-.458.305a5.8,5.8,0,0,1-2.4.674,4.928,4.928,0,0,1-.75-.1,3.013,3.013,0,0,1-1.411-.426l-.083.064a11.02,11.02,0,0,1-1.354.782l-3.89,2.193a4.4,4.4,0,0,0-1.03.636,2.28,2.28,0,0,0-.191.42,12.059,12.059,0,0,0-.547,1.322,2.455,2.455,0,0,1-.248.687l-.343.032-1.062.369a6.627,6.627,0,0,1,.324-1.348l.642-2.295a24.859,24.859,0,0,1-3.744-2.142,4.261,4.261,0,0,1-1.907-2.187,7.5,7.5,0,0,1-.947-5.3A5.925,5.925,0,0,1,1142.217,626.669Z" transform="translate(-1078.212 -592.665)" fill="#13396f"/>
      <path id="Trazado_960809" data-name="Trazado 960809" d="M1267.5,764.241c1.03-.795,2.225-1.43,3.318-2.136a18.392,18.392,0,0,1,2.2-1.4l.42.362a5.746,5.746,0,0,1-1.208.712l-2.9,1.557A6,6,0,0,1,1267.5,764.241Z" transform="translate(-1195.918 -719.927)" fill="#e17c6c"/>
      <path id="Trazado_960810" data-name="Trazado 960810" d="M1159.1,749.7c1.106,1.437,2.9,2.257,4.462,3.128a9.041,9.041,0,0,1,1.316.775l-.121.426a24.843,24.843,0,0,1-3.744-2.142A4.328,4.328,0,0,1,1159.1,749.7Z" transform="translate(-1094.408 -709.626)" fill="#e74a4b"/>
      <path id="Trazado_960811" data-name="Trazado 960811" d="M1256.681,766.4l.6.419-.082.064a11.063,11.063,0,0,1-1.354.782l-3.89,2.193a4.392,4.392,0,0,0-1.03.636,2.3,2.3,0,0,0-.191.42,12.1,12.1,0,0,0-.547,1.322,2.449,2.449,0,0,1-.248.687l-.343.032.731-2.543a1.483,1.483,0,0,1,.413-.833c.445.013,1.4-.674,1.831-.909l2.905-1.564A5.571,5.571,0,0,0,1256.681,766.4Z" transform="translate(-1179.156 -725.264)" fill="#c93040"/>
      <path id="Trazado_960812" data-name="Trazado 960812" d="M1340.609,650.4a4.428,4.428,0,0,1,3.541-.973,3.818,3.818,0,0,1,2.53,1.526,3.9,3.9,0,0,1-.858,5.5,4.791,4.791,0,0,1-2.79.839,5.74,5.74,0,0,1-2.359-1.011.919.919,0,0,1-.19-.14c-.026-.063.273-.445.241-.655l-.2-.14a2.209,2.209,0,0,0-.458.121l-.045.019a3.519,3.519,0,0,1-.725-2.276A3.822,3.822,0,0,1,1340.609,650.4Z" transform="translate(-1263.153 -615.678)" fill="#e74a4b"/>
      <path id="Trazado_960813" data-name="Trazado 960813" d="M1371.677,686.013l.222-.013a3.629,3.629,0,0,1,.566,1h.941l.1,1.3-1.233.28.1,1.221a3.12,3.12,0,0,1-1.278.2,3.278,3.278,0,0,1-.26-1.163l-1.074.153a3.393,3.393,0,0,1-.515-1.367l1.481-.178-.152-1.119Z" transform="translate(-1291.182 -649.975)" fill="#fefefe"/>
      <path id="Trazado_960814" data-name="Trazado 960814" d="M978.135,275.285a3.731,3.731,0,0,1-1.1-.782,11.337,11.337,0,0,1,.8-2.428l-1.653,1.824a13.778,13.778,0,0,1-2.384-2.288,11.386,11.386,0,0,1,7.285-3.986l-.241-.534a8.191,8.191,0,0,1,.21-6.5,9.784,9.784,0,0,1,5.492-5.13,9.64,9.64,0,0,1,7.679.362c.718.369,1.214.928,1.875,1.341.222.14.674.159.954.286a5.889,5.889,0,0,1,2.867,3.356,8.307,8.307,0,0,1-.229,6.153l-.42.795-.235.4c.3.464.744.852,1.074,1.3.865,1.176,1.926,3.344,1.614,4.818a1.767,1.767,0,0,1-.9,1.125.668.668,0,0,1-.2.076l-.076-.286-.063.108c-.254-.114-.394-.1-.566-.337a2.238,2.238,0,0,1-.235.941l-.108.051a21.532,21.532,0,0,1-5.963.96l-.292-.057-.07-.7a2.834,2.834,0,0,1-.648.114,6.784,6.784,0,0,1-4.8-1.971,10.712,10.712,0,0,1-2.841-4,3.9,3.9,0,0,0-.687.178,2.016,2.016,0,0,1-.953-.038,2.739,2.739,0,0,1-1.64-1.418C980.29,270.975,979.33,273.219,978.135,275.285Z" transform="translate(-920.887 -246.22)" fill="#5271ab"/>
      <path id="Trazado_960815" data-name="Trazado 960815" d="M1384.8,545.754a16.021,16.021,0,0,1,.292-1.754,10.955,10.955,0,0,1,.337,1.983l-.064.108C1385.1,545.977,1384.965,546,1384.8,545.754Z" transform="translate(-1305.761 -517.001)" fill="#fefefe"/>
      <path id="Trazado_960816" data-name="Trazado 960816" d="M1121.1,289.3a.818.818,0,0,1,.42.114.826.826,0,0,1,.14.585c-.229.331-.8.521-1.151.725a5.032,5.032,0,0,0-.82.648,5.228,5.228,0,0,0-.769.865,3.576,3.576,0,0,1-.82,1.068,1.316,1.316,0,0,1-.388,0c-.14-.121-.229-.165-.286-.356a.926.926,0,0,1,.108-.674A6.671,6.671,0,0,1,1121.1,289.3Z" transform="translate(-1055.36 -278.492)" fill="#7195c6"/>
      <path id="Trazado_960817" data-name="Trazado 960817" d="M1139.828,305.19a1.208,1.208,0,0,1,.5.1.774.774,0,0,1,.191.6c-.292.477-1.328.737-1.818,1.036a8.059,8.059,0,0,0-1.85,1.526c-.337.381-.591.985-1.023,1.252a1.706,1.706,0,0,1-.312.07.807.807,0,0,1-.419-.35,1.075,1.075,0,0,1,.127-.712A7.313,7.313,0,0,1,1139.828,305.19Z" transform="translate(-1071.914 -293.371)" fill="#7195c6"/>
      <path id="Trazado_960818" data-name="Trazado 960818" d="M1096.24,355.715a3.149,3.149,0,0,1-.089-1.22,1.829,1.829,0,0,1,.718-1.252,1.547,1.547,0,0,1,1.157-.267c.61.1.89.534,1.22,1,1.875-3.611,5.022-2.816,8.118-4.354a7.88,7.88,0,0,0,1.919-1.29c.312-.305.553-.661.89-.934a.743.743,0,0,1,.432.153,8.545,8.545,0,0,1,.839,1.31,14.566,14.566,0,0,1,1.672,2.975,7.6,7.6,0,0,1,.394,2.555l-.051.617a43.888,43.888,0,0,1,.362,4.481l.2,2.091a5.457,5.457,0,0,1,.1,1.062,21.532,21.532,0,0,1-5.963.96l-.292-.057-.07-.7a2.835,2.835,0,0,1-.648.114,6.784,6.784,0,0,1-4.8-1.971,10.711,10.711,0,0,1-2.841-4,3.9,3.9,0,0,0-.687.178,2.016,2.016,0,0,1-.953-.038A2.68,2.68,0,0,1,1096.24,355.715Z" transform="translate(-1035.439 -332.899)" fill="#f2b194"/>
      <path id="Trazado_960819" data-name="Trazado 960819" d="M1204.532,410.3a.666.666,0,0,1,.426.1l.044.159c-.286.261-.839.267-1.208.413a4.57,4.57,0,0,0-.839.483l-.171.1-.165-.057-.019-.235A3.338,3.338,0,0,1,1204.532,410.3Z" transform="translate(-1135.143 -391.8)" fill="#052059"/>
      <path id="Trazado_960820" data-name="Trazado 960820" d="M1311.54,405.138a2.422,2.422,0,0,1,1.354.146c.248.083.648.286.744.54.051.121-.026.21-.076.318-.261.025-.636-.331-.884-.432-.4-.172-.87-.038-1.239-.21l-.038-.172Z" transform="translate(-1237.027 -386.918)" fill="#052059"/>
      <path id="Trazado_960821" data-name="Trazado 960821" d="M1218.749,445.756a1,1,0,0,1,.388-.006.915.915,0,0,1,.578.515,1.2,1.2,0,0,1-.032.915.86.86,0,0,1-.553.5.675.675,0,0,1-.388-.025.941.941,0,0,1-.515-.553,1.2,1.2,0,0,1,.051-.934A.768.768,0,0,1,1218.749,445.756Z" transform="translate(-1149.709 -424.98)" fill="#052059"/>
      <path id="Trazado_960822" data-name="Trazado 960822" d="M1316.26,438.311a.713.713,0,0,1,.305-.025.772.772,0,0,1,.527.362,1.235,1.235,0,0,1,.1.973,1.179,1.179,0,0,1-.623.706.669.669,0,0,1-.248.032.865.865,0,0,1-.515-.42,1.5,1.5,0,0,1-.083-1.087A.915.915,0,0,1,1316.26,438.311Z" transform="translate(-1241.016 -418)" fill="#052059"/>
      <path id="Trazado_960823" data-name="Trazado 960823" d="M1326.63,479.4a4.912,4.912,0,0,1-.966.083,1.54,1.54,0,0,1-1.106-.426.727.727,0,0,1-.2-.661,1.293,1.293,0,0,1,.585-.737,2.621,2.621,0,0,1,2.111-.076A9.8,9.8,0,0,1,1326.63,479.4Z" transform="translate(-1249.142 -454.635)" fill="#f37e74"/>
      <path id="Trazado_960824" data-name="Trazado 960824" d="M1252.92,531.366a.315.315,0,0,1,.28.038,1.625,1.625,0,0,1-.21.788,2.2,2.2,0,0,1-1.233.953,1.725,1.725,0,0,1-1.367-.3,3.945,3.945,0,0,1-.89-1.36A21.232,21.232,0,0,0,1252.92,531.366Z" transform="translate(-1179.062 -505.156)" fill="#fefefe"/>
      <path id="Trazado_960825" data-name="Trazado 960825" d="M1178.446,481.787a3.75,3.75,0,0,1,1.875.165,1.117,1.117,0,0,1,.61.617.94.94,0,0,1-.121.674,1.956,1.956,0,0,1-1.208.826,3.077,3.077,0,0,1-1.538-.057,1.522,1.522,0,0,1-.839-.674.817.817,0,0,1-.025-.756A1.95,1.95,0,0,1,1178.446,481.787Z" transform="translate(-1111.281 -458.703)" fill="#f37e74"/>
      <path id="Trazado_960826" data-name="Trazado 960826" d="M1285.457,467.1a43.852,43.852,0,0,1,.362,4.481l.2,2.091a5.438,5.438,0,0,1,.1,1.062,21.533,21.533,0,0,1-5.963.96l-.293-.057-.07-.7.82-.311a8.548,8.548,0,0,0,4.291-4.869,9.736,9.736,0,0,0,.42-1.812Z" transform="translate(-1207.436 -444.99)" fill="#052059"/>
      <path id="Trazado_960827" data-name="Trazado 960827" d="M405.031,714.094a1.013,1.013,0,0,1,.737.248l.165.172.254.083.013-.006a1.628,1.628,0,0,1,.483.3c1.036-.1,3.185,1.551,3.992,2.219a16.423,16.423,0,0,1,4.92,7.386c.108.318.28.617.388.928a14.617,14.617,0,0,0,1.354,2.714,3.764,3.764,0,0,0,.737.909,7.1,7.1,0,0,0,1.093-.292,6.948,6.948,0,0,0,2.67-2.352l1.144-1.882a15.337,15.337,0,0,0,5.842,1.729,8.221,8.221,0,0,1-.4,1.615l-.782,1.831a.463.463,0,0,0,.127.165,6.5,6.5,0,0,1,1.138-.814c1.03-.642,1.837-1.475,2.822-2.161l6.052-2.549,1.062-.369.343-.032a2.21,2.21,0,0,0,.248-.686,12.586,12.586,0,0,1,.547-1.322,2.545,2.545,0,0,1,.191-.419,4.386,4.386,0,0,1,1.03-.636l3.89-2.193a9.6,9.6,0,0,0,1.354-.782l.083-.064a3.012,3.012,0,0,0,1.411.426,4.941,4.941,0,0,0,.75.1,5.794,5.794,0,0,0,2.4-.674l2.1,3.795a5.606,5.606,0,0,1,.617,1.214l-.47.642a8.556,8.556,0,0,1-4.507,2.454c.064.585.044,1.227.153,1.793l.9,20.621c-.28.089-.591.165-.858.28l-.07.013c-1.17.235-2.295.68-3.477.9a34.494,34.494,0,0,1-15.72-.706l-2.918-.909-1.672,9.16-1.6,8.423a18.311,18.311,0,0,0-1.958-.045l-3.439-.013-3.019.006a3.443,3.443,0,0,1-1.176-.057l-.083-.7-.006.7a5.619,5.619,0,0,1-1.831.064l-.14-.083a.581.581,0,0,1-.273.07l-17.773-.038-6.573.006c-1.151,0-2.358.076-3.5-.026l.229-.979a24.31,24.31,0,0,1,.807-2.886,1.771,1.771,0,0,0,.146-.426l.42-1.373.979-2.581.14-.3a3.462,3.462,0,0,0,.21-.61l-1.92-1.506a7.089,7.089,0,0,1-1.011-.839l2.962,2.225.121-.083.2-.521,4.043-7.342.6-.928.617-.928.14-.191-.025-.032a2.671,2.671,0,0,1-.191-.814l-.343-1.634-1.3-5.009-.7-2.2a3.47,3.47,0,0,1-.242-.693,7.98,7.98,0,0,1,.337-1.646,10.737,10.737,0,0,0,1.913-.191c-1.119-3.852-2.18-7.768-.979-11.754a10.6,10.6,0,0,1,5.613-6.287,9.581,9.581,0,0,1,.585,1.316,18.992,18.992,0,0,0,1.379,2.219,7.226,7.226,0,0,0,1.983,2.155,10.812,10.812,0,0,0,3.388.9l-1.646,2.9a35.291,35.291,0,0,0,7.7,3.522l.064-.14.521.1.076-.1a3.682,3.682,0,0,0-.261-1.049,3.582,3.582,0,0,0-.623-.5l-1.354-1.227-8.849-8.378a10.125,10.125,0,0,1,1.322-.051,5.98,5.98,0,0,0,3.846-1.532,2.037,2.037,0,0,0,.725-1.462A1.4,1.4,0,0,0,405.031,714.094Z" transform="translate(-368.392 -676.282)" fill="#fefefe"/>
      <path id="Trazado_960828" data-name="Trazado 960828" d="M737.392,969.179a.966.966,0,0,1,.642.025.7.7,0,0,1,.242.515.6.6,0,0,1-.261.464.913.913,0,0,1-.49.038c-.191-.134-.318-.216-.35-.471A.641.641,0,0,1,737.392,969.179Z" transform="translate(-699.297 -915.114)" fill="#052059"/>
      <path id="Trazado_960829" data-name="Trazado 960829" d="M543.379,1298.2l.076.089-.146,2.981c-.159,1.971-.534,4.933.852,6.554a5.875,5.875,0,0,0,4.342,1.793,5.78,5.78,0,0,0,3.973-1.042c1-.9,1.087-2.377,1.144-3.643l.1-4.36.1-.007.038.273c.019,1.507.044,3.045-.064,4.545a7.637,7.637,0,0,1-.362,2.212,3.5,3.5,0,0,1-1.958,1.888,8.12,8.12,0,0,1-5.664-.14,4.461,4.461,0,0,1-2.46-2.4,6.239,6.239,0,0,1-.343-2,46.2,46.2,0,0,1,.248-5.3A4.955,4.955,0,0,1,543.379,1298.2Z" transform="translate(-517.45 -1223.259)" fill="#c7ddf1"/>
      <path id="Trazado_960830" data-name="Trazado 960830" d="M566.725,1300.8l9.071.394-.051,1.227-.648.134-2.778.547a6.944,6.944,0,0,1-1.119.216,5.838,5.838,0,0,1-1.093-.344L566.7,1302Z" transform="translate(-539.666 -1225.694)" fill="#13396f"/>
      <path id="Trazado_960831" data-name="Trazado 960831" d="M478.449,1023.7l1.913,8.74a4.588,4.588,0,0,1,.172,1.1,1.2,1.2,0,0,1-.134.229L479,1035.9l-.025-.032a2.67,2.67,0,0,1-.191-.814l-.343-1.634-1.3-5-.7-2.2a3.467,3.467,0,0,1-.241-.693,7.981,7.981,0,0,1,.337-1.646A10.235,10.235,0,0,0,478.449,1023.7Z" transform="translate(-454.911 -966.208)" fill="#0e999e"/>
      <path id="Trazado_960832" data-name="Trazado 960832" d="M531.252,945.225a5.461,5.461,0,0,1-2.072.28c-2.81-.223-4.876-1.895-6.852-3.738a45.052,45.052,0,0,1-3.42-3.547,43.648,43.648,0,0,1-3.954-5.27c-1.214-1.945-2.263-4.017-3.306-6.058a6.971,6.971,0,0,1-.858-1.793l2.123,3.35a64.693,64.693,0,0,0,9.1,10.724c2.219,2.034,4.946,4.189,8,4.685a1.307,1.307,0,0,0,1.24-.305Z" transform="translate(-487.308 -873.876)" fill="#c7ddf1"/>
      <path id="Trazado_960833" data-name="Trazado 960833" d="M851.349,969.9a17.521,17.521,0,0,1-3.439,7.018,7.984,7.984,0,0,1-2.492,1.583,5.914,5.914,0,0,1-3.045.254,15.955,15.955,0,0,1-1.589-.6l-8.149,4.767a13.612,13.612,0,0,0-2.536,1.4l.006.242-.1-.038-.153-.165-2.416,1,.642,18.746-.006.7a5.631,5.631,0,0,1-1.831.064l-.14-.083.419-17.621.013-1.672,3.363-1.437c2.231-1.062,4.386-2.288,6.522-3.534l4.087-2.454a23.245,23.245,0,0,1,2.238-1.24h.019a2.218,2.218,0,0,0,.992-2.6,2.991,2.991,0,0,0,.776-.61,5.88,5.88,0,0,0,1.227-1.087,1.424,1.424,0,0,1,.2-.261,1.807,1.807,0,0,1,.426-.1c.4-.1.795-.184,1.182-.311a10.194,10.194,0,0,0,2.632-1.379A7.832,7.832,0,0,1,851.349,969.9Z" transform="translate(-782.576 -915.828)" fill="#13396f"/>
      <path id="Trazado_960834" data-name="Trazado 960834" d="M1082.663,982.534a5.887,5.887,0,0,0,1.227-1.087,1.423,1.423,0,0,1,.2-.261,1.813,1.813,0,0,1,.426-.1c.4-.1.795-.184,1.182-.311a10.2,10.2,0,0,0,2.632-1.38l-.6,1.532a2.281,2.281,0,0,1-.21.47c-.852,1.888-2.009,3.84-3.928,4.8l-.706.248a3.624,3.624,0,0,1-2.263-.007.3.3,0,0,0-.159-.064l-.063-.013.006-.076a.447.447,0,0,1,.178.019l.089.019a4.044,4.044,0,0,0,.2-.528l.013-.051h.019a2.218,2.218,0,0,0,.992-2.6A3.419,3.419,0,0,0,1082.663,982.534Z" transform="translate(-1020.711 -924.724)" fill="#c93040"/>
      <path id="Trazado_960835" data-name="Trazado 960835" d="M1130.5,1015.593l.4-4.189a6.86,6.86,0,0,0,3.528-.6C1133.577,1012.688,1132.42,1014.633,1130.5,1015.593Z" transform="translate(-1067.627 -954.128)" fill="#f37e74"/>
      <path id="Trazado_960836" data-name="Trazado 960836" d="M847.648,1217.25,847,1198.5l2.415-1,.153.165.1.038c.165.82.222,1.665.305,2.5l.369,3.661a12.357,12.357,0,0,1,.254,3.153l-.006.051,1.335,10.927-3.019.006a3.447,3.447,0,0,1-1.176-.057Z" transform="translate(-802.147 -1128.96)" fill="#fefefe"/>
      <path id="Trazado_960837" data-name="Trazado 960837" d="M876.922,1200.1l.1.038c.165.82.222,1.665.305,2.5l.369,3.661a12.359,12.359,0,0,1,.254,3.153l-.006.051-.388-3.223c-.337.369-.705,1.1-1.138,1.278l-.178-.108c-.242-.744,1-1.348,1.214-1.977a6.015,6.015,0,0,0-.153-1.354C877.145,1202.782,876.98,1201.441,876.922,1200.1Z" transform="translate(-829.502 -1131.395)" fill="#052059"/>
      <path id="Trazado_960838" data-name="Trazado 960838" d="M620.036,714.094a1.013,1.013,0,0,1,.737.248l.165.172.254.083.013-.006a1.625,1.625,0,0,1,.483.3l2.269,2.543a10.879,10.879,0,0,1,1.6,1.951l-.674,1.786a9.023,9.023,0,0,0,2.2,1.144l-1.011,2.994a6.748,6.748,0,0,0-.623,1.882c.032.687.432,1.462.54,2.174l1.151,8,2.93-1.526,1.475-.757,5.034-2.848a9.114,9.114,0,0,0,1.354-.75l2.384-1.4a4.052,4.052,0,0,1,.82-.426c.153.006.394.528.629.5.337-.038.407-.28.82-.235a4.747,4.747,0,0,1,2.485,2.778,7.4,7.4,0,0,1,.286,1.392,3.133,3.133,0,0,1-.776.61,9.754,9.754,0,0,1-1.265-1.805l-2.212-3.032L630.3,736a23.265,23.265,0,0,1-3.49,1.7,3.667,3.667,0,0,1-1.29-.833,44.221,44.221,0,0,1-3.839-4.659l-5.727-7.348-1.78-2.015c-.172-.184-.769-.731-.769-.947a36.3,36.3,0,0,1,3.757,4.208l4.011,5.123,3.108,3.922a10.2,10.2,0,0,0,2.638,2.4l-1.176-8.238a2.042,2.042,0,0,0-.108-.432l-.667-.146.064-.14.521.1.076-.1a3.686,3.686,0,0,0-.261-1.049,3.588,3.588,0,0,0-.623-.5l-1.354-1.227-8.855-8.378a10.126,10.126,0,0,1,1.322-.051,5.98,5.98,0,0,0,3.846-1.532,2.037,2.037,0,0,0,.725-1.462A1.4,1.4,0,0,0,620.036,714.094Z" transform="translate(-583.397 -676.282)" fill="#1db8a9"/>
      <path id="Trazado_960839" data-name="Trazado 960839" d="M731.9,720.7l.254.083.013-.006.394.439c.331.375,3.63,4.151,3.687,4.373.032.114-.7,1.647-.718,2l2.212,1.087-1.437,4L734.76,727.7c-.445-1.373-1.023-2.708-1.551-4.049A16.4,16.4,0,0,0,731.9,720.7Z" transform="translate(-694.364 -682.469)" fill="#fefefe"/>
      <path id="Trazado_960840" data-name="Trazado 960840" d="M743.7,726.434c1.036-.1,3.185,1.551,3.992,2.218a16.422,16.422,0,0,1,4.92,7.386c.108.318.28.617.388.928a14.616,14.616,0,0,0,1.354,2.714,3.761,3.761,0,0,0,.737.909,7.105,7.105,0,0,0,1.093-.292,6.948,6.948,0,0,0,2.67-2.352L760,736.064a15.339,15.339,0,0,0,5.842,1.729,8.215,8.215,0,0,1-.4,1.615l-.782,1.831a.461.461,0,0,0,.127.165l-.191.063c-.413-.044-.483.2-.82.235-.241.032-.477-.5-.629-.5a3.749,3.749,0,0,0-.82.426l-2.384,1.4a10.438,10.438,0,0,1-1.354.75l-5.034,2.848-1.475.756-2.93,1.526-1.151-8c-.108-.712-.509-1.488-.54-2.174a6.3,6.3,0,0,1,.623-1.882l1.011-2.994a8.91,8.91,0,0,1-2.2-1.144l.674-1.786a10.163,10.163,0,0,0-1.6-1.952Z" transform="translate(-705.414 -687.834)" fill="#fefefe"/>
      <path id="Trazado_960841" data-name="Trazado 960841" d="M983.244,878.1a15.34,15.34,0,0,0,5.842,1.729,8.218,8.218,0,0,1-.4,1.615,9.207,9.207,0,0,1-6.586-1.462Z" transform="translate(-928.659 -829.864)" fill="#f2b194"/>
      <path id="Trazado_960842" data-name="Trazado 960842" d="M837.992,844l-.044-.464c-.121-.375-.051-.814-.153-1.163-.222-.756-.2-1.627-.375-2.4a6.552,6.552,0,0,0-.121-1.011c-.172-.394-.064-1-.235-1.4-.051-.115-.013-.2-.044-.305-.2-.706-.222-1.551-.464-2.25-.057-.172-.051-.324-.115-.483-.108-.292-.108-.617-.2-.909-.064-.21-.089-.419-.152-.623-.089-.286-.127-.572-.235-.852a5.244,5.244,0,0,1-.133-.521.318.318,0,0,1,.019-.216h.076l.509,1.589c.153.394.184.839.311,1.24.108.331.121.687.235,1.011.172.5.165,1.055.311,1.551.051.178.045.394.108.547.051.114.013.2.044.305.1.356.134.725.223,1.087.032.134-.013.254.045.394.038.083.032.051.038.127l.006.178a5.233,5.233,0,0,0,1.78,2.447c1.519,1.1,3.642.464,5.327.21l-5.035,2.848-1.481.75C838.227,845.111,838.05,844.565,837.992,844Z" transform="translate(-791.576 -786.132)" fill="#c7ddf1"/>
      <path id="Trazado_960843" data-name="Trazado 960843" d="M871.6,1025.573l.267-.273a5.514,5.514,0,0,1,.661.61,6.992,6.992,0,0,0,.788.585l-1.468.763C871.835,1026.686,871.657,1026.139,871.6,1025.573Z" transform="translate(-825.183 -967.706)" fill="#a7e1ee"/>
      <path id="Trazado_960844" data-name="Trazado 960844" d="M889.006,1106.307l-.006-.241a13.606,13.606,0,0,1,2.536-1.4l8.149-4.767c.54.216,1.023.432,1.589.6l-1.6,8.4.248.178-1.672,9.16-1.6,8.422a18.325,18.325,0,0,0-1.958-.044l-3.439-.013-1.335-10.927.006-.051a12.367,12.367,0,0,0-.254-3.153l-.369-3.661C889.222,1107.973,889.172,1107.127,889.006,1106.307Z" transform="translate(-841.477 -1037.564)" fill="#a7e1ee"/>
      <path id="Trazado_960845" data-name="Trazado 960845" d="M1079,771.374a5.8,5.8,0,0,0,2.4-.674l2.1,3.795a5.6,5.6,0,0,1,.617,1.214l-.47.642a8.556,8.556,0,0,1-4.507,2.454c.063.585.044,1.227.152,1.792l.9,20.621c-.28.089-.591.165-.858.28l-.07.013c-1.17.235-2.295.68-3.477.9a34.494,34.494,0,0,1-15.72-.706l-2.918-.909-.248-.178,1.6-8.4a6.053,6.053,0,0,0,3.045-.254,7.985,7.985,0,0,0,2.492-1.583,17.477,17.477,0,0,0,3.439-7.018,7.123,7.123,0,0,0-1.157.6,10.3,10.3,0,0,1-2.632,1.379c-.388.127-.782.223-1.182.312a.57.57,0,0,0-.629.356,5.723,5.723,0,0,1-1.227,1.087,7.4,7.4,0,0,0-.286-1.392,4.765,4.765,0,0,0-2.485-2.778l.191-.064a6.517,6.517,0,0,1,1.138-.814c1.03-.642,1.837-1.475,2.822-2.161l6.052-2.549,1.062-.369.343-.032a2.207,2.207,0,0,0,.248-.687,12.6,12.6,0,0,1,.547-1.322,2.532,2.532,0,0,1,.191-.42,4.39,4.39,0,0,1,1.03-.636l3.89-2.193a9.6,9.6,0,0,0,1.354-.782l.083-.064a3.013,3.013,0,0,0,1.411.426A4.11,4.11,0,0,0,1079,771.374Z" transform="translate(-998.704 -729.291)" fill="#f37e74"/>
      <path id="Trazado_960846" data-name="Trazado 960846" d="M1398.788,771.374a5.794,5.794,0,0,0,2.4-.674l2.1,3.795a5.611,5.611,0,0,1,.616,1.214l-.47.642a8.557,8.557,0,0,1-4.507,2.454,10.9,10.9,0,0,1-.172-1.837l-.356-4.729A3.634,3.634,0,0,0,1398.788,771.374Z" transform="translate(-1318.497 -729.291)" fill="#c93040"/>
      <path id="Trazado_960847" data-name="Trazado 960847" d="M1068.183,964.7a9.719,9.719,0,0,1-.737,2.638c-.979,2.587-2.441,5.759-4.551,7.6a6.851,6.851,0,0,1-1.093.763,4.8,4.8,0,0,0-.718.381c-.032.038-.953,6.395-1,7.005l-.013.293-2.918-.909-.248-.178,1.6-8.4a6.053,6.053,0,0,0,3.045-.254,7.977,7.977,0,0,0,2.492-1.583,17.478,17.478,0,0,0,3.439-7.018Z" transform="translate(-998.704 -910.958)" fill="#c93040"/>
      <path id="Trazado_960848" data-name="Trazado 960848" d="M1126.254,1081.883a7.982,7.982,0,0,0,2.492-1.583,6.811,6.811,0,0,1-2.746,2.969A11.279,11.279,0,0,1,1126.254,1081.883Z" transform="translate(-1063.412 -1019.211)" fill="#f37e74"/>
      <path id="Trazado_960849" data-name="Trazado 960849" d="M1083.914,868.9a.606.606,0,0,1,.439.324c0,.133.038.2-.064.3a2.525,2.525,0,0,1-1.163.687l-.013.025a1.3,1.3,0,0,1-.051.464c.267-.121.725-.381,1.024-.286a.888.888,0,0,1,.318.261c.032.127.077.184.013.305-.171.318-.731.547-1.049.718l-2.676,1.443.038.115c.2.045.381-.121.566-.21.47-.223,2.657-1.424,3.045-1.163a1.527,1.527,0,0,1,.178.216c.019.241.064.369-.114.559a5.194,5.194,0,0,1-1.468.9,2.167,2.167,0,0,0-.686.394l.114.114.076-.038a1.524,1.524,0,0,1,.928-.165c.146.222.165.216.114.477a2.817,2.817,0,0,1-.877.642l-.706.331a7.1,7.1,0,0,0-1.157.6,10.3,10.3,0,0,1-2.632,1.379c-.388.127-.782.223-1.182.312a.569.569,0,0,0-.629.356,5.721,5.721,0,0,1-1.227,1.087,7.413,7.413,0,0,0-.286-1.392,4.766,4.766,0,0,0-2.485-2.778l.191-.063a6.5,6.5,0,0,1,1.138-.814c1.03-.642,1.837-1.475,2.822-2.161l6.052-2.549,1.062-.369Z" transform="translate(-1013.126 -821.248)" fill="#f2b194"/>
      <path id="Trazado_960850" data-name="Trazado 960850" d="M1191.833,889.9a1.285,1.285,0,0,1-.051.464,6.218,6.218,0,0,0-1.468.642,14.5,14.5,0,0,1-1.913.737,10.816,10.816,0,0,1,2.517-1.386C1191.229,890.212,1191.515,890.04,1191.833,889.9Z" transform="translate(-1121.846 -840.914)" fill="#cb494d"/>
    </g>
  </g>
</svg>
