<svg xmlns="http://www.w3.org/2000/svg" width="80" height="80" viewBox="0 0 80 80">
  <g id="Grupo_1114634" data-name="Grupo 1114634" transform="translate(-704.668 -6155)">
    <rect id="Rectángulo_402033" data-name="Rectángulo 402033" width="80" height="80" rx="8" transform="translate(704.668 6155)" fill="#0042db"/>
    <g id="Grupo_1117464" data-name="Grupo 1117464" transform="translate(713.308 6163.582)">
      <g id="Grupo_1117462" data-name="Grupo 1117462">
        <g id="Grupo_1117438" data-name="Grupo 1117438">
          <path id="Trazado_959622" data-name="Trazado 959622" d="M58.78,59.28,59,61H43l-.23-.94a12.643,12.643,0,0,0-2.25-4.63l.01-.01A10.027,10.027,0,0,1,46,51l.52,2.06a2.555,2.555,0,0,0,4.96,0L52,51a10.008,10.008,0,0,1,6.78,8.28Z" fill="#ef7385"/>
        </g>
        <g id="Grupo_1117439" data-name="Grupo 1117439">
          <path id="Trazado_959623" data-name="Trazado 959623" d="M21.48,55.43a12.643,12.643,0,0,0-2.25,4.63L19,61H3l.22-1.72a10.013,10.013,0,0,1,2.19-5.12,10.117,10.117,0,0,1,2.85-2.39L10,57l3-2,3,2,1.74-5.23A9.956,9.956,0,0,1,21.48,55.43Z" fill="#fcd770"/>
        </g>
        <g id="Grupo_1117440" data-name="Grupo 1117440">
          <path id="Trazado_959624" data-name="Trazado 959624" d="M17.74,51.77,16,57l-3-2-3,2L8.26,51.77A9.688,9.688,0,0,1,10,51l3,3,3-3A9.688,9.688,0,0,1,17.74,51.77Z" fill="#fcd770"/>
        </g>
        <g id="Grupo_1117441" data-name="Grupo 1117441">
          <path id="Trazado_959625" data-name="Trazado 959625" d="M42.77,60.06,43,61H19l.23-.94a12.643,12.643,0,0,1,2.25-4.63,11.56,11.56,0,0,1,.92-1.07,12.531,12.531,0,0,1,3.82-2.69L28,57l3-2,3,2,1.78-5.33a12.472,12.472,0,0,1,4.74,3.76,12.643,12.643,0,0,1,2.25,4.63Z" fill="#e6e9ed"/>
        </g>
        <g id="Grupo_1117442" data-name="Grupo 1117442">
          <path id="Trazado_959626" data-name="Trazado 959626" d="M35.78,51.67,34,57l-3-2-3,2-1.78-5.33A11.857,11.857,0,0,1,28,51l3,3,3-3A11.858,11.858,0,0,1,35.78,51.67Z" fill="#ef7385"/>
        </g>
        <g id="Grupo_1117443" data-name="Grupo 1117443">
          <path id="Trazado_959627" data-name="Trazado 959627" d="M51.23,48.69,52,51l-.52,2.06a2.555,2.555,0,0,1-4.96,0L46,51l.77-2.31v-.01a7.93,7.93,0,0,0,4.46,0Z" fill="#f5e0cd"/>
        </g>
        <g id="Grupo_1117444" data-name="Grupo 1117444">
          <path id="Trazado_959628" data-name="Trazado 959628" d="M33.23,48.69,34,51l-3,3-3-3,.77-2.31v-.01a7.93,7.93,0,0,0,4.46,0Z" fill="#f5e0cd"/>
        </g>
        <g id="Grupo_1117445" data-name="Grupo 1117445">
          <path id="Trazado_959629" data-name="Trazado 959629" d="M15.23,48.69,16,51l-3,3-3-3,.77-2.31v-.01a7.93,7.93,0,0,0,4.46,0Z" fill="#f5e0cd"/>
        </g>
        <g id="Grupo_1117446" data-name="Grupo 1117446">
          <path id="Trazado_959630" data-name="Trazado 959630" d="M57,35.39V41a7.991,7.991,0,0,1-5.77,7.68,7.93,7.93,0,0,1-4.46,0,8,8,0,0,1-5.52-5.7,1.915,1.915,0,0,0,1.16-.57A1.955,1.955,0,0,0,43,41a2.006,2.006,0,0,0-2-2l.23-.35a10.511,10.511,0,0,0,1.74-5.07L49,31l6.7,2.51A2.014,2.014,0,0,1,57,35.39Z" fill="#f5e0cd"/>
        </g>
        <g id="Grupo_1117447" data-name="Grupo 1117447">
          <path id="Trazado_959631" data-name="Trazado 959631" d="M41,39a2.006,2.006,0,0,1,2,2,1.955,1.955,0,0,1-.59,1.41,1.915,1.915,0,0,1-1.16.57A1.948,1.948,0,0,1,41,43H38.75A8.239,8.239,0,0,0,39,41V39Z" fill="#f5e0cd"/>
        </g>
        <g id="Grupo_1117448" data-name="Grupo 1117448">
          <path id="Trazado_959632" data-name="Trazado 959632" d="M39,39v2a8.239,8.239,0,0,1-.25,2,8.028,8.028,0,0,1-5.52,5.68,7.93,7.93,0,0,1-4.46,0,8.005,8.005,0,0,1-3.43-2.02A8.122,8.122,0,0,1,23.25,43,8.239,8.239,0,0,1,23,41V37.24a4.243,4.243,0,0,1,7.24-3L31,35l.76-.76a4.24,4.24,0,0,1,7.24,3Z" fill="#f5e0cd"/>
        </g>
        <g id="Grupo_1117449" data-name="Grupo 1117449">
          <path id="Trazado_959633" data-name="Trazado 959633" d="M23.25,43H21a1.948,1.948,0,0,1-.25-.02,1.915,1.915,0,0,1-1.16-.57A1.955,1.955,0,0,1,19,41a2.006,2.006,0,0,1,2-2h2v2A8.239,8.239,0,0,0,23.25,43Z" fill="#f5e0cd"/>
        </g>
        <g id="Grupo_1117450" data-name="Grupo 1117450">
          <path id="Trazado_959634" data-name="Trazado 959634" d="M20.77,38.65,21,39a2.006,2.006,0,0,0-2,2,1.955,1.955,0,0,0,.59,1.41,1.915,1.915,0,0,0,1.16.57,8,8,0,0,1-5.52,5.7,7.93,7.93,0,0,1-4.46,0,8.005,8.005,0,0,1-3.43-2.02A8.122,8.122,0,0,1,5.25,43,8.239,8.239,0,0,1,5,41V37.59a4.61,4.61,0,0,1,5.41-4.52l8.76,1.6a10.6,10.6,0,0,0,1.6,3.98Z" fill="#f5e0cd"/>
        </g>
        <g id="Grupo_1117451" data-name="Grupo 1117451">
          <path id="Trazado_959635" data-name="Trazado 959635" d="M5.25,43H3a1.955,1.955,0,0,1-1.41-.59A1.955,1.955,0,0,1,1,41a2.006,2.006,0,0,1,2-2H5v2A8.239,8.239,0,0,0,5.25,43Z" fill="#f5e0cd"/>
        </g>
        <g id="Grupo_1117452" data-name="Grupo 1117452">
          <path id="Trazado_959636" data-name="Trazado 959636" d="M61,35V46.17a10.3,10.3,0,0,1-4.18,8.28A10,10,0,0,0,52,51l-.77-2.31v-.01A7.991,7.991,0,0,0,57,41V35.39a2.014,2.014,0,0,0-1.3-1.88L49,31V24.05A8.268,8.268,0,0,1,50,24,10.994,10.994,0,0,1,61,35Z" fill="#d3a06c"/>
        </g>
        <g id="Grupo_1117453" data-name="Grupo 1117453">
          <path id="Trazado_959637" data-name="Trazado 959637" d="M49,24.05V31l-6.03,2.58c.02-.26.03-.51.03-.77a11.753,11.753,0,0,0-1.18-5.16,10.879,10.879,0,0,1,2.8-2.24A10.751,10.751,0,0,1,49,24.05Z" fill="#d3a06c"/>
        </g>
        <g id="Grupo_1117454" data-name="Grupo 1117454">
          <path id="Trazado_959638" data-name="Trazado 959638" d="M7.02,25A2.275,2.275,0,0,1,7,24.74,1.741,1.741,0,0,1,8.74,23a20.753,20.753,0,0,1,8.24,1.71,21.526,21.526,0,0,1,3.23,1.76l.45.3A11.781,11.781,0,0,0,19,32.81a10.462,10.462,0,0,0,.17,1.86l-8.76-1.6A4.61,4.61,0,0,0,5,37.59V39H3L1.8,37.2a4.774,4.774,0,0,1,1.33-6.62L4,30,1.64,28.43a1.448,1.448,0,0,1,.57-2.63L7,25Z" fill="#d3a06c"/>
        </g>
        <g id="Grupo_1117455" data-name="Grupo 1117455">
          <path id="Trazado_959639" data-name="Trazado 959639" d="M47,17a15.976,15.976,0,0,1-2.38,8.41,10.879,10.879,0,0,0-2.8,2.24,11.523,11.523,0,0,0-1.04-1.75l-.73-1.02a12,12,0,1,0-18.1,0l-.73,1.02a9.9,9.9,0,0,0-.56.87l-.45-.3a21.526,21.526,0,0,0-3.23-1.76A16,16,0,1,1,47,17Z" fill="#e6e9ed"/>
        </g>
        <g id="Grupo_1117456" data-name="Grupo 1117456">
          <path id="Trazado_959640" data-name="Trazado 959640" d="M39,17a8,8,0,0,1-5.34,7.55L31,21a4,4,0,1,0-4-4,4,4,0,0,0,4,4l-2.66,3.55A8,8,0,1,1,39,17Z" fill="#e6e9ed"/>
        </g>
        <g id="Grupo_1117457" data-name="Grupo 1117457">
          <path id="Trazado_959641" data-name="Trazado 959641" d="M43,17a11.935,11.935,0,0,1-2.95,7.88L38,22l-4,3-.34-.45a8,8,0,1,0-5.32,0L28,25l-4-3-2.05,2.88A12,12,0,1,1,43,17Z" fill="#ef7385"/>
        </g>
        <g id="Grupo_1117458" data-name="Grupo 1117458">
          <path id="Trazado_959642" data-name="Trazado 959642" d="M52,41l-.51,2.06a2.568,2.568,0,0,1-4.98,0L46,41Z" fill="#ef7385"/>
        </g>
        <g id="Grupo_1117459" data-name="Grupo 1117459">
          <path id="Trazado_959643" data-name="Trazado 959643" d="M28.34,24.55,31,21l2.66,3.55L34,25l4-3,2.05,2.88.73,1.02a11.523,11.523,0,0,1,1.04,1.75A11.753,11.753,0,0,1,43,32.81c0,.26-.01.51-.03.77a10.511,10.511,0,0,1-1.74,5.07L41,39H39V37.24a4.243,4.243,0,0,0-7.24-3L31,35l-.76-.76a4.243,4.243,0,0,0-7.24,3V39H21l-.23-.35a10.6,10.6,0,0,1-1.6-3.98A10.462,10.462,0,0,1,19,32.81a11.781,11.781,0,0,1,1.66-6.04,9.9,9.9,0,0,1,.56-.87l.73-1.02L24,22l4,3Z" fill="#fcd770"/>
        </g>
        <g id="Grupo_1117460" data-name="Grupo 1117460">
          <circle id="Elipse_13620" data-name="Elipse 13620" cx="4" cy="4" r="4" transform="translate(27 13)" fill="#ef7385"/>
        </g>
        <g id="Grupo_1117461" data-name="Grupo 1117461">
          <path id="Trazado_959644" data-name="Trazado 959644" d="M16,41l-.51,2.06a2.568,2.568,0,0,1-4.98,0L10,41Z" fill="#ef7385"/>
        </g>
      </g>
      <g id="Grupo_1117463" data-name="Grupo 1117463">
        <circle id="Elipse_13621" data-name="Elipse 13621" cx="1" cy="1" r="1" transform="translate(26 38)"/>
        <circle id="Elipse_13622" data-name="Elipse 13622" cx="1" cy="1" r="1" transform="translate(34 38)"/>
        <circle id="Elipse_13623" data-name="Elipse 13623" cx="1" cy="1" r="1" transform="translate(8 36)"/>
        <circle id="Elipse_13624" data-name="Elipse 13624" cx="1" cy="1" r="1" transform="translate(16 36)"/>
        <path id="Trazado_959645" data-name="Trazado 959645" d="M33,42.764a2.236,2.236,0,0,1-4,0l-.1-.211-1.789.9.1.211a4.236,4.236,0,0,0,7.578,0l.1-.211-1.789-.9Z"/>
        <path id="Trazado_959646" data-name="Trazado 959646" d="M45.545,43.3a3.561,3.561,0,0,0,6.91,0L53.28,40H44.72ZM50.72,42l-.2.817a1.563,1.563,0,0,1-3.032,0L47.28,42Z"/>
        <path id="Trazado_959647" data-name="Trazado 959647" d="M16.455,43.3,17.28,40H8.72l.825,3.3a3.561,3.561,0,0,0,6.91,0Zm-4.971-.485L11.28,42h3.439l-.2.817a1.562,1.562,0,0,1-3.031,0Z"/>
        <path id="Trazado_959648" data-name="Trazado 959648" d="M52.586,38a4.384,4.384,0,0,0,3.121-1.293l-1.414-1.414A2.4,2.4,0,0,1,52.586,36h-.172a2.4,2.4,0,0,1-1.707-.707l-1.414,1.414A4.384,4.384,0,0,0,52.414,38Z"/>
        <path id="Trazado_959649" data-name="Trazado 959649" d="M62,46.169V35A11.949,11.949,0,0,0,46.712,23.476a17,17,0,1,0-31.632-.53A21.676,21.676,0,0,0,8.743,22a2.745,2.745,0,0,0-2.672,2.141l-4.026.671a2.447,2.447,0,0,0-.955,4.45l1.123.748A5.772,5.772,0,0,0,.97,37.757l.464.7A2.992,2.992,0,0,0,3,44H4.525a9.041,9.041,0,0,0,4.989,5.3l-.309.927a11.091,11.091,0,0,0-6.981,8.928L1.867,62H60.133l-.356-2.849a10.975,10.975,0,0,0-1.636-4.5A11.338,11.338,0,0,0,62,46.169ZM50.959,51.041l-.445,1.778a1.561,1.561,0,0,1-3.029,0l-.445-1.776.393-1.179a8.731,8.731,0,0,0,3.131-.007Zm-38.929,3.4-1.5,1L9.485,52.294c.092-.041.186-.078.279-.116Zm4.219-2.279c.091.037.182.073.272.113l-1.055,3.163-1.5-1Zm.546-1.941-.31-.929a8.981,8.981,0,0,0,5-5.295h1.039a9.044,9.044,0,0,0,4.989,5.3l-.3.9a13.614,13.614,0,0,0-5.647,3.6A11.011,11.011,0,0,0,16.8,50.224Zm10.945,1.93,2.29,2.29-1.5,1L27.47,52.25c.09-.032.179-.065.27-.1Zm6.52,0c.091.031.18.064.269.1l-1.064,3.191-1.5-1Zm-1.4-1.424L31,52.586,29.144,50.73l.292-.875a8.507,8.507,0,0,0,3.128,0ZM31,48a7.009,7.009,0,0,1-7-7V37.242a3.243,3.243,0,0,1,5.535-2.293L31,36.414l1.465-1.465A3.243,3.243,0,0,1,38,37.242V41A7.009,7.009,0,0,1,31,48Zm3.758-16a5.209,5.209,0,0,0-3.707,1.535L31,33.586l-.051-.051A5.242,5.242,0,0,0,22,37.242V38h-.455A9.5,9.5,0,0,1,20,32.813a10.834,10.834,0,0,1,2.029-6.333l2.189-3.065L27.4,25.8a1,1,0,0,0,1.4-.2L31,22.667,33.2,25.6a1,1,0,0,0,1.4.2l3.182-2.386,2.189,3.065A10.825,10.825,0,0,1,42,32.813,9.5,9.5,0,0,1,40.455,38H40v-.758A5.249,5.249,0,0,0,34.758,32ZM21,42a1,1,0,0,1,0-2h1v1a8.935,8.935,0,0,0,.059,1ZM33.995,23.327l-1.245-1.66a5,5,0,1,0-3.5,0L28,23.327a7,7,0,1,1,5.99,0ZM31,20a3,3,0,1,1,3-3A3,3,0,0,1,31,20Zm9,21V40h1a1,1,0,0,1,0,2H39.941A8.935,8.935,0,0,0,40,41ZM38.819,21.427a9,9,0,1,0-15.638,0l-1.26,1.764a11,11,0,1,1,18.158,0ZM25.644,53.094l1.822,5.464L31,56.2l3.534,2.356,1.822-5.464A11.626,11.626,0,0,1,41.7,60H20.3a11.629,11.629,0,0,1,5.342-6.906Zm14.789.705a13.616,13.616,0,0,0-5.647-3.6l-.3-.9A9.041,9.041,0,0,0,39.475,44h1.039a8.986,8.986,0,0,0,5,5.3l-.31.929A11.038,11.038,0,0,0,40.433,53.8ZM49,48a6.979,6.979,0,0,1-6.491-4.422,2.975,2.975,0,0,0,.025-5.142,11.6,11.6,0,0,0,.542-1.117A4.368,4.368,0,0,0,45.414,38h.172a4.384,4.384,0,0,0,3.121-1.293l-1.414-1.414A2.4,2.4,0,0,1,45.586,36h-.172a2.394,2.394,0,0,1-1.687-.691c.076-.342.131-.688.175-1.036l5.123-2.195,6.327,2.373a1,1,0,0,1,.648.935V41a7.009,7.009,0,0,1-7,7ZM48,30.341l-4.029,1.727a12.806,12.806,0,0,0-.959-4.2A9.989,9.989,0,0,1,48,25.209ZM16,17a15,15,0,1,1,27.879,7.681,11.931,11.931,0,0,0-1.82,1.338c-.147-.237-.3-.472-.462-.7l-.286-.4a13,13,0,1,0-20.622,0l-.286.4c-.017.023-.031.048-.047.072a21.631,21.631,0,0,0-2.643-1.438A15.019,15.019,0,0,1,16,17ZM3,42a1,1,0,0,1,0-2H4v1a8.935,8.935,0,0,0,.059,1Zm1-4.413V38H3.535l-.9-1.353a3.771,3.771,0,0,1,1.047-5.232L5.8,30,2.2,27.6a.446.446,0,0,1,.174-.812l4-.668a2.734,2.734,0,0,0,1.5,1.228l1.808.6.633-1.9-1.808-.6A.744.744,0,0,1,8.743,24a19.6,19.6,0,0,1,10.589,3.106A12.816,12.816,0,0,0,18,32.813c0,.211.012.421.023.631l-7.435-1.352a5.4,5.4,0,0,0-1-.092A5.593,5.593,0,0,0,4,37.587ZM6,41V37.587a3.587,3.587,0,0,1,4.229-3.529l8.1,1.473a11.453,11.453,0,0,0,1.137,2.9,2.974,2.974,0,0,0,.024,5.142A6.99,6.99,0,0,1,6,41Zm7,9a9.122,9.122,0,0,0,1.567-.138l.289.868L13,52.586,11.144,50.73l.292-.875A9.061,9.061,0,0,0,13,50ZM4.208,59.4a9.068,9.068,0,0,1,3.519-6.058l1.739,5.217L13,56.2l3.534,2.356,1.745-5.233a9.026,9.026,0,0,1,2,2.09,13.543,13.543,0,0,0-2.009,4.4L18.22,60H4.133ZM43.78,60l-.045-.18a13.522,13.522,0,0,0-2.009-4.4,9.023,9.023,0,0,1,3.583-3.054l.235.941a3.562,3.562,0,0,0,6.91,0l.235-.938a9.078,9.078,0,0,1,5.1,7.033l.075.6Zm9.015-9.776-.309-.927A9.015,9.015,0,0,0,58,41V35.386a3.013,3.013,0,0,0-1.946-2.809L50,30.307V25A10.011,10.011,0,0,1,60,35V46.169a9.329,9.329,0,0,1-3.08,6.9,11,11,0,0,0-4.125-2.844Z"/>
      </g>
    </g>
  </g>
</svg>
