<svg xmlns="http://www.w3.org/2000/svg" width="85" height="85" viewBox="0 0 85 85">
  <g id="Grupo_1116067" data-name="Grupo 1116067" transform="translate(-64 -6445)">
    <rect id="Rectángulo_402033" data-name="Rectángulo 402033" width="85" height="85" rx="8" transform="translate(64 6445)" fill="#0042db"/>
    <g id="Rectángulo_412110" data-name="Rectángulo 412110" transform="translate(67.542 6448.542)" fill="none" stroke="#fff" stroke-width="1">
      <rect width="77.917" height="77.917" rx="6" stroke="none"/>
      <rect x="0.5" y="0.5" width="76.917" height="76.917" rx="5.5" fill="none"/>
    </g>
    <g id="Grupo_1117850" data-name="Grupo 1117850" transform="translate(73.673 6395.334)">
      <path id="Trazado_960398" data-name="Trazado 960398" d="M30.935,203.072c-.282-3.964-3.222-7.2-7.2-7.2s-6.914,3.231-7.2,7.2c-.168,2.363,0,6.168-1.028,8.223,0,0,1.028,2.056,4.819,3.087l6.83,0c3.77-1.028,4.8-3.084,4.8-3.084C30.935,209.24,31.1,205.436,30.935,203.072Z" transform="translate(-13.526 -111.422)" fill="#694b4b"/>
      <path id="Trazado_960399" data-name="Trazado 960399" d="M22.711,203.977c-3.961-1.981-3.146-5.861-.324-7.062a7.518,7.518,0,0,0-5.844,7.062c-.168,2.363,0,6.168-1.028,8.223,0,0,1.028,2.056,4.819,3.087h3.247Z" transform="translate(-13.526 -112.327)" fill="#5a4146"/>
      <path id="Trazado_960400" data-name="Trazado 960400" d="M24.3,314.688l-3.326-1.663a2.056,2.056,0,0,1-1.137-1.839V308.1H13.668v3.084a2.056,2.056,0,0,1-1.136,1.839L9.2,314.688a3.084,3.084,0,0,0-1.7,2.758v7.1H26v-7.1A3.084,3.084,0,0,0,24.3,314.688Z" transform="translate(-6.538 -209.256)" fill="#e6af78"/>
      <path id="Trazado_960401" data-name="Trazado 960401" d="M26,348.414a3.084,3.084,0,0,0-1.7-2.758l-3.326-1.663a2.04,2.04,0,0,1-.507-.368l-1.18,1.313a3.341,3.341,0,0,1-5.067,0l-1.18-1.313a2.045,2.045,0,0,1-.507.368l-3.327,1.663a3.084,3.084,0,0,0-1.7,2.758v7.1H26v-7.1Z" transform="translate(-6.539 -240.224)" fill="#d5dced"/>
      <path id="Trazado_960402" data-name="Trazado 960402" d="M40.388,255.394h0a6.167,6.167,0,0,1-5.442-3.262,3.008,3.008,0,0,1,.978-3.837,7.965,7.965,0,0,0,.716-.567,5.934,5.934,0,0,0,1.408-1.854,1.012,1.012,0,0,1,1.153-.56,17.709,17.709,0,0,1,6.987,3.581.981.981,0,0,1,.348.814A6.168,6.168,0,0,1,40.388,255.394Z" transform="translate(-30.175 -154.492)" fill="#f0c087"/>
      <path id="Trazado_960403" data-name="Trazado 960403" d="M46.41,248.9a17.709,17.709,0,0,0-6.982-3.579,1.017,1.017,0,0,0-1.159.563,5.886,5.886,0,0,1-.939,1.371v0a5.5,5.5,0,0,1-.467.476,7.175,7.175,0,0,1-.687.546,3.059,3.059,0,0,0-.78,4.243,6.18,6.18,0,0,0,4.279,2.791,4.472,4.472,0,0,1-2.149-4.025v-.794c.234-.172.469-.344.7-.555A8.186,8.186,0,0,0,39.7,248.2a15.522,15.522,0,0,1,5.357,2.915c.195.171.468.412,1.034.943a6.185,6.185,0,0,0,.667-2.35A.982.982,0,0,0,46.41,248.9Z" transform="translate(-30.398 -154.497)" fill="#e6af78"/>
      <g id="Grupo_1117848" data-name="Grupo 1117848" transform="translate(0.962 106.337)">
        <path id="Trazado_960404" data-name="Trazado 960404" d="M8.127,366.522a3.077,3.077,0,0,0-.627,1.853v7.1h4.112V370.3a2.056,2.056,0,0,0-.772-1.605Z" transform="translate(-7.5 -366.522)" fill="#c7cfe2"/>
        <path id="Trazado_960405" data-name="Trazado 960405" d="M123.211,366.522a3.077,3.077,0,0,1,.627,1.853v7.1h-4.112V370.3a2.056,2.056,0,0,1,.772-1.605Z" transform="translate(-105.335 -366.522)" fill="#c7cfe2"/>
      </g>
      <path id="Trazado_960406" data-name="Trazado 960406" d="M368.226,206.978v.721a8.222,8.222,0,0,0,.422,2.6l1.634,4.9h3.084V203.894H371.31A3.084,3.084,0,0,0,368.226,206.978Z" transform="translate(-321.008 -118.411)" fill="#5a4146"/>
      <path id="Trazado_960407" data-name="Trazado 960407" d="M396.356,201.848l-1.819,6.365-8.223-7.2a2.056,2.056,0,0,1-2.056-2.056h0a3.084,3.084,0,0,1,3.084-3.084h9.251v4.276A6.162,6.162,0,0,1,396.356,201.848Z" transform="translate(-334.984 -111.423)" fill="#694b4b"/>
      <rect id="Rectángulo_416390" data-name="Rectángulo 416390" width="6.168" height="6.168" transform="translate(51.33 99.874)" fill="#e6af78"/>
      <path id="Trazado_960408" data-name="Trazado 960408" d="M362.5,336.982l-4.959-1.417-3.083,3.674-3.084-3.674-4.959,1.417a3.084,3.084,0,0,0-2.237,2.965v8.543h20.558v-8.543A3.084,3.084,0,0,0,362.5,336.982Z" transform="translate(-300.044 -233.197)" fill="#d5dced"/>
      <path id="Trazado_960409" data-name="Trazado 960409" d="M382.41,247.35h0a6.168,6.168,0,0,1-6.168-6.168h0a4.964,4.964,0,0,1,1.454-3.51l1.012-1.012a2.032,2.032,0,0,1,1.492-.6c3.286.1,6.194.808,7.784,2.36a2.029,2.029,0,0,1,.592,1.456v1.31A6.167,6.167,0,0,1,382.41,247.35Z" transform="translate(-327.996 -146.448)" fill="#f0c087"/>
      <path id="Trazado_960410" data-name="Trazado 960410" d="M379.325,241.183a2.052,2.052,0,0,1,2.179-2.053,21.684,21.684,0,0,1,7.043,1.388,5.725,5.725,0,0,0-.564-2.1c-1.59-1.553-4.5-2.257-7.784-2.36h0a2.032,2.032,0,0,0-1.492.6l-1.012,1.012a4.963,4.963,0,0,0-1.454,3.51h0A6.166,6.166,0,0,0,380.7,247.1a6.117,6.117,0,0,1-1.375-3.867v-2.056Z" transform="translate(-327.995 -146.448)" fill="#e6af78"/>
      <path id="Trazado_960411" data-name="Trazado 960411" d="M472.435,360.81a3.084,3.084,0,0,1,.9-2.181l2.646-2.646a3.071,3.071,0,0,1,.562,1.764v8.543h-4.112Z" transform="translate(-411.854 -250.997)" fill="#c7cfe2"/>
      <path id="Trazado_960412" data-name="Trazado 960412" d="M151.969,327.262l-8.6-3.127-6.168,2.056-6.168-2.056-8.6,3.127a4.112,4.112,0,0,0-2.707,3.864v7.4h34.949v-7.4A4.112,4.112,0,0,0,151.969,327.262Z" transform="translate(-104.373 -223.233)" fill="#ff507d"/>
      <path id="Trazado_960413" data-name="Trazado 960413" d="M349.238,356.812a4.107,4.107,0,0,1,1.106,2.8v7.4h-6.168v-3.436a4.112,4.112,0,0,1,1.2-2.907Z" transform="translate(-300.043 -251.72)" fill="#d23c69"/>
      <path id="Trazado_960414" data-name="Trazado 960414" d="M190.436,86.3V77.691a2.056,2.056,0,0,0-2.056-2.056H176.045a8.223,8.223,0,0,0-8.223,8.223V86.3a10.278,10.278,0,0,0,.528,3.251l.342,1.026a3.085,3.085,0,0,1,.158.975v.528h20.558v-.528a3.085,3.085,0,0,1,.158-.975l.342-1.026A10.277,10.277,0,0,0,190.436,86.3Z" transform="translate(-146.302 -6.598)" fill="#5a4146"/>
      <path id="Trazado_960415" data-name="Trazado 960415" d="M207.9,79.811a4.176,4.176,0,0,0,4.176,4.176h.578l.279,8.095H224.35v-.528a3.086,3.086,0,0,1,.158-.975l.342-1.026a10.278,10.278,0,0,0,.528-3.251V77.691a2.056,2.056,0,0,0-2.056-2.056H212.079A4.176,4.176,0,0,0,207.9,79.811Z" transform="translate(-181.243 -6.598)" fill="#694b4b"/>
      <rect id="Rectángulo_416391" data-name="Rectángulo 416391" width="12.335" height="9.251" transform="translate(26.659 93.706)" fill="#e6af78"/>
      <path id="Trazado_960416" data-name="Trazado 960416" d="M207.9,272.674a13.308,13.308,0,0,0,12.335,0v-4.652H207.9v4.652Z" transform="translate(-181.243 -174.315)" fill="#d29b6e"/>
      <g id="Grupo_1117849" data-name="Grupo 1117849" transform="translate(24.604 99.19)">
        <path id="Trazado_960417" data-name="Trazado 960417" d="M200.094,314.556l-3.278,3.278a1.028,1.028,0,0,1-1.546-.105l-3.4-4.479.889-1.874a1.028,1.028,0,0,1,1.468-.434Z" transform="translate(-191.871 -310.788)" fill="#d23c69"/>
        <path id="Trazado_960418" data-name="Trazado 960418" d="M256,314.556l3.278,3.278a1.028,1.028,0,0,0,1.546-.105l3.4-4.479-.889-1.874a1.028,1.028,0,0,0-1.468-.434Z" transform="translate(-247.777 -310.788)" fill="#d23c69"/>
      </g>
      <path id="Trazado_960419" data-name="Trazado 960419" d="M186.118,160.046h0a10.279,10.279,0,0,1-10.279-10.279v-1.028l1.711-1.14a3.084,3.084,0,0,0,1.373-2.566v-3.489s8.223-3.084,14.391,2.056v1.433a3.085,3.085,0,0,0,1.373,2.566l1.71,1.14v1.028A10.279,10.279,0,0,1,186.118,160.046Z" transform="translate(-153.291 -63.256)" fill="#f0c087"/>
      <path id="Trazado_960420" data-name="Trazado 960420" d="M120.832,356.812a4.107,4.107,0,0,0-1.106,2.8v7.4h6.168v-3.436a4.112,4.112,0,0,0-1.2-2.907Z" transform="translate(-104.373 -251.72)" fill="#d23c69"/>
      <path id="Trazado_960421" data-name="Trazado 960421" d="M183.815,144.013a19,19,0,0,1,9.5,1.018V143.6c-6.168-5.14-14.391-2.056-14.391-2.056v3.489a3.084,3.084,0,0,1-1.373,2.566l-1.71,1.14v1.028a10.276,10.276,0,0,0,9.037,10.2h0a10.236,10.236,0,0,1-2.87-7.113v-6.794A2.057,2.057,0,0,1,183.815,144.013Z" transform="translate(-153.291 -63.255)" fill="#e6af78"/>
      <path id="Trazado_960422" data-name="Trazado 960422" d="M399.452,231.3a.962.962,0,1,0,.86-1.72c-2.234-1.117-6.423-1.13-6.6-1.13a.962.962,0,1,0,0,1.923C394.794,230.373,397.932,230.539,399.452,231.3Z" transform="translate(-342.388 -139.817)"/>
      <path id="Trazado_960423" data-name="Trazado 960423" d="M62.719,103.455l-3.972-1.135a.4.4,0,0,1-.291-.386v-1.326a7.229,7.229,0,0,0,.92-.754,7.075,7.075,0,0,0,2.165-5.118V92.906l.384-.768a6.135,6.135,0,0,0,.644-2.73V84.452a.962.962,0,0,0-.962-.962H52.353a6.11,6.11,0,0,0-6.1,6.1v.057a5.1,5.1,0,0,0,.536,2.27l.493.985v1.571a7.5,7.5,0,0,0,3.085,6.067v1.39c0,.214,0,.3-.794.53l-1.938.554-5.606-2.039a.961.961,0,0,0-.262-.736L39.971,98.36V95.2c.189-.156.376-.316.557-.486a11.287,11.287,0,0,0,3.556-8.206V83.985a11.117,11.117,0,0,0,1.028-4.675V69.028a.962.962,0,0,0-.962-.962h-14.4a9.2,9.2,0,0,0-9.188,9.188v2.057a11.117,11.117,0,0,0,1.028,4.675v2.171a11.752,11.752,0,0,0,4.113,8.969V98.36l-1.792,1.882a.961.961,0,0,0-.262.736l-5.917,2.152a5.044,5.044,0,0,0-1.189.623l-.929-.465a7.345,7.345,0,0,0,3.684-2.981.961.961,0,0,0,0-.86c-.693-1.387-.777-3.928-.845-5.971-.022-.68-.044-1.322-.084-1.894a8.366,8.366,0,0,0-8.157-8.092,8.366,8.366,0,0,0-8.157,8.092c-.041.572-.062,1.214-.084,1.894-.067,2.042-.152,4.583-.845,5.97a.961.961,0,0,0,0,.86,7.344,7.344,0,0,0,3.688,2.979l-2.581,1.29A4.025,4.025,0,0,0,0,108.2V115.3a.962.962,0,1,0,1.923,0V108.2A2.112,2.112,0,0,1,3.1,106.3l3.214-1.607,1.118,1.062a4.045,4.045,0,0,0,5.575,0l1.118-1.062,1.048.524A5.064,5.064,0,0,0,14.4,107.9v7.4a.962.962,0,1,0,1.923,0v-7.4a3.161,3.161,0,0,1,2.075-2.962l6.239-2.269,2.6,3.9a1.983,1.983,0,0,0,1.46.876q.1.01.2.01a1.982,1.982,0,0,0,1.405-.583l1.584-1.584V115.3a.962.962,0,1,0,1.923,0V105.284l1.584,1.584a1.981,1.981,0,0,0,1.405.583q.1,0,.2-.01a1.983,1.983,0,0,0,1.46-.876l2.6-3.9,6.239,2.269a3.161,3.161,0,0,1,2.075,2.962v7.4a.962.962,0,0,0,1.923,0v-7.4a5.084,5.084,0,0,0-1.422-3.519l.238-.068a5.274,5.274,0,0,0,.895-.323l2.455,2.456V115.3a.962.962,0,1,0,1.923,0v-8.856l2.438-2.438a2.288,2.288,0,0,0,.409.162l3.972,1.135a2.132,2.132,0,0,1,1.54,2.042V115.3a.962.962,0,1,0,1.923,0v-7.956A4.064,4.064,0,0,0,62.719,103.455Zm-48.456-1.7v-1.147A7.114,7.114,0,0,0,16.8,97.477a10.587,10.587,0,0,0,.548,2.3A6.948,6.948,0,0,1,14.263,101.759ZM3.978,91.719a7.14,7.14,0,0,1,1.944-4.484,5.975,5.975,0,0,1,8.589,0,7.14,7.14,0,0,1,1.944,4.484c.038.536.059,1.16.081,1.821l.006.172a8.642,8.642,0,0,0-4.75-3.471,12.07,12.07,0,0,0-3.658-.58.962.962,0,0,0-.666.294l-1.735,1.8a.962.962,0,1,0,1.385,1.335l1.444-1.5c1.243.061,5.244.526,6.8,3.952a5.208,5.208,0,0,1-10.352-.808.956.956,0,0,0-1.12-.948c0-.083.006-.166.008-.247C3.919,92.879,3.94,92.254,3.978,91.719Zm-.894,8.056a10.6,10.6,0,0,0,.548-2.3A7.172,7.172,0,0,0,6.17,100.6v1.153A6.914,6.914,0,0,1,3.083,99.774Zm5.671,4.584-.894-.85a1.99,1.99,0,0,0,.234-.939v-1.025a7.152,7.152,0,0,0,4.246,0v1.024a1.99,1.99,0,0,0,.234.94l-.894.85A2.122,2.122,0,0,1,8.754,104.359Zm14.764-18.2V83.771a.962.962,0,0,0-.1-.418,9.225,9.225,0,0,1-.933-4.042V77.254a7.273,7.273,0,0,1,7.265-7.265H43.189v9.321a9.225,9.225,0,0,1-.933,4.042.962.962,0,0,0-.1.418v2.738a9.233,9.233,0,0,1-2.948,6.8,9.569,9.569,0,0,1-.738.625l-.017.012a9.247,9.247,0,0,1-6.241,1.862A9.526,9.526,0,0,1,23.518,86.157ZM32.093,97.73q.38.025.757.024a11.14,11.14,0,0,0,5.2-1.274v1.757l-5.208,3.56-5.208-3.56v-1.8A10.828,10.828,0,0,0,32.093,97.73Zm-3.159,7.779a.06.06,0,0,1-.054.019.061.061,0,0,1-.049-.029l-2.991-4.487L26.8,100l4.537,3.1Zm7.915-.01a.061.061,0,0,1-.049.029.059.059,0,0,1-.054-.019L34.339,103.1l4.537-3.1.963,1.011ZM49.2,94.477v-1.8a.961.961,0,0,0-.1-.43l-.594-1.188a3.168,3.168,0,0,1-.333-1.409v-.057a4.185,4.185,0,0,1,4.18-4.18h8.293v3.994a4.2,4.2,0,0,1-.441,1.869l-.485.971a.961.961,0,0,0-.1.43v2.057a5.208,5.208,0,0,1-5.369,5.206A5.384,5.384,0,0,1,49.2,94.477Zm4.989,7.387c.074,0,.148,0,.221,0a7.144,7.144,0,0,0,2.12-.321v.387a2.3,2.3,0,0,0,.07.56l-2.193,2.193L52.227,102.5a2.639,2.639,0,0,0,.06-.571v-.406A6.743,6.743,0,0,0,54.191,101.864Z" transform="translate(0 0)"/>
      <path id="Trazado_960424" data-name="Trazado 960424" d="M465.885,380.814a.962.962,0,0,0-.962.962v6.17a.962.962,0,0,0,1.923,0v-6.17A.962.962,0,0,0,465.885,380.814Z" transform="translate(-405.305 -272.644)"/>
      <path id="Trazado_960425" data-name="Trazado 960425" d="M33.039,390.728a.962.962,0,0,0-.962.962v4.9a.962.962,0,1,0,1.923,0v-4.9A.962.962,0,0,0,33.039,390.728Z" transform="translate(-27.964 -281.287)"/>
      <path id="Trazado_960426" data-name="Trazado 960426" d="M194.383,138.551a.064.064,0,0,1,.05-.065,30.381,30.381,0,0,1,6.248-.305c3,.2,5.171.952,6.456,2.238a.962.962,0,0,0,1.36-1.36c-3.637-3.637-11.248-2.942-14.351-2.474a1.974,1.974,0,0,0-1.687,1.967v2.216a.962.962,0,1,0,1.923,0v-2.216Z" transform="translate(-167.781 -59.399)"/>
      <path id="Trazado_960427" data-name="Trazado 960427" d="M161.346,396.853a.962.962,0,0,0-.962.962v4.113a.962.962,0,0,0,1.923,0v-4.113A.962.962,0,0,0,161.346,396.853Z" transform="translate(-139.818 -286.626)"/>
      <path id="Trazado_960428" data-name="Trazado 960428" d="M337.768,396.853a.962.962,0,0,0-.962.962v4.113a.962.962,0,0,0,1.923,0v-4.113A.962.962,0,0,0,337.768,396.853Z" transform="translate(-293.617 -286.626)"/>
    </g>
  </g>
</svg>
