<svg xmlns="http://www.w3.org/2000/svg" width="120" height="120" viewBox="0 0 120 120">
  <g id="Grupo_1116005" data-name="Grupo 1116005" transform="translate(-1236.5 -460)">
    <g id="Elipse_12108" data-name="Elipse 12108" transform="translate(1241.5 465)" fill="#8bc34a" stroke="rgba(255,255,255,0.4)" stroke-width="5">
      <circle cx="55" cy="55" r="55" stroke="none"/>
      <circle cx="55" cy="55" r="57.5" fill="none"/>
    </g>
    <path id="Trazado_959650" data-name="Trazado 959650" d="M2.812,74.3H30.576a1.088,1.088,0,1,0,0-2.177H27.9V42.408a.135.135,0,0,1,.134-.134h10.3V72.127H35.656a1.088,1.088,0,0,0,0,2.177H50.809a2.314,2.314,0,0,0,2.312-2.312V54.371a1.088,1.088,0,1,0-2.177,0V71.992a.135.135,0,0,1-.135.135h-10.3V30.271a.135.135,0,0,1,.134-.135H50.809a.135.135,0,0,1,.135.135v19.02a1.088,1.088,0,0,0,2.177,0V30.271a2.314,2.314,0,0,0-2.312-2.311H48.819v-10.5h3v3.374a2.114,2.114,0,0,0,2.107,2.107H67.015a1.648,1.648,0,0,0,1.332-2.617l-2.875-3.952,2.875-3.952A1.648,1.648,0,0,0,67.015,9.8H61.442V6.414a2.1,2.1,0,0,0-2.1-2.1H49.452A3.655,3.655,0,1,0,42.9,5.793V27.96H40.644a2.314,2.314,0,0,0-2.311,2.311V40.1h-10.3a2.314,2.314,0,0,0-2.311,2.311v9.826h-10.3a2.314,2.314,0,0,0-2.312,2.312v9.825H2.812A2.314,2.314,0,0,0,.5,66.683v5.309A2.314,2.314,0,0,0,2.812,74.3ZM59.795,17.4a2.1,2.1,0,0,0,1.646-2.047V11.975h4.535L63.485,15.4a1.643,1.643,0,0,0,0,1.939l2.49,3.423H55.714ZM54,19.35v-1.9h2.306ZM48.819,6.494H59.264v8.784H48.819ZM46.642,27.96H45.073V7.224a3.626,3.626,0,0,0,1.569,0ZM45.858,2.178a1.478,1.478,0,1,1-1.477,1.478,1.48,1.48,0,0,1,1.477-1.478ZM15.288,54.546a.135.135,0,0,1,.134-.135h10.3V72.127H15.288V54.546ZM2.677,66.683a.135.135,0,0,1,.135-.135h10.3v5.579H2.812a.135.135,0,0,1-.135-.135Zm0,0" transform="translate(1261.917 482.848)" fill="#001a58"/>
  </g>
</svg>
