<svg xmlns="http://www.w3.org/2000/svg" width="80" height="80" viewBox="0 0 80 80">
  <g id="Grupo_1117861" data-name="Grupo 1117861" transform="translate(-340.123 -7994)">
    <rect id="Rectángulo_402033" data-name="Rectángulo 402033" width="80" height="80" rx="8" transform="translate(340.123 7994)" fill="#0042db"/>
    <g id="Grupo_1117862" data-name="Grupo 1117862" transform="translate(338.503 8007)">
      <path id="Trazado_960512" data-name="Trazado 960512" d="M115.006,290.915a4.626,4.626,0,0,0-3.705-7.4c-.08,0-.161,0-.24.006a5.589,5.589,0,0,0-1.853-1.6,4.631,4.631,0,1,0-7.409,0,5.6,5.6,0,0,0-1.852,1.6c-.079,0-.16-.006-.24-.006s-.161,0-.241.006a5.589,5.589,0,0,0-1.853-1.6,4.628,4.628,0,1,0-7.408,0,5.575,5.575,0,0,0-1.853,1.6c-.079,0-.16-.006-.24-.006a4.625,4.625,0,0,0-3.705,7.4,5.5,5.5,0,0,0-2.927,4.871v2.049a1.489,1.489,0,0,0,1.487,1.487H93.254a1.479,1.479,0,0,0,.654-.152,1.47,1.47,0,0,0,.652.152h10.287a1.479,1.479,0,0,0,.654-.152,1.47,1.47,0,0,0,.652.152h10.287a1.49,1.49,0,0,0,1.49-1.487v-2.049A5.484,5.484,0,0,0,115.006,290.915Zm-.75-2.772a2.957,2.957,0,1,1-2.956-2.956A2.959,2.959,0,0,1,114.256,288.144ZM105.5,276.192a2.956,2.956,0,1,1-2.959,2.956A2.959,2.959,0,0,1,105.5,276.192Zm-2.333,6.951a4.613,4.613,0,0,0,4.664,0,3.878,3.878,0,0,1,1.415.851,4.622,4.622,0,0,0-1.657,6.92,5.5,5.5,0,0,0-2.09,1.946,5.5,5.5,0,0,0-2.091-1.946,4.624,4.624,0,0,0-1.657-6.92A3.888,3.888,0,0,1,103.171,283.143Zm-6.42,5a2.956,2.956,0,1,1,2.956,2.956,2.959,2.959,0,0,1-2.956-2.956Zm-2.841-11.952a2.956,2.956,0,1,1-2.956,2.956A2.959,2.959,0,0,1,93.911,276.192Zm-2.332,6.951a4.611,4.611,0,0,0,4.663,0,3.893,3.893,0,0,1,1.416.852A4.622,4.622,0,0,0,96,290.913a5.5,5.5,0,0,0-2.091,1.946,5.5,5.5,0,0,0-2.091-1.946,4.624,4.624,0,0,0-1.657-6.92A3.871,3.871,0,0,1,91.579,283.143Zm-3.464,2.045a2.956,2.956,0,1,1-2.956,2.956A2.959,2.959,0,0,1,88.115,285.188Zm-4.961,10.6a3.884,3.884,0,0,1,2.63-3.644,4.613,4.613,0,0,0,4.659,0,3.885,3.885,0,0,1,2.631,3.644v1.863H83.154Zm11.593,0a3.884,3.884,0,0,1,2.63-3.644,4.613,4.613,0,0,0,4.659,0,3.886,3.886,0,0,1,2.631,3.644v1.863h-9.92v-1.864Zm21.513,1.863h-9.92v-1.863a3.884,3.884,0,0,1,2.629-3.644,4.615,4.615,0,0,0,4.66,0,3.886,3.886,0,0,1,2.631,3.644v1.862Z" transform="translate(-58.086 -245.85)" fill="#fff"/>
      <path id="Trazado_960513" data-name="Trazado 960513" d="M54.97,5.715a3.021,3.021,0,0,0-5.534-.729L46.33,10.365a1.569,1.569,0,0,1-1.4.81H37.9a4.839,4.839,0,0,0-4.833,4.833v7.114a.836.836,0,0,0,.837.837H46.989a.836.836,0,0,0,.837-.837v-2.5a2.711,2.711,0,0,1,.382-1.423l2.045-3.543c1.439-2.495,2.7-4.679,4.418-7.653a3,3,0,0,0,.3-2.292ZM53.221,7.171C51.5,10.145,50.243,12.33,48.8,14.824l-2.045,3.543a4.355,4.355,0,0,0-.606,2.259v1.659H39.131v-4.28a.837.837,0,0,0-1.673,0v4.28H34.737V16.008a3.163,3.163,0,0,1,3.16-3.16h7.027A3.222,3.222,0,0,0,47.777,11.2a0,0,0,0,1,0,0l3.106-5.379a1.347,1.347,0,0,1,2.471.324,1.355,1.355,0,0,1-.134,1.026Zm-11.6,3.158a5.164,5.164,0,1,0-5.164-5.164A5.17,5.17,0,0,0,41.621,10.329Zm0-8.656a3.491,3.491,0,1,1-3.492,3.491A3.495,3.495,0,0,1,41.621,1.673ZM66.375,17.905l-2.966,2.969a.836.836,0,0,1-1.184-1.181l1.54-1.541H54.617a.837.837,0,1,1,0-1.673h9.147L62.226,14.94a.836.836,0,0,1,1.182-1.183l2.966,2.966a.834.834,0,0,1,0,1.182ZM23.566,10.367a6.948,6.948,0,1,0,6.949,6.947,6.954,6.954,0,0,0-6.949-6.947Zm0,12.223a5.276,5.276,0,1,1,5.277-5.277A5.282,5.282,0,0,1,23.566,22.59Zm3.715-7.907a.836.836,0,0,1,0,1.182L23.2,19.948a.836.836,0,0,1-1.182,0l-2.159-2.158a.836.836,0,0,1,1.182-1.182L22.6,18.174,26.1,14.683a.837.837,0,0,1,1.183,0Z" fill="#fff"/>
    </g>
  </g>
</svg>
