<svg xmlns="http://www.w3.org/2000/svg" width="80" height="80" viewBox="0 0 80 80">
  <g id="Grupo_1117859" data-name="Grupo 1117859" transform="translate(-340.123 -7994)">
    <rect id="Rectángulo_402033" data-name="Rectángulo 402033" width="80" height="80" rx="8" transform="translate(340.123 7994)" fill="#0042db"/>
    <g id="Grupo_1117860" data-name="Grupo 1117860" transform="translate(353.128 8007)">
      <path id="Trazado_960505" data-name="Trazado 960505" d="M34.249,43.257a.822.822,0,0,1,.613.165l4.441,3.44a.843.843,0,0,0,.644.164.833.833,0,0,0,.559-.359l1.282-1.915a.831.831,0,0,0,.141-.463V37.269l3.111,4.26a3,3,0,0,1,.524,1.21l1.715,9.106a2.106,2.106,0,0,0,.12.407,2.129,2.129,0,0,0,.2.376l3.012,4.5L52,56.2l-3.012-4.5a.439.439,0,0,1-.067-.164L47.2,42.43a4.685,4.685,0,0,0-.816-1.884l-4.457-6.1v-2.97A1.475,1.475,0,0,0,40.454,30H13.536a1.475,1.475,0,0,0-1.474,1.474v2.97L7.6,40.546a4.686,4.686,0,0,0-.816,1.884L5.074,51.537a.441.441,0,0,1-.067.163L2,56.2l1.385.927,3.013-4.5a2.1,2.1,0,0,0,.319-.781l1.715-9.107a3,3,0,0,1,.524-1.209l3.111-4.26v7.019a.831.831,0,0,0,.141.463l1.282,1.915a.833.833,0,0,0,1.2.2l4.441-3.44a.818.818,0,1,1,1,1.292l-3.99,4.1a.833.833,0,0,0-.168.251L14.368,52.8a2.361,2.361,0,0,1-.7.911l-2.579,2.054a.832.832,0,0,0-.271.387l-.362,1.081,1.58.529.284-.847,2.386-1.9A4.035,4.035,0,0,0,15.9,53.456l.772-1.792H37.32l.771,1.792a4.036,4.036,0,0,0,1.189,1.557l2.386,1.9.284.847,1.58-.529-.362-1.081a.832.832,0,0,0-.271-.387l-2.579-2.054a2.363,2.363,0,0,1-.7-.912l-1.607-3.732a.833.833,0,0,0-.168-.251l-4.035-4.142a.8.8,0,0,1-.111-1.093.817.817,0,0,1,.548-.321Zm-16.8,6.607,3.837-3.945A2.483,2.483,0,0,0,18.108,42.1L14.372,45l-.644-.962V31.666H26.162V37.5a3.333,3.333,0,1,0,0,6.666V50H17.388Zm15.218-3.988,3.883,3.988L36.6,50H27.828V43.331A.833.833,0,0,0,27,42.5h-.833a1.666,1.666,0,1,1,0-3.333H27a.833.833,0,0,0,.833-.833V31.666H40.262V44.035L39.618,45,35.882,42.1a2.482,2.482,0,0,0-3.22,3.772Z" transform="translate(0 -4.837)" fill="#fff"/>
      <path id="Trazado_960506" data-name="Trazado 960506" d="M24.028,10.989a.833.833,0,0,0,.4.943l.6.334q-.016.2-.016.4c0,.133.005.266.016.4l-.6.334a.833.833,0,0,0-.4.943,6.623,6.623,0,0,0,1.835,3.085.834.834,0,0,0,.98.124l.6-.371a5.663,5.663,0,0,0,.785.443v.662a.833.833,0,0,0,.618.8,7.049,7.049,0,0,0,1.825.243h.085a7.044,7.044,0,0,0,1.736-.245.833.833,0,0,0,.618-.8v-.659a4.866,4.866,0,0,0,.747-.425l.63.352a.834.834,0,0,0,.98-.124A6.621,6.621,0,0,0,37.3,14.342a.833.833,0,0,0-.4-.943l-.6-.333c.011-.134.016-.267.016-.4s-.005-.265-.016-.4l.6-.334a.834.834,0,0,0,.4-.942A6.618,6.618,0,0,0,35.468,7.9a.834.834,0,0,0-.981-.124l-.6.371a5.64,5.64,0,0,0-.785-.443V7.048a.833.833,0,0,0-.618-.8A7.148,7.148,0,0,0,30.578,6a7.044,7.044,0,0,0-1.736.245.833.833,0,0,0-.618.8v.659a4.865,4.865,0,0,0-.747.425l-.63-.352a.834.834,0,0,0-.98.124A6.619,6.619,0,0,0,24.028,10.989ZM26.6,9.555l.06.034a1.64,1.64,0,0,0,1.708-.056,4,4,0,0,1,.594-.33,1.588,1.588,0,0,0,.925-1.449V7.725a5.142,5.142,0,0,1,.708-.059,4.726,4.726,0,0,1,.842.057v.029A1.587,1.587,0,0,0,32.366,9.2a3.961,3.961,0,0,1,.594.331,1.642,1.642,0,0,0,1.707.056l.064-.036a4.96,4.96,0,0,1,.757,1.26L35,11.087a.833.833,0,0,0-.412.884,3.521,3.521,0,0,1,0,1.389.833.833,0,0,0,.412.884l.488.273a4.936,4.936,0,0,1-.76,1.259l-.06-.034a1.641,1.641,0,0,0-1.708.056,4.012,4.012,0,0,1-.593.33,1.587,1.587,0,0,0-.926,1.449v.028a5.143,5.143,0,0,1-.708.059,5.341,5.341,0,0,1-.842-.057v-.029a1.588,1.588,0,0,0-.925-1.449,3.961,3.961,0,0,1-.594-.331,1.643,1.643,0,0,0-1.707-.056l-.064.036a4.954,4.954,0,0,1-.758-1.261l.489-.273a.833.833,0,0,0,.412-.883,3.533,3.533,0,0,1,0-1.391.833.833,0,0,0-.412-.883l-.488-.273a4.943,4.943,0,0,1,.76-1.259Z" transform="translate(-3.67 -0.834)" fill="#fff"/>
      <path id="Trazado_960507" data-name="Trazado 960507" d="M31.333,16.666A3.333,3.333,0,1,0,28,13.333,3.333,3.333,0,0,0,31.333,16.666Zm0-5a1.666,1.666,0,1,1-1.666,1.666A1.666,1.666,0,0,1,31.333,11.666Z" transform="translate(-4.338 -1.501)" fill="#fff"/>
      <path id="Trazado_960508" data-name="Trazado 960508" d="M22.25,5.075l1.25,1.1a9.228,9.228,0,0,1,1.528-1.384L24.055,3.44a10.861,10.861,0,0,0-1.8,1.634Z" transform="translate(-3.379 -0.407)" fill="#fff"/>
      <path id="Trazado_960509" data-name="Trazado 960509" d="M19,12.916a10.836,10.836,0,0,0,15.167,9.928L33.5,21.318A9.168,9.168,0,0,1,21.892,8.334L20.45,7.5A10.828,10.828,0,0,0,19,12.916Z" transform="translate(-2.836 -1.084)" fill="#fff"/>
      <path id="Trazado_960510" data-name="Trazado 960510" d="M38.082,22.861,39,24.249a10.9,10.9,0,0,0,2.083-1.8l-1.242-1.111a9.228,9.228,0,0,1-1.764,1.528Z" transform="translate(-6.019 -3.392)" fill="#fff"/>
      <path id="Trazado_960511" data-name="Trazado 960511" d="M41.928,11.832A10.836,10.836,0,0,0,26.583,1.982L27.278,3.5A9.168,9.168,0,0,1,39.036,16.413l1.443.835A10.828,10.828,0,0,0,41.928,11.832Z" transform="translate(-4.101 0)" fill="#fff"/>
    </g>
  </g>
</svg>
