<svg xmlns="http://www.w3.org/2000/svg" width="80" height="80" viewBox="0 0 80 80">
  <g id="Grupo_1116070" data-name="Grupo 1116070" transform="translate(-210 -517)">
    <rect id="Image_Place_Holder" data-name="Image Place Holder" width="80" height="80" transform="translate(210 517)" fill="#0042db"/>
    <g id="Grupo_1115223" data-name="Grupo 1115223" transform="translate(220.282 527.525)">
      <circle id="Elipse_13476" data-name="Elipse 13476" cx="17.261" cy="17.261" r="17.261" transform="translate(12.466 12.911)" fill="#cbe1ff"/>
      <path id="Trazado_938084" data-name="Trazado 938084" d="M34.9,45.022l-.719,4.315a17.264,17.264,0,0,1-12.927-2.944l1.064-4.2A2.877,2.877,0,0,0,21.93,39.9l-1.467-2.2a2.92,2.92,0,0,1-.4-2.292l.4-1.6a2.858,2.858,0,0,0-2.234-3.5l-4-.815a17.233,17.233,0,0,1,10-12.917l4.622,1.851a2.488,2.488,0,0,1,1.352,3.318l-3.855,8.678a2.488,2.488,0,0,0,.892,3.078l1,.652a2.462,2.462,0,0,1,.978,2.848l-.7,2.119a2.493,2.493,0,0,0,3.155,3.145A2.487,2.487,0,0,1,34.9,45.032Z" transform="translate(-1.543 -2.154)" fill="#6ed974"/>
      <circle id="Elipse_13477" data-name="Elipse 13477" cx="3.596" cy="3.596" r="3.596" transform="translate(49.146 37.843)" fill="#ffd098"/>
      <path id="Trazado_938085" data-name="Trazado 938085" d="M44,57.651l5.754-2.877v6.713H61.261v-8.63A3.36,3.36,0,0,0,57.9,49.5h-6.55a4.8,4.8,0,0,0-2.877.959L44,53.815Z" transform="translate(-2.765 -3.506)" fill="#ff8080"/>
      <circle id="Elipse_13478" data-name="Elipse 13478" cx="3.596" cy="3.596" r="3.596" transform="translate(26.131 37.843)" fill="#ffd098"/>
      <path id="Trazado_938086" data-name="Trazado 938086" d="M20,57.651l5.754-2.877v6.713H37.261V54.774l5.754,2.877V53.815l-3.96-2.973A6.711,6.711,0,0,0,35.027,49.5H27.355a4.8,4.8,0,0,0-2.877.959L20,53.815Z" transform="translate(-1.78 -3.506)" fill="#4d99ff"/>
      <circle id="Elipse_13479" data-name="Elipse 13479" cx="3.596" cy="3.596" r="3.596" transform="translate(3.117 37.843)" fill="#ffd098"/>
      <path id="Trazado_938087" data-name="Trazado 938087" d="M19.261,53.815l-4.478-3.356a4.8,4.8,0,0,0-2.877-.959H5.356A3.36,3.36,0,0,0,2,52.856v8.63H13.507V54.774l5.754,2.877Z" transform="translate(-1.041 -3.506)" fill="#ffde66"/>
      <path id="Trazado_938088" data-name="Trazado 938088" d="M33.011,3.651c1.688-1.688,5.082-1.016,5.082-1.016s.671,3.4-1.016,5.082-5.082,1.016-5.082,1.016S31.323,5.329,33.011,3.651Z" transform="translate(-2.267 -1.576)" fill="#9ae674"/>
      <path id="Trazado_938089" data-name="Trazado 938089" d="M27.353,7.748c-1.5-1.5-1.016-4.411-1.016-4.411s2.906-.479,4.411,1.016,1.016,4.411,1.016,4.411S28.859,9.244,27.353,7.748Z" transform="translate(-2.037 -1.607)" fill="#9ae674"/>
      <path id="Trazado_938090" data-name="Trazado 938090" d="M48.391,26.412l-6.4,5.178a1.265,1.265,0,0,1-2.062-1.17l.355-2.167a1.28,1.28,0,0,0-1.247-1.5,1.232,1.232,0,0,0-.748.269,1.266,1.266,0,0,1-1.956-1.419l3.069-8.966A17.323,17.323,0,0,1,48.391,26.4Z" transform="translate(-2.448 -2.157)" fill="#6ed974"/>
      <path id="Trazado_938091" data-name="Trazado 938091" d="M19.069,42.573a16.275,16.275,0,0,1-4.152-10.865,16.486,16.486,0,0,1,.086-1.7l2.992.6a1.944,1.944,0,0,1,1.256.863,1.887,1.887,0,0,1,.24,1.467l-.422,1.63a3.923,3.923,0,0,0,.547,3.049l1.458,2.186a1.911,1.911,0,0,1,.307.825l1.9-.259a3.79,3.79,0,0,0-.614-1.63L21.208,36.56a1.938,1.938,0,0,1-.278-1.534l.412-1.611a3.837,3.837,0,0,0-2.973-4.68l-3.049-.614a16.319,16.319,0,0,1,8.909-11.114l4.219,1.678a1.587,1.587,0,0,1,.863.863,1.548,1.548,0,0,1-.01,1.189l-3.865,8.669a3.477,3.477,0,0,0,1.247,4.277l.988.652a1.47,1.47,0,0,1,.662,1.429l1.9.24a3.383,3.383,0,0,0-1.515-3.27l-.988-.642a1.544,1.544,0,0,1-.556-1.9l3.865-8.678a3.434,3.434,0,0,0,.038-2.685,3.486,3.486,0,0,0-1.918-1.918l-2.263-.9a16.392,16.392,0,0,1,4.315-.595,16.153,16.153,0,0,1,6.022,1.17L34.46,24.708A2.224,2.224,0,0,0,37.9,27.192a.293.293,0,0,1,.422.058.285.285,0,0,1,.058.249l-.355,2.167a2.223,2.223,0,0,0,2.2,2.6,2.234,2.234,0,0,0,1.41-.508l5.3-4.277a16.085,16.085,0,0,1,.585,4.267,16.275,16.275,0,0,1-4.152,10.865L44.8,43.887a18.2,18.2,0,0,0-12.62-30.322V9.8c.182.01.374.019.575.019a5.939,5.939,0,0,0,4.219-1.429C39,6.363,38.286,2.6,38.248,2.441a.963.963,0,0,0-.758-.758c-.163-.029-3.922-.748-5.945,1.275a3.969,3.969,0,0,0-.595.777c-.029-.029-.058-.067-.086-.1-1.832-1.822-5.1-1.3-5.245-1.285a.957.957,0,0,0-.786.786c-.019.134-.537,3.414,1.285,5.245a5.721,5.721,0,0,0,4.028,1.371h.1v3.817A18.2,18.2,0,0,0,17.621,43.9l1.429-1.275ZM46.284,25.494l-5.869,4.737a.292.292,0,0,1-.355.029.3.3,0,0,1-.144-.316l.355-2.167a2.224,2.224,0,0,0-.479-1.8,2.265,2.265,0,0,0-3.04-.355.264.264,0,0,1-.355,0,.284.284,0,0,1-.115-.345l2.7-7.921a16.425,16.425,0,0,1,7.3,8.122ZM32.907,4.282c.853-.853,2.5-.93,3.548-.844.086,1.045.019,2.695-.844,3.548a4.68,4.68,0,0,1-3.375.853A8,8,0,0,0,32.1,6.133a3.311,3.311,0,0,1,.8-1.86ZM27.479,7a4.03,4.03,0,0,1-.806-2.848,4.124,4.124,0,0,1,2.848.806A4.03,4.03,0,0,1,30.327,7.8,4.124,4.124,0,0,1,27.479,7Z" transform="translate(-1.492 -1.536)"/>
      <path id="Trazado_938092" data-name="Trazado 938092" d="M56.465,48.18a4.555,4.555,0,1,0-5.485-.029H49.59A5.81,5.81,0,0,0,46.137,49.3l-3.9,2.925-3.385-2.541a7.739,7.739,0,0,0-4.6-1.534h-.758a4.555,4.555,0,1,0-5.524,0h-1.39A5.81,5.81,0,0,0,23.123,49.3l-3.9,2.925-3.9-2.925a5.81,5.81,0,0,0-3.452-1.151h-1.39a4.555,4.555,0,1,0-5.485.029A4.309,4.309,0,0,0,1,52.466V61.1a.962.962,0,0,0,.959.959H13.466a.962.962,0,0,0,.959-.959V55.938l4.363,2.186a.986.986,0,0,0,.853,0l4.363-2.186V61.1a.962.962,0,0,0,.959.959H36.471a.962.962,0,0,0,.959-.959V55.938l4.363,2.186a.986.986,0,0,0,.853,0c.269-.125,4.363-2.177,4.363-2.177v5.159a.962.962,0,0,0,.959.959H59.476a.962.962,0,0,0,.959-.959v-8.63a4.309,4.309,0,0,0-3.989-4.286ZM7.713,41.918a2.637,2.637,0,1,1-2.637,2.637A2.636,2.636,0,0,1,7.713,41.918Zm10.548,13.79L13.9,53.521a.971.971,0,0,0-.93.038.958.958,0,0,0-.451.815v5.754h-9.6V52.457a2.4,2.4,0,0,1,2.4-2.4h6.55a3.838,3.838,0,0,1,2.3.767L18.261,53.9v1.8Zm12.466-13.79a2.637,2.637,0,1,1-2.637,2.637A2.636,2.636,0,0,1,30.727,41.918Zm10.548,13.79-4.363-2.186a.971.971,0,0,0-.93.038.958.958,0,0,0-.451.815v5.754H25.942V54.375a.958.958,0,0,0-.451-.815.946.946,0,0,0-.93-.038L20.2,55.707V53.9l4.095-3.069a3.838,3.838,0,0,1,2.3-.767h7.672a5.81,5.81,0,0,1,3.452,1.151L41.295,53.9v1.8Zm12.466-13.79A2.637,2.637,0,1,1,51.1,44.555,2.636,2.636,0,0,1,53.742,41.918Zm4.795,18.22H48.947V54.384a.958.958,0,0,0-.451-.815.946.946,0,0,0-.93-.038L43.2,55.717v-1.8L47.3,50.846a3.838,3.838,0,0,1,2.3-.767h6.55a2.4,2.4,0,0,1,2.4,2.4v7.672Z" transform="translate(-1 -3.116)"/>
    </g>
  </g>
</svg>
