<svg xmlns="http://www.w3.org/2000/svg" width="120" height="120" viewBox="0 0 120 120">
  <g id="Grupo_1116048" data-name="Grupo 1116048" transform="translate(-64 -6445)">
    <rect id="Rect치ngulo_402033" data-name="Rect치ngulo 402033" width="120" height="120" rx="8" transform="translate(64 6445)" fill="#0042db"/>
    <g id="Rect치ngulo_412110" data-name="Rect치ngulo 412110" transform="translate(69 6450)" fill="none" stroke="#fff" stroke-width="1">
      <rect width="110" height="110" rx="6" stroke="none"/>
      <rect x="0.5" y="0.5" width="109" height="109" rx="5.5" fill="none"/>
    </g>
    <g id="Grupo_1117782" data-name="Grupo 1117782" transform="translate(64.256 6467.111)">
      <g id="Grupo_1117780" data-name="Grupo 1117780" transform="translate(26.762 1.11)">
        <path id="Trazado_960288" data-name="Trazado 960288" d="M65.6,199.3,52.358,212.544l-3.373-3.373a3.921,3.921,0,0,0-2.326-1.123l-11.7-1.34a2.042,2.042,0,0,1-1.81-2.029v-17.4a1.967,1.967,0,0,1,2.419-1.914l3.133.74,17.923,4.233Z" transform="translate(-33.153 -158.99)" fill="#ffcebf"/>
        <path id="Trazado_960289" data-name="Trazado 960289" d="M183.319,186.574a1.967,1.967,0,0,0-2.339-1.931L155.767,189.5h0a5,5,0,0,0-5.021,1.428l-1.978,2.426-3.15,3.865-13.351,21.794a3.416,3.416,0,1,0,6.266,2.722,3.417,3.417,0,0,0,6.267,2.723,3.416,3.416,0,1,0,6.266,2.722,3.416,3.416,0,0,0,6.023,3.183,13.331,13.331,0,0,1,.814-1.184l13.912-17.6,1.483-6.594h7.978a2.042,2.042,0,0,0,2.042-2.042V186.574Z" transform="translate(-117.355 -158.392)" fill="#ffdfcf"/>
        <g id="Grupo_1117779" data-name="Grupo 1117779" transform="translate(18.366 26.216)">
          <path id="Trazado_960290" data-name="Trazado 960290" d="M283.956,322.236H288.4l-1.483,6.594L273,346.435a13.634,13.634,0,0,0-.814,1.184,3.415,3.415,0,0,1-4.25,1.31,3.318,3.318,0,0,1-.86-.537,3.369,3.369,0,0,0,.669-.773,13.634,13.634,0,0,1,.814-1.184l13.912-17.605Z" transform="translate(-250.819 -301.865)" fill="#ffcebf"/>
          <path id="Trazado_960291" data-name="Trazado 960291" d="M441.49,186.578v16.363a2.04,2.04,0,0,1-2.041,2.041h-4.441a2.04,2.04,0,0,0,2.041-2.041V186.578a1.955,1.955,0,0,0-.6-1.411l2.7-.52A1.966,1.966,0,0,1,441.49,186.578Z" transform="translate(-393.892 -184.612)" fill="#ffcebf"/>
          <path id="Trazado_960292" data-name="Trazado 960292" d="M184.04,216.269l-1.165-6.747a8.156,8.156,0,0,0-5.6-6.4l-8.79-2.355a4.956,4.956,0,0,0-4.147.74l-3.076,2.172-2.463,2.23-1.57,1.421,5.256,7.846a14.241,14.241,0,0,0,10.946-4.17l4.749,6.776a4.136,4.136,0,0,0,2.624,1.694A2.778,2.778,0,0,0,184.04,216.269Z" transform="translate(-157.23 -198.235)" fill="#ffcebf"/>
        </g>
        <path id="Trazado_960293" data-name="Trazado 960293" d="M227.236,219.482a4.131,4.131,0,0,1-1.611-.681,2.783,2.783,0,0,0,.864-2.532l-1.165-6.746a8.157,8.157,0,0,0-5.6-6.4l-8-2.142a4.938,4.938,0,0,1,3.189-.212l8.79,2.355a8.157,8.157,0,0,1,5.6,6.4l1.165,6.746A2.779,2.779,0,0,1,227.236,219.482Z" transform="translate(-185.295 -172.019)" fill="#ffb09e"/>
        <path id="Trazado_960294" data-name="Trazado 960294" d="M352.518,361.544a3.416,3.416,0,0,0-.017,4.831l2.811,2.831a3.416,3.416,0,1,0,4.848-4.814l-2.811-2.831A3.416,3.416,0,0,0,352.518,361.544Z" transform="translate(-304.387 -308.294)" fill="#ffcebf"/>
        <path id="Trazado_960295" data-name="Trazado 960295" d="M369.352,366.8a3.417,3.417,0,0,1-5.407,2.775,3.328,3.328,0,0,0,.415-.352,3.413,3.413,0,0,0,.017-4.83l-2.811-2.832a3.438,3.438,0,0,0-.434-.369,3.419,3.419,0,0,1,4.416.369l2.811,2.832A3.4,3.4,0,0,1,369.352,366.8Z" transform="translate(-312.585 -308.297)" fill="#ffb09e"/>
        <path id="Trazado_960296" data-name="Trazado 960296" d="M372.038,315.788a3.416,3.416,0,0,0-.017,4.831l2.811,2.831a3.416,3.416,0,0,0,4.848-4.814l-2.811-2.831A3.416,3.416,0,0,0,372.038,315.788Z" transform="translate(-321.017 -269.311)" fill="#ffcebf"/>
        <path id="Trazado_960297" data-name="Trazado 960297" d="M388.873,321.045a3.416,3.416,0,0,1-5.407,2.775,3.332,3.332,0,0,0,.415-.35,3.414,3.414,0,0,0,.017-4.831l-2.811-2.832a3.442,3.442,0,0,0-.434-.369,3.419,3.419,0,0,1,4.416.369l2.811,2.832A3.4,3.4,0,0,1,388.873,321.045Z" transform="translate(-329.217 -269.312)" fill="#ffb09e"/>
        <path id="Trazado_960298" data-name="Trazado 960298" d="M319.763,394.065a3.416,3.416,0,0,0-.017,4.831l2.811,2.831a3.416,3.416,0,0,0,4.848-4.814l-2.811-2.831A3.416,3.416,0,0,0,319.763,394.065Z" transform="translate(-276.48 -336.002)" fill="#ffcebf"/>
        <path id="Trazado_960299" data-name="Trazado 960299" d="M336.6,399.322a3.417,3.417,0,0,1-5.407,2.775,3.333,3.333,0,0,0,.415-.352,3.414,3.414,0,0,0,.017-4.831l-2.811-2.831a3.333,3.333,0,0,0-.434-.369,3.418,3.418,0,0,1,4.416.369l2.811,2.831A3.4,3.4,0,0,1,336.6,399.322Z" transform="translate(-284.678 -336.003)" fill="#ffb09e"/>
        <path id="Trazado_960300" data-name="Trazado 960300" d="M287.007,426.586a3.416,3.416,0,0,0-.017,4.831l2.811,2.831a3.416,3.416,0,1,0,4.848-4.814l-2.811-2.831A3.416,3.416,0,0,0,287.007,426.586Z" transform="translate(-248.572 -363.709)" fill="#ffcebf"/>
        <path id="Trazado_960301" data-name="Trazado 960301" d="M303.841,431.842a3.417,3.417,0,0,1-5.407,2.775,3.331,3.331,0,0,0,.415-.352,3.414,3.414,0,0,0,.017-4.831l-2.811-2.831a3.33,3.33,0,0,0-.434-.369,3.416,3.416,0,0,1,4.416.369l2.811,2.831A3.4,3.4,0,0,1,303.841,431.842Z" transform="translate(-256.771 -363.709)" fill="#ffb09e"/>
        <path id="Trazado_960302" data-name="Trazado 960302" d="M361.08,111.246H349.029a1.921,1.921,0,0,1-1.921-1.921v-1.918a3.643,3.643,0,0,1,3.643-3.643h8.607A3.643,3.643,0,0,1,363,107.408v1.918A1.92,1.92,0,0,1,361.08,111.246Z" transform="translate(-300.637 -89.516)" fill="#fe646f"/>
        <path id="Trazado_960303" data-name="Trazado 960303" d="M407.951,107.41v1.917a1.921,1.921,0,0,1-1.921,1.921h-4.441a1.921,1.921,0,0,0,1.921-1.921V107.41a3.643,3.643,0,0,0-3.643-3.643h4.441A3.643,3.643,0,0,1,407.951,107.41Z" transform="translate(-345.588 -89.518)" fill="#fd4755"/>
        <path id="Trazado_960304" data-name="Trazado 960304" d="M216.271,111.246H204.22a1.921,1.921,0,0,1-1.921-1.921v-1.918a3.643,3.643,0,0,1,3.643-3.643h8.607a3.643,3.643,0,0,1,3.643,3.643v1.918A1.921,1.921,0,0,1,216.271,111.246Z" transform="translate(-177.262 -89.516)" fill="#dcf5f8"/>
        <path id="Trazado_960305" data-name="Trazado 960305" d="M263.142,107.41v1.917a1.921,1.921,0,0,1-1.921,1.921H256.78a1.921,1.921,0,0,0,1.921-1.921V107.41a3.643,3.643,0,0,0-3.643-3.643H259.5A3.643,3.643,0,0,1,263.142,107.41Z" transform="translate(-222.213 -89.518)" fill="#c2eef2"/>
        <path id="Trazado_960306" data-name="Trazado 960306" d="M71.45,111.246H59.4a1.921,1.921,0,0,1-1.921-1.921v-1.918a3.643,3.643,0,0,1,3.643-3.643h8.607a3.643,3.643,0,0,1,3.643,3.643v1.918A1.921,1.921,0,0,1,71.45,111.246Z" transform="translate(-53.877 -89.516)" fill="#dcf5f8"/>
        <path id="Trazado_960307" data-name="Trazado 960307" d="M118.321,107.41v1.917a1.921,1.921,0,0,1-1.921,1.921h-4.441a1.921,1.921,0,0,0,1.921-1.921V107.41a3.643,3.643,0,0,0-3.643-3.643h4.441A3.643,3.643,0,0,1,118.321,107.41Z" transform="translate(-98.828 -89.518)" fill="#c2eef2"/>
        <path id="Trazado_960308" data-name="Trazado 960308" d="M87.957,11.677v1.829a4.88,4.88,0,0,1-7.1,4.346h0a4.873,4.873,0,0,1-2.66-4.344V11.677a4.18,4.18,0,0,1,3.314-4.088,4.259,4.259,0,0,1,.864-.089h1.4A4.177,4.177,0,0,1,87.957,11.677Z" transform="translate(-71.532 -7.5)" fill="#d77f4a"/>
        <path id="Trazado_960309" data-name="Trazado 960309" d="M103.267,11.677v1.829a4.88,4.88,0,0,1-7.1,4.346h0a4.875,4.875,0,0,0,2.657-4.344V10.192a2.692,2.692,0,0,0-2-2.6,4.259,4.259,0,0,1,.864-.089h1.4A4.177,4.177,0,0,1,103.267,11.677Z" transform="translate(-86.842 -7.5)" fill="#c86d36"/>
        <path id="Trazado_960310" data-name="Trazado 960310" d="M232.777,11.677v1.829a4.88,4.88,0,0,1-7.1,4.346h0a4.873,4.873,0,0,1-2.66-4.344V11.677a4.18,4.18,0,0,1,3.314-4.088A4.259,4.259,0,0,1,227.2,7.5h1.4A4.177,4.177,0,0,1,232.777,11.677Z" transform="translate(-194.916 -7.5)" fill="#ffdfcf"/>
        <path id="Trazado_960311" data-name="Trazado 960311" d="M248.087,11.677v1.829a4.88,4.88,0,0,1-7.1,4.346h0a4.875,4.875,0,0,0,2.657-4.344V10.192a2.692,2.692,0,0,0-2-2.6,4.26,4.26,0,0,1,.864-.089h1.4A4.177,4.177,0,0,1,248.087,11.677Z" transform="translate(-210.227 -7.5)" fill="#ffcebf"/>
        <path id="Trazado_960312" data-name="Trazado 960312" d="M377.587,11.678v1.829a4.88,4.88,0,0,1-7.1,4.346h0a4.873,4.873,0,0,1-2.66-4.344V11.678a4.18,4.18,0,0,1,3.314-4.088,4.259,4.259,0,0,1,.864-.089h1.4A4.177,4.177,0,0,1,377.587,11.678Z" transform="translate(-318.292 -7.501)" fill="#ffdfcf"/>
        <path id="Trazado_960313" data-name="Trazado 960313" d="M392.9,11.678v1.829a4.88,4.88,0,0,1-7.1,4.346h0a4.875,4.875,0,0,0,2.657-4.344V10.193a2.692,2.692,0,0,0-2-2.6,4.26,4.26,0,0,1,.864-.089h1.4A4.177,4.177,0,0,1,392.9,11.678Z" transform="translate(-333.602 -7.501)" fill="#ffcebf"/>
      </g>
      <g id="Grupo_1117781" data-name="Grupo 1117781" transform="translate(25.652)">
        <path id="Trazado_960314" data-name="Trazado 960314" d="M92.726,184.527a1.11,1.11,0,0,0,1.11-1.11v-3.232a3.077,3.077,0,0,0-3.659-3.022l-24.962,4.808-8.543-2.289a6.05,6.05,0,0,0-5.075.905l-2.059,1.454-9.31-2.2a1.11,1.11,0,1,0-.51,2.161l9.8,2.314a1.1,1.1,0,0,0,.9-.174l2.467-1.743a3.834,3.834,0,0,1,3.219-.574l8.767,2.349a7.019,7.019,0,0,1,4.816,5.518l1.165,6.747a1.662,1.662,0,0,1-.479,1.485c-.87.911-2.636.308-3.377-.793l-6.3-9.281a1.11,1.11,0,1,0-1.886,1.171l1.113,1.794a13.4,13.4,0,0,1-7.619,3.214,1.123,1.123,0,0,0-.856.526l-5.66,9.24-2.4-2.4a5.049,5.049,0,0,0-2.985-1.441l-11.7-1.34a.932.932,0,0,1-.826-.926v-17.4a.857.857,0,0,1,1.054-.834l5.81,1.372a1.11,1.11,0,0,0,.51-2.161l-5.81-1.372a3.077,3.077,0,0,0-3.785,2.995v17.4a3.151,3.151,0,0,0,2.794,3.132l11.7,1.34a2.821,2.821,0,0,1,1.667.8l2.777,2.777-3.858,6.3a4.519,4.519,0,0,0,6.024,6.025,4.637,4.637,0,0,0,2.519,2.788,4.519,4.519,0,0,0,3.749-.066,4.636,4.636,0,0,0,2.519,2.789,4.723,4.723,0,0,0,3.748-.065,4.535,4.535,0,0,0,8.151,1.048c.156-.249.3-.469.443-.676a4.493,4.493,0,0,0,2.518.775,4.582,4.582,0,0,0,4.531-4.827,4.594,4.594,0,0,0,4.846-4.814,4.586,4.586,0,0,0,4.862-4.5,4.5,4.5,0,0,0-.659-2.369,4.527,4.527,0,0,0,2.234-7.609l-.841-.847h5.312a3.156,3.156,0,0,0,3.152-3.152v-7.768a1.11,1.11,0,0,0-2.22,0v7.768a.933.933,0,0,1-.932.932H83.147a4.525,4.525,0,0,0-6.822,5.78,4.5,4.5,0,0,0-2.214,1.205,4.673,4.673,0,0,0-1.326,3.513,4.6,4.6,0,0,0-4.846,4.814,4.7,4.7,0,0,0-3.524,1.3,4.526,4.526,0,0,0-.023,6.4l1.853,1.866c-.251.341-.478.69-.687,1.022a2.318,2.318,0,0,1-2.871.883,2.4,2.4,0,0,1-1.194-3.033,1.11,1.11,0,0,0-2.037-.885,2.35,2.35,0,0,1-3.034,1.2,2.4,2.4,0,0,1-1.2-3.033,1.11,1.11,0,0,0-2.036-.886,2.31,2.31,0,0,1-3.037,1.195,2.4,2.4,0,0,1-1.194-3.033,1.11,1.11,0,0,0-2.036-.885h0a2.306,2.306,0,0,1-4.257-1.772l10.38-16.944a15.523,15.523,0,0,0,8.113-3.5l4.012,5.724c1.378,2.048,4.682,3.147,6.753,1.1a3.9,3.9,0,0,0,1.109-3.445l-1.165-6.748a9.232,9.232,0,0,0-3.4-5.71L90.6,179.343a.857.857,0,0,1,1.019.841v3.232a1.111,1.111,0,0,0,1.11,1.111Zm-14.161,14.74a2.291,2.291,0,0,1,1.625-.669H80.2a2.291,2.291,0,0,1,1.628.681l2.811,2.831A2.306,2.306,0,0,1,83,206.041h-.008a2.288,2.288,0,0,1-1.477-.543l-2.963-2.97A2.309,2.309,0,0,1,78.565,199.267Zm-2.889,6.773a2.308,2.308,0,0,1,3.115-.121l2.957,2.964a2.306,2.306,0,0,1-1.636,3.931H80.1a2.29,2.29,0,0,1-1.628-.681L75.664,209.3a2.309,2.309,0,0,1,.012-3.261Zm-4.848,4.814a2.291,2.291,0,0,1,1.625-.669h.008a2.291,2.291,0,0,1,1.628.681L76.9,213.7a2.309,2.309,0,0,1-.012,3.261,2.259,2.259,0,0,1-1.633.669,2.291,2.291,0,0,1-1.628-.681l-2.811-2.831A2.309,2.309,0,0,1,70.827,210.854Zm-4.86,8.075A2.306,2.306,0,0,1,67.6,215h.009a2.29,2.29,0,0,1,1.628.681l2.811,2.831a2.306,2.306,0,0,1-1.636,3.931h-.009a2.29,2.29,0,0,1-1.628-.681Z" transform="translate(-25.652 -150.892)"/>
        <path id="Trazado_960315" data-name="Trazado 960315" d="M342.64,105.966h12.051a3.034,3.034,0,0,0,3.031-3.031v-1.918a4.758,4.758,0,0,0-4.753-4.753h-8.607a4.758,4.758,0,0,0-4.753,4.753v1.918A3.034,3.034,0,0,0,342.64,105.966Zm-.81-4.948a2.536,2.536,0,0,1,2.533-2.533h8.607a2.535,2.535,0,0,1,2.533,2.533v1.918a.811.811,0,0,1-.811.811H342.639a.811.811,0,0,1-.811-.811v-1.918Z" transform="translate(-293.138 -82.016)"/>
        <path id="Trazado_960316" data-name="Trazado 960316" d="M197.83,105.966h1.146a1.11,1.11,0,0,0,0-2.22H197.83a.811.811,0,0,1-.811-.811v-1.918a2.536,2.536,0,0,1,2.533-2.533h8.607a2.536,2.536,0,0,1,2.533,2.533v1.918a.811.811,0,0,1-.811.811H204.1a1.11,1.11,0,0,0,0,2.22h5.784a3.034,3.034,0,0,0,3.031-3.031v-1.918a4.758,4.758,0,0,0-4.753-4.753h-8.607a4.758,4.758,0,0,0-4.753,4.753v1.918A3.034,3.034,0,0,0,197.83,105.966Z" transform="translate(-169.762 -82.016)"/>
        <path id="Trazado_960317" data-name="Trazado 960317" d="M53.009,105.966H65.06a3.034,3.034,0,0,0,3.031-3.031v-1.918a4.758,4.758,0,0,0-4.753-4.753H54.731a4.758,4.758,0,0,0-4.753,4.753v1.918A3.034,3.034,0,0,0,53.009,105.966Zm-.811-4.948a2.536,2.536,0,0,1,2.533-2.533h8.607a2.536,2.536,0,0,1,2.533,2.533v1.918a.812.812,0,0,1-.811.811H53.009a.811.811,0,0,1-.811-.811Z" transform="translate(-46.377 -82.016)"/>
        <path id="Trazado_960318" data-name="Trazado 960318" d="M73.911,12.422l.052.028a5.99,5.99,0,0,0,8.714-5.334V5.287A5.293,5.293,0,0,0,77.39,0h-1.4a5.372,5.372,0,0,0-1.093.113,5.309,5.309,0,0,0-4.2,5.175V7.117a5.963,5.963,0,0,0,3.212,5.305Zm-.992-7.135a3.079,3.079,0,0,1,2.43-3,3.154,3.154,0,0,1,.639-.066h1.4a3.07,3.07,0,0,1,3.067,3.067V7.117a3.773,3.773,0,0,1-3.769,3.769,3.722,3.722,0,0,1-1.67-.389l-.044-.024a3.752,3.752,0,0,1-2.055-3.356Z" transform="translate(-64.031)"/>
        <path id="Trazado_960319" data-name="Trazado 960319" d="M218.733,12.422l.052.028A5.99,5.99,0,0,0,227.5,7.117V5.287A5.293,5.293,0,0,0,222.211,0h-1.4a5.375,5.375,0,0,0-1.093.113,5.309,5.309,0,0,0-4.2,5.175V7.117a5.962,5.962,0,0,0,3.212,5.305Zm-.992-7.135a3.079,3.079,0,0,1,2.429-3,3.157,3.157,0,0,1,.639-.066h1.4a3.07,3.07,0,0,1,3.067,3.067V7.117a3.773,3.773,0,0,1-3.769,3.769,3.722,3.722,0,0,1-1.67-.389l-.044-.024a3.752,3.752,0,0,1-2.055-3.356V5.287Z" transform="translate(-187.417)"/>
        <path id="Trazado_960320" data-name="Trazado 960320" d="M363.541,12.424l.051.028a5.99,5.99,0,0,0,8.714-5.334V5.288A5.293,5.293,0,0,0,367.018,0h-1.4a5.373,5.373,0,0,0-1.093.113,5.31,5.31,0,0,0-4.2,5.175V7.118A5.963,5.963,0,0,0,363.541,12.424Zm-.993-7.136a3.078,3.078,0,0,1,2.43-3,3.153,3.153,0,0,1,.639-.066h1.4a3.07,3.07,0,0,1,3.067,3.067V7.118a3.773,3.773,0,0,1-3.769,3.769,3.719,3.719,0,0,1-1.671-.39l-.043-.023a3.753,3.753,0,0,1-2.055-3.356Z" transform="translate(-310.79 -0.001)"/>
      </g>
    </g>
  </g>
</svg>
