<svg xmlns="http://www.w3.org/2000/svg" xmlns:xlink="http://www.w3.org/1999/xlink" width="295" height="138.5" viewBox="0 0 295 138.5">
  <defs>
    <clipPath id="clip-path">
      <rect id="Rectángulo_416421" data-name="Rectángulo 416421" width="214.509" height="129.511" fill="none"/>
    </clipPath>
    <clipPath id="clip-path-3">
      <rect id="Rectángulo_416402" data-name="Rectángulo 416402" width="31.24" height="43.49" fill="none"/>
    </clipPath>
    <clipPath id="clip-path-4">
      <rect id="Rectángulo_416403" data-name="Rectángulo 416403" width="32.015" height="20.283" fill="none"/>
    </clipPath>
    <clipPath id="clip-path-5">
      <rect id="Rectángulo_416404" data-name="Rectángulo 416404" width="20.275" height="20.275" fill="none"/>
    </clipPath>
    <clipPath id="clip-path-6">
      <rect id="Rectángulo_416405" data-name="Rectángulo 416405" width="18.02" height="19.012" fill="none"/>
    </clipPath>
    <clipPath id="clip-path-7">
      <rect id="Rectángulo_416406" data-name="Rectángulo 416406" width="11.932" height="12.895" fill="none"/>
    </clipPath>
    <clipPath id="clip-path-8">
      <rect id="Rectángulo_416407" data-name="Rectángulo 416407" width="17.56" height="20.275" fill="none"/>
    </clipPath>
    <clipPath id="clip-path-9">
      <rect id="Rectángulo_416408" data-name="Rectángulo 416408" width="33.503" height="39.059" fill="none"/>
    </clipPath>
    <clipPath id="clip-path-10">
      <rect id="Rectángulo_416409" data-name="Rectángulo 416409" width="10.14" height="2.017" fill="none"/>
    </clipPath>
    <clipPath id="clip-path-11">
      <rect id="Rectángulo_416410" data-name="Rectángulo 416410" width="10.14" height="1.832" fill="none"/>
    </clipPath>
    <clipPath id="clip-path-12">
      <rect id="Rectángulo_416411" data-name="Rectángulo 416411" width="6.76" height="2.072" fill="none"/>
    </clipPath>
    <clipPath id="clip-path-13">
      <rect id="Rectángulo_416412" data-name="Rectángulo 416412" width="18.26" height="4.317" fill="none"/>
    </clipPath>
    <clipPath id="clip-path-14">
      <rect id="Rectángulo_416413" data-name="Rectángulo 416413" width="32.254" height="23.371" fill="none"/>
    </clipPath>
    <clipPath id="clip-path-15">
      <rect id="Rectángulo_416414" data-name="Rectángulo 416414" width="13.802" height="29.008" fill="none"/>
    </clipPath>
    <clipPath id="clip-path-16">
      <rect id="Rectángulo_416415" data-name="Rectángulo 416415" width="1.468" height="1.468" fill="none"/>
    </clipPath>
    <clipPath id="clip-path-18">
      <rect id="Rectángulo_416417" data-name="Rectángulo 416417" width="6.46" height="7.337" fill="none"/>
    </clipPath>
    <clipPath id="clip-path-19">
      <rect id="Rectángulo_416418" data-name="Rectángulo 416418" width="19.261" height="11.373" fill="none"/>
    </clipPath>
  </defs>
  <g id="Grupo_1117918" data-name="Grupo 1117918" transform="translate(-180.062 -6655.5)">
    <path id="Image_Place_Holder" data-name="Image Place Holder" d="M20,0H275a20,20,0,0,1,20,20v96a0,0,0,0,1,0,0H0a0,0,0,0,1,0,0V20A20,20,0,0,1,20,0Z" transform="translate(180.062 6678)" fill="#8bc34a"/>
    <g id="Grupo_1117917" data-name="Grupo 1117917" transform="translate(220.307 6655.5)">
      <g id="Grupo_1117916" data-name="Grupo 1117916" clip-path="url(#clip-path)">
        <g id="Grupo_1117915" data-name="Grupo 1117915">
          <g id="Grupo_1117914" data-name="Grupo 1117914" clip-path="url(#clip-path)">
            <path id="Trazado_960514" data-name="Trazado 960514" d="M213,123.786s5.284-11.464-3.9-19.094-3.915-17.013-1.275-24.013S208,67.626,197.075,65.144s.1-24.7-8.588-33.26-15.79,5.228-38.059-11.4c-9.459-7.063-30.982-26.9-54.709-18.406s-26.986,36.08-34.8,41.727-25.323-.265-33.8,5.866C15.627,57.982,24.426,75.717,18.1,82.241s-23.868,22.267-16.19,41.652Z" transform="translate(0 0)" fill="#c0dee2"/>
            <path id="Trazado_960515" data-name="Trazado 960515" d="M139.873,61.435c-4.19,2.935-11.781.416-22.6-7.473a10.575,10.575,0,0,1-.973.545c8.259,6.057,14.793,9.109,19.521,9.109a7.882,7.882,0,0,0,4.64-1.344c8.919-6.247,2.013-32.219-1.054-42.21q-.425.4-.835.817c3.048,10.149,9.433,34.861,1.3,40.556" transform="translate(-56.878 -9.812)" fill="#fff"/>
            <path id="Trazado_960516" data-name="Trazado 960516" d="M163.607,193.217c-38.368,14.575-69.052,6.4-96.124-.806-22.968-6.117-43.2-11.5-62.086-.344q-.393.82-.748,1.663c18.916-11.956,39.33-6.521,62.572-.332,16.144,4.3,33.56,8.939,53.133,8.939a121.049,121.049,0,0,0,43.617-8.165,93.754,93.754,0,0,1,42.576-5.948c-.085-.347-.159-.694-.214-1.043a94.845,94.845,0,0,0-42.726,6.036" transform="translate(-2.273 -90.766)" fill="#fff"/>
            <path id="Trazado_960517" data-name="Trazado 960517" d="M189.5,7.363c3.233,11.922,7.66,28.249,29.175,36.873a43.458,43.458,0,0,0,16.254,3.321,39.5,39.5,0,0,0,24.229-8.618,55.007,55.007,0,0,0,8.539-8.28q-.687.051-1.409.083a53.454,53.454,0,0,1-7.782,7.409c-11.878,9.141-25.15,10.869-39.451,5.137C198.009,34.853,193.659,18.81,190.482,7.1c-.378-1.394-.742-2.732-1.117-4q-.485.15-.972.316c.369,1.252.729,2.576,1.1,3.955" transform="translate(-92.137 -1.512)" fill="#fff"/>
            <path id="Trazado_960518" data-name="Trazado 960518" d="M40.511,124.392c0,.436.006.87.005,1.3,6.672,5.419,13,7.491,19.163,7.49,9.618,0,18.834-5.037,28.317-10.221,17.517-9.575,35.631-19.476,60.245-3.013,18.583,12.429,35.243,16.538,49.149,16.538a69.6,69.6,0,0,0,31.192-7.379,9.354,9.354,0,0,0-.131-1.077c-15.219,7.711-43.787,15.05-79.642-8.931-25.128-16.808-44.346-6.3-61.3,2.965-16.058,8.778-30.252,16.531-47,2.33" transform="translate(-19.813 -53.895)" fill="#fff"/>
            <path id="Trazado_960519" data-name="Trazado 960519" d="M214.771,237.108c0,3.1-47.854,5.618-106.887,5.618S1,240.21,1,237.108s47.855-5.618,106.887-5.618,106.887,2.515,106.887,5.618" transform="translate(-0.488 -113.214)" fill="#97cadb"/>
            <path id="Trazado_960520" data-name="Trazado 960520" d="M219.954,240.431c0,1.616-30.822,2.925-68.843,2.925s-68.844-1.31-68.844-2.925,30.823-2.925,68.844-2.925,68.843,1.31,68.843,2.925" transform="translate(-40.234 -116.157)" fill="#6c9fad"/>
            <path id="Trazado_960521" data-name="Trazado 960521" d="M352.788,242.451c0,.972-5.463,1.761-12.2,1.761s-12.2-.788-12.2-1.761,5.463-1.76,12.2-1.76,12.2.788,12.2,1.76" transform="translate(-160.603 -117.714)" fill="#6c9fad"/>
            <path id="Trazado_960522" data-name="Trazado 960522" d="M41.442,241.7c0,.856-5.75,1.55-12.843,1.55s-12.842-.694-12.842-1.55,5.75-1.55,12.842-1.55,12.843.694,12.843,1.55" transform="translate(-7.706 -117.448)" fill="#6c9fad"/>
            <path id="Trazado_960523" data-name="Trazado 960523" d="M340.786,180.66c-.228,1.639-2.185.82-3.233,6.1-.661,3.333-1.775,4.371-6.693,4.78-3.151.263-4.875,2.487-5.873,5.554-1.715,5.271-7.1,1.826-9.242,4.416s-4.6,5.419-9.151,4.462-7.74-.728-10.244,2.345-10.411,3.892-15.631,2.458-14.366,2.71-19.385-2.458c2.082-8.409,15.379-11.057,15.379-11.057a19.789,19.789,0,0,0,11.169-.626c6.192-2.125,10.327,3.809,14.994-1.559,3.587-4.126,6.852-3.311,13.411-3.515s5.741-6.016,8.26-6.623,4.475.505,6.344-1.092c5.038-4.31,10.288-6.018,9.895-3.187" transform="translate(-127.81 -87.675)" fill="#95db4b"/>
            <path id="Trazado_960524" data-name="Trazado 960524" d="M288.61,212.843c-.24.06-.482.128-.728.213a19.791,19.791,0,0,1-11.17.626s-13.3,2.647-15.378,11.057c1.9,1.961,4.4,2.58,7.056,2.673.991-.392,1.97-.807,2.928-1.259q1.255-.585,2.466-1.24a50.939,50.939,0,0,0,14.825-12.069" transform="translate(-127.81 -104.095)" fill="#88cc3a"/>
            <path id="Trazado_960525" data-name="Trazado 960525" d="M338.622,146.173c1.349.842-.908,4.8-1.758,9.592s-3.415,7.557-9.06,8.65-2.868,9.788-7.785,11.064-7.148-.364-10.7,4.1a17.663,17.663,0,0,1-18.075,6.328c-8.2-1.821-10.278.378-13.539,1.669,1.428-8.088,5.617-17.148,5.617-17.148s16.612,1.9,22.374-1.848,8.6-.656,12.028-5.892,7.53-3.232,9.669-6.92,5.163-2.468,6.465-5.4,3.766-4.811,4.762-4.189" transform="translate(-135.817 -71.43)" fill="#459b4f"/>
            <path id="Trazado_960526" data-name="Trazado 960526" d="M303.468,192.146c-6.948,2.33-20.145.821-20.145.821s-4.189,9.06-5.617,17.148c3.233-1.279,5.311-3.448,13.327-1.713a50.887,50.887,0,0,0,12.435-16.256" transform="translate(-135.817 -93.972)" fill="#388e3e"/>
            <path id="Trazado_960527" data-name="Trazado 960527" d="M126.9,175.291a36.85,36.85,0,0,1-13.962-27.27c-.75-17.976-4.6-26.5-6.289-28.954,10.7.872,16.4,10.005,21.472,24.674s16,18.055,16,18.055-4.938,17.021-17.223,13.495" transform="translate(-52.161 -58.232)" fill="#459b4f"/>
            <path id="Trazado_960528" data-name="Trazado 960528" d="M120.353,132.055a48.364,48.364,0,0,1,2.68,5.9c.791,2.009,1.492,4.053,2.137,6.114s1.233,4.14,1.763,6.234.961,4.214,1.592,6.262a36.064,36.064,0,0,0,5.538,11.466,23.61,23.61,0,0,0,4.381,4.5,19.122,19.122,0,0,0,2.6,1.686,14.588,14.588,0,0,0,1.381.648c.235.091.469.178.7.254a6.287,6.287,0,0,0,.655.179h.007a1.024,1.024,0,0,1-.375,2.013,1.073,1.073,0,0,1-.108-.026,8.108,8.108,0,0,1-.88-.328c-.269-.117-.531-.242-.788-.372-.513-.261-1.006-.547-1.486-.849a20.7,20.7,0,0,1-2.678-2.045,26.223,26.223,0,0,1-4.324-5.021A39.564,39.564,0,0,1,128,156.712c-.127-.527-.268-1.051-.384-1.58l-.337-1.589c-.229-1.053-.44-2.109-.685-3.158q-.722-3.149-1.62-6.256a61.838,61.838,0,0,0-4.773-11.98l0-.006a.091.091,0,1,1,.158-.088" transform="translate(-58.778 -64.561)" fill="#295638"/>
            <g id="Grupo_1117865" data-name="Grupo 1117865" transform="translate(60.726 74.049)" opacity="0.55">
              <g id="Grupo_1117864" data-name="Grupo 1117864">
                <g id="Grupo_1117863" data-name="Grupo 1117863" clip-path="url(#clip-path-3)">
                  <path id="Trazado_960529" data-name="Trazado 960529" d="M134.093,156.39a85.124,85.124,0,0,0-4.764-11.46,55.2,55.2,0,0,0-1.688,11.615c-.178,6.088-4.8,5.034-8.787,2.963.019.385.039.768.056,1.162a36.85,36.85,0,0,0,13.962,27.27c12.285,3.525,17.222-13.495,17.222-13.495s-10.932-3.386-16-18.055" transform="translate(-118.854 -144.93)" fill="#295638"/>
                </g>
              </g>
            </g>
            <path id="Trazado_960530" data-name="Trazado 960530" d="M120.082,203.636s-4.824-28.926-39.736-30c9.114,12.28,8.343,37.867,39.736,30" transform="translate(-39.295 -84.921)" fill="#95db4b"/>
            <path id="Trazado_960531" data-name="Trazado 960531" d="M121.637,206.309a41.3,41.3,0,0,1-9.02-4.687,48.247,48.247,0,0,1-7.608-6.693c-2.318-2.452-4.472-5.036-6.748-7.506a61.22,61.22,0,0,0-7.332-6.892.047.047,0,0,1,.057-.074,61.394,61.394,0,0,1,7.5,6.76c2.333,2.429,4.542,4.97,6.9,7.358a47.634,47.634,0,0,0,7.644,6.453,40.519,40.519,0,0,0,8.929,4.409l.006,0a.464.464,0,1,1-.31.874l-.009,0" transform="translate(-44.462 -88.251)" fill="#72a537"/>
            <g id="Grupo_1117868" data-name="Grupo 1117868" transform="translate(48.772 99.908)" opacity="0.59">
              <g id="Grupo_1117867" data-name="Grupo 1117867">
                <g id="Grupo_1117866" data-name="Grupo 1117866" clip-path="url(#clip-path-4)">
                  <path id="Trazado_960532" data-name="Trazado 960532" d="M116.977,195.54c1.167,3.154,2.693,9.332-2.735,10.408-5.022,1-13.759-3.143-18.785-5.862,4.776,10.331,11.582,19.383,32.016,14.261a37.621,37.621,0,0,0-10.5-18.807" transform="translate(-95.457 -195.54)" fill="#72a537"/>
                </g>
              </g>
            </g>
            <path id="Trazado_960533" data-name="Trazado 960533" d="M240.81,92.991c0,.752-.014,1.494-.052,2.236-.038.9-.1,1.8-.188,2.687a49.684,49.684,0,0,1-1.231,7.239q-.282,1.142-.615,2.264a50.84,50.84,0,0,1-24.635,30.291q-1.212.656-2.466,1.241a50.611,50.611,0,0,1-13.309,4.139,50.741,50.741,0,0,1-59.041-50.1,50.529,50.529,0,0,1,8.08-27.486q.655-1.022,1.363-2.011a51.055,51.055,0,0,1,8.014-8.818c.592-.512,1.194-1.015,1.809-1.5a51.566,51.566,0,0,1,5.891-4.03,50.905,50.905,0,0,1,33.312-6.342h0c.244.038.493.075.737.122.005,0,.005,0,.01,0q1.212.2,2.4.46h0a50.239,50.239,0,0,1,9.335,3.011q1.754.761,3.434,1.649c.77.4,1.522.827,2.264,1.269A50.721,50.721,0,0,1,240.81,92.991" transform="translate(-68.114 -20.65)" fill="#46b2d3"/>
            <path id="Trazado_960534" data-name="Trazado 960534" d="M286.859,96.989c0,.752-.014,1.494-.052,2.236-.038.9-.1,1.8-.188,2.687a49.682,49.682,0,0,1-1.231,7.239q-.282,1.142-.615,2.264a50.84,50.84,0,0,1-24.635,30.291q-1.212.656-2.466,1.241a50.08,50.08,0,0,1-7.075,2.7c-.409-1.095,1.123-1.771-2.391-2.7-5.83-1.541-2.518-2.687-3.843-7.737s4.379-14.916,3.843-19.669-3.692-3.232-7.45-6.558-2.819-5.834-4.665-9.1-2.616-4.482-2.659-9.452.982-3.721,3.5-8.16-1.348-3.547-.212-6.309,7.084-11.8,10.354-14.267,1.9-1.292,5.421-5.9c1.574-2.058,2.852-3.946,3.782-5.4q1.754.761,3.434,1.649c.77.4,1.522.827,2.264,1.269a50.721,50.721,0,0,1,24.879,43.674" transform="translate(-114.164 -24.648)" fill="#5acbe5"/>
            <path id="Trazado_960535" data-name="Trazado 960535" d="M198.314,149.227a51.146,51.146,0,0,1-21.863-1.17s0-.005,0-.005c-4.289-6.356-.864-2.09-6.1-8.921s2.067-9.414-4.754-12-9.4-1.63-10.344-4.693.7,5.411-3.758,0,6.436-3.444-2.889-7.6c-3.288-1.466-5.45-.925-6.925-.253a50.86,50.86,0,0,1,5.68-42.947q.655-1.022,1.362-2.011a51.039,51.039,0,0,1,8.014-8.818c.592-.512,1.194-1.015,1.809-1.5a51.569,51.569,0,0,1,5.891-4.031,4.535,4.535,0,0,0,2.56.169c3.758-.667,5.4-1.639,7.751,1.551s2.973,3.913,2.9,6.13-2.363,3.429.005,5.891,3.711,2.438,4.514,6.431,5.581,2.213,3.895,6.624-5.675,6.173-6.85,9.053-6.868,1.583-7.309,2.349,2.02.747,4.547,3.81,2.87,5.106,6.577,6.318,4.406,3.556,6.52,5.905,7.047,9.879,5.168,12.928-4.007,2.748-3.3,6.891-1.428,5.35.582,9.795c1.766,3.9,5.962,8.151,6.323,10.1" transform="translate(-68.114 -26.789)" fill="#5acbe5"/>
            <path id="Trazado_960536" data-name="Trazado 960536" d="M239.828,52.859a4.687,4.687,0,0,1-3.368,1.564c-.1,0-.216,0-.343,0s-.244-.005-.394-.005c-.193,0-.423.005-.7.024-.587.042-1.038.047-1.367.047h-.08c-.056.071-.122.16-.212.273a3.382,3.382,0,0,0-.5,1.461,11.92,11.92,0,0,1-1.273,3.659c-.052.1-.113.212-.178.324a7.5,7.5,0,0,1,.493,1.583,4.056,4.056,0,0,1-.507,3.439,3.494,3.494,0,0,1-2.861,1.2,3.758,3.758,0,0,0-.47.033,3.906,3.906,0,0,1-1.621.347c-2.119,0-3.768-1.569-5.36-3.081l-.061-.061c-2.988-2.842-.653-5.468.347-6.591.174-.193.353-.4.535-.615a5.922,5.922,0,0,0,.447-.582c-.057-.136-.16-.357-.353-.719a7.42,7.42,0,0,0-.747-1.1,7.238,7.238,0,0,1-1.644-3.725,3,3,0,0,0-.084-.441l0-.01a5.219,5.219,0,0,1-1.02-3.034,4.614,4.614,0,0,1,1.231-3.561c.094-.1.193-.207.3-.3a51.1,51.1,0,0,1,16.451-.174h.005a3.4,3.4,0,0,0,.324.169,3.121,3.121,0,0,1,.413-.047s0,0,.009,0a1.9,1.9,0,0,1,.23-.009,5.409,5.409,0,0,1,1.222.155,5.15,5.15,0,0,1,.949.315h0a3.52,3.52,0,0,1,2.048,3.04c.037.23.08.507.159.841.6,2.631.221,3.674-2.015,5.59" transform="translate(-106.851 -20.65)" fill="#359d9e"/>
            <path id="Trazado_960537" data-name="Trazado 960537" d="M182.756,85.883a4.148,4.148,0,0,1-2.593,1.766c-.47,2.71-1.8,4.082-3.969,4.082A10.61,10.61,0,0,1,173.4,91.2c-.216-.061-.446-.127-.686-.188a5.2,5.2,0,0,0-1.194-.216,6.156,6.156,0,0,0,0,1.7,4.837,4.837,0,0,1-.808,3.819,3.175,3.175,0,0,1-2.189,1.057,9.4,9.4,0,0,0,.188,2.236c.193,1.179.413,2.518-.521,3.622a2.814,2.814,0,0,1-2.18.982,4.581,4.581,0,0,1-1.668-.357c-.042-.014-.08-.033-.122-.047a4.616,4.616,0,0,1-1.174,4.368l-.5.578a38.945,38.945,0,0,0-4.468,5.788c-.216.39-.413.827-.611,1.254-.672,1.456-1.588,3.453-3.758,3.453a3.762,3.762,0,0,1-2.767-1.376c-1.851-1.978-5.67-6.069-3.58-9.292-.141-.306-.3-.686-.47-1.16a5.647,5.647,0,0,1,.1-4.082c.221-.62.23-.643,0-1.137a18.744,18.744,0,0,0-.934-1.681,8.589,8.589,0,0,1-1.541-5.37,19.54,19.54,0,0,0-.212-2.809c-.249-2.081-.507-4.233.428-6.238a4.952,4.952,0,0,1,2.485-2.616c.319-.165.5-.254.935-1.081a5.637,5.637,0,0,0,.761-2.156,9.627,9.627,0,0,1,1.019-3.129c.183-.366.568-1.137.737-1.574,0,0,0,0,0,0-.042-.047-.2-.183-.319-.282-.188-.159-.413-.347-.648-.587q.655-1.022,1.363-2.011a51.017,51.017,0,0,1,8.014-8.818c.592-.512,1.194-1.015,1.809-1.5l.061.075a3.468,3.468,0,0,0,1.122,1.081c4.5-1.682,7.85-2.537,9.969-2.537,2.269,0,3.288,1,3.744,1.837a4.987,4.987,0,0,1,.221,4.195c-.023.071-.052.16-.075.24a4.144,4.144,0,0,1,0,3.913c.54-.037,1.085-.066,1.6-.066a5.025,5.025,0,0,1,4.04,1.433,3.56,3.56,0,0,1,.733,3,6.027,6.027,0,0,1-1.24,2.706c.08.084.155.169.235.249,1.536,1.63,3.852,4.087,1.456,7.413" transform="translate(-70.463 -29.815)" fill="#359d9e"/>
            <path id="Trazado_960538" data-name="Trazado 960538" d="M306.71,165.229q-.282,1.142-.615,2.264a50.84,50.84,0,0,1-24.635,30.291q-1.212.655-2.466,1.241a5.124,5.124,0,0,1-1.687-2.33,5.249,5.249,0,0,1-.146-2.889,7.332,7.332,0,0,1,.691-1.841,5.1,5.1,0,0,1,4.928-2.993h.075c.15,0,.3,0,.465,0,.141,0,.287,0,.437,0a4.328,4.328,0,0,0,1.781-.3c1.066-.432,1.066-.432,1.621-2.434a39.7,39.7,0,0,1,1.226-3.81c1.287-3.373,2.5-4.392,4.3-5.092a1.7,1.7,0,0,0,.939-.648c.644-.794,1.612-1.988,3.1-1.988a2.817,2.817,0,0,1,.625.071,12.651,12.651,0,0,1,.141-2.118,6.158,6.158,0,0,1,.817-2.377,0,0,0,0,0,0,0,5.436,5.436,0,0,1,2.551-2.043c.033-.014.061-.029.089-.042l0,0c.531-.245.681-.343.841-.611a4.574,4.574,0,0,1,3.777-2.518,4.037,4.037,0,0,1,1.137.169" transform="translate(-135.485 -80.726)" fill="#359d9e"/>
            <path id="Trazado_960539" data-name="Trazado 960539" d="M265.818,54.893c-.742-.441-1.493-.864-2.264-1.269a6.811,6.811,0,0,0-2.659,4.651,8.662,8.662,0,0,1-.569,2.71,10.052,10.052,0,0,1-2.584,1.282l-.117.047a22.981,22.981,0,0,1-2.837.921c-2.335.644-4.98,1.376-6.774,4.66a3.923,3.923,0,0,1-1.752,1.687c-.906.535-3.321,1.954-1.677,5.454a4.673,4.673,0,0,1,.319,1.931c.07,3.077,1.752,3.617,2.819,3.646a4.915,4.915,0,0,0-.465,2.255,8,8,0,0,0,.146,1.574,2.655,2.655,0,0,1-.921.343c-1.63.253-2.184,1.081-3.523,3.072-1.419,2.1-2.316,5.224-1.132,7.446a3.638,3.638,0,0,0,3.26,1.959h0a5.681,5.681,0,0,0,2.79-.846,18.478,18.478,0,0,0,3.251-2.34,4.283,4.283,0,0,1,2.325-1.226c.113-.024.216-.052.319-.075a12.265,12.265,0,0,0-1.832,1.771c-1.54,1.822-2.109,2.34-3.495,2.767-.3.089-.686.179-1.1.268-1.658.371-3.932.874-4.688,2.894a4.055,4.055,0,0,0,.827,3.965,15.154,15.154,0,0,0,3.425,3.288,5.493,5.493,0,0,1,1.9,1.9c1.235,2.49,3.819,4.3,6.14,4.3a4.264,4.264,0,0,0,2.861-1.053c-.112,2.288-.071,5.416,3.4,6.337a.794.794,0,0,1,.6.507.946.946,0,0,1-.235.888c-.362.432-.634.78-.86,1.066a3.5,3.5,0,0,1-1.6,1.348c-2.043,1.118-2.974,3.852-3.354,5.459-1.884,1.536-4.515,3.862-5.182,5.36a5.968,5.968,0,0,0,.324,5.3,3.856,3.856,0,0,0,3.284,1.781,4.992,4.992,0,0,0,1.686-.31c.428-.15.85-.277,1.273-.409a22.382,22.382,0,0,0,2.522-.893,12.856,12.856,0,0,0,5.271-4.359c.122-.165.239-.324.347-.475a10.83,10.83,0,0,0,1.832-3.5,7.577,7.577,0,0,1,1.7-2.823,17.366,17.366,0,0,0,2.64-4.509,5.506,5.506,0,0,1,2.138-2.81c.836-.643,2.109-1.512,3.462-2.428,1.442-.977,2.687-1.837,3.753-2.616a.005.005,0,0,0,.005-.005,33.4,33.4,0,0,0,2.64-2.086l0,0c1.527-1.358,2.269-2.475,2.344-3.674a2.953,2.953,0,0,0-1-2.405,8.566,8.566,0,0,0-2.616-1.437c-.245-.1-.564-.225-.808-.338a2.953,2.953,0,0,1,.183-.371c1.606-2.936.78-4.867.136-5.91a5.3,5.3,0,0,0,.376-.676c.893,1.644,2.048,3.04,4.43,3.04.132,0,.273,0,.413-.014a1.049,1.049,0,0,1,.118,0,4.568,4.568,0,0,1,2.307.869l1.1.723c.089-.888.15-1.785.188-2.687.037-.742.052-1.485.052-2.236a50.721,50.721,0,0,0-24.879-43.674m-12.064,23.23c-.028.038-.052.071-.075.1a7.048,7.048,0,0,1-.831.315,3.577,3.577,0,0,1-.8.16,12.274,12.274,0,0,0,2.1-2.321c.244.221.475.423.686.606a8.631,8.631,0,0,0-1.076,1.141M265.541,93.39a6.084,6.084,0,0,0-2.447,1.372c-.089-.193-.179-.39-.263-.582-.475-1.095-1.24-2.852-3.058-3.26.226-.2.418-.385.588-.559a7.549,7.549,0,0,0,4.068,1.395,4.224,4.224,0,0,0,1.818-.385,10.454,10.454,0,0,0,.94.728c.193.136.4.277.616.428.117.085.263.183.418.3a16.728,16.728,0,0,0-2.678.569" transform="translate(-118.002 -26.226)" fill="#359d9e"/>
            <path id="Trazado_960540" data-name="Trazado 960540" d="M211.1,156.328a11.8,11.8,0,0,1-1.5-3.232c-.531-1.822-1.316-2.537-3.5-3.185a5.959,5.959,0,0,0-1.7-.273,3.933,3.933,0,0,0-1.625.334.894.894,0,0,1-.075-.061,3.865,3.865,0,0,1-.836-.832.283.283,0,0,0-.009-.061,3.016,3.016,0,0,0-2.255-2.546c-.934-.3-1.64-.521-1.978-.629a16.949,16.949,0,0,1-3.655-2.748,10.185,10.185,0,0,1-.878-1.052,3.548,3.548,0,0,0-2.791-1.753c-1.686,0-2.631,1.4-3.382,2.532-.883,1.316-.972,1.372-1.235,1.546a13.976,13.976,0,0,0-1.64,1.24,4,4,0,0,0-1.625,3.744c0,.061.019.122.019.155a3.453,3.453,0,0,1-.8,1.085c-2.279,2.438-3.51,5.186-3.378,7.54a4.913,4.913,0,0,0,1.687,3.565,6.057,6.057,0,0,0,3.321,1.32,1.3,1.3,0,0,1,.131.019,1.658,1.658,0,0,1-.117.723c-.559,1.794-.216,3.1,1.371,5.2a5.372,5.372,0,0,0,4.285,2.264,8.1,8.1,0,0,1,.178,1.222c.441,5.181.93,6.3,2.678,8.5.122.15.253.315.39.493a3.153,3.153,0,0,1,.517,1.17c.635,2.161,1.814,3.621,5.5,3.73a28.266,28.266,0,0,1,5.994,1.2,14.114,14.114,0,0,0,3.392.7,2.656,2.656,0,0,0,2.109-.911,2.511,2.511,0,0,0,.559-2.029,5.967,5.967,0,0,0-1.888-2.95,13.678,13.678,0,0,1-2.87-4.031,2.676,2.676,0,0,1-.207-.752,1.98,1.98,0,0,1,.1-.178,3.249,3.249,0,0,0,.465-2.429c2.255-.319,3.006-2.809,3.34-3.913.733-2.424.756-3.41.46-4.4a13.108,13.108,0,0,1,.493-1.588,4.408,4.408,0,0,1,1.288-2.024c2.4-2.288,1.071-4.435-.334-6.709" transform="translate(-87.175 -68.611)" fill="#359d9e"/>
            <path id="Trazado_960541" data-name="Trazado 960541" d="M234.516,45.606s-3.993.391-5.872-.626-5.794.391-5.559,2.819.783,1.252,1.1,3.367,1.221,2.349,2.138,4.071,1.016,2.271-.365,3.915-2.633,2.506-1.068,3.993,3.1,2.975,4.488,2.349,3.028.548,2.481-2.036-1.41-1.1-.078-3.523.783-3.837,1.957-5.4,1.174-1.1,3.367-1.252,1.8.391,3.445-1.018,1.645-1.565,1.253-3.288-.078-2.114-1.409-2.427-1.018.313-2.271-.235-1.722-1.331-2.662-1.018Z" transform="translate(-109.099 -21.835)" fill="#95db4b"/>
            <path id="Trazado_960542" data-name="Trazado 960542" d="M183.1,86.759c-1.409,1.959-2.5-.47-2.974,2.584s-1.644,2.429-4.543,1.644-4.594-.212-4.139,4.007-2.283.648-2.908,3.763,1.564,6.168-1.094,5.149-7.441-6.967-6.187-3.054,4.463,5.492,2.269,8.033a44.508,44.508,0,0,0-5.243,6.765c-1.175,2.114-1.644,4.712-3.369,2.865s-4.383-4.9-3.288-6.464.583-.775-.258-3.166,1.231-2.866,0-5.45-2.326-3.1-2.246-5.975-1.029-5.924,0-8.118,1.884-.78,3.368-3.6.55-2.819,1.8-5.327,1.329-2.894.545-3.993c-.4-.568-1.062-.883-1.517-1.517a51.036,51.036,0,0,1,8.014-8.817c1.019,1.339,2.325,2.419,3.763,1.879,3.128-1.174,9.94-3.523,10.88-1.8s-.7,2.819,0,4.148.3,1.879-.709,3.288-1.95,2.41,1.066,2.264,6.3-.775,5.909,1.494-2.743,2.429-.939,4.388,3.208,3.053,1.8,5.008" transform="translate(-72.713 -32.062)" fill="#95db4b"/>
            <path id="Trazado_960543" data-name="Trazado 960543" d="M308.342,169.742a50.841,50.841,0,0,1-24.635,30.291c-1.964-.855-2.687-2.537-1.532-4.721,1.564-2.955,3.444-.953,6.5-2.208s2.269-2.659,4.148-7.582,2.974-2.753,4.872-5.1,1.076-.155,3.114-.78.78-1.254,1.245-4.388,2.668-2.034,3.993-4.2c.8-1.311,1.48-1.555,2.293-1.311" transform="translate(-137.732 -82.974)" fill="#95db4b"/>
            <path id="Trazado_960544" data-name="Trazado 960544" d="M292.95,99.781c0,.752-.014,1.494-.052,2.236a6.5,6.5,0,0,0-3.871-1.245c-2.293.155-2.405-1.724-4.449-5.431s-1.09,2.612-2.81,4.439,2.1,1.931,0,5.769,2.034,3.523,3.749,5.036-7.666,6.943-11.1,9.6-2.053,3.758-5.181,7.719-1.1,3.087-3.918,6.844-5.323,3.918-7.972,4.857-2.988-2.194-2.363-3.6,5.168-5.012,5.168-5.012.629-3.758,2.349-4.7,1.569-1.094,3.134-2.974a3.135,3.135,0,0,0-1.564-5.168c-2.349-.625-1.569-3.133-1.569-6.262s-2.189-2.039-3.6,0-4.543.315-5.736-2.091-3.5-2.762-5.539-5.534,1.719-2.865,3.758-3.49,2.974-1.564,4.6-3.5a7.248,7.248,0,0,1,5.261-2.88c1.564.042,1.564,3.091,3.288,4.421s1.25-1.175,3.913-1.954,3.288-.315,5.323-1.268-1.25-2.96-2.974-4.191-1.41-.963,1.7-4.871-.757-3.138-3.105-2.847-1.907,1.522-1.254,4.669-2.659,2.556-4.538,1.029-1.409-.507-3.133.991-2.147.629-5.322,1.414-2.664,1.785-6.182,3.805-3.885-2.119-1.8-5.21,1.094-1.353,3.6-2.654,1.1-1.047,1.1-3.645,1.564-1.315,3.97-2.1,1.353-.939,3.387-2.5.315-2.039-1.865-4.228-2.2,1.719-5.651,3.6-1.409-.78-2.734-3.6,1.484-1.569,3.363-5.013,4.7-2.974,8.456-4.543,4.228-1.719,4.7-5.947a4.977,4.977,0,0,1,2.588-3.64,50.842,50.842,0,0,1,24.87,43.007c.009.221.009.447.009.667" transform="translate(-120.255 -27.44)" fill="#95db4b"/>
            <path id="Trazado_960545" data-name="Trazado 960545" d="M198.948,150.262a19.707,19.707,0,0,1-4.424-3.291c-1.879-1.957-1.644-3.224-3.406-.595s-1.292,1.534-3.288,3.257.587,1.794-2.232,4.812-3.523,6.306-1.879,7.716,3.875,0,4.228,2.583-1.41,2.1.822,5.042,4.462-.814,4.933,4.706.94,5.637,2.584,7.751.118,3.875,4.228,3.993,9.828,2.659,9.67,1.681-3.35-3.208-4.631-6.5,1.42-2.936-.342-4.463-6.486-.249-2.352-2.114,4.914,2.464,6.334-2.232-.613-1.628.991-6.1,4-2.124,1.167-6.7-.873-4.569-3.674-5.4-1.605,1.688-4.209-.429-1-2.6-2.332-3.021-2.189-.7-2.189-.7" transform="translate(-89.424 -70.859)" fill="#95db4b"/>
            <path id="Trazado_960546" data-name="Trazado 960546" d="M266.925,139.048a16.289,16.289,0,0,0-4.052,2.288c-1.938,1.527-3.831.752-1.534,3.488s-3.168,5.179,2.265,4.369,2.85-3.335,6.139-1.956,4.11-.063,4.11,3.008,1.564,6.515,3.659,3.266,1.978-1.8,3.035-3.991,1.762.625,1.762-4.073,1.409-7.032-2.936-5.1-3.288,2.176-5.4,1.936-.822-1.725-3.406-1.922-2.349.977-2.584-.2-1.057-1.114-1.057-1.114" transform="translate(-127.297 -68.004)" fill="#d3ff69"/>
            <path id="Trazado_960547" data-name="Trazado 960547" d="M285.643,164.686s-2.819,2.561-2,4.654-2.678,1.741-3.747,5.616-2.421,2.349-4.211,5.4-2.025,3.554-1.79,4.185.7,1.953,2.584,0,1.865-1.733,3.251-3.245,1.682-4.356,2.622-6.171,2.114-2.4,3.288-4.4.788-3.387,3.507-4.688,7.971-2.853,6.284-4.6-2.509-.726-2.626-2.588-1.817-3.031-2.729-1.507-.24,3.678-.928,4.773-1.51.091-2.567.946-.94,1.624-.94,1.624" transform="translate(-133.918 -76.608)" fill="#d3ff69"/>
            <path id="Trazado_960548" data-name="Trazado 960548" d="M304.468,102.194c-1.738-.507-.084-2.368-2.64-3.772s-2.819-2.2-2.232-5.962-1.527-2-2.551-4.322-2.029-3.428-5.3-2.325.921,2.419,1.55,5.923.427,7.653-1.55,8.593-1.194-4.111-3.805-4.186-.794-1.922-1.588-4.712,2.908-6.487,1.588-9.372-2.438,1.24-5.285,2.048a9.9,9.9,0,0,0-5.374,3.053c-1.644,1.63-.94,3.3-3.171,1.123s-3.523,1.358-4.463-1.123,1.762-1.043,3.674-3.5.437-.592,2.349-1.071,2.081-1.869,3.345-4.923-2.556-2.231-5.694-3.335.2-2.537,3.373-4.415,4.815-1.88,4.251-4.816c-.32-1.654,1.649-2.377,3.429-2.692a50.631,50.631,0,0,1,20.092,39.79" transform="translate(-131.782 -30.52)" fill="#d3ff69"/>
            <path id="Trazado_960549" data-name="Trazado 960549" d="M173.192,73.894s-3.833,2.017,1.491,5.236,7.842,3.831,5.722,6.344-3.328,1.1-3.9,4.08-1.143,3.758-3.362,4.227-.966,5.055-3.472,5.5-4.7,1.6-4.854-3.048-2.975-2.456-1.253-6.37,5.011-.469,4.228-5.95-4.071-4.752-2.349-7.543,4.045-2.32,5.35-3.732,2.4,1.253,2.4,1.253" transform="translate(-79.723 -35.325)" fill="#d3ff69"/>
            <path id="Trazado_960550" data-name="Trazado 960550" d="M157.385,127.667s2.192,8.1,4.541,8.1,1.566,4.871,0,4.706-.485,4.141-2.9.736-1.323-2.167-1.636-4.744-2.192-2.107-2.506-4.3,2.506-4.5,2.506-4.5" transform="translate(-75.735 -62.438)" fill="#d3ff69"/>
            <path id="Trazado_960551" data-name="Trazado 960551" d="M203.16,163.528s-6.559-.452-5.08,2.817,3.671,2.763,3.2,5.913-3.347,3.307-.734,5.186,4.76,2.818,4.548,0,1.353-.924,2.763-2.263,4.2,1.622,1.708-2.6-2.807-2.5-2.335-5.474-.043-5.644-2.135-4-1.935.415-1.935.415" transform="translate(-96.768 -79.527)" fill="#d3ff69"/>
            <path id="Trazado_960552" data-name="Trazado 960552" d="M210.741,203.038c-.47.47.764,5.685,2.1,6.053s6.112,3.186,2.865,3.029-4.293.758-7.049-2.7-1.522-4.348-.739-6.383,2.819,0,2.819,0" transform="translate(-101.217 -98.857)" fill="#d3ff69"/>
            <path id="Trazado_960553" data-name="Trazado 960553" d="M233.144,51.154s-2.172.219-1.233,1.783,2.173.919,1.233,2.915-2.072,4.228-.567,3.758,2.093.925,2.974-1.475-1.292-2.225,1.879-3.4,6.107-.059,3.934-2.055-.94-2.231-2.7-2.114-1.468.89-2.467-.025-1.527-1.246-2.114-.522-.94,1.134-.94,1.134" transform="translate(-113.305 -24.271)" fill="#d3ff69"/>
            <path id="Trazado_960554" data-name="Trazado 960554" d="M221.405,105.713a2.3,2.3,0,0,1-.584-2.153c.274-1.409,1.135-1.722,3.132-1.409s3.525-1.214,4.777.9,1.526,7.242-1.567,7.947-5.758-5.285-5.758-5.285" transform="translate(-107.97 -49.84)" fill="#242754"/>
            <path id="Trazado_960555" data-name="Trazado 960555" d="M223.662,117.274l.472-.369.235-1.488s-1.41-.078-1.742-.665-.61-5.95-.61-5.95,1.335-1.018,1.883-.353.9.979,1.8.861,1.292.039,1.213.9.079,2.31.626,1.684,1.057-1.057,1.253-.548a1.171,1.171,0,0,1-.548,1.4c-.47.2-.94.163-.705.75l.235.587s-.47,1.879.274,2.819-.421,3.093-2.637,2.427-1.749-2.058-1.749-2.058" transform="translate(-108.581 -52.929)" fill="#ffbf9f"/>
            <path id="Trazado_960556" data-name="Trazado 960556" d="M200.154,167.187s-2.2,2.408-2.936,2.055,1.321-1.82.94-2.055-.088-.675.969-1.086,1.027,1.086,1.027,1.086" transform="translate(-96.374 -81.199)" fill="#ffbf9f"/>
            <path id="Trazado_960557" data-name="Trazado 960557" d="M222.852,240.606c-.028.061-.122.113-.263.165-1.273.446-6.534.5-6.389-.517.155-1.137,1.132-.747,2.466-1.569a3.827,3.827,0,0,0,1.3-1.715,9.5,9.5,0,0,0,.578-1.728s1.681.2,1.747.85c.023.216.127.723.244,1.329.136.7.291,1.532.357,2.18a2.182,2.182,0,0,1-.042,1.006" transform="translate(-105.735 -115.049)" fill="#fff"/>
            <path id="Trazado_960558" data-name="Trazado 960558" d="M234.422,240.564c-.353.578-4.684.658-6.253.207-.338-.094-.545-.216-.559-.362-.038-.409.3-.6.864-.808a11.73,11.73,0,0,0,2.231-.991,2.458,2.458,0,0,0,1.034-1.273,4,4,0,0,0,.1-2.1h2.391a15.82,15.82,0,0,0-.118,2.152,1.972,1.972,0,0,0,.038.31c.141.9.658,2.231.272,2.861" transform="translate(-111.315 -115.049)" fill="#fff"/>
            <path id="Trazado_960559" data-name="Trazado 960559" d="M222.589,242.425c-1.273.446-6.534.5-6.389-.517.155-1.137,1.132-.747,2.466-1.569a3.824,3.824,0,0,0,1.3-1.715.629.629,0,0,1,.46.268c.315.465,1.363.338,2.11.183.136.7.291,1.532.357,2.18-.564.211-.9.4-.864.808.014.146.221.268.559.362" transform="translate(-105.735 -116.704)" fill="#242754"/>
            <path id="Trazado_960560" data-name="Trazado 960560" d="M234.422,242.57c-.353.578-4.684.658-6.253.207-.338-.094-.545-.216-.559-.362-.038-.409.3-.6.864-.808a11.728,11.728,0,0,0,2.231-.991,2.458,2.458,0,0,0,1.034-1.273c.376.577.78,1.23,1.353.812a2.928,2.928,0,0,1,1.057-.446c.141.9.658,2.231.272,2.861" transform="translate(-111.315 -117.055)" fill="#242754"/>
            <path id="Trazado_960561" data-name="Trazado 960561" d="M226.949,169.957s-1.175,10.8-.822,14.093.176,15.5-.7,15.737-2.466.646-3.053-1.527-.47-21.962-.47-21.962,1.271-14.328,2.749-14.739,6.7-1,6.642,1.468,1.361,13.447,1.064,16.794.408,18.732-.766,19.437-2.819.94-3.054-.059-.528-18.732-.763-20.552-.822-8.691-.822-8.691" transform="translate(-108.519 -78.832)" fill="#242754"/>
            <path id="Trazado_960562" data-name="Trazado 960562" d="M223.839,143.833s.176,1.6,2.995,1.309,4.518-.637,4.518-.637l-3.043-18.483s-1.827,1.2-2.9.968a3.414,3.414,0,0,1-1.749-1.053,1.764,1.764,0,0,0-1.407,2.116s-.5,8.4-.054,11.65,1.639,4.129,1.639,4.129" transform="translate(-108.581 -61.592)" fill="#616faa"/>
            <path id="Trazado_960563" data-name="Trazado 960563" d="M222.849,125.371s-2.819.822-2.819,1.175,2.779,15.659,3.21,15.424,1.1.078.9-1.253-1.944-14.367-1.683-14.837a.919.919,0,0,1,.646-.509l.059-.156Z" transform="translate(-107.61 -61.239)" fill="#fff"/>
            <path id="Trazado_960564" data-name="Trazado 960564" d="M210.626,128.443s-2.041.582-2.2,1.365-1.213,11.353-1.8,12.019-5.794,5.167-5.911,5.676,1.37,2.388,1.8,2.075,6.772-4.933,7.086-5.755,1.213-4.795,1.213-4.795-.156,4.951-.626,8-1.213,12.841-.587,13.388,4.189,1.762,4.5,1.018.555-18.318.555-18.318Z" transform="translate(-98.16 -62.817)" fill="#edf8f9"/>
            <path id="Trazado_960565" data-name="Trazado 960565" d="M242.536,142.274c-.381,1.461-1.01,1.687-1.945,1.691-.118,0-.24,0-.367-.009a11.991,11.991,0,0,0-1.527.009s.1.569.254,1.489c.611,3.655,2.062,12.839,1.311,13.652a1.717,1.717,0,0,1-.207.183c-.033.023-.065.052-.108.08a21.076,21.076,0,0,1-5.656,2.072c-.512.1-.85.118-.878.014s-.076-1.273-.132-2.993c-.141-4.425-.343-12.519-.423-15.728-.019-.855-.033-1.362-.033-1.362l.46-1.719,3.1-11.655s.272.052.671.15c.959.23,2.617.7,2.87,1.259a.352.352,0,0,1,.024.066c.193.822,3.011,11.157,2.584,12.8" transform="translate(-113.868 -62.6)" fill="#edf8f9"/>
            <path id="Trazado_960566" data-name="Trazado 960566" d="M233.335,125.215s3.015.626,3.093,1.018-2.584,13.78-2.584,13.78h-1.018s1.16-12.825,1-13.618a2.076,2.076,0,0,0-.426-1.042Z" transform="translate(-113.868 -61.239)" fill="#fff"/>
            <path id="Trazado_960567" data-name="Trazado 960567" d="M226.62,121.629l2.153-.7s-1.6,2.858-1.84,2.192a7.332,7.332,0,0,1-.313-1.488" transform="translate(-110.833 -59.14)" fill="#ed8772"/>
            <path id="Trazado_960568" data-name="Trazado 960568" d="M238.7,143.966s.1.569.254,1.489c-1.429-.174-3.218-.3-3.895.225-1.057.822-1.762,1.48-1.409,5,.334,3.316,2.029,9.719,6.408,8.611-.033.023-.065.052-.108.08a21.076,21.076,0,0,1-5.656,2.072c-.512.1-.85.118-.879.014s-.075-1.273-.131-2.993c-.141-4.425-.343-12.519-.423-15.728-.018-.855-.033-1.362-.033-1.362l.46-1.719,3.1-11.655s.273.052.672.15c-.319,1.043-1.25,4.439-.629,7.113.742,3.2,1.043-.319,1.043-.319s2.307,5.989,3.119,9.024c-.117,0-.24,0-.366-.009a11.991,11.991,0,0,0-1.527.009" transform="translate(-113.868 -62.6)" fill="#d1e4e5"/>
            <path id="Trazado_960569" data-name="Trazado 960569" d="M232.457,148.5a.47.47,0,0,1-.456.531l-6.76.141a.471.471,0,0,1-.474-.395l-1.109-6.788-.447-2.725a.472.472,0,0,1,.442-.545l7-.38a.472.472,0,0,1,.494.408l.629,4.67Z" transform="translate(-109.163 -67.658)" fill="#61ad9e"/>
            <path id="Trazado_960570" data-name="Trazado 960570" d="M219.329,144.822v-4.531l-1.213,9.327Z" transform="translate(-106.673 -68.612)" fill="#d1e4e5"/>
            <path id="Trazado_960571" data-name="Trazado 960571" d="M220.265,170.88a5.881,5.881,0,0,0,1.139.769,2.431,2.431,0,0,0,1.68.483v.626a15.626,15.626,0,0,1-2.1-.548,2.888,2.888,0,0,1-.95-.562Z" transform="translate(-107.61 -83.572)" fill="#d1e4e5"/>
            <path id="Trazado_960572" data-name="Trazado 960572" d="M236.964,172.25a5.349,5.349,0,0,0,1.768-.431,8.941,8.941,0,0,0,1.559-.94v.94s-1.175.548-2.036.94a1.933,1.933,0,0,1-1.292.244Z" transform="translate(-115.891 -83.572)" fill="#d1e4e5"/>
            <path id="Trazado_960573" data-name="Trazado 960573" d="M232.89,152a.47.47,0,0,1-.456.531l-6.76.141a.471.471,0,0,1-.474-.395l-1.109-6.788a9.1,9.1,0,0,0,5.172,1.78,9.447,9.447,0,0,0,2.946-.352Z" transform="translate(-109.596 -71.153)" fill="#458276"/>
            <path id="Trazado_960574" data-name="Trazado 960574" d="M226.788,150.9s-1.918-.84-1.488-.429.333.747-.333.607-.826-.059-.883.763.8,1.448,2.468.881.235-1.822.235-1.822" transform="translate(-109.591 -73.534)" fill="#ffbf9f"/>
            <path id="Trazado_960575" data-name="Trazado 960575" d="M240.5,143.516c-.432,1.644-1.175,1.724-2.311,1.682a11.993,11.993,0,0,0-1.527.009c-1.273-.263-3.993-.8-5.839-1.231a12.878,12.878,0,0,1-1.795-.5c-.742-.352-.155-1.569,0-2.274.057-.253,1.015-.324,2.222-.31,2.128.018,5.022.31,5.022.31a18.744,18.744,0,0,0-.606-3.8c-.681-3.326-.766-5.6,1.034-6.656a1.209,1.209,0,0,1,1.193-.1.355.355,0,0,1,.024.066c.193.822,3.011,11.157,2.584,12.8" transform="translate(-111.83 -63.841)" fill="#fff"/>
            <path id="Trazado_960576" data-name="Trazado 960576" d="M348.328,147.4a27.338,27.338,0,0,1-3.256,1.094c-2.2.629-4.792-1.094-4.792-1.094v-16.09l.813-2.767.159-.55,4.167-.324.714.188.014,0,1.358.357.253,5.891Z" transform="translate(-166.42 -62.437)" fill="#4cd88e"/>
            <path id="Trazado_960577" data-name="Trazado 960577" d="M337.048,108.918s-.91-.411-.411-1.82,2.79-3.053,5.843-1.732,1.585,7.025.294,7.788-5.726-4.236-5.726-4.236" transform="translate(-164.565 -51.293)" fill="#242754"/>
            <path id="Trazado_960578" data-name="Trazado 960578" d="M337.573,112.778s-.176,5.49.793,5.784a6.054,6.054,0,0,0,2.408,0,1.644,1.644,0,0,1-.147,1.35,2.7,2.7,0,0,1-.7.792s.529.675,2.143.529,2.026-.852,2.026-.852a8.258,8.258,0,0,1-.382-2.378v-1.5s-1.233.235-1-.353,1.087-1.233.646-1.585-.705-.675-.91.176-.47,1.027-.44.411-.675-2.5-1.5-2.378a23.394,23.394,0,0,1-2.936,0" transform="translate(-165.09 -55.153)" fill="#ed8772"/>
            <path id="Trazado_960579" data-name="Trazado 960579" d="M348.328,147.545a27.336,27.336,0,0,1-3.256,1.094c-2.2.629-4.792-1.094-4.792-1.094V135.373c.475-3.692.813-6.685.813-6.685s1.968,12.552,3.213,10.753c1.2-1.738,1.79-10.824,1.827-11.439a.2.2,0,0,0,0-.033.261.261,0,0,1,.01.037c.094.324.831,2.88,1.611,6.248Z" transform="translate(-166.42 -62.586)" fill="#3bbc75"/>
            <path id="Trazado_960580" data-name="Trazado 960580" d="M340.817,239.549c-.5.883-3.551.559-4.872.615s-1.94-.437-1.733-1.085,2.264-1.085,3.143-1.588a1.386,1.386,0,0,0,.479-.535,7.97,7.97,0,0,0,.667-2.429l2.232-.324a28.141,28.141,0,0,0,.056,2.833c.009.071.018.131.028.193.15.94.5,1.437,0,2.321" transform="translate(-163.433 -114.541)" fill="#ed8772"/>
            <path id="Trazado_960581" data-name="Trazado 960581" d="M360.321,239c.089.592-.559.737-1.5,1.043s-2.522.075-2.7-.484.588-1.771,1-2.79c.009-.019.014-.038.023-.057a3.633,3.633,0,0,0,0-2.231l2.41-.559a8.889,8.889,0,0,0,.029,2.527q.077.275.169.578a18.724,18.724,0,0,1,.564,1.973" transform="translate(-174.157 -114.402)" fill="#ed8772"/>
            <path id="Trazado_960582" data-name="Trazado 960582" d="M340.817,239.863c.15.94.5,1.437,0,2.321s-3.551.559-4.872.616-1.94-.437-1.733-1.085,2.264-1.085,3.143-1.588a1.382,1.382,0,0,0,.479-.535,1.522,1.522,0,0,1,.55.451c.46.611,1.64.08,2.405-.371.009.071.018.131.028.193" transform="translate(-163.433 -117.176)" fill="#242754"/>
            <path id="Trazado_960583" data-name="Trazado 960583" d="M360.321,241.406c.089.592-.559.737-1.5,1.043s-2.522.075-2.7-.484.588-1.771,1-2.79a4.32,4.32,0,0,1,1.09-.32,2.32,2.32,0,0,1,1.541.578,18.72,18.72,0,0,1,.564,1.973" transform="translate(-174.157 -116.812)" fill="#242754"/>
            <path id="Trazado_960584" data-name="Trazado 960584" d="M343.69,172.9s-1.409,9.865-1.585,11.157,1.233,16.853.792,16.912-3.259.7-3.435,0-1.762-18.38-1.409-20.67,1.879-15.17,2.231-15.013,7.367.626,7.823,2.095,2.042,16.97,2.042,16.97,1.351,16.09,1,16.442-2.615,1.006-3.04.5-4.418-28.4-4.418-28.4" transform="translate(-165.306 -80.835)" fill="#242754"/>
            <path id="Trazado_960585" data-name="Trazado 960585" d="M334.5,163.671c-.254,1.522-3.265,1.409-4.327,1.466s0-7.695.474-13.332c.061-.766.113-1.56.146-2.363.047-.925.07-1.865.08-2.781.023-1.32.014-2.6,0-3.74-.052-2.447-.164-4.275-.221-4.556-.056-.306-.648,1.621-1.569,3.655a15.846,15.846,0,0,1-1.621,2.894l-4-2.044a4.675,4.675,0,0,0,1.259.244,23.353,23.353,0,0,0,1.128-2.72c1.113-2.9,2.677-7.178,2.865-7.789.291-.939,1.954-1.564,1.954-1.564l1.334.39,1.579,11.806.15,1.127.54,4.026.235,1.752s.028,1.235.052,2.965c.061,3.659.122,9.526-.052,10.565" transform="translate(-158.191 -64.088)" fill="#edf8f9"/>
            <path id="Trazado_960586" data-name="Trazado 960586" d="M357.919,162.722c-.113.766-4.406.822-5.111.587-.046-.014-.089-.094-.136-.225-.663-1.945-1.311-15.667-1.311-15.667l.155-2.123.253-3.472.78-10.626,1.982-2.452s1.447.686,2.152,1.094a4.163,4.163,0,0,1,1.235,1.358l-.667,2.537-.568,2.152a27.242,27.242,0,0,0-.611,5.445c-.024,2.978,1.963,20.627,1.846,21.393" transform="translate(-171.839 -62.964)" fill="#edf8f9"/>
            <path id="Trazado_960587" data-name="Trazado 960587" d="M343.849,123.655l1.409-.47s-1.369,2.5-1.272,1.967a4.855,4.855,0,0,0-.137-1.5" transform="translate(-168.165 -60.246)" fill="#aa5446"/>
            <path id="Trazado_960588" data-name="Trazado 960588" d="M340.172,127.178s-2.863,1.229-2.626,1.972,1.96,7.086,1.96,7.086l.666.47-.666.626,1.879,10.922-1.478-20.5.549-.573Z" transform="translate(-165.076 -62.199)" fill="#fff"/>
            <path id="Trazado_960589" data-name="Trazado 960589" d="M350.084,125.768a17.729,17.729,0,0,1,3.689,1.37c-.039.2-1.844,8.182-1.844,8.182l-.465.313.465.626-1.326,9.552s.635-18.635.2-19.065a1.791,1.791,0,0,0-.821-.505l-.168-.776Z" transform="translate(-171.083 -61.361)" fill="#fff"/>
            <path id="Trazado_960590" data-name="Trazado 960590" d="M277.006,110.078a11.657,11.657,0,1,0,11.655,11.659,11.659,11.659,0,0,0-11.655-11.659m0,21.8a10.138,10.138,0,1,1,10.138-10.138,10.137,10.137,0,0,1-10.138,10.138" transform="translate(-129.772 -53.836)" fill="#242754"/>
            <g id="Grupo_1117871" data-name="Grupo 1117871" transform="translate(137.096 57.764)" opacity="0.33">
              <g id="Grupo_1117870" data-name="Grupo 1117870">
                <g id="Grupo_1117869" data-name="Grupo 1117869" clip-path="url(#clip-path-5)">
                  <path id="Trazado_960591" data-name="Trazado 960591" d="M288.6,123.194a10.135,10.135,0,0,1-9.546,10.119c-.2.014-.394.019-.592.019a10.118,10.118,0,0,1-6.746-2.575,9.006,9.006,0,0,1-1.005-1.034,9.854,9.854,0,0,1-1.2-1.771,9.117,9.117,0,0,1-.611-1.386,10.011,10.011,0,0,1-.578-3.373,10.131,10.131,0,0,1,6.863-9.593,9.166,9.166,0,0,1,1.344-.357,9.685,9.685,0,0,1,1.93-.188h.066a10.226,10.226,0,0,1,1.381.1,10.142,10.142,0,0,1,8.691,10.034" transform="translate(-268.326 -113.057)" fill="#fff"/>
                </g>
              </g>
            </g>
            <g id="Grupo_1117874" data-name="Grupo 1117874" transform="translate(137.096 59.028)" opacity="0.18">
              <g id="Grupo_1117873" data-name="Grupo 1117873">
                <g id="Grupo_1117872" data-name="Grupo 1117872" clip-path="url(#clip-path-6)">
                  <path id="Trazado_960592" data-name="Trazado 960592" d="M286.346,130.774a10.14,10.14,0,0,1-6.088,3.608,10.244,10.244,0,0,1-1.794.16A10.137,10.137,0,0,1,268.325,124.4a10.263,10.263,0,0,1,.376-2.757v0a10.192,10.192,0,0,1,4.862-6.112,10.135,10.135,0,0,0,12.782,15.244" transform="translate(-268.326 -115.53)" fill="#383838"/>
                </g>
              </g>
            </g>
            <g id="Grupo_1117877" data-name="Grupo 1117877" transform="translate(137.096 65.144)" opacity="0.18">
              <g id="Grupo_1117876" data-name="Grupo 1117876">
                <g id="Grupo_1117875" data-name="Grupo 1117875" clip-path="url(#clip-path-7)">
                  <path id="Trazado_960593" data-name="Trazado 960593" d="M280.257,140.236a10.292,10.292,0,0,1-1.794.159,10.136,10.136,0,0,1-10.138-10.137,10.257,10.257,0,0,1,.376-2.758,10.862,10.862,0,0,0-.089,1.419,11.318,11.318,0,0,0,11.317,11.321c.108,0,.221,0,.329,0" transform="translate(-268.326 -127.501)" fill="#383838"/>
                </g>
              </g>
            </g>
            <path id="Trazado_960594" data-name="Trazado 960594" d="M341.435,158.264a5.281,5.281,0,0,0-1.066-1.71,12.735,12.735,0,0,0-2.692-1.954c.047-.925.07-1.865.08-2.781.023-1.32.014-2.6,0-3.74-.052-2.447-.165-4.274-.221-4.557l.564-1.935s.118,6,2.363,6.807l.15,1.127.54,4.026.235,1.752s.028,1.235.052,2.964" transform="translate(-165.076 -69.246)" fill="#d1e4e5"/>
            <path id="Trazado_960595" data-name="Trazado 960595" d="M357.919,167.245c-.113.766-4.406.822-5.111.587-.046-.014-.089-.094-.136-.225a14.3,14.3,0,0,0,3.1-11.735c-.968-5.064-3.716-5.928-4.251-6.055l-.089-.014-.065-3.081a5.436,5.436,0,0,1,.408-.376c.338-.3.945-.8,1.978-1.611,1.973-1.54,1.907-6.741,1.907-6.741s.62.08,1.6.263l-.568,2.152a27.243,27.243,0,0,0-.611,5.445c-.024,2.978,1.963,20.627,1.846,21.393" transform="translate(-171.839 -67.487)" fill="#d1e4e5"/>
            <path id="Trazado_960596" data-name="Trazado 960596" d="M329.8,152.906l-.056.122a1.6,1.6,0,0,1-2.175.761l-2.02-1.034-3.392-1.729-3.416-1.747-4-2.044-.893-.456-4.97-2.537-2.363-1.207a1.633,1.633,0,0,1-.686-2.217,1.593,1.593,0,0,1,1.409-.85,1.564,1.564,0,0,1,.714.169l9.175,4.622,3.236,1.625,1.79.9,2.857,1.442,4.054,2.039a1.63,1.63,0,0,1,.738,2.137" transform="translate(-149.477 -68.454)" fill="#242754"/>
            <path id="Trazado_960597" data-name="Trazado 960597" d="M311.741,144.381a3.11,3.11,0,0,1-1.684-2.544c.057-1.649.512-2.232.961-1.37s.644,2.466,1.271,1.918.9-.342.861.4a9.272,9.272,0,0,1-.391,1.835Z" transform="translate(-151.639 -68.504)" fill="#ed8772"/>
            <path id="Trazado_960598" data-name="Trazado 960598" d="M317.823,150.993a3.076,3.076,0,0,1-.893-.456c-.047-.037-.094-.075-.141-.117-.761-.7-1.7-2.56-2.4-2.692-.611-.108-2.227-.169-2.424.272a.271.271,0,0,0,.019.244c.347.7,5.576,7.07,8.221,6.178a3.722,3.722,0,0,0,1.626-1.386Z" transform="translate(-152.559 -72.211)" fill="#edf8f9"/>
            <path id="Trazado_960599" data-name="Trazado 960599" d="M343.989,155.078a4.745,4.745,0,0,1-2.544.646c-1.537-.029-2.258-.235-1.927.235s.942.528-.373.852-1.772.969-1.326,1.7,2.4.564,3.154-.144a4.162,4.162,0,0,1,2.371-1.178,5.024,5.024,0,0,0,1.027-.158Z" transform="translate(-165.135 -75.844)" fill="#ed8772"/>
            <path id="Trazado_960600" data-name="Trazado 960600" d="M360.079,145.848c-.822.883-10.156,2.058-10.072,1.409s-.568-3.171-.268-3.171,7.108-.352,6.934-1-2.419-6.925-1.738-8.691a1.687,1.687,0,0,1,2.152-.93c.545,1.16,3.815,11.5,2.993,12.383" transform="translate(-171.007 -65.235)" fill="#fff"/>
            <path id="Trazado_960601" data-name="Trazado 960601" d="M288.592,118.755a1.317,1.317,0,1,1-1.317-1.317,1.317,1.317,0,0,1,1.317,1.317" transform="translate(-139.853 -57.435)" fill="#fff"/>
            <path id="Trazado_960602" data-name="Trazado 960602" d="M295.324,121.385a.764.764,0,1,1-.764-.764.764.764,0,0,1,.764.764" transform="translate(-143.686 -58.992)" fill="#fff"/>
            <path id="Trazado_960603" data-name="Trazado 960603" d="M295.324,138.755a.764.764,0,1,1-.764-.764.764.764,0,0,1,.764.764" transform="translate(-143.686 -67.487)" fill="#fff"/>
            <g id="Grupo_1117880" data-name="Grupo 1117880" transform="translate(137.674 57.764)" opacity="0.51">
              <g id="Grupo_1117879" data-name="Grupo 1117879">
                <g id="Grupo_1117878" data-name="Grupo 1117878" clip-path="url(#clip-path-8)">
                  <path id="Trazado_960604" data-name="Trazado 960604" d="M277.085,113.425l-7.019,14.709a9.2,9.2,0,0,1-.611-1.386l6.285-12.965a9.038,9.038,0,0,1,1.344-.357" transform="translate(-269.456 -113.237)" fill="#fff"/>
                  <path id="Trazado_960605" data-name="Trazado 960605" d="M282.194,113.16,274,130.758A9.059,9.059,0,0,1,273,129.724l7.817-16.667a10.239,10.239,0,0,1,1.381.1" transform="translate(-271.187 -113.057)" fill="#fff"/>
                  <path id="Trazado_960606" data-name="Trazado 960606" d="M292.6,118.2l-7.409,16.343c-.2.014-.394.019-.592.019a10.013,10.013,0,0,1-3.725-.709l8.662-18.284A10.121,10.121,0,0,1,292.6,118.2" transform="translate(-275.041 -114.285)" fill="#fff"/>
                </g>
              </g>
            </g>
            <path id="Trazado_960607" data-name="Trazado 960607" d="M170.82,202.943a.613.613,0,0,1-.019.094c-1.24,6.5-11.923,6.21-16.7,6.21-4.618,0-11.373.169-15.052-3.251a6.039,6.039,0,0,1-1.7-5.256,24.886,24.886,0,0,1,4.909-12.266c1.916-2.556,4.242-4.843,5.6-7.775,2.33-4.989,0-10.508,0-10.508h12.491a13.942,13.942,0,0,0-.648,2.156,13.192,13.192,0,0,0,.648,8.352c1.592,3.42,4.472,5.98,6.539,9.085a29.066,29.066,0,0,1,2.856,5.323,14.488,14.488,0,0,1,1.076,7.836" transform="translate(-67.148 -83.235)" fill="#edf8f9"/>
            <path id="Trazado_960608" data-name="Trazado 960608" d="M144.179,209.893s-5.769,9.647-1.409,13.238,26.86,3.238,27.64-.772-2.038-11.879-4.5-13.406-3.406,2.466-6.694,1.292-3.328-3.054-8.358-3.288-6.674,2.936-6.674,2.936" transform="translate(-69.027 -101.21)" fill="#46b2d3"/>
            <g id="Grupo_1117883" data-name="Grupo 1117883" transform="translate(70.15 86.956)" opacity="0.27">
              <g id="Grupo_1117882" data-name="Grupo 1117882">
                <g id="Grupo_1117881" data-name="Grupo 1117881" clip-path="url(#clip-path-9)">
                  <path id="Trazado_960609" data-name="Trazado 960609" d="M170.8,203.037c-1.24,6.5-11.923,6.21-16.7,6.21-4.618,0-11.373.169-15.052-3.251a6.04,6.04,0,0,1-1.705-5.256,24.891,24.891,0,0,1,4.91-12.266c1.916-2.556,4.242-4.843,5.6-7.775,2.33-4.989,0-10.508,0-10.508h12.491a13.982,13.982,0,0,0-.648,2.156,6.8,6.8,0,0,1-3.073,1.132c-3.758.352-5.167-.118-6.107,3.64s0,6.342-4.933,13.976,2.034,15.686,14.643,15.239a18.945,18.945,0,0,0,10.57-3.3" transform="translate(-137.298 -170.191)" fill="#424242"/>
                </g>
              </g>
            </g>
            <path id="Trazado_960610" data-name="Trazado 960610" d="M170.339,168.5c0,.973-2.769,1.762-6.185,1.762s-6.185-.789-6.185-1.762,2.769-1.762,6.185-1.762,6.185.789,6.185,1.762" transform="translate(-77.257 -81.549)" fill="#edf8f9"/>
            <g id="Grupo_1117886" data-name="Grupo 1117886" transform="translate(81.826 85.948)" opacity="0.27">
              <g id="Grupo_1117885" data-name="Grupo 1117885">
                <g id="Grupo_1117884" data-name="Grupo 1117884" clip-path="url(#clip-path-10)">
                  <path id="Trazado_960611" data-name="Trazado 960611" d="M170.291,169.226c0,.557-2.27,1.009-5.07,1.009s-5.07-.452-5.07-1.009,2.27-1.009,5.07-1.009,5.07.452,5.07,1.009" transform="translate(-160.151 -168.217)" fill="#424242"/>
                </g>
              </g>
            </g>
            <g id="Grupo_1117889" data-name="Grupo 1117889" transform="translate(81.826 85.948)" opacity="0.27">
              <g id="Grupo_1117888" data-name="Grupo 1117888">
                <g id="Grupo_1117887" data-name="Grupo 1117887" clip-path="url(#clip-path-11)">
                  <path id="Trazado_960612" data-name="Trazado 960612" d="M166.792,169.51a21.563,21.563,0,0,1,2.918.184c.369-.139.581-.3.581-.468,0-.557-2.27-1.008-5.07-1.008s-5.07.451-5.07,1.008c0,.341.852.641,2.153.824a14.738,14.738,0,0,1,4.489-.541" transform="translate(-160.151 -168.218)" fill="#424242"/>
                </g>
              </g>
            </g>
            <path id="Trazado_960613" data-name="Trazado 960613" d="M173.938,180.7a14.923,14.923,0,0,1,.059,2.6,9.678,9.678,0,0,0,1.095,3.649c1.82,3.445,2.995,3.68,1.977,5.715s-6.38.548-6.948-4.306.527-7.593,2.015-8.064c1.156-.366,1.626-.115,1.8.41" transform="translate(-83.126 -88.091)" fill="#fff"/>
            <path id="Trazado_960614" data-name="Trazado 960614" d="M117.67,198.631v1.132a.468.468,0,0,1-.47.47H105.494a.468.468,0,0,1-.47-.47v-1.132a.468.468,0,0,1,.47-.47H117.2a.468.468,0,0,1,.47.47" transform="translate(-51.364 -96.914)" fill="#9aafaf"/>
            <g id="Grupo_1117892" data-name="Grupo 1117892" transform="translate(55.722 101.246)" opacity="0.5">
              <g id="Grupo_1117891" data-name="Grupo 1117891">
                <g id="Grupo_1117890" data-name="Grupo 1117890" clip-path="url(#clip-path-12)">
                  <path id="Trazado_960615" data-name="Trazado 960615" d="M115.82,200.232h-6.76a2.635,2.635,0,0,0,1.175-2.072h4.157Z" transform="translate(-109.06 -198.16)" fill="#677777"/>
                </g>
              </g>
            </g>
            <path id="Trazado_960616" data-name="Trazado 960616" d="M117.085,210.667V213.1a.907.907,0,0,1-.118.451.938.938,0,0,1-.822.489H98.707v-4.317h17.438a.943.943,0,0,1,.94.94" transform="translate(-48.274 -102.571)" fill="#9aafaf"/>
            <g id="Grupo_1117895" data-name="Grupo 1117895" transform="translate(50.433 107.156)" opacity="0.5">
              <g id="Grupo_1117894" data-name="Grupo 1117894">
                <g id="Grupo_1117893" data-name="Grupo 1117893" clip-path="url(#clip-path-13)">
                  <path id="Trazado_960617" data-name="Trazado 960617" d="M116.967,213.555a.939.939,0,0,1-.822.488H98.707v-4.317h2.57c.934,1.7,2.274,3.753,2.809,2.673a6.576,6.576,0,0,0,.479-2.673h9.4a16.681,16.681,0,0,0,3.006,3.828" transform="translate(-98.707 -209.727)" fill="#677777"/>
                </g>
              </g>
            </g>
            <path id="Trazado_960618" data-name="Trazado 960618" d="M122,208.773s-7.673-9.288-7.986-9.562-1.429-.568-1.586.47,0,9.092,0,9.092Z" transform="translate(-54.951 -97.301)" fill="#fff"/>
            <path id="Trazado_960619" data-name="Trazado 960619" d="M115.107,202.088a.636.636,0,1,1-.636-.636.636.636,0,0,1,.636.636" transform="translate(-55.673 -98.524)" fill="#677777"/>
            <path id="Trazado_960620" data-name="Trazado 960620" d="M115.107,206.034a.636.636,0,1,1-.636-.636.636.636,0,0,1,.636.636" transform="translate(-55.673 -100.454)" fill="#677777"/>
            <path id="Trazado_960621" data-name="Trazado 960621" d="M73.534,128.356l2.74,1.448-2.365,4.712L71.538,133.2a6.94,6.94,0,0,1,.626-2.965,4.027,4.027,0,0,1,1.37-1.879" transform="translate(-34.985 -62.775)" fill="#677777"/>
            <path id="Trazado_960622" data-name="Trazado 960622" d="M80.441,129.317l-1.283-.5a7.719,7.719,0,0,0-2.466,3.563,11.392,11.392,0,0,0-.783,3.6l1.284.591Z" transform="translate(-37.124 -63)" fill="#9aafaf"/>
            <path id="Trazado_960623" data-name="Trazado 960623" d="M113.474,143.21s-.527,3.622-1.992,5.51c-.254.329-.512.634-.77.912a.6.6,0,0,0-.089.1.719.719,0,0,1-.127.136,14.958,14.958,0,0,1-2.081,1.86l-30.173-14.5a15.882,15.882,0,0,1,1.47-5.7,11.024,11.024,0,0,1,2.7-3.171l.846.4Z" transform="translate(-38.265 -62.775)" fill="#fff"/>
            <g id="Grupo_1117898" data-name="Grupo 1117898" transform="translate(39.976 65.581)" opacity="0.16">
              <g id="Grupo_1117897" data-name="Grupo 1117897">
                <g id="Grupo_1117896" data-name="Grupo 1117896" clip-path="url(#clip-path-14)">
                  <path id="Trazado_960624" data-name="Trazado 960624" d="M110.495,149.868a14.948,14.948,0,0,1-2.081,1.86l-30.174-14.5a15.873,15.873,0,0,1,1.47-5.7,11.019,11.019,0,0,1,2.7-3.171l.846.4c-1.409,2.857-4.7,10.133-.846,8.677,4.778-1.8,7.126-2.457,10.49.888s.822,6.173,5.346,7.813c4.4,1.592,10.617,5.261,12.247,3.73" transform="translate(-78.24 -128.356)" fill="#424242"/>
                </g>
              </g>
            </g>
            <path id="Trazado_960625" data-name="Trazado 960625" d="M79.289,182.464l-.493,2.65-.357,1.907c-5.515-1-15.94-5.708-15.94-16.339a17.287,17.287,0,0,1,11.768-16.747l.672,2.17.7,2.264A12.624,12.624,0,0,0,67.2,170.682c0,9.471,11.97,11.759,12.092,11.782" transform="translate(-30.566 -75.285)" fill="#9aafaf"/>
            <g id="Grupo_1117901" data-name="Grupo 1117901" transform="translate(34.921 80.821)" opacity="0.5">
              <g id="Grupo_1117900" data-name="Grupo 1117900">
                <g id="Grupo_1117899" data-name="Grupo 1117899" clip-path="url(#clip-path-15)">
                  <path id="Trazado_960626" data-name="Trazado 960626" d="M82.149,184.542l-.493,2.65c-5.661-1.663-13.309-6.051-13.309-14.45A15.917,15.917,0,0,1,77.8,158.183l.7,2.264a12.624,12.624,0,0,0-8.442,12.312c0,9.471,11.97,11.759,12.092,11.782" transform="translate(-68.347 -158.183)" fill="#677777"/>
                </g>
              </g>
            </g>
            <g id="Grupo_1117904" data-name="Grupo 1117904" transform="translate(42.033 69.692)" opacity="0.27">
              <g id="Grupo_1117903" data-name="Grupo 1117903">
                <g id="Grupo_1117902" data-name="Grupo 1117902" clip-path="url(#clip-path-16)">
                  <path id="Trazado_960627" data-name="Trazado 960627" d="M83.736,137.135A.734.734,0,1,1,83,136.4a.734.734,0,0,1,.734.734" transform="translate(-82.268 -136.401)" fill="#424242"/>
                </g>
              </g>
            </g>
            <g id="Grupo_1117907" data-name="Grupo 1117907" transform="translate(71.159 83.361)" opacity="0.27">
              <g id="Grupo_1117906" data-name="Grupo 1117906">
                <g id="Grupo_1117905" data-name="Grupo 1117905" clip-path="url(#clip-path-16)">
                  <path id="Trazado_960628" data-name="Trazado 960628" d="M140.741,163.889a.734.734,0,1,1-.734-.734.734.734,0,0,1,.734.734" transform="translate(-139.273 -163.155)" fill="#424242"/>
                </g>
              </g>
            </g>
            <path id="Trazado_960629" data-name="Trazado 960629" d="M96.591,150.977a5.725,5.725,0,1,1-5.726-5.725,5.725,5.725,0,0,1,5.726,5.725" transform="translate(-41.64 -71.038)" fill="#677777"/>
            <path id="Trazado_960630" data-name="Trazado 960630" d="M96.5,152.944a3.67,3.67,0,1,1-3.67-3.67,3.67,3.67,0,0,1,3.67,3.67" transform="translate(-43.607 -73.005)" fill="#edf8f9"/>
            <g id="Grupo_1117910" data-name="Grupo 1117910" transform="translate(45.556 76.271)" opacity="0.16">
              <g id="Grupo_1117909" data-name="Grupo 1117909">
                <g id="Grupo_1117908" data-name="Grupo 1117908" clip-path="url(#clip-path-18)">
                  <path id="Trazado_960631" data-name="Trazado 960631" d="M95.574,155.33a3.667,3.667,0,0,1-2.79-6.051,3.669,3.669,0,1,0,2.839,6.048l-.05,0" transform="translate(-89.163 -149.279)" fill="#424242"/>
                </g>
              </g>
            </g>
            <path id="Trazado_960632" data-name="Trazado 960632" d="M110.263,225.12H91V207.283a1.93,1.93,0,0,1,1.935-1.344c1.588,0,1.879.963,9.518,9.847s7.808,9.334,7.808,9.334" transform="translate(-44.506 -100.718)" fill="#fff"/>
            <path id="Trazado_960633" data-name="Trazado 960633" d="M96.353,211.885a2.158,2.158,0,1,1-2.158-2.158,2.158,2.158,0,0,1,2.158,2.158" transform="translate(-45.012 -102.571)" fill="#677777"/>
            <g id="Grupo_1117913" data-name="Grupo 1117913" transform="translate(46.496 113.028)" opacity="0.16">
              <g id="Grupo_1117912" data-name="Grupo 1117912">
                <g id="Grupo_1117911" data-name="Grupo 1117911" clip-path="url(#clip-path-19)">
                  <path id="Trazado_960634" data-name="Trazado 960634" d="M110.263,232.593H91V221.22s1.879,10.218,19.261,11.373" transform="translate(-91.002 -221.22)" fill="#424242"/>
                </g>
              </g>
            </g>
            <path id="Trazado_960635" data-name="Trazado 960635" d="M21.338,231.257s-.059,1.507-.646,1.938a1.167,1.167,0,0,0-.157,2c.881.861,2.564,2.545,3.758,2.447s1.155-.137.47-.959-2-1.625-1.781-2.916a2.947,2.947,0,0,1,.822-1.782Z" transform="translate(-9.802 -113.1)" fill="#616faa"/>
            <path id="Trazado_960636" data-name="Trazado 960636" d="M47.77,236.467a6.012,6.012,0,0,1-.274,2.271c-.372.842-.079,1.331,1.409,1.37s5.128.313,5.011-.137-2.609-.86-3.282-1.624a3.181,3.181,0,0,1-.672-1.88Z" transform="translate(-23.157 -115.648)" fill="#616faa"/>
            <path id="Trazado_960637" data-name="Trazado 960637" d="M44.321,122.36a1.844,1.844,0,0,1-1.135-1.566c-.254-1.331,1.135-3.934,1.135-3.934s-.767.765-1.166.764-.793.371-.822,1.232.3,1.9-.184,2.094-1.468-1.155-1.527-2.838a4.863,4.863,0,0,1,2.525-4.541c1.82-.94,2.488,0,2.438.626a3.263,3.263,0,0,0,0,.842,6.3,6.3,0,0,1,4.1-.215c2.075.685,1.448,2.147,2.368,2.942s-.156,3.262-2.114,3.634a40.338,40.338,0,0,0-5.363,1.722Z" transform="translate(-19.865 -55.35)" fill="#242754"/>
            <path id="Trazado_960638" data-name="Trazado 960638" d="M44.685,129.3a1.338,1.338,0,0,0,.933-.743,8.314,8.314,0,0,0,.691-1.938s.665.372.724-.352-.391-2.056.646-2.094-.3,1.585.877,1.077,1.119-2.487,2.255-3,2.506-.684,2.251.744-1,5.853-2.271,5.989a5.224,5.224,0,0,1-2.564-.528,3.955,3.955,0,0,0-.646.841,1.487,1.487,0,0,0-.254.733s.881,3.28-.548,3.045-2.094-3.778-2.094-3.778" transform="translate(-21.854 -59.61)" fill="#ffbf9f"/>
            <path id="Trazado_960639" data-name="Trazado 960639" d="M55.157,150.553l0,0L53.1,153.075s-4.345-.822-4.928-1.47c-.573-.624-2.518-3.951-2.64-4.157l0-.01s.484,3.523-.348,4.524-.578,5.4,0,8.1,1.522,8.691,1.522,8.691-4.27,1.41-6.332.7-3.208-4.637-3.208-4.637l6.487-26.983a16.1,16.1,0,0,1,2.645,3.128c1,1.658,3.932,7.531,4.7,8.118a21.2,21.2,0,0,0,4.167,1.47" transform="translate(-18.174 -67.411)" fill="#d1e4e5"/>
            <path id="Trazado_960640" data-name="Trazado 960640" d="M63.16,155.814l-2.053,2.518s-4.345-.822-4.928-1.47c-.573-.625-2.518-3.951-2.64-4.157l0-.009v-4.11s2.053,7.93,4.637,8.456a7.121,7.121,0,0,0,4.989-1.226" transform="translate(-26.182 -72.668)" fill="#94b2b2"/>
            <path id="Trazado_960641" data-name="Trazado 960641" d="M34.25,174.425s5.091,11.061,5.208,15.348-.881,15.972-1.35,16.266-3.113.822-3.23-.059.646-14.739.293-15.913-3.523-10.394-3.523-10.394,1.938,10.638,1.644,11.485-8.28,14.059-8.808,14.059-2.76-1.585-2.466-2.173,6.518-11.573,6.753-12.6-1.762-5.781-1.762-5.781-2.466-7.325-.353-10.239,7.593,0,7.593,0" transform="translate(-10.756 -84.672)" fill="#242754"/>
            <path id="Trazado_960642" data-name="Trazado 960642" d="M46.181,137.836s.646,6.2.94,6.989a3.615,3.615,0,0,1,0,2.848c-.47,1.35-1.957,3.993-2.055,5.7s-.551,3.715-.863,3.8a14.191,14.191,0,0,1-1.862,0l1.474-19.328a14.372,14.372,0,0,0,1.831,2.229c.418.208.536-2.23.536-2.23" transform="translate(-20.707 -67.411)" fill="#d33bdb"/>
            <path id="Trazado_960643" data-name="Trazado 960643" d="M33.573,137.838a3.479,3.479,0,0,0-2.878,2.907c-.7,2.76-5.4,25.544-4.7,26.777s7.458,3.054,7.869,2.055S36.3,144.826,36.3,144.826s.5-4-.382-5.038a11.708,11.708,0,0,0-2.349-1.95" transform="translate(-12.68 -67.412)" fill="#edf8f9"/>
            <path id="Trazado_960644" data-name="Trazado 960644" d="M41.956,169.152s-.359-7.623-.535-8.5a3.975,3.975,0,0,1,0-1.585l.535-.529-.614-1-.45-7.458,2.6,2.233Z" transform="translate(-19.999 -73.398)" fill="#94b2b2"/>
            <path id="Trazado_960645" data-name="Trazado 960645" d="M66.246,172.98s.323.793,1.409.323,1.791-.585,1.5-.087-.734,1-.205.821,1.35-.675,1.145-.118-1.175,2.085-2.143,1.762a11.885,11.885,0,0,0-2.231-.44Z" transform="translate(-32.141 -84.556)" fill="#ffbf9f"/>
            <path id="Trazado_960646" data-name="Trazado 960646" d="M42.83,136.4l-1.938.735a29.893,29.893,0,0,1,2.173,4.874c.528,1.908.557,2.114.557,2.114a13.7,13.7,0,0,0,.353-4.081A26.24,26.24,0,0,0,42.83,136.4" transform="translate(-19.999 -66.709)" fill="#94b2b2"/>
            <path id="Trazado_960647" data-name="Trazado 960647" d="M39.363,141.672s-2.075-.431-2,3.053,4.267,11.627,5.168,12.214,9.4,4.071,9.669,3.8a14.435,14.435,0,0,0,.991-3.25c-.052-.117-8-4.032-8.7-4.6s-2.593-6.2-2.593-6.2-.8-3.828-1.411-4.346a3.607,3.607,0,0,0-1.124-.674" transform="translate(-18.273 -69.279)" fill="#fff"/>
            <rect id="Rectángulo_416419" data-name="Rectángulo 416419" width="0.235" height="3.283" transform="matrix(0.179, -0.984, 0.984, 0.179, 17.349, 92.474)" fill="#94b2b2"/>
            <path id="Trazado_960648" data-name="Trazado 960648" d="M50.365,133.442s-.489-.574-.763-.972l-.274-.4s-.489,2.662-.157,2.447a13.238,13.238,0,0,0,1.194-1.077" transform="translate(-23.991 -64.592)" fill="#ed8772"/>
            <path id="Trazado_960649" data-name="Trazado 960649" d="M139.357,80.808a1.967,1.967,0,1,1-1.967-1.967,1.967,1.967,0,0,1,1.967,1.967" transform="translate(-66.231 -38.559)" fill="#fff"/>
            <path id="Trazado_960650" data-name="Trazado 960650" d="M73.965,111.171A1.967,1.967,0,1,1,72,109.2a1.967,1.967,0,0,1,1.967,1.967" transform="translate(-34.25 -53.408)" fill="#fff"/>
            <path id="Trazado_960651" data-name="Trazado 960651" d="M70.115,219.809a1.967,1.967,0,1,1-1.968-1.967,1.968,1.968,0,0,1,1.968,1.967" transform="translate(-32.367 -106.539)" fill="#fff"/>
            <path id="Trazado_960652" data-name="Trazado 960652" d="M245.841,28.459a1.206,1.206,0,1,1-1.206-1.206,1.206,1.206,0,0,1,1.206,1.206" transform="translate(-119.053 -13.329)" fill="#fff"/>
            <path id="Trazado_960653" data-name="Trazado 960653" d="M397.806,226.16a1.206,1.206,0,1,1-1.207-1.206,1.207,1.207,0,0,1,1.207,1.206" transform="translate(-193.374 -110.018)" fill="#fff"/>
            <path id="Trazado_960654" data-name="Trazado 960654" d="M378.216,140.5a1.206,1.206,0,1,1-1.206-1.206,1.206,1.206,0,0,1,1.206,1.206" transform="translate(-183.794 -68.124)" fill="#fff"/>
            <path id="Trazado_960655" data-name="Trazado 960655" d="M178.333,16.371a2.012,2.012,0,1,1-2.012-2.012,2.012,2.012,0,0,1,2.012,2.012" transform="translate(-85.249 -7.023)" fill="#fff"/>
            <path id="Trazado_960656" data-name="Trazado 960656" d="M343.934,76.829a2.012,2.012,0,1,1-2.012-2.012,2.012,2.012,0,0,1,2.012,2.012" transform="translate(-166.24 -36.591)" fill="#fff"/>
            <path id="Trazado_960657" data-name="Trazado 960657" d="M207.369,35.945a.572.572,0,1,1-.572-.572.572.572,0,0,1,.572.572" transform="translate(-100.858 -17.3)" fill="#fff"/>
            <path id="Trazado_960658" data-name="Trazado 960658" d="M410.759,220.175a.572.572,0,1,1-.572-.572.572.572,0,0,1,.572.572" transform="translate(-200.329 -107.401)" fill="#fff"/>
            <path id="Trazado_960659" data-name="Trazado 960659" d="M129.8,118.954a.572.572,0,1,1-.572-.571.571.571,0,0,1,.572.571" transform="translate(-62.921 -57.897)" fill="#fff"/>
            <path id="Trazado_960660" data-name="Trazado 960660" d="M273.021,40.557a.572.572,0,1,1-.572-.572.572.572,0,0,1,.572.572" transform="translate(-132.966 -19.555)" fill="#fff"/>
            <path id="Trazado_960661" data-name="Trazado 960661" d="M233.455,17.749a.572.572,0,1,1-.572-.572.572.572,0,0,1,.572.572" transform="translate(-113.616 -8.401)" fill="#fff"/>
            <path id="Trazado_960662" data-name="Trazado 960662" d="M364.23,114.983a.572.572,0,1,1-.572-.572.572.572,0,0,1,.572.572" transform="translate(-177.574 -55.955)" fill="#fff"/>
            <path id="Trazado_960663" data-name="Trazado 960663" d="M336.512,96.486a.572.572,0,1,1-.572-.572.572.572,0,0,1,.572.572" transform="translate(-164.018 -46.908)" fill="#fff"/>
            <path id="Trazado_960664" data-name="Trazado 960664" d="M22.017,211.365a.572.572,0,1,1-.572-.572.572.572,0,0,1,.572.572" transform="translate(-10.208 -103.092)" fill="#fff"/>
            <path id="Trazado_960665" data-name="Trazado 960665" d="M85.165,120.074a.572.572,0,1,1-.572-.572.572.572,0,0,1,.572.572" transform="translate(-41.092 -58.445)" fill="#fff"/>
            <path id="Trazado_960666" data-name="Trazado 960666" d="M109.084,169.463a.572.572,0,1,1-.572-.572.572.572,0,0,1,.572.572" transform="translate(-52.79 -82.599)" fill="#fff"/>
            <path id="Trazado_960667" data-name="Trazado 960667" d="M109.084,102.148a.572.572,0,1,1-.572-.572.572.572,0,0,1,.572.572" transform="translate(-52.79 -49.678)" fill="#fff"/>
            <path id="Trazado_960668" data-name="Trazado 960668" d="M174.335,49.85a.572.572,0,1,1-.572-.572.572.572,0,0,1,.572.572" transform="translate(-84.702 -24.1)" fill="#fff"/>
          </g>
        </g>
      </g>
    </g>
  </g>
</svg>
