<svg xmlns="http://www.w3.org/2000/svg" width="120" height="120" viewBox="0 0 120 120">
  <g id="Grupo_1113092" data-name="Grupo 1113092" transform="translate(-1236.5 -460)">
    <g id="Elipse_12108" data-name="Elipse 12108" transform="translate(1241.5 465)" fill="#8bc34a" stroke="rgba(255,255,255,0.4)" stroke-width="5">
      <circle cx="55" cy="55" r="55" stroke="none"/>
      <circle cx="55" cy="55" r="57.5" fill="none"/>
    </g>
    <g id="Grupo_1117465" data-name="Grupo 1117465" transform="translate(1262.515 486.099)">
      <g id="Page-1_41_" transform="translate(0.096 0)">
        <g id="_x30_42---Checklist-Goals" transform="translate(0 0)">
          <circle id="Oval_11_" cx="1.13" cy="1.13" r="1.13" transform="translate(21.463 4.519)" fill="#001a58"/>
          <path id="Shape_305_" d="M67.542,29.7a1.13,1.13,0,0,0-1.6,0l-.41.409a1.124,1.124,0,0,0-2.18.39v1.792L61.406,34.24a18.925,18.925,0,0,0-16.125-4.552V11.3a4.518,4.518,0,0,0-4.518-4.518h-6.08a4.48,4.48,0,0,0-2.957-1.13H28.337a5.648,5.648,0,0,0-11.3,0H13.651a4.48,4.48,0,0,0-2.957,1.13H4.614A4.518,4.518,0,0,0,.1,11.3V58.74a4.518,4.518,0,0,0,4.518,4.518H36.321c.389.326.791.631,1.209.926L36.4,66.068a1.13,1.13,0,1,0,1.939,1.159L39.43,65.4a19.141,19.141,0,0,0,18.472,0l1.091,1.825a1.13,1.13,0,0,0,1.939-1.159L59.8,64.185a19.121,19.121,0,0,0,3.193-28.348l1.957-1.948h1.792a1.13,1.13,0,0,0,.39-2.181l.409-.409a1.129,1.129,0,0,0,0-1.6ZM43.022,11.3V30.221a18.874,18.874,0,0,0-2.259.873V13.555A2.259,2.259,0,0,0,38.5,11.3H36.244v-1.13a4.445,4.445,0,0,0-.16-1.13h4.679A2.259,2.259,0,0,1,43.022,11.3Zm-31.629-1.13a2.259,2.259,0,0,1,2.259-2.259H17.04v1.13a1.13,1.13,0,1,0,2.259,0V5.648a3.389,3.389,0,0,1,6.778,0V9.037a1.13,1.13,0,0,0,2.259,0V7.907h3.389a2.259,2.259,0,0,1,2.259,2.259v2.259H11.392Zm22.592,4.518a2.251,2.251,0,0,0,1.945-1.13H38.5V32.307A19.108,19.108,0,0,0,31.19,56.481H6.874V13.555H9.447a2.251,2.251,0,0,0,1.945,1.13ZM2.355,58.74V11.3A2.259,2.259,0,0,1,4.614,9.037H9.293a4.452,4.452,0,0,0-.16,1.13V11.3H6.874a2.259,2.259,0,0,0-2.259,2.259V56.481A2.259,2.259,0,0,0,6.874,58.74H32.4A19.19,19.19,0,0,0,34.05,61H4.614A2.259,2.259,0,0,1,2.355,58.74ZM65.614,48.574a17,17,0,1,1-5.805-12.736l-1.6,1.6a14.729,14.729,0,1,0,1.6,1.6l1.6-1.6a16.855,16.855,0,0,1,4.208,11.139Zm-9.037,0A7.939,7.939,0,1,1,53.4,42.248l-1.616,1.616a5.665,5.665,0,1,0,1.6,1.6L55,43.847A7.853,7.853,0,0,1,56.577,48.574Zm-4.518,0a3.389,3.389,0,1,1-3.389-3.389,3.334,3.334,0,0,1,1.452.339l-2.25,2.25a1.13,1.13,0,1,0,1.6,1.6l2.251-2.249A3.335,3.335,0,0,1,52.059,48.574Zm2.949-7.935a10.193,10.193,0,1,0,1.6,1.6l1.607-1.607a12.445,12.445,0,1,1-1.6-1.6Z" transform="translate(-0.096 0)" fill="#001a58"/>
          <path id="Shape_304_" d="M78.453,141.885a1.13,1.13,0,0,0,.8.331h.113a1.129,1.129,0,0,0,.828-.5l2.259-3.389a1.13,1.13,0,0,0-1.88-1.254l-1.495,2.243-.156-.156a1.13,1.13,0,0,0-1.6,1.6Z" transform="translate(-66.826 -118.494)" fill="#001a58"/>
          <path id="Shape_303_" d="M137.759,155.86h14.685a1.13,1.13,0,1,0,0-2.259H137.759a1.13,1.13,0,1,0,0,2.259Z" transform="translate(-118.555 -133.268)" fill="#001a58"/>
          <path id="Shape_302_" d="M78.453,210.151a1.13,1.13,0,0,0,.8.331h.113a1.129,1.129,0,0,0,.828-.5l2.259-3.389a1.13,1.13,0,1,0-1.88-1.254l-1.495,2.243-.156-.156a1.13,1.13,0,0,0-1.6,1.6Z" transform="translate(-66.826 -177.723)" fill="#001a58"/>
          <path id="Shape_301_" d="M137.759,224.126h14.685a1.13,1.13,0,0,0,0-2.259H137.759a1.13,1.13,0,0,0,0,2.259Z" transform="translate(-118.555 -192.497)" fill="#001a58"/>
          <path id="Shape_300_" d="M137.759,360.66h6.778a1.13,1.13,0,1,0,0-2.259h-6.778a1.13,1.13,0,0,0,0,2.259Z" transform="translate(-118.555 -310.957)" fill="#001a58"/>
          <path id="Shape_299_" d="M78.453,278.381a1.13,1.13,0,0,0,.8.331.767.767,0,0,0,.113-.006,1.129,1.129,0,0,0,.828-.5l2.259-3.389a1.13,1.13,0,0,0-1.88-1.254l-1.495,2.243-.156-.156a1.13,1.13,0,0,0-1.6,1.6Z" transform="translate(-66.826 -236.916)" fill="#001a58"/>
          <path id="Shape_298_" d="M78.454,346.648a1.13,1.13,0,0,0,.8.331.759.759,0,0,0,.113-.006,1.129,1.129,0,0,0,.828-.5l2.259-3.389a1.13,1.13,0,1,0-1.88-1.254l-1.495,2.243-.156-.156a1.13,1.13,0,0,0-1.6,1.6Z" transform="translate(-66.827 -296.146)" fill="#001a58"/>
          <path id="Shape_297_" d="M137.759,292.393h8.664a1.13,1.13,0,1,0,0-2.259h-8.664a1.13,1.13,0,0,0,0,2.259Z" transform="translate(-118.555 -251.727)" fill="#001a58"/>
        </g>
      </g>
    </g>
  </g>
</svg>
