<svg xmlns="http://www.w3.org/2000/svg" width="80" height="80" viewBox="0 0 80 80">
  <g id="Grupo_1116007" data-name="Grupo 1116007" transform="translate(-340.062 -1524)">
    <rect id="Rectángulo_402033" data-name="Rectángulo 402033" width="80" height="80" rx="8" transform="translate(340.062 1524)" fill="#0042db"/>
    <path id="Trazado_954071" data-name="Trazado 954071" d="M4.3-7.559A2.817,2.817,0,0,0,3.232-9.9a13.23,13.23,0,0,0-3.74-1.738,35.883,35.883,0,0,1-4.375-1.738q-5.527-2.715-5.527-7.461a6.69,6.69,0,0,1,1.377-4.17,8.906,8.906,0,0,1,3.9-2.812A15.163,15.163,0,0,1,.527-28.828a13.264,13.264,0,0,1,5.5,1.094A8.7,8.7,0,0,1,9.8-24.619,8.135,8.135,0,0,1,11.152-20H4.316a3.438,3.438,0,0,0-1.064-2.7,4.149,4.149,0,0,0-2.881-.957,4.679,4.679,0,0,0-2.9.811,2.486,2.486,0,0,0-1.064,2.061A2.5,2.5,0,0,0-2.422-18.8,14.778,14.778,0,0,0,1.7-16.963a25.245,25.245,0,0,1,4.844,2.041q4.609,2.656,4.609,7.324A6.944,6.944,0,0,1,8.34-1.738,12.51,12.51,0,0,1,.625.391,15.306,15.306,0,0,1-5.635-.85a9.438,9.438,0,0,1-4.219-3.4A8.855,8.855,0,0,1-11.27-9.219h6.875A4.361,4.361,0,0,0-3.213-5.85,5.585,5.585,0,0,0,.625-4.766,4.412,4.412,0,0,0,3.311-5.5,2.417,2.417,0,0,0,4.3-7.559Z" transform="translate(380.062 1578)" fill="#fff"/>
  </g>
</svg>
