<svg xmlns="http://www.w3.org/2000/svg" width="295" height="163.066" viewBox="0 0 295 163.066">
  <g id="_358561302_8992e3d2-ae82-4e30-ac68-b93149b2f485" data-name="358561302_8992e3d2-ae82-4e30-ac68-b93149b2f485" transform="translate(-27.497 -14.844)">
    <path id="Trazado_959657" data-name="Trazado 959657" d="M321.807,148.285a127.42,127.42,0,0,1-2.881,27c-.157.739-.323,1.478-.5,2.21H43.983c-.173-.731-.343-1.47-.5-2.21a127.42,127.42,0,0,1-2.881-27c0-73.7,62.951-133.441,140.6-133.441S321.807,74.589,321.807,148.285Z" transform="translate(-7.817)" fill="#ebf0fc"/>
    <g id="Grupo_1117467" data-name="Grupo 1117467" transform="translate(213.32 117.579)">
      <path id="Trazado_959658" data-name="Trazado 959658" d="M511.467,291.98a14.167,14.167,0,0,0-4.678-1.495l-.4-3.714-5.692.611.379,3.5a13.233,13.233,0,0,0-4.6,2.368l-2.634-2.121-3.59,4.46,2.634,2.121a13.239,13.239,0,0,0-1.33,5l-3.5.379.619,5.691,3.714-.4a14.159,14.159,0,0,0,2.46,4.25l-2.422,3.009,4.455,3.586,2.422-3.009a14.21,14.21,0,0,0,4.678,1.495l.4,3.714,5.687-.615-.374-3.5a13.234,13.234,0,0,0,4.6-2.368l2.634,2.121,3.59-4.46-2.634-2.121a13.239,13.239,0,0,0,1.33-5l3.5-.382-.615-5.687-3.714.4a14.2,14.2,0,0,0-2.46-4.25l2.422-3.009-4.455-3.586Zm-.55,5.24a8.83,8.83,0,1,1-12.411,1.346A8.831,8.831,0,0,1,510.917,297.22Z" transform="translate(-488.049 -286.771)" fill="#95b3f9"/>
    </g>
    <g id="Grupo_1117468" data-name="Grupo 1117468" transform="translate(146.646 27.163)">
      <path id="Trazado_959659" data-name="Trazado 959659" d="M335.245,48.144a7.527,7.527,0,0,0-2.485-.794l-.213-1.974-3.025.325.2,1.862a7.031,7.031,0,0,0-2.445,1.258l-1.4-1.127-1.908,2.37,1.4,1.127a7.028,7.028,0,0,0-.707,2.658l-1.862.2.329,3.024,1.973-.213a7.521,7.521,0,0,0,1.307,2.258l-1.287,1.6,2.368,1.906,1.287-1.6a7.547,7.547,0,0,0,2.485.794l.213,1.973,3.022-.327-.2-1.86a7.03,7.03,0,0,0,2.445-1.258l1.4,1.127,1.908-2.37-1.4-1.127a7.035,7.035,0,0,0,.707-2.658l1.86-.2-.327-3.022-1.973.213a7.554,7.554,0,0,0-1.307-2.258l1.287-1.6-2.368-1.906Zm-.292,2.784a4.693,4.693,0,1,1-6.6.715A4.693,4.693,0,0,1,334.953,50.929Z" transform="translate(-322.801 -45.376)" fill="#95b3f9"/>
    </g>
    <g id="Grupo_1117469" data-name="Grupo 1117469" transform="translate(41.311 37.201)">
      <path id="Trazado_959660" data-name="Trazado 959660" d="M80.488,74.426a11.34,11.34,0,0,0-3.746-1.2l-.322-2.974-4.558.489.3,2.806a10.593,10.593,0,0,0-3.685,1.9l-2.11-1.7L63.5,77.32l2.11,1.7a10.6,10.6,0,0,0-1.065,4.005l-2.806.3.5,4.557,2.974-.322a11.344,11.344,0,0,0,1.97,3.4l-1.94,2.41L68.8,96.248l1.94-2.41a11.382,11.382,0,0,0,3.746,1.2l.322,2.974,4.554-.492-.3-2.8a10.6,10.6,0,0,0,3.685-1.9l2.11,1.7,2.875-3.572-2.11-1.7a10.6,10.6,0,0,0,1.065-4.005l2.8-.306L89,80.38l-2.974.322a11.378,11.378,0,0,0-1.97-3.4L86,74.889l-3.568-2.872Zm-.441,4.2a7.072,7.072,0,1,1-9.94,1.077A7.072,7.072,0,0,1,80.048,78.622Z" transform="translate(-61.735 -70.255)" fill="#c4d4f8"/>
    </g>
    <g id="Grupo_1117470" data-name="Grupo 1117470" transform="translate(280.774 82.013)">
      <path id="Trazado_959661" data-name="Trazado 959661" d="M673.983,196.225a11.34,11.34,0,0,0-3.746-1.2l-.322-2.974-4.558.489.3,2.806a10.6,10.6,0,0,0-3.685,1.9l-2.11-1.7-2.875,3.571,2.11,1.7a10.6,10.6,0,0,0-1.065,4.005l-2.806.3.5,4.557,2.974-.322a11.345,11.345,0,0,0,1.97,3.4l-1.94,2.41,3.568,2.872,1.94-2.41a11.385,11.385,0,0,0,3.746,1.2l.322,2.974,4.554-.492-.3-2.8a10.6,10.6,0,0,0,3.685-1.9l2.11,1.7,2.875-3.571-2.11-1.7a10.6,10.6,0,0,0,1.065-4.005l2.8-.306-.492-4.554-2.974.322a11.377,11.377,0,0,0-1.97-3.4l1.94-2.41-3.568-2.872Zm-.441,4.2a7.072,7.072,0,1,1-9.94,1.077A7.072,7.072,0,0,1,673.542,200.421Z" transform="translate(-655.229 -192.054)" fill="#c4d4f8"/>
    </g>
    <g id="Grupo_1117472" data-name="Grupo 1117472" transform="translate(134.603 44.156)">
      <path id="Trazado_959662" data-name="Trazado 959662" d="M436.994,344.641h1.384l-13.4-63.715h-4.241Z" transform="translate(-369.179 -211.606)" fill="#c4d4f8"/>
      <path id="Trazado_959663" data-name="Trazado 959663" d="M370.7,344.641H369.32l13.4-63.715h4.242Z" transform="translate(-338.508 -211.606)" fill="#c4d4f8"/>
      <rect id="Rectángulo_416281" data-name="Rectángulo 416281" width="21.093" height="2.328" transform="translate(60.725 99.602) rotate(180)" fill="#c4d4f8"/>
      <g id="Grupo_1117471" data-name="Grupo 1117471">
        <path id="Trazado_959664" data-name="Trazado 959664" d="M354.679,201.936a40.453,40.453,0,1,0-40.453-40.453A40.5,40.5,0,0,0,354.679,201.936Z" transform="translate(-305.643 -116.225)" fill="#95b3f9"/>
        <path id="Trazado_959665" data-name="Trazado 959665" d="M363.609,204.826A34.413,34.413,0,1,0,329.2,170.413,34.452,34.452,0,0,0,363.609,204.826Z" transform="translate(-314.573 -125.154)" fill="#fff"/>
        <path id="Trazado_959666" data-name="Trazado 959666" d="M372.539,207.716a28.373,28.373,0,1,0-28.373-28.372A28.4,28.4,0,0,0,372.539,207.716Z" transform="translate(-323.503 -134.085)" fill="#95b3f9"/>
        <path id="Trazado_959667" data-name="Trazado 959667" d="M381.469,210.605a22.333,22.333,0,1,0-22.333-22.332A22.358,22.358,0,0,0,381.469,210.605Z" transform="translate(-332.433 -143.014)" fill="#fff"/>
        <path id="Trazado_959668" data-name="Trazado 959668" d="M390.4,213.5A16.292,16.292,0,1,0,374.107,197.2,16.311,16.311,0,0,0,390.4,213.5Z" transform="translate(-341.363 -151.945)" fill="#95b3f9"/>
        <circle id="Elipse_13626" data-name="Elipse 13626" cx="10.252" cy="10.252" r="10.252" transform="translate(38.784 35.006)" fill="#fff"/>
        <line id="Línea_27209" data-name="Línea 27209" x1="43.963" y1="40.453" transform="translate(5.073 4.805)" fill="none" stroke="#4f52c7" stroke-miterlimit="10" stroke-width="5"/>
        <path id="Trazado_959669" data-name="Trazado 959669" d="M404.247,204.088l-5.328,8.287H407.5Z" transform="translate(-356.164 -165.77)" fill="#4f52c7"/>
        <path id="Trazado_959670" data-name="Trazado 959670" d="M304.7,114.5v5.267h-5.5" transform="translate(-296.681 -112.331)" fill="none" stroke="#4f52c7" stroke-miterlimit="10" stroke-width="2"/>
        <path id="Trazado_959671" data-name="Trazado 959671" d="M311.367,121.172v5.267h-5.5" transform="translate(-300.659 -116.309)" fill="none" stroke="#4f52c7" stroke-miterlimit="10" stroke-width="2"/>
        <path id="Trazado_959672" data-name="Trazado 959672" d="M298.45,109.12v5.267h-5.5" transform="translate(-292.954 -109.12)" fill="none" stroke="#4f52c7" stroke-miterlimit="10" stroke-width="2"/>
      </g>
    </g>
    <g id="Grupo_1117473" data-name="Grupo 1117473" transform="translate(272.929 38.226)">
      <path id="Trazado_959673" data-name="Trazado 959673" d="M635.8,82.6a10.364,10.364,0,0,0,2.456,7.326,11.515,11.515,0,0,1,2.811,7.445v.187h10.237v-.174a11.046,11.046,0,0,1,2.687-7.316A10.4,10.4,0,1,0,635.8,82.6Z" transform="translate(-635.785 -72.796)" fill="#c4d4f8"/>
      <path id="Trazado_959674" data-name="Trazado 959674" d="M653.283,99.189a14.167,14.167,0,0,1,3.188-6.338,7,7,0,0,0-5.254-11.626c-.092,0-.184,0-.277.005a7,7,0,0,0-5.062,11.525,15.224,15.224,0,0,1,3.254,6.434Z" transform="translate(-640.814 -77.824)" fill="#ebf0fc"/>
      <path id="Trazado_959675" data-name="Trazado 959675" d="M679.4,86.416a5.037,5.037,0,0,1,0,3.8c-.09.217-.243.46-.478.458a.459.459,0,0,1-.395-.42,2.44,2.44,0,0,1,.05-.624,3.533,3.533,0,0,0-.71-2.185c-.36-.585-1.009-1.3-.88-2.032.081-.46.5-1.04,1.027-.846C678.639,84.8,679.166,85.848,679.4,86.416Z" transform="translate(-660.354 -79.794)" fill="#fff"/>
      <circle id="Elipse_13627" data-name="Elipse 13627" cx="0.805" cy="0.805" r="0.805" transform="translate(17.248 11.242)" fill="#fff"/>
      <path id="Trazado_959676" data-name="Trazado 959676" d="M653.741,142.81h0a5.184,5.184,0,0,0,5.184-5.184v-3.879H648.557v3.879A5.185,5.185,0,0,0,653.741,142.81Z" transform="translate(-643.404 -109.154)" fill="#8198ff"/>
      <path id="Trazado_959677" data-name="Trazado 959677" d="M647.5,139.486h10.7a.743.743,0,0,0,.743-.743h0a.743.743,0,0,0-.743-.743H647.5a.743.743,0,0,0-.743.743h0A.743.743,0,0,0,647.5,139.486Z" transform="translate(-642.331 -111.691)" fill="#4f52c7"/>
      <path id="Trazado_959678" data-name="Trazado 959678" d="M647.5,146.464h10.7a.743.743,0,0,0,.743-.743h0a.743.743,0,0,0-.743-.743H647.5a.743.743,0,0,0-.743.743h0A.743.743,0,0,0,647.5,146.464Z" transform="translate(-642.331 -115.854)" fill="#4f52c7"/>
      <path id="Trazado_959679" data-name="Trazado 959679" d="M657.38,112.514s-1.146-12.4,2.028-11.851-.059,4.428-2.028,2.474-2.322-4.884-.852-4.949,1.133,4.167-.9,4.623-4.475-1.5-2.565-3.125,2.233,4.851,2.233,4.851l.294,8.172" transform="translate(-645.678 -87.943)" fill="none" stroke="#8198ff" stroke-miterlimit="10" stroke-width="1"/>
    </g>
    <g id="Grupo_1117477" data-name="Grupo 1117477" transform="translate(212.609 37.171)">
      <path id="Trazado_959680" data-name="Trazado 959680" d="M492.2,113.965h25.059a5.919,5.919,0,0,0,5.919-5.919V76.1a5.919,5.919,0,0,0-5.919-5.919H492.2a5.918,5.918,0,0,0-5.918,5.919v31.949A5.918,5.918,0,0,0,492.2,113.965Z" transform="translate(-486.285 -70.179)" fill="#c4d4f8"/>
      <rect id="Rectángulo_416282" data-name="Rectángulo 416282" width="3.538" height="3.538" transform="translate(32.235 16.563) rotate(180)" fill="#8198ff"/>
      <rect id="Rectángulo_416283" data-name="Rectángulo 416283" width="24.429" height="0.674" transform="translate(27.63 13.909) rotate(180)" fill="#ebf0fc"/>
      <rect id="Rectángulo_416284" data-name="Rectángulo 416284" width="14.698" height="0.674" transform="translate(27.63 16.066) rotate(180)" fill="#ebf0fc"/>
      <rect id="Rectángulo_416285" data-name="Rectángulo 416285" width="3.538" height="3.538" transform="translate(32.235 23.807) rotate(180)" fill="#8198ff"/>
      <rect id="Rectángulo_416286" data-name="Rectángulo 416286" width="24.429" height="0.674" transform="translate(27.63 21.154) rotate(180)" fill="#ebf0fc"/>
      <rect id="Rectángulo_416287" data-name="Rectángulo 416287" width="14.698" height="0.674" transform="translate(27.63 23.31) rotate(180)" fill="#ebf0fc"/>
      <rect id="Rectángulo_416288" data-name="Rectángulo 416288" width="3.538" height="3.538" transform="translate(32.235 31.052) rotate(180)" fill="#8198ff"/>
      <rect id="Rectángulo_416289" data-name="Rectángulo 416289" width="24.429" height="0.674" transform="translate(27.63 28.398) rotate(180)" fill="#ebf0fc"/>
      <rect id="Rectángulo_416290" data-name="Rectángulo 416290" width="14.698" height="0.674" transform="translate(27.63 30.554) rotate(180)" fill="#ebf0fc"/>
      <rect id="Rectángulo_416291" data-name="Rectángulo 416291" width="3.538" height="3.538" transform="translate(32.235 38.296) rotate(180)" fill="#8198ff"/>
      <rect id="Rectángulo_416292" data-name="Rectángulo 416292" width="24.429" height="0.674" transform="translate(27.63 35.642) rotate(180)" fill="#ebf0fc"/>
      <rect id="Rectángulo_416293" data-name="Rectángulo 416293" width="14.698" height="0.674" transform="translate(27.63 37.799) rotate(180)" fill="#ebf0fc"/>
      <g id="Grupo_1117474" data-name="Grupo 1117474" transform="translate(27.598 11.694)">
        <path id="Trazado_959681" data-name="Trazado 959681" d="M559.35,101.912a9.032,9.032,0,0,1-1.356,2.181,13.029,13.029,0,0,1-2.207-2.478,7.559,7.559,0,0,1-1.1-2.4l.063-.05c.94,1.152,2.328,2.827,3.218,4l-.091-.006,1.419-1.3.055.059Z" transform="translate(-554.686 -99.161)" fill="#4f52c7"/>
      </g>
      <g id="Grupo_1117475" data-name="Grupo 1117475" transform="translate(27.598 19.124)">
        <path id="Trazado_959682" data-name="Trazado 959682" d="M559.35,120.327a9.022,9.022,0,0,1-1.356,2.181,13.039,13.039,0,0,1-2.207-2.477,7.561,7.561,0,0,1-1.1-2.4l.063-.05c.941,1.152,2.328,2.827,3.218,4l-.091-.007,1.419-1.3.055.059Z" transform="translate(-554.686 -117.577)" fill="#4f52c7"/>
      </g>
      <g id="Grupo_1117476" data-name="Grupo 1117476" transform="translate(27.598 26.553)">
        <path id="Trazado_959683" data-name="Trazado 959683" d="M559.35,138.741a9.029,9.029,0,0,1-1.356,2.181,13.04,13.04,0,0,1-2.207-2.477,7.567,7.567,0,0,1-1.1-2.4l.063-.05c.941,1.152,2.328,2.827,3.218,4l-.091-.006,1.419-1.3.055.059Z" transform="translate(-554.686 -135.99)" fill="#4f52c7"/>
      </g>
      <rect id="Rectángulo_416294" data-name="Rectángulo 416294" width="24.177" height="3.748" transform="translate(30.651 8.596) rotate(180)" fill="#ebf0fc"/>
    </g>
    <g id="Grupo_1117478" data-name="Grupo 1117478" transform="translate(94.87 101.611)">
      <path id="Trazado_959684" data-name="Trazado 959684" d="M194.477,248.606v16.26a5,5,0,0,0,5,5h29.646a5,5,0,0,0,5-5v-16.26a5,5,0,0,0-5-5H199.475A5,5,0,0,0,194.477,248.606Z" transform="translate(-194.477 -243.608)" fill="#c4d4f8"/>
      <rect id="Rectángulo_416295" data-name="Rectángulo 416295" width="8.404" height="0.895" transform="translate(36.582 4.066) rotate(180)" fill="#ebf0fc"/>
      <rect id="Rectángulo_416296" data-name="Rectángulo 416296" width="5.057" height="0.895" transform="translate(36.582 6.034) rotate(180)" fill="#ebf0fc"/>
      <path id="Trazado_959685" data-name="Trazado 959685" d="M235.411,271.641h-34.15s-.761-12.833,2.205-12.915c3.84-.107.438,7.636,4.41,6.875s-.378-13.952,5.3-12.709.757,11.428,5.476,11.428c6.247,0,3.233-9.941,6.991-8.305s.963,8.867,7.242,7.784C236.245,263.219,234.761,266.4,235.411,271.641Z" transform="translate(-198.472 -249.097)" fill="#ebf0fc"/>
      <path id="Trazado_959686" data-name="Trazado 959686" d="M201.275,283.513c.154-1.543,2.412-2.724,4.3-2.251,1.555.388,2.83,1.669,4.434,1.426a4.028,4.028,0,0,0,2.52-2.026,3.257,3.257,0,0,1,2.83-1.626c1.55.173,2.174,1.866,3.7,2.125,1.331.225,2.453-.737,3.287-1.576s2.083-1.748,3.365-1.39c1.108.309,1.464,1.365,1.711,2.262a2.533,2.533,0,0,0,1.916,2.11c1.185.164,2.177-.737,3.363-.893a2.565,2.565,0,0,1,2.161.7,1.488,1.488,0,0,1,.378.821l.223,3.539h-34.15Z" transform="translate(-198.532 -264.191)" fill="#4f52c7"/>
      <rect id="Rectángulo_416297" data-name="Rectángulo 416297" width="36.129" height="0.416" transform="translate(37.611 22.96) rotate(180)" fill="#ebf0fc"/>
    </g>
    <g id="Grupo_1117484" data-name="Grupo 1117484" transform="translate(136.822 108.048)">
      <g id="Grupo_1117482" data-name="Grupo 1117482">
        <path id="Trazado_959687" data-name="Trazado 959687" d="M328.49,298.461a20.917,20.917,0,0,1-5.836-13.482s1.61,1.811,2.918,2.012c0,0-2.918-3.823-2.918-6.238s4.829-8.287,4.829-8.287-.4,2.049,1.006,2.25,0-4.226,0-4.226l2.817-3.018s4.83,6.64,4.025,11.269a28.9,28.9,0,0,0-2.616,3.421c-.352.8,2.5-.3,2.707-.6s.765,3.924.211,4.628-4.427,3.421-4.125,4.025,2.364-.352,2.364-.352S331.256,296.75,328.49,298.461Z" transform="translate(-312.889 -267.472)" fill="#748de8"/>
        <path id="Trazado_959688" data-name="Trazado 959688" d="M336.727,317.181s-1.8,23.541,0,27.3" transform="translate(-320.806 -297.124)" fill="#748de8"/>
        <g id="Grupo_1117479" data-name="Grupo 1117479" transform="translate(15.504 5.737)">
          <path id="Trazado_959689" data-name="Trazado 959689" d="M339.347,281.691c-.446,2.966-1.106,7.082-1.492,10.008a54.8,54.8,0,0,0-.748,9.423l.051.631c-.616-3.341-.074-6.77.3-10.109.49-3.344,1.074-6.674,1.892-9.954Z" transform="translate(-336.879 -281.691)" fill="#4f52c7"/>
        </g>
        <path id="Trazado_959690" data-name="Trazado 959690" d="M309.433,337.922a18.078,18.078,0,0,0,1.668-12.586s-.911,1.885-1.95,2.362c0,0,1.523-3.867.953-5.875s-5.971-5.749-5.971-5.749.818,1.608-.305,2.108-1-3.513-1-3.513l-3.054-1.844s-2.447,6.661-.685,10.318a25.031,25.031,0,0,1,2.983,2.226c.483.586-2.145.338-2.393.137s.29,3.442.917,3.9,4.488,1.8,4.379,2.372-2.049.265-2.049.265S306.729,337.153,309.433,337.922Z" transform="translate(-298.452 -294.526)" fill="#c4d4f8"/>
        <path id="Trazado_959691" data-name="Trazado 959691" d="M318.466,352.689s7.056,19.145,6.446,22.7" transform="translate(-310.391 -318.306)" fill="#c4d4f8"/>
        <g id="Grupo_1117480" data-name="Grupo 1117480" transform="translate(2.988 22.963)">
          <path id="Trazado_959692" data-name="Trazado 959692" d="M305.858,324.385a80.967,80.967,0,0,1,3.948,7.817c1.108,2.684,2.348,5.421,2.609,8.344l-.111-.536a49.887,49.887,0,0,0-2.867-7.646c-.883-1.99-2.68-6-3.578-7.979Z" transform="translate(-305.858 -324.385)" fill="#4f52c7"/>
        </g>
        <path id="Trazado_959693" data-name="Trazado 959693" d="M350.327,326.931a18.076,18.076,0,0,1,2.667-12.412,5.982,5.982,0,0,0,1.041,2.88s-.132-4.154,1.081-5.852,7.558-3.4,7.558-3.4-1.312,1.239-.422,2.088,2.122-2.972,2.122-2.972l3.5-.708s.061,7.1-2.829,9.946a25.041,25.041,0,0,0-3.558,1.092c-.652.389,1.906,1.041,2.207.935s-1.433,3.143-2.176,3.361-4.831.182-4.922.759,1.84.94,1.84.94S353.132,327.117,350.327,326.931Z" transform="translate(-329.276 -290.784)" fill="#c4d4f8"/>
        <path id="Trazado_959694" data-name="Trazado 959694" d="M345.949,337.5s-9.338,18.142-9.165,21.742" transform="translate(-321.316 -309.244)" fill="#c4d4f8"/>
        <g id="Grupo_1117481" data-name="Grupo 1117481" transform="translate(23.787 19.579)">
          <path id="Trazado_959695" data-name="Trazado 959695" d="M369.021,316c-1.517,1.569-4.552,4.728-6.056,6.308a49.87,49.87,0,0,0-5.275,6.234l-.285.468c1.23-2.665,3.319-4.825,5.266-6.979A80.959,80.959,0,0,1,369.021,316Z" transform="translate(-357.406 -315.998)" fill="#4f52c7"/>
        </g>
      </g>
      <g id="Grupo_1117483" data-name="Grupo 1117483" transform="translate(6.477 45.167)">
        <path id="Trazado_959696" data-name="Trazado 959696" d="M330.606,379.416H315.25s-2.821,14.73,2.507,22.565h9.088S331.233,396.967,330.606,379.416Z" transform="translate(-314.504 -379.416)" fill="#8198ff"/>
        <path id="Trazado_959697" data-name="Trazado 959697" d="M338.559,385.618s0,17.472-4.153,19.353H329A30.5,30.5,0,0,0,338.559,385.618Z" transform="translate(-323.151 -383.116)" fill="#748de8"/>
      </g>
    </g>
    <path id="Trazado_959698" data-name="Trazado 959698" d="M322.5,436.012a1.091,1.091,0,0,1-.4.831,1.442,1.442,0,0,1-.94.335H28.837a1.257,1.257,0,0,1-1.34-1.166,1.09,1.09,0,0,1,.4-.823,1.435,1.435,0,0,1,.944-.339H321.158A1.262,1.262,0,0,1,322.5,436.012Z" transform="translate(0 -259.268)" fill="#95b3f9"/>
    <g id="Grupo_1117516" data-name="Grupo 1117516" transform="translate(246.268 59.789)">
      <g id="Grupo_1117487" data-name="Grupo 1117487" transform="translate(25.839 15.117)">
        <g id="Grupo_1117485" data-name="Grupo 1117485" transform="translate(0 14.578)">
          <path id="Trazado_959699" data-name="Trazado 959699" d="M655.281,227.8a3.318,3.318,0,1,0-1.639-4.4A3.318,3.318,0,0,0,655.281,227.8Z" transform="translate(-645.436 -221.465)" fill="#ffd5ce"/>
          <path id="Trazado_959700" data-name="Trazado 959700" d="M634.88,262.913a1.935,1.935,0,1,0-.956-2.564A1.935,1.935,0,0,0,634.88,262.913Z" transform="translate(-633.748 -243.985)" fill="#ffd5ce"/>
          <path id="Trazado_959701" data-name="Trazado 959701" d="M642.214,226.272,634.183,240.7l3.52,1.608,10.546-13.275Z" transform="translate(-634.008 -224.332)" fill="#ffd5ce"/>
        </g>
        <g id="Grupo_1117486" data-name="Grupo 1117486" transform="translate(0.204)">
          <path id="Trazado_959702" data-name="Trazado 959702" d="M653.492,225.77a3.318,3.318,0,1,0,2.181-4.154A3.318,3.318,0,0,0,653.492,225.77Z" transform="translate(-645.639 -206.886)" fill="#ffd5ce"/>
          <path id="Trazado_959703" data-name="Trazado 959703" d="M634.428,190.319a3.843,3.843,0,1,0,2.526-4.811A3.843,3.843,0,0,0,634.428,190.319Z" transform="translate(-634.253 -185.333)" fill="#ffd5ce"/>
          <path id="Trazado_959704" data-name="Trazado 959704" d="M642.025,192.027l6.675,14.209-6.335,1.973-7.677-13.9Z" transform="translate(-634.512 -189.326)" fill="#ffd5ce"/>
        </g>
      </g>
      <path id="Trazado_959705" data-name="Trazado 959705" d="M611.566,157.074a7.482,7.482,0,0,1,.964,2.769,6.673,6.673,0,0,1-.893,3.339c-.4.82-.947,1.7-1.838,1.907a3.763,3.763,0,0,1-2.53-.771,14.1,14.1,0,0,0-8.39-1.663c-.962.111-2.092.268-2.759-.435a2.417,2.417,0,0,1-.364-2.165,20.809,20.809,0,0,1,1.728-4.276,11.264,11.264,0,0,0,.973-2.741,5.206,5.206,0,0,0-.043-1.442c-.045-.5.149-.711.479-1.107a7.148,7.148,0,0,1,5.357-2.624,6.125,6.125,0,0,1,5.588,3.591c.538,1.293.57,2.744,1.033,4.065A13.293,13.293,0,0,0,611.566,157.074Z" transform="translate(-585.192 -147.866)" fill="#0d0483"/>
      <g id="Grupo_1117488" data-name="Grupo 1117488" transform="translate(0 102.076)">
        <path id="Trazado_959706" data-name="Trazado 959706" d="M577.788,426.813c2.877-.752,5.03-1.272,6.958-1.793l1.825,2.712-4.057.773-4.745-.27Z" transform="translate(-574.517 -415.27)" fill="#ffb89b"/>
        <path id="Trazado_959707" data-name="Trazado 959707" d="M599.261,412.21l.006-11.352-5.8,0,.2,11.415Z" transform="translate(-583.879 -400.855)" fill="#ffb89b"/>
        <path id="Trazado_959708" data-name="Trazado 959708" d="M569.884,428.525l13.836.183.746-1.219.221,1.232.695.009.407-1.258s.635-2.233-.346-3.516a27.781,27.781,0,0,1-12.463,2.223l-3.16,1.388C569.679,427.821,569.643,428.347,569.884,428.525Z" transform="translate(-569.709 -414.635)" fill="#fff"/>
      </g>
      <g id="Grupo_1117489" data-name="Grupo 1117489" transform="translate(0 115.179)">
        <path id="Trazado_959709" data-name="Trazado 959709" d="M569.885,434.118l13.835.183.476-.779-14.444-.191A.783.783,0,0,0,569.885,434.118Z" transform="translate(-569.709 -433.331)" fill="#e7f4ff"/>
        <path id="Trazado_959710" data-name="Trazado 959710" d="M607.568,433.831l-1.089-.014.144.787.693.009Z" transform="translate(-591.643 -433.62)" fill="#e7f4ff"/>
      </g>
      <g id="Grupo_1117490" data-name="Grupo 1117490" transform="translate(3.415 14.107)">
        <path id="Trazado_959711" data-name="Trazado 959711" d="M578.445,224.155a3.318,3.318,0,1,0,4.36-1.734A3.318,3.318,0,0,0,578.445,224.155Z" transform="translate(-578.174 -206.285)" fill="#ffd5ce"/>
        <path id="Trazado_959712" data-name="Trazado 959712" d="M586.357,185.153a3.843,3.843,0,1,0,5.05-2.008A3.843,3.843,0,0,0,586.357,185.153Z" transform="translate(-582.867 -182.83)" fill="#ffd5ce"/>
        <path id="Trazado_959713" data-name="Trazado 959713" d="M589.123,191.629l-4.182,15.132-6.093-2.626,3.218-15.547Z" transform="translate(-578.575 -186.264)" fill="#ffd5ce"/>
      </g>
      <path id="Trazado_959714" data-name="Trazado 959714" d="M584.6,185.521a3.813,3.813,0,0,0-.315,1.518l-1.346,6.516,6.452,3.219,2.269-8.211a3.843,3.843,0,1,0-7.059-3.042Z" transform="translate(-577.601 -168.942)" fill="#ff9e66"/>
      <path id="Trazado_959715" data-name="Trazado 959715" d="M589.3,209.241l-.4,1.611-7.207-3.817.4-1.61Z" transform="translate(-576.854 -182.201)" fill="#f9844f"/>
      <g id="Grupo_1117491" data-name="Grupo 1117491" transform="translate(10.238 14.291)">
        <path id="Trazado_959716" data-name="Trazado 959716" d="M613.226,210.4h-16.7l-1.447-27.113,18.962.974Z" transform="translate(-595.084 -183.286)" fill="#ff9e66"/>
      </g>
      <g id="Grupo_1117492" data-name="Grupo 1117492" transform="translate(7.481 44.933)">
        <path id="Trazado_959717" data-name="Trazado 959717" d="M598.435,299.418l-10.181-.69.854-25.054L602,275Z" transform="translate(-588.252 -267.846)" fill="#0d0483"/>
        <path id="Trazado_959718" data-name="Trazado 959718" d="M591.788,269.911a6.489,6.489,0,1,0,.76-9.145A6.489,6.489,0,0,0,591.788,269.911Z" transform="translate(-589.444 -259.23)" fill="#0d0483"/>
        <path id="Trazado_959719" data-name="Trazado 959719" d="M589.463,331.221a5.123,5.123,0,1,0,.6-7.22A5.123,5.123,0,0,0,589.463,331.221Z" transform="translate(-588.249 -297.143)" fill="#0d0483"/>
      </g>
      <g id="Grupo_1117493" data-name="Grupo 1117493" transform="translate(7.447 70.605)">
        <path id="Trazado_959720" data-name="Trazado 959720" d="M596.374,366.364l-6.386-.018-1.819-30.738,10.244-.121Z" transform="translate(-588.168 -330.391)" fill="#0d0483"/>
        <path id="Trazado_959721" data-name="Trazado 959721" d="M589.756,331.691a5.123,5.123,0,1,0-.178-7.243A5.123,5.123,0,0,0,589.756,331.691Z" transform="translate(-588.165 -322.857)" fill="#0d0483"/>
      </g>
      <path id="Trazado_959722" data-name="Trazado 959722" d="M591.643,258.178l2.83-7.694h16.7l2.3,7.678a1.659,1.659,0,0,1-1.036,1.626l-8.108,3.271a6.512,6.512,0,0,1-5.206-.146l-6.53-3.069A1.659,1.659,0,0,1,591.643,258.178Z" transform="translate(-582.788 -209.08)" fill="#0d0483"/>
      <path id="Trazado_959723" data-name="Trazado 959723" d="M606.025,184.8a4.136,4.136,0,0,0,4.1,3.509,4.357,4.357,0,0,0,.653-.051,4.165,4.165,0,0,0,3.51-3.986l-8.3-.425A4.177,4.177,0,0,0,606.025,184.8Z" transform="translate(-591.342 -169.329)" fill="#f9844f"/>
      <g id="Grupo_1117494" data-name="Grupo 1117494" transform="translate(14.888 9.608)">
        <path id="Trazado_959724" data-name="Trazado 959724" d="M607.833,180.072a3.425,3.425,0,1,0,2.849-3.917A3.425,3.425,0,0,0,607.833,180.072Z" transform="translate(-607.314 -174.324)" fill="#ffd5ce"/>
        <path id="Trazado_959725" data-name="Trazado 959725" d="M613.894,176.36l-.739-4.68-6.547.989.52,4.759Z" transform="translate(-606.608 -171.68)" fill="#ffd5ce"/>
      </g>
      <g id="Grupo_1117496" data-name="Grupo 1117496" transform="translate(21.709 7.215)">
        <path id="Trazado_959726" data-name="Trazado 959726" d="M624.528,165.78s2.038-.421,1.816,1.816-2.83,1.6-2.83,1.6Z" transform="translate(-623.514 -165.748)" fill="#ffd5ce"/>
        <g id="Grupo_1117495" data-name="Grupo 1117495" transform="translate(1.306 0.908)">
          <path id="Trazado_959727" data-name="Trazado 959727" d="M626.955,168.008a.729.729,0,0,1,.779.314.987.987,0,0,1,.08.224,1.077,1.077,0,0,1-.017.531.874.874,0,0,1-.287.452.673.673,0,0,1-.543.139" transform="translate(-626.872 -167.997)" fill="none" stroke="#bf736a" stroke-linecap="round" stroke-miterlimit="10" stroke-width="0.5"/>
          <path id="Trazado_959728" data-name="Trazado 959728" d="M626.769,169.708c-.129-.261.434-.7.925-.247" transform="translate(-626.751 -168.754)" fill="none" stroke="#bf736a" stroke-linecap="round" stroke-miterlimit="10" stroke-width="0.5"/>
        </g>
      </g>
      <path id="Trazado_959729" data-name="Trazado 959729" d="M607.582,179.188l-.125-1.126c.913.126,4.62-.507,6.156-2.627C613.613,175.733,610.551,181.209,607.582,179.188Z" transform="translate(-592.226 -164.312)" opacity="0.1"/>
      <path id="Trazado_959730" data-name="Trazado 959730" d="M612.935,161.644s-2.712,3.8-4.75,4.375-3.313-.645-3.313-2.735v-5.346a3.613,3.613,0,0,1,2.017-3.271,5.775,5.775,0,0,1,4.54-.066C615.992,156.194,612.935,161.644,612.935,161.644Z" transform="translate(-590.684 -151.63)" fill="#ffd5ce"/>
      <path id="Trazado_959731" data-name="Trazado 959731" d="M608.517,165.176a.912.912,0,0,0-1.174,0" transform="translate(-592.158 -158.064)" fill="none" stroke="#bf736a" stroke-linecap="round" stroke-miterlimit="10" stroke-width="0.75"/>
      <path id="Trazado_959732" data-name="Trazado 959732" d="M615.19,165.176a.912.912,0,0,0-1.174,0" transform="translate(-596.139 -158.064)" fill="none" stroke="#bf736a" stroke-linecap="round" stroke-miterlimit="10" stroke-width="0.75"/>
      <path id="Trazado_959733" data-name="Trazado 959733" d="M614.992,171.668a.78.78,0,1,0,.78-.78A.78.78,0,0,0,614.992,171.668Z" transform="translate(-596.721 -161.599)" fill="#edbfb9"/>
      <path id="Trazado_959734" data-name="Trazado 959734" d="M605.08,171.668a.78.78,0,1,0,.78-.78A.78.78,0,0,0,605.08,171.668Z" transform="translate(-590.808 -161.599)" fill="#edbfb9"/>
      <path id="Trazado_959735" data-name="Trazado 959735" d="M595.67,256.634s.043,4.8-1.063,6.7" transform="translate(-584.561 -212.748)" fill="none" stroke="#fff" stroke-linecap="round" stroke-miterlimit="10" stroke-width="1"/>
      <path id="Trazado_959736" data-name="Trazado 959736" d="M634.358,190.344a3.8,3.8,0,0,0,.749,1.357l3.219,5.823,6.993-1.756-3.623-7.71a3.843,3.843,0,0,0-7.339,2.286Z" transform="translate(-608.169 -170.23)" fill="#ff9e66"/>
      <path id="Trazado_959737" data-name="Trazado 959737" d="M649.977,208.614l.741,1.486-7.956,1.794-.741-1.486Z" transform="translate(-612.844 -184.103)" fill="#f9844f"/>
      <line id="Línea_27210" data-name="Línea 27210" x1="0.543" y1="2.637" transform="translate(26.503 22.297)" fill="none" stroke="#f9844f" stroke-linecap="round" stroke-miterlimit="10" stroke-width="1"/>
      <line id="Línea_27211" data-name="Línea 27211" y1="2.691" x2="0.081" transform="translate(9.978 21.606)" fill="none" stroke="#f9844f" stroke-linecap="round" stroke-miterlimit="10" stroke-width="1"/>
      <path id="Trazado_959738" data-name="Trazado 959738" d="M599.613,409.3l-5.817-.086.029,1,5.665.125Z" transform="translate(-584.077 -303.765)" fill="#002647"/>
      <g id="Grupo_1117497" data-name="Grupo 1117497" transform="translate(22.927 102.115)">
        <path id="Trazado_959739" data-name="Trazado 959739" d="M645.772,427.076c-2.868-.786-5.015-1.331-6.936-1.875l-1.857,2.69,4.047.821,4.747-.213Z" transform="translate(-632.764 -415.417)" fill="#ffb89b"/>
        <path id="Trazado_959740" data-name="Trazado 959740" d="M628.128,412.313l-.018-11.352,5.8-.008-.188,11.415Z" transform="translate(-627.473 -400.952)" fill="#ffb89b"/>
        <path id="Trazado_959741" data-name="Trazado 959741" d="M642.608,428.729l-13.837.02-.732-1.228-.235,1.229h-.695l-.393-1.263s-.609-2.24.388-3.512a27.785,27.785,0,0,0,12.436,2.37l3.144,1.426C642.821,428.028,642.851,428.554,642.608,428.729Z" transform="translate(-626.532 -414.687)" fill="#fff"/>
      </g>
      <g id="Grupo_1117498" data-name="Grupo 1117498" transform="translate(18.079 45.156)">
        <path id="Trazado_959742" data-name="Trazado 959742" d="M619.627,299.567l10.128-1.251-2.235-24.968-12.8,2.033Z" transform="translate(-614.636 -267.874)" fill="#0d0483"/>
        <path id="Trazado_959743" data-name="Trazado 959743" d="M626.181,270.184a6.489,6.489,0,1,1-1.263-9.089A6.488,6.488,0,0,1,626.181,270.184Z" transform="translate(-614.516 -259.782)" fill="#0d0483"/>
        <path id="Trazado_959744" data-name="Trazado 959744" d="M635.809,331.163a5.123,5.123,0,1,1-1-7.176A5.123,5.123,0,0,1,635.809,331.163Z" transform="translate(-621.724 -297.463)" fill="#0d0483"/>
      </g>
      <g id="Grupo_1117499" data-name="Grupo 1117499" transform="translate(21.33 69.203)">
        <path id="Trazado_959745" data-name="Trazado 959745" d="M627.245,366.487l5.648.465,4.146-30.753-10.224-.653Z" transform="translate(-625.103 -329.024)" fill="#0d0483"/>
        <circle id="Elipse_13628" data-name="Elipse 13628" cx="5.123" cy="5.123" r="5.123" transform="matrix(0.43, -0.903, 0.903, 0.43, 0, 9.251)" fill="#0d0483"/>
      </g>
      <path id="Trazado_959746" data-name="Trazado 959746" d="M627.846,409.65l5.795.519-.133.987-5.648-.465Z" transform="translate(-604.389 -304.025)" fill="#002647"/>
      <path id="Trazado_959747" data-name="Trazado 959747" d="M639.236,257.853s-.487,5.361,2.038,6.867" transform="translate(-611.161 -213.475)" fill="none" stroke="#fff" stroke-linecap="round" stroke-miterlimit="10" stroke-width="1"/>
      <path id="Trazado_959748" data-name="Trazado 959748" d="M613.594,264.942s-.621,7.443,0,8.211a9.721,9.721,0,0,0,.926,1.037" transform="translate(-595.722 -217.704)" fill="none" stroke="#fff" stroke-linecap="round" stroke-miterlimit="10" stroke-width="1"/>
      <path id="Trazado_959749" data-name="Trazado 959749" d="M614.754,250.484h-16.7l-.413,1.122,17.392-.174Z" transform="translate(-586.374 -209.08)" fill="#013d69"/>
      <path id="Trazado_959750" data-name="Trazado 959750" d="M611.513,154.572s-4.313,3.736-8.325.864c0,0,.477-5.948,9.18-3.242C612.369,152.193,612.43,153.917,611.513,154.572Z" transform="translate(-589.68 -150.026)" fill="#0d0483"/>
      <path id="Trazado_959751" data-name="Trazado 959751" d="M620.184,158.216s-.711,3.576,1.269,5.02a4.158,4.158,0,0,0,.692-6.04S620.364,157.679,620.184,158.216Z" transform="translate(-599.744 -153.432)" fill="#0d0483"/>
      <path id="Trazado_959752" data-name="Trazado 959752" d="M609.168,177.661a.923.923,0,0,0,1.108-.086" transform="translate(-593.247 -165.588)" fill="none" stroke="#b52b60" stroke-linecap="round" stroke-miterlimit="10" stroke-width="1"/>
      <path id="Trazado_959753" data-name="Trazado 959753" d="M610.368,170.372s-.8,1.064-.715,1.228.582.22.582.22" transform="translate(-593.533 -161.291)" fill="none" stroke="#bf736a" stroke-linecap="round" stroke-miterlimit="10" stroke-width="0.5"/>
      <g id="Grupo_1117500" data-name="Grupo 1117500" transform="translate(15.267 7.773)">
        <path id="Trazado_959754" data-name="Trazado 959754" d="M607.764,167.494c0,.2.115.364.256.364s.256-.163.256-.364-.115-.364-.256-.364S607.764,167.293,607.764,167.494Z" transform="translate(-607.677 -167.13)" fill="#2e1124"/>
        <path id="Trazado_959755" data-name="Trazado 959755" d="M607.722,167.309a.254.254,0,0,1-.174-.137" transform="translate(-607.548 -167.155)" fill="none" stroke="#2e1124" stroke-linecap="round" stroke-miterlimit="10" stroke-width="0.5"/>
      </g>
      <g id="Grupo_1117501" data-name="Grupo 1117501" transform="translate(18.07 7.773)">
        <path id="Trazado_959756" data-name="Trazado 959756" d="M614.495,167.494c0,.2.115.364.256.364s.256-.163.256-.364-.115-.364-.256-.364S614.495,167.293,614.495,167.494Z" transform="translate(-614.495 -167.13)" fill="#2e1124"/>
        <path id="Trazado_959757" data-name="Trazado 959757" d="M615.673,167.426a.253.253,0,0,1-.184.123" transform="translate(-615.088 -167.307)" fill="none" stroke="#2e1124" stroke-linecap="round" stroke-miterlimit="10" stroke-width="0.5"/>
      </g>
      <path id="Trazado_959758" data-name="Trazado 959758" d="M616.139,151.346a5.954,5.954,0,0,0-4.564.029" transform="translate(-594.683 -149.679)" fill="none" stroke="#002647" stroke-linecap="round" stroke-miterlimit="10" stroke-width="1"/>
      <path id="Trazado_959759" data-name="Trazado 959759" d="M617.2,153.846a8.342,8.342,0,0,0-3.656.247" transform="translate(-595.859 -151.374)" fill="none" stroke="#002647" stroke-linecap="round" stroke-miterlimit="10" stroke-width="1"/>
      <path id="Trazado_959760" data-name="Trazado 959760" d="M624.355,153.122a3.619,3.619,0,0,1,1.282,2.75" transform="translate(-602.306 -151.001)" fill="none" stroke="#002647" stroke-linecap="round" stroke-miterlimit="10" stroke-width="1"/>
      <path id="Trazado_959761" data-name="Trazado 959761" d="M615.888,188.674a2.788,2.788,0,0,0,1.268,2.574s3.791-3.457,3.043-6.347C620.2,184.9,618.883,188.364,615.888,188.674Z" transform="translate(-597.253 -169.958)" fill="#f9844f"/>
      <path id="Trazado_959762" data-name="Trazado 959762" d="M609.1,187.851a2.967,2.967,0,0,1-1.315,2.643s-3.455-2.821-2.193-6.647C605.591,183.847,606.1,187.54,609.1,187.851Z" transform="translate(-590.948 -169.329)" fill="#f9844f"/>
      <circle id="Elipse_13629" data-name="Elipse 13629" cx="0.432" cy="0.432" r="0.432" transform="translate(17.877 20.544)" fill="#d7ebff"/>
      <circle id="Elipse_13630" data-name="Elipse 13630" cx="0.432" cy="0.432" r="0.432" transform="translate(17.877 22.951)" fill="#d7ebff"/>
      <circle id="Elipse_13631" data-name="Elipse 13631" cx="0.432" cy="0.432" r="0.432" transform="translate(17.877 25.358)" fill="#d7ebff"/>
      <g id="Grupo_1117502" data-name="Grupo 1117502" transform="translate(23.261 115.373)">
        <path id="Trazado_959763" data-name="Trazado 959763" d="M645.226,434.595l-13.836.02-.467-.784,14.445-.021A.781.781,0,0,1,645.226,434.595Z" transform="translate(-629.485 -433.81)" fill="#e7f4ff"/>
        <path id="Trazado_959764" data-name="Trazado 959764" d="M627.36,433.864l1.089,0-.153.785H627.6Z" transform="translate(-627.36 -433.841)" fill="#e7f4ff"/>
      </g>
      <g id="Grupo_1117508" data-name="Grupo 1117508" transform="translate(15.038 12.864)" opacity="0.1">
        <path id="Trazado_959765" data-name="Trazado 959765" d="M610.91,183.451h0a.673.673,0,0,0,.831.1l2.987-2.769c.416-.358.52-.77.338-.978h0c-.228-.26-1.067.479-1.08.489l-3.254,2.45C610.526,182.926,610.729,183.244,610.91,183.451Z" transform="translate(-609.167 -179.749)"/>
        <path id="Trazado_959766" data-name="Trazado 959766" d="M607.893,182.24a2.27,2.27,0,0,0-.214-.172,1.152,1.152,0,0,0-.376-.188.262.262,0,0,0-.3.075.515.515,0,0,0,.019.35c.37,1.228-.121,4.621.1,4.911.21.272.813.491,1.08.278a2.35,2.35,0,0,0,.583-2.455,2.409,2.409,0,0,1-.326-.725c-.03-.286-.011-1.017-.084-1.3A1.516,1.516,0,0,0,607.893,182.24Z" transform="translate(-606.98 -181.012)"/>
        <g id="Grupo_1117507" data-name="Grupo 1117507" transform="translate(0.132 3.129)">
          <g id="Grupo_1117506" data-name="Grupo 1117506">
            <g id="Grupo_1117505" data-name="Grupo 1117505">
              <g id="Grupo_1117504" data-name="Grupo 1117504">
                <g id="Grupo_1117503" data-name="Grupo 1117503">
                  <path id="Trazado_959767" data-name="Trazado 959767" d="M608.217,187.722c.439-.468.973-.1,3.627.311.1.015-.9,2.93-2.222,3.463a1.592,1.592,0,0,1-2.3-1C607.188,189.814,608.217,187.722,608.217,187.722Z" transform="translate(-607.308 -187.503)"/>
                </g>
              </g>
            </g>
          </g>
        </g>
        <path id="Trazado_959768" data-name="Trazado 959768" d="M612.981,187.96l1.474-1.009a.54.54,0,0,0,.14-.748h0a.54.54,0,0,0-.748-.14l-1.474,1.009a.54.54,0,0,0-.14.748h0A.54.54,0,0,0,612.981,187.96Z" transform="translate(-610.057 -183.459)"/>
        <path id="Trazado_959769" data-name="Trazado 959769" d="M613.846,190.489l1.474-1.009a.54.54,0,0,0,.14-.748h0a.54.54,0,0,0-.748-.14l-1.474,1.009a.54.54,0,0,0-.14.748h0A.54.54,0,0,0,613.846,190.489Z" transform="translate(-610.573 -184.968)"/>
        <path id="Trazado_959770" data-name="Trazado 959770" d="M614.633,192.692l1.205-.825a.441.441,0,0,0,.115-.612h0a.441.441,0,0,0-.612-.115l-1.205.825a.441.441,0,0,0-.115.612h0A.441.441,0,0,0,614.633,192.692Z" transform="translate(-611.134 -186.499)"/>
        <path id="Trazado_959771" data-name="Trazado 959771" d="M614.857,191.073c.073.023.205.188.167.3" transform="translate(-611.679 -186.504)"/>
        <path id="Trazado_959772" data-name="Trazado 959772" d="M612.232,187.371c.075.01.234.15.216.269" transform="translate(-610.113 -184.296)"/>
        <path id="Trazado_959773" data-name="Trazado 959773" d="M615.392,193.048a.307.307,0,0,1,.088.333" transform="translate(-611.998 -187.682)"/>
        <path id="Trazado_959774" data-name="Trazado 959774" d="M613.6,188.925c.112.029.328.269.279.445" transform="translate(-610.931 -185.223)"/>
        <path id="Trazado_959775" data-name="Trazado 959775" d="M607.226,182.98s.385.322.28.621-.144.439-.144.439" transform="translate(-607.127 -181.677)"/>
        <path id="Trazado_959776" data-name="Trazado 959776" d="M620.623,180.368c.041.007.083.154.008.241s-.164.209-.164.209l-.2-.21" transform="translate(-614.905 -180.118)"/>
      </g>
      <g id="Grupo_1117509" data-name="Grupo 1117509" transform="translate(3.77 17.5)">
        <path id="Trazado_959777" data-name="Trazado 959777" d="M583.633,223.243a3.318,3.318,0,1,0,1.806,4.33A3.318,3.318,0,0,0,583.633,223.243Z" transform="translate(-579.053 -210.18)" fill="#ffd5ce"/>
        <path id="Trazado_959778" data-name="Trazado 959778" d="M606.841,191.384a1.935,1.935,0,1,0,1.053,2.526A1.935,1.935,0,0,0,606.841,191.384Z" transform="translate(-594.035 -191.238)" fill="#ffd5ce"/>
        <path id="Trazado_959779" data-name="Trazado 959779" d="M585.81,210.4l7.472-14.721-3.579-1.472-10.03,13.669Z" transform="translate(-579.423 -193.011)" fill="#ffd5ce"/>
      </g>
      <g id="Grupo_1117515" data-name="Grupo 1117515" transform="translate(14.754 12.728)">
        <path id="Trazado_959780" data-name="Trazado 959780" d="M610.208,183.112h0a.673.673,0,0,0,.831.1l2.987-2.769c.416-.358.52-.77.338-.978h0c-.228-.26-1.067.479-1.08.489l-3.254,2.45C609.823,182.587,610.026,182.9,610.208,183.112Z" transform="translate(-608.464 -179.41)" fill="#ffd5ce"/>
        <path id="Trazado_959781" data-name="Trazado 959781" d="M607.19,181.9a2.272,2.272,0,0,0-.214-.172,1.151,1.151,0,0,0-.376-.188.262.262,0,0,0-.3.075.515.515,0,0,0,.019.35c.37,1.228-.121,4.621.1,4.911.21.272.813.491,1.081.278a2.351,2.351,0,0,0,.583-2.455,2.413,2.413,0,0,1-.326-.725c-.03-.286-.011-1.017-.083-1.3A1.511,1.511,0,0,0,607.19,181.9Z" transform="translate(-606.277 -180.673)" fill="#ffd5ce"/>
        <g id="Grupo_1117514" data-name="Grupo 1117514" transform="translate(0.133 3.129)">
          <g id="Grupo_1117513" data-name="Grupo 1117513">
            <g id="Grupo_1117512" data-name="Grupo 1117512">
              <g id="Grupo_1117511" data-name="Grupo 1117511">
                <g id="Grupo_1117510" data-name="Grupo 1117510">
                  <path id="Trazado_959782" data-name="Trazado 959782" d="M607.515,187.383c.439-.468.973-.1,3.627.311.1.015-.9,2.93-2.222,3.463a1.592,1.592,0,0,1-2.3-1C606.485,189.475,607.515,187.383,607.515,187.383Z" transform="translate(-606.606 -187.164)" fill="#ffd5ce"/>
                </g>
              </g>
            </g>
          </g>
        </g>
        <path id="Trazado_959783" data-name="Trazado 959783" d="M612.279,187.621l1.474-1.009a.54.54,0,0,0,.14-.748h0a.54.54,0,0,0-.748-.14l-1.474,1.009a.54.54,0,0,0-.14.748h0A.54.54,0,0,0,612.279,187.621Z" transform="translate(-609.355 -183.12)" fill="#ffd5ce"/>
        <path id="Trazado_959784" data-name="Trazado 959784" d="M613.144,190.15l1.474-1.009a.54.54,0,0,0,.14-.748h0a.54.54,0,0,0-.748-.14l-1.474,1.009a.54.54,0,0,0-.14.748h0A.54.54,0,0,0,613.144,190.15Z" transform="translate(-609.871 -184.629)" fill="#ffd5ce"/>
        <path id="Trazado_959785" data-name="Trazado 959785" d="M613.931,192.353l1.205-.825a.441.441,0,0,0,.115-.612h0a.441.441,0,0,0-.612-.115l-1.205.825a.441.441,0,0,0-.115.612h0A.441.441,0,0,0,613.931,192.353Z" transform="translate(-610.432 -186.16)" fill="#ffd5ce"/>
        <path id="Trazado_959786" data-name="Trazado 959786" d="M614.154,190.734c.072.023.205.188.167.3" transform="translate(-610.976 -186.165)" fill="none" stroke="#bf736a" stroke-linecap="round" stroke-miterlimit="10" stroke-width="0.5"/>
        <path id="Trazado_959787" data-name="Trazado 959787" d="M611.529,187.032c.076.01.234.15.216.269" transform="translate(-609.41 -183.957)" fill="none" stroke="#bf736a" stroke-linecap="round" stroke-miterlimit="10" stroke-width="0.5"/>
        <path id="Trazado_959788" data-name="Trazado 959788" d="M614.689,192.709a.307.307,0,0,1,.088.333" transform="translate(-611.295 -187.343)" fill="none" stroke="#bf736a" stroke-linecap="round" stroke-miterlimit="10" stroke-width="0.5"/>
        <path id="Trazado_959789" data-name="Trazado 959789" d="M612.9,188.586c.112.029.328.27.279.445" transform="translate(-610.228 -184.884)" fill="none" stroke="#bf736a" stroke-linecap="round" stroke-miterlimit="10" stroke-width="0.5"/>
        <path id="Trazado_959790" data-name="Trazado 959790" d="M606.524,182.641s.385.322.28.621-.145.439-.145.439" transform="translate(-606.424 -181.338)" fill="none" stroke="#bf736a" stroke-linecap="round" stroke-miterlimit="10" stroke-width="0.5"/>
        <path id="Trazado_959791" data-name="Trazado 959791" d="M619.92,180.029c.041.007.083.154.008.241s-.164.209-.164.209l-.2-.21" transform="translate(-614.202 -179.779)" fill="none" stroke="#bf736a" stroke-linecap="round" stroke-miterlimit="10" stroke-width="0.5"/>
      </g>
    </g>
    <g id="Grupo_1117547" data-name="Grupo 1117547" transform="translate(43.314 56.372)">
      <g id="Grupo_1117517" data-name="Grupo 1117517" transform="translate(0 19.045)">
        <circle id="Elipse_13632" data-name="Elipse 13632" cx="3.436" cy="3.436" r="3.436" transform="translate(0 20.684) rotate(-67.865)" fill="#fdd2d0"/>
        <path id="Trazado_959792" data-name="Trazado 959792" d="M92.888,191.629a3.981,3.981,0,1,1-2.791-4.889A3.98,3.98,0,0,1,92.888,191.629Z" transform="translate(-77.656 -186.599)" fill="#fdd2d0"/>
        <path id="Trazado_959793" data-name="Trazado 959793" d="M75.971,193.868l-6.39,14.955,6.63,1.81,7.439-14.668Z" transform="translate(-68.418 -190.935)" fill="#fdd2d0"/>
      </g>
      <g id="Grupo_1117518" data-name="Grupo 1117518" transform="translate(36.56 24.266)">
        <path id="Trazado_959794" data-name="Trazado 959794" d="M163.6,226.776a3.437,3.437,0,1,1-4.768-.942A3.436,3.436,0,0,1,163.6,226.776Z" transform="translate(-157.312 -214.877)" fill="#fdd2d0"/>
        <path id="Trazado_959795" data-name="Trazado 959795" d="M195.782,200.427a2,2,0,1,1-2.781-.55A2,2,0,0,1,195.782,200.427Z" transform="translate(-178.071 -199.538)" fill="#fdd2d0"/>
        <path id="Trazado_959796" data-name="Trazado 959796" d="M161.089,211,174.5,200.38l2.232,3.33-11.812,13Z" transform="translate(-159.565 -200.04)" fill="#fdd2d0"/>
      </g>
      <g id="Grupo_1117519" data-name="Grupo 1117519" transform="translate(27.76 19.834)">
        <path id="Trazado_959797" data-name="Trazado 959797" d="M163.286,226.153a3.437,3.437,0,1,1-4.841-.429A3.436,3.436,0,0,1,163.286,226.153Z" transform="translate(-148.453 -210.249)" fill="#fdd2d0"/>
        <path id="Trazado_959798" data-name="Trazado 959798" d="M142.533,189.979a3.981,3.981,0,1,1-5.608-.5A3.981,3.981,0,0,1,142.533,189.979Z" transform="translate(-135.5 -188.554)" fill="#fdd2d0"/>
        <path id="Trazado_959799" data-name="Trazado 959799" d="M137.8,197.2l8.634,13.781,5.27-4.412-7.8-14.479Z" transform="translate(-136.873 -190.661)" fill="#fdd2d0"/>
      </g>
      <g id="Grupo_1117520" data-name="Grupo 1117520" transform="translate(27.317 17.733)">
        <path id="Trazado_959800" data-name="Trazado 959800" d="M141.631,185.023a3.95,3.95,0,0,1,.647,1.469l2.774,6.31-5.839,4.657-4.075-7.827a3.981,3.981,0,0,1,6.493-4.609Z" transform="translate(-134.402 -183.345)" fill="#ff9e66"/>
        <path id="Trazado_959801" data-name="Trazado 959801" d="M144.256,208.667l.758,1.544,6.476-5.426-.758-1.544Z" transform="translate(-140.28 -195.213)" fill="#f9844f"/>
      </g>
      <g id="Grupo_1117521" data-name="Grupo 1117521" transform="translate(11.115 98.188)">
        <path id="Trazado_959802" data-name="Trazado 959802" d="M110.915,401.558a15.937,15.937,0,0,0-5.505-3.3s.239.826,2.351,2.248S110.915,401.558,110.915,401.558Z" transform="translate(-100.906 -391.998)" fill="#683b1c"/>
        <path id="Trazado_959803" data-name="Trazado 959803" d="M102.932,390.623l5.13-7.875,5.733,3.861-5.815,7.728Z" transform="translate(-99.427 -382.748)" fill="#fdd2d0"/>
        <path id="Trazado_959804" data-name="Trazado 959804" d="M108.664,413.32,99.286,407c-.587-.4-.534-1.391-1.433-2-.3-.2-.913.416-.913.416l-2.634-1.774c.131-.194.323-.449.546-.739,1.321-1.7,3.936-4.65,3.936-4.65s.118.4,2.086,1.721a9.952,9.952,0,0,0,3.418,1.58,5.343,5.343,0,0,0,.274,1.717c.534,2.188,2.508,4.013,4.154,5.52,1.1,1.006.713,2.667.326,3.67A6.13,6.13,0,0,1,108.664,413.32Z" transform="translate(-94.282 -392.002)" fill="#ffd800"/>
        <path id="Trazado_959805" data-name="Trazado 959805" d="M122.011,426.724l-4.132-2.783c-1.543-1.039-2.228-.343-2.228-.343" transform="translate(-107.015 -406.98)" fill="none" stroke="#a9693c" stroke-miterlimit="10" stroke-width="0.15"/>
        <path id="Trazado_959806" data-name="Trazado 959806" d="M100.651,402.785a3.838,3.838,0,0,1-.556,4.307" transform="translate(-97.735 -394.7)" fill="none" stroke="#a9693c" stroke-miterlimit="10" stroke-width="0.15"/>
        <path id="Trazado_959807" data-name="Trazado 959807" d="M110.618,407.555a9.381,9.381,0,0,0,1.683,4.5,7.559,7.559,0,0,1-.973,1.576s-2.5-1.8-3.89-2.55a1.948,1.948,0,0,0-2.019.3" transform="translate(-100.911 -397.546)" fill="none" stroke="#a9693c" stroke-miterlimit="10" stroke-width="0.15"/>
        <path id="Trazado_959808" data-name="Trazado 959808" d="M118.754,407.968a1.35,1.35,0,0,1-.379,1.3" transform="translate(-108.639 -397.792)" fill="none" stroke="#3f220e" stroke-linecap="round" stroke-miterlimit="10" stroke-width="0.45"/>
        <path id="Trazado_959809" data-name="Trazado 959809" d="M118.586,409.089a.8.8,0,0,0-.806-.754" transform="translate(-108.285 -398.011)" fill="none" stroke="#3f220e" stroke-linecap="round" stroke-miterlimit="10" stroke-width="0.45"/>
        <path id="Trazado_959810" data-name="Trazado 959810" d="M119.613,411.529a1.349,1.349,0,0,1-.379,1.3" transform="translate(-109.152 -399.916)" fill="none" stroke="#3f220e" stroke-linecap="round" stroke-miterlimit="10" stroke-width="0.45"/>
        <path id="Trazado_959811" data-name="Trazado 959811" d="M119.426,412.165s-.264-.925-1.05-.981" transform="translate(-108.64 -399.711)" fill="none" stroke="#3f220e" stroke-linecap="round" stroke-miterlimit="10" stroke-width="0.45"/>
        <path id="Trazado_959812" data-name="Trazado 959812" d="M121.23,414.543s.412.472-.189,1.105" transform="translate(-110.23 -401.714)" fill="none" stroke="#3f220e" stroke-linecap="round" stroke-miterlimit="10" stroke-width="0.45"/>
        <path id="Trazado_959813" data-name="Trazado 959813" d="M120.562,415.348a2.285,2.285,0,0,0-1.328-.6" transform="translate(-109.152 -401.835)" fill="none" stroke="#3f220e" stroke-linecap="round" stroke-miterlimit="10" stroke-width="0.45"/>
        <path id="Trazado_959814" data-name="Trazado 959814" d="M121.322,417.308a1.435,1.435,0,0,1,.655-.272" transform="translate(-110.397 -403.202)" fill="none" stroke="#3f220e" stroke-linecap="round" stroke-miterlimit="10" stroke-width="0.45"/>
        <path id="Trazado_959815" data-name="Trazado 959815" d="M109.165,419.393l-.513.761-9.991-6.728a2.224,2.224,0,0,0-.748-1.329c-.451-.3-.985.162-.985.162l-2.682-1.806.513-.761Z" transform="translate(-94.246 -398.821)" fill="#ffc42a"/>
        <path id="Trazado_959816" data-name="Trazado 959816" d="M104.506,399.292a9.992,9.992,0,0,0,3.318,2.487" transform="translate(-100.366 -392.617)" fill="none" stroke="#a9693c" stroke-miterlimit="10" stroke-width="0.15"/>
      </g>
      <g id="Grupo_1117522" data-name="Grupo 1117522" transform="translate(12.561 105.335)">
        <path id="Trazado_959817" data-name="Trazado 959817" d="M106.06,417.939a15.935,15.935,0,0,0-6.412.335s.66.551,3.206.551S106.06,417.939,106.06,417.939Z" transform="translate(-98.915 -410.777)" fill="#683b1c"/>
        <path id="Trazado_959818" data-name="Trazado 959818" d="M99.623,409.859l-.144-9.4h6.911l-.506,9.658Z" transform="translate(-98.814 -400.462)" fill="#fdd2d0"/>
        <path id="Trazado_959819" data-name="Trazado 959819" d="M115.214,425.523H103.908c-.707,0-1.22-.855-2.3-.855-.359,0-.525.855-.525.855H97.9c0-.234.017-.553.04-.918.148-2.144.667-6.055.667-6.055s.319.262,2.691.262a9.95,9.95,0,0,0,3.718-.6,5.338,5.338,0,0,0,1.186,1.271c1.665,1.517,4.322,1.927,6.529,2.258,1.471.222,2.081,1.813,2.321,2.862A6.115,6.115,0,0,1,115.214,425.523Z" transform="translate(-97.875 -411.051)" fill="#ffd800"/>
        <path id="Trazado_959820" data-name="Trazado 959820" d="M129.511,432.243h-4.982c-1.86,0-2.039.96-2.039.96" transform="translate(-112.541 -419.42)" fill="none" stroke="#a9693c" stroke-miterlimit="10" stroke-width="0.15"/>
        <path id="Trazado_959821" data-name="Trazado 959821" d="M98.914,425a3.837,3.837,0,0,1,1.944,3.883" transform="translate(-98.477 -415.099)" fill="none" stroke="#a9693c" stroke-miterlimit="10" stroke-width="0.15"/>
        <path id="Trazado_959822" data-name="Trazado 959822" d="M112.326,419.554a9.384,9.384,0,0,0,3.909,2.792,7.538,7.538,0,0,1,.073,1.851s-3.083-.094-4.651.058a1.948,1.948,0,0,0-1.5,1.379" transform="translate(-105.181 -411.851)" fill="none" stroke="#a9693c" stroke-miterlimit="10" stroke-width="0.15"/>
        <path id="Trazado_959823" data-name="Trazado 959823" d="M116.608,419.332a1.348,1.348,0,0,1,.411,1.288" transform="translate(-109.032 -411.718)" fill="none" stroke="#3f220e" stroke-linecap="round" stroke-miterlimit="10" stroke-width="0.45"/>
        <path id="Trazado_959824" data-name="Trazado 959824" d="M116.63,420.464a.8.8,0,0,0-1.09-.176" transform="translate(-108.395 -412.206)" fill="none" stroke="#3f220e" stroke-linecap="round" stroke-miterlimit="10" stroke-width="0.45"/>
        <path id="Trazado_959825" data-name="Trazado 959825" d="M119.309,421.807a1.349,1.349,0,0,1,.411,1.288" transform="translate(-110.643 -413.195)" fill="none" stroke="#3f220e" stroke-linecap="round" stroke-miterlimit="10" stroke-width="0.45"/>
        <path id="Trazado_959826" data-name="Trazado 959826" d="M119.045,422.56a1.359,1.359,0,0,0-1.419-.227" transform="translate(-109.64 -413.43)" fill="none" stroke="#3f220e" stroke-linecap="round" stroke-miterlimit="10" stroke-width="0.45"/>
        <path id="Trazado_959827" data-name="Trazado 959827" d="M122.1,423.559s.6.161.46,1.022" transform="translate(-112.31 -414.24)" fill="none" stroke="#3f220e" stroke-linecap="round" stroke-miterlimit="10" stroke-width="0.45"/>
        <path id="Trazado_959828" data-name="Trazado 959828" d="M121.766,424.356a2.285,2.285,0,0,0-1.438.242" transform="translate(-111.251 -414.699)" fill="none" stroke="#3f220e" stroke-linecap="round" stroke-miterlimit="10" stroke-width="0.45"/>
        <path id="Trazado_959829" data-name="Trazado 959829" d="M123.715,425.417a1.435,1.435,0,0,1,.392-.591" transform="translate(-113.272 -414.996)" fill="none" stroke="#3f220e" stroke-linecap="round" stroke-miterlimit="10" stroke-width="0.45"/>
        <path id="Trazado_959830" data-name="Trazado 959830" d="M115.2,434.054v.918H103.154a2.225,2.225,0,0,0-1.363-.685c-.545,0-.727.685-.727.685H97.832v-.918Z" transform="translate(-97.832 -420.5)" fill="#ffc42a"/>
        <path id="Trazado_959831" data-name="Trazado 959831" d="M99.479,420.408a9.995,9.995,0,0,0,4.141.21" transform="translate(-98.814 -412.36)" fill="none" stroke="#a9693c" stroke-miterlimit="10" stroke-width="0.15"/>
      </g>
      <path id="Trazado_959832" data-name="Trazado 959832" d="M92.961,211.872l21.3-.826-.551-27.26L94.073,184.8Z" transform="translate(-82.365 -165.876)" fill="#ff9e66"/>
      <g id="Grupo_1117523" data-name="Grupo 1117523" transform="translate(16.072 45.469)">
        <path id="Trazado_959833" data-name="Trazado 959833" d="M135.07,296.459l-10.489,4L113.9,275.036l13.492-4.617Z" transform="translate(-110.925 -263.023)" fill="#17268f"/>
        <circle id="Elipse_13633" data-name="Elipse 13633" cx="7.138" cy="7.138" r="7.138" transform="translate(0 12.483) rotate(-60.979)" fill="#17268f"/>
        <path id="Trazado_959834" data-name="Trazado 959834" d="M142.213,335.516a5.636,5.636,0,1,0-2.726-7.489A5.636,5.636,0,0,0,142.213,335.516Z" transform="translate(-125.875 -295.445)" fill="#17268f"/>
      </g>
      <g id="Grupo_1117524" data-name="Grupo 1117524" transform="translate(17.063 76.409)">
        <path id="Trazado_959835" data-name="Trazado 959835" d="M108.99,357.121l7.119,4.468,15.779-20.3-9.307-6.357Z" transform="translate(-108.99 -332.449)" fill="#17268f"/>
        <path id="Trazado_959836" data-name="Trazado 959836" d="M146.9,339.958a5.636,5.636,0,1,1,4.579-6.523A5.636,5.636,0,0,1,146.9,339.958Z" transform="translate(-127.661 -328.77)" fill="#17268f"/>
      </g>
      <path id="Trazado_959837" data-name="Trazado 959837" d="M114.522,260.144l-.882-8.8-21.3.826-.421,7.954a1.718,1.718,0,0,0,1.073,1.684l8.4,3.388a6.746,6.746,0,0,0,5.393-.151l6.764-3.179A1.718,1.718,0,0,0,114.522,260.144Z" transform="translate(-81.739 -206.178)" fill="#17268f"/>
      <g id="Grupo_1117525" data-name="Grupo 1117525" transform="translate(18.942 13.06)">
        <path id="Trazado_959838" data-name="Trazado 959838" d="M120.7,180.457a3.548,3.548,0,1,1-2.952-4.058A3.548,3.548,0,0,1,120.7,180.457Z" transform="translate(-113.646 -174.503)" fill="#f6caca"/>
        <path id="Trazado_959839" data-name="Trazado 959839" d="M113.756,176.613l.765-4.848,6.782,1.024-.538,4.93Z" transform="translate(-113.712 -171.765)" fill="#f6caca"/>
      </g>
      <g id="Grupo_1117527" data-name="Grupo 1117527" transform="translate(16.519 10.581)">
        <path id="Trazado_959840" data-name="Trazado 959840" d="M109.539,165.652s-2.111-.436-1.881,1.881,2.932,1.654,2.932,1.654Z" transform="translate(-107.64 -165.619)" fill="#fdd2d0"/>
        <g id="Grupo_1117526" data-name="Grupo 1117526" transform="translate(0.594 0.94)">
          <path id="Trazado_959841" data-name="Trazado 959841" d="M110.029,167.96a.755.755,0,0,0-.807.325,1.031,1.031,0,0,0-.083.232,1.116,1.116,0,0,0,.017.55.909.909,0,0,0,.3.468.7.7,0,0,0,.562.144" transform="translate(-109.113 -167.95)" fill="none" stroke="#fc9eaa" stroke-linecap="round" stroke-miterlimit="10" stroke-width="0.5"/>
          <path id="Trazado_959842" data-name="Trazado 959842" d="M110.132,169.722c.134-.27-.45-.724-.958-.255" transform="translate(-109.149 -168.733)" fill="none" stroke="#fc9eaa" stroke-linecap="round" stroke-miterlimit="10" stroke-width="0.5"/>
        </g>
      </g>
      <path id="Trazado_959843" data-name="Trazado 959843" d="M122.541,180.815l.075-.669a4.74,4.74,0,0,1-6.065-1.524C116.551,178.93,118.179,182.607,122.541,180.815Z" transform="translate(-96.437 -162.795)" fill="#dca7a7" opacity="0.4"/>
      <path id="Trazado_959844" data-name="Trazado 959844" d="M112.024,161.368s1.423,3.809,3.534,4.406,4.819-.138,4.819-2.708v-5.537a3.742,3.742,0,0,0-2.089-3.389,5.982,5.982,0,0,0-4.7-.068C108.857,155.723,112.024,161.368,112.024,161.368Z" transform="translate(-93.117 -147.888)" fill="#fdd2d0"/>
      <ellipse id="Elipse_13634" data-name="Elipse 13634" cx="0.265" cy="0.377" rx="0.265" ry="0.377" transform="translate(22.564 11.159)" fill="#2e1124"/>
      <ellipse id="Elipse_13635" data-name="Elipse 13635" cx="0.265" cy="0.377" rx="0.265" ry="0.377" transform="translate(25.377 11.159)" fill="#2e1124"/>
      <path id="Trazado_959845" data-name="Trazado 959845" d="M128.685,165.027a.945.945,0,0,1,1.216,0" transform="translate(-103.675 -154.553)" fill="none" stroke="#474dbd" stroke-linecap="round" stroke-miterlimit="10" stroke-width="0.5"/>
      <path id="Trazado_959846" data-name="Trazado 959846" d="M121.773,165.027a.945.945,0,0,1,1.216,0" transform="translate(-99.552 -154.553)" fill="none" stroke="#474dbd" stroke-linecap="round" stroke-miterlimit="10" stroke-width="0.5"/>
      <path id="Trazado_959847" data-name="Trazado 959847" d="M126.583,177.633a1.5,1.5,0,0,1-1.8-.14" transform="translate(-101.35 -162.122)" fill="none" stroke="#fc9eaa" stroke-linecap="round" stroke-miterlimit="10" stroke-width="0.5"/>
      <path id="Trazado_959848" data-name="Trazado 959848" d="M127.349,169.08s.952,1.767.826,2.008-.631.115-.631.115" transform="translate(-102.878 -157.103)" fill="none" stroke="#fc9eaa" stroke-linecap="round" stroke-miterlimit="10" stroke-width="0.5"/>
      <line id="Línea_27212" data-name="Línea 27212" x1="0.269" y2="18.724" transform="translate(22.491 25.092)" fill="none" stroke="#f9844f" stroke-linecap="round" stroke-miterlimit="10" stroke-width="1"/>
      <path id="Trazado_959849" data-name="Trazado 959849" d="M121.386,171.751a.808.808,0,1,1-.808-.808A.808.808,0,0,1,121.386,171.751Z" transform="translate(-98.357 -158.214)" fill="#ffc6c6"/>
      <path id="Trazado_959850" data-name="Trazado 959850" d="M131.654,171.751a.808.808,0,1,1-.808-.808A.808.808,0,0,1,131.654,171.751Z" transform="translate(-104.482 -158.214)" fill="#ffc6c6"/>
      <g id="Grupo_1117528" data-name="Grupo 1117528" transform="translate(15.235)">
        <path id="Trazado_959851" data-name="Trazado 959851" d="M105.759,151.62s-.111-.73.236-1.046c1.194-1.086,2.152-.057,2.295,1.982,0,0,.221.2.23-.123a14.171,14.171,0,0,1-.034-2.594,3.374,3.374,0,0,0-.2-1.626s5.142,1.143,7.611-.847c.869.657.5,3.155.588,4.039.648-1.133,2.268-2.985,1.094-4.091,1.17-.985,2.828-5.242.688-7.136-1.43-1.265-2.974-1.242-6.2,1.933-1.719,1.691-3.137-.9-4.484,2.234-1.217-1.141-3.3.552-3.109,2.921A8.377,8.377,0,0,0,105.759,151.62Z" transform="translate(-104.458 -139.396)" fill="#17268f"/>
        <path id="Trazado_959852" data-name="Trazado 959852" d="M114.3,148.274a1.051,1.051,0,0,1,.313-1.219,1.743,1.743,0,0,1,1.25-.237,4.588,4.588,0,0,0,1.3.062,2.533,2.533,0,0,0,1.39-.918c.37-.429.674-.913,1.074-1.315a3.848,3.848,0,0,1,2.519-1.117" transform="translate(-110.283 -141.863)" fill="none" stroke="#b2b2b2" stroke-linecap="round" stroke-linejoin="round" stroke-miterlimit="10" stroke-width="0.154"/>
        <path id="Trazado_959853" data-name="Trazado 959853" d="M115.786,153.544a.643.643,0,0,1,.291-.775,1.254,1.254,0,0,1,.88-.1c.3.056.582.165.879.222a3.222,3.222,0,0,0,2.022-.347,7.185,7.185,0,0,0,1.666-1.248,4.48,4.48,0,0,1,.931-.752,1.307,1.307,0,0,1,1.154-.091" transform="translate(-111.189 -145.93)" fill="none" stroke="#b2b2b2" stroke-linecap="round" stroke-linejoin="round" stroke-miterlimit="10" stroke-width="0.154"/>
        <path id="Trazado_959854" data-name="Trazado 959854" d="M110.771,157.9a1.086,1.086,0,0,0-1.9.876,2.185,2.185,0,0,0,.392.821l.562.846" transform="translate(-107.081 -150.205)" fill="none" stroke="#b2b2b2" stroke-linecap="round" stroke-linejoin="round" stroke-miterlimit="10" stroke-width="0.154"/>
        <path id="Trazado_959855" data-name="Trazado 959855" d="M109.516,155.2a1.794,1.794,0,0,0-1.239.039,1.074,1.074,0,0,0-.435.3.6.6,0,0,0-.136.5" transform="translate(-106.389 -148.769)" fill="none" stroke="#b2b2b2" stroke-linecap="round" stroke-linejoin="round" stroke-miterlimit="10" stroke-width="0.154"/>
        <path id="Trazado_959856" data-name="Trazado 959856" d="M111.084,148.657a5.992,5.992,0,0,1,.6-1.257,2.015,2.015,0,0,1,1.085-.834,4.377,4.377,0,0,1,1.283-.03,1.568,1.568,0,0,0,1.2-.36" transform="translate(-108.411 -143.44)" fill="none" stroke="#17268f" stroke-linecap="round" stroke-miterlimit="10" stroke-width="0.5"/>
        <path id="Trazado_959857" data-name="Trazado 959857" d="M109.533,150.752a1.391,1.391,0,0,0-1.718-1.15" transform="translate(-106.461 -145.459)" fill="none" stroke="#17268f" stroke-linecap="round" stroke-miterlimit="10" stroke-width="0.5"/>
        <path id="Trazado_959858" data-name="Trazado 959858" d="M134.372,152.9a3.864,3.864,0,0,0,2.981-3.535" transform="translate(-122.302 -145.342)" fill="none" stroke="#17268f" stroke-linecap="round" stroke-miterlimit="10" stroke-width="0.5"/>
      </g>
      <g id="Grupo_1117529" data-name="Grupo 1117529" transform="translate(20.907 9.939)">
        <path id="Trazado_959859" data-name="Trazado 959859" d="M128.549,165.9a1.547,1.547,0,1,0,1.186-1.839A1.547,1.547,0,0,0,128.549,165.9Z" transform="translate(-124.48 -164.029)" fill="none" stroke="#fff" stroke-linecap="round" stroke-miterlimit="10" stroke-width="0.5"/>
        <path id="Trazado_959860" data-name="Trazado 959860" d="M118.55,166.447a1.478,1.478,0,1,0,1.133-1.757A1.478,1.478,0,0,0,118.55,166.447Z" transform="translate(-118.517 -164.403)" fill="none" stroke="#fff" stroke-linecap="round" stroke-miterlimit="10" stroke-width="0.5"/>
        <path id="Trazado_959861" data-name="Trazado 959861" d="M126.919,167.989s-.382-.393-1.072.073" transform="translate(-122.889 -166.299)" fill="none" stroke="#fff" stroke-linecap="round" stroke-miterlimit="10" stroke-width="0.5"/>
      </g>
      <g id="Grupo_1117530" data-name="Grupo 1117530" transform="translate(8.299 46.237)">
        <path id="Trazado_959862" data-name="Trazado 959862" d="M104.117,303.137l-11.226.083-1.13-27.554,14.255.388Z" transform="translate(-89.949 -266.921)" fill="#17268f"/>
        <circle id="Elipse_13636" data-name="Elipse 13636" cx="7.138" cy="7.138" r="7.138" transform="matrix(0.297, -0.955, 0.955, 0.297, 0, 13.632)" fill="#17268f"/>
        <path id="Trazado_959863" data-name="Trazado 959863" d="M96.115,338.221a5.636,5.636,0,1,0,.063-7.97A5.636,5.636,0,0,0,96.115,338.221Z" transform="translate(-91.579 -298.516)" fill="#17268f"/>
      </g>
      <g id="Grupo_1117531" data-name="Grupo 1117531" transform="translate(11.215 76.353)">
        <path id="Trazado_959864" data-name="Trazado 959864" d="M103.941,368.586l-8.39-.5L94.5,342.4l11.268.233Z" transform="translate(-94.497 -336.845)" fill="#17268f"/>
        <path id="Trazado_959865" data-name="Trazado 959865" d="M96.115,338.221a5.636,5.636,0,1,0,.063-7.97A5.636,5.636,0,0,0,96.115,338.221Z" transform="translate(-94.495 -328.631)" fill="#17268f"/>
      </g>
      <line id="Línea_27213" data-name="Línea 27213" x1="0.488" y2="18.485" transform="translate(21.996 65.412)" fill="none" stroke="#030b48" stroke-linecap="round" stroke-miterlimit="10" stroke-width="1"/>
      <path id="Trazado_959866" data-name="Trazado 959866" d="M109.133,386.294l7.846,4.824-.97,1.3-7.7-4.712Z" transform="translate(-91.518 -286.676)" fill="#030b48"/>
      <path id="Trazado_959867" data-name="Trazado 959867" d="M96.158,402.677l9.2.335-.2,1.609-9.025-.308Z" transform="translate(-84.257 -296.448)" fill="#030b48"/>
      <path id="Trazado_959868" data-name="Trazado 959868" d="M92.482,252.151l21.577-.852.269,1.994-21.926.6Z" transform="translate(-82.031 -206.148)" fill="#030b48"/>
      <path id="Trazado_959869" data-name="Trazado 959869" d="M95.484,261.03s.5,5.553-2.111,7.113" transform="translate(-82.611 -211.953)" fill="none" stroke="#030b48" stroke-linecap="round" stroke-miterlimit="10" stroke-width="1"/>
      <path id="Trazado_959870" data-name="Trazado 959870" d="M142.164,259.767s-.044,4.974,1.1,6.944" transform="translate(-111.715 -211.2)" fill="none" stroke="#030b48" stroke-linecap="round" stroke-miterlimit="10" stroke-width="1"/>
      <path id="Trazado_959871" data-name="Trazado 959871" d="M130.273,203.589a9.027,9.027,0,0,0,4.47-.161" transform="translate(-104.622 -177.592)" fill="none" stroke="#f9844f" stroke-linecap="round" stroke-miterlimit="10" stroke-width="1"/>
      <g id="Grupo_1117532" data-name="Grupo 1117532" transform="translate(23.443 27.723)">
        <path id="Trazado_959872" data-name="Trazado 959872" d="M125.6,208.5a.4.4,0,1,1-.4-.4A.4.4,0,0,1,125.6,208.5Z" transform="translate(-124.802 -208.106)" fill="#f9844f"/>
        <path id="Trazado_959873" data-name="Trazado 959873" d="M125.6,214.013a.4.4,0,1,1-.4-.4A.4.4,0,0,1,125.6,214.013Z" transform="translate(-124.802 -211.392)" fill="#f9844f"/>
        <path id="Trazado_959874" data-name="Trazado 959874" d="M125.6,219.523a.4.4,0,1,1-.4-.4A.4.4,0,0,1,125.6,219.523Z" transform="translate(-124.802 -214.679)" fill="#f9844f"/>
      </g>
      <path id="Trazado_959875" data-name="Trazado 959875" d="M123.385,268.373s.644,7.71,0,8.505a10.079,10.079,0,0,1-.959,1.074" transform="translate(-99.941 -216.333)" fill="none" stroke="#030b48" stroke-linecap="round" stroke-miterlimit="10" stroke-width="1"/>
      <line id="Línea_27214" data-name="Línea 27214" y1="2.732" x2="0.562" transform="translate(13.94 26.204)" fill="none" stroke="#f9844f" stroke-linecap="round" stroke-miterlimit="10" stroke-width="1"/>
      <line id="Línea_27215" data-name="Línea 27215" x1="0.084" y1="2.788" transform="translate(31.536 25.488)" fill="none" stroke="#f9844f" stroke-linecap="round" stroke-miterlimit="10" stroke-width="1"/>
      <g id="Grupo_1117533" data-name="Grupo 1117533" transform="translate(1.041 34.401)">
        <path id="Trazado_959876" data-name="Trazado 959876" d="M76.153,228.111A3.437,3.437,0,1,0,72.7,231.53,3.437,3.437,0,0,0,76.153,228.111Z" transform="translate(-69.28 -224.657)" fill="#fdd2d0"/>
        <circle id="Elipse_13637" data-name="Elipse 13637" cx="2.004" cy="2.004" r="2.004" transform="translate(17.977 7.663) rotate(-73.477)" fill="#fdd2d0"/>
        <path id="Trazado_959877" data-name="Trazado 959877" d="M77.754,231.531l17.04,1.444.021-4.009-17.026-4.308Z" transform="translate(-74.335 -224.658)" fill="#fdd2d0"/>
      </g>
      <g id="Grupo_1117534" data-name="Grupo 1117534" transform="translate(3.151 18.929)">
        <path id="Trazado_959878" data-name="Trazado 959878" d="M87.662,191.443a3.943,3.943,0,0,1-.764,1.412l-3.284,6.06-7.259-1.757,3.685-8.018a3.981,3.981,0,0,1,7.623,2.3Z" transform="translate(-75.61 -186.309)" fill="#ff9e66"/>
        <path id="Trazado_959879" data-name="Trazado 959879" d="M75.264,210.559l-.755,1.546,8.257,1.789.755-1.546Z" transform="translate(-74.509 -200.775)" fill="#f9844f"/>
      </g>
      <g id="Grupo_1117540" data-name="Grupo 1117540" transform="translate(21.62 37.633)">
        <path id="Trazado_959880" data-name="Trazado 959880" d="M124.118,236.65c-.294.077-2.362-1.011-2.451-1.495,0,0,1.024-1.162,1.493-1.86s2.78-.621,3.484-.628c.524,0,.425.961-.05,1.234a4.934,4.934,0,0,1-1.629.316S124.67,236.505,124.118,236.65Z" transform="translate(-121.109 -232.667)" fill="#fdd2d0"/>
        <g id="Grupo_1117539" data-name="Grupo 1117539" transform="translate(0 1.935)">
          <g id="Grupo_1117538" data-name="Grupo 1117538">
            <g id="Grupo_1117535" data-name="Grupo 1117535" transform="translate(3.492 0.713)">
              <path id="Trazado_959881" data-name="Trazado 959881" d="M129.495,239.23s5.883.94,7.147.945c1.43.006,1.8,1.36.673,1.226s-7.639-.659-7.932-.706S128.493,239.42,129.495,239.23Z" transform="translate(-128.938 -239.23)" fill="#fdd2d0"/>
            </g>
            <g id="Grupo_1117536" data-name="Grupo 1117536" transform="translate(0.735 1.052)">
              <path id="Trazado_959882" data-name="Trazado 959882" d="M124.936,240.071s6.224,1.337,7.535,1.2c.835-.085,1.716.784.5.924-.646.075-4.876.045-7.152.079a9.714,9.714,0,0,1-3.715-1.006A10.452,10.452,0,0,1,124.936,240.071Z" transform="translate(-122.106 -240.071)" fill="#fdd2d0"/>
            </g>
            <g id="Grupo_1117537" data-name="Grupo 1117537">
              <path id="Trazado_959883" data-name="Trazado 959883" d="M120.468,238.13c-.591,1.144.319,1.635,1.644,1.946s7.584.215,8.461.4.26-1.244-.514-1.372a28.2,28.2,0,0,1-4.829-.95C124.245,237.693,121.117,236.875,120.468,238.13Z" transform="translate(-120.284 -237.463)" fill="#fdd2d0"/>
            </g>
          </g>
          <path id="Trazado_959884" data-name="Trazado 959884" d="M133.373,241.424h.009c.029,0,2.933.131,4.1.083a1.161,1.161,0,0,1,.9.235.419.419,0,0,1,.115.3.075.075,0,0,0,.149.018.564.564,0,0,0-.154-.422,1.277,1.277,0,0,0-1.018-.283c-1.126.047-3.9-.074-4.076-.082l-2.7-.789a.075.075,0,1,0-.042.144Z" transform="translate(-126.438 -239.264)" fill="none" stroke="#f9844f" stroke-linecap="round" stroke-miterlimit="10" stroke-width="0.5"/>
        </g>
      </g>
      <g id="Grupo_1117545" data-name="Grupo 1117545" transform="translate(52.293 18.644)">
        <path id="Trazado_959885" data-name="Trazado 959885" d="M205.422,189.429a38.585,38.585,0,0,0,5.842-2.949c.672-.587.027-1.029-.643-.824s-5.3,2.266-5.729,2.479S204.782,189.59,205.422,189.429Z" transform="translate(-201.311 -185.604)" fill="#ffd5ce"/>
        <g id="Grupo_1117544" data-name="Grupo 1117544" transform="translate(0 2.328)">
          <path id="Trazado_959886" data-name="Trazado 959886" d="M201.87,196.191c-1.916,1.089-4.09,1.164-5.207-.109s.619-2.454,1.981-3.66,2.562-1.489,3.68-.216S203.453,195.291,201.87,196.191Z" transform="translate(-196.305 -191.374)" fill="#ffd5ce"/>
          <g id="Grupo_1117543" data-name="Grupo 1117543" transform="translate(3.118 0.424)">
            <g id="Grupo_1117542" data-name="Grupo 1117542">
              <g id="Grupo_1117541" data-name="Grupo 1117541">
                <path id="Trazado_959887" data-name="Trazado 959887" d="M207.384,193.838l.193-.061a1.83,1.83,0,0,0,.677-.321.6.6,0,0,0,.19-.669.7.7,0,0,0-.606-.362,1.924,1.924,0,0,0-.709.141l-1.07.36c-1.028.28-1.691.487-1.99,1.251a.308.308,0,0,0-.02.234.35.35,0,0,0,.28.161,3.059,3.059,0,0,0,1.39-.208Z" transform="translate(-204.033 -192.424)" fill="#ffd5ce"/>
                <path id="Trazado_959888" data-name="Trazado 959888" d="M208.093,196.791l.193-.061a1.83,1.83,0,0,0,.677-.321.6.6,0,0,0,.19-.669.7.7,0,0,0-.606-.362,1.924,1.924,0,0,0-.709.141l-1.07.36c-1.028.28-1.691.487-1.99,1.251a.308.308,0,0,0-.02.234.35.35,0,0,0,.281.161,3.059,3.059,0,0,0,1.39-.208Z" transform="translate(-204.456 -194.186)" fill="#ffd5ce"/>
                <path id="Trazado_959889" data-name="Trazado 959889" d="M209.188,199.819l.163-.052a1.553,1.553,0,0,0,.573-.272.506.506,0,0,0,.161-.566.593.593,0,0,0-.513-.306,1.622,1.622,0,0,0-.6.119l-.906.3c-.871.237-1.432.412-1.685,1.059a.26.26,0,0,0-.017.2.3.3,0,0,0,.238.136,2.585,2.585,0,0,0,1.177-.176Z" transform="translate(-205.416 -196.121)" fill="#ffd5ce"/>
              </g>
            </g>
          </g>
          <path id="Trazado_959890" data-name="Trazado 959890" d="M210.883,201.633l1.145-.362-1.574.736Z" transform="translate(-204.745 -197.278)" fill="#ffd5ce"/>
        </g>
        <path id="Trazado_959891" data-name="Trazado 959891" d="M205.993,192.477s.368.2.292.337" transform="translate(-202.084 -189.704)" fill="none" stroke="#e38c72" stroke-linecap="round" stroke-miterlimit="10" stroke-width="0.75"/>
        <path id="Trazado_959892" data-name="Trazado 959892" d="M209.726,197.545s.27.32.149.42" transform="translate(-204.311 -192.727)" fill="none" stroke="#e38c72" stroke-linecap="round" stroke-miterlimit="10" stroke-width="0.75"/>
        <path id="Trazado_959893" data-name="Trazado 959893" d="M210.618,199.963s.243.341.115.431" transform="translate(-204.843 -194.17)" fill="none" stroke="#e38c72" stroke-linecap="round" stroke-miterlimit="10" stroke-width="0.75"/>
        <path id="Trazado_959894" data-name="Trazado 959894" d="M208.014,195.175s.275.316.156.418" transform="translate(-203.29 -191.313)" fill="none" stroke="#e38c72" stroke-linecap="round" stroke-miterlimit="10" stroke-width="0.75"/>
        <path id="Trazado_959895" data-name="Trazado 959895" d="M219.609,186.236a.556.556,0,0,0-.475-.094c-.125.062-.366.218-.366.218l.265.428a1.326,1.326,0,0,0,.288-.125" transform="translate(-209.704 -185.912)" fill="none" stroke="#e38c72" stroke-linecap="round" stroke-miterlimit="10" stroke-width="0.75"/>
      </g>
      <g id="Grupo_1117546" data-name="Grupo 1117546" transform="translate(20.813 25.141)">
        <path id="Trazado_959896" data-name="Trazado 959896" d="M144.511,237.869H118.994a.712.712,0,0,1-.712-.711v-.347a.712.712,0,0,1,.712-.711h25.517a.712.712,0,0,1,.712.711v.347A.712.712,0,0,1,144.511,237.869Z" transform="translate(-118.282 -222.223)" fill="#8198ff"/>
        <path id="Trazado_959897" data-name="Trazado 959897" d="M161.656,217.353H142.065a.873.873,0,0,1-.843-1.1l3.727-13.9a.873.873,0,0,1,.843-.647h19.591a.873.873,0,0,1,.843,1.1l-3.727,13.9A.873.873,0,0,1,161.656,217.353Z" transform="translate(-131.948 -201.707)" fill="#8198ff"/>
        <path id="Trazado_959898" data-name="Trazado 959898" d="M173.512,218.179a1.448,1.448,0,1,1-1.448-1.448A1.448,1.448,0,0,1,173.512,218.179Z" transform="translate(-149.5 -210.669)" fill="#fff"/>
      </g>
    </g>
    <g id="Grupo_1117548" data-name="Grupo 1117548" transform="translate(77.049 43.959)">
      <path id="Trazado_959899" data-name="Trazado 959899" d="M156.732,110.222l-2.784,5.112,5.326-4.027a35.463,35.463,0,0,0,11.911,1.937c11.531,0,20.876-4.862,20.876-10.862s-9.345-10.858-20.876-10.858-20.876,4.862-20.876,10.858C150.309,105.465,152.774,108.245,156.732,110.222Z" transform="translate(-150.309 -91.525)" fill="#95b3f9"/>
      <path id="Trazado_959900" data-name="Trazado 959900" d="M227.967,115.664a2.218,2.218,0,1,0,2.218-2.218A2.218,2.218,0,0,0,227.967,115.664Z" transform="translate(-196.634 -104.601)" fill="#fff"/>
      <path id="Trazado_959901" data-name="Trazado 959901" d="M194.73,115.664a2.218,2.218,0,1,0,2.218-2.218A2.218,2.218,0,0,0,194.73,115.664Z" transform="translate(-176.807 -104.601)" fill="#fff"/>
      <path id="Trazado_959902" data-name="Trazado 959902" d="M161.492,115.664a2.218,2.218,0,1,0,2.218-2.218A2.218,2.218,0,0,0,161.492,115.664Z" transform="translate(-156.98 -104.601)" fill="#fff"/>
    </g>
  </g>
</svg>
