<svg xmlns="http://www.w3.org/2000/svg" width="80" height="80" viewBox="0 0 80 80">
  <g id="Grupo_1117856" data-name="Grupo 1117856" transform="translate(-340.062 -7994)">
    <rect id="Rectángulo_402033" data-name="Rectángulo 402033" width="80" height="80" rx="8" transform="translate(340.062 7994)" fill="#0042db"/>
    <g id="Grupo_1117855" data-name="Grupo 1117855" transform="translate(355.063 8009.005)">
      <path id="Trazado_960496" data-name="Trazado 960496" d="M27.4,24.881h.01a5.146,5.146,0,1,0-6.168,0,8.072,8.072,0,0,0-4.937,7.4v.008a.819.819,0,0,0,.833.8h.025a.8.8,0,0,0,.787-.812,6.375,6.375,0,0,1,12.749,0,.814.814,0,0,0,1.627,0A8.019,8.019,0,0,0,27.4,24.881Zm-3.083-.625H24.3a3.51,3.51,0,1,1,.021,0Z" transform="translate(17.668 16.921)" fill="#fff"/>
      <path id="Trazado_960497" data-name="Trazado 960497" d="M17.144,17.469h.025a.8.8,0,0,0,.787-.812,6.375,6.375,0,0,1,12.749,0,.812.812,0,1,0,1.625,0,8.021,8.021,0,0,0-4.927-7.4h.01a5.146,5.146,0,1,0-6.168,0,8.072,8.072,0,0,0-4.937,7.4v.008A.822.822,0,0,0,17.144,17.469ZM20.821,5.116a3.5,3.5,0,1,1,3.5,3.521H24.3A3.5,3.5,0,0,1,20.821,5.116Z" transform="translate(17.668 0)" fill="#fff"/>
      <path id="Trazado_960498" data-name="Trazado 960498" d="M20.993,12.618A11.393,11.393,0,0,0,14.931,9.2l.146-.062a.794.794,0,0,0,.312-1.062l-.008-.015a.775.775,0,0,0-1.054-.3L12.119,8.972l-.062.083a.741.741,0,0,0-.25.9.527.527,0,0,0,.167.25l1.9,1.729a.7.7,0,0,0,.117.1.679.679,0,0,0,.946-.167.6.6,0,0,0,.081-.1.694.694,0,0,0-.165-.967l-.146-.167A10.847,10.847,0,0,1,19.764,13.6a10.624,10.624,0,0,1,2.9,7.437A10.24,10.24,0,0,1,19.389,28.3a10.363,10.363,0,0,1-4.541,2.5.692.692,0,0,0-.562.667.414.414,0,0,0,.042.229l.012.05a.715.715,0,0,0,.883.492,12.807,12.807,0,0,0,5.166-2.875A11.794,11.794,0,0,0,24.1,21.034,11.176,11.176,0,0,0,20.993,12.618Z" transform="translate(12.725 8.309)" fill="#fff"/>
      <path id="Trazado_960499" data-name="Trazado 960499" d="M18.16,11.441a4.219,4.219,0,0,0-5.6,6.308A6.518,6.518,0,0,0,8.91,23.561a.888.888,0,0,0,.25.6.77.77,0,0,0,.6.25h.017a.846.846,0,0,0,.837-.854,4.739,4.739,0,0,1,9.479,0,.854.854,0,0,0,1.708,0,6.518,6.518,0,0,0-3.646-5.812,4.011,4.011,0,0,0,.352-.352A4.219,4.219,0,0,0,18.16,11.441Zm-.292,3.164a2.5,2.5,0,1,1-2.5-2.5,2.5,2.5,0,0,1,2.5,2.5Z" transform="translate(9.653 11.245)" fill="#fff"/>
      <path id="Trazado_960500" data-name="Trazado 960500" d="M18.444,30.6l-1.667-1.667A.752.752,0,0,0,15.715,30l.083.083a10.791,10.791,0,0,1-5.146-2.958c-.229-.25-.437-.5-.646-.771a10.323,10.323,0,0,1-2.229-6.646,10.062,10.062,0,0,1,3.25-7.271,10.428,10.428,0,0,1,4.541-2.5.777.777,0,0,0,.583-.708.65.65,0,0,0-.042-.208.575.575,0,0,0-.017-.056.716.716,0,0,0-.9-.465,12.422,12.422,0,0,0-5.229,2.875,11.643,11.643,0,0,0-3.708,8.333,12.047,12.047,0,0,0,3.25,8.562,12.371,12.371,0,0,0,6.146,3.479l-.083.083c-.019.01-.035.023-.054.035a.722.722,0,0,0-.175,1.006.6.6,0,0,0,.04.06A.733.733,0,0,0,16.4,33.1l1.979-1.125.062-.083a1.132,1.132,0,0,0,.167-1.021A1.2,1.2,0,0,0,18.444,30.6Z" transform="translate(6.775 9.177)" fill="#fff"/>
      <path id="Trazado_960501" data-name="Trazado 960501" d="M.833,17.469H.858a.8.8,0,0,0,.787-.812v0a6.375,6.375,0,1,1,12.749,0v.025a.8.8,0,0,0,.812.79h.008a.82.82,0,0,0,.825-.812,8.072,8.072,0,0,0-4.937-7.4,5.146,5.146,0,1,0-6.166,0A8.072,8.072,0,0,0,0,16.657v.008A.819.819,0,0,0,.833,17.469ZM4.521,5.116a3.5,3.5,0,0,1,7,.042h-.01A3.509,3.509,0,0,1,8.021,8.636H8A3.5,3.5,0,0,1,4.521,5.116Z" transform="translate(0.001 0)" fill="#fff"/>
      <path id="Trazado_960502" data-name="Trazado 960502" d="M11.1,24.883a5.146,5.146,0,1,0-6.168,0A8.072,8.072,0,0,0,0,32.278v.008a.819.819,0,0,0,.833.8H.861a.8.8,0,0,0,.783-.817v0a6.375,6.375,0,0,1,12.749,0V32.3a.8.8,0,0,0,.812.787h.008a.819.819,0,0,0,.825-.812A8.065,8.065,0,0,0,11.1,24.883Zm-3.083-.629H8a3.5,3.5,0,1,1,3.521-3.479h-.01A3.509,3.509,0,0,1,8.022,24.254Z" transform="translate(0 16.923)" fill="#fff"/>
    </g>
  </g>
</svg>
