<svg xmlns="http://www.w3.org/2000/svg" width="120" height="120" viewBox="0 0 120 120">
  <g id="Grupo_1116047" data-name="Grupo 1116047" transform="translate(-64 -6445)">
    <rect id="Rect치ngulo_402033" data-name="Rect치ngulo 402033" width="120" height="120" rx="8" transform="translate(64 6445)" fill="#0042db"/>
    <g id="Rect치ngulo_412110" data-name="Rect치ngulo 412110" transform="translate(69 6450)" fill="none" stroke="#fff" stroke-width="1">
      <rect width="110" height="110" rx="6" stroke="none"/>
      <rect x="0.5" y="0.5" width="109" height="109" rx="5.5" fill="none"/>
    </g>
    <g id="Layer_68" transform="translate(84.226 6464.893)">
      <g id="Grupo_1117778" data-name="Grupo 1117778" transform="translate(0 0)">
        <g id="Grupo_1117718" data-name="Grupo 1117718" transform="translate(0.781 42.319)">
          <path id="Trazado_960244" data-name="Trazado 960244" d="M50.153,148.9a4.57,4.57,0,0,0-3.447-4.178l-6.648-1.673a22.668,22.668,0,0,1-2.205-.68L32.884,148.1a1.27,1.27,0,0,1-1.791.128l-2.215-1.92a1.27,1.27,0,0,1-.128-1.791l4.274-4.932A3.988,3.988,0,0,1,32.3,137.3V135.42a11.487,11.487,0,0,1-10.67,0V137.3a3.99,3.99,0,0,1-.744,2.318l4.244,4.9a1.27,1.27,0,0,1-.128,1.791l-2.215,1.92A1.27,1.27,0,0,1,21,148.1l-4.955-5.718c-.708.256-1.428.479-2.159.663L7.23,144.724A4.57,4.57,0,0,0,3.783,148.9L2.5,170.979a1.27,1.27,0,0,0,1.268,1.341H50.165a1.27,1.27,0,0,0,1.268-1.341Z" transform="translate(-2.501 -135.42)" fill="#3caadc"/>
        </g>
        <g id="Grupo_1117719" data-name="Grupo 1117719" transform="translate(0.781 67.687)">
          <path id="Trazado_960245" data-name="Trazado 960245" d="M11.013,216.6H3.094L2.5,226.79a1.27,1.27,0,0,0,1.268,1.341h7.242Z" transform="translate(-2.501 -216.6)" fill="#f9d0b4"/>
        </g>
        <g id="Grupo_1117720" data-name="Grupo 1117720" transform="translate(41.372 67.687)">
          <path id="Trazado_960246" data-name="Trazado 960246" d="M140.142,216.6H132.39v11.531h7.074a1.27,1.27,0,0,0,1.268-1.341Z" transform="translate(-132.39 -216.6)" fill="#f9d0b4"/>
        </g>
        <g id="Grupo_1117721" data-name="Grupo 1117721" transform="translate(26.721 46.488)">
          <path id="Trazado_960247" data-name="Trazado 960247" d="M88.16,157.4a1.27,1.27,0,0,0,1.791-.128l4.969-5.733a22.85,22.85,0,0,1-2.4-1.029c-.647-.323-1.208-.608-1.312-.675a4,4,0,0,1-1.113-1.077l-4.274,4.932a1.27,1.27,0,0,0,.128,1.791Z" transform="translate(-85.507 -148.761)" fill="#70d6f9"/>
        </g>
        <g id="Grupo_1117722" data-name="Grupo 1117722" transform="translate(14.325 46.522)">
          <path id="Trazado_960248" data-name="Trazado 960248" d="M49.345,150.06c-.054.03-.551.276-1.145.57a22.7,22.7,0,0,1-2.361,1l4.956,5.718a1.27,1.27,0,0,0,1.791.128l2.215-1.92a1.27,1.27,0,0,0,.128-1.791l-4.244-4.9A4,4,0,0,1,49.345,150.06Z" transform="translate(-45.839 -148.87)" fill="#70d6f9"/>
        </g>
        <g id="Grupo_1117723" data-name="Grupo 1117723" transform="translate(13.669 17.766)">
          <path id="Trazado_960249" data-name="Trazado 960249" d="M57.055,57.089c-4.23,5.319-10.469,4.568-12.567,4.129a.618.618,0,0,0-.747.6v9.323a11.58,11.58,0,1,0,23.16,0V60.823c0-.061,0-.121,0-.181a.621.621,0,0,0-.6-.609c-4.811-.141-7.345-2.048-8.319-3a.623.623,0,0,0-.927.058Z" transform="translate(-43.741 -56.852)" fill="#f9d0b4"/>
        </g>
        <g id="Grupo_1117725" data-name="Grupo 1117725" transform="translate(9.909 6.979)">
          <g id="Grupo_1117724" data-name="Grupo 1117724">
            <path id="Trazado_960250" data-name="Trazado 960250" d="M34.726,38.582a4.856,4.856,0,0,1,.743.059v-.556a.618.618,0,0,1,.747-.6c2.1.439,8.337,1.19,12.567-4.129a.623.623,0,0,1,.927-.058c.974.955,3.509,2.861,8.319,3a.621.621,0,0,1,.6.609c0,.06,0,.121,0,.181v1.549a4.808,4.808,0,0,1,4.1,1.3v-8.7a6.634,6.634,0,0,0-6.615-6.615,6.551,6.551,0,0,0-3.379.943,6.621,6.621,0,0,0-5.673-3.237h-3.4A11.988,11.988,0,0,0,31.709,34.286v5.356A4.81,4.81,0,0,1,34.726,38.582Z" transform="translate(-31.709 -22.333)" fill="#754e34"/>
          </g>
        </g>
        <g id="Grupo_1117726" data-name="Grupo 1117726" transform="translate(36.8 23.228)">
          <path id="Trazado_960251" data-name="Trazado 960251" d="M118.531,74.329a4.814,4.814,0,0,0-.743.059v8.767c0,.261-.012.52-.029.777a4.832,4.832,0,1,0,.772-9.6Z" transform="translate(-117.759 -74.329)" fill="#f9d0b4"/>
        </g>
        <g id="Grupo_1117727" data-name="Grupo 1117727" transform="translate(8.091 23.227)">
          <path id="Trazado_960252" data-name="Trazado 960252" d="M31.469,83.154V74.387A4.837,4.837,0,1,0,31.5,83.93h0c-.017-.257-.029-.515-.029-.776Z" transform="translate(-25.891 -74.328)" fill="#f9d0b4"/>
        </g>
        <g id="Grupo_1117728" data-name="Grupo 1117728" transform="translate(19.17 42.319)">
          <path id="Trazado_960253" data-name="Trazado 960253" d="M65.588,144.522a1.258,1.258,0,0,1,.3.728H68.9a1.259,1.259,0,0,1,.3-.728l4.274-4.932a3.988,3.988,0,0,1-.722-2.283v-1.885a11.487,11.487,0,0,1-10.67,0v1.885a3.99,3.99,0,0,1-.744,2.318Z" transform="translate(-61.343 -135.422)" fill="#f9d0b4"/>
        </g>
        <g id="Grupo_1117729" data-name="Grupo 1117729" transform="translate(50.381 40.786)">
          <path id="Trazado_960254" data-name="Trazado 960254" d="M168.986,130.514h-6.458a1.309,1.309,0,0,0-1.309,1.309v6.458a1.309,1.309,0,0,0,1.309,1.309h6.458a1.309,1.309,0,0,0,1.309-1.309v-6.458A1.309,1.309,0,0,0,168.986,130.514Z" transform="translate(-161.218 -130.514)" fill="#87d147"/>
        </g>
        <g id="Grupo_1117730" data-name="Grupo 1117730" transform="translate(50.381 28.013)">
          <path id="Trazado_960255" data-name="Trazado 960255" d="M168.986,89.641h-6.458a1.309,1.309,0,0,0-1.309,1.309v6.458a1.309,1.309,0,0,0,1.309,1.309h6.458a1.309,1.309,0,0,0,1.309-1.309V90.95A1.309,1.309,0,0,0,168.986,89.641Z" transform="translate(-161.218 -89.641)" fill="#87d147"/>
        </g>
        <g id="Grupo_1117731" data-name="Grupo 1117731" transform="translate(50.381 15.24)">
          <path id="Trazado_960256" data-name="Trazado 960256" d="M168.986,48.769h-6.458a1.309,1.309,0,0,0-1.309,1.309v6.458a1.309,1.309,0,0,0,1.309,1.309h6.458a1.309,1.309,0,0,0,1.309-1.309V50.078A1.309,1.309,0,0,0,168.986,48.769Z" transform="translate(-161.218 -48.769)" fill="#87d147"/>
        </g>
        <g id="Grupo_1117734" data-name="Grupo 1117734" transform="translate(4.203 4.062)">
          <g id="Grupo_1117733" data-name="Grupo 1117733">
            <g id="Grupo_1117732" data-name="Grupo 1117732">
              <path id="Trazado_960257" data-name="Trazado 960257" d="M19.184,15.766A3.468,3.468,0,0,1,16.4,13.047c0-.062-.125-.062-.125,0A3.468,3.468,0,0,1,13.5,15.766c-.062,0-.062.094,0,.125a3.468,3.468,0,0,1,2.781,2.719c0,.063.125.063.125,0a3.468,3.468,0,0,1,2.781-2.719C19.247,15.859,19.247,15.766,19.184,15.766Z" transform="translate(-13.45 -13)" fill="#f5c84c"/>
            </g>
          </g>
        </g>
        <g id="Grupo_1117737" data-name="Grupo 1117737" transform="translate(40.14 38.701)">
          <g id="Grupo_1117736" data-name="Grupo 1117736">
            <g id="Grupo_1117735" data-name="Grupo 1117735">
              <path id="Trazado_960258" data-name="Trazado 960258" d="M132.65,125.869a2.54,2.54,0,0,1-2.037-1.991c0-.046-.092-.046-.092,0a2.54,2.54,0,0,1-2.037,1.991c-.046,0-.046.069,0,.092a2.54,2.54,0,0,1,2.037,1.991c0,.046.092.046.092,0a2.54,2.54,0,0,1,2.037-1.991C132.7,125.938,132.7,125.869,132.65,125.869Z" transform="translate(-128.45 -123.843)" fill="#fc657e"/>
            </g>
          </g>
        </g>
        <g id="Grupo_1117740" data-name="Grupo 1117740" transform="translate(56.719 56.25)">
          <g id="Grupo_1117739" data-name="Grupo 1117739">
            <g id="Grupo_1117738" data-name="Grupo 1117738">
              <path id="Trazado_960259" data-name="Trazado 960259" d="M185.938,181.719h-.719V181a1.007,1.007,0,0,0-1-1,.987.987,0,0,0-1,1v.719H182.5a1.007,1.007,0,0,0-1,1,.987.987,0,0,0,1,1h.719v.719a1.007,1.007,0,0,0,1,1,.987.987,0,0,0,1-1v-.719h.719a1.007,1.007,0,0,0,1-1A.987.987,0,0,0,185.938,181.719Z" transform="translate(-181.5 -180)" fill="#70d6f9"/>
            </g>
          </g>
        </g>
        <g id="Grupo_1117743" data-name="Grupo 1117743" transform="translate(14.188)">
          <g id="Grupo_1117742" data-name="Grupo 1117742">
            <g id="Grupo_1117741" data-name="Grupo 1117741">
              <circle id="Elipse_13638" data-name="Elipse 13638" cx="1.062" cy="1.062" r="1.062" fill="#87d147"/>
            </g>
          </g>
        </g>
        <g id="Grupo_1117746" data-name="Grupo 1117746" transform="translate(54.5 66.625)">
          <g id="Grupo_1117745" data-name="Grupo 1117745">
            <g id="Grupo_1117744" data-name="Grupo 1117744">
              <circle id="Elipse_13639" data-name="Elipse 13639" cx="1.062" cy="1.062" r="1.062" fill="#f5c84c"/>
            </g>
          </g>
        </g>
        <g id="Grupo_1117747" data-name="Grupo 1117747" transform="translate(21.656 34.019)">
          <path id="Trazado_960260" data-name="Trazado 960260" d="M73.217,111.769a4.884,4.884,0,0,1-3.736-1.624.781.781,0,1,1,1.2-1,3.558,3.558,0,0,0,5.077,0,.781.781,0,1,1,1.2,1A4.884,4.884,0,0,1,73.217,111.769Z" transform="translate(-69.298 -108.862)"/>
        </g>
        <g id="Grupo_1117748" data-name="Grupo 1117748" transform="translate(28.719 27.352)">
          <circle id="Elipse_13640" data-name="Elipse 13640" cx="1.4" cy="1.4" r="1.4"/>
        </g>
        <g id="Grupo_1117749" data-name="Grupo 1117749" transform="translate(19.315 27.352)">
          <circle id="Elipse_13641" data-name="Elipse 13641" cx="1.4" cy="1.4" r="1.4"/>
        </g>
        <g id="Grupo_1117750" data-name="Grupo 1117750" transform="translate(0 41.823)">
          <path id="Trazado_960261" data-name="Trazado 960261" d="M48.446,172.01H2.052A2.052,2.052,0,0,1,0,169.845l1.281-22.079a5.326,5.326,0,0,1,4.037-4.89l6.655-1.675c.682-.172,1.383-.387,2.084-.64a.783.783,0,0,1,.856.223l4.956,5.718a.489.489,0,0,0,.689.049l2.215-1.92a.489.489,0,0,0,.049-.689l-4.244-4.9a.781.781,0,0,1-.046-.965,3.2,3.2,0,0,0,.6-1.865v-1.6a.781.781,0,0,1,1.563,0v1.6a4.741,4.741,0,0,1-.559,2.24l3.869,4.463a2.054,2.054,0,0,1-.207,2.894l-2.215,1.92a2.054,2.054,0,0,1-2.893-.207l-4.609-5.318c-.58.2-1.158.366-1.725.508L5.7,144.39a3.772,3.772,0,0,0-2.858,3.463L1.564,169.933a.489.489,0,0,0,.488.515H48.446a.489.489,0,0,0,.488-.516l-1.28-22.076A3.773,3.773,0,0,0,44.8,144.39l-6.648-1.673c-.579-.146-1.173-.322-1.772-.525l-4.621,5.332a2.054,2.054,0,0,1-2.893.207l-2.215-1.92a2.054,2.054,0,0,1-.207-2.894l3.9-4.5a4.734,4.734,0,0,1-.541-2.2v-1.522a.781.781,0,0,1,1.563,0v1.522a3.2,3.2,0,0,0,.581,1.837.782.782,0,0,1-.05.959l-4.274,4.931a.489.489,0,0,0,.049.689l2.215,1.92a.49.49,0,0,0,.689-.049l4.969-5.733a.781.781,0,0,1,.857-.223,21.983,21.983,0,0,0,2.129.657l6.647,1.673a5.328,5.328,0,0,1,4.037,4.892l1.28,22.076a2.052,2.052,0,0,1-2.049,2.167Z" transform="translate(0 -133.833)"/>
        </g>
        <g id="Grupo_1117751" data-name="Grupo 1117751" transform="translate(40.591 59.237)">
          <path id="Trazado_960262" data-name="Trazado 960262" d="M130.672,210.009a.781.781,0,0,1-.781-.781v-18.89a.781.781,0,0,1,1.563,0v18.89A.781.781,0,0,1,130.672,210.009Z" transform="translate(-129.891 -189.557)"/>
        </g>
        <g id="Grupo_1117752" data-name="Grupo 1117752" transform="translate(8.513 59.237)">
          <path id="Trazado_960263" data-name="Trazado 960263" d="M28.022,210.009a.781.781,0,0,1-.781-.781v-18.89a.781.781,0,1,1,1.562,0v18.89a.781.781,0,0,1-.781.781Z" transform="translate(-27.241 -189.557)"/>
        </g>
        <g id="Grupo_1117753" data-name="Grupo 1117753" transform="translate(49.599 40.005)">
          <path id="Trazado_960264" data-name="Trazado 960264" d="M167.266,138.654h-6.458a2.093,2.093,0,0,1-2.091-2.09v-6.458a2.093,2.093,0,0,1,2.091-2.09h6.458a2.093,2.093,0,0,1,2.091,2.09v6.458A2.092,2.092,0,0,1,167.266,138.654Zm-6.458-9.077a.529.529,0,0,0-.528.528v6.458a.529.529,0,0,0,.528.528h6.458a.529.529,0,0,0,.528-.528v-6.458a.529.529,0,0,0-.528-.528Z" transform="translate(-158.717 -128.015)"/>
        </g>
        <g id="Grupo_1117754" data-name="Grupo 1117754" transform="translate(62.429 41.239)">
          <path id="Trazado_960265" data-name="Trazado 960265" d="M216.563,133.527H200.555a.781.781,0,0,1,0-1.562h16.008a.781.781,0,0,1,0,1.563Z" transform="translate(-199.774 -131.964)"/>
        </g>
        <g id="Grupo_1117755" data-name="Grupo 1117755" transform="translate(62.429 44.543)">
          <path id="Trazado_960266" data-name="Trazado 960266" d="M216.563,144.1H200.555a.781.781,0,0,1,0-1.562h16.008a.781.781,0,0,1,0,1.563Z" transform="translate(-199.774 -142.537)"/>
        </g>
        <g id="Grupo_1117756" data-name="Grupo 1117756" transform="translate(62.429 47.847)">
          <path id="Trazado_960267" data-name="Trazado 960267" d="M209.856,154.671h-9.3a.781.781,0,0,1,0-1.562h9.3a.781.781,0,0,1,0,1.563Z" transform="translate(-199.774 -153.109)"/>
        </g>
        <g id="Grupo_1117757" data-name="Grupo 1117757" transform="translate(49.599 27.232)">
          <path id="Trazado_960268" data-name="Trazado 960268" d="M167.266,97.781h-6.458a2.093,2.093,0,0,1-2.091-2.09V89.232a2.093,2.093,0,0,1,2.091-2.09h6.458a2.093,2.093,0,0,1,2.091,2.09v6.458A2.093,2.093,0,0,1,167.266,97.781ZM160.808,88.7a.529.529,0,0,0-.528.528v6.458a.529.529,0,0,0,.528.528h6.458a.529.529,0,0,0,.528-.528V89.232a.529.529,0,0,0-.528-.528Z" transform="translate(-158.717 -87.142)"/>
        </g>
        <g id="Grupo_1117758" data-name="Grupo 1117758" transform="translate(62.429 28.466)">
          <path id="Trazado_960269" data-name="Trazado 960269" d="M216.563,92.655H200.555a.781.781,0,0,1,0-1.562h16.008a.781.781,0,0,1,0,1.563Z" transform="translate(-199.774 -91.092)"/>
        </g>
        <g id="Grupo_1117759" data-name="Grupo 1117759" transform="translate(62.429 31.77)">
          <path id="Trazado_960270" data-name="Trazado 960270" d="M216.563,103.227H200.555a.781.781,0,0,1,0-1.562h16.008a.781.781,0,1,1,0,1.563Z" transform="translate(-199.774 -101.664)"/>
        </g>
        <g id="Grupo_1117760" data-name="Grupo 1117760" transform="translate(62.429 35.074)">
          <path id="Trazado_960271" data-name="Trazado 960271" d="M209.856,113.8h-9.3a.781.781,0,0,1,0-1.562h9.3a.781.781,0,0,1,0,1.563Z" transform="translate(-199.774 -112.237)"/>
        </g>
        <g id="Grupo_1117761" data-name="Grupo 1117761" transform="translate(49.599 14.459)">
          <path id="Trazado_960272" data-name="Trazado 960272" d="M167.266,56.908h-6.458a2.093,2.093,0,0,1-2.091-2.091V48.36a2.093,2.093,0,0,1,2.091-2.091h6.458a2.093,2.093,0,0,1,2.091,2.091v6.458A2.093,2.093,0,0,1,167.266,56.908Zm-6.458-9.077a.529.529,0,0,0-.528.528v6.458a.529.529,0,0,0,.528.528h6.458a.529.529,0,0,0,.528-.528V48.36a.529.529,0,0,0-.528-.528Z" transform="translate(-158.717 -46.269)"/>
        </g>
        <g id="Grupo_1117762" data-name="Grupo 1117762" transform="translate(62.429 15.694)">
          <path id="Trazado_960273" data-name="Trazado 960273" d="M216.563,51.783H200.555a.781.781,0,0,1,0-1.562h16.008a.781.781,0,0,1,0,1.563Z" transform="translate(-199.774 -50.22)"/>
        </g>
        <g id="Grupo_1117763" data-name="Grupo 1117763" transform="translate(62.429 18.997)">
          <path id="Trazado_960274" data-name="Trazado 960274" d="M216.563,62.354H200.555a.781.781,0,0,1,0-1.562h16.008a.781.781,0,0,1,0,1.563Z" transform="translate(-199.774 -60.792)"/>
        </g>
        <g id="Grupo_1117764" data-name="Grupo 1117764" transform="translate(62.429 22.302)">
          <path id="Trazado_960275" data-name="Trazado 960275" d="M209.856,72.927h-9.3a.781.781,0,0,1,0-1.562h9.3a.781.781,0,1,1,0,1.563Z" transform="translate(-199.774 -71.365)"/>
        </g>
        <g id="Grupo_1117765" data-name="Grupo 1117765" transform="translate(52.17 43.334)">
          <path id="Trazado_960276" data-name="Trazado 960276" d="M169.239,142.609a.779.779,0,0,1-.553-.229l-1.512-1.512a.781.781,0,0,1,1.1-1.1l.96.96,1.824-1.824a.781.781,0,0,1,1.1,1.1l-2.376,2.376A.777.777,0,0,1,169.239,142.609Z" transform="translate(-166.945 -138.67)"/>
        </g>
        <g id="Grupo_1117766" data-name="Grupo 1117766" transform="translate(52.17 30.562)">
          <path id="Trazado_960277" data-name="Trazado 960277" d="M169.239,101.737a.779.779,0,0,1-.553-.229L167.174,100a.781.781,0,0,1,1.1-1.1l.96.96,1.824-1.824a.781.781,0,0,1,1.1,1.1l-2.376,2.376A.777.777,0,0,1,169.239,101.737Z" transform="translate(-166.945 -97.798)"/>
        </g>
        <g id="Grupo_1117767" data-name="Grupo 1117767" transform="translate(52.17 17.789)">
          <path id="Trazado_960278" data-name="Trazado 960278" d="M169.239,60.865a.779.779,0,0,1-.553-.229l-1.512-1.513a.781.781,0,0,1,1.1-1.1l.96.96,1.824-1.824a.781.781,0,0,1,1.1,1.1l-2.376,2.376A.777.777,0,0,1,169.239,60.865Z" transform="translate(-166.945 -56.926)"/>
        </g>
        <g id="Grupo_1117768" data-name="Grupo 1117768" transform="translate(0.781 66.906)">
          <path id="Trazado_960279" data-name="Trazado 960279" d="M10.651,215.663H3.281a.781.781,0,0,1,0-1.562h7.37a.781.781,0,1,1,0,1.563Z" transform="translate(-2.5 -214.1)"/>
        </g>
        <g id="Grupo_1117769" data-name="Grupo 1117769" transform="translate(40.85 66.906)">
          <path id="Trazado_960280" data-name="Trazado 960280" d="M138.776,215.663H131.5a.781.781,0,0,1,0-1.562h7.275a.781.781,0,0,1,0,1.563Z" transform="translate(-130.719 -214.1)"/>
        </g>
        <g id="Grupo_1117770" data-name="Grupo 1117770" transform="translate(30.524 45.706)">
          <path id="Trazado_960281" data-name="Trazado 960281" d="M103.286,150.6a.781.781,0,0,1-.267-.047,23.556,23.556,0,0,1-2.487-1.065c-1.213-.606-1.325-.678-1.385-.717a4.768,4.768,0,0,1-1.331-1.287.781.781,0,0,1,1.282-.894,3.2,3.2,0,0,0,.9.867c.028.017.219.124,1.238.633a22.108,22.108,0,0,0,2.322.994.781.781,0,0,1-.266,1.516Z" transform="translate(-97.676 -146.26)"/>
        </g>
        <g id="Grupo_1117771" data-name="Grupo 1117771" transform="translate(13.543 45.74)">
          <path id="Trazado_960282" data-name="Trazado 960282" d="M44.119,150.695a.781.781,0,0,1-.265-1.516,21.863,21.863,0,0,0,2.28-.968c.568-.28,1.045-.517,1.12-.557a3.237,3.237,0,0,0,1.074-.957.781.781,0,0,1,1.272.907,4.815,4.815,0,0,1-1.6,1.422c-.033.018-.082.045-1.173.585a23.579,23.579,0,0,1-2.442,1.037.766.766,0,0,1-.264.047Z" transform="translate(-43.338 -146.369)"/>
        </g>
        <g id="Grupo_1117772" data-name="Grupo 1117772" transform="translate(12.888 16.985)">
          <path id="Trazado_960283" data-name="Trazado 960283" d="M53.6,81.782A12.375,12.375,0,0,1,41.24,69.42V60.105a1.4,1.4,0,0,1,1.689-1.37c2.251.472,7.907,1.038,11.795-3.851a1.4,1.4,0,0,1,2.085-.13c.807.79,3.181,2.644,7.8,2.779a1.4,1.4,0,0,1,1.356,1.374c0,.065,0,.131,0,.2V69.421A12.374,12.374,0,0,1,53.6,81.782ZM42.8,60.3V69.42a10.8,10.8,0,1,0,21.6,0V59.091c-4.711-.176-7.347-1.961-8.56-3.1C51.427,61.4,44.981,60.724,42.8,60.3Z" transform="translate(-41.24 -54.352)"/>
        </g>
        <g id="Grupo_1117774" data-name="Grupo 1117774" transform="translate(9.128 6.198)">
          <g id="Grupo_1117773" data-name="Grupo 1117773">
            <path id="Trazado_960284" data-name="Trazado 960284" d="M61.006,38.791a.781.781,0,0,1-.781-.781V29.523a5.813,5.813,0,0,0-8.811-5,.782.782,0,0,1-1.072-.269,5.872,5.872,0,0,0-5-2.858h-3.4A11.185,11.185,0,0,0,30.771,32.567v5.2a.781.781,0,1,1-1.562,0v-5.2A12.749,12.749,0,0,1,41.943,19.833h3.4a7.437,7.437,0,0,1,5.928,3,7.327,7.327,0,0,1,3.124-.7,7.4,7.4,0,0,1,7.4,7.4V38.01A.781.781,0,0,1,61.006,38.791Z" transform="translate(-29.209 -19.833)"/>
          </g>
        </g>
        <g id="Grupo_1117775" data-name="Grupo 1117775" transform="translate(36.292 22.446)">
          <path id="Trazado_960285" data-name="Trazado 960285" d="M117.414,83.06a5.254,5.254,0,0,1-.586-.034A.781.781,0,0,1,117,81.472a3.711,3.711,0,0,0,.412.025,4.054,4.054,0,0,0,0-8.107c-.121,0-.245.006-.371.018a.781.781,0,1,1-.149-1.555c.175-.017.35-.025.52-.025a5.616,5.616,0,0,1,0,11.232Z" transform="translate(-116.133 -71.827)"/>
        </g>
        <g id="Grupo_1117776" data-name="Grupo 1117776" transform="translate(7.31 22.446)">
          <path id="Trazado_960286" data-name="Trazado 960286" d="M29.007,83.06a5.616,5.616,0,0,1,0-11.232,5.558,5.558,0,0,1,.615.035.781.781,0,1,1-.175,1.553,3.932,3.932,0,0,0-.441-.025,4.054,4.054,0,0,0,0,8.107c.107,0,.214-.006.318-.015a.781.781,0,1,1,.144,1.556c-.157.015-.313.022-.462.022Z" transform="translate(-23.391 -71.827)"/>
        </g>
        <g id="Grupo_1117777" data-name="Grupo 1117777" transform="translate(23.106 51.366)">
          <path id="Trazado_960287" data-name="Trazado 960287" d="M77.365,165.934H74.719a.781.781,0,0,1,0-1.562h2.646a.781.781,0,0,1,0,1.563Z" transform="translate(-73.938 -164.371)"/>
        </g>
      </g>
    </g>
  </g>
</svg>
