<svg xmlns="http://www.w3.org/2000/svg" width="80" height="80" viewBox="0 0 80 80">
  <g id="Grupo_1117857" data-name="Grupo 1117857" transform="translate(-340 -7994.062)">
    <rect id="Rectángulo_402033" data-name="Rectángulo 402033" width="80" height="80" rx="8" transform="translate(340 7994.062)" fill="#0042db"/>
    <path id="Trazado_960503" data-name="Trazado 960503" d="M48.611,21l-3.1-1.006a.432.432,0,0,1-.3-.318,20.713,20.713,0,0,0-2.152-5.193.428.428,0,0,1-.015-.434l1.484-2.91A1.985,1.985,0,0,0,44.154,8.8L41.2,5.848a2,2,0,0,0-2.337-.372L35.953,6.96a.419.419,0,0,1-.43-.012A20.706,20.706,0,0,0,30.33,4.794a.423.423,0,0,1-.315-.3L29,1.392A2.005,2.005,0,0,0,27.09,0H22.913A2,2,0,0,0,21,1.389L19.989,4.5a.422.422,0,0,1-.313.3,20.638,20.638,0,0,0-5.195,2.154.422.422,0,0,1-.433.013L11.137,5.476a2,2,0,0,0-2.336.37L5.847,8.8a1.984,1.984,0,0,0-.37,2.338l1.482,2.906a.431.431,0,0,1-.013.438,20.748,20.748,0,0,0-2.151,5.191.43.43,0,0,1-.3.318L1.388,21A1.985,1.985,0,0,0,0,22.912v4.177a2.011,2.011,0,0,0,1.39,1.916L4.5,30.013a.422.422,0,0,1,.3.313,20.759,20.759,0,0,0,2.152,5.2.423.423,0,0,1,.014.431L5.475,38.868A1.985,1.985,0,0,0,5.846,41.2L8.8,44.159a2,2,0,0,0,2.335.37l2.913-1.484a.414.414,0,0,1,.431.013,20.885,20.885,0,0,0,5.2,2.155.418.418,0,0,1,.312.3l1.01,3.1A2,2,0,0,0,22.913,50H27.09A2,2,0,0,0,29,48.612l1.011-3.106a.416.416,0,0,1,.311-.295h0a20.9,20.9,0,0,0,5.195-2.154.416.416,0,0,1,.431-.012l2.911,1.483a2.005,2.005,0,0,0,2.336-.37L44.155,41.2a1.984,1.984,0,0,0,.37-2.338l-1.483-2.909a.425.425,0,0,1,.013-.435,20.743,20.743,0,0,0,2.151-5.193.423.423,0,0,1,.3-.315L48.612,29A2.012,2.012,0,0,0,50,27.089V22.911A1.983,1.983,0,0,0,48.611,21Zm-.171,6.091a.437.437,0,0,1-.311.432l-3.106,1.008a1.98,1.98,0,0,0-1.325,1.4,19.192,19.192,0,0,1-1.989,4.8,1.983,1.983,0,0,0-.058,1.928l1.483,2.912a.435.435,0,0,1-.083.525L40.1,43.053a.438.438,0,0,1-.522.084l-2.911-1.483a1.975,1.975,0,0,0-1.928.054,19.322,19.322,0,0,1-4.8,1.992,1.97,1.97,0,0,0-1.4,1.325l-1.012,3.107a.432.432,0,0,1-.428.311H22.913a.433.433,0,0,1-.429-.313l-1.01-3.1a1.966,1.966,0,0,0-1.4-1.326,19.3,19.3,0,0,1-4.8-1.992,1.992,1.992,0,0,0-1.012-.279,2.017,2.017,0,0,0-.916.225l-2.913,1.484a.437.437,0,0,1-.521-.084L6.953,40.1a.434.434,0,0,1-.083-.524l1.485-2.915A1.983,1.983,0,0,0,8.3,34.737a19.2,19.2,0,0,1-1.99-4.806,1.98,1.98,0,0,0-1.325-1.4l-3.106-1.01a.438.438,0,0,1-.313-.432V22.911a.435.435,0,0,1,.311-.429l3.111-1.009a1.989,1.989,0,0,0,1.32-1.4,19.152,19.152,0,0,1,1.989-4.8,1.988,1.988,0,0,0,.058-1.931L6.868,10.43A.435.435,0,0,1,6.951,9.9L9.907,6.949a.432.432,0,0,1,.521-.081l2.911,1.483A1.978,1.978,0,0,0,15.268,8.3a19.087,19.087,0,0,1,4.8-1.992,1.981,1.981,0,0,0,1.4-1.324l1.011-3.108a.431.431,0,0,1,.428-.309h4.177a.432.432,0,0,1,.429.311l1.01,3.106a1.98,1.98,0,0,0,1.4,1.325,19.084,19.084,0,0,1,4.8,1.993,1.976,1.976,0,0,0,1.927.054l2.913-1.484a.432.432,0,0,1,.521.084l2.954,2.954a.435.435,0,0,1,.084.524l-1.485,2.913a1.984,1.984,0,0,0,.06,1.927,19.174,19.174,0,0,1,1.99,4.8,1.991,1.991,0,0,0,1.325,1.4l3.1,1.007a.436.436,0,0,1,.313.43v4.175ZM25,10.412A14.583,14.583,0,0,0,14.471,35.088a.783.783,0,0,0,.141.144,14.642,14.642,0,0,0,4.9,3.284.725.725,0,0,0,.11.045A14.586,14.586,0,0,0,30.4,38.554a.8.8,0,0,0,.084-.034,14.639,14.639,0,0,0,4.909-3.291.782.782,0,0,0,.135-.138A14.583,14.583,0,0,0,25,10.412Zm9.125,23.877a13.083,13.083,0,0,1-3.2,2.312V22.51h3.2Zm-4.758,2.987a13.024,13.024,0,0,1-1.91.521V33.98a.78.78,0,0,0-.78-.78H23.326a.781.781,0,0,0-.78.78V37.8a13.024,13.024,0,0,1-1.91-.521V17.236h8.734Zm-10.3-.676a13.083,13.083,0,0,1-3.2-2.312V22.51h3.2ZM24.106,38V34.761H25.9V38q-.444.031-.895.031c-.3,0-.6-.013-.9-.032Zm11.583-5.557V21.729a.781.781,0,0,0-.78-.78H30.93V16.455a.78.78,0,0,0-.78-.78h-10.3a.781.781,0,0,0-.78.78v4.493H15.1a.78.78,0,0,0-.78.78V32.44a13.027,13.027,0,1,1,21.373,0ZM21.31,19.274a.78.78,0,0,1,.78-.78h.31a.78.78,0,0,1,0,1.561h-.31A.78.78,0,0,1,21.31,19.274Zm2.755,0a.78.78,0,0,1,.78-.78h.313a.78.78,0,0,1,0,1.561h-.313A.779.779,0,0,1,24.065,19.274Zm2.757,0a.78.78,0,0,1,.78-.78h.31a.78.78,0,0,1,0,1.561H27.6A.78.78,0,0,1,26.822,19.274Zm-5.512,3a.78.78,0,0,1,.78-.78h.31a.78.78,0,1,1,0,1.561h-.31A.781.781,0,0,1,21.31,22.278Zm2.755,0a.78.78,0,0,1,.78-.78h.313a.78.78,0,1,1,0,1.561h-.313A.78.78,0,0,1,24.065,22.278Zm2.757,0a.78.78,0,0,1,.78-.78h.31a.78.78,0,0,1,0,1.561H27.6A.781.781,0,0,1,26.822,22.278Zm-5.512,3a.78.78,0,0,1,.78-.78h.31a.78.78,0,1,1,0,1.561h-.31A.779.779,0,0,1,21.31,25.281Zm2.755,0a.78.78,0,0,1,.78-.78h.313a.78.78,0,1,1,0,1.561h-.313A.779.779,0,0,1,24.065,25.281Zm2.757,0a.78.78,0,0,1,.78-.78h.31a.78.78,0,0,1,0,1.561H27.6A.779.779,0,0,1,26.822,25.281Zm-5.512,3a.78.78,0,0,1,.78-.78h.31a.78.78,0,1,1,0,1.561h-.31A.781.781,0,0,1,21.31,28.285Zm2.755,0a.78.78,0,0,1,.78-.78h.313a.78.78,0,1,1,0,1.561h-.313A.78.78,0,0,1,24.065,28.285Zm2.757,0a.78.78,0,0,1,.78-.78h.31a.78.78,0,0,1,0,1.561H27.6A.781.781,0,0,1,26.822,28.285Zm-5.512,3a.78.78,0,0,1,.78-.78h.31a.78.78,0,1,1,0,1.561h-.31A.779.779,0,0,1,21.31,31.288Zm2.755,0a.78.78,0,0,1,.78-.78h.313a.78.78,0,1,1,0,1.561h-.313A.779.779,0,0,1,24.065,31.288Zm2.757,0a.78.78,0,0,1,.78-.78h.31a.78.78,0,0,1,0,1.561H27.6A.779.779,0,0,1,26.822,31.288Z" transform="translate(355 8009.06)" fill="#fff"/>
  </g>
</svg>
