<svg xmlns="http://www.w3.org/2000/svg" width="120" height="120" viewBox="0 0 120 120">
  <g id="Grupo_1116056" data-name="Grupo 1116056" transform="translate(-64 -6445)">
    <rect id="Rect치ngulo_402033" data-name="Rect치ngulo 402033" width="120" height="120" rx="8" transform="translate(64 6445)" fill="#0042db"/>
    <g id="Rect치ngulo_412110" data-name="Rect치ngulo 412110" transform="translate(69 6450)" fill="none" stroke="#fff" stroke-width="1">
      <rect width="110" height="110" rx="6" stroke="none"/>
      <rect x="0.5" y="0.5" width="109" height="109" rx="5.5" fill="none"/>
    </g>
    <g id="Grupo_1117833" data-name="Grupo 1117833" transform="translate(82.937 6463.893)">
      <g id="Grupo_1117831" data-name="Grupo 1117831" transform="translate(2.29 2.29)">
        <g id="Grupo_1117819" data-name="Grupo 1117819" transform="translate(12.903 2.581)">
          <path id="Trazado_960359" data-name="Trazado 960359" d="M19.471,11.2l.271.542H14.581L12,6.581A4.662,4.662,0,0,1,16.181,4h1.135a21.8,21.8,0,0,0,2.155,7.2Z" transform="translate(-12 -4)" fill="#cf9e76"/>
        </g>
        <g id="Grupo_1117820" data-name="Grupo 1117820" transform="translate(18.065 0)">
          <path id="Trazado_960360" data-name="Trazado 960360" d="M26.323,4.581a12.844,12.844,0,0,1-2.142,7.1l-.439.645H18.581l-.271-.542a21.8,21.8,0,0,1-2.155-7.2A21.48,21.48,0,0,1,16,2a21.719,21.719,0,0,1,8.065,1.29A7.154,7.154,0,0,1,26.323,4.581Z" transform="translate(-16 -2)" fill="#d3a06c"/>
        </g>
        <g id="Grupo_1117821" data-name="Grupo 1117821" transform="translate(15.484 10.323)">
          <path id="Trazado_960361" data-name="Trazado 960361" d="M24.323,10v5.161H14V10H24.323Z" transform="translate(-14 -10)" fill="#e6e9ed"/>
        </g>
        <g id="Grupo_1117822" data-name="Grupo 1117822" transform="translate(0 15.484)">
          <path id="Trazado_960362" data-name="Trazado 960362" d="M42.852,37.665a25.127,25.127,0,0,1,.439,4.723,20.58,20.58,0,0,1-1.5,7.742H32.968V60.452H12.645A20.646,20.646,0,0,1,2,42.387,25.67,25.67,0,0,1,7.639,26.3L17.484,14H27.806l9.845,12.3a25.9,25.9,0,0,1,4.194,7.561A24.324,24.324,0,0,1,42.852,37.665Z" transform="translate(-2 -14)" fill="#cf9e76"/>
        </g>
        <g id="Grupo_1117823" data-name="Grupo 1117823" transform="translate(67.097 25.806)">
          <path id="Trazado_960363" data-name="Trazado 960363" d="M54,22H64.323V71.032H54Z" transform="translate(-54 -22)" fill="#b4dd7f"/>
        </g>
        <g id="Grupo_1117824" data-name="Grupo 1117824" transform="translate(46.452 41.29)">
          <path id="Trazado_960364" data-name="Trazado 960364" d="M50.9,34V67.548H38l6.594-3.29a2.1,2.1,0,0,0,0-3.742l-4.013-2V34Z" transform="translate(-38 -34)" fill="#b4dd7f"/>
        </g>
        <g id="Grupo_1117825" data-name="Grupo 1117825" transform="translate(30.968 51.613)">
          <path id="Trazado_960365" data-name="Trazado 960365" d="M36.323,42V52.323H26V42H36.323Z" transform="translate(-26 -42)" fill="#b4dd7f"/>
        </g>
        <g id="Grupo_1117826" data-name="Grupo 1117826" transform="translate(0 61.935)">
          <path id="Trazado_960366" data-name="Trazado 960366" d="M12.323,50V65.484H7.161A5.16,5.16,0,0,1,2,60.323V55.161A5.16,5.16,0,0,1,7.161,50Z" transform="translate(-2 -50)" fill="#aab2bd"/>
        </g>
        <g id="Grupo_1117827" data-name="Grupo 1117827" transform="translate(41.29 61.935)">
          <path id="Trazado_960367" data-name="Trazado 960367" d="M45.755,55.871a2.1,2.1,0,0,1,0,3.742L39.161,62.9,34,65.484V50l7.742,3.871Z" transform="translate(-34 -50)" fill="#aab2bd"/>
        </g>
        <g id="Grupo_1117828" data-name="Grupo 1117828" transform="translate(15.484 69.677)">
          <path id="Trazado_960368" data-name="Trazado 960368" d="M14,56H39.806v7.742H14Z" transform="translate(-14 -56)" fill="#69d6f4"/>
        </g>
        <g id="Grupo_1117829" data-name="Grupo 1117829" transform="translate(15.484 61.935)">
          <path id="Trazado_960369" data-name="Trazado 960369" d="M39.806,50v7.742H14V50H39.806Z" transform="translate(-14 -50)" fill="#ff826e"/>
        </g>
        <g id="Grupo_1117830" data-name="Grupo 1117830" transform="translate(10.323 61.935)">
          <path id="Trazado_960370" data-name="Trazado 960370" d="M10.323,50h4.839V65.484H10V50Z" transform="translate(-10 -50)" fill="#ffeaa7"/>
        </g>
      </g>
      <g id="Grupo_1117832" data-name="Grupo 1117832" transform="translate(1 1)">
        <path id="Trazado_960371" data-name="Trazado 960371" d="M20.742,23.711V21H18.161v2.581H13v6.452a6.459,6.459,0,0,0,6.452,6.452,3.876,3.876,0,0,1,3.871,3.871v3.871H19.452a3.876,3.876,0,0,1-3.871-3.871V36.484H13v3.871a6.464,6.464,0,0,0,5.161,6.321v2.711h2.581V46.806H25.9V40.355A6.459,6.459,0,0,0,19.452,33.9a3.876,3.876,0,0,1-3.871-3.871V26.161h3.871a3.876,3.876,0,0,1,3.871,3.871V33.9H25.9V30.032a6.464,6.464,0,0,0-5.161-6.321Z" transform="translate(2.484 4.806)"/>
        <path id="Trazado_960372" data-name="Trazado 960372" d="M81,26.806H68.1V75.839H62.935V42.29h-12.9V66.009l-5.161-2.581V52.613H43.9a21.848,21.848,0,0,0,.974-6.452,26.759,26.759,0,0,0-.307-3.912A42.487,42.487,0,0,0,70.628,14.258l-2.483-.71A39.882,39.882,0,0,1,44.067,39.684,27.1,27.1,0,0,0,38.946,29.27L29.387,17.321V13l.217-.325a14.037,14.037,0,0,0,2.364-7.808V4.337l-.378-.378C31.288,3.655,28.4,1,20.355,1h-1.29V2.29c0,.436.013.874.039,1.308A5.915,5.915,0,0,0,14.04,6.874l-.289.578,2.733,5.466v4.4L6.925,29.27A27.136,27.136,0,0,0,1,46.161,21.955,21.955,0,0,0,8.806,62.935H7.452A6.459,6.459,0,0,0,1,69.387v5.161A6.459,6.459,0,0,0,7.452,81H43.885l5.161-2.581H81ZM54.752,71.254a.8.8,0,0,1,0,1.427l-9.881,4.941V66.314ZM16.484,65.516v12.9H13.9v-12.9ZM42.29,55.194v7.742H34.548V55.194Zm0,10.323v5.161H19.065V65.516ZM19.065,73.258H42.29v5.161H19.065ZM29.37,5.5a11.472,11.472,0,0,1-1.914,5.748l-.05.076H23.745a20.661,20.661,0,0,1-2.055-7.715C26.208,3.8,28.517,4.954,29.37,5.5ZM26.806,13.9v2.581H19.065V13.9ZM19.369,6.161H19.4A23.312,23.312,0,0,0,20.9,11.323H18.572L16.666,7.511a3.36,3.36,0,0,1,2.7-1.35Zm-15.788,40a24.553,24.553,0,0,1,5.36-15.28l9.454-11.817h9.081L36.93,30.881a24.526,24.526,0,0,1,4.684,9.655,39.025,39.025,0,0,1-8.155,1.618l-1.6.139.225,2.57,1.6-.139a41.563,41.563,0,0,0,8.39-1.639,24.477,24.477,0,0,1,.217,3.075,19.269,19.269,0,0,1-1.124,6.452h-9.2V62.935H13.289A19.375,19.375,0,0,1,3.581,46.161Zm0,28.387V69.387a3.876,3.876,0,0,1,3.871-3.871h3.871v12.9H7.452A3.876,3.876,0,0,1,3.581,74.548Zm52.326.441a3.379,3.379,0,0,0,0-6.044L52.613,67.3V44.871h7.742V75.839H54.208Zm22.512.849H70.677V29.387h7.742Z" transform="translate(-1 -1)"/>
        <path id="Trazado_960373" data-name="Trazado 960373" d="M35,3h7.742V5.581H35Z" transform="translate(8.871 -0.419)"/>
        <path id="Trazado_960374" data-name="Trazado 960374" d="M43,3H55.9V5.581H43Z" transform="translate(11.194 -0.419)"/>
        <path id="Trazado_960375" data-name="Trazado 960375" d="M35,7H58.226V9.581H35Z" transform="translate(8.871 0.742)"/>
        <path id="Trazado_960376" data-name="Trazado 960376" d="M35,11H47.9v2.581H35Z" transform="translate(8.871 1.903)"/>
        <path id="Trazado_960377" data-name="Trazado 960377" d="M35,15h2.581v2.581H35Z" transform="translate(8.871 3.065)"/>
        <path id="Trazado_960378" data-name="Trazado 960378" d="M39,15h2.581v2.581H39Z" transform="translate(10.032 3.065)"/>
        <path id="Trazado_960379" data-name="Trazado 960379" d="M43,15h2.581v2.581H43Z" transform="translate(11.194 3.065)"/>
      </g>
    </g>
  </g>
</svg>
