<svg xmlns="http://www.w3.org/2000/svg" width="80" height="80" viewBox="0 0 80 80">
  <g id="Grupo_1116010" data-name="Grupo 1116010" transform="translate(-970.062 -1524)">
    <rect id="Rectángulo_416034" data-name="Rectángulo 416034" width="80" height="80" rx="8" transform="translate(970.062 1524)" fill="#0042db"/>
    <path id="Trazado_954073" data-name="Trazado 954073" d="M-.332-10.059H-4.043V0H-10.9V-28.437H.293q5.059,0,7.91,2.244a7.6,7.6,0,0,1,2.852,6.341,9.233,9.233,0,0,1-1.2,4.917,8.526,8.526,0,0,1-3.76,3.161L12.031-.293V0H4.688Zm-3.711-5.273H.293A3.892,3.892,0,0,0,3.232-16.36a3.974,3.974,0,0,0,.986-2.868,4.021,4.021,0,0,0-1-2.888,3.856,3.856,0,0,0-2.93-1.048H-4.043Z" transform="translate(1010.062 1578)" fill="#fff"/>
  </g>
</svg>
