<svg xmlns="http://www.w3.org/2000/svg" width="50" height="50" viewBox="0 0 50 50">
  <g id="Grupo_1114443" data-name="Grupo 1114443" transform="translate(-179.668 -832)">
    <rect id="Rectángulo_409566" data-name="Rectángulo 409566" width="50" height="50" rx="25" transform="translate(179.668 832)" fill="#8bc34a"/>
    <g id="XMLID_1911_" transform="translate(186.668 795.068)">
      <g id="XMLID_334_" transform="translate(0 46.931)">
        <path id="XMLID_1255_" d="M35.051,58.447a.694.694,0,0,0-.491-.491,13.985,13.985,0,0,0-7.085-.03,13.779,13.779,0,0,0-2.42.875,13.883,13.883,0,0,0-6.945-11.776.694.694,0,0,0-.7,0A13.883,13.883,0,0,0,10.469,58.8a13.779,13.779,0,0,0-2.42-.875,13.987,13.987,0,0,0-7.085.03.694.694,0,0,0-.491.491,13.9,13.9,0,0,0,17.02,17.02.692.692,0,0,0,.269-.143.692.692,0,0,0,.269.143,13.971,13.971,0,0,0,10.846-1.563.694.694,0,1,0-.724-1.184,12.567,12.567,0,0,1-8.55,1.665l6.976-6.976a.694.694,0,1,0-.981-.981l-6.976,6.976A12.506,12.506,0,0,1,33.809,59.2a12.573,12.573,0,0,1-1.5,9.369.694.694,0,0,0,1.184.724A13.968,13.968,0,0,0,35.051,58.447Zm-30,12.443A12.56,12.56,0,0,1,1.714,59.2,12.506,12.506,0,0,1,16.9,73.405L9.926,66.429a.694.694,0,1,0-.981.981l6.976,6.976A12.561,12.561,0,0,1,5.049,70.89Zm16.087-9.338a13.915,13.915,0,0,0-2.681,3.766V60.472a.694.694,0,0,0-1.388,0v4.846a13.92,13.92,0,0,0-5.2-5.764c-.006-.165-.011-.33-.011-.494a12.56,12.56,0,0,1,5.909-10.626A12.56,12.56,0,0,1,23.67,59.06c0,.164,0,.33-.011.495A13.932,13.932,0,0,0,21.136,61.552Z" transform="translate(0 -46.931)" fill="#12263f"/>
        <path id="XMLID_1388_" d="M436.456,389.53a.694.694,0,0,0-.006.981l0,0a.692.692,0,0,0,.98,0,.695.695,0,0,0-.977-.988Z" transform="translate(-405.983 -365.574)" fill="#12263f"/>
      </g>
    </g>
  </g>
</svg>
