<svg xmlns="http://www.w3.org/2000/svg" width="85" height="85" viewBox="0 0 85 85">
  <g id="Grupo_1115978" data-name="Grupo 1115978" transform="translate(-704.668 -6155)">
    <rect id="Rectángulo_402033" data-name="Rectángulo 402033" width="85" height="85" rx="8" transform="translate(704.668 6155)" fill="#0042db"/>
    <g id="Grupo_1116507" data-name="Grupo 1116507" transform="translate(716.956 6167.289)">
      <path id="Trazado_958060" data-name="Trazado 958060" d="M252.915,103.4l-3.528-2.822-.885,8.851,2.919-1.77a2.391,2.391,0,0,0,1.494-4.258Z" transform="translate(-219.175 -88.704)" fill="#7d3214"/>
      <path id="Trazado_958061" data-name="Trazado 958061" d="M223.812,105.263a8.375,8.375,0,0,0-.179-1.867l-.706-2.822L219.4,103.4a2.391,2.391,0,0,0,1.494,4.258l1.149,1.77,1.292-1.77C223.6,107.654,223.812,106.583,223.812,105.263Z" transform="translate(-192.715 -88.704)" fill="#963e1c"/>
      <path id="Trazado_958062" data-name="Trazado 958062" d="M10.157,183.074a2.655,2.655,0,0,0,0,5.31H22a14.163,14.163,0,0,0,3.072-.337l6.448-1.433,3.54-3.54Z" transform="translate(-6.615 -161.469)" fill="#b6f1fb"/>
      <path id="Trazado_958063" data-name="Trazado 958063" d="M455.542,183.074H452v5.31h3.54a2.655,2.655,0,0,0,0-5.31Z" transform="translate(-398.66 -161.469)" fill="#6ee2f6"/>
      <path id="Trazado_958064" data-name="Trazado 958064" d="M281.787,185.729a2.655,2.655,0,0,0-2.655-2.655H256l5.31,3.54,6.448,1.433a14.163,14.163,0,0,0,3.072.337h8.3A2.655,2.655,0,0,0,281.787,185.729Z" transform="translate(-225.79 -161.469)" fill="#b6f1fb"/>
      <path id="Trazado_958065" data-name="Trazado 958065" d="M238.812,356.272v2.655a2.655,2.655,0,0,1-5.31,0v-2.655l2.655-1.77Z" transform="translate(-205.945 -312.667)" fill="#ff9a42"/>
      <path id="Trazado_958066" data-name="Trazado 958066" d="M238.812,326.272v3.54H233.5v-3.54l2.655-1.77Z" transform="translate(-205.945 -286.207)" fill="#ffd185"/>
      <path id="Trazado_958067" data-name="Trazado 958067" d="M238.812,296.272v3.54H233.5v-3.54l2.655-1.77Z" transform="translate(-205.945 -259.748)" fill="#ff9a42"/>
      <path id="Trazado_958068" data-name="Trazado 958068" d="M233.5,259.452h5.31v5.906H233.5Z" transform="translate(-205.945 -228.834)" fill="#ffd185"/>
      <path id="Trazado_958069" data-name="Trazado 958069" d="M252.042,160.574H248.5l.815,14.034a5.31,5.31,0,0,0,5.381-5.31v-6.069A2.655,2.655,0,0,0,252.042,160.574Z" transform="translate(-219.175 -141.624)" fill="#963e1c"/>
      <path id="Trazado_958070" data-name="Trazado 958070" d="M218.083,169.3v-6.069a2.655,2.655,0,0,0-2.655-2.655h-1.77A2.655,2.655,0,0,0,211,163.228v5.99a5.362,5.362,0,0,0,5.24,5.389C217.256,174.646,218.083,172.254,218.083,169.3Z" transform="translate(-186.1 -141.624)" fill="#c24623"/>
      <path id="Trazado_958071" data-name="Trazado 958071" d="M45.043,27.8h11.84a3.54,3.54,0,0,0,0-7.081H37.66l3.8-3.8a.885.885,0,0,0,.259-.626V9.1a16.9,16.9,0,0,1,7.531-7.419A.885.885,0,0,0,48.457.094a18.656,18.656,0,0,0-8.415,8.395.885.885,0,0,0-.093.4v7.043L35.972,19.9a3.566,3.566,0,0,0-1.189-1.275A3.273,3.273,0,0,0,34.293,14l-3.2-2.557V.886a.885.885,0,1,0-1.77,0V11.444L26.132,14a3.273,3.273,0,0,0-.49,4.629A3.567,3.567,0,0,0,24.453,19.9l-3.977-3.976V8.885a.885.885,0,0,0-.093-.4A18.656,18.656,0,0,0,11.968.094a.885.885,0,1,0-.792,1.583A16.9,16.9,0,0,1,18.707,9.1v7.2a.886.886,0,0,0,.259.626l3.8,3.8H3.542a3.54,3.54,0,1,0,0,7.081.885.885,0,0,0,0-1.77,1.77,1.77,0,1,1,0-3.54H24.017v1.945l-5.755,1.279a13.3,13.3,0,0,1-2.88.316h-8.3a.885.885,0,1,0,0,1.77h8.3a15.069,15.069,0,0,0,3.264-.358l3.481-.774L13.655,35.14a.885.885,0,0,0-.259.626v8.64A23.01,23.01,0,0,1,3.265,54.446a.885.885,0,1,0,.792,1.583A24.788,24.788,0,0,0,15.073,45.013a.885.885,0,0,0,.093-.4V36.133l8.851-8.851v.313a6.278,6.278,0,0,0,.328,2L18.856,37.8a.885.885,0,0,0-.15.492V48.7A23.011,23.011,0,0,1,8.575,58.745a.885.885,0,1,0,.792,1.583A24.788,24.788,0,0,0,20.383,49.312a.885.885,0,0,0,.093-.4V38.564l4.806-7.185a6.317,6.317,0,0,0,1.39,1.355V46.26a3.54,3.54,0,1,0,7.081,0v-13.5A6.223,6.223,0,0,0,35.16,31.4l4.789,7.159V48.916a.885.885,0,0,0,.093.4A24.788,24.788,0,0,0,51.059,60.328a.885.885,0,1,0,.792-1.583A23.01,23.01,0,0,1,41.719,48.7V38.295a.884.884,0,0,0-.15-.492L36.1,29.621a6.209,6.209,0,0,0,.312-1.947v-.392l8.851,8.851v8.484a.885.885,0,0,0,.093.4A24.788,24.788,0,0,0,56.369,56.029a.885.885,0,1,0,.792-1.583,23.009,23.009,0,0,1-10.132-10.04v-8.64a.886.886,0,0,0-.259-.626L38.3,26.669l3.481.774a15.062,15.062,0,0,0,3.264.358Zm13.61-3.54a1.772,1.772,0,0,1-1.77,1.77H45.043a13.3,13.3,0,0,1-2.88-.316l-5.755-1.279V22.49H56.883A1.772,1.772,0,0,1,58.653,24.26ZM34.638,27.674A4.425,4.425,0,0,1,30.213,32.1h-.059a4.482,4.482,0,0,1-4.366-4.5V21.6a1.772,1.772,0,0,1,1.77-1.77h5.31a1.772,1.772,0,0,1,1.77,1.77Zm-7.4-12.291L30.212,13l2.975,2.38a1.506,1.506,0,0,1-.941,2.682H28.178a1.506,1.506,0,0,1-.941-2.682Zm1.2,25.567h3.54v1.77h-3.54Zm3.54-1.77h-3.54V37.41h3.54Zm-1.77,8.851a1.772,1.772,0,0,1-1.77-1.77V44.49h3.54v1.77A1.772,1.772,0,0,1,30.212,48.031Zm1.77-12.391h-3.54V33.6a6.051,6.051,0,0,0,1.688.264h.083a6.214,6.214,0,0,0,1.769-.255Z" transform="translate(0 0)"/>
    </g>
  </g>
</svg>
