<svg xmlns="http://www.w3.org/2000/svg" width="84.854" height="84.854" viewBox="0 0 84.854 84.854">
  <g id="Grupo_1115936" data-name="Grupo 1115936" transform="translate(-210 -517)">
    <rect id="Image_Place_Holder" data-name="Image Place Holder" width="84.854" height="84.854" rx="10" transform="translate(210 517)" fill="#0042db"/>
    <g id="Grupo_1116391" data-name="Grupo 1116391" transform="translate(161.226 525.446)">
      <g id="Grupo_1116390" data-name="Grupo 1116390" transform="translate(67.307 1.32)">
        <path id="Trazado_957743" data-name="Trazado 957743" d="M202.866,109.1a2.655,2.655,0,1,1-2.655-2.655A2.655,2.655,0,0,1,202.866,109.1Zm-2.655,12.038c1.841,0,7.767-6.583,7.96-11.781q.005-.129.005-.257a8.108,8.108,0,0,0-6.888-7.956,7.642,7.642,0,0,0-1.077-.072,8.072,8.072,0,0,0-7.965,8.028C192.246,114.336,198.339,121.14,200.211,121.14Z" transform="translate(-176.811 -88.976)" fill="#ff5a58" fill-rule="evenodd"/>
        <path id="Trazado_957744" data-name="Trazado 957744" d="M234.9,146.861a2.655,2.655,0,1,0-2.655-2.655A2.655,2.655,0,0,0,234.9,146.861Z" transform="translate(-211.501 -124.08)" fill="#fff3db" fill-rule="evenodd"/>
        <path id="Trazado_957745" data-name="Trazado 957745" d="M107.332,30.327c-.193,5.2-6.119,11.781-7.96,11.781-1.872,0-7.965-6.8-7.965-12.038a8.072,8.072,0,0,1,7.965-8.028,7.624,7.624,0,0,1,1.077.072c-.634-2.965,4.237-7.914,7.936-8.071,2.962-.125-.573-8.132-7.867-1.424-1.236,1.136-5.186,2.233-7.345,2.867-2.49.731-1.186,1.694-3.251,4.788-1.991,2.984-1.729.307-2.665,2.153-1.175,2.318-2.259,2.6-3.128,2.663-2.437.189-4.691,4.485-3.027,6.85,1.825,2.593.589,9.175.838,9.782,1.07,2.611-.5,7.214-2.968,7.36-4.212.25-1.267,2.105-2.655,2.947-1.308.793,1.465,3.264,1.941,3.245,2.971-.118,5.881,5.768,7.573,2.861.477-.82,8.383,2.47,8.532,3.685.317,2.594,1.965,1.064,1.931,2.212-.081,2.725,1.956,1.735,2.064,2.517.509,3.693,5.226,1.838,6.382,1.7,5.455-.638,2.93,7.532,6.2,6.976s1.524-4.527,2.014-7.845c.339-2.3,1.37-2.513.664-5.091-.451-1.649-1.309-2.11-.813-3.319.645-1.571,2.243-.882,2.837-2.028,1.022-1.971-1.277-3.668.168-4.534,2.863-1.716,4.535,2.945,7.229,1.347,2.317-1.374-1.827-5.571-.534-7.014,1.255-1.4-1.8-3.812-.552-5.671,2.628-3.919.79-5.731-1.833-6-2.087-.218-4.465-.078-4.956-.843-1.753-2.733-3.221-3.273-4.872-3.444a26.557,26.557,0,0,1-2.964-.456Z" transform="translate(-75.971 -9.944)" fill="#cbe558" fill-rule="evenodd"/>
      </g>
      <path id="Trazado_957746" data-name="Trazado 957746" d="M116.385,43.29a10.533,10.533,0,0,0-.855-2.594,7.885,7.885,0,0,1-.617-1.783c1.072-1.306.371-2.875-.1-3.922-.382-.854-.635-1.484-.422-1.8,1.488-2.219,1.876-4.126,1.153-5.669a4.606,4.606,0,0,0-3.951-2.4c-.6-.062-1.2-.1-1.777-.128a12.174,12.174,0,0,1-2.292-.253c-1.927-2.942-3.7-3.693-5.761-3.906-.651-.067-1.256-.148-1.81-.24A9.5,9.5,0,0,0,97.209,14.8a9.272,9.272,0,0,0-4.085-2.391,6.448,6.448,0,0,1,1.355-2.425c1.531-1.842,3.71-3.176,5.3-3.243a2.317,2.317,0,0,0,2.235-1.776A4.166,4.166,0,0,0,99.874.7c-1.166-.7-4.37-1.86-8.919,2.323-.925.85-4.6,1.922-6.363,2.437l-.458.134a3.5,3.5,0,0,0-2.808,2.8,8.492,8.492,0,0,1-1.173,2.527,6.589,6.589,0,0,1-.662.869c-1.267-.189-1.852.965-2.082,1.42-.941,1.855-1.606,1.906-2.046,1.94a5.424,5.424,0,0,0-4.156,3.381,5.518,5.518,0,0,0,.147,5.557,3.91,3.91,0,0,1,.539,1.411,1.328,1.328,0,0,0,2.6-.554,6.389,6.389,0,0,0-.965-2.386,3.055,3.055,0,0,1,.084-2.9c.485-1.03,1.309-1.814,1.959-1.864,1.195-.092,2.744-.553,4.164-3.3,1.018-.031,1.806-.87,2.63-2.105a11.105,11.105,0,0,0,1.505-3.228c.242-.8.242-.8,1.015-1.023L85.335,8c3.18-.928,6.141-1.858,7.417-3.031C95.008,2.9,97.1,2.163,98.482,2.957a1.961,1.961,0,0,1,.935,1.152c-2.774.233-5.477,2.375-6.98,4.183a8.537,8.537,0,0,0-1.956,3.8A9.136,9.136,0,0,0,84.2,14.8a9.454,9.454,0,0,0-2.791,6.641c0,3.5,2.22,7,3.544,8.776.572.766,3.536,4.59,5.748,4.59s5.177-3.823,5.749-4.59a18.42,18.42,0,0,0,3.357-6.957q.79.122,1.682.215c1.213.125,2.342.426,3.891,2.84.725,1.13,2.3,1.217,4.286,1.329.549.031,1.117.063,1.649.118a2.213,2.213,0,0,1,1.823.881c.288.614-.06,1.731-.954,3.065-1.048,1.562-.295,3.248.2,4.363a5.184,5.184,0,0,1,.434,1.194c-1.1,1.272-.378,2.97.261,4.469a6.125,6.125,0,0,1,.671,2.214.249.249,0,0,1-.058.043c-.506.3-.836.2-2.076-.639-1.186-.8-2.978-2.011-5.158-.705-1.649.988-1.083,2.641-.811,3.436.242.707.379,1.165.151,1.617a2.909,2.909,0,0,1-.453.157,3.328,3.328,0,0,0-2.437,1.986,3.262,3.262,0,0,0,.279,2.985,6.278,6.278,0,0,1,.482,1.189,2.981,2.981,0,0,1-.1,2.39,9.5,9.5,0,0,0-.594,2.156,16.861,16.861,0,0,0-.036,3.462c.168,2.783-.031,3.123-.886,3.268l-.05.007a7.1,7.1,0,0,1-.554-1.807,9.6,9.6,0,0,0-1.277-3.471,4.24,4.24,0,0,0-4.254-1.715,8.88,8.88,0,0,0-.956.2c-.9.213-2.759.657-3.522.135a1.153,1.153,0,0,1-.435-.9,1.891,1.891,0,0,0-1.661-1.516,2.333,2.333,0,0,1-.314-.083,1.684,1.684,0,0,1-.078-.7A1.751,1.751,0,0,0,87.2,53.562l-.073-.008a2.267,2.267,0,0,1-.112-.518c-.09-.732-.595-1.613-3.661-3.088a23.93,23.93,0,0,0-4.849-1.781c-.511-.1-1.868-.384-2.486.678a1.269,1.269,0,0,1-.08.123A9.094,9.094,0,0,1,74.234,47.7c-1.265-1.08-2.688-2.3-4.37-2.377a5.269,5.269,0,0,1-1.092-1.113,2.381,2.381,0,0,0,.526-2.286,6.035,6.035,0,0,1,1.089-.142c1.842-.109,3.447-1.736,4.188-4.246a1.328,1.328,0,0,0-2.546-.752c-.39,1.322-1.147,2.309-1.8,2.348-1.688.1-2.646.451-3.2,1.173a2.472,2.472,0,0,0-.338,2.117l.008.038a2.048,2.048,0,0,0-.611,2.244c.373,1.239,2.269,3.326,3.56,3.272h.037c.783,0,1.914.966,2.825,1.745,1.284,1.1,2.5,2.134,3.922,1.891a2.5,2.5,0,0,0,1.476-.861,18.378,18.378,0,0,1,3.285,1.128,14.309,14.309,0,0,1,3.23,1.762,2.661,2.661,0,0,0,1.9,2.451,2.794,2.794,0,0,0,2.186,2.665,3.61,3.61,0,0,0,1.433,2.074c1.734,1.186,4.177.6,5.637.257.253-.06.54-.129.649-.141,1.632-.19,2.049.535,2.632,3.131a8.946,8.946,0,0,0,.805,2.482,2.577,2.577,0,0,0,2.3,1.4,3.183,3.183,0,0,0,.532-.046,3.448,3.448,0,0,0,2.945-2.564,10.753,10.753,0,0,0,.148-3.481,14.658,14.658,0,0,1,.012-2.914,6.921,6.921,0,0,1,.45-1.6,5.521,5.521,0,0,0,.182-4.035,8.858,8.858,0,0,0-.662-1.664c-.29-.588-.286-.6-.2-.8.1-.232.147-.276.729-.447a3.008,3.008,0,0,0,2.058-1.474,4.422,4.422,0,0,0,.008-3.707c-.043-.126-.095-.277-.133-.4.539-.231,1-.013,2.1.734,1.142.771,2.868,1.937,4.916.723a2.8,2.8,0,0,0,1.33-2.988ZM94.5,28.395a12.154,12.154,0,0,1-3.8,3.746,12.154,12.154,0,0,1-3.8-3.746c-1.806-2.492-2.841-5.025-2.841-6.949a6.782,6.782,0,0,1,2.01-4.76,6.5,6.5,0,0,1,4.609-1.941h.049a6.5,6.5,0,0,1,4.6,1.941,6.782,6.782,0,0,1,2.01,4.76C97.344,23.369,96.309,25.9,94.5,28.395Z" transform="translate(0 0)"/>
      <path id="Trazado_957747" data-name="Trazado 957747" d="M226.228,131.551a3.982,3.982,0,1,0,3.982,3.982A3.987,3.987,0,0,0,226.228,131.551Zm0,5.31a1.327,1.327,0,1,1,1.327-1.327A1.329,1.329,0,0,1,226.228,136.861Z" transform="translate(-135.522 -114.088)"/>
      <path id="Trazado_957748" data-name="Trazado 957748" d="M112.688,227.6a1.328,1.328,0,0,0,1.327-1.327h0a1.327,1.327,0,1,0-1.327,1.328Z" transform="translate(-39.356 -195.081)"/>
    </g>
  </g>
</svg>
