<svg xmlns="http://www.w3.org/2000/svg" width="50" height="49.917" viewBox="0 0 50 49.917">
  <g id="Grupo_1116457" data-name="Grupo 1116457" transform="translate(-1.059 -1)">
    <path id="Trazado_957868" data-name="Trazado 957868" d="M15.229,15.072a3.238,3.238,0,0,0,3.229-3.229V10.229a3.229,3.229,0,0,0-6.458,0v1.614A3.238,3.238,0,0,0,15.229,15.072Zm-1.614-4.843a1.614,1.614,0,0,1,3.229,0v1.614a1.614,1.614,0,0,1-3.229,0Z" transform="translate(-2.109 -1.157)" fill="#001a58"/>
    <path id="Trazado_957869" data-name="Trazado 957869" d="M58.616,29c-4.6.646-10.252,6.054-13.965,9.767a.785.785,0,0,0,.081,1.13.821.821,0,0,0,1.13-.081c8.234-8.4,11.866-9.2,12.754-9.2a.807.807,0,0,0,0-1.614Z" transform="translate(-8.364 -5.395)" fill="#001a58"/>
    <path id="Trazado_957870" data-name="Trazado 957870" d="M34.592,38.938a2.967,2.967,0,0,1-2.179,1.049,4.758,4.758,0,0,0-3.148,1.292l-.888.888-.969-13.884a2.509,2.509,0,0,0,1.049-2.018A2.29,2.29,0,0,0,27,24.085l-.161-2.745a.811.811,0,0,0-1.614.161l.161,2.341H21.434L16.51,20.13A5.7,5.7,0,0,0,13.12,19h-4.6a.807.807,0,0,0,0,1.614H9.891a4.15,4.15,0,0,0-.807,2.422v.807H5.855a1.614,1.614,0,0,1,0-3.229.807.807,0,0,0,0-1.614,3.238,3.238,0,0,0-3.229,3.229,3.026,3.026,0,0,0,1.13,2.422,3.026,3.026,0,0,0-1.13,2.422V30.3A3.238,3.238,0,0,0,5.855,33.53H8.841L7.873,45.315A.946.946,0,0,0,8.6,46.2a.828.828,0,0,0,.888-.726l.888-10.736c.726,1.211,3.31,1.937,3.31,1.937l-1.13,11.463a1.652,1.652,0,0,1-1.614,1.453,1.689,1.689,0,0,1-1.614-1.776A.878.878,0,0,0,8.6,46.93a.814.814,0,0,0-.888.726,3.313,3.313,0,0,0,.565,2.1,6.14,6.14,0,0,0-1.7.646L1.5,52.9a.712.712,0,0,0-.323,1.049.722.722,0,0,0,1.049.323l5.085-2.5a5.825,5.825,0,0,1,2.583-.646h3.552a3.786,3.786,0,0,0,2.825-1.211A6.962,6.962,0,0,1,21.192,47.9a8.416,8.416,0,0,0,6.054-2.5l3.148-3.148a2.867,2.867,0,0,1,2.018-.807,4.28,4.28,0,0,0,3.471-1.7.79.79,0,0,0-.161-1.13A1.145,1.145,0,0,0,34.592,38.938ZM9,31.916H5.855A1.619,1.619,0,0,1,4.24,30.3V27.072a1.619,1.619,0,0,1,1.614-1.614H9.084Zm6.135,17.032a2.407,2.407,0,0,1-1.372.646,2.439,2.439,0,0,0,.4-1.292L15.3,37.243l1.937.727v6.861a3.314,3.314,0,0,0,.888,2.26,8.127,8.127,0,0,0-2.987,1.857ZM22,44.831a1.635,1.635,0,0,1-1.857,1.614,1.728,1.728,0,0,1-1.372-1.7V37.889a1.214,1.214,0,0,0-.807-1.13l-4.924-1.937a3.947,3.947,0,0,1-1.776-1.453,7.86,7.86,0,0,0,4.278-3.148s-.242,1.7.4,1.7l4.924,2.5A2.082,2.082,0,0,1,22,36.194Zm1.372,1.292a3.346,3.346,0,0,0,.242-1.292v-8.8A3.688,3.688,0,0,0,21.6,32.8l-4.44-2.179V27.072a5.843,5.843,0,0,0,3.632,1.614h4.924L26.842,43.7a6.293,6.293,0,0,1-3.471,2.422Zm2.664-19.05H20.788a2.534,2.534,0,0,1-1.7-.565L15.218,23.6a.807.807,0,0,0-.969,1.292l1.292.969s-.969,4.763-4.843,5.893V23.036a2.378,2.378,0,0,1,2.422-2.422,3.809,3.809,0,0,1,2.422.807l5.408,4.036h5.085a.807.807,0,0,1,0,1.614Z" transform="translate(0 -3.47)" fill="#001a58"/>
    <path id="Trazado_957871" data-name="Trazado 957871" d="M41.422,9.072h8.072a2.378,2.378,0,0,0,2.422-2.422,2.527,2.527,0,0,0-1.7-2.341A4,4,0,0,0,46.265,1a4.107,4.107,0,0,0-3.552,2.1.831.831,0,0,0,1.453.807,2.327,2.327,0,0,1,2.1-1.292,2.378,2.378,0,0,1,2.422,2.422.763.763,0,0,0,.807.807.763.763,0,0,1,.807.807.763.763,0,0,1-.807.807H41.422a.763.763,0,0,1-.807-.807.763.763,0,0,1,.807-.807.763.763,0,0,0,.807-.807.763.763,0,0,0-.807-.807A2.378,2.378,0,0,0,39,6.651,2.378,2.378,0,0,0,41.422,9.072Z" transform="translate(-7.314)" fill="#001a58"/>
    <path id="Trazado_957872" data-name="Trazado 957872" d="M55.116,6.722a2.5,2.5,0,0,1,1.7,2.341.763.763,0,0,0,.807.807.807.807,0,1,1,0,1.614H49.546a.733.733,0,0,1-.565-.242.726.726,0,0,0-1.13.081.785.785,0,0,0,.081,1.13,2.564,2.564,0,0,0,1.614.646h8.072a2.378,2.378,0,0,0,2.422-2.422,2.527,2.527,0,0,0-1.7-2.341A4.043,4.043,0,0,0,55.6,5.188a.84.84,0,0,0-1.049.484.879.879,0,0,0,.565,1.049Z" transform="translate(-8.981 -0.798)" fill="#001a58"/>
    <path id="Trazado_957873" data-name="Trazado 957873" d="M7,31.422a.763.763,0,0,0,.807.807.763.763,0,0,0,.807-.807V29.807A.763.763,0,0,0,7.807,29,.763.763,0,0,0,7,29.807Z" transform="translate(-1.145 -5.398)" fill="#001a58"/>
  </g>
</svg>
