<svg xmlns="http://www.w3.org/2000/svg" width="50" height="49.856" viewBox="0 0 50 49.856">
  <g id="Grupo_1116445" data-name="Grupo 1116445" transform="translate(0 -0.737)">
    <g id="Grupo_1116402" data-name="Grupo 1116402" transform="translate(27.781 0.737)">
      <g id="Grupo_1116401" data-name="Grupo 1116401">
        <path id="Trazado_957825" data-name="Trazado 957825" d="M285.223.737a.743.743,0,0,0-.743.743V3.447a.743.743,0,0,0,1.485,0V1.48A.743.743,0,0,0,285.223.737Z" transform="translate(-284.48 -0.737)" fill="#001a58"/>
      </g>
    </g>
    <g id="Grupo_1116404" data-name="Grupo 1116404" transform="translate(27.781 6.035)">
      <g id="Grupo_1116403" data-name="Grupo 1116403">
        <path id="Trazado_957826" data-name="Trazado 957826" d="M285.223,54.988a.743.743,0,0,0-.743.743V57.7a.743.743,0,0,0,1.485,0V55.731A.742.742,0,0,0,285.223,54.988Z" transform="translate(-284.48 -54.988)" fill="#001a58"/>
      </g>
    </g>
    <g id="Grupo_1116406" data-name="Grupo 1116406" transform="translate(29.446 4.37)">
      <g id="Grupo_1116405" data-name="Grupo 1116405">
        <path id="Trazado_957827" data-name="Trazado 957827" d="M304.24,37.938h-1.968a.743.743,0,1,0,0,1.485h1.968a.743.743,0,1,0,0-1.485Z" transform="translate(-301.53 -37.938)" fill="#001a58"/>
      </g>
    </g>
    <g id="Grupo_1116408" data-name="Grupo 1116408" transform="translate(24.148 4.37)">
      <g id="Grupo_1116407" data-name="Grupo 1116407">
        <path id="Trazado_957828" data-name="Trazado 957828" d="M249.99,37.938h-1.968a.743.743,0,0,0,0,1.485h1.968a.743.743,0,1,0,0-1.485Z" transform="translate(-247.28 -37.938)" fill="#001a58"/>
      </g>
    </g>
    <g id="Grupo_1116410" data-name="Grupo 1116410" transform="translate(0 19.325)">
      <g id="Grupo_1116409" data-name="Grupo 1116409">
        <path id="Trazado_957829" data-name="Trazado 957829" d="M5.495,220.858H2.931a1.447,1.447,0,0,1-1.446-1.446v-27.6a.743.743,0,1,0-1.485,0v27.6a2.934,2.934,0,0,0,2.931,2.931H5.495a.743.743,0,1,0,0-1.485Z" transform="translate(0 -191.075)" fill="#001a58"/>
      </g>
    </g>
    <g id="Grupo_1116412" data-name="Grupo 1116412" transform="translate(2.612 12.771)">
      <g id="Grupo_1116411" data-name="Grupo 1116411">
        <path id="Trazado_957830" data-name="Trazado 957830" d="M73.392,130.521a.743.743,0,0,0-.743.743v27.6A1.448,1.448,0,0,1,71.2,160.3H49.877v-1.188H68.569a2.956,2.956,0,0,0,2.952-2.952V126.921a2.956,2.956,0,0,0-2.952-2.952H63.994a.743.743,0,1,0,0,1.485h4.575a1.469,1.469,0,0,1,1.467,1.467V153.2a1.468,1.468,0,0,1-1.467,1.466H53.82a5.4,5.4,0,0,0-3.944,1.691V129.4a3.948,3.948,0,0,1,3.944-3.944h1.956a.743.743,0,0,0,0-1.485H53.82a5.431,5.431,0,0,0-4.686,2.693,5.431,5.431,0,0,0-4.686-2.693H41.3a.743.743,0,1,0,0,1.485h3.148a3.948,3.948,0,0,1,3.944,3.944v26.965a5.4,5.4,0,0,0-3.944-1.691H29.7a1.468,1.468,0,0,1-1.467-1.466V126.921a1.469,1.469,0,0,1,1.467-1.467h5.265a.743.743,0,0,0,0-1.485H29.7a2.956,2.956,0,0,0-2.952,2.952v29.243a2.956,2.956,0,0,0,2.952,2.952H48.392V160.3H32.1a.743.743,0,1,0,0,1.485H71.2a2.934,2.934,0,0,0,2.932-2.931v-27.6A.743.743,0,0,0,73.392,130.521ZM53.82,156.156H68.569a2.934,2.934,0,0,0,1.467-.392v.4a1.469,1.469,0,0,1-1.467,1.467H50.741A3.923,3.923,0,0,1,53.82,156.156ZM29.7,157.631a1.469,1.469,0,0,1-1.467-1.467v-.4a2.934,2.934,0,0,0,1.467.392h14.75a3.924,3.924,0,0,1,3.079,1.475H29.7Z" transform="translate(-26.746 -123.968)" fill="#001a58"/>
      </g>
    </g>
    <g id="Grupo_1116414" data-name="Grupo 1116414" transform="translate(7.189 19.582)">
      <g id="Grupo_1116413" data-name="Grupo 1116413">
        <path id="Trazado_957831" data-name="Trazado 957831" d="M86.374,193.706H74.36a.743.743,0,0,0,0,1.485H86.374a.743.743,0,0,0,0-1.485Z" transform="translate(-73.617 -193.706)" fill="#001a58"/>
      </g>
    </g>
    <g id="Grupo_1116416" data-name="Grupo 1116416" transform="translate(7.189 23.216)">
      <g id="Grupo_1116415" data-name="Grupo 1116415">
        <path id="Trazado_957832" data-name="Trazado 957832" d="M86.374,230.923H74.36a.743.743,0,0,0,0,1.485H86.374a.743.743,0,0,0,0-1.485Z" transform="translate(-73.617 -230.923)" fill="#001a58"/>
      </g>
    </g>
    <g id="Grupo_1116418" data-name="Grupo 1116418" transform="translate(16.535 30.485)">
      <g id="Grupo_1116417" data-name="Grupo 1116417">
        <path id="Trazado_957833" data-name="Trazado 957833" d="M172.729,305.357h-2.669a.743.743,0,0,0,0,1.485h2.669a.743.743,0,0,0,0-1.485Z" transform="translate(-169.318 -305.357)" fill="#001a58"/>
      </g>
    </g>
    <g id="Grupo_1116420" data-name="Grupo 1116420" transform="translate(7.189 30.485)">
      <g id="Grupo_1116419" data-name="Grupo 1116419">
        <path id="Trazado_957834" data-name="Trazado 957834" d="M81.23,305.357H74.36a.743.743,0,0,0,0,1.485h6.87a.743.743,0,0,0,0-1.485Z" transform="translate(-73.617 -305.357)" fill="#001a58"/>
      </g>
    </g>
    <g id="Grupo_1116422" data-name="Grupo 1116422" transform="translate(7.189 37.754)">
      <g id="Grupo_1116421" data-name="Grupo 1116421">
        <path id="Trazado_957835" data-name="Trazado 957835" d="M86.374,379.79H74.36a.743.743,0,0,0,0,1.485H86.374a.743.743,0,0,0,0-1.485Z" transform="translate(-73.617 -379.79)" fill="#001a58"/>
      </g>
    </g>
    <g id="Grupo_1116424" data-name="Grupo 1116424" transform="translate(7.189 26.851)">
      <g id="Grupo_1116423" data-name="Grupo 1116423">
        <path id="Trazado_957836" data-name="Trazado 957836" d="M86.374,268.14H74.36a.743.743,0,0,0,0,1.485H86.374a.743.743,0,1,0,0-1.485Z" transform="translate(-73.617 -268.14)" fill="#001a58"/>
      </g>
    </g>
    <g id="Grupo_1116426" data-name="Grupo 1116426" transform="translate(7.189 34.12)">
      <g id="Grupo_1116425" data-name="Grupo 1116425">
        <path id="Trazado_957837" data-name="Trazado 957837" d="M86.374,342.574H74.36a.743.743,0,1,0,0,1.485H86.374a.743.743,0,1,0,0-1.485Z" transform="translate(-73.617 -342.574)" fill="#001a58"/>
      </g>
    </g>
    <g id="Grupo_1116428" data-name="Grupo 1116428" transform="translate(29.883 23.216)">
      <g id="Grupo_1116427" data-name="Grupo 1116427">
        <path id="Trazado_957838" data-name="Trazado 957838" d="M308.5,230.923h-1.759a.743.743,0,1,0,0,1.485H308.5a.743.743,0,1,0,0-1.485Z" transform="translate(-306.001 -230.923)" fill="#001a58"/>
      </g>
    </g>
    <g id="Grupo_1116430" data-name="Grupo 1116430" transform="translate(38.523 23.216)">
      <g id="Grupo_1116429" data-name="Grupo 1116429">
        <path id="Trazado_957839" data-name="Trazado 957839" d="M398.6,230.923h-3.374a.743.743,0,0,0,0,1.485H398.6a.743.743,0,0,0,0-1.485Z" transform="translate(-394.48 -230.923)" fill="#001a58"/>
      </g>
    </g>
    <g id="Grupo_1116432" data-name="Grupo 1116432" transform="translate(29.883 30.485)">
      <g id="Grupo_1116431" data-name="Grupo 1116431">
        <path id="Trazado_957840" data-name="Trazado 957840" d="M318.758,305.357H306.744a.743.743,0,1,0,0,1.485h12.014a.743.743,0,1,0,0-1.485Z" transform="translate(-306.001 -305.357)" fill="#001a58"/>
      </g>
    </g>
    <g id="Grupo_1116434" data-name="Grupo 1116434" transform="translate(29.883 37.754)">
      <g id="Grupo_1116433" data-name="Grupo 1116433">
        <path id="Trazado_957841" data-name="Trazado 957841" d="M318.758,379.79H306.744a.743.743,0,1,0,0,1.485h12.014a.743.743,0,0,0,0-1.485Z" transform="translate(-306.001 -379.79)" fill="#001a58"/>
      </g>
    </g>
    <g id="Grupo_1116436" data-name="Grupo 1116436" transform="translate(29.883 26.851)">
      <g id="Grupo_1116435" data-name="Grupo 1116435">
        <path id="Trazado_957842" data-name="Trazado 957842" d="M318.758,268.14H306.744a.743.743,0,1,0,0,1.485h12.014a.743.743,0,1,0,0-1.485Z" transform="translate(-306.001 -268.14)" fill="#001a58"/>
      </g>
    </g>
    <g id="Grupo_1116438" data-name="Grupo 1116438" transform="translate(29.883 34.12)">
      <g id="Grupo_1116437" data-name="Grupo 1116437">
        <path id="Trazado_957843" data-name="Trazado 957843" d="M308.489,342.574h-1.746a.743.743,0,1,0,0,1.485h1.746a.743.743,0,1,0,0-1.485Z" transform="translate(-306.001 -342.574)" fill="#001a58"/>
      </g>
    </g>
    <g id="Grupo_1116440" data-name="Grupo 1116440" transform="translate(34.104 34.12)">
      <g id="Grupo_1116439" data-name="Grupo 1116439">
        <path id="Trazado_957844" data-name="Trazado 957844" d="M357.761,342.574h-7.793a.743.743,0,1,0,0,1.485h7.793a.743.743,0,1,0,0-1.485Z" transform="translate(-349.225 -342.574)" fill="#001a58"/>
      </g>
    </g>
    <g id="Grupo_1116442" data-name="Grupo 1116442" transform="translate(6.475 0.902)">
      <g id="Grupo_1116441" data-name="Grupo 1116441">
        <path id="Trazado_957845" data-name="Trazado 957845" d="M79.96,8.387l-1.694-.343a3.491,3.491,0,0,1-2.733-2.733L75.19,3.617a1.491,1.491,0,0,0-2.923,0l-.343,1.694A3.491,3.491,0,0,1,69.19,8.044L67.5,8.387a1.491,1.491,0,0,0,0,2.923l1.694.343a3.491,3.491,0,0,1,2.733,2.733l.343,1.694a1.478,1.478,0,0,0,1.462,1.195h0a1.478,1.478,0,0,0,1.462-1.195l.343-1.694a3.491,3.491,0,0,1,2.733-2.733l1.694-.343a1.491,1.491,0,0,0,0-2.923ZM79.67,9.854h0l-1.694.343a4.974,4.974,0,0,0-3.893,3.893l-.343,1.694v0h-.01v0l-.343-1.694A4.974,4.974,0,0,0,69.485,10.2l-1.694-.343h0s0-.007,0-.01h0L69.485,9.5a4.974,4.974,0,0,0,3.893-3.893l.343-1.694v0h.01v0l.343,1.694A4.974,4.974,0,0,0,77.971,9.5l1.694.343h0A.082.082,0,0,1,79.67,9.854Z" transform="translate(-66.301 -2.422)" fill="#001a58"/>
      </g>
    </g>
    <g id="Grupo_1116444" data-name="Grupo 1116444" transform="translate(27.136 9.261)">
      <g id="Grupo_1116443" data-name="Grupo 1116443">
        <path id="Trazado_957846" data-name="Trazado 957846" d="M293.851,95.069l-2-.406a4.258,4.258,0,0,1-3.333-3.333l-.406-2a1.627,1.627,0,0,0-3.189,0l-.406,2a4.258,4.258,0,0,1-3.333,3.333l-2,.406a1.627,1.627,0,0,0,0,3.189l2,.406A4.258,4.258,0,0,1,284.516,102l.406,2a1.627,1.627,0,0,0,3.189,0l.406-2a4.258,4.258,0,0,1,3.333-3.333l2-.406a1.627,1.627,0,0,0,0-3.189Zm-.3,1.733-2,.406a5.741,5.741,0,0,0-4.494,4.494l-.406,2a.142.142,0,0,1-.278,0l-.406-2a5.741,5.741,0,0,0-4.494-4.494l-2-.406a.142.142,0,0,1,0-.278l2-.406a5.741,5.741,0,0,0,4.494-4.494l.406-2a.142.142,0,0,1,.278,0l.406,2a5.741,5.741,0,0,0,4.494,4.494l2,.406a.142.142,0,0,1,0,.278Z" transform="translate(-277.877 -88.025)" fill="#001a58"/>
      </g>
    </g>
  </g>
</svg>
