<svg xmlns="http://www.w3.org/2000/svg" width="297" height="149" viewBox="0 0 297 149">
  <g id="Grupo_1116741" data-name="Grupo 1116741" transform="translate(-1081.711 -7215)">
    <rect id="Rectángulo_416006" data-name="Rectángulo 416006" width="297" height="149" transform="translate(1081.711 7215)" fill="#8bc34a"/>
    <g id="_13446872_5261322" data-name="13446872_5261322" transform="translate(1035.78 7130.238)">
      <g id="OBJECTS" transform="translate(79.931 96.762)">
        <g id="Grupo_1116617" data-name="Grupo 1116617">
          <g id="Grupo_1116616" data-name="Grupo 1116616">
            <path id="Trazado_958298" data-name="Trazado 958298" d="M144.545,256.748s-1.968,4.968-.937,13.779" transform="translate(-118.889 -195.104)" fill="none" stroke="#177d74" stroke-miterlimit="10" stroke-width="2.946"/>
            <path id="Trazado_958299" data-name="Trazado 958299" d="M177.5,184.032a22.27,22.27,0,0,1-8.34,1.673,13.009,13.009,0,0,0-5,.969c-4.494,1.842-7.037,8.9-7.037,8.9l19.749-1.331s11,.988,16.092-2.4a18.6,18.6,0,0,0,3.664-3.749S186.783,180.312,177.5,184.032Z" transform="translate(-127.384 -149.787)" fill="#1c9585"/>
            <path id="Trazado_958300" data-name="Trazado 958300" d="M129.3,137.41s-10.873-10.685-2.338-21.741a107.356,107.356,0,0,0,9.066-13.138c5.243-8.606,10.662-5.036,10.662-5.036s-6.077,9.576-6.361,18.049A27.989,27.989,0,0,1,129.3,137.41Z" transform="translate(-106.831 -96.762)" fill="#177d74"/>
            <path id="Trazado_958301" data-name="Trazado 958301" d="M153.026,203.071c2.671-2.015,5.267-2.254,11.669.422a19,19,0,0,0,7.686,2.062s-20.433,2.062-23.433,6.186v-.207A10.564,10.564,0,0,1,153.026,203.071Z" transform="translate(-122.355 -161.157)" fill="#177d74"/>
            <path id="Trazado_958302" data-name="Trazado 958302" d="M97.463,228.887s-.25-8.373-7.124-8.5a13.752,13.752,0,0,1-10.373-4.8s-.768,9.011,4.749,12.422A12.886,12.886,0,0,0,97.463,228.887Z" transform="translate(-79.931 -169.804)" fill="#1c9585"/>
            <g id="Grupo_1116612" data-name="Grupo 1116612" transform="translate(18.165 4.593)">
              <path id="Trazado_958303" data-name="Trazado 958303" d="M143.065,108.682q-1.777,4.431-3.348,8.935-1.6,4.492-3.01,9.045c-1.91,6.059-3.578,12.19-4.959,18.382-.692,3.1-1.314,6.2-1.839,9.331q-.761,4.692-1.254,9.418c-.3,3.151-.495,6.313-.531,9.476a90.586,90.586,0,0,0,.4,9.476l-.783.1a80.745,80.745,0,0,1-.667-9.573c-.013-3.2.16-6.4.427-9.583s.73-6.352,1.25-9.5c.54-3.148,1.176-6.278,1.884-9.39s1.559-6.19,2.439-9.255,1.832-6.11,2.88-9.12,2.149-6,3.314-8.966C140.468,114.5,141.688,111.553,143.065,108.682Z" transform="translate(-127.075 -108.682)" fill="#1c9585"/>
            </g>
            <g id="Grupo_1116613" data-name="Grupo 1116613" transform="translate(19.832 47.005)">
              <path id="Trazado_958304" data-name="Trazado 958304" d="M143.566,219.307a9.752,9.752,0,0,0-1.79.732,13.266,13.266,0,0,0-1.671,1.025,15.537,15.537,0,0,0-2.865,2.673,19.842,19.842,0,0,0-3.635,6.93,31.792,31.792,0,0,0-1.241,7.8,50.66,50.66,0,0,0,.367,7.931l-1.013.116a51.693,51.693,0,0,1-.26-8.09,32.639,32.639,0,0,1,1.389-7.991,20.565,20.565,0,0,1,3.873-7.133,16.176,16.176,0,0,1,3.025-2.743,13.884,13.884,0,0,1,1.76-1.046,10.2,10.2,0,0,1,1.929-.754Z" transform="translate(-131.4 -218.754)" fill="#177d74"/>
            </g>
            <g id="Grupo_1116614" data-name="Grupo 1116614" transform="translate(1.474 48.991)">
              <path id="Trazado_958305" data-name="Trazado 958305" d="M83.755,223.908a12.736,12.736,0,0,0,7.42,5.325,43.6,43.6,0,0,1,4.537,1.389,16.774,16.774,0,0,1,2.193.984,5.541,5.541,0,0,1,1.919,1.6l.173.289c.047.1.088.212.131.318a4.079,4.079,0,0,1,.119.67c.008.4.029.816.009,1.211-.014.8-.065,1.586-.117,2.374-.109,1.576-.243,3.146-.41,4.712s-.346,3.131-.532,4.694c-.2,1.562-.4,3.123-.632,4.681L98,252.085l.487-4.691c.169-1.563.333-3.126.481-4.69s.312-3.126.423-4.689c.057-.78.112-1.563.131-2.338.022-.392,0-.767,0-1.148a4.213,4.213,0,0,0-.078-.489l-.087-.23-.126-.22a4.92,4.92,0,0,0-1.65-1.419,16.162,16.162,0,0,0-2.087-.994c-1.442-.584-2.945-1.04-4.443-1.5A12.441,12.441,0,0,1,83.755,223.908Z" transform="translate(-83.755 -223.908)" fill="#177d74"/>
            </g>
            <g id="Grupo_1116615" data-name="Grupo 1116615" transform="translate(34.836 38.68)">
              <path id="Trazado_958306" data-name="Trazado 958306" d="M201.185,197.149c-2.5.757-5.031,1.438-7.569,2.078s-5.089,1.23-7.658,1.743-5.149.975-7.752,1.309a64.566,64.566,0,0,1-7.865.574l.011-.722a64,64,0,0,0,7.789-.39c2.594-.272,5.175-.679,7.749-1.125s5.132-.989,7.683-1.564S198.664,197.848,201.185,197.149Z" transform="translate(-170.341 -197.149)" fill="#177d74"/>
            </g>
            <path id="Trazado_958307" data-name="Trazado 958307" d="M140.314,246.261s-4.86-2.248-7.484.658,1.781,7.311,4.686,9.467,5.343,8.717,10.029,10.217c0,0,2.718-5.249.75-10.487-.814-2.167.105-8.4-3.768-10.789C142.859,244.294,140.314,246.261,140.314,246.261Z" transform="translate(-111.954 -187.899)" fill="#1c9585"/>
            <path id="Trazado_958308" data-name="Trazado 958308" d="M154.223,247.146c-.3.179-.514.332-.594.391,3.357,3.61,5.4,14,5.758,15.4C159.284,262.446,157.736,251.424,154.223,247.146Z" transform="translate(-125.232 -189.202)" fill="#177d74"/>
          </g>
          <rect id="Rectángulo_416139" data-name="Rectángulo 416139" width="17.013" height="23.21" transform="translate(11.567 72.175)" fill="#828291"/>
          <rect id="Rectángulo_416140" data-name="Rectángulo 416140" width="4.982" height="17.743" transform="translate(13.704 72.175)" fill="#695a6e"/>
          <path id="Trazado_958309" data-name="Trazado 958309" d="M109.951,350.671V316.587h17.012v34.084" transform="translate(-98.384 -231.887)" fill="none" stroke="#32285f" stroke-miterlimit="10" stroke-width="2.532"/>
        </g>
        <g id="Grupo_1116624" data-name="Grupo 1116624" transform="translate(192.395 53.224)">
          <g id="Grupo_1116619" data-name="Grupo 1116619" transform="translate(0)">
            <path id="Trazado_958310" data-name="Trazado 958310" d="M589.949,243.4c-1.129-.01-1.4-3.634-1.4-7a55.452,55.452,0,0,0-7.993-1.5s-3.455,14.428.932,20.793c3.052-.961,8.9-2.518,9.815-.653.726,1.487-2.726,2.958-5.718,3.924,5.575,2.566,13.339,1.687,13.339,1.687s5.566-11.688,1.066-18c-1.508-2.113-4.186-3.68-7.082-4.831C592.091,240.6,591.01,243.406,589.949,243.4Zm-4.134,4.909c-.09.539-1.076.824-2.2.636s-1.966-.778-1.875-1.318,1.076-.824,2.2-.636S585.905,247.767,585.815,248.306Zm11.312-3.034c-.2,2.045-1.158,3.626-2.138,3.529s-1.612-1.832-1.411-3.878,1.158-3.625,2.138-3.529S597.327,243.226,597.127,245.272Z" transform="translate(-579.259 -234.895)" fill="#1c9585"/>
            <g id="Grupo_1116618" data-name="Grupo 1116618" transform="translate(2.16 1.263)">
              <path id="Trazado_958311" data-name="Trazado 958311" d="M585.149,238.174c1.5,1.507,2.958,3.049,4.376,4.63s2.784,3.2,4.118,4.857a74.758,74.758,0,0,1,7.2,10.525,37.461,37.461,0,0,1,2.626,5.869,18.7,18.7,0,0,1,1.116,6.427l-.108,3.212c-.022,1.06-.04,2.12-.042,3.181,0,2.122.044,4.247.221,6.379l-3.213-.225c.473-2.1.814-4.2,1.108-6.3.146-1.053.276-2.106.4-3.16l.17-1.582.08-.79.061-.759a17.54,17.54,0,0,0-.764-6.078,33.848,33.848,0,0,0-2.329-5.818A53.527,53.527,0,0,0,597,253.074c-1.154-1.768-2.389-3.485-3.689-5.152s-2.654-3.294-4.067-4.868-2.858-3.124-4.384-4.58Z" transform="translate(-584.864 -238.174)" fill="#177d74"/>
            </g>
            <path id="Trazado_958312" data-name="Trazado 958312" d="M583.343,280.187s9.989-1.407,14.15,0" transform="translate(-581.769 -262.351)" fill="none" stroke="#177d74" stroke-miterlimit="10" stroke-width="1.072"/>
            <path id="Trazado_958313" data-name="Trazado 958313" d="M582.471,253.631s5.194.123,6.958,1.236" transform="translate(-581.233 -246.412)" fill="none" stroke="#177d74" stroke-miterlimit="10" stroke-width="1.072"/>
            <path id="Trazado_958314" data-name="Trazado 958314" d="M628.514,264.367s.818,7.553-1.192,12.212" transform="translate(-608.803 -253.011)" fill="none" stroke="#177d74" stroke-miterlimit="10" stroke-width="1.072"/>
            <path id="Trazado_958315" data-name="Trazado 958315" d="M612.544,250.119s.536,4.424-.959,7.2" transform="translate(-599.129 -244.253)" fill="none" stroke="#177d74" stroke-miterlimit="10" stroke-width="1.072"/>
          </g>
          <path id="Trazado_958316" data-name="Trazado 958316" d="M597.668,330.472s-1.069-10.1,2.069-11.53,8.121.916,9.928,3.119c0,0-1.456,5.586-4.347,5.546A10.763,10.763,0,0,0,597.668,330.472Z" transform="translate(-590.467 -286.288)" fill="#1c9585"/>
          <g id="Grupo_1116620" data-name="Grupo 1116620" transform="translate(8.028 35.087)">
            <path id="Trazado_958317" data-name="Trazado 958317" d="M600.094,332.5a15.738,15.738,0,0,1,4.54-5.161,7.8,7.8,0,0,1,3.2-1.318,6.6,6.6,0,0,1,1.754-.019,7.78,7.78,0,0,1,1.7.433,12.859,12.859,0,0,1,3.055,1.668,5.959,5.959,0,0,1,2.091,2.865,4.766,4.766,0,0,1,.167,1.831,3.988,3.988,0,0,1-.212.921c-.09.27-.174.543-.249.819a10.033,10.033,0,0,0-.382,3.5l-2.423-.9a10.2,10.2,0,0,0,2-2.918c.123-.259.238-.521.346-.785a2.988,2.988,0,0,0,.205-.734,4.087,4.087,0,0,0-.074-1.56,5.286,5.286,0,0,0-1.786-2.646,12.431,12.431,0,0,0-2.885-1.688,6.867,6.867,0,0,0-1.6-.445,6.265,6.265,0,0,0-1.658-.011,7.217,7.217,0,0,0-3.08,1.239,11.927,11.927,0,0,0-2.469,2.292,15.334,15.334,0,0,0-1.875,2.8Z" transform="translate(-600.094 -325.956)" fill="#177d74"/>
          </g>
          <path id="Trazado_958318" data-name="Trazado 958318" d="M617.8,330.935s-.094-3.406,1.243-4.465" transform="translate(-602.948 -291.185)" fill="none" stroke="#177d74" stroke-miterlimit="10" stroke-width="1.072"/>
          <path id="Trazado_958319" data-name="Trazado 958319" d="M602.786,322.875s3.874-.808,6.406,1.384" transform="translate(-593.721 -288.886)" fill="none" stroke="#177d74" stroke-miterlimit="10" stroke-width="1.072"/>
          <path id="Trazado_958320" data-name="Trazado 958320" d="M610.6,330.588a33.4,33.4,0,0,0-.31,3.865" transform="translate(-598.331 -293.717)" fill="none" stroke="#177d74" stroke-miterlimit="10" stroke-width="1.072"/>
          <path id="Trazado_958321" data-name="Trazado 958321" d="M605.551,328.956a6.512,6.512,0,0,0-5.021,2.705" transform="translate(-592.334 -292.713)" fill="none" stroke="#177d74" stroke-miterlimit="10" stroke-width="1.072"/>
          <g id="Grupo_1116621" data-name="Grupo 1116621" transform="translate(18.918 10.203)">
            <path id="Trazado_958322" data-name="Trazado 958322" d="M631.787,297.48a3.915,3.915,0,0,1-.565-.448,5.367,5.367,0,0,1-.449-.471,7.14,7.14,0,0,1-.742-1.028,9.822,9.822,0,0,1-1-2.257,16.428,16.428,0,0,1-.673-4.76l.015-1.191.092-1.182c.017-.2.027-.395.05-.59l.082-.585.166-1.169a18.237,18.237,0,0,1,.6-2.318c.232-.749.484-1.482.732-2.216,1-2.928,1.985-5.844,2.717-8.825a39.888,39.888,0,0,0,1.279-9.065h.827a40.764,40.764,0,0,1-1.177,9.288c-.7,3.039-1.657,6.007-2.617,8.944-.238.735-.478,1.468-.693,2.2a17.183,17.183,0,0,0-.535,2.176l-.144,1.13-.072.564c-.019.188-.026.377-.04.566l-.073,1.131,0,1.129a15.232,15.232,0,0,0,.676,4.383,8.541,8.541,0,0,0,.9,1.96,5.822,5.822,0,0,0,.625.842,3.975,3.975,0,0,0,.355.364,3.093,3.093,0,0,0,.342.272Z" transform="translate(-628.356 -261.374)" fill="#177d74"/>
          </g>
          <g id="Grupo_1116623" data-name="Grupo 1116623" transform="translate(21.324 15.237)">
            <path id="Trazado_958323" data-name="Trazado 958323" d="M641,276.557a11.429,11.429,0,0,0-5.128,3.5c-3.259,4.569.772,13.032.772,13.032s5.622.637,9.659-1.221c-2.167-.7-4.667-1.765-4.141-2.841.66-1.35,4.9-.223,7.107.473,3.177-4.609.675-15.056.675-15.056a40.107,40.107,0,0,0-5.788,1.087c0,2.437-.2,5.061-1.017,5.069C642.373,280.6,641.59,278.574,641,276.557Zm6.491,6.64c.815-.136,1.529.07,1.594.46s-.543.818-1.358.954-1.529-.07-1.594-.46S646.677,283.333,647.493,283.2Zm-8.527-4.051c.71-.07,1.4,1.075,1.548,2.556s-.312,2.738-1.022,2.808-1.4-1.075-1.548-2.556S638.256,279.216,638.966,279.146Z" transform="translate(-634.601 -274.44)" fill="#1c9585"/>
            <g id="Grupo_1116622" data-name="Grupo 1116622" transform="translate(0.542 0.885)">
              <path id="Trazado_958324" data-name="Trazado 958324" d="M650.234,277.014c-1.922,2.216-3.759,4.515-5.543,6.844a80.938,80.938,0,0,0-4.973,7.249,37.5,37.5,0,0,0-2.04,3.868c-.3.663-.582,1.329-.821,2.01a8.2,8.2,0,0,0-.478,2.1,3.206,3.206,0,0,0,.435,2.015c.4.591.816,1.219,1.249,1.811a39.83,39.83,0,0,0,2.76,3.494l-1.459.892a39.128,39.128,0,0,0-1.844-4.038c-.335-.663-.688-1.292-1.055-1.954a3.575,3.575,0,0,1-.385-1.1,6.018,6.018,0,0,1-.071-1.141,12.426,12.426,0,0,1,1.095-4.342,34.813,34.813,0,0,1,2.093-3.926,81.525,81.525,0,0,1,5.059-7.268q2.7-3.51,5.669-6.788Z" transform="translate(-636.009 -276.738)" fill="#177d74"/>
            </g>
            <path id="Trazado_958325" data-name="Trazado 958325" d="M658.561,306.949s-6.6-1.253-9.614-.234" transform="translate(-643.419 -294.033)" fill="none" stroke="#177d74" stroke-miterlimit="10" stroke-width="1.072"/>
            <path id="Trazado_958326" data-name="Trazado 958326" d="M666.491,288.007s-3.761.089-5.039.895" transform="translate(-651.106 -282.78)" fill="none" stroke="#177d74" stroke-miterlimit="10" stroke-width="1.072"/>
            <path id="Trazado_958327" data-name="Trazado 958327" d="M639.623,295.781s-.593,5.469.863,8.843" transform="translate(-637.614 -287.558)" fill="none" stroke="#177d74" stroke-miterlimit="10" stroke-width="1.072"/>
            <path id="Trazado_958328" data-name="Trazado 958328" d="M651.638,285.464s-.13,3.562.952,5.575" transform="translate(-645.071 -281.216)" fill="none" stroke="#177d74" stroke-miterlimit="10" stroke-width="1.072"/>
          </g>
          <path id="Trazado_958329" data-name="Trazado 958329" d="M642.535,308.857s1.382,12.911-.422,17.732" transform="translate(-617.895 -280.359)" fill="none" stroke="#177d74" stroke-miterlimit="10" stroke-width="2.145"/>
          <rect id="Rectángulo_416141" data-name="Rectángulo 416141" width="15.797" height="5.206" transform="translate(14.051 45.651)" fill="#f0e1d3"/>
          <path id="Trazado_958330" data-name="Trazado 958330" d="M617.648,375.08h5.868c3.983-2.265,6.873-9.017,6.873-17H610.775C610.775,366.063,613.665,372.815,617.648,375.08Z" transform="translate(-598.632 -310.618)" fill="#d8c5b6"/>
          <path id="Trazado_958331" data-name="Trazado 958331" d="M619.643,371.608h2.041c1.862-1.8,3.213-7.175,3.213-13.523h-9.17C615.727,364.433,617.781,369.806,619.643,371.608Z" transform="translate(-601.676 -310.619)" fill="#e2d0c5"/>
        </g>
        <g id="Grupo_1116642" data-name="Grupo 1116642" transform="translate(46.818 11.115)">
          <g id="Grupo_1116625" data-name="Grupo 1116625" transform="translate(0 12.279)">
            <path id="Trazado_958332" data-name="Trazado 958332" d="M215.439,167.909s6.417,5.83,13.379,4.517c3.678-2.009,13.623-6.52,13.623-6.52l1.079,1.8s-9.954,9.5-14.081,10.452-13.328-.194-18.02-3.8S213.529,166.59,215.439,167.909Z" transform="translate(-206.579 -162.657)" fill="#ff9669"/>
            <path id="Trazado_958333" data-name="Trazado 958333" d="M209.848,167.862a57.873,57.873,0,0,0,8.1,3.978c-.516,1.892-1.093,5.163-3.774,7.206a29.106,29.106,0,0,1-7.97-3.356c-1.887-1.188-5.216-4.657-4.708-5.977C203.151,165.406,208.629,167.02,209.848,167.862Z" transform="translate(-201.44 -163.241)" fill="#fff"/>
            <path id="Trazado_958334" data-name="Trazado 958334" d="M293.486,161.357s.85-2.583,2.107-3.285,1.887-.667,1.836-.485c-.1.345-.7.467-1.077.788-.224.188-.321.381-.3.419.061.1,1.676-.484,1.82-.186.21.433-.879.84-.628.971s1.092-.322,1.242.1c.163.459-.8.633-.788.834s.925-.146.97.341c.049.531-.843.485-.865.8-.009.127.473-.089.519.4s-1.08.432-1.255.43-2.246.794-3.386-.8Z" transform="translate(-258.02 -157.475)" fill="#ff9669"/>
          </g>
          <rect id="Rectángulo_416142" data-name="Rectángulo 416142" width="2.886" height="100.148" transform="translate(46.409)" fill="#828291"/>
          <g id="Grupo_1116641" data-name="Grupo 1116641" transform="translate(27.95 2.148)">
            <path id="Trazado_958335" data-name="Trazado 958335" d="M312.559,190.754H275.2a1.224,1.224,0,0,1-1.224-1.224V132.406a1.224,1.224,0,0,1,1.224-1.224h37.355a1.224,1.224,0,0,1,1.224,1.224v57.125A1.224,1.224,0,0,1,312.559,190.754Z" transform="translate(-273.98 -131.182)" fill="#fff"/>
            <g id="Grupo_1116640" data-name="Grupo 1116640" transform="translate(3.813 30.664)">
              <g id="Grupo_1116634" data-name="Grupo 1116634">
                <g id="Grupo_1116626" data-name="Grupo 1116626">
                  <rect id="Rectángulo_416143" data-name="Rectángulo 416143" width="0.53" height="26.48" fill="#b2e9ed"/>
                </g>
                <g id="Grupo_1116627" data-name="Grupo 1116627" transform="translate(4.53)">
                  <rect id="Rectángulo_416144" data-name="Rectángulo 416144" width="0.53" height="26.48" fill="#b2e9ed"/>
                </g>
                <g id="Grupo_1116628" data-name="Grupo 1116628" transform="translate(9.06)">
                  <rect id="Rectángulo_416145" data-name="Rectángulo 416145" width="0.53" height="26.48" fill="#b2e9ed"/>
                </g>
                <g id="Grupo_1116629" data-name="Grupo 1116629" transform="translate(13.59)">
                  <rect id="Rectángulo_416146" data-name="Rectángulo 416146" width="0.53" height="26.48" fill="#b2e9ed"/>
                </g>
                <g id="Grupo_1116630" data-name="Grupo 1116630" transform="translate(18.12)">
                  <rect id="Rectángulo_416147" data-name="Rectángulo 416147" width="0.53" height="26.48" fill="#b2e9ed"/>
                </g>
                <g id="Grupo_1116631" data-name="Grupo 1116631" transform="translate(22.65)">
                  <rect id="Rectángulo_416148" data-name="Rectángulo 416148" width="0.53" height="26.48" fill="#b2e9ed"/>
                </g>
                <g id="Grupo_1116632" data-name="Grupo 1116632" transform="translate(27.18)">
                  <rect id="Rectángulo_416149" data-name="Rectángulo 416149" width="0.53" height="26.48" fill="#b2e9ed"/>
                </g>
                <g id="Grupo_1116633" data-name="Grupo 1116633" transform="translate(31.71)">
                  <rect id="Rectángulo_416150" data-name="Rectángulo 416150" width="0.53" height="26.48" fill="#b2e9ed"/>
                </g>
              </g>
              <g id="Grupo_1116637" data-name="Grupo 1116637" transform="translate(0.073 3.272)">
                <g id="Grupo_1116635" data-name="Grupo 1116635" transform="translate(0 0.537)">
                  <path id="Trazado_958336" data-name="Trazado 958336" d="M284.449,241.741l-.383-.4,6.061-7,5.787,4.167,7.134-8.515,1.815,1.944,10.092-11.285.377.411-10.462,11.7-1.8-1.931L296,239.266l-5.793-4.173Z" transform="translate(-284.066 -220.649)" fill="#fa503c"/>
                </g>
                <g id="Grupo_1116636" data-name="Grupo 1116636" transform="translate(30.404)">
                  <path id="Trazado_958337" data-name="Trazado 958337" d="M364.32,219.255l-1.345.4.985,1.087Z" transform="translate(-362.975 -219.255)" fill="#fa503c"/>
                </g>
              </g>
              <g id="Grupo_1116638" data-name="Grupo 1116638" transform="translate(0.151 12.949)">
                <path id="Trazado_958338" data-name="Trazado 958338" d="M315.757,255.879l-14.678-2.616-9.8-8.278-6.938,1.083-.074-.579,7.158-1.118,9.87,8.337,14.546,2.593Z" transform="translate(-284.268 -244.371)" fill="#0073aa"/>
              </g>
              <g id="Grupo_1116639" data-name="Grupo 1116639" transform="translate(31.307 23.406)">
                <path id="Trazado_958339" data-name="Trazado 958339" d="M366.418,272.457l-1.1-.946-.193,1.523Z" transform="translate(-365.127 -271.511)" fill="#0073aa"/>
              </g>
            </g>
            <rect id="Rectángulo_416151" data-name="Rectángulo 416151" width="5.472" height="21.113" transform="translate(3.813 5.608)" fill="#177d74"/>
            <rect id="Rectángulo_416152" data-name="Rectángulo 416152" width="5.472" height="12.622" transform="translate(10.722 14.099)" fill="#177d74"/>
            <rect id="Rectángulo_416153" data-name="Rectángulo 416153" width="5.472" height="7.556" transform="translate(17.632 19.166)" fill="#177d74"/>
            <rect id="Rectángulo_416154" data-name="Rectángulo 416154" width="5.472" height="9.136" transform="translate(24.541 17.585)" fill="#177d74"/>
            <rect id="Rectángulo_416155" data-name="Rectángulo 416155" width="5.472" height="12.416" transform="translate(31.451 14.305)" fill="#177d74"/>
          </g>
          <path id="Trazado_958340" data-name="Trazado 958340" d="M306.1,391.472v-1.938a2.5,2.5,0,0,1,2.5-2.5h10.057a2.5,2.5,0,0,1,2.5,2.5v1.938" transform="translate(-265.772 -286.306)" fill="none" stroke="#32285f" stroke-miterlimit="10" stroke-width="4.556"/>
        </g>
        <g id="Grupo_1116676" data-name="Grupo 1116676" transform="translate(82.329 25.387)">
          <g id="Grupo_1116645" data-name="Grupo 1116645" transform="translate(18.726 20.649)">
            <path id="Trazado_958341" data-name="Trazado 958341" d="M392.576,383.655l-11.764-5.882-11.764,5.882" transform="translate(-358.703 -315.533)" fill="none" stroke="#32285f" stroke-miterlimit="10" stroke-width="5.512"/>
            <line id="Línea_27192" data-name="Línea 27192" y1="19.139" transform="translate(22.109 43.102)" fill="none" stroke="#32285f" stroke-miterlimit="10" stroke-width="5.512"/>
            <path id="Trazado_958342" data-name="Trazado 958342" d="M369.746,260.643H399.3l4.518-38.566a5.229,5.229,0,0,0-5.194-5.838H384a5.23,5.23,0,0,0-5.1,4.072Z" transform="translate(-359.132 -216.239)" fill="#db372a"/>
            <rect id="Rectángulo_416156" data-name="Rectángulo 416156" width="14.592" height="2.565" transform="translate(29.163 46.969) rotate(180)" fill="#828291"/>
            <g id="Grupo_1116643" data-name="Grupo 1116643" transform="translate(28.94 64.912)">
              <circle id="Elipse_13558" data-name="Elipse 13558" cx="3.168" cy="3.168" r="3.168" fill="#32285f"/>
              <circle id="Elipse_13559" data-name="Elipse 13559" cx="1.553" cy="1.553" r="1.553" transform="translate(1.615 1.615)" fill="#828291"/>
            </g>
            <g id="Grupo_1116644" data-name="Grupo 1116644" transform="translate(9.064 64.912)">
              <circle id="Elipse_13560" data-name="Elipse 13560" cx="3.168" cy="3.168" r="3.168" fill="#32285f"/>
              <circle id="Elipse_13561" data-name="Elipse 13561" cx="1.553" cy="1.553" r="1.553" transform="translate(1.615 1.615)" fill="#828291"/>
            </g>
            <path id="Trazado_958343" data-name="Trazado 958343" d="M347.048,316.587h30.209a5.141,5.141,0,0,1,5.106,5.739H342.2v-.891A4.848,4.848,0,0,1,347.048,316.587Z" transform="translate(-342.2 -277.922)" fill="#e69632"/>
          </g>
          <g id="Grupo_1116673" data-name="Grupo 1116673" transform="translate(3.425)">
            <g id="Grupo_1116655" data-name="Grupo 1116655" transform="translate(13.101 49.671)">
              <g id="Grupo_1116653" data-name="Grupo 1116653" transform="translate(0 10.922)">
                <g id="Grupo_1116647" data-name="Grupo 1116647" transform="translate(0 25.866)">
                  <g id="Grupo_1116646" data-name="Grupo 1116646" transform="translate(0 1.646)">
                    <path id="Trazado_958344" data-name="Trazado 958344" d="M345.474,395.257h-6.885a.7.7,0,0,1-.639-.976,2.725,2.725,0,0,1,1.255-1.425c1.188-.513,4.2-1.545,4.2-1.545l2.538.067c.631.485.686,1.666.44,3.3C346.328,395.016,345.812,395.257,345.474,395.257Z" transform="translate(-337.349 -391.31)" fill="#32285f"/>
                    <path id="Trazado_958345" data-name="Trazado 958345" d="M336.884,400.844h8.553a.393.393,0,0,0,.393-.393h0a.393.393,0,0,0-.393-.393h-8.553a.393.393,0,0,0-.393.393h0A.393.393,0,0,0,336.884,400.844Z" transform="translate(-336.491 -396.688)" fill="#fff"/>
                  </g>
                  <path id="Trazado_958346" data-name="Trazado 958346" d="M353.1,389.307a1.467,1.467,0,0,0,1.645,0,.48.48,0,0,0,.231-.407v-1.862h-2.108V388.9A.48.48,0,0,0,353.1,389.307Z" transform="translate(-346.555 -387.038)" fill="#ff9669"/>
                </g>
                <g id="Grupo_1116651" data-name="Grupo 1116651" transform="translate(3.477 28.524)">
                  <g id="Grupo_1116648" data-name="Grupo 1116648" transform="translate(1.798)">
                    <path id="Trazado_958347" data-name="Trazado 958347" d="M351.667,396.316l-1.485-2.2.269-.181,1.608,2.379Z" transform="translate(-350.182 -393.938)" fill="#e69632"/>
                  </g>
                  <g id="Grupo_1116649" data-name="Grupo 1116649" transform="translate(0.899 0.474)">
                    <path id="Trazado_958348" data-name="Trazado 958348" d="M349.012,397.073l-1.164-1.722.269-.182,1.287,1.9Z" transform="translate(-347.848 -395.169)" fill="#e69632"/>
                  </g>
                  <g id="Grupo_1116650" data-name="Grupo 1116650" transform="translate(0 0.949)">
                    <path id="Trazado_958349" data-name="Trazado 958349" d="M346.358,397.831l-.843-1.248.269-.182.966,1.43Z" transform="translate(-345.515 -396.401)" fill="#e69632"/>
                  </g>
                </g>
                <g id="Grupo_1116652" data-name="Grupo 1116652" transform="translate(0.394)">
                  <path id="Trazado_958350" data-name="Trazado 958350" d="M340.942,345.908c-2.43-10.925-3.428-25.838-3.428-25.838,2.018-1,7.349,2.923,7.349,2.923,3.209,4.007,1.648,13.335,1.35,22.915A13.592,13.592,0,0,1,340.942,345.908Z" transform="translate(-337.514 -319.908)" fill="#50374b"/>
                </g>
              </g>
              <g id="Grupo_1116654" data-name="Grupo 1116654" transform="translate(0.394)">
                <path id="Trazado_958351" data-name="Trazado 958351" d="M345.175,306.421s13.4-3.745,13.742-8.337-.262-6.522-.262-6.522l-6.42.258A16.211,16.211,0,0,0,337.563,302.5l-.05.144Z" transform="translate(-337.513 -291.562)" fill="#50374b"/>
                <path id="Trazado_958352" data-name="Trazado 958352" d="M388.091,316.243" transform="translate(-368.603 -306.733)" fill="none" stroke="#0f1446" stroke-miterlimit="10" stroke-width="0.467"/>
                <path id="Trazado_958353" data-name="Trazado 958353" d="M381.166,295.365" transform="translate(-364.346 -293.9)" fill="none" stroke="#0f1446" stroke-miterlimit="10" stroke-width="0.467"/>
                <path id="Trazado_958354" data-name="Trazado 958354" d="M387.488,367.118" transform="translate(-368.232 -338.006)" fill="none" stroke="#0f1446" stroke-miterlimit="10" stroke-width="0.467"/>
                <path id="Trazado_958355" data-name="Trazado 958355" d="M386.911,315.232" transform="translate(-367.878 -306.112)" fill="none" stroke="#0f1446" stroke-miterlimit="10" stroke-width="0.467"/>
              </g>
            </g>
            <g id="Grupo_1116656" data-name="Grupo 1116656" transform="translate(0 18.002)">
              <path id="Trazado_958356" data-name="Trazado 958356" d="M326.325,210.675c-2.585,4.353-3.84,12.75-9.326,16.5-4.083.946-14.51,4.193-14.51,4.193l.576,3.027s13.348-.96,17.283-2.524c6.33-2.516,11.76-11.872,12.863-17.688S327.51,208.678,326.325,210.675Z" transform="translate(-302.49 -209.371)" fill="#1c9585"/>
            </g>
            <g id="Grupo_1116666" data-name="Grupo 1116666" transform="translate(23.514 49.671)">
              <g id="Grupo_1116664" data-name="Grupo 1116664" transform="translate(0 10.922)">
                <g id="Grupo_1116658" data-name="Grupo 1116658" transform="translate(0 25.866)">
                  <g id="Grupo_1116657" data-name="Grupo 1116657" transform="translate(0 1.646)">
                    <path id="Trazado_958357" data-name="Trazado 958357" d="M372.5,395.257h-6.885a.7.7,0,0,1-.639-.976,2.725,2.725,0,0,1,1.255-1.425c1.188-.513,4.2-1.545,4.2-1.545l2.538.067c.631.485.686,1.666.44,3.3C373.355,395.016,372.838,395.257,372.5,395.257Z" transform="translate(-364.375 -391.31)" fill="#32285f"/>
                    <path id="Trazado_958358" data-name="Trazado 958358" d="M363.91,400.844h8.553a.393.393,0,0,0,.393-.393h0a.393.393,0,0,0-.393-.393H363.91a.393.393,0,0,0-.393.393h0A.393.393,0,0,0,363.91,400.844Z" transform="translate(-363.517 -396.688)" fill="#fff"/>
                  </g>
                  <path id="Trazado_958359" data-name="Trazado 958359" d="M380.122,389.307a1.467,1.467,0,0,0,1.645,0A.48.48,0,0,0,382,388.9v-1.862h-2.108V388.9A.48.48,0,0,0,380.122,389.307Z" transform="translate(-373.582 -387.038)" fill="#ff9669"/>
                </g>
                <g id="Grupo_1116662" data-name="Grupo 1116662" transform="translate(3.477 28.524)">
                  <g id="Grupo_1116659" data-name="Grupo 1116659" transform="translate(1.798)">
                    <path id="Trazado_958360" data-name="Trazado 958360" d="M378.693,396.316l-1.485-2.2.269-.181,1.608,2.379Z" transform="translate(-377.208 -393.938)" fill="#e69632"/>
                  </g>
                  <g id="Grupo_1116660" data-name="Grupo 1116660" transform="translate(0.899 0.474)">
                    <path id="Trazado_958361" data-name="Trazado 958361" d="M376.039,397.073l-1.164-1.722.269-.182,1.287,1.9Z" transform="translate(-374.875 -395.169)" fill="#e69632"/>
                  </g>
                  <g id="Grupo_1116661" data-name="Grupo 1116661" transform="translate(0 0.949)">
                    <path id="Trazado_958362" data-name="Trazado 958362" d="M373.384,397.831l-.843-1.248.269-.182.966,1.43Z" transform="translate(-372.541 -396.401)" fill="#e69632"/>
                  </g>
                </g>
                <g id="Grupo_1116663" data-name="Grupo 1116663" transform="translate(0.394)">
                  <path id="Trazado_958363" data-name="Trazado 958363" d="M367.968,345.908c-2.43-10.925-3.428-25.838-3.428-25.838,2.018-1,7.349,2.923,7.349,2.923,3.209,4.007,1.648,13.335,1.35,22.915A13.592,13.592,0,0,1,367.968,345.908Z" transform="translate(-364.54 -319.908)" fill="#695a6e"/>
                </g>
              </g>
              <g id="Grupo_1116665" data-name="Grupo 1116665" transform="translate(0.395)">
                <path id="Trazado_958364" data-name="Trazado 958364" d="M372.652,306.421s11.776-1.23,13.294-8.337c.962-4.5-.262-6.522-.262-6.522l-12.821.516a19.981,19.981,0,0,0-8.321,10.568Z" transform="translate(-364.542 -291.562)" fill="#695a6e"/>
                <path id="Trazado_958365" data-name="Trazado 958365" d="M410.064,300.83s-.267,2.125,2.341,3.43Z" transform="translate(-392.519 -297.259)" fill="#50374b"/>
                <path id="Trazado_958366" data-name="Trazado 958366" d="M413.938,315.232" transform="translate(-394.905 -306.112)" fill="none" stroke="#0f1446" stroke-miterlimit="10" stroke-width="0.467"/>
              </g>
            </g>
            <path id="Trazado_958367" data-name="Trazado 958367" d="M390.858,291.466s-6.982,3.082-13.253,2.8-5.166-4.111-5.166-4.111S388.183,290.221,390.858,291.466Z" transform="translate(-345.441 -241.028)" opacity="0.2"/>
            <path id="Trazado_958368" data-name="Trazado 958368" d="M364.013,211.046a2.133,2.133,0,0,1,2-2c4.188-.262,15.35-.593,17.494,1.114,2.126,1.693,3.878,31.315,3.878,31.315s-12.488,2-20.006-.766C367.374,240.708,363.358,221.951,364.013,211.046Z" transform="translate(-340.263 -191.037)" fill="#50374b"/>
            <g id="Grupo_1116671" data-name="Grupo 1116671" transform="translate(22.009)">
              <g id="Grupo_1116670" data-name="Grupo 1116670" transform="translate(2.739 0.88)">
                <g id="Grupo_1116669" data-name="Grupo 1116669">
                  <path id="Trazado_958369" data-name="Trazado 958369" d="M381.444,204.3h0a2.747,2.747,0,0,0,2.534-2.945l-.3-4.034-5.479.411.3,4.034A2.747,2.747,0,0,0,381.444,204.3Z" transform="translate(-373.774 -184.844)" fill="#ff9669"/>
                  <path id="Trazado_958370" data-name="Trazado 958370" d="M378.515,201.967a7.66,7.66,0,0,0,5.335-2.325l-.173-2.316-5.479.411Z" transform="translate(-373.775 -184.844)" fill="#ff640a"/>
                  <path id="Trazado_958371" data-name="Trazado 958371" d="M371.6,185.446l1.477-.111a2.633,2.633,0,0,0,1.359-.5l1.262-.925a5.878,5.878,0,0,0,2.487-5.16l-.466-6.216-10.746.805.6,8.042a1.44,1.44,0,0,0,.18.6C368.256,182.887,369.9,185.574,371.6,185.446Z" transform="translate(-366.872 -169.608)" fill="#ff9669"/>
                  <g id="Grupo_1116667" data-name="Grupo 1116667" transform="translate(6.077 7.798)">
                    <path id="Trazado_958372" data-name="Trazado 958372" d="M382.5,186.179c.052.53.315.938.588.911s.45-.478.4-1.008-.316-.937-.588-.91S382.447,185.649,382.5,186.179Z" transform="translate(-382.49 -185.17)" fill="#1e1632"/>
                    <path id="Trazado_958373" data-name="Trazado 958373" d="M382.8,187.686c.015.2.116.363.225.354s.185-.18.17-.384-.116-.363-.225-.354S382.782,187.482,382.8,187.686Z" transform="translate(-382.678 -186.48)" fill="#fff"/>
                  </g>
                  <g id="Grupo_1116668" data-name="Grupo 1116668" transform="translate(1.821 8.117)">
                    <path id="Trazado_958374" data-name="Trazado 958374" d="M371.455,187.006c.052.53.315.938.587.911s.45-.478.4-1.008-.316-.937-.588-.911S371.4,186.476,371.455,187.006Z" transform="translate(-371.446 -185.997)" fill="#1e1632"/>
                    <path id="Trazado_958375" data-name="Trazado 958375" d="M371.764,188.513c.015.2.116.363.225.354s.185-.18.17-.384-.116-.363-.225-.354S371.748,188.309,371.764,188.513Z" transform="translate(-371.64 -187.307)" fill="#fff"/>
                  </g>
                  <path id="Trazado_958376" data-name="Trazado 958376" d="M375.518,188.482v-.006a1.891,1.891,0,0,0,.53-1.546,1.194,1.194,0,0,1-.522,1.653.7.7,0,0,0-.008.174.751.751,0,0,0,1.236.517.751.751,0,0,1-1.45-.217A.742.742,0,0,1,375.518,188.482Z" transform="translate(-371.995 -178.454)" fill="#ff640a"/>
                  <path id="Trazado_958377" data-name="Trazado 958377" d="M369.414,192.295a.855.855,0,1,0,.781-.722A.763.763,0,0,0,369.414,192.295Z" transform="translate(-368.374 -181.306)" fill="#ff640a"/>
                  <path id="Trazado_958378" data-name="Trazado 958378" d="M384.623,191.155a.856.856,0,1,0,.782-.722A.763.763,0,0,0,384.623,191.155Z" transform="translate(-377.723 -180.605)" fill="#ff640a"/>
                  <path id="Trazado_958379" data-name="Trazado 958379" d="M380.645,183.477l2-.149-.034-.449-2.891-.2h0A.867.867,0,0,0,380.645,183.477Z" transform="translate(-374.708 -175.84)" fill="#69280f"/>
                  <path id="Trazado_958380" data-name="Trazado 958380" d="M367.648,184.451l2-.149-.034-.449-2.891-.2h0A.866.866,0,0,0,367.648,184.451Z" transform="translate(-366.719 -176.438)" fill="#69280f"/>
                  <path id="Trazado_958381" data-name="Trazado 958381" d="M376.149,195.791a1.233,1.233,0,0,0,2.458-.184Z" transform="translate(-372.516 -183.788)" fill="#fff"/>
                  <path id="Trazado_958382" data-name="Trazado 958382" d="M393.182,176.84l.523-.039a1.54,1.54,0,0,0,1.421-1.651l-.622-8.307a2.065,2.065,0,0,0-2.213-1.9h0Z" transform="translate(-382.437 -164.932)" fill="#69280f"/>
                  <path id="Trazado_958383" data-name="Trazado 958383" d="M392.57,184.451a1.642,1.642,0,1,0,1.49-1.949A1.741,1.741,0,0,0,392.57,184.451Z" transform="translate(-382.606 -175.729)" fill="#ff9669"/>
                  <path id="Trazado_958384" data-name="Trazado 958384" d="M395.233,186.214a.645.645,0,0,0,.654.632,1.25,1.25,0,0,1-.1-1.356A.646.646,0,0,0,395.233,186.214Z" transform="translate(-384.245 -177.569)" fill="#ff640a"/>
                  <rect id="Rectángulo_416157" data-name="Rectángulo 416157" width="1.221" height="9.171" transform="matrix(-0.997, 0.075, -0.075, -0.997, 10.797, 10.718)" fill="#69280f"/>
                </g>
              </g>
              <path id="Trazado_958385" data-name="Trazado 958385" d="M371.631,167.744s-6.411,2.05-7.715,1.893-.259-.625-.259-.625-3.835.536-4.032-2,1.548-3.725,3.6-3.738a6.045,6.045,0,0,1,3.139.694s-.672-1.445.413-1.314,4.729.483,6.02,1.078S371.631,167.744,371.631,167.744Z" transform="translate(-359.609 -162.649)" fill="#69280f"/>
            </g>
            <g id="Grupo_1116672" data-name="Grupo 1116672" transform="translate(10.054 18.704)">
              <path id="Trazado_958386" data-name="Trazado 958386" d="M335.141,268.907s-2.047-1.4-3.451-1.077-2.162.808-2,.91c.3.192.833-.073,1.327-.134.617-.076.628.343.637.387.024.118-2.979.99-2.887,1.307.134.462,2.49-.466,2.391-.2s-2.736.812-2.565,1.227c.186.45,2.728-.386,2.853-.227s-2.461.5-2.168.9c.319.428,2.521-.339,2.748-.121.092.088-2.158.226-1.862.624s2.943-.233,3.071-.352,2.2-.91,1.986-2.856Z" transform="translate(-328.583 -245.978)" fill="#ff9669"/>
              <path id="Trazado_958387" data-name="Trazado 958387" d="M367.169,212.435c-2.352,4.2-2.738,12.513-8.794,16.191-4.078.965-14.18,5.062-14.18,5.062l.636,3.259s13.255,0,17.226-2.839c3.445-2.463,11.3-10.128,12.322-15.959C375.808,209.976,368.3,210.409,367.169,212.435Z" transform="translate(-338.18 -211.193)" fill="#1c9585"/>
            </g>
          </g>
          <g id="Grupo_1116674" data-name="Grupo 1116674" transform="translate(31.12 36.39)">
            <path id="Trazado_958388" data-name="Trazado 958388" d="M380.4,265.849h-4.042l-.585-8.384h5.212Z" transform="translate(-375.232 -257.322)" fill="#fff"/>
            <rect id="Rectángulo_416158" data-name="Rectángulo 416158" width="6.296" height="1.871" fill="#1e1632"/>
          </g>
          <g id="Grupo_1116675" data-name="Grupo 1116675" transform="translate(0 32.434)">
            <path id="Trazado_958389" data-name="Trazado 958389" d="M294.337,260.516c-.086.308.392.711,1.068.9s1.293.092,1.379-.217-.392-.711-1.068-.9S294.423,260.208,294.337,260.516Z" transform="translate(-294.047 -255.049)" fill="#ff9669"/>
            <path id="Trazado_958390" data-name="Trazado 958390" d="M297.87,258.444h7.685a29.258,29.258,0,0,1-4.269-11.617H293.6A23.459,23.459,0,0,0,297.87,258.444Z" transform="translate(-293.601 -246.827)" fill="#b2e9ed"/>
            <path id="Trazado_958391" data-name="Trazado 958391" d="M296.134,264.851c0,.28.5.507,1.12.507s1.12-.227,1.12-.507-.5-.507-1.12-.507S296.134,264.571,296.134,264.851Z" transform="translate(-295.158 -257.595)" fill="#ff9669"/>
            <ellipse id="Elipse_13562" data-name="Elipse 13562" cx="1.12" cy="0.507" rx="1.12" ry="0.507" transform="translate(1.245 7.688)" fill="#ff9669"/>
            <path id="Trazado_958392" data-name="Trazado 958392" d="M297.528,269.726c0,.28.5.507,1.12.507s1.12-.227,1.12-.507-.5-.507-1.12-.507S297.528,269.446,297.528,269.726Z" transform="translate(-296.015 -260.591)" fill="#ff9669"/>
            <ellipse id="Elipse_13563" data-name="Elipse 13563" cx="1.12" cy="0.507" rx="1.12" ry="0.507" transform="translate(1.935 9.486)" fill="#ff9669"/>
          </g>
        </g>
        <g id="Grupo_1116710" data-name="Grupo 1116710" transform="translate(138.537 25.206)">
          <g id="Grupo_1116679" data-name="Grupo 1116679" transform="translate(19.673 20.741)">
            <path id="Trazado_958393" data-name="Trazado 958393" d="M540.913,383.426l-11.764-5.882-11.764,5.882" transform="translate(-507.04 -315.304)" fill="none" stroke="#32285f" stroke-miterlimit="10" stroke-width="5.512"/>
            <line id="Línea_27193" data-name="Línea 27193" y1="19.139" transform="translate(22.109 43.102)" fill="none" stroke="#32285f" stroke-miterlimit="10" stroke-width="5.512"/>
            <path id="Trazado_958394" data-name="Trazado 958394" d="M518.082,260.414h29.55l4.517-38.566a5.23,5.23,0,0,0-5.194-5.838H532.338a5.23,5.23,0,0,0-5.1,4.072Z" transform="translate(-507.468 -216.01)" fill="#fa503c"/>
            <rect id="Rectángulo_416159" data-name="Rectángulo 416159" width="14.592" height="2.565" transform="translate(29.163 46.969) rotate(180)" fill="#828291"/>
            <g id="Grupo_1116677" data-name="Grupo 1116677" transform="translate(28.31 64.266)">
              <circle id="Elipse_13564" data-name="Elipse 13564" cx="3.168" cy="3.168" r="3.168" transform="matrix(0.973, -0.231, 0.231, 0.973, 0, 1.461)" fill="#32285f"/>
              <circle id="Elipse_13565" data-name="Elipse 13565" cx="1.553" cy="1.553" r="1.553" transform="translate(2.246 2.262)" fill="#828291"/>
            </g>
            <g id="Grupo_1116678" data-name="Grupo 1116678" transform="translate(7.749 63.601)">
              <circle id="Elipse_13566" data-name="Elipse 13566" cx="3.168" cy="3.168" r="3.168" transform="translate(0 4.48) rotate(-45)" fill="#32285f"/>
              <circle id="Elipse_13567" data-name="Elipse 13567" cx="1.553" cy="1.553" r="1.553" transform="translate(2.93 2.927)" fill="#828291"/>
            </g>
            <path id="Trazado_958395" data-name="Trazado 958395" d="M495.384,316.358h30.209A5.141,5.141,0,0,1,530.7,322.1H490.536v-.891A4.848,4.848,0,0,1,495.384,316.358Z" transform="translate(-490.536 -277.693)" fill="#db372a"/>
          </g>
          <path id="Trazado_958396" data-name="Trazado 958396" d="M561.9,187.192a4.43,4.43,0,0,1-4.43,4.43c-2.447,0-7.3-2.5-7.3-4.949s4.848-3.911,7.3-3.911A4.43,4.43,0,0,1,561.9,187.192Z" transform="translate(-507.52 -174.832)" fill="#1e1632"/>
          <circle id="Elipse_13568" data-name="Elipse 13568" cx="8.299" cy="8.299" r="8.299" transform="translate(29.07)" fill="#1e1632"/>
          <g id="Grupo_1116702" data-name="Grupo 1116702" transform="translate(0.807 1.667)">
            <g id="Grupo_1116684" data-name="Grupo 1116684" transform="translate(17.865 48.185)">
              <g id="Grupo_1116682" data-name="Grupo 1116682" transform="translate(0 36.788)">
                <g id="Grupo_1116681" data-name="Grupo 1116681">
                  <g id="Grupo_1116680" data-name="Grupo 1116680" transform="translate(0 1.646)">
                    <path id="Trazado_958397" data-name="Trazado 958397" d="M496.922,395.257h-6.885a.7.7,0,0,1-.639-.976,2.725,2.725,0,0,1,1.255-1.425c1.188-.513,4.2-1.545,4.2-1.545l2.538.067c.631.485.686,1.666.44,3.3C497.777,395.016,497.26,395.257,496.922,395.257Z" transform="translate(-488.797 -391.31)" fill="#e69632"/>
                    <path id="Trazado_958398" data-name="Trazado 958398" d="M488.332,400.844h8.553a.393.393,0,0,0,.393-.393h0a.393.393,0,0,0-.393-.393h-8.553a.393.393,0,0,0-.393.393h0A.393.393,0,0,0,488.332,400.844Z" transform="translate(-487.939 -396.688)" fill="#fff"/>
                  </g>
                  <path id="Trazado_958399" data-name="Trazado 958399" d="M504.544,389.307a1.467,1.467,0,0,0,1.645,0,.48.48,0,0,0,.231-.407v-1.862h-2.108V388.9A.48.48,0,0,0,504.544,389.307Z" transform="translate(-498.004 -387.038)" fill="#fff"/>
                </g>
              </g>
              <g id="Grupo_1116683" data-name="Grupo 1116683" transform="translate(0.395)">
                <path id="Trazado_958400" data-name="Trazado 958400" d="M497.073,306.421s12.952-3.745,13.294-8.337-.262-6.522-.262-6.522l-6.42.258A16.211,16.211,0,0,0,489.013,302.5l-.051.144Z" transform="translate(-488.963 -291.562)" fill="#50374b"/>
                <path id="Trazado_958401" data-name="Trazado 958401" d="M539.54,316.243" transform="translate(-520.052 -306.733)" fill="none" stroke="#0f1446" stroke-miterlimit="10" stroke-width="0.467"/>
                <path id="Trazado_958402" data-name="Trazado 958402" d="M532.615,295.365" transform="translate(-515.796 -293.9)" fill="none" stroke="#0f1446" stroke-miterlimit="10" stroke-width="0.467"/>
                <path id="Trazado_958403" data-name="Trazado 958403" d="M538.936,367.118" transform="translate(-519.681 -338.006)" fill="none" stroke="#0f1446" stroke-miterlimit="10" stroke-width="0.467"/>
                <path id="Trazado_958404" data-name="Trazado 958404" d="M538.36,315.232" transform="translate(-519.327 -306.112)" fill="none" stroke="#0f1446" stroke-miterlimit="10" stroke-width="0.467"/>
              </g>
            </g>
            <g id="Grupo_1116685" data-name="Grupo 1116685" transform="translate(0 16.516)">
              <path id="Trazado_958405" data-name="Trazado 958405" d="M477.774,210.675c-2.585,4.353-3.84,12.75-9.326,16.5-4.083.946-14.51,4.193-14.51,4.193l.576,3.027s13.348-.96,17.283-2.524c6.33-2.516,11.76-11.872,12.863-17.688S478.959,208.678,477.774,210.675Z" transform="translate(-449.174 -209.371)" fill="#d8c5b6"/>
              <path id="Trazado_958406" data-name="Trazado 958406" d="M447.056,266.278s-2.353-1.364-3.758-1.052-1.853.757-1.693.859c.3.193.831-.114,1.328-.128.293-.008.493.071.5.114.023.118-1.574.754-1.483,1.072.131.463,1.215.043,1.115.307s-1.03.486-.86.9c.183.45,1.02-.06,1.143.1s-.788.506-.5.9c.317.43.952-.2,1.177.021.091.089-.413.248-.118.648s1.094-.4,1.223-.513,2.205-.9,2-2.847Z" transform="translate(-441.573 -243.677)" fill="#ff9669"/>
            </g>
            <g id="Grupo_1116696" data-name="Grupo 1116696" transform="translate(18.26 48.185)">
              <g id="Grupo_1116694" data-name="Grupo 1116694" transform="translate(0 10.922)">
                <g id="Grupo_1116687" data-name="Grupo 1116687" transform="translate(10.019 25.866)">
                  <g id="Grupo_1116686" data-name="Grupo 1116686" transform="translate(0 1.646)">
                    <path id="Trazado_958407" data-name="Trazado 958407" d="M523.949,395.257h-6.885a.7.7,0,0,1-.639-.976,2.725,2.725,0,0,1,1.255-1.425c1.188-.513,4.2-1.545,4.2-1.545l2.538.067c.631.485.686,1.666.44,3.3C524.8,395.016,524.287,395.257,523.949,395.257Z" transform="translate(-515.824 -391.31)" fill="#e69632"/>
                    <path id="Trazado_958408" data-name="Trazado 958408" d="M515.359,400.844h8.553a.392.392,0,0,0,.393-.393h0a.392.392,0,0,0-.393-.393h-8.553a.393.393,0,0,0-.393.393h0A.393.393,0,0,0,515.359,400.844Z" transform="translate(-514.966 -396.688)" fill="#fff"/>
                  </g>
                  <path id="Trazado_958409" data-name="Trazado 958409" d="M531.57,389.307a1.467,1.467,0,0,0,1.645,0,.48.48,0,0,0,.231-.407v-1.862h-2.108V388.9A.48.48,0,0,0,531.57,389.307Z" transform="translate(-525.03 -387.038)" fill="#fff"/>
                </g>
                <g id="Grupo_1116691" data-name="Grupo 1116691" transform="translate(13.496 28.524)">
                  <g id="Grupo_1116688" data-name="Grupo 1116688" transform="translate(1.798)">
                    <path id="Trazado_958410" data-name="Trazado 958410" d="M530.142,396.316l-1.485-2.2.269-.181,1.608,2.379Z" transform="translate(-528.657 -393.938)" fill="#fff"/>
                  </g>
                  <g id="Grupo_1116689" data-name="Grupo 1116689" transform="translate(0.899 0.474)">
                    <path id="Trazado_958411" data-name="Trazado 958411" d="M527.488,397.073l-1.164-1.722.269-.182,1.287,1.9Z" transform="translate(-526.324 -395.169)" fill="#fff"/>
                  </g>
                  <g id="Grupo_1116690" data-name="Grupo 1116690" transform="translate(0 0.949)">
                    <path id="Trazado_958412" data-name="Trazado 958412" d="M524.833,397.831l-.843-1.248.269-.182.966,1.43Z" transform="translate(-523.99 -396.401)" fill="#fff"/>
                  </g>
                </g>
                <g id="Grupo_1116692" data-name="Grupo 1116692">
                  <path id="Trazado_958413" data-name="Trazado 958413" d="M497.154,342.5c.566-8.4,2.013-15.943-.842-19.508,0,0-5.33-3.918-7.349-2.923,0,0,2.526,12.067,4.785,22.431l1.868.124Z" transform="translate(-488.963 -319.908)" fill="#ff9669"/>
                </g>
                <g id="Grupo_1116693" data-name="Grupo 1116693" transform="translate(10.413)">
                  <path id="Trazado_958414" data-name="Trazado 958414" d="M523.338,322.993s-5.33-3.918-7.349-2.923c0,0,2.576,12.3,4.838,22.672a3.447,3.447,0,0,1,.755.124h2.608C524.768,334.477,526.163,326.519,523.338,322.993Z" transform="translate(-515.989 -319.908)" fill="#ff9669"/>
                </g>
              </g>
              <g id="Grupo_1116695" data-name="Grupo 1116695" transform="translate(10.413)">
                <path id="Trazado_958415" data-name="Trazado 958415" d="M524.1,306.421s13.608-4.229,13.949-8.821a52,52,0,0,0,.242-6.038l-13.98.516a19.981,19.981,0,0,0-8.321,10.568Z" transform="translate(-515.989 -291.562)" fill="#695a6e"/>
                <path id="Trazado_958416" data-name="Trazado 958416" d="M561.513,300.83s-.267,2.125,2.341,3.43Z" transform="translate(-543.967 -297.259)" fill="#0f1446"/>
                <path id="Trazado_958417" data-name="Trazado 958417" d="M553.63,296.179c0,3.81,6.635,2.574,7.811-2.3" transform="translate(-539.127 -292.987)" fill="none" stroke="#50374b" stroke-miterlimit="10" stroke-width="0.467"/>
                <path id="Trazado_958418" data-name="Trazado 958418" d="M565.387,315.232" transform="translate(-546.354 -306.112)" fill="none" stroke="#0f1446" stroke-miterlimit="10" stroke-width="0.467"/>
              </g>
            </g>
            <path id="Trazado_958419" data-name="Trazado 958419" d="M542.306,291.466s-6.982,3.082-13.253,2.8-5.166-4.111-5.166-4.111S539.631,290.221,542.306,291.466Z" transform="translate(-492.125 -242.515)" opacity="0.2"/>
            <path id="Trazado_958420" data-name="Trazado 958420" d="M515.554,211.046c-.15-1.066.921-1.934,2-2,4.188-.262,15.35-.593,17.494,1.114,2.126,1.693,3.878,31.315,3.878,31.315s-12.488,2-20.006-.766c0,0-.009-7.511-.764-16.531a2.661,2.661,0,0,0-1.263-1.991,2.743,2.743,0,0,1-1.227-2.9A31.228,31.228,0,0,0,515.554,211.046Z" transform="translate(-487.04 -192.524)" fill="#f0e1d3"/>
            <path id="Trazado_958421" data-name="Trazado 958421" d="M523.728,246.666l8.931.042S527.722,244.755,523.728,246.666Z" transform="translate(-492.073 -215.265)" fill="#d8c5b6"/>
            <g id="Grupo_1116701" data-name="Grupo 1116701" transform="translate(29.512)">
              <g id="Grupo_1116700" data-name="Grupo 1116700">
                <g id="Grupo_1116699" data-name="Grupo 1116699">
                  <path id="Trazado_958422" data-name="Trazado 958422" d="M532.893,204.3h0a2.747,2.747,0,0,0,2.534-2.945l-.3-4.034-5.479.411.3,4.034A2.747,2.747,0,0,0,532.893,204.3Z" transform="translate(-525.223 -185.451)" fill="#ff9669"/>
                  <path id="Trazado_958423" data-name="Trazado 958423" d="M529.964,201.967a7.66,7.66,0,0,0,5.335-2.325l-.173-2.316-5.479.411Z" transform="translate(-525.224 -185.451)" fill="#ff640a"/>
                  <path id="Trazado_958424" data-name="Trazado 958424" d="M523.045,181.739l1.477-.111a2.635,2.635,0,0,0,1.359-.5l1.262-.925a5.878,5.878,0,0,0,2.487-5.16l-.466-8.54-10.746.805.6,10.366a1.441,1.441,0,0,0,.18.6C519.7,179.179,521.351,181.866,523.045,181.739Z" transform="translate(-518.321 -166.507)" fill="#ff9669"/>
                  <g id="Grupo_1116697" data-name="Grupo 1116697" transform="translate(6.077 7.776)">
                    <path id="Trazado_958425" data-name="Trazado 958425" d="M534.934,187.6c-.052-.53-.315-.937-.588-.91s-.45.478-.4,1.008" transform="translate(-533.939 -186.688)" fill="none" stroke="#1e1632" stroke-miterlimit="10" stroke-width="0.759"/>
                  </g>
                  <g id="Grupo_1116698" data-name="Grupo 1116698" transform="translate(1.822 8.094)">
                    <path id="Trazado_958426" data-name="Trazado 958426" d="M523.889,188.427c-.052-.53-.315-.937-.587-.911s-.45.478-.4,1.008" transform="translate(-522.895 -187.515)" fill="none" stroke="#1e1632" stroke-miterlimit="10" stroke-width="0.759"/>
                  </g>
                  <path id="Trazado_958427" data-name="Trazado 958427" d="M526.967,188.482v-.006a1.891,1.891,0,0,0,.53-1.546,1.194,1.194,0,0,1-.522,1.653.724.724,0,0,0-.009.174.751.751,0,0,0,1.236.517.751.751,0,0,1-1.45-.217A.741.741,0,0,1,526.967,188.482Z" transform="translate(-523.443 -179.061)" fill="#ff640a"/>
                  <path id="Trazado_958428" data-name="Trazado 958428" d="M520.863,192.295a.856.856,0,1,0,.782-.722A.763.763,0,0,0,520.863,192.295Z" transform="translate(-519.823 -181.913)" fill="#ff640a"/>
                  <path id="Trazado_958429" data-name="Trazado 958429" d="M536.071,191.155a.856.856,0,1,0,.782-.722A.763.763,0,0,0,536.071,191.155Z" transform="translate(-529.171 -181.212)" fill="#ff640a"/>
                  <path id="Trazado_958430" data-name="Trazado 958430" d="M532.094,183.477l2-.149-.034-.449-2.891-.2h0A.866.866,0,0,0,532.094,183.477Z" transform="translate(-526.157 -176.447)" fill="#1e1632"/>
                  <path id="Trazado_958431" data-name="Trazado 958431" d="M519.1,184.451l2-.149-.033-.449-2.891-.2h0A.867.867,0,0,0,519.1,184.451Z" transform="translate(-518.167 -177.045)" fill="#1e1632"/>
                  <path id="Trazado_958432" data-name="Trazado 958432" d="M527.6,195.791a1.233,1.233,0,0,0,2.458-.184Z" transform="translate(-523.964 -184.395)" fill="#fff"/>
                  <path id="Trazado_958433" data-name="Trazado 958433" d="M544.019,184.451a1.642,1.642,0,1,0,1.49-1.949A1.741,1.741,0,0,0,544.019,184.451Z" transform="translate(-534.054 -176.336)" fill="#ff9669"/>
                  <path id="Trazado_958434" data-name="Trazado 958434" d="M546.681,186.214a.645.645,0,0,0,.654.632,1.249,1.249,0,0,1-.1-1.356A.646.646,0,0,0,546.681,186.214Z" transform="translate(-535.693 -178.176)" fill="#ff640a"/>
                </g>
              </g>
            </g>
          </g>
          <path id="Trazado_958435" data-name="Trazado 958435" d="M525.188,164.525s-3.08,6.335-10.246,6.335c0,0-.987-4.227.742-5.423C519.646,162.7,525.188,164.525,525.188,164.525Z" transform="translate(-485.693 -163.254)" fill="#1e1632"/>
          <path id="Trazado_958436" data-name="Trazado 958436" d="M536.091,167.079s-3.88,4.418-3.1,5.015,3.1-4.3,3.1-4.3-1.294,3.761-.558,3.94S536.688,168.571,536.091,167.079Z" transform="translate(-496.894 -165.191)" fill="#1e1632"/>
          <path id="Trazado_958437" data-name="Trazado 958437" d="M543.273,172.672c-.338-.042-.737.215-1.173.652a.539.539,0,0,1-.914-.4,24.629,24.629,0,0,0-.81-6.416h2.756Z" transform="translate(-501.5 -164.84)" fill="#1e1632"/>
          <g id="Grupo_1116703" data-name="Grupo 1116703" transform="translate(0 30.931)">
            <path id="Trazado_958438" data-name="Trazado 958438" d="M439.663,244.473l20.656,12.3,1.114-.613L458.7,244.539a2.662,2.662,0,0,0-2.6-2.083H441.633a1.764,1.764,0,0,0-1.657,1.159Z" transform="translate(-439.592 -242.456)" fill="#41378c"/>
            <path id="Trazado_958439" data-name="Trazado 958439" d="M442.364,258.644h17.842l-2.817-11.466a2.154,2.154,0,0,0-2.1-1.685H440.724a1.244,1.244,0,0,0-1.215,1.515Z" transform="translate(-439.479 -244.323)" fill="#1e1632"/>
          </g>
          <g id="Grupo_1116704" data-name="Grupo 1116704" transform="translate(18.478 18.885)">
            <path id="Trazado_958440" data-name="Trazado 958440" d="M520.3,212.435c-2.352,4.2-2.307,11.975-7.246,15.86-3.5.829-11.843,4.047-14.12,4.935a.869.869,0,0,0-.552.856l.079,1.609a.873.873,0,0,0,.86.831c2.876.04,12.5-.016,15.865-2.419,3.445-2.463,11.3-10.128,12.322-15.959C528.941,209.976,521.436,210.409,520.3,212.435Z" transform="translate(-494.165 -211.193)" fill="#d8c5b6"/>
            <path id="Trazado_958441" data-name="Trazado 958441" d="M492.727,268.288c-.319-.873-1.992-1.852-3.431-1.859s-1.975.327-1.842.462c.251.255.835.073,1.323.17.287.057.465.178.464.223,0,.12-1.7.386-1.684.716.025.48,1.176.312,1.019.548s-1.112.245-1.039.688c.079.48,1.008.168,1.093.35s-.881.318-.685.768c.213.489.972.018,1.144.282.069.107-.457.15-.259.605s1.154-.143,1.307-.228S493.384,270.087,492.727,268.288Z" transform="translate(-487.435 -245.146)" fill="#ff9669"/>
          </g>
          <g id="Grupo_1116705" data-name="Grupo 1116705" transform="translate(7.415 37.655)">
            <path id="Trazado_958442" data-name="Trazado 958442" d="M460.768,262.42h-1.411l-.634-2.513h1.411Z" transform="translate(-458.723 -259.907)" fill="#41378c"/>
            <path id="Trazado_958443" data-name="Trazado 958443" d="M466.064,262.42h-1.411l-.634-2.513h1.411Z" transform="translate(-461.978 -259.907)" fill="#41378c"/>
          </g>
          <line id="Línea_27194" data-name="Línea 27194" x1="9.264" y2="6.576" transform="translate(38.1 55.167)" fill="none" stroke="#50374b" stroke-miterlimit="10" stroke-width="0.467"/>
          <g id="Grupo_1116706" data-name="Grupo 1116706" transform="translate(23.852 83.366)">
            <path id="Trazado_958444" data-name="Trazado 958444" d="M501.382,378.543c.39,1.788.771,3.524,1.129,5.135,1.325.324.923-1.5,2.108-1.862.034-1.1.095-2.192.169-3.273Z" transform="translate(-501.382 -378.543)" fill="#fff"/>
          </g>
          <g id="Grupo_1116707" data-name="Grupo 1116707" transform="translate(23.99 84.002)">
            <path id="Trazado_958445" data-name="Trazado 958445" d="M504.933,380.852c.013-.22.024-.44.038-.659h-3.228l.144.659Z" transform="translate(-501.742 -380.193)" fill="#fac855"/>
            <path id="Trazado_958446" data-name="Trazado 958446" d="M505.273,383.9c.011-.245.019-.49.032-.734h-2.912c.054.249.107.489.161.734Z" transform="translate(-502.142 -382.022)" fill="#fac855"/>
          </g>
          <g id="Grupo_1116708" data-name="Grupo 1116708" transform="translate(34.318 83.608)">
            <path id="Trazado_958447" data-name="Trazado 958447" d="M528.545,379.17c.371,1.7.734,3.355,1.077,4.893,1.325.324.923-.966,2.108-1.329.037-1.189.1-2.382.187-3.564Z" transform="translate(-528.545 -379.17)" fill="#fff"/>
          </g>
          <g id="Grupo_1116709" data-name="Grupo 1116709" transform="translate(34.428 84.113)">
            <path id="Trazado_958448" data-name="Trazado 958448" d="M532.01,381.337c.017-.286.032-.572.051-.857h-3.23l.188.857Z" transform="translate(-528.831 -380.48)" fill="#fac855"/>
            <path id="Trazado_958449" data-name="Trazado 958449" d="M532.42,384.665c.011-.231.018-.463.03-.694H529.6l.153.694Z" transform="translate(-529.301 -382.626)" fill="#fac855"/>
          </g>
        </g>
        <g id="Grupo_1116715" data-name="Grupo 1116715" transform="translate(60.774 70.222)">
          <g id="Grupo_1116711" data-name="Grupo 1116711" transform="translate(0 3.51)">
            <path id="Trazado_958450" data-name="Trazado 958450" d="M238.534,331.426l17.811-42.677-3.1-.628-15.582,43.3Z" transform="translate(-237.66 -288.122)" fill="#a5a0aa"/>
          </g>
          <g id="Grupo_1116712" data-name="Grupo 1116712" transform="translate(13.937 3.51)">
            <path id="Trazado_958451" data-name="Trazado 958451" d="M274.705,331.426l17.811-42.677-3.1-.628-15.582,43.3Z" transform="translate(-273.831 -288.122)" fill="#a5a0aa"/>
          </g>
          <g id="Grupo_1116713" data-name="Grupo 1116713" transform="translate(122.731 3.51)">
            <path id="Trazado_958452" data-name="Trazado 958452" d="M572.534,331.426,556.187,288.75l1.639-.628,15.582,43.3Z" transform="translate(-556.187 -288.122)" fill="#a5a0aa"/>
          </g>
          <g id="Grupo_1116714" data-name="Grupo 1116714" transform="translate(108.794 3.51)">
            <path id="Trazado_958453" data-name="Trazado 958453" d="M536.363,331.426,520.016,288.75l1.64-.628,15.582,43.3Z" transform="translate(-520.016 -288.122)" fill="#a5a0aa"/>
          </g>
          <rect id="Rectángulo_416160" data-name="Rectángulo 416160" width="118.036" height="6.36" transform="translate(128.751 6.36) rotate(180)" fill="#fff"/>
          <rect id="Rectángulo_416161" data-name="Rectángulo 416161" width="118.036" height="2.064" transform="translate(128.751 8.424) rotate(180)" fill="#e6dcdc"/>
        </g>
        <g id="Grupo_1116728" data-name="Grupo 1116728" transform="translate(27.572 10.368)">
          <path id="Trazado_958454" data-name="Trazado 958454" d="M187.42,168.44a2.134,2.134,0,0,0-2-2c-4.188-.262-15.35-.593-17.494,1.114-2.126,1.693,1.221,31.315,1.221,31.315s12.488,2,20.006-.766C189.158,198.1,188.075,179.345,187.42,168.44Z" transform="translate(-161.161 -149.829)" fill="#c8e6eb"/>
          <g id="Grupo_1116717" data-name="Grupo 1116717" transform="translate(20.79 100.895)">
            <g id="Grupo_1116716" data-name="Grupo 1116716" transform="translate(0 1.646)">
              <path id="Trazado_958455" data-name="Trazado 958455" d="M206.938,393.746h6.885a.7.7,0,0,0,.639-.976,2.725,2.725,0,0,0-1.255-1.425c-1.188-.513-4.2-1.545-4.2-1.545l-2.538.067c-.631.485-.686,1.666-.44,3.3C206.083,393.5,206.6,393.746,206.938,393.746Z" transform="translate(-205.723 -389.799)" fill="#d77d14"/>
              <path id="Trazado_958456" data-name="Trazado 958456" d="M214.392,399.333h-8.553a.393.393,0,0,1-.393-.393h0a.393.393,0,0,1,.393-.393h8.553a.393.393,0,0,1,.393.393h0A.393.393,0,0,1,214.392,399.333Z" transform="translate(-205.446 -395.177)" fill="#965028"/>
            </g>
            <path id="Trazado_958457" data-name="Trazado 958457" d="M209.716,387.8a1.467,1.467,0,0,1-1.645,0,.48.48,0,0,1-.231-.407v-1.862h2.108v1.862A.48.48,0,0,1,209.716,387.8Z" transform="translate(-206.918 -385.526)" fill="#ff9669"/>
          </g>
          <g id="Grupo_1116719" data-name="Grupo 1116719" transform="translate(7.053 100.411)">
            <g id="Grupo_1116718" data-name="Grupo 1116718" transform="translate(0 1.883)">
              <path id="Trazado_958458" data-name="Trazado 958458" d="M170.645,395.781h2.4a2.259,2.259,0,0,0,1.994-1.176,2.366,2.366,0,0,0,.325-1.068,6.813,6.813,0,0,0-.937-3.017l-1.595.032a8.767,8.767,0,0,0-3.017,4.191A.849.849,0,0,0,170.645,395.781Z" transform="translate(-169.794 -389.995)" fill="#965028"/>
              <path id="Trazado_958459" data-name="Trazado 958459" d="M170.644,394.018h2.4a2.3,2.3,0,0,0,1.994-1.085,2.062,2.062,0,0,0,.325-.986,21.994,21.994,0,0,0-.14-2.3.554.554,0,0,0-.562-.493l-1.83.034s-2.474,1.7-3.017,3.868A.8.8,0,0,0,170.644,394.018Z" transform="translate(-169.794 -389.158)" fill="#d77d14"/>
            </g>
            <path id="Trazado_958460" data-name="Trazado 958460" d="M179.39,386.539a1.467,1.467,0,0,1-1.645,0,.48.48,0,0,1-.231-.407V384.27h2.108v1.863A.48.48,0,0,1,179.39,386.539Z" transform="translate(-174.539 -384.27)" fill="#ff9669"/>
          </g>
          <g id="Grupo_1116720" data-name="Grupo 1116720" transform="translate(17.71 47.626)">
            <path id="Trazado_958461" data-name="Trazado 958461" d="M208.837,344.4c2.43-10.925,3.428-25.838,3.428-25.838-2.019-1-5.856,2.923-5.856,2.923-3.209,4.007-1.648,13.336-1.35,22.915A7.041,7.041,0,0,0,208.837,344.4Z" transform="translate(-201.734 -290.993)" fill="#695a6e"/>
            <path id="Trazado_958462" data-name="Trazado 958462" d="M201.632,279.293s-3.422-19.34-3.948-23.915a24.006,24.006,0,0,1,0-7.028l9.977-1.075,1.044,8.825a12.338,12.338,0,0,1,.173,3.412l-.9,15.5Z" transform="translate(-197.45 -247.275)" fill="#695a6e"/>
            <path id="Trazado_958463" data-name="Trazado 958463" d="M205.532,250.064h-7.848a24.007,24.007,0,0,0,0,7.028c.281,2.447,1.543,9.491,2.819,15.279C199.853,263.824,200.425,252.955,205.532,250.064Z" transform="translate(-197.45 -248.989)" fill="#50374b"/>
          </g>
          <g id="Grupo_1116721" data-name="Grupo 1116721" transform="translate(7.991 48.273)">
            <path id="Trazado_958464" data-name="Trazado 958464" d="M174.747,343.479c.051-9.481-1.135-13.819,1.118-23.631,0,0,5.3-3.808,7.281-2.732,0,0-1.981,15.58-4.587,26.43A5.624,5.624,0,0,1,174.747,343.479Z" transform="translate(-173.612 -290.736)" fill="#695a6e"/>
            <path id="Trazado_958465" data-name="Trazado 958465" d="M174.481,278.069s-1.807-18-2.149-22.591.262-6.522.262-6.522l12.821.516-3.66,26.041Z" transform="translate(-172.227 -248.956)" fill="#695a6e"/>
            <path id="Trazado_958466" data-name="Trazado 958466" d="M178.78,258.224s.267,2.125-2.341,3.43Z" transform="translate(-174.816 -254.653)" fill="#50374b"/>
            <path id="Trazado_958467" data-name="Trazado 958467" d="M178.58,252.759a7.192,7.192,0,0,1-3.647,8.682" transform="translate(-173.89 -251.294)" fill="none" stroke="#50374b" stroke-miterlimit="10" stroke-width="0.467"/>
            <line id="Línea_27195" data-name="Línea 27195" x1="0.222" y2="19.993" transform="translate(2.254 9.12)" fill="none" stroke="#50374b" stroke-miterlimit="10" stroke-width="0.467"/>
          </g>
          <rect id="Rectángulo_416162" data-name="Rectángulo 416162" width="9.567" height="9.567" transform="translate(16.565 48.7)" fill="#695a6e"/>
          <path id="Trazado_958468" data-name="Trazado 958468" d="M172.227,248.689a43.54,43.54,0,0,0,13.188,1.983c6.272-.277,6.742-3.4,6.742-3.4S174.9,247.444,172.227,248.689Z" transform="translate(-164.236 -199.649)" opacity="0.2"/>
          <path id="Trazado_958469" data-name="Trazado 958469" d="M207.255,252.6s.489,8.4-1.239,8.743" transform="translate(-185.006 -202.922)" fill="none" stroke="#50374b" stroke-linecap="round" stroke-miterlimit="10" stroke-width="0.842"/>
          <path id="Trazado_958470" data-name="Trazado 958470" d="M194.288,170.7a18.124,18.124,0,0,1-6.168-6.074v-1.369c0-.066.6-.481.674-.773.527-2,5.608-.005,5.608-.005a1.668,1.668,0,0,1,.593.82A13.019,13.019,0,0,1,194.288,170.7Z" transform="translate(-174.005 -146.982)" fill="#fff"/>
          <g id="Grupo_1116726" data-name="Grupo 1116726" transform="translate(11.183)">
            <g id="Grupo_1116725" data-name="Grupo 1116725" transform="translate(0 0)">
              <g id="Grupo_1116724" data-name="Grupo 1116724">
                <path id="Trazado_958471" data-name="Trazado 958471" d="M194.752,165.1c-1.032,0-4.883-3.564-4.883-5.081v-4.045h5.494v4.045C195.363,161.532,195.363,165.1,194.752,165.1Z" transform="translate(-186.263 -143.525)" fill="#ff9669"/>
                <path id="Trazado_958472" data-name="Trazado 958472" d="M195.363,160.211a7.659,7.659,0,0,1-5.494-1.92v-2.322h5.494Z" transform="translate(-186.263 -143.524)" fill="#ff640a"/>
                <path id="Trazado_958473" data-name="Trazado 958473" d="M192.648,143.849h-1.481a2.636,2.636,0,0,1-1.392-.393l-1.328-.828a5.878,5.878,0,0,1-2.866-4.96v-6.233h10.776V139.5a1.437,1.437,0,0,1-.135.608C195.788,141.047,194.346,143.849,192.648,143.849Z" transform="translate(-183.628 -128.444)" fill="#ff9669"/>
                <g id="Grupo_1116722" data-name="Grupo 1116722" transform="translate(6.146 7.519)">
                  <path id="Trazado_958474" data-name="Trazado 958474" d="M197.451,144.161c-.013.532-.244.959-.518.952s-.485-.443-.472-.976.244-.959.518-.952S197.464,143.629,197.451,144.161Z" transform="translate(-196.461 -143.186)" fill="#1e1632"/>
                  <path id="Trazado_958475" data-name="Trazado 958475" d="M197.115,144.619c0,.2-.089.37-.2.37s-.2-.166-.2-.37.089-.37.2-.37S197.115,144.415,197.115,144.619Z" transform="translate(-196.62 -143.839)" fill="#fff"/>
                </g>
                <g id="Grupo_1116723" data-name="Grupo 1116723" transform="translate(10.413 7.519)">
                  <path id="Trazado_958476" data-name="Trazado 958476" d="M208.526,144.161c-.013.532-.244.959-.518.952s-.485-.443-.472-.976.244-.959.518-.952S208.539,143.629,208.526,144.161Z" transform="translate(-207.536 -143.186)" fill="#1e1632"/>
                  <path id="Trazado_958477" data-name="Trazado 958477" d="M208.191,144.619c0,.2-.089.37-.2.37s-.2-.166-.2-.37.089-.37.2-.37S208.191,144.415,208.191,144.619Z" transform="translate(-207.696 -143.839)" fill="#fff"/>
                </g>
                <path id="Trazado_958478" data-name="Trazado 958478" d="M204.065,146.452v-.006a1.891,1.891,0,0,1-.644-1.5,1.194,1.194,0,0,0,.644,1.61.708.708,0,0,1,.022.173.75.75,0,0,1-1.194.608.75.75,0,1,0,1.172-.882Z" transform="translate(-194.269 -136.748)" fill="#ff640a"/>
                <path id="Trazado_958479" data-name="Trazado 958479" d="M209.708,149.925a.856.856,0,1,1-.833-.662A.763.763,0,0,1,209.708,149.925Z" transform="translate(-197.433 -139.403)" fill="#ff640a"/>
                <path id="Trazado_958480" data-name="Trazado 958480" d="M194.9,149.925a.856.856,0,1,1-.833-.662A.763.763,0,0,1,194.9,149.925Z" transform="translate(-188.333 -139.403)" fill="#ff640a"/>
                <path id="Trazado_958481" data-name="Trazado 958481" d="M196,141.278h-2v-.45l2.867-.417h0A.867.867,0,0,1,196,141.278Z" transform="translate(-188.801 -133.961)" fill="#1e1632"/>
                <path id="Trazado_958482" data-name="Trazado 958482" d="M209.033,141.278h-2v-.45l2.867-.417h0A.867.867,0,0,1,209.033,141.278Z" transform="translate(-196.813 -133.961)" fill="#1e1632"/>
                <path id="Trazado_958483" data-name="Trazado 958483" d="M202.03,153.048a1.233,1.233,0,0,1-2.465,0Z" transform="translate(-192.223 -141.729)" fill="#fff"/>
                <path id="Trazado_958484" data-name="Trazado 958484" d="M184.283,135.607h-.524a1.54,1.54,0,0,1-1.54-1.54v-8.33a2.065,2.065,0,0,1,2.065-2.065h0v11.935Z" transform="translate(-181.56 -123.672)" fill="#1e1632"/>
                <path id="Trazado_958485" data-name="Trazado 958485" d="M183.773,143.326a1.642,1.642,0,1,1-1.631-1.833A1.74,1.74,0,0,1,183.773,143.326Z" transform="translate(-180.511 -134.626)" fill="#ff9669"/>
                <path id="Trazado_958486" data-name="Trazado 958486" d="M185.349,145.165a.646.646,0,0,1-.6.68,1.25,1.25,0,0,0,0-1.359A.645.645,0,0,1,185.349,145.165Z" transform="translate(-183.113 -136.466)" fill="#ff640a"/>
                <rect id="Rectángulo_416163" data-name="Rectángulo 416163" width="1.221" height="7.76" transform="translate(2.585 1.586)" fill="#1e1632"/>
              </g>
            </g>
            <path id="Trazado_958487" data-name="Trazado 958487" d="M184.559,128.363h11.028a1.98,1.98,0,0,0,1.98-1.98v-2.712H185.887A1.327,1.327,0,0,0,184.559,125v3.365Z" transform="translate(-182.999 -123.671)" fill="#1e1632"/>
          </g>
          <path id="Trazado_958488" data-name="Trazado 958488" d="M200.384,179.656l-1.352,1.572,2.562,2.363.781-2.947Z" transform="translate(-180.713 -158.085)" fill="#fa503c"/>
          <path id="Trazado_958489" data-name="Trazado 958489" d="M202.2,185.225c2.054,4.018,2.144,10.109,1.244,19.509a7.371,7.371,0,0,0,3.131,3.7,5.147,5.147,0,0,1,.708-3.853,62.827,62.827,0,0,0-3.442-18.871Z" transform="translate(-182.658 -161.508)" fill="#fa503c"/>
          <path id="Trazado_958490" data-name="Trazado 958490" d="M191.6,169.971l-2.136,2.4-4.4-4.7-.322-3,1.975-.773v2.14Z" transform="translate(-171.93 -148.399)" fill="#fff"/>
          <path id="Trazado_958491" data-name="Trazado 958491" d="M202.541,169.962l2.222,1.968.941-5.022-.744-2.244-1.7-.778.126,4.123Z" transform="translate(-182.87 -148.391)" fill="#fff"/>
          <path id="Trazado_958492" data-name="Trazado 958492" d="M204.7,244s2.495-1.847,4.129-1.672,2.2.622,2.031.758c-.318.258-.957-.023-1.523.024-.333.028-.551.143-.555.194-.012.136,4.421,1.049,4.376,1.423-.1.8-3.929-.193-3.783.095s4.055.966,3.916,1.458c-.151.534-3.989-.483-4.109-.287s3.275.815,3,1.3c-.3.527-3.422-.445-3.65-.168-.092.112,2.133.487,1.85.979s-2.924-.568-3.086-.685-2.616-.74-2.631-2.975Z" transform="translate(-184.174 -196.601)" fill="#ff9669"/>
          <path id="Trazado_958493" data-name="Trazado 958493" d="M159.983,211.492s-.842-4.461-.483-6.7c-.284-.119-1.353-.553-1.638-.673-1.851-.775-3.726-1.463-5.548-2.275-.114,4.563,1.431,10.949,2.736,13.409C157.035,218.992,161.026,216.886,159.983,211.492Z" transform="translate(-151.992 -171.722)" fill="#ff9669"/>
          <g id="Grupo_1116727" data-name="Grupo 1116727" transform="translate(0 17.639)">
            <path id="Trazado_958494" data-name="Trazado 958494" d="M161.89,177.45s-1.106,5.209-2.032,9.507c-1.949-.225-5.946-1.2-8.37-3.544a29.111,29.111,0,0,1,2.113-8.386c.889-2.044,3.818-5.874,5.2-5.557C161.227,170.028,162.538,176.117,161.89,177.45Z" transform="translate(-151.488 -169.451)" opacity="0.1"/>
            <path id="Trazado_958495" data-name="Trazado 958495" d="M161.89,177.452a57.818,57.818,0,0,0-2.709,8.6c-1.949-.225-5.269-.3-7.693-2.642a29.111,29.111,0,0,1,2.113-8.386c.889-2.044,3.815-5.86,5.2-5.557C163.307,170.461,162.538,176.12,161.89,177.452Z" transform="translate(-151.488 -169.453)" fill="#fff"/>
          </g>
          <path id="Trazado_958496" data-name="Trazado 958496" d="M178.011,233.378c-4.035-1.162-10.131-6.216-14.775-7.362-.009-.005-4.042,3.6-3.824,4.1,2.435,5.511,18.744,6.516,18.744,6.516S178.423,234.078,178.011,233.378Z" transform="translate(-156.353 -186.582)" fill="#ff9669"/>
        </g>
        <g id="Grupo_1116737" data-name="Grupo 1116737" transform="translate(113.845 31.588)">
          <path id="Trazado_958497" data-name="Trazado 958497" d="M449.91,182.607a8.26,8.26,0,0,1,7.226-3.86,6.3,6.3,0,0,1,4.1,1.263c2.921,2.813,9.724,2.321,9.36,7.408-.277,3.878-4.546,5.842,1.058,8.075,5.936,2.364,9.7,13.147,1.114,17.76s-25.6,1.23-27.353-5.682c-2.889-11.369,4.443-11.178,4.647-14.318s-1.67-8.244-1.67-8.244Z" transform="translate(-418.019 -178.742)" fill="#1e1632"/>
          <path id="Trazado_958498" data-name="Trazado 958498" d="M391.667,250.122s7.524,9.112,10.882,9.218,1.827-6.741,1.827-6.741l-12.709-5.722Z" transform="translate(-385.397 -220.625)" fill="#fff"/>
          <path id="Trazado_958499" data-name="Trazado 958499" d="M413.06,413.487h5.114l4.544-4.405h0a2.16,2.16,0,0,1-.389,2.688l-1.452,1.346a6.268,6.268,0,0,1-4.671,1.306l-2.472-.153a.79.79,0,0,1-.674-.781Z" transform="translate(-398.547 -320.33)" fill="#373c41"/>
          <path id="Trazado_958500" data-name="Trazado 958500" d="M427.655,230.315c-1.955,2.113-9.11,9.746-11,13.977a2.833,2.833,0,0,0,.753,2.906c1.6,1.478,13.505-8.8,16.036-11.532s3.287-6.151,1.69-7.628S430.185,227.58,427.655,230.315Z" transform="translate(-400.648 -208.628)" fill="#fff"/>
          <path id="Trazado_958501" data-name="Trazado 958501" d="M398.432,242.711l-10.445-2.148a1.822,1.822,0,0,1-1.362-1.209l-5.439-16.315a.445.445,0,0,1,.511-.576l10.445,2.148a1.822,1.822,0,0,1,1.362,1.209l5.439,16.315A.445.445,0,0,1,398.432,242.711Z" transform="translate(-378.941 -205.611)" fill="#f0e1d3"/>
          <path id="Trazado_958502" data-name="Trazado 958502" d="M415.053,288.653c-4.611-.366-20.463-2.212-20.831,2.427s16.5,13.717,23.01,14.225c8.77.684,12.255-6.183,12.624-10.822S419.663,289.019,415.053,288.653Z" transform="translate(-386.964 -245.892)" fill="#ff9669"/>
          <path id="Trazado_958503" data-name="Trazado 958503" d="M463.121,227.36H448.429c-2.469,0-4.052,5.477-4.052,5.477l-2.411,7.112a3.694,3.694,0,0,0,3.5,4.88h.146l1.611,15.659,9.877-1.568,2.16-6.954,6.942-20.3A3.255,3.255,0,0,0,463.121,227.36Z" transform="translate(-416.194 -208.627)" fill="#f0e1d3"/>
          <path id="Trazado_958504" data-name="Trazado 958504" d="M469.118,231.515c-2.234,3.354-10.018,18.477-8.06,19.782s12.917-11.7,15.152-15.057,2.458-7.13.5-8.435S471.352,228.161,469.118,231.515Z" transform="translate(-427.859 -208.627)" fill="#fff"/>
          <path id="Trazado_958505" data-name="Trazado 958505" d="M403.755,350.408c-3.936-3.442-9.028-26.821-10.526-29.346-2.056-3.466-5.363-5.3-7.387-4.1s-2,4.984.058,8.449c1.569,2.645,9.561,16.946,13.7,23.15,1.782,2.783.468,6.391-1.678,6.5s-3.077,1.458-2.516,1.575c.373.078,2.664.2,4.157.278a3.652,3.652,0,0,0,2.356-.709c.793-.585,1.746-1.555,2.66-2.38C405.81,352.714,404.644,351.186,403.755,350.408Z" transform="translate(-380.894 -263.478)" fill="#ff9669"/>
          <path id="Trazado_958506" data-name="Trazado 958506" d="M419.756,313.823a11.664,11.664,0,0,0,6.406-12.35c-.821-4.581-12.958-2.823-18.3-1.867s-23.932,4.128-23.112,8.708c.371,2.07,4.9,4.392,10.624,5.4C401.6,314.805,419.756,313.823,419.756,313.823Z" transform="translate(-381.132 -252.334)" fill="#ff9669"/>
          <path id="Trazado_958507" data-name="Trazado 958507" d="M398.555,321.113c-1.51-2.545-3.694-4.206-5.55-4.436V328.55c1.05,1.836,2.417,4.229,3.889,6.775,1.164-3.124,2.245-6.286,3.265-9.454A31.006,31.006,0,0,0,398.555,321.113Z" transform="translate(-386.22 -263.53)" fill="#ff640a"/>
          <path id="Trazado_958508" data-name="Trazado 958508" d="M393.005,309.921v6.366a37.935,37.935,0,0,0,7.461,2.53,43.362,43.362,0,0,0,2.241-12.051A49.1,49.1,0,0,0,393.005,309.921Z" transform="translate(-386.22 -257.437)" fill="#ff640a"/>
          <path id="Trazado_958509" data-name="Trazado 958509" d="M409.442,306.892h19.713a11.665,11.665,0,0,0,6.406-12.35c-.216-1.2-2.429-3.01-2.429-3.01s-3.474-2.425-14.339-3.781c-3.131-.391-13.047-1.15-18.774.227,4.322,1.48,9.232,11.609,9.463,16.767A18.7,18.7,0,0,1,409.442,306.892Z" transform="translate(-390.531 -245.402)" fill="#50374b"/>
          <path id="Trazado_958510" data-name="Trazado 958510" d="M383.546,327.289a9.5,9.5,0,0,1,.291-4.624c2.649-8.284,6.642-23.307,6.763-25.97.168-3.7-2.891-7.258-5.135-7.446s-4.2,2.661-4.367,6.364c-.118,2.6,1.357,25.074-1.566,31.5-.826,1.745-5.872,6.885-3.512,7.317a68.854,68.854,0,0,0,7.036-4.385C383.857,329.313,383.759,328.436,383.546,327.289Z" transform="translate(-375.396 -246.664)" fill="#ff9669"/>
          <path id="Trazado_958511" data-name="Trazado 958511" d="M421.154,404.076a1.771,1.771,0,0,1-.191-.174,6.183,6.183,0,0,1-4.661,4.5,2.018,2.018,0,0,1-.98.328c-2.147.109-3.077,1.458-2.516,1.575.373.078,2.664.2,4.157.278a3.653,3.653,0,0,0,2.356-.709c.793-.585,1.746-1.556,2.66-2.38C423.209,406.383,422.092,404.795,421.154,404.076Z" transform="translate(-398.293 -317.146)" fill="#c8462d"/>
          <path id="Trazado_958512" data-name="Trazado 958512" d="M377.413,388.553c-1.465,1.962-2.863,4.053-1.4,4.321a68.853,68.853,0,0,0,7.036-4.385c1.085-1,.6-2.343.338-4.177A6.365,6.365,0,0,1,377.413,388.553Z" transform="translate(-375.395 -305.105)" fill="#c8462d"/>
          <path id="Trazado_958513" data-name="Trazado 958513" d="M417.279,254.262s-.553-2.952-1.826-3.9-1.968-1.007-1.939-.8c.055.392.694.613,1.063,1.02.218.239.3.464.266.5-.082.1-3.825-2.167-4.038-1.873-.458.631,2.913,2.451,2.619,2.557s-3.51-1.985-3.736-1.544c-.245.478,3.146,2.284,3.1,2.5s-2.858-1.579-2.979-1.051c-.131.574,2.718,1.937,2.7,2.284-.008.14-1.833-1.058-1.956-.524s2.447,1.523,2.639,1.546,2.342,1.2,3.823-.376Z" transform="translate(-396.467 -222.041)" fill="#ff9669"/>
          <path id="Trazado_958514" data-name="Trazado 958514" d="M440.085,263.053c-1.446-.964-9.47-4.164-14.1-6.431a11.149,11.149,0,0,1-1.335,3.646,133.749,133.749,0,0,0,11.318,8.974,3.865,3.865,0,0,0,5.313-.547A4.354,4.354,0,0,0,440.085,263.053Z" transform="translate(-405.672 -226.614)" fill="#fff"/>
          <path id="Trazado_958515" data-name="Trazado 958515" d="M377.012,395.334h0a.824.824,0,0,0,1.129.263l5.886-3.627a2.311,2.311,0,0,0,.941-2.807l-.331-.848s.279,1.995-.709,2.738S377.012,395.334,377.012,395.334Z" transform="translate(-376.389 -307.565)" fill="#373c41"/>
          <path id="Trazado_958516" data-name="Trazado 958516" d="M388.078,243.688c-.072.278-.93.3-1.917.043s-1.73-.686-1.658-.964.93-.3,1.918-.043S388.15,243.411,388.078,243.688Z" transform="translate(-380.99 -217.962)" fill="#ff9669"/>
          <path id="Trazado_958517" data-name="Trazado 958517" d="M388.955,248.88c-.072.278-.93.3-1.917.043s-1.73-.686-1.658-.964.93-.3,1.917-.043S389.027,248.6,388.955,248.88Z" transform="translate(-381.529 -221.153)" fill="#ff9669"/>
          <path id="Trazado_958518" data-name="Trazado 958518" d="M389.79,251.4c-.06.233-.78.249-1.607.036s-1.45-.575-1.39-.808.779-.249,1.607-.036S389.85,251.167,389.79,251.4Z" transform="translate(-382.399 -222.816)" fill="#ff9669"/>
          <path id="Trazado_958519" data-name="Trazado 958519" d="M388.531,246.244c-.072.278-1.031.271-2.143-.015s-1.955-.744-1.884-1.022,1.031-.271,2.143.015S388.6,245.966,388.531,246.244Z" transform="translate(-380.992 -219.472)" fill="#ff9669"/>
          <g id="Grupo_1116733" data-name="Grupo 1116733" transform="translate(31.377 5.848)">
            <g id="Grupo_1116732" data-name="Grupo 1116732">
              <g id="Grupo_1116731" data-name="Grupo 1116731">
                <path id="Trazado_958520" data-name="Trazado 958520" d="M471.044,224.583h0a2.652,2.652,0,0,0,2.446-2.842l-.292-3.894-5.289.4.292,3.894A2.651,2.651,0,0,0,471.044,224.583Z" transform="translate(-463.64 -208.627)" fill="#ff9669"/>
                <path id="Trazado_958521" data-name="Trazado 958521" d="M468.214,222.326a7.391,7.391,0,0,0,5.15-2.245l-.168-2.235-5.289.4Z" transform="translate(-463.639 -208.627)" fill="#ff640a"/>
                <path id="Trazado_958522" data-name="Trazado 958522" d="M461.536,206.38l1.426-.107a2.544,2.544,0,0,0,1.311-.479l1.218-.893a5.673,5.673,0,0,0,2.4-4.981l-.45-6-10.373.777.582,7.762a1.385,1.385,0,0,0,.174.575C458.312,203.909,459.9,206.5,461.536,206.38Z" transform="translate(-456.976 -193.92)" fill="#ff9669"/>
                <g id="Grupo_1116729" data-name="Grupo 1116729" transform="translate(5.866 4.698)">
                  <path id="Trazado_958523" data-name="Trazado 958523" d="M472.062,207.086c.05.511.3.905.567.879s.435-.462.384-.973-.3-.905-.567-.879S472.011,206.574,472.062,207.086Z" transform="translate(-472.053 -206.112)" fill="#1e1632"/>
                  <path id="Trazado_958524" data-name="Trazado 958524" d="M472.35,208.541c.015.2.112.35.217.342s.178-.174.163-.371-.112-.35-.217-.342S472.335,208.344,472.35,208.541Z" transform="translate(-472.234 -207.377)" fill="#fff"/>
                </g>
                <g id="Grupo_1116730" data-name="Grupo 1116730" transform="translate(1.759 5.005)">
                  <path id="Trazado_958525" data-name="Trazado 958525" d="M461.4,207.885c.051.511.3.905.567.879s.435-.462.384-.973-.3-.905-.567-.879S461.35,207.373,461.4,207.885Z" transform="translate(-461.392 -206.911)" fill="#1e1632"/>
                  <path id="Trazado_958526" data-name="Trazado 958526" d="M461.7,209.339c.015.2.112.35.217.342s.178-.174.163-.371-.112-.35-.217-.342S461.684,209.142,461.7,209.339Z" transform="translate(-461.58 -208.175)" fill="#fff"/>
                </g>
                <path id="Trazado_958527" data-name="Trazado 958527" d="M465.323,209.31V209.3a1.827,1.827,0,0,0,.512-1.492,1.153,1.153,0,0,1-.5,1.6.7.7,0,0,0-.008.168.727.727,0,0,0,.779.671.72.72,0,0,0,.414-.171.725.725,0,0,1-1.4-.21A.714.714,0,0,1,465.323,209.31Z" transform="translate(-461.921 -202.459)" fill="#ff640a"/>
                <path id="Trazado_958528" data-name="Trazado 958528" d="M459.431,212.99a.826.826,0,1,0,.754-.7A.736.736,0,0,0,459.431,212.99Z" transform="translate(-458.427 -205.212)" fill="#ff640a"/>
                <path id="Trazado_958529" data-name="Trazado 958529" d="M474.111,211.89a.826.826,0,1,0,.754-.7A.736.736,0,0,0,474.111,211.89Z" transform="translate(-467.451 -204.535)" fill="#ff640a"/>
                <path id="Trazado_958530" data-name="Trazado 958530" d="M470.271,204.478l1.926-.144-.032-.433-2.79-.194h0A.837.837,0,0,0,470.271,204.478Z" transform="translate(-464.54 -199.935)" fill="#1e1632"/>
                <path id="Trazado_958531" data-name="Trazado 958531" d="M457.725,205.417l1.926-.144-.032-.433-2.79-.194h0A.837.837,0,0,0,457.725,205.417Z" transform="translate(-456.828 -200.513)" fill="#1e1632"/>
                <path id="Trazado_958532" data-name="Trazado 958532" d="M465.932,216.365a1.19,1.19,0,1,0,2.373-.178Z" transform="translate(-462.424 -207.607)" fill="#fff"/>
                <path id="Trazado_958533" data-name="Trazado 958533" d="M481.783,205.417a1.585,1.585,0,1,0,1.438-1.882A1.68,1.68,0,0,0,481.783,205.417Z" transform="translate(-472.164 -199.828)" fill="#ff9669"/>
                <path id="Trazado_958534" data-name="Trazado 958534" d="M484.353,207.121a.623.623,0,0,0,.631.611,1.207,1.207,0,0,1-.1-1.308A.622.622,0,0,0,484.353,207.121Z" transform="translate(-473.746 -201.606)" fill="#ff640a"/>
              </g>
            </g>
          </g>
          <path id="Trazado_958535" data-name="Trazado 958535" d="M452.316,192.414l8.152-.611a2.393,2.393,0,0,0,2.212-2.492h0a3.319,3.319,0,0,0-3.557-3.061l-3.848.288a3.319,3.319,0,0,0-3.061,3.557Z" transform="translate(-422.609 -183.351)" fill="#1e1632"/>
          <path id="Trazado_958536" data-name="Trazado 958536" d="M479.394,192.421s.533,3.67,1.713,4.408l.513-.795.486-4.735Z" transform="translate(-439.322 -186.461)" fill="#1e1632"/>
          <g id="Grupo_1116736" data-name="Grupo 1116736" transform="translate(18.882 19.107)">
            <path id="Trazado_958537" data-name="Trazado 958537" d="M429.092,325.415h22.725v5.552H424.4v-.862A4.691,4.691,0,0,1,429.092,325.415Z" transform="translate(-424.401 -288.008)" fill="#db372a"/>
            <path id="Trazado_958538" data-name="Trazado 958538" d="M473.138,406.225l-11.381-5.691-11.381,5.691" transform="translate(-440.368 -334.183)" fill="none" stroke="#32285f" stroke-miterlimit="10" stroke-width="5.332"/>
            <line id="Línea_27196" data-name="Línea 27196" y1="24.652" transform="translate(21.39 41.699)" fill="none" stroke="#32285f" stroke-miterlimit="10" stroke-width="5.332"/>
            <path id="Trazado_958539" data-name="Trazado 958539" d="M451.051,271.291h22.105a7.286,7.286,0,0,0,7.237-6.439l3.616-30.872a5.059,5.059,0,0,0-5.025-5.648H464.842a5.059,5.059,0,0,0-4.934,3.939Z" transform="translate(-440.783 -228.332)" fill="#fa503c"/>
            <rect id="Rectángulo_416164" data-name="Rectángulo 416164" width="14.117" height="2.481" transform="translate(28.214 45.44) rotate(180)" fill="#828291"/>
            <g id="Grupo_1116734" data-name="Grupo 1116734" transform="translate(27.999 68.936)">
              <circle id="Elipse_13569" data-name="Elipse 13569" cx="3.065" cy="3.065" r="3.065" fill="#32285f"/>
              <circle id="Elipse_13570" data-name="Elipse 13570" cx="1.502" cy="1.502" r="1.502" transform="translate(1.562 1.562)" fill="#828291"/>
            </g>
            <g id="Grupo_1116735" data-name="Grupo 1116735" transform="translate(8.769 68.936)">
              <circle id="Elipse_13571" data-name="Elipse 13571" cx="3.065" cy="3.065" r="3.065" fill="#32285f"/>
              <circle id="Elipse_13572" data-name="Elipse 13572" cx="1.502" cy="1.502" r="1.502" transform="translate(1.562 1.562)" fill="#828291"/>
            </g>
          </g>
        </g>
        <g id="Grupo_1116740" data-name="Grupo 1116740" transform="translate(50.407 46.036)">
          <path id="Trazado_958540" data-name="Trazado 958540" d="M276.752,316.587h-23.49v5.739H281.6v-.891A4.849,4.849,0,0,0,276.752,316.587Z" transform="translate(-236.883 -277.922)" fill="#db372a"/>
          <path id="Trazado_958541" data-name="Trazado 958541" d="M238.9,400.115l11.764-5.882,11.764,5.882" transform="translate(-228.053 -325.651)" fill="none" stroke="#32285f" stroke-miterlimit="10" stroke-width="5.512"/>
          <line id="Línea_27197" data-name="Línea 27197" y1="25.481" transform="translate(22.609 43.101)" fill="none" stroke="#32285f" stroke-miterlimit="10" stroke-width="5.512"/>
          <path id="Trazado_958542" data-name="Trazado 958542" d="M244.856,260.644H222.037a7.566,7.566,0,0,1-7.515-6.685l-3.734-31.88a5.229,5.229,0,0,1,5.194-5.838H230.6a5.23,5.23,0,0,1,5.1,4.072Z" transform="translate(-210.752 -216.24)" fill="#fa503c"/>
          <rect id="Rectángulo_416165" data-name="Rectángulo 416165" width="14.592" height="2.565" transform="translate(15.555 44.404)" fill="#828291"/>
          <g id="Grupo_1116738" data-name="Grupo 1116738" transform="translate(9.442 71.255)">
            <circle id="Elipse_13573" data-name="Elipse 13573" cx="3.168" cy="3.168" r="3.168" fill="#32285f"/>
            <circle id="Elipse_13574" data-name="Elipse 13574" cx="1.553" cy="1.553" r="1.553" transform="translate(1.615 1.615)" fill="#828291"/>
          </g>
          <g id="Grupo_1116739" data-name="Grupo 1116739" transform="translate(29.318 71.255)">
            <circle id="Elipse_13575" data-name="Elipse 13575" cx="3.168" cy="3.168" r="3.168" fill="#32285f"/>
            <circle id="Elipse_13576" data-name="Elipse 13576" cx="1.553" cy="1.553" r="1.553" transform="translate(1.615 1.615)" fill="#828291"/>
          </g>
        </g>
      </g>
    </g>
  </g>
</svg>
