<svg xmlns="http://www.w3.org/2000/svg" width="50" height="54.68" viewBox="0 0 50 54.68">
  <g id="Grupo_1116456" data-name="Grupo 1116456" transform="translate(-21.912)">
    <g id="Grupo_1116447" data-name="Grupo 1116447" transform="translate(33.469 37.345)">
      <g id="Grupo_1116446" data-name="Grupo 1116446" transform="translate(0)">
        <path id="Trazado_957847" data-name="Trazado 957847" d="M152.265,349.683H133.344a1.617,1.617,0,0,0-1.615,1.615v1.841a2.406,2.406,0,0,0-1.1,3.749.677.677,0,0,1,.085.627l-.254.753a1.2,1.2,0,0,0,1.136,1.581h.129v1.6a1.617,1.617,0,0,0,1.615,1.615h18.921a1.617,1.617,0,0,0,1.615-1.615V351.3A1.617,1.617,0,0,0,152.265,349.683Zm-19.447,8.326.079.235h-.73l.073-.216a2.266,2.266,0,0,0-.341-2.128.79.79,0,0,1-.168-.522.816.816,0,0,1,.76-.771h.086a.8.8,0,0,1,.591,1.292A2.252,2.252,0,0,0,132.818,358.009Zm19.457,3.435a.01.01,0,0,1-.01.01H133.344a.01.01,0,0,1-.01-.01v-1.6h.129a1.2,1.2,0,0,0,1.136-1.581l-.26-.771a.651.651,0,0,1,.094-.611,2.4,2.4,0,0,0,.371-.674h17.471Zm0-6.839H134.8a2.412,2.412,0,0,0-1.466-1.469V351.3a.01.01,0,0,1,.01-.01h18.921a.01.01,0,0,1,.01.01Z" transform="translate(-130.124 -349.683)" fill="#001a58"/>
      </g>
    </g>
    <g id="Grupo_1116449" data-name="Grupo 1116449" transform="translate(34.967 14.767)">
      <g id="Grupo_1116448" data-name="Grupo 1116448">
        <path id="Trazado_957848" data-name="Trazado 957848" d="M167.735,153.253a.651.651,0,0,1,.094-.611,2.381,2.381,0,0,0,.507-1.477,2.413,2.413,0,0,0-1.625-2.279,11.289,11.289,0,0,0-22.558.673.8.8,0,0,0,1.605,0A9.684,9.684,0,0,1,165.1,148.9a2.406,2.406,0,0,0-1.074,3.741.677.677,0,0,1,.085.627l-.254.753A1.2,1.2,0,0,0,165,155.605h1.862a1.2,1.2,0,0,0,1.136-1.581Zm-1.173-1.6a2.252,2.252,0,0,0-.348,2.111l.079.235h-.73l.073-.216a2.266,2.266,0,0,0-.341-2.128.791.791,0,0,1-.168-.522.815.815,0,0,1,.763-.771.8.8,0,0,1,.673,1.292Z" transform="translate(-144.152 -138.27)" fill="#001a58"/>
      </g>
    </g>
    <g id="Grupo_1116451" data-name="Grupo 1116451" transform="translate(39.033 21.294)">
      <g id="Grupo_1116450" data-name="Grupo 1116450" transform="translate(0)">
        <path id="Trazado_957849" data-name="Trazado 957849" d="M194.631,199.389H184.055a1.83,1.83,0,0,0-1.828,1.828v5.868a1.83,1.83,0,0,0,1.828,1.828h10.577a1.83,1.83,0,0,0,1.828-1.828v-5.868A1.83,1.83,0,0,0,194.631,199.389Zm.222,7.7a.223.223,0,0,1-.222.222H184.055a.223.223,0,0,1-.222-.222v-5.868a.223.223,0,0,1,.222-.222h10.577a.223.223,0,0,1,.222.222Z" transform="translate(-182.227 -199.389)" fill="#001a58"/>
      </g>
    </g>
    <g id="Grupo_1116453" data-name="Grupo 1116453" transform="translate(41.601 23.862)">
      <g id="Grupo_1116452" data-name="Grupo 1116452">
        <path id="Trazado_957850" data-name="Trazado 957850" d="M214.566,223.436h-7.49a.8.8,0,0,0-.8.8v2.782a.8.8,0,0,0,.8.8h7.49a.8.8,0,0,0,.8-.8v-2.782A.8.8,0,0,0,214.566,223.436Zm-.8,2.782h-5.885v-1.177h5.885Z" transform="translate(-206.273 -223.436)" fill="#001a58"/>
      </g>
    </g>
    <g id="Grupo_1116455" data-name="Grupo 1116455" transform="translate(21.912)">
      <g id="Grupo_1116454" data-name="Grupo 1116454" transform="translate(0)">
        <path id="Trazado_957851" data-name="Trazado 957851" d="M71.9,29.05l-.658-3.534a.8.8,0,0,0-1.21-.536l-3.06,1.886a.8.8,0,0,0-.313.358l-.873,1.971v-5.24a1.377,1.377,0,0,0-1.376-1.376H60.668a14.714,14.714,0,0,0-2.377-5.173.8.8,0,1,0-1.3.938,13.12,13.12,0,0,1,2.484,7.713v8.03H41.12a.8.8,0,0,0,0,1.605H59.472V50.806a2.272,2.272,0,0,1-2.27,2.269H35.31a2.272,2.272,0,0,1-2.269-2.269V35.691H37.91a.8.8,0,0,0,0-1.605H33.041v-8.03A13.215,13.215,0,0,1,54.948,16.1.8.8,0,1,0,56,14.893,14.8,14.8,0,0,0,53.8,13.3V5.762A5.769,5.769,0,0,0,48.038,0H44.475a5.769,5.769,0,0,0-5.762,5.762V13.3a14.828,14.828,0,0,0-7.276,12.753v.7H29.082V24.344a.8.8,0,0,0-.235-.567L24.78,19.71a.8.8,0,0,0-1.135,1.135l3.831,3.831v2.075H24.447a1.467,1.467,0,0,0-1.465,1.465v.922a1.464,1.464,0,0,0,.584,1.17l.61,5.752H23.6a1.687,1.687,0,0,0-1.685,1.685V44.8a5.283,5.283,0,0,0,5.277,5.277h4.246v.727A3.879,3.879,0,0,0,35.31,54.68H57.2a3.879,3.879,0,0,0,3.875-3.875v-.727h4.246A5.283,5.283,0,0,0,70.6,44.8V37.746a1.687,1.687,0,0,0-1.655-1.685l2.9-6.54A.8.8,0,0,0,71.9,29.05ZM48.985,11.489a14.873,14.873,0,0,0-5.457,0V5.762a.948.948,0,0,1,.947-.947h3.563a.948.948,0,0,1,.947.947v5.726ZM40.317,5.762a4.162,4.162,0,0,1,4.157-4.157h3.563A4.162,4.162,0,0,1,52.2,5.762v6.715a14.807,14.807,0,0,0-1.605-.594V5.762A2.555,2.555,0,0,0,48.038,3.21H44.475a2.555,2.555,0,0,0-2.552,2.552v6.12a14.689,14.689,0,0,0-1.605.6ZM24.587,28.357h6.848V29H24.587Zm6.848,20.117H27.189A3.676,3.676,0,0,1,23.517,44.8V40.857h7.919v7.617Zm0-9.222H23.517V37.746a.08.08,0,0,1,.08-.08h7.839v1.586Zm0-3.191H25.791L25.212,30.6h6.224ZM61.077,24.183h3.1V25.9h-.589a.8.8,0,0,0,0,1.605h.589v1.712h-.589a.8.8,0,0,0,0,1.605h.589V32.53h-.589a.8.8,0,0,0,0,1.605h.589v1.926h-3.1ZM69,44.8a3.676,3.676,0,0,1-3.672,3.672H61.077V40.857H69Zm0-7.056v1.506H61.077V37.666h7.839A.08.08,0,0,1,69,37.746Zm-1.806-1.685h-1.4V33.156l1.6-3.6,2.25,1Zm.857-7.972,1.831-1.129.394,2.114Z" transform="translate(-21.912)" fill="#001a58"/>
      </g>
    </g>
  </g>
</svg>
