<svg xmlns="http://www.w3.org/2000/svg" width="50" height="50" viewBox="0 0 50 50">
  <g id="Grupo_1116399" data-name="Grupo 1116399" transform="translate(-1 -1)">
    <path id="Trazado_957788" data-name="Trazado 957788" d="M1,61H51v1.613H1Z" transform="translate(0 -11.613)" fill="#001a58"/>
    <path id="Trazado_957789" data-name="Trazado 957789" d="M24.83,6.577A20.2,20.2,0,0,1,43.507,10.8l-1.923,1.923,9.137,2.284L48.437,5.874l-1.5,1.5A25.034,25.034,0,0,0,23.592,1.9L23,2.061V6.683l1.651-.077ZM24.613,3.3A23.414,23.414,0,0,1,46.4,9.081l.57.544.6-.6L48.5,12.8l-3.766-.942,1.092-1.092-.6-.569A21.808,21.808,0,0,0,24.613,4.965Z" transform="translate(-4.258)" fill="#001a58"/>
    <path id="Trazado_957790" data-name="Trazado 957790" d="M1.9,33.755l.163.592H6.683L6.606,32.7l-.029-.179A20.208,20.208,0,0,1,10.8,13.839l1.923,1.924,2.284-9.137L5.874,8.91l1.5,1.5A25.034,25.034,0,0,0,1.9,33.755ZM9.081,10.949l.544-.57-.6-.6L12.8,8.842l-.942,3.766-1.092-1.093-.569.6A21.809,21.809,0,0,0,4.965,32.734H3.3A23.414,23.414,0,0,1,9.081,10.949Z" transform="translate(0 -1.089)" fill="#001a58"/>
    <path id="Trazado_957791" data-name="Trazado 957791" d="M54.031,21.651l.029.179a20.2,20.2,0,0,1-4.227,18.678L47.91,38.584l-2.284,9.137,9.137-2.284-1.5-1.5a25.034,25.034,0,0,0,5.481-23.34L58.576,20H53.954Zm3.307-.038A23.414,23.414,0,0,1,51.556,43.4l-.544.57.6.6-3.766.942.942-3.766,1.092,1.093.569-.6a21.809,21.809,0,0,0,5.228-20.617Z" transform="translate(-8.637 -3.677)" fill="#001a58"/>
    <path id="Trazado_957792" data-name="Trazado 957792" d="M22,39h1.613v1.613H22Z" transform="translate(-4.065 -7.355)" fill="#001a58"/>
    <path id="Trazado_957793" data-name="Trazado 957793" d="M14,39h1.613v1.613H14Z" transform="translate(-2.516 -7.355)" fill="#001a58"/>
    <path id="Trazado_957794" data-name="Trazado 957794" d="M18,39h1.613v1.613H18Z" transform="translate(-3.29 -7.355)" fill="#001a58"/>
    <path id="Trazado_957795" data-name="Trazado 957795" d="M18,43h1.613v1.613H18Z" transform="translate(-3.29 -8.129)" fill="#001a58"/>
    <path id="Trazado_957796" data-name="Trazado 957796" d="M14,43h1.613v1.613H14Z" transform="translate(-2.516 -8.129)" fill="#001a58"/>
    <path id="Trazado_957797" data-name="Trazado 957797" d="M22,43h1.613v1.613H22Z" transform="translate(-4.065 -8.129)" fill="#001a58"/>
    <path id="Trazado_957798" data-name="Trazado 957798" d="M18,47h1.613v1.613H18Z" transform="translate(-3.29 -8.903)" fill="#001a58"/>
    <path id="Trazado_957799" data-name="Trazado 957799" d="M22,47h1.613v1.613H22Z" transform="translate(-4.065 -8.903)" fill="#001a58"/>
    <path id="Trazado_957800" data-name="Trazado 957800" d="M14,47h1.613v1.613H14Z" transform="translate(-2.516 -8.903)" fill="#001a58"/>
    <path id="Trazado_957801" data-name="Trazado 957801" d="M14,51h1.613v1.613H14Z" transform="translate(-2.516 -9.677)" fill="#001a58"/>
    <path id="Trazado_957802" data-name="Trazado 957802" d="M22,51h1.613v1.613H22Z" transform="translate(-4.065 -9.677)" fill="#001a58"/>
    <path id="Trazado_957803" data-name="Trazado 957803" d="M18,51h1.613v1.613H18Z" transform="translate(-3.29 -9.677)" fill="#001a58"/>
    <path id="Trazado_957804" data-name="Trazado 957804" d="M16,31h1.613v1.613H16Z" transform="translate(-2.903 -5.806)" fill="#001a58"/>
    <path id="Trazado_957805" data-name="Trazado 957805" d="M24,31h1.613v1.613H24Z" transform="translate(-4.452 -5.806)" fill="#001a58"/>
    <path id="Trazado_957806" data-name="Trazado 957806" d="M20,31h1.613v1.613H20Z" transform="translate(-3.677 -5.806)" fill="#001a58"/>
    <path id="Trazado_957807" data-name="Trazado 957807" d="M28,31h1.613v1.613H28Z" transform="translate(-5.226 -5.806)" fill="#001a58"/>
    <path id="Trazado_957808" data-name="Trazado 957808" d="M24,27h1.613v1.613H24Z" transform="translate(-4.452 -5.032)" fill="#001a58"/>
    <path id="Trazado_957809" data-name="Trazado 957809" d="M28,27h1.613v1.613H28Z" transform="translate(-5.226 -5.032)" fill="#001a58"/>
    <path id="Trazado_957810" data-name="Trazado 957810" d="M20,27h1.613v1.613H20Z" transform="translate(-3.677 -5.032)" fill="#001a58"/>
    <path id="Trazado_957811" data-name="Trazado 957811" d="M16,27h1.613v1.613H16Z" transform="translate(-2.903 -5.032)" fill="#001a58"/>
    <path id="Trazado_957812" data-name="Trazado 957812" d="M16,23h1.613v1.613H16Z" transform="translate(-2.903 -4.258)" fill="#001a58"/>
    <path id="Trazado_957813" data-name="Trazado 957813" d="M24,23h1.613v1.613H24Z" transform="translate(-4.452 -4.258)" fill="#001a58"/>
    <path id="Trazado_957814" data-name="Trazado 957814" d="M20,23h1.613v1.613H20Z" transform="translate(-3.677 -4.258)" fill="#001a58"/>
    <path id="Trazado_957815" data-name="Trazado 957815" d="M28,23h1.613v1.613H28Z" transform="translate(-5.226 -4.258)" fill="#001a58"/>
    <path id="Trazado_957816" data-name="Trazado 957816" d="M35.677,38.355H38.1a5.652,5.652,0,0,0,5.645-5.645V31.9H39.71a5.624,5.624,0,0,0-4.032,1.7V30.29H38.1a5.652,5.652,0,0,0,5.645-5.645v-.806H39.71a5.625,5.625,0,0,0-4.076,1.75,5.651,5.651,0,0,0-5.6-4.976H27.613V19H9.871V31.9H8.258V48.032H1v1.613H51V48.032H35.677Zm4.032-4.839h2.338A4.039,4.039,0,0,1,38.1,36.742H35.759A4.038,4.038,0,0,1,39.71,33.516Zm0-8.065h2.338A4.039,4.039,0,0,1,38.1,28.677H35.759A4.038,4.038,0,0,1,39.71,25.452ZM34.065,48.032H27.613V33.427a5.624,5.624,0,0,0,4.032,1.7h2.419v12.9ZM27.694,30.29h2.338a4.038,4.038,0,0,1,3.951,3.226H31.645A4.038,4.038,0,0,1,27.694,30.29Zm2.338-8.065a4.038,4.038,0,0,1,3.951,3.226H31.645a4.038,4.038,0,0,1-3.951-3.226Zm1.613,4.839h2.419V30.38a5.624,5.624,0,0,0-4.032-1.7H27.613V25.362A5.624,5.624,0,0,0,31.645,27.065ZM11.484,20.613H26V48.032H22.774V31.9H11.484Zm-1.613,12.9h11.29V48.032H9.871Z" transform="translate(0 -3.484)" fill="#001a58"/>
  </g>
</svg>
