<svg xmlns="http://www.w3.org/2000/svg" width="84.854" height="84.854" viewBox="0 0 84.854 84.854">
  <g id="Grupo_1115967" data-name="Grupo 1115967" transform="translate(-210 -517)">
    <rect id="Image_Place_Holder" data-name="Image Place Holder" width="84.854" height="84.854" transform="translate(210 517)" fill="#0042db"/>
    <g id="Grupo_1116495" data-name="Grupo 1116495" transform="translate(220.565 527)">
      <path id="Trazado_957962" data-name="Trazado 957962" d="M26,22H38V42H26Z" fill="#a8a8a8"/>
      <path id="Trazado_957963" data-name="Trazado 957963" d="M18,27h8V42H18Z" fill="#999"/>
      <path id="Trazado_957964" data-name="Trazado 957964" d="M38,27h8V42H38Z" fill="#999"/>
      <path id="Trazado_957965" data-name="Trazado 957965" d="M32,38A30.012,30.012,0,0,0,3.707,58H60.293A30.012,30.012,0,0,0,32,38Z" fill="#a7dbfc"/>
      <path id="Trazado_957966" data-name="Trazado 957966" d="M51.965,45.635A30.04,30.04,0,0,1,34.693,58h25.6a30.015,30.015,0,0,0-8.328-12.365Z" fill="#90d2fc"/>
      <path id="Trazado_957967" data-name="Trazado 957967" d="M34,18H30a2,2,0,0,0-2,2v2h8V20A2,2,0,0,0,34,18Z" fill="#dbdbdb"/>
      <path id="Trazado_957968" data-name="Trazado 957968" d="M30,34h4v4H30Z" fill="#eaeaea"/>
      <path id="Trazado_957969" data-name="Trazado 957969" d="M40,47l3-2,3,1,4.712-.942a28.928,28.928,0,0,0-10.823-5.891L38,42H36l-2,2,2,3Z" fill="#63bc94"/>
      <path id="Trazado_957970" data-name="Trazado 957970" d="M12,46h5l2,1h3l3-2-1-3-2-2h-.823a29.012,29.012,0,0,0-9.392,6Z" fill="#63bc94"/>
      <path id="Trazado_957971" data-name="Trazado 957971" d="M32,63V61a4,4,0,0,0-4-4H26a4,4,0,0,0-4,4v2" fill="#eaeaea"/>
      <path id="Trazado_957972" data-name="Trazado 957972" d="M22,63V61a4,4,0,0,0-4-4H16a4,4,0,0,0-4,4v2" fill="#a8a8a8"/>
      <path id="Trazado_957973" data-name="Trazado 957973" d="M12,63V61a4,4,0,0,0-4-4H6a4,4,0,0,0-4,4v2" fill="#eaeaea"/>
      <path id="Trazado_957974" data-name="Trazado 957974" d="M42,63V61a4,4,0,0,0-4-4H36a4,4,0,0,0-4,4v2" fill="#a8a8a8"/>
      <path id="Trazado_957975" data-name="Trazado 957975" d="M52,63V61a4,4,0,0,0-4-4H46a4,4,0,0,0-4,4v2" fill="#eaeaea"/>
      <path id="Trazado_957976" data-name="Trazado 957976" d="M62,63V61a4,4,0,0,0-4-4H56a4,4,0,0,0-4,4v2" fill="#a8a8a8"/>
      <g id="Grupo_1116494" data-name="Grupo 1116494">
        <circle id="Elipse_13548" data-name="Elipse 13548" cx="3" cy="3" r="3" transform="translate(24 51)" fill="#ffd6a8"/>
        <circle id="Elipse_13549" data-name="Elipse 13549" cx="3" cy="3" r="3" transform="translate(14 51)" fill="#ffd6a8"/>
        <circle id="Elipse_13550" data-name="Elipse 13550" cx="3" cy="3" r="3" transform="translate(4 51)" fill="#ffd6a8"/>
        <circle id="Elipse_13551" data-name="Elipse 13551" cx="3" cy="3" r="3" transform="translate(34 51)" fill="#ffd6a8"/>
        <circle id="Elipse_13552" data-name="Elipse 13552" cx="3" cy="3" r="3" transform="translate(44 51)" fill="#ffd6a8"/>
        <circle id="Elipse_13553" data-name="Elipse 13553" cx="3" cy="3" r="3" transform="translate(54 51)" fill="#ffd6a8"/>
      </g>
      <path id="Trazado_957977" data-name="Trazado 957977" d="M52.8,13.8c-2.734,2.734-8.485,1.414-8.485,1.414S43,9.466,45.733,6.733s8.485-1.414,8.485-1.414S55.537,11.07,52.8,13.8Z" fill="#63bc94"/>
      <path id="Trazado_957978" data-name="Trazado 957978" d="M7.733,18.267C5,15.533,6.319,9.782,6.319,9.782S12.071,8.463,14.8,11.2s1.414,8.485,1.414,8.485S10.466,21,7.733,18.267Z" fill="#63bc94"/>
      <path id="Trazado_957979" data-name="Trazado 957979" d="M43.344,15.441a1,1,0,0,0,.751.751,16.206,16.206,0,0,0,3.326.343c2,0,4.459-.394,6.09-2.025,3.089-3.09,1.741-9.159,1.682-9.416a1,1,0,0,0-.751-.751c-.255-.059-6.326-1.407-9.416,1.682S43.285,15.185,43.344,15.441ZM52.1,13.1c-1.519,1.518-4.277,1.535-6.009,1.369l7.435-6.692c.08,1.8-.159,4.055-1.426,5.323ZM46.439,7.439C47.953,5.926,50.7,5.9,52.429,6.068l-7.417,6.675c-.077-1.8.164-4.04,1.427-5.3Z"/>
      <path id="Trazado_957980" data-name="Trazado 957980" d="M60.11,56.484A3.961,3.961,0,0,0,61,54a4,4,0,0,0-4-4,3.95,3.95,0,0,0-.489.049A30,30,0,0,0,47,41.158V27a1,1,0,0,0-1-1H39V22a1,1,0,0,0-1-1H37V20a3,3,0,0,0-3-3H33V15H31v2H30a3,3,0,0,0-3,3v1H26a1,1,0,0,0-1,1v4H18a1,1,0,0,0-1,1V40.894a30.009,30.009,0,0,0-9.941,9.112C7.039,50.006,7.02,50,7,50a4,4,0,0,0-4,4,3.961,3.961,0,0,0,.89,2.484A4.994,4.994,0,0,0,1,61v2H3V61a3,3,0,0,1,3-3H8a3,3,0,0,1,3,3v2h2V61a3,3,0,0,1,3-3h2a3,3,0,0,1,3,3v2h2V61a3,3,0,0,1,3-3h2a3,3,0,0,1,3,3v2h2V61a3,3,0,0,1,3-3h2a3,3,0,0,1,3,3v2h2V61a3,3,0,0,1,3-3h2a3,3,0,0,1,3,3v2h2V61a3,3,0,0,1,3-3h2a3,3,0,0,1,3,3v2h2V61A4.994,4.994,0,0,0,60.11,56.484ZM39,28h6V40.079a29.881,29.881,0,0,0-6-2.2Zm-.168,14.555,1.484-2.225A27.879,27.879,0,0,1,48.423,44.5l-2.358.472-2.748-.916a1,1,0,0,0-.871.117L39.7,46H36.535l-1.249-1.873L36.414,43H38a1,1,0,0,0,.832-.445ZM29,20a1,1,0,0,1,1-1h4a1,1,0,0,1,1,1v1H29Zm-2,3H37V37.465c-.661-.116-1.328-.208-2-.28V34a1,1,0,0,0-1-1H30a1,1,0,0,0-1,1v3.142q-1.008.093-2,.252Zm6,12v2.038c-.409-.016-.818-.038-1.229-.038-.258,0-.513.017-.771.024V35ZM19,28h6v9.782a29.869,29.869,0,0,0-6,2.07Zm2.524,12.938,1.6,1.6.684,2.052L21.7,46H19.236l-1.789-.9A1,1,0,0,0,17,45H14.452a27.923,27.923,0,0,1,7.072-4.062ZM7,56a2,2,0,1,1,2-2A2,2,0,0,1,7,56Zm10,0a2,2,0,1,1,2-2A2,2,0,0,1,17,56Zm10,0a2,2,0,1,1,2-2A2,2,0,0,1,27,56Zm10,0a2,2,0,1,1,2-2A2,2,0,0,1,37,56Zm10,0a2,2,0,1,1,2-2A2,2,0,0,1,47,56Zm6-2a3.961,3.961,0,0,0,.89,2.484A5.019,5.019,0,0,0,52,58.031a5.011,5.011,0,0,0-1.89-1.547A3.961,3.961,0,0,0,51,54a4,4,0,0,0-8,0,3.961,3.961,0,0,0,.89,2.484A5.019,5.019,0,0,0,42,58.031a5.011,5.011,0,0,0-1.89-1.547A3.961,3.961,0,0,0,41,54a4,4,0,0,0-8,0,3.961,3.961,0,0,0,.89,2.484A5.019,5.019,0,0,0,32,58.031a5.011,5.011,0,0,0-1.89-1.547A3.961,3.961,0,0,0,31,54a4,4,0,0,0-8,0,3.961,3.961,0,0,0,.89,2.484A5.019,5.019,0,0,0,22,58.031a5.011,5.011,0,0,0-1.89-1.547A3.961,3.961,0,0,0,21,54a4,4,0,0,0-8,0,3.961,3.961,0,0,0,.89,2.484A5.019,5.019,0,0,0,12,58.031a5.011,5.011,0,0,0-1.89-1.547A3.948,3.948,0,0,0,9.086,50.6a28.077,28.077,0,0,1,3.1-3.6h4.577l1.789.9A1,1,0,0,0,19,48h3a1.006,1.006,0,0,0,.555-.168l3-2a1,1,0,0,0,.394-1.148l-1-3a1,1,0,0,0-.242-.391l-1.079-1.079a27.876,27.876,0,0,1,14.656-.441L37.465,41H36a1,1,0,0,0-.707.293l-2,2a1,1,0,0,0-.125,1.262l2,3A1,1,0,0,0,36,48h4a1.006,1.006,0,0,0,.555-.168L43.148,46.1l2.536.845a1.015,1.015,0,0,0,.513.032l4.241-.848a28.156,28.156,0,0,1,4.169,4.683A3.985,3.985,0,0,0,53,54Zm4,2a2,2,0,1,1,2-2A2,2,0,0,1,57,56Z"/>
      <path id="Trazado_957981" data-name="Trazado 957981" d="M29,25h6v2H29Z"/>
      <path id="Trazado_957982" data-name="Trazado 957982" d="M29,29h6v2H29Z"/>
      <path id="Trazado_957983" data-name="Trazado 957983" d="M21,30h2v2H21Z"/>
      <path id="Trazado_957984" data-name="Trazado 957984" d="M21,34h2v2H21Z"/>
      <path id="Trazado_957985" data-name="Trazado 957985" d="M41,30h2v2H41Z"/>
      <path id="Trazado_957986" data-name="Trazado 957986" d="M41,34h2v2H41Z"/>
      <path id="Trazado_957987" data-name="Trazado 957987" d="M13.116,21a16.217,16.217,0,0,0,3.326-.343,1,1,0,0,0,.751-.751c.059-.257,1.408-6.326-1.682-9.416S6.351,8.749,6.095,8.808a1,1,0,0,0-.751.751c-.059.257-1.408,6.326,1.682,9.416C8.656,20.6,11.117,21,13.116,21Zm.981-9.1c1.327,1.327,1.506,3.6,1.42,5.315L8.09,10.527c1.877-.173,4.57-.06,6.007,1.376Zm-7.078.352,7.418,6.683c-1.877.171-4.563.057-6-1.377-1.325-1.325-1.506-3.6-1.421-5.306Z"/>
      <path id="Trazado_957988" data-name="Trazado 957988" d="M8.362,21.827A24.2,24.2,0,0,0,8,26a23.767,23.767,0,0,0,4.958,14.609l1.586-1.219A21.785,21.785,0,0,1,10,26a22.1,22.1,0,0,1,.332-3.827Z"/>
      <path id="Trazado_957989" data-name="Trazado 957989" d="M50.194,41.652a24.025,24.025,0,0,0,3.9-25.044l-1.84.783a22.027,22.027,0,0,1-3.574,22.957Z"/>
      <path id="Trazado_957990" data-name="Trazado 957990" d="M32,4A22.028,22.028,0,0,1,42.521,6.674l.958-1.756A24.015,24.015,0,0,0,15.834,8.261l1.348,1.478A21.943,21.943,0,0,1,32,4Z"/>
    </g>
  </g>
</svg>
