<svg xmlns="http://www.w3.org/2000/svg" width="70" height="70" viewBox="0 0 70 70">
  <g id="Grupo_1114922" data-name="Grupo 1114922" transform="translate(-199.571 -497)">
    <rect id="Rectángulo_412256" data-name="Rectángulo 412256" width="70" height="70" rx="5" transform="translate(199.571 497)" fill="#8bc34a"/>
    <g id="Layer_29" transform="translate(209.939 506.991)">
      <g id="Grupo_1116102" data-name="Grupo 1116102" transform="translate(-0.006 0.377)">
        <g id="Grupo_1116097" data-name="Grupo 1116097" transform="translate(0 6.065)">
          <g id="Grupo_1116084" data-name="Grupo 1116084" transform="translate(4.305)">
            <g id="Grupo_1116077" data-name="Grupo 1116077">
              <circle id="Elipse_13509" data-name="Elipse 13509" cx="19.777" cy="19.777" r="19.777" transform="translate(0.578 0.564)" fill="#55bde3"/>
              <path id="Trazado_957194" data-name="Trazado 957194" d="M65.755,105.036a20.345,20.345,0,1,1,14.382-5.963,20.338,20.338,0,0,1-14.382,5.963Zm0-39.544a19.2,19.2,0,1,0,19.2,19.2A19.223,19.223,0,0,0,65.755,65.492Z" transform="translate(-45.4 -64.35)"/>
            </g>
            <g id="Grupo_1116083" data-name="Grupo 1116083" transform="translate(2.256 0.005)">
              <g id="Grupo_1116078" data-name="Grupo 1116078" transform="translate(23.882 9.5)">
                <path id="Trazado_957195" data-name="Trazado 957195" d="M341.74,181.5l-1.868.91L337.91,186.5l-6.276,1.545-3.034-3.934,3.3-4.579-.768-1.7,2.579-2.721h.076a4.227,4.227,0,0,0,1.185-.18l.474.076a4.08,4.08,0,0,0,.588.038,4.864,4.864,0,0,0,3.157-1.147A19.691,19.691,0,0,1,341.74,181.5Z" transform="translate(-327.889 -173.018)" fill="#2a8078"/>
                <path id="Trazado_957196" data-name="Trazado 957196" d="M324.627,180.272l-3.527-4.56,3.356-4.664-.787-1.744,3.015-3.186H327a3.27,3.27,0,0,0,1-.152l.152-.047.152.028a2.949,2.949,0,0,0,.417.076,4.32,4.32,0,0,0,3.309-.986l.521-.436.341.588a19.811,19.811,0,0,1,2.617,7.822l.047.408-2.048,1-1.991,4.153Zm-2.1-4.589,2.55,3.309,5.65-1.394,1.934-4.029,1.678-.815a19.057,19.057,0,0,0-2.114-6.437,5.442,5.442,0,0,1-2.977.882,5.192,5.192,0,0,1-.664-.038l-.37-.057a4.343,4.343,0,0,1-1.043.161l-2.152,2.266.749,1.65Z" transform="translate(-321.1 -164.6)"/>
              </g>
              <g id="Grupo_1116079" data-name="Grupo 1116079" transform="translate(2.408 0)">
                <path id="Trazado_957197" data-name="Trazado 957197" d="M116.442,76.415l2.285,5.11-.294,4.465-4.608,1.792-1.346-3.129-4.048.36-1.621-3.707a29.691,29.691,0,0,0-4.171-2.73A11.074,11.074,0,0,1,100.6,77.42h.009a19.8,19.8,0,0,1,18.118-6.8Z" transform="translate(-100.031 -69.826)" fill="#2a8078"/>
                <path id="Trazado_957198" data-name="Trazado 957198" d="M108.091,83.086l-1.4-3.252-4.048.351-1.725-3.944a28.816,28.816,0,0,0-3.944-2.579,10.5,10.5,0,0,1-2.143-1.223l-.228-.171v-.512l.152-.152A20.32,20.32,0,0,1,110.29,64.4a21.094,21.094,0,0,1,3.091.228l.7.114-2.455,6.238,2.247,5.015-.332,4.968Zm-.683-4.456,1.3,3,3.745-1.46.265-3.963-2.323-5.2,2.1-5.347A19.288,19.288,0,0,0,96.022,71.88a11.286,11.286,0,0,0,1.422.749,31.128,31.128,0,0,1,4.285,2.8l.114.085,1.517,3.47Z" transform="translate(-94.6 -64.4)"/>
              </g>
              <g id="Grupo_1116080" data-name="Grupo 1116080" transform="translate(2.408)">
                <path id="Trazado_957199" data-name="Trazado 957199" d="M100.6,77.42a19.829,19.829,0,0,1,18.127-6.8l-2.285,5.793,2.285,5.11-.294,4.465-4.608,1.792-1.346-3.129-4.048.36-1.621-3.707Z" transform="translate(-100.031 -69.826)" fill="#2a8078"/>
                <path id="Trazado_957200" data-name="Trazado 957200" d="M108.091,83.086l-1.4-3.252-4.048.351-1.707-3.916L94.6,72.307v-.55l.152-.152A20.32,20.32,0,0,1,110.29,64.4a21.094,21.094,0,0,1,3.091.228l.7.114-2.455,6.238,2.247,5.015-.332,4.968Zm-.683-4.456,1.3,3,3.745-1.46.265-3.963-2.323-5.2,2.1-5.347a19.274,19.274,0,0,0-16.458,6.2l5.793,3.631,1.526,3.489Z" transform="translate(-94.6 -64.4)"/>
              </g>
              <g id="Grupo_1116081" data-name="Grupo 1116081" transform="translate(7.651 19.794)">
                <path id="Trazado_957201" data-name="Trazado 957201" d="M161.707,279.571s1.659-.171,2.294-.275a16.4,16.4,0,0,1,4.655.436l1.261,4.048-1.441,1.346-1.441,3.441-.531,5.214-2.977,3.337s-.588-2.266-.711-3.261-.36-3.119-.36-3.119l-1.214-.683-1.2-3.185-3.138-1.014,1.109-4.968Z" transform="translate(-156.236 -278.66)" fill="#2a8078"/>
                <path id="Trazado_957202" data-name="Trazado 957202" d="M156.906,292.812l-.265-1.024c-.028-.095-.6-2.313-.721-3.328-.095-.768-.265-2.228-.332-2.844l-1.138-.635-1.185-3.129-3.366-1.09,1.289-5.783,4.048-1.441h.076c.009-.009,1.65-.18,2.256-.284a16.882,16.882,0,0,1,4.873.446l.322.076,1.46,4.7-1.6,1.507-1.365,3.252-.54,5.309Zm-1.536-8.618,1.28.711.038.294c0,.019.237,2.143.36,3.119.066.521.265,1.432.436,2.143l2.143-2.389.512-5.12,1.526-3.631,1.261-1.185-1.052-3.394a14.282,14.282,0,0,0-4.115-.36c-.578.095-1.944.247-2.266.275l-3.337,1.185-.92,4.153,2.9.939Z" transform="translate(-149.9 -273.186)"/>
              </g>
              <g id="Grupo_1116082" data-name="Grupo 1116082" transform="translate(0 16.439)">
                <path id="Trazado_957203" data-name="Trazado 957203" d="M77.8,247.21l1.678-2.01,2.162,1v3.214h-.958Z" transform="translate(-76.985 -244.498)" fill="#2a8078"/>
                <path id="Trazado_957204" data-name="Trazado 957204" d="M74.424,243.289H72.7l-3.5-2.683,2.342-2.806,2.882,1.346Zm-1.337-1.138h.2v-2.285l-1.432-.664-1.024,1.223Z" transform="translate(-69.2 -237.8)"/>
              </g>
            </g>
          </g>
          <g id="Grupo_1116090" data-name="Grupo 1116090" transform="translate(25.174 20.426)">
            <g id="Grupo_1116085" data-name="Grupo 1116085" transform="translate(0 15.22)">
              <path id="Trazado_957205" data-name="Trazado 957205" d="M276.7,451.776l-1.934.958a1.9,1.9,0,0,1-2.285-1.033l-.8-1.773a2.306,2.306,0,0,1,1.024-2.977l1.052-.55" transform="translate(-270.922 -445.825)" fill="#ffc9a3"/>
              <path id="Trazado_957206" data-name="Trazado 957206" d="M268.811,447.892a2.46,2.46,0,0,1-2.247-1.441l-.8-1.782a2.887,2.887,0,0,1,1.28-3.707l1.052-.55a.553.553,0,0,1,.758.218.009.009,0,0,0,.009.01.562.562,0,0,1-.228.768.009.009,0,0,0-.009.01l-1.043.55a1.715,1.715,0,0,0-.777,2.237l.8,1.782a1.3,1.3,0,0,0,1.555.721l1.9-.929a.568.568,0,0,1,.758.265.553.553,0,0,1-.247.749.009.009,0,0,0-.009.01l-1.981.967-.047.019A2.325,2.325,0,0,1,268.811,447.892Z" transform="translate(-265.523 -440.34)"/>
            </g>
            <g id="Grupo_1116086" data-name="Grupo 1116086" transform="translate(1.982 13.512)">
              <path id="Trazado_957207" data-name="Trazado 957207" d="M300.232,434.681l-2.275,1.47a2.4,2.4,0,0,1-3.11-.986l-2.2-4.1a1.715,1.715,0,0,1,.635-2.285l.465-.284a1.72,1.72,0,0,1,2.361.607.009.009,0,0,0,.009.009l.512.9" transform="translate(-291.873 -427.696)" fill="#ffc9a3"/>
              <path id="Trazado_957208" data-name="Trazado 957208" d="M291.494,431.571a2.975,2.975,0,0,1-2.588-1.5H288.9l-2.2-4.105a2.281,2.281,0,0,1,.844-3.043l.465-.275a2.282,2.282,0,0,1,3.129.768l.028.057.512.891a.569.569,0,1,1-.986.569l-.512-.9a1.133,1.133,0,0,0-.7-.531,1.111,1.111,0,0,0-.882.123l-.465.275a1.139,1.139,0,0,0-.427,1.526l2.19,4.086a1.843,1.843,0,0,0,2.342.758l2.237-1.441a.569.569,0,1,1,.616.958l-2.3,1.479-.028.019A2.917,2.917,0,0,1,291.494,431.571Z" transform="translate(-286.424 -422.32)"/>
            </g>
            <g id="Grupo_1116087" data-name="Grupo 1116087" transform="translate(5.083 10.895)">
              <path id="Trazado_957209" data-name="Trazado 957209" d="M333.925,408.02l-2.56,1.659a2.713,2.713,0,0,1-3.517-1.109l-2.474-4.627a1.931,1.931,0,0,1,.711-2.579l.531-.322a1.951,1.951,0,0,1,2.655.673.035.035,0,0,1,.009.028l.588,1.014" transform="translate(-324.572 -400.2)" fill="#ffc9a3"/>
              <path id="Trazado_957210" data-name="Trazado 957210" d="M324.789,405.024a3.3,3.3,0,0,1-2.863-1.65v-.019l-2.484-4.627a2.507,2.507,0,0,1,.92-3.337l.531-.313a2.49,2.49,0,0,1,3.423.853c.009.019.019.028.028.047l.588,1.014a.569.569,0,0,1-.986.569l-.588-1.014a1.358,1.358,0,0,0-1.887-.493l-.521.313a1.365,1.365,0,0,0-.512,1.82l2.484,4.627a2.159,2.159,0,0,0,2.74.882l2.531-1.631a.569.569,0,1,1,.616.958l-2.6,1.669-.038.019A3.208,3.208,0,0,1,324.789,405.024Z" transform="translate(-319.142 -394.72)"/>
            </g>
            <g id="Grupo_1116088" data-name="Grupo 1116088" transform="translate(9.377 9.574)">
              <path id="Trazado_957211" data-name="Trazado 957211" d="M380.284,388.469l-1.233,4.778a2.993,2.993,0,0,1-2.6,2.237l-.209.019a2.98,2.98,0,0,1-2.759-1.251l-2.655-3.754a2.34,2.34,0,0,1,.446-3.167l.038-.028a2.334,2.334,0,0,1,3.28.36l.085.114,1.621,2.3" transform="translate(-369.839 -386.221)" fill="#ffc9a3"/>
              <path id="Trazado_957212" data-name="Trazado 957212" d="M370.533,390.659a3.582,3.582,0,0,1-2.92-1.507l-2.655-3.764a2.9,2.9,0,0,1,.559-3.934l.028-.028a2.9,2.9,0,0,1,4.19.6l1.621,2.294a.567.567,0,1,1-.891.7c-.01-.019-.019-.028-.028-.047l-1.621-2.294a1.741,1.741,0,0,0-1.195-.73,1.786,1.786,0,0,0-1.356.37l-.028.028a1.763,1.763,0,0,0-.341,2.389l2.655,3.764a2.465,2.465,0,0,0,2.237,1.014l.209-.019a2.45,2.45,0,0,0,2.1-1.82l1.232-4.778a.564.564,0,0,1,.711-.37.571.571,0,0,1,.389.654l-1.232,4.778a3.594,3.594,0,0,1-3.091,2.664l-.2.019Z" transform="translate(-364.43 -380.789)"/>
            </g>
            <g id="Grupo_1116089" data-name="Grupo 1116089" transform="translate(14.321)">
              <path id="Trazado_957213" data-name="Trazado 957213" d="M426.923,294.5l3.565,4.1a3.982,3.982,0,0,1-.92,5.546l-3.176,1.593a2.624,2.624,0,0,1-3.517-1.185c0-.009-.009-.009-.009-.019a2.542,2.542,0,0,1,.9-3.214l2.057-1.782a13.466,13.466,0,0,0,.739-2.266A27.412,27.412,0,0,0,426.923,294.5Z" transform="translate(-422.048 -293.106)" fill="#ffc9a3"/>
              <path id="Trazado_957214" data-name="Trazado 957214" d="M419.755,293.272a3.249,3.249,0,0,1-1.043-.171,3.165,3.165,0,0,1-1.83-1.631,3.1,3.1,0,0,1,1.062-3.915l1.934-1.678a11.638,11.638,0,0,0,.664-2.038,25.029,25.029,0,0,0,.341-2.683l.1-1.356,4.494,5.158a4.284,4.284,0,0,1,.749,3.622,4.506,4.506,0,0,1-1.877,2.759l-3.176,1.593A3.112,3.112,0,0,1,419.755,293.272Zm2.133-10.7c-.066.512-.142,1.081-.237,1.517a14.944,14.944,0,0,1-.777,2.37l-.057.114-2.209,1.915a1.941,1.941,0,0,0-.692,2.493,1.978,1.978,0,0,0,1.166,1.043,2.043,2.043,0,0,0,1.583-.1l3.176-1.593a3.478,3.478,0,0,0,1.28-2.01,3.151,3.151,0,0,0-.55-2.674Z" transform="translate(-416.577 -279.8)"/>
            </g>
          </g>
          <g id="Grupo_1116096" data-name="Grupo 1116096" transform="translate(0 20.426)">
            <g id="Grupo_1116091" data-name="Grupo 1116091" transform="translate(17.741 15.222)">
              <path id="Trazado_957215" data-name="Trazado 957215" d="M193.2,451.776l1.944.958a1.9,1.9,0,0,0,2.275-1.033l.8-1.773a2.306,2.306,0,0,0-1.024-2.977l-1.052-.55" transform="translate(-192.623 -445.828)" fill="#ffc9a3"/>
              <path id="Trazado_957216" data-name="Trazado 957216" d="M190.188,447.914a2.326,2.326,0,0,1-.721-.1l-.047-.019-1.981-.967a.574.574,0,0,1-.265-.758.582.582,0,0,1,.768-.265l1.9.929a1.319,1.319,0,0,0,1.564-.721l.787-1.782a1.714,1.714,0,0,0-.768-2.237l-1.052-.55a.585.585,0,0,1-.237-.777.565.565,0,0,1,.768-.228l1.052.55a2.887,2.887,0,0,1,1.28,3.707l-.8,1.782A2.445,2.445,0,0,1,190.188,447.914Z" transform="translate(-187.118 -440.364)"/>
            </g>
            <g id="Grupo_1116092" data-name="Grupo 1116092" transform="translate(13.192 13.504)">
              <path id="Trazado_957217" data-name="Trazado 957217" d="M145.1,434.681l2.275,1.47a2.4,2.4,0,0,0,3.11-.986l2.2-4.1a1.706,1.706,0,0,0-.635-2.285l-.465-.284a1.72,1.72,0,0,0-2.361.607.009.009,0,0,1-.009.009l-.512.9" transform="translate(-144.535 -427.689)" fill="#ffc9a3"/>
              <path id="Trazado_957218" data-name="Trazado 957218" d="M142.994,431.5a2.917,2.917,0,0,1-1.261-.284l-.028-.019-2.3-1.479a.569.569,0,0,1,.616-.958l2.237,1.441a1.843,1.843,0,0,0,2.342-.758l2.19-4.1a1.145,1.145,0,0,0-.417-1.526l-.474-.275a1.084,1.084,0,0,0-.872-.123,1.178,1.178,0,0,0-.711.531l-.512.9a.553.553,0,0,1-.758.218c-.009,0-.009-.009-.019-.009a.564.564,0,0,1-.209-.777l.512-.891a2.27,2.27,0,0,1,3.1-.853l.057.028.465.275a2.281,2.281,0,0,1,.844,3.043L145.582,430A2.975,2.975,0,0,1,142.994,431.5Z" transform="translate(-139.139 -422.242)"/>
            </g>
            <g id="Grupo_1116093" data-name="Grupo 1116093" transform="translate(9.096 10.897)">
              <path id="Trazado_957219" data-name="Trazado 957219" d="M101.9,407.983l2.56,1.659a2.713,2.713,0,0,0,3.517-1.109l2.484-4.627a1.943,1.943,0,0,0-.721-2.579l-.521-.322a1.948,1.948,0,0,0-2.664.683c0,.01-.009.01-.009.019l-.578,1.014" transform="translate(-101.335 -400.165)" fill="#ffc9a3"/>
              <path id="Trazado_957220" data-name="Trazado 957220" d="M100.211,405.041a3.209,3.209,0,0,1-1.384-.313l-.038-.019L96.2,403.04a.569.569,0,0,1,.616-.958l2.522,1.631a2.139,2.139,0,0,0,2.74-.882l2.484-4.627a1.373,1.373,0,0,0-.5-1.82l-.531-.313a1.361,1.361,0,0,0-1.868.455.072.072,0,0,0-.019.038l-.578,1.014a.573.573,0,0,1-1-.569l.588-1.014a2.5,2.5,0,0,1,3.4-.929c.019.009.028.019.047.028l.531.313a2.516,2.516,0,0,1,.929,3.337l-2.493,4.646A3.3,3.3,0,0,1,100.211,405.041Z" transform="translate(-95.939 -394.739)"/>
            </g>
            <g id="Grupo_1116094" data-name="Grupo 1116094" transform="translate(3.709 9.579)">
              <path id="Trazado_957221" data-name="Trazado 957221" d="M45.1,388.469l1.232,4.778a2.993,2.993,0,0,0,2.6,2.237l.209.019a2.98,2.98,0,0,0,2.759-1.251l2.655-3.754a2.34,2.34,0,0,0-.446-3.167l-.038-.028a2.334,2.334,0,0,0-3.28.36l-.085.114-1.621,2.3" transform="translate(-44.533 -386.225)" fill="#ffc9a3"/>
              <path id="Trazado_957222" data-name="Trazado 957222" d="M44.027,390.7l-.36-.019-.209-.019A3.594,3.594,0,0,1,40.367,388l-1.232-4.778a.573.573,0,1,1,1.109-.284l1.223,4.778a2.45,2.45,0,0,0,2.1,1.82l.209.019a2.465,2.465,0,0,0,2.237-1.014l2.655-3.764a1.763,1.763,0,0,0-.341-2.389l-.028-.028a1.77,1.77,0,0,0-2.55.36l-1.621,2.294a.565.565,0,0,1-.787.142.576.576,0,0,1-.142-.8l1.621-2.294a2.923,2.923,0,0,1,4.058-.7.716.716,0,0,1,.133.1l.028.028a2.9,2.9,0,0,1,.559,3.935l-2.655,3.764a3.582,3.582,0,0,1-2.92,1.507Z" transform="translate(-39.117 -380.834)"/>
            </g>
            <g id="Grupo_1116095" data-name="Grupo 1116095">
              <path id="Trazado_957223" data-name="Trazado 957223" d="M10.363,294.5l-3.574,4.1a3.982,3.982,0,0,0,.929,5.546l3.176,1.593a2.613,2.613,0,0,0,3.508-1.185.033.033,0,0,1,.009-.019,2.528,2.528,0,0,0-.891-3.214l-2.067-1.782a13.468,13.468,0,0,1-.739-2.266,26.367,26.367,0,0,1-.351-2.768Z" transform="translate(-5.452 -293.106)" fill="#ffc9a3"/>
              <path id="Trazado_957224" data-name="Trazado 957224" d="M6.593,293.272a3.045,3.045,0,0,1-1.413-.341L2,291.338a4.474,4.474,0,0,1-1.887-2.759,4.316,4.316,0,0,1,.749-3.622L.9,284.92l4.456-5.12.1,1.356c.009.019.142,1.744.341,2.683a14.207,14.207,0,0,0,.664,2.038L8.4,287.555a3.09,3.09,0,0,1,1.062,3.915,3.166,3.166,0,0,1-1.83,1.631,3.249,3.249,0,0,1-1.043.171ZM1.777,285.64a3.151,3.151,0,0,0-.55,2.674,3.477,3.477,0,0,0,1.289,2.01l3.167,1.593A2.053,2.053,0,0,0,8.433,291a.033.033,0,0,1,.009-.019,1.961,1.961,0,0,0-.692-2.493l-.066-.047-2.152-1.868-.057-.114a14.948,14.948,0,0,1-.777-2.37c-.095-.436-.171-1-.237-1.517Z" transform="translate(0.006 -279.8)"/>
            </g>
          </g>
        </g>
        <g id="Grupo_1116099" data-name="Grupo 1116099" transform="translate(12.581 0)">
          <g id="Grupo_1116098" data-name="Grupo 1116098">
            <path id="Trazado_957225" data-name="Trazado 957225" d="M144.812,6A4.932,4.932,0,0,0,140.3,8.948a3.849,3.849,0,0,0,2.266,6.959,3.8,3.8,0,0,0,1.176-.18,5.077,5.077,0,0,0,1.071.114,4.92,4.92,0,1,0,0-9.841Z" transform="translate(-138.147 -5.467)" fill="#719b29"/>
            <path id="Trazado_957226" data-name="Trazado 957226" d="M137.118,11.386a4.417,4.417,0,0,1-2.721-7.9,5.468,5.468,0,1,1,3.925,7.727A4.3,4.3,0,0,1,137.118,11.386Zm2.247-9.907a4.352,4.352,0,0,0-3.991,2.607.493.493,0,0,1-.19.228,3.29,3.29,0,0,0,2.939,5.783.52.52,0,0,1,.294-.019,4.538,4.538,0,0,0,.948.1,4.352,4.352,0,1,0,0-8.7Z" transform="translate(-132.7 -0.377)"/>
          </g>
          <path id="Trazado_957227" data-name="Trazado 957227" d="M190.8,58.3h1.138V69.117H190.8Z" transform="translate(-185.292 -52.809)"/>
          <path id="Trazado_957228" data-name="Trazado 957228" d="M0,0H3.423V1.138H0Z" transform="translate(5.69 8.425) rotate(-40.782)"/>
          <path id="Trazado_957229" data-name="Trazado 957229" d="M0,0H1.138V2H0Z" transform="translate(4.049 6.73) rotate(-61.719)"/>
        </g>
        <g id="Grupo_1116101" data-name="Grupo 1116101" transform="translate(31.921 7.187)">
          <g id="Grupo_1116100" data-name="Grupo 1116100">
            <path id="Trazado_957230" data-name="Trazado 957230" d="M353.711,87.023a4.916,4.916,0,0,1-4.92,4.92,4.08,4.08,0,0,1-.588-.038l-.474-.076a4.226,4.226,0,0,1-1.185.18h-.076a3.848,3.848,0,0,1-2.19-6.959,4.921,4.921,0,0,1,9.433,1.972Z" transform="translate(-342.124 -81.532)" fill="#719b29"/>
            <path id="Trazado_957231" data-name="Trazado 957231" d="M341.11,87.228h-.095a4.417,4.417,0,0,1-2.626-7.9,5.492,5.492,0,1,1,4.977,7.831,5.19,5.19,0,0,1-.664-.038l-.37-.057A4.925,4.925,0,0,1,341.11,87.228Zm2.247-9.907a4.372,4.372,0,0,0-3.991,2.607.6.6,0,0,1-.18.228,3.281,3.281,0,0,0,1.858,5.935h.066a3.27,3.27,0,0,0,1-.152.548.548,0,0,1,.3-.019,2.948,2.948,0,0,0,.417.076,4.352,4.352,0,0,0,1-8.646A3.976,3.976,0,0,0,343.357,77.321Z" transform="translate(-336.691 -76.181)"/>
          </g>
          <path id="Trazado_957232" data-name="Trazado 957232" d="M394.8,134.5h1.138v10.817H394.8Z" transform="translate(-389.291 -128.971)"/>
          <path id="Trazado_957233" data-name="Trazado 957233" d="M0,0H3.423V1.138H0Z" transform="translate(5.689 8.462) rotate(-40.782)"/>
          <path id="Trazado_957234" data-name="Trazado 957234" d="M0,0H1.138V2H0Z" transform="translate(4.052 6.757) rotate(-61.719)"/>
        </g>
      </g>
    </g>
  </g>
</svg>
