<svg xmlns="http://www.w3.org/2000/svg" width="50" height="50" viewBox="0 0 50 50">
  <g id="Grupo_1116398" data-name="Grupo 1116398" transform="translate(-0.001)">
    <path id="Trazado_957780" data-name="Trazado 957780" d="M193.687,69.846a14.214,14.214,0,1,0-14.214-14.214A14.231,14.231,0,0,0,193.687,69.846Zm0-26.964a12.75,12.75,0,1,1-12.75,12.75A12.764,12.764,0,0,1,193.687,42.882Z" transform="translate(-161.945 -37.372)" fill="#12263f"/>
    <path id="Trazado_957781" data-name="Trazado 957781" d="M242.645,110.894h14.769a.732.732,0,0,0,.634-1.1l-1.324-2.294a.732.732,0,1,0-1.269.732l.69,1.2H243.914l6.116-10.593,3.683,6.38a.732.732,0,1,0,1.269-.732l-4.318-7.478a.732.732,0,0,0-1.269,0l-7.384,12.79a.732.732,0,0,0,.634,1.1Z" transform="translate(-218.288 -87.202)" fill="#12263f"/>
    <path id="Trazado_957782" data-name="Trazado 957782" d="M318.994,152.594a.732.732,0,0,0-1.465,0v2.013a.732.732,0,0,0,1.465,0Z" transform="translate(-286.519 -137.032)" fill="#12263f"/>
    <circle id="Elipse_13536" data-name="Elipse 13536" cx="0.732" cy="0.732" r="0.732" transform="translate(31.008 19.48)" fill="#12263f"/>
    <path id="Trazado_957783" data-name="Trazado 957783" d="M37.987,100.533l3.915,1.014a2.081,2.081,0,1,0,1.043-4.028L39.03,96.5a2.081,2.081,0,1,0-1.043,4.028Zm-.075-2.169a.616.616,0,0,1,.751-.442l3.915,1.014a.616.616,0,1,1-.309,1.192l-3.915-1.014A.617.617,0,0,1,37.912,98.364Z" transform="translate(-32.869 -87.02)" fill="#12263f"/>
    <path id="Trazado_957784" data-name="Trazado 957784" d="M30.335,184.414l4.037-.247h0a2.081,2.081,0,0,0-.254-4.153l-4.037.247a2.081,2.081,0,1,0,.254,4.153Zm-.588-2.485a.612.612,0,0,1,.424-.207l4.037-.247a.616.616,0,0,1,.075,1.229l-4.037.247A.616.616,0,0,1,29.747,181.929Z" transform="translate(-25.38 -162.43)" fill="#12263f"/>
    <path id="Trazado_957785" data-name="Trazado 957785" d="M71.918,20.98l3.409,2.176a2.081,2.081,0,1,0,2.238-3.508l-3.41-2.176a2.081,2.081,0,0,0-2.238,3.508Zm.6-2.085a.617.617,0,0,1,.85-.188l3.41,2.176a.616.616,0,1,1-.662,1.038l-3.41-2.176A.615.615,0,0,1,72.518,18.9Z" transform="translate(-64.026 -15.472)" fill="#12263f"/>
    <path id="Trazado_957786" data-name="Trazado 957786" d="M44.653,5.348A18.3,18.3,0,0,0,20.334,3.98a.732.732,0,1,0,.914,1.145A16.808,16.808,0,0,1,48.535,18.459,16.8,16.8,0,0,1,22.562,32.325a1.88,1.88,0,0,0-2.349.24L16.489,36.29l-2.777-2.777,3.725-3.725a1.88,1.88,0,0,0,.24-2.349A16.841,16.841,0,0,1,18.881,7.432a.732.732,0,1,0-1.121-.943A18.307,18.307,0,0,0,16.45,28.24a.4.4,0,0,1-.05.511l-3.725,3.725-.363-.363a.836.836,0,0,0-1.18,0L9.8,33.442a.852.852,0,0,0-1.106.085L6.565,35.659a.853.853,0,0,0-.085,1.106L.245,43A.83.83,0,0,0,0,43.59v5.677A.732.732,0,0,0,.733,50H6.411A.829.829,0,0,0,7,49.756l6.234-6.234a.853.853,0,0,0,1.106-.085L16.473,41.3a.853.853,0,0,0,.085-1.106l1.329-1.329a.834.834,0,0,0,0-1.18l-.363-.363L21.25,33.6a.4.4,0,0,1,.511-.05,18.26,18.26,0,0,0,22.892-28.2ZM11.722,33.595l4.684,4.684-.877.877-4.684-4.684Zm2.016,8.373-.87-.87a.732.732,0,0,0-1.036,1.036l.359.359L6.15,48.535H1.466V43.851l6.042-6.042,1.905,1.905a.732.732,0,0,0,1.036-1.036L8.034,36.262,9.3,35,15,40.7Z" fill="#12263f"/>
  </g>
</svg>
