<svg xmlns="http://www.w3.org/2000/svg" width="295" height="200" viewBox="0 0 295 200">
  <g id="Grupo_1117436" data-name="Grupo 1117436" transform="translate(-284.711 -9282)">
    <rect id="Rectángulo_416024" data-name="Rectángulo 416024" width="295" height="200" transform="translate(284.711 9282)" fill="#8bc34a"/>
    <g id="_13561873_5258166" data-name="13561873_5258166" transform="translate(258.061 9247.706)">
      <g id="OBJECT" transform="translate(41.53 57.205)">
        <g id="Grupo_1117417" data-name="Grupo 1117417" transform="translate(0 3.782)">
          <path id="Trazado_959487" data-name="Trazado 959487" d="M319.342,436.476H75.961a2.43,2.43,0,0,1-2.43-2.43v-.692a2.43,2.43,0,0,1,2.43-2.43H319.342a2.43,2.43,0,0,1,2.43,2.43v.692A2.43,2.43,0,0,1,319.342,436.476Z" transform="translate(-60.804 -286.078)" fill="#c1b6a3"/>
          <path id="Trazado_959488" data-name="Trazado 959488" d="M98.028,211.39s-18.953-9.875-16.442-47.169,27.934-54.63,51.788-67.148,37.907-32.92,77.176-30.095S286.578,103.29,297.388,125s16.094,38.548,11.412,59.474" transform="translate(-65.518 -66.713)" fill="none" stroke="#ececec" stroke-miterlimit="10" stroke-width="1"/>
          <path id="Trazado_959489" data-name="Trazado 959489" d="M77.883,378.9H67.05s-3.026.692-11.653-7.672C42.441,358.657,41.53,344.531,41.53,344.531s8.149-1.961,19.4,5.094c9.839,6.168,15.435,23.933,16.683,28.3.084.282.143.505.191.668Z" transform="translate(-41.53 -233.893)" fill="#c9c411"/>
          <path id="Trazado_959490" data-name="Trazado 959490" d="M77.883,378.607c-.028.123-.052.243-.08.362-.024.1-.048.207-.072.306H67.05s-3.026.692-11.653-7.672C42.441,359.036,41.53,344.91,41.53,344.91c10.129,3.973,33.335,30.249,36.083,33.391C77.792,378.5,77.883,378.607,77.883,378.607Z" transform="translate(-41.53 -234.272)" fill="#b2aa0f"/>
          <path id="Trazado_959491" data-name="Trazado 959491" d="M618.922,327.6s-2.4-13.18,5.46-23.882,16.163-11.878,16.163-11.878,1.966,17.12-3.495,27.822A38.567,38.567,0,0,1,623.291,335Z" transform="translate(-389.087 -202.307)" fill="#f3b612"/>
          <path id="Trazado_959492" data-name="Trazado 959492" d="M227.774,80.649c-12.387-2.977-48.936-6.361-73.439,20.286S104.5,125.661,94.011,155.671s9.828,62.917,9.828,62.917H306.748s13.1-37.354-2.184-70.077S251.4,86.329,227.774,80.649Z" transform="translate(-71.33 -73.911)" fill="#fbf9ac"/>
          <g id="Grupo_1117414" data-name="Grupo 1117414" transform="translate(31.721 42.42)">
            <path id="Trazado_959493" data-name="Trazado 959493" d="M161.069,231.7c-8.107,0-11.529-6.932-11.529-16.956v-6.822c0-9.3,2.79-15.934,9.953-16.84a12.909,12.909,0,0,1,1.757-.115,9.663,9.663,0,0,1,8.508,4.317v.006a17.164,17.164,0,0,1,2.395,9.541h19.01c0-17.082-8.217-27.557-21.4-30.556a37.755,37.755,0,0,0-8.42-.9q-.94,0-1.846.033c-19.96.736-30.314,13.611-30.314,37.927,0,25.058,10.991,37.96,32.16,37.96,18.922,0,29.825-10.875,29.825-31.028H172.786C172.786,226.695,168.908,231.7,161.069,231.7Z" transform="translate(-126.042 -173.377)" fill="#dcdb22"/>
            <path id="Trazado_959494" data-name="Trazado 959494" d="M153.181,235.886c-8.107,0-11.529-6.932-11.529-16.956v-6.822c0-9.3,2.79-15.934,9.953-16.84a12.91,12.91,0,0,1,1.758-.115,9.663,9.663,0,0,1,8.508,4.317v.006a17.164,17.164,0,0,1,2.395,9.541h19.01c0-17.082-8.217-27.557-21.4-30.556a37.756,37.756,0,0,0-8.42-.9q-.94,0-1.846.033c-19.96.736-30.314,13.611-30.314,37.927,0,25.058,10.991,37.96,32.16,37.96,18.922,0,29.825-10.875,29.825-31.028H164.9C164.9,230.876,161.019,235.886,153.181,235.886Z" transform="translate(-121.291 -175.896)" fill="none" stroke="#fff" stroke-miterlimit="10" stroke-width="1"/>
            <path id="Trazado_959495" data-name="Trazado 959495" d="M361.2,195.982v1.279h-18.65v-.426c0-3.839-2.253-7.464-8.019-7.464-5.5,0-8.2,2.239-8.2,4.8,0,10.983,36.128,2.346,36.578,29.537,0,18.234-11.712,25.591-27.3,25.591-17.388,0-30.632-5.225-30.632-26.124h18.83c0,7.891,3.874,9.277,10,9.277,3.6,0,8.739-.32,8.739-4.905,0-10.556-36.579-2.132-36.579-30.709,0-17.061,13.154-23.459,27.84-23.459C348.762,173.377,360.925,180.308,361.2,195.982Z" transform="translate(-231.925 -173.377)" fill="#dcdb22"/>
            <path id="Trazado_959496" data-name="Trazado 959496" d="M366.574,201.965v1.279h-18.65v-.426c0-3.839-2.253-7.464-8.019-7.464-5.5,0-8.2,2.239-8.2,4.8,0,10.983,36.128,2.346,36.578,29.537,0,18.234-11.712,25.591-27.3,25.591-17.388,0-30.632-5.225-30.632-26.124h18.829c0,7.891,3.874,9.277,10,9.277,3.6,0,8.739-.32,8.739-4.905,0-10.556-36.579-2.132-36.579-30.709,0-17.061,13.154-23.459,27.84-23.459C354.141,179.36,366.3,186.291,366.574,201.965Z" transform="translate(-235.165 -176.981)" fill="none" stroke="#fff" stroke-miterlimit="10" stroke-width="1"/>
            <path id="Trazado_959497" data-name="Trazado 959497" d="M522.411,219.247,536.2,249.956H513.853l-10.992-26.764h-7.388v26.764H475.562V176.6h37.93c13.785,0,20.9,10.556,20.9,22.5C534.394,207.624,530.43,215.728,522.411,219.247Zm-13.874-25.911H495.473v13.542h13.064c3.063,0,5.586-2.879,5.586-6.824S511.6,193.336,508.537,193.336Z" transform="translate(-334.67 -175.315)" fill="#dcdb22"/>
            <path id="Trazado_959498" data-name="Trazado 959498" d="M529.991,225.23l13.785,30.709H521.432l-10.992-26.764h-7.388v26.764H483.142V182.578h37.93c13.785,0,20.9,10.556,20.9,22.5C541.974,213.607,538.009,221.711,529.991,225.23Zm-13.874-25.911H503.053v13.542h13.064c3.063,0,5.586-2.879,5.586-6.824S519.18,199.319,516.117,199.319Z" transform="translate(-339.235 -178.919)" fill="none" stroke="#fff" stroke-miterlimit="10" stroke-width="1"/>
          </g>
          <path id="Trazado_959499" data-name="Trazado 959499" d="M127.245,401.559h4.486s4.79-6.463,3.421-12.166-4.182-7.6-4.182-7.6-4.79,3.345-6.007,8.744S127.245,401.559,127.245,401.559Z" transform="translate(-91.628 -256.485)" fill="#ed910e"/>
          <path id="Trazado_959500" data-name="Trazado 959500" d="M109.9,413.764h10.416s-1.217-9.352-10.037-11.709C110.275,402.055,106.626,406.769,109.9,413.764Z" transform="translate(-81.887 -268.691)" fill="#f3b612"/>
          <circle id="Elipse_13610" data-name="Elipse 13610" cx="5.47" cy="5.47" r="5.47" transform="translate(34.858 104.919)" fill="#fffbf2"/>
          <g id="Grupo_1117415" data-name="Grupo 1117415" transform="translate(176.65 128.241)">
            <rect id="Rectángulo_416262" data-name="Rectángulo 416262" width="13.948" height="3.321" fill="#f3b612"/>
            <rect id="Rectángulo_416263" data-name="Rectángulo 416263" width="13.948" height="3.321" transform="translate(1.875 3.321)" fill="#ed910e"/>
            <rect id="Rectángulo_416264" data-name="Rectángulo 416264" width="13.948" height="3.321" transform="translate(0.863 6.642)" fill="#f3b612"/>
            <rect id="Rectángulo_416265" data-name="Rectángulo 416265" width="13.948" height="3.321" transform="translate(1.369 9.963)" fill="#ed910e"/>
            <rect id="Rectángulo_416266" data-name="Rectángulo 416266" width="13.948" height="3.321" transform="translate(2.381 13.283)" fill="#f3b612"/>
          </g>
          <circle id="Elipse_13611" data-name="Elipse 13611" cx="3.749" cy="3.749" r="3.749" transform="translate(26.276 55.813)" fill="#dcdb22"/>
          <path id="Trazado_959501" data-name="Trazado 959501" d="M125.7,246.383h16.818a6.764,6.764,0,0,0-4.7-3.822c-3.429-.674-4.805.983-4.805.983s-.874-3.713-6.116-3.713-7.208,6.552-7.208,6.552Z" transform="translate(-88.606 -170.983)" fill="#fff"/>
          <path id="Trazado_959502" data-name="Trazado 959502" d="M649.881,264.27H666.7a6.764,6.764,0,0,0-4.7-3.822c-3.429-.674-4.8.983-4.8.983s-.874-3.713-6.116-3.713-7.208,6.552-7.208,6.552h6.006Z" transform="translate(-404.325 -181.756)" fill="#e8e1d4"/>
          <path id="Trazado_959503" data-name="Trazado 959503" d="M653.415,344.05s-.909,14.129-13.87,26.695c-8.627,8.364-11.648,7.673-11.648,7.673H617.062s1.745-19.5,16.95-29.275C645.188,341.964,653.415,344.05,653.415,344.05Z" transform="translate(-388.175 -233.584)" fill="#b2aa0f"/>
          <g id="Grupo_1117416" data-name="Grupo 1117416" transform="translate(102.62 131.82)">
            <path id="Trazado_959504" data-name="Trazado 959504" d="M307.17,410.256s-.431-.981-1.491-3.217a13.634,13.634,0,0,0-2.589-3.688,6.24,6.24,0,0,1,3.452,1.8,5.4,5.4,0,0,1,1.413,3.178s-.2-7.493-.981-10.162a7.125,7.125,0,0,1,2.746,4.276,10.71,10.71,0,0,1,0,5.846,6.471,6.471,0,0,1,4.355-3.57l-3.335,5.963Z" transform="translate(-301.688 -398.172)" fill="#c9c411"/>
            <path id="Trazado_959505" data-name="Trazado 959505" d="M299.565,427.547s.43-1.34,3.246-2.145a6.683,6.683,0,0,1,5.257,1.072,4.635,4.635,0,0,1,3.139-.915,3.9,3.9,0,0,1,3.413,1.988H299.565Z" transform="translate(-299.565 -414.456)" fill="#b2aa0f"/>
          </g>
          <path id="Trazado_959506" data-name="Trazado 959506" d="M501.358,150.025a2.227,2.227,0,1,1-2.227-2.227A2.227,2.227,0,0,1,501.358,150.025Z" transform="translate(-315.803 -115.551)" fill="none" stroke="#008e8e" stroke-miterlimit="10" stroke-width="1"/>
          <circle id="Elipse_13612" data-name="Elipse 13612" cx="2.082" cy="2.082" r="2.082" transform="translate(96.816 45.999)" fill="none" stroke="#008e8e" stroke-miterlimit="10" stroke-width="1"/>
          <path id="Trazado_959507" data-name="Trazado 959507" d="M661.265,344.476s-.909,14.129-13.87,26.695c-8.627,8.364-11.648,7.673-11.648,7.673H630.1c.354-1.077,2.908-8.318,10.176-17.318C648.155,351.763,661.265,344.476,661.265,344.476Z" transform="translate(-396.025 -234.011)" fill="#c9c411"/>
          <circle id="Elipse_13613" data-name="Elipse 13613" cx="3.31" cy="3.31" r="3.31" transform="translate(53.742 38.366) rotate(-76.714)" fill="#e8e1d4"/>
          <circle id="Elipse_13614" data-name="Elipse 13614" cx="4.531" cy="4.531" r="4.531" transform="translate(253.358 105.787) rotate(-80.747)" fill="#e8e1d4"/>
          <path id="Trazado_959508" data-name="Trazado 959508" d="M622.406,169.464a2.583,2.583,0,1,1-2.583-2.583A2.583,2.583,0,0,1,622.406,169.464Z" transform="translate(-388.282 -127.045)" fill="#f3b612"/>
        </g>
        <g id="Grupo_1117422" data-name="Grupo 1117422" transform="translate(35.312 0)">
          <g id="Grupo_1117418" data-name="Grupo 1117418" transform="translate(139.917 37.304)">
            <path id="Trazado_959509" data-name="Trazado 959509" d="M568.4,422.528l-2.333.589a17.282,17.282,0,0,1-3.918.528,40.261,40.261,0,0,1-5.811-.1c-.477-1.01.692-1.9,3.876-3.441l.033-.014c3.207-1.552,3.156-2.454,3.156-2.454l4.721.323.309,1.127.631,2.3A.925.925,0,0,1,568.4,422.528Z" transform="translate(-526.768 -311.599)" fill="#c67466"/>
            <path id="Trazado_959510" data-name="Trazado 959510" d="M568.4,424.722l-2.333.589a17.283,17.283,0,0,1-3.918.528,40.266,40.266,0,0,1-5.811-.1c-.477-1.01.692-1.9,3.876-3.441a6.343,6.343,0,0,0,2.856.706c2.244.178,3.847-1.351,5.362-1.725l.631,2.3A.925.925,0,0,1,568.4,424.722Z" transform="translate(-526.768 -313.793)" fill="#332a23"/>
            <path id="Trazado_959511" data-name="Trazado 959511" d="M529.708,264.034l-5.242,6.092,3.585,2,6.032-5.911Z" transform="translate(-507.633 -219.083)" fill="#ff9279"/>
            <path id="Trazado_959512" data-name="Trazado 959512" d="M547.17,224.133a5.967,5.967,0,0,1-.382,1.869,16.188,16.188,0,0,1-6.28,7.413l-1.157-.811L535.8,230.11l4.208-6.415c.274-2.159.716-5.079,1.145-7.827.565-3.571,1.114-6.856,1.281-7.835.032-.191.048-.294.048-.294S547.536,218.3,547.17,224.133Z" transform="translate(-514.46 -185.176)" fill="#ffc2ac"/>
            <path id="Trazado_959513" data-name="Trazado 959513" d="M552.549,224.579a5.967,5.967,0,0,1-.382,1.869,16.188,16.188,0,0,1-6.28,7.413l-1.157-.811c1.213-1.169,4.164-4.43,4.255-8.61a15.91,15.91,0,0,0-2.454-8.125c.565-3.571,1.114-6.856,1.281-7.835C549,211.57,551.881,219.448,552.549,224.579Z" transform="translate(-519.838 -185.622)" fill="#edac98"/>
            <path id="Trazado_959514" data-name="Trazado 959514" d="M555.359,361.7l6.875,21.837h5.45s-.688-17.064-3.383-22.468S555.359,361.7,555.359,361.7Z" transform="translate(-526.24 -276.175)" fill="#c67466"/>
            <path id="Trazado_959515" data-name="Trazado 959515" d="M577.845,362.245c.8,8.271,7.237,21.481,7.237,21.481h5.054s-3.216-19.586-3.963-22.314C586.173,361.412,577.041,353.975,577.845,362.245Z" transform="translate(-539.753 -275.884)" fill="#ff9279"/>
            <path id="Trazado_959516" data-name="Trazado 959516" d="M570.6,227.347c-13,4.756-11.032-5.17-11.032-5.17s-5.432-10.539-7.405-18.553a17.73,17.73,0,0,1-.656-5.822c.6-5.277,2.505-7.608,2.505-7.608L558.9,187.2a9.53,9.53,0,0,1,3.217.9,15.862,15.862,0,0,1,5.8,4.593,11.2,11.2,0,0,1,.994,1.479,62.166,62.166,0,0,1,4.474,11.438c2.223,7.214,3.87,14.5,3.87,14.5S579.15,224.218,570.6,227.347Z" transform="translate(-523.886 -172.805)" fill="#ed910e"/>
            <path id="Trazado_959517" data-name="Trazado 959517" d="M562.117,188.1c-.445,3.307-1.613,8.1-4.647,11.625a11.744,11.744,0,0,1-5.311,3.9,17.632,17.632,0,0,1-.654-5.819c.6-5.279,2.5-7.61,2.5-7.61L558.9,187.2A9.455,9.455,0,0,1,562.117,188.1Z" transform="translate(-523.887 -172.806)" fill="#d87e13"/>
            <path id="Trazado_959518" data-name="Trazado 959518" d="M539.253,157.915a5.243,5.243,0,0,0-3.018,5.073,17.052,17.052,0,0,0,.268,2.217,25.587,25.587,0,0,0,3.4,6.885,36.064,36.064,0,0,0,3.391-1.361l2.092,2.33,3.806-3.466-1.706-3.562a23.122,23.122,0,0,0-.633-5.52,5,5,0,0,0-4.122-3.411A7.428,7.428,0,0,0,539.253,157.915Z" transform="translate(-514.715 -154.665)" fill="#ff9279"/>
            <path id="Trazado_959519" data-name="Trazado 959519" d="M506.384,284.21a4.628,4.628,0,0,0,2.509-3.118,8.1,8.1,0,0,0-.529-4.764,3.431,3.431,0,0,0-2.084-2.1c-2.14-.541-3.722,1.9-3.722,1.9l.3.41a6.675,6.675,0,0,0-11.676,5.19l.776,6.184-4.919-4.625.612-2.609a5.346,5.346,0,0,0-5.508,4.1l3.456-.115,6.876,7.353.032.247.569,4.526s3.659,2.159,10.292-.135c4.621-1.6,6.339-4.391,6.339-4.391Zm-.433-1.062-1.774-4.3-.2-.493a5.989,5.989,0,0,0-.354-.716,6.639,6.639,0,0,0-.465-.712,3.09,3.09,0,0,1,2.386-1.682c.855-.012,2.08,1.328,2.275,3.488a6.95,6.95,0,0,1-.012,1.376c-.219,2.08-1.241,2.84-1.825,3.11Z" transform="translate(-482.14 -225.178)" fill="#c1b6a3"/>
            <path id="Trazado_959520" data-name="Trazado 959520" d="M591.652,226.6c-3.062,5.285-7.532,3.627-7.532,3.627l4.466-25.492a62.169,62.169,0,0,1,4.474,11.438C593.406,219.2,593.446,223.5,591.652,226.6Z" transform="translate(-543.563 -183.363)" fill="#d87e13"/>
            <path id="Trazado_959521" data-name="Trazado 959521" d="M525.4,295.56s-1.718,2.788-6.339,4.391c-6.634,2.295-10.292.135-10.292.135l-.569-4.526c2.084-.072,5.218-.855,9.012-3.909a18.41,18.41,0,0,0,4.434-5.21l.028.072c.585-.27,1.607-1.03,1.825-3.11a6.944,6.944,0,0,0,.012-1.376,21.128,21.128,0,0,0,.549-2.406,8.1,8.1,0,0,1,.529,4.764,4.628,4.628,0,0,1-2.509,3.118Z" transform="translate(-497.836 -228.47)" fill="#afa18c"/>
            <path id="Trazado_959522" data-name="Trazado 959522" d="M554.752,163.622l-.378.529-.3.418-1.141-1.344.68,1.889-6.606,6.129c-2.088-2.39-3.917-8.026-3.917-8.026s.541.032,1.082-1.11-.235-3.337-1.36-3.349a1.38,1.38,0,0,0-1.348,1.094,10,10,0,0,1-6.538-2.732c-.656,3.528.119,5.186.151,5.258-.111-.048-2.144-1.006-1.448-5.106a6.783,6.783,0,0,1,.871-2.39,6.956,6.956,0,0,1,3.651-2.927s4.8-2.466,9.115.553S554.752,163.622,554.752,163.622Z" transform="translate(-513.066 -151.004)" fill="#47392b"/>
            <path id="Trazado_959523" data-name="Trazado 959523" d="M578.294,274.189c-.457,11.179-8.94,26.622-8.94,26.622l-5.154-.04-13.14-.107a19.15,19.15,0,0,1-.64-11.466,76,76,0,0,1,5.226-14.46c1.483-3.186,2.676-5.337,2.736-5.448l0,0-.43-4.422L557.8,263.3l17.316-5.576S578.755,263.005,578.294,274.189Z" transform="translate(-522.935 -215.28)" fill="#70604a"/>
            <path id="Trazado_959524" data-name="Trazado 959524" d="M590.309,274.189c-.457,11.179-8.94,26.622-8.94,26.622l-5.154-.04c3.11-6.192,11.939-31.6,6.777-34.886-4.108-2.613-10.074-1.71-13.021-1.022l-.151-1.567,17.316-5.576S590.771,263.005,590.309,274.189Z" transform="translate(-534.95 -215.28)" fill="#5b4c3b"/>
            <path id="Trazado_959525" data-name="Trazado 959525" d="M553.273,264.034l-5.867,5.145-4.27,1.1-1.1,2.44.5.868,1.614-1.672-.387,2.375a1.92,1.92,0,0,0,.995.523l1.855.527.884-1.054s1.3-.7,1.9-1.133a2.076,2.076,0,0,0,.772-.966l5.655-3.724Z" transform="translate(-518.214 -219.083)" fill="#ff9279"/>
            <path id="Trazado_959526" data-name="Trazado 959526" d="M579.346,218.664a14.811,14.811,0,0,1-3.575,5.52,49.429,49.429,0,0,1-7.763,6.463l-1.265-1.77-1.591-2.227-.712-1,7.445-8.491a90.9,90.9,0,0,1-2.541-10.018c-.732-4.442.982-7.648,2.939-8.714h0a2.858,2.858,0,0,1,1.579-.37,2.484,2.484,0,0,1,1.873,1.169c1.71,2.517,3.834,9.2,4.045,14.723A15.461,15.461,0,0,1,579.346,218.664Z" transform="translate(-531.71 -179.341)" fill="#ffc2ac"/>
            <path id="Trazado_959527" data-name="Trazado 959527" d="M590.9,425.047l-2.333.589a17.284,17.284,0,0,1-3.918.528,40.267,40.267,0,0,1-5.811-.1c-.477-1.01.692-1.9,3.876-3.441l.033-.014c3.207-1.552,3.156-2.454,3.156-2.454l4.721.323.309,1.127.631,2.3A.925.925,0,0,1,590.9,425.047Z" transform="translate(-540.321 -313.116)" fill="#ff9279"/>
            <path id="Trazado_959528" data-name="Trazado 959528" d="M590.9,427.241l-2.333.589a17.282,17.282,0,0,1-3.918.528,40.262,40.262,0,0,1-5.811-.1c-.477-1.01.692-1.9,3.876-3.441a6.342,6.342,0,0,0,2.856.706c2.244.178,3.847-1.351,5.362-1.725l.631,2.3A.926.926,0,0,1,590.9,427.241Z" transform="translate(-540.321 -315.31)" fill="#332a23"/>
            <path id="Trazado_959529" data-name="Trazado 959529" d="M556.291,163.622l-.378.529c-.887-1.69-4.9-9.083-8.173-10.988-3.134-1.825-8.26-1.384-11.7,1.718a6.955,6.955,0,0,1,3.651-2.927s4.8-2.466,9.115.553S556.291,163.622,556.291,163.622Z" transform="translate(-514.604 -151.004)" fill="#70604a"/>
            <path id="Trazado_959530" data-name="Trazado 959530" d="M582.833,218.675a14.812,14.812,0,0,1-3.575,5.52,49.426,49.426,0,0,1-7.763,6.463l-1.265-1.77a20.335,20.335,0,0,0,9.624-8.745c3.217-6.184-1.308-19.531-2.5-22.072a2.483,2.483,0,0,1,1.873,1.169c1.71,2.517,3.834,9.2,4.045,14.723A15.463,15.463,0,0,1,582.833,218.675Z" transform="translate(-535.197 -179.352)" fill="#edac98"/>
            <path id="Trazado_959531" data-name="Trazado 959531" d="M583.751,246.36s5.212,1.818,5.837,1.25.455-.511-1.477-1.25A7.806,7.806,0,0,0,583.751,246.36Z" transform="translate(-543.341 -208.24)" fill="#edac98"/>
            <path id="Trazado_959532" data-name="Trazado 959532" d="M572.684,218.225s-5.54,6.522-7.532,9l-.712-1,7.445-8.491a90.9,90.9,0,0,1-2.541-10.018c-.732-4.442.982-7.648,2.939-8.714,0,.008-.012.012-.016.016-1.527,1.265-2.152,4.076-1.981,7.314S572.684,218.225,572.684,218.225Z" transform="translate(-531.71 -179.912)" fill="#ffd8cc"/>
            <path id="Trazado_959533" data-name="Trazado 959533" d="M520.137,284.129c-.577.521-1.973,1.416-5.2,2.2-4.9,1.193-6.3.382-6.3.382s1.479.1,5.512-1.205a19.072,19.072,0,0,0,5.429-2.589,5.99,5.99,0,0,1,.354.716Z" transform="translate(-498.101 -230.458)" fill="#afa18c"/>
          </g>
          <g id="Grupo_1117419" data-name="Grupo 1117419" transform="translate(0 60.694)">
            <path id="Trazado_959534" data-name="Trazado 959534" d="M214.2,366.075l13.39-6.318a36.741,36.741,0,0,0,.51,7.122,34.451,34.451,0,0,0,1.953,7.811h5.973s3.217-20.907,1.493-24.583-4.442-4.939-8.079-4.6-18.876,5.648-18.876,5.648S205.931,355.737,214.2,366.075Z" transform="translate(-177.873 -291.515)" fill="#47392b"/>
            <path id="Trazado_959535" data-name="Trazado 959535" d="M188.16,374.9H159.367v-5.627l11.835-4.136s-8.964-6.892-11.835-14.472,0-13.247,0-13.247l6.264,1.714,19.539,5.349-5.071,7.043s9.477,11.2,10.515,15.793A8.146,8.146,0,0,1,188.16,374.9Z" transform="translate(-147.047 -286.673)" fill="#70604a"/>
            <path id="Trazado_959536" data-name="Trazado 959536" d="M159.367,369.272l11.835-4.134s-8.963-6.892-11.835-14.474,0-13.247,0-13.247l6.265,1.717.319,1.981s-3.546,7.2,3.217,16.745c5.281,7.457,10.807,9.977,10.807,9.977l-20.607,4.229Z" transform="translate(-147.047 -286.671)" fill="#5b4c3b"/>
            <path id="Trazado_959537" data-name="Trazado 959537" d="M142.814,416.7h-1.091a7.084,7.084,0,0,0-3.3-2.068,41.355,41.355,0,0,1-3.188,3.159c-.8.574-3.417,1.9-4.336,2.642s-.459,1.378-.459,1.378l12.205-.776Z" transform="translate(-130.322 -333.177)" fill="#332a23"/>
            <path id="Trazado_959538" data-name="Trazado 959538" d="M238.272,266.741l7.569,23.128-3.784,6.509s-4.869-.766-7.32-7.046S238.272,266.741,238.272,266.741Z" transform="translate(-192.856 -244.103)" fill="#47392b"/>
            <path id="Trazado_959539" data-name="Trazado 959539" d="M229.922,258.786a15.3,15.3,0,0,1-.159,1.881c-1.127-.981-2.462-2.163-4.007-3.462a23.264,23.264,0,0,1-8.118-13.025c.99-.472,1.6-.7,1.6-.7l6.642,3.485A18.668,18.668,0,0,1,229.922,258.786Z" transform="translate(-182.913 -230.096)" fill="#e5a415"/>
            <path id="Trazado_959540" data-name="Trazado 959540" d="M195.991,258.789a15.976,15.976,0,0,1-.159,1.881c-1.006,7.1-6.4,21.3-8.169,25.822-.35.9-.561,1.416-.561,1.416s-1.794,5.11-14.393-.636c-8.284-3.774-11.41-6.431-11.41-6.431s1.237-3.655,3.019-8.455a176.376,176.376,0,0,1,6.912-16.437l0,0a24.191,24.191,0,0,1,3.313-5.273,31.659,31.659,0,0,1,9.159-6.49c.99-.473,1.6-.692,1.6-.692l1.34.7,5.3,2.78h0A18.665,18.665,0,0,1,195.991,258.789Z" transform="translate(-148.98 -230.099)" fill="#f3b612"/>
            <path id="Trazado_959541" data-name="Trazado 959541" d="M238.137,218.631a18.438,18.438,0,0,1-.155,2.414c-.346,2.49-3.062,7.584-3.253,7.66a39.457,39.457,0,0,1-3.754-1.265l-.748.935-4.84-3.253-.537-.362.533-.879.768-1.265V222.6a28.871,28.871,0,0,1,.171-5.142c.048-.3.107-.593.175-.859a5.221,5.221,0,0,1,.732-1.627,0,0,0,0,1,0,0,5.448,5.448,0,0,1,3.512-2.311,8.032,8.032,0,0,1,3.814.668,5.65,5.65,0,0,1,3.432,4.013h0A5.79,5.79,0,0,1,238.137,218.631Z" transform="translate(-187.256 -211.503)" fill="#ff9279"/>
            <path id="Trazado_959542" data-name="Trazado 959542" d="M240.673,214.822a3.589,3.589,0,0,1-1.873.835h0a10.736,10.736,0,0,0-5.071-1.611s.259.143.259,1.666a2.637,2.637,0,0,1-1.5,2.211l-.191,1.034h-.986s.143-2.1-.859-2.068-1.408,1.293-1.352,2.414a1.582,1.582,0,0,0,.947,1.436,3.268,3.268,0,0,1-2.334.338,7.168,7.168,0,0,1-.756-.147.012.012,0,0,0,0-.008,0,0,0,1,0,0-.008h0a15.588,15.588,0,0,1-.692-5.775,3.949,3.949,0,0,1,2.239-3.333,3.375,3.375,0,0,1,2.442-1.81,8.146,8.146,0,0,1,6.407,1.464,12.653,12.653,0,0,1,3.313,3.345l.012.012Z" transform="translate(-188.062 -209.818)" fill="#47392b"/>
            <path id="Trazado_959543" data-name="Trazado 959543" d="M232.16,259.52s-3.349,14.425-3.436,18.183l1.718,5.147,2.949-5.092s1.071-14.8-.171-18.238Z" transform="translate(-189.59 -239.754)" fill="#70604a"/>
            <path id="Trazado_959544" data-name="Trazado 959544" d="M229.667,246.325v0h0l-2.159,2.35-3.583-4.669.445-.461.461-.477.628-.652Z" transform="translate(-186.696 -229.454)" fill="#ed910e"/>
            <path id="Trazado_959545" data-name="Trazado 959545" d="M238.37,250.826l1.318,2.645a12.116,12.116,0,0,1,0-1.516,5.047,5.047,0,0,0-.567-2.065Z" transform="translate(-195.4 -233.954)" fill="#ed910e"/>
            <path id="Trazado_959546" data-name="Trazado 959546" d="M266.034,295.877l.891,2.529-4.391,5.126.1-6.232c0-.219,0-.434-.02-.648a6.562,6.562,0,0,0-.2-1.161,6.671,6.671,0,0,0-11.951-2.084l.251-.441s-1.837-2.259-3.905-1.491c-1.806.672-2.513,3.726-2.1,6.117a6.747,6.747,0,0,0,.247.986,4.64,4.64,0,0,0,2.832,2.832l-2.43,8.368s2.008,2.585,6.777,3.679c6.844,1.563,10.249-.978,10.249-.978l.02-1.157.06-3.655,6.041-8.053,3.448-.258A5.347,5.347,0,0,0,266.034,295.877Zm-16.481-.549L248.778,298l-.692,2.378c-.612-.207-1.71-.851-2.156-2.891a6.63,6.63,0,0,1-.159-1.559c.024-2.068,1.058-3.448,1.885-3.528a3.082,3.082,0,0,1,2.553,1.416A6.51,6.51,0,0,0,249.553,295.328Z" transform="translate(-199.15 -258.421)" fill="#c1b6a3"/>
            <path id="Trazado_959547" data-name="Trazado 959547" d="M262.574,318.937l-.02,1.157s-3.4,2.541-10.249.978c-4.768-1.094-6.777-3.679-6.777-3.679l2.43-8.368a4.64,4.64,0,0,1-2.832-2.832,6.749,6.749,0,0,1-.247-.986l.219-2.048.843.386a6.631,6.631,0,0,0,.159,1.559c.445,2.04,1.543,2.684,2.156,2.891l.692-2.378c.115,2.068.927,8.141,6.359,11.167A14.732,14.732,0,0,0,262.574,318.937Z" transform="translate(-199.321 -266.038)" fill="#afa18c"/>
            <path id="Trazado_959548" data-name="Trazado 959548" d="M203.255,284.173s-11.569,7.095-16.751,7c-4.6-.08-7.007-2.3-6.319-11.37.469-6.14,3.408-12.229,5.258-15.522.032-.06.068-.119.1-.175a5.031,5.031,0,0,1,.791-1,4.976,4.976,0,0,1,5.472-.951,4.792,4.792,0,0,1,2.975,4.741,1.155,1.155,0,0,1-.012.159c-.342,5.4-6.085,13.553-6.085,13.553l12.519-1.837.37.978,1.034,2.72.048.135Z" transform="translate(-160.285 -241.086)" fill="#ed910e"/>
            <path id="Trazado_959549" data-name="Trazado 959549" d="M233.7,298.753l1-.465a47.383,47.383,0,0,1,3.714-3.676,1.865,1.865,0,0,1,2.891.287c.306.612.172.881.172.881a1.464,1.464,0,0,1,.4,1.225,1.173,1.173,0,0,1,.287,1.072,2.079,2.079,0,0,1,.032,1.359,1.7,1.7,0,0,1-1.43,1,6.207,6.207,0,0,1-1.819,1.474,7.294,7.294,0,0,1-2.317.345l-1.271.876Z" transform="translate(-192.588 -260.563)" fill="#ff9279"/>
            <path id="Trazado_959550" data-name="Trazado 959550" d="M262.408,417.921v1.57a15.44,15.44,0,0,0-.421,3.982,17.138,17.138,0,0,0,3.753.459c2.183.038,2.949-.191,3.753-.191s2.068.077,3.714,0a4.532,4.532,0,0,0,1.953-.306s.23-.612-.8-1.532-6.548-2.3-7.084-3.025a2.7,2.7,0,0,1-.574-1.263Z" transform="translate(-209.614 -334.975)" fill="#332a23"/>
            <path id="Trazado_959551" data-name="Trazado 959551" d="M235.651,253.419l.68,1.718h1.059l.171-1.228a2.241,2.241,0,0,0-.83-1.666Z" transform="translate(-193.762 -235.371)" fill="#70604a"/>
            <path id="Trazado_959552" data-name="Trazado 959552" d="M187.662,330.254c-.35.9-.559,1.417-.559,1.417s-1.794,5.111-14.392-.636C164.424,327.26,161.3,324.6,161.3,324.6s1.236-3.652,3.021-8.455c1.217,3.171,4.357,9.622,10.48,12.289C181.038,331.154,185.731,330.658,187.662,330.254Z" transform="translate(-148.98 -273.861)" fill="#e5a415"/>
            <path id="Trazado_959553" data-name="Trazado 959553" d="M203.257,287.776s-11.571,7.1-16.75,7.005c-4.6-.082-7.01-2.3-6.319-11.371.468-6.142,3.407-12.23,5.256-15.523.032-.059.068-.118.1-.173-2.131,5.819-5.579,17.186-1.586,20.793,4.747,4.28,15.855-1,18.649-2.435l.05.136Z" transform="translate(-160.286 -244.69)" fill="#dd8112"/>
            <path id="Trazado_959554" data-name="Trazado 959554" d="M224.1,241.529l-.628.652-.461.477-.445.461-.895-1.165,1.8-1.014Z" transform="translate(-185.341 -228.563)" fill="#fcb76b"/>
            <path id="Trazado_959555" data-name="Trazado 959555" d="M200.354,243.49l.895,1.165a25.144,25.144,0,0,0-5.138,2.048c-5.483,2.621-9.644,9.02-9.831,9.242a24.191,24.191,0,0,1,3.313-5.273,31.659,31.659,0,0,1,9.159-6.49C199.742,243.709,200.354,243.49,200.354,243.49Z" transform="translate(-164.026 -230.099)" fill="#ffdc97"/>
            <path id="Trazado_959556" data-name="Trazado 959556" d="M227.713,237.907l-.891,1.706-.632-.589.768-1.265A7.169,7.169,0,0,0,227.713,237.907Z" transform="translate(-188.064 -226.648)" fill="#ffbbb0"/>
            <path id="Trazado_959557" data-name="Trazado 959557" d="M240.657,214.806c-.231-.215-3.977-3.711-7.385-4.148-3.52-.453-4.148,1.364-4.148,1.364l.068.024,1.042.374a2.831,2.831,0,0,0-2.2.867,0,0,0,0,0,0,0,3.456,3.456,0,0,0-.5.66,4.147,4.147,0,0,0-.406,1.825,25.112,25.112,0,0,0,.585,5.3,7.16,7.16,0,0,1-.756-.147.012.012,0,0,0,0-.008,0,0,0,1,0,0-.008h0a15.588,15.588,0,0,1-.692-5.775,3.949,3.949,0,0,1,2.239-3.333,3.375,3.375,0,0,1,2.442-1.81,8.146,8.146,0,0,1,6.407,1.464A12.654,12.654,0,0,1,240.657,214.806Z" transform="translate(-188.062 -209.818)" fill="#70604a"/>
            <path id="Trazado_959558" data-name="Trazado 959558" d="M207.838,280.394l-.37-.978-12.519,1.837s5.743-8.153,6.085-13.554a1.153,1.153,0,0,0,.012-.159,4.792,4.792,0,0,0-2.975-4.741,5.632,5.632,0,0,1,1.938,4.776c-.329,3.687-3.935,10.191-5.748,13.26a9.1,9.1,0,0,0-3.8,2.063l2.774-.376,0,.007S207.838,280.454,207.838,280.394Z" transform="translate(-166.546 -241.729)" fill="#dd8112"/>
            <path id="Trazado_959559" data-name="Trazado 959559" d="M274.045,304.095a14.043,14.043,0,0,1-4,.561,10.381,10.381,0,0,1-6.478-1.786,14.685,14.685,0,0,0,5.059.958,12.561,12.561,0,0,0,5.218-.895A6.562,6.562,0,0,1,274.045,304.095Z" transform="translate(-210.578 -265.864)" fill="#afa18c"/>
            <path id="Trazado_959560" data-name="Trazado 959560" d="M211.854,393.8h-.111c.549-1.026,1.221-3.213.29-7.063-1.4-5.759-9.66-15.558-9.66-15.558l-4.943-2.386,6.363,1.631s9.477,11.2,10.515,15.793A8.146,8.146,0,0,1,211.854,393.8Z" transform="translate(-170.741 -305.568)" fill="#84735f"/>
          </g>
          <g id="Grupo_1117421" data-name="Grupo 1117421" transform="translate(72.1)">
            <g id="Grupo_1117420" data-name="Grupo 1117420" transform="translate(1.418)">
              <path id="Trazado_959561" data-name="Trazado 959561" d="M382.167,93.212a9.218,9.218,0,0,1-1.3,2.176,6.149,6.149,0,0,1-5.279,2.385s-.373,2.34-4.82,4.157-7.823-1.731-7.823-1.731a3.841,3.841,0,0,1-2.976,2.249,3.758,3.758,0,0,1-3.78-.95s-3.87,2.571-7.151,2c-3.275.572-7.146-2-7.146-2a3.764,3.764,0,0,1-3.784.95,3.826,3.826,0,0,1-2.971-2.249s-3.38,3.553-7.823,1.731-4.824-4.157-4.824-4.157a6.113,6.113,0,0,1-5.02-2.085,8.9,8.9,0,0,1-1.563-2.476,8,8,0,0,1,1.477-8.777,3.076,3.076,0,0,1-1.822-3.116,2.886,2.886,0,0,1,2.34-2.685s-2.253-2.512,0-7.45,9.268-4.07,9.268-4.07.518-6.237,6.5-7.537,9.009,1.763,9.009,1.763a8.154,8.154,0,0,1,6.365-4.13,5.209,5.209,0,0,1,5.415,3.266,15.224,15.224,0,0,1,9.963-.9c5.974,1.3,6.5,7.537,6.5,7.537s7.015-.868,9.268,4.07,0,7.45,0,7.45a2.89,2.89,0,0,1,2.34,2.685,3.076,3.076,0,0,1-1.822,3.116A8,8,0,0,1,382.167,93.212Z" transform="translate(-315.181 -57.205)" fill="#c9c411"/>
              <path id="Trazado_959562" data-name="Trazado 959562" d="M366.466,200.335s.52-3.407-2.252-7.853-4.735-4.389-4.735-4.389-2.451,1.188-4.908,2.367c-3.176,1.525-8.893-.289-8.893-.289a8.7,8.7,0,0,1,4.562-5.948c3.869-1.848,8.82-.227,10.336,2.021,0,0,5.2,4.042,6.294,9.181S366.466,200.335,366.466,200.335Z" transform="translate(-333.55 -133.225)" fill="#b2aa0f"/>
              <path id="Trazado_959563" data-name="Trazado 959563" d="M384.324,120.123a6.149,6.149,0,0,1-5.279,2.385s-.373,2.34-4.82,4.157-7.823-1.731-7.823-1.731a3.841,3.841,0,0,1-2.976,2.249,3.758,3.758,0,0,1-3.78-.95s-3.87,2.571-7.151,2c-3.275.572-7.146-2-7.146-2a3.764,3.764,0,0,1-3.784.95,3.826,3.826,0,0,1-2.971-2.249s-3.38,3.553-7.823,1.731-4.824-4.157-4.824-4.157a6.113,6.113,0,0,1-5.02-2.085c.391-12.28,14.433-22.152,31.706-22.152C369.764,98.271,383.719,107.979,384.324,120.123Z" transform="translate(-318.641 -81.939)" fill="#b2aa0f"/>
              <path id="Trazado_959564" data-name="Trazado 959564" d="M401.23,200.335s-.52-3.407,2.252-7.853,4.735-4.389,4.735-4.389,2.451,1.188,4.908,2.367c3.176,1.525,8.892-.289,8.892-.289a8.7,8.7,0,0,0-4.562-5.948c-3.869-1.848-8.82-.227-10.336,2.021,0,0-5.2,4.042-6.294,9.181S401.23,200.335,401.23,200.335Z" transform="translate(-366.524 -133.225)" fill="#b2aa0f"/>
              <path id="Trazado_959565" data-name="Trazado 959565" d="M380.913,127.525A61.39,61.39,0,0,1,389.505,125a1.043,1.043,0,0,0,.8-.788l.017-.074a1.049,1.049,0,0,0-1.1-1.283c-4.728.349-12.467,4.092-12.467,4.092a40.512,40.512,0,0,1,8.214-9.829,1.045,1.045,0,0,0,.02-1.543h0a1.056,1.056,0,0,0-1.254-.14c-5.064,2.9-9.867,8.365-9.867,8.365l-1.049-12.506a1.672,1.672,0,0,0-.9-1.344h0a1.672,1.672,0,0,0-1.491-.024l-.064.03a1.671,1.671,0,0,0-.945,1.384L368.5,123.8s-4.8-5.462-9.867-8.365a1.056,1.056,0,0,0-1.254.14h0a1.045,1.045,0,0,0,.02,1.543,40.5,40.5,0,0,1,8.214,9.829s-7.7-3.724-12.432-4.09a1.074,1.074,0,0,0-1.125,1.315h0a1.069,1.069,0,0,0,.848.814,43.471,43.471,0,0,1,8.552,2.538c6.538,2.757,6.96,5.7,6.961,5.7,1.212,3.658.507,10.764-1.129,19.94-2.577,14.453-9.008,18.718-9.008,18.718h25.811s-6.431-4.265-9.008-18.718c-1.636-9.176-2.341-16.283-1.129-19.94C373.953,133.221,374.32,130.038,380.913,127.525Z" transform="translate(-337.373 -88.861)" fill="#70604a"/>
            </g>
            <path id="Trazado_959566" data-name="Trazado 959566" d="M382.433,288.224a35.408,35.408,0,1,1-70.816,0c0-.781.023-1.567.082-2.335a34.875,34.875,0,0,1,.645-4.807,35.405,35.405,0,0,1,70.089,7.142Z" transform="translate(-311.617 -175.022)" fill="#3fa6b6"/>
            <path id="Trazado_959567" data-name="Trazado 959567" d="M390.261,264.732c-1.113,4.852-5.956,6.815-9.976,7.755-5.2,1.213-6.41-1.045-12.471-2.076s-10.917,2.076-19.053-.7c-5.815-1.981-8.359-5.392-9.34-7.187a35.376,35.376,0,0,1,49.287.572Q389.512,263.885,390.261,264.732Z" transform="translate(-328.363 -175.022)" fill="#c9c411"/>
            <path id="Trazado_959568" data-name="Trazado 959568" d="M356.9,365.045a35.409,35.409,0,0,1-45.284-34.013c0-.781.023-1.567.082-2.335a34.875,34.875,0,0,1,.645-4.807,77.757,77.757,0,0,0,35.749,18.89c.482.109.954.209,1.427.3,2.621,2.889,6.219,5.529,5.356,10.7A18.473,18.473,0,0,0,356.9,365.045Z" transform="translate(-311.618 -217.83)" fill="#2a95a0"/>
            <path id="Trazado_959569" data-name="Trazado 959569" d="M338.521,372.7a35.424,35.424,0,0,1-26.9-34.381c0-.784.024-1.568.081-2.336a32.835,32.835,0,0,1,11.479,6.346c6.58,6.063,2.255,12.643,8.318,14.373C336.492,358.129,343.145,366.86,338.521,372.7Z" transform="translate(-311.618 -225.111)" fill="#b2aa0f"/>
            <path id="Trazado_959570" data-name="Trazado 959570" d="M438.668,364.569c-.2.75-.418,1.49-.663,2.222-.086.264-.182.527-.277.791a1.217,1.217,0,0,1-.05.141c-.054.15-.109.3-.168.445-.064.177-.132.354-.2.527-.045.118-.1.241-.145.359a.265.265,0,0,1-.023.054c-.114.277-.231.554-.359.827a1.325,1.325,0,0,1-.059.141c-.141.309-.282.613-.431.918a.142.142,0,0,1-.023.045c-.141.3-.291.591-.445.881-.163.323-.336.636-.518.954-.068.123-.136.241-.209.363-.109.2-.223.391-.341.581-.082.132-.163.268-.245.4-.154.25-.309.491-.472.736a.292.292,0,0,1-.045.068c-.182.277-.368.554-.559.827-.241.345-.491.682-.745,1.018-.45.595-.913,1.172-1.4,1.736,0,0,0,.009-.014.018q-.729.845-1.513,1.644c-.263.268-.531.536-.8.795s-.55.518-.827.772-.554.491-.836.731c0,0-.014.009-.018.014-.255.214-.513.427-.772.636-.05.041-.1.082-.154.123-.277.218-.559.436-.845.645s-.554.409-.836.6c-.054.036-.1.073-.154.109-.268.182-.54.363-.813.54-.036.027-.073.05-.114.077-.3.191-.6.382-.909.563s-.65.386-.981.572-.663.363-1,.54a.014.014,0,0,0-.009,0c-.291.15-.581.3-.877.436-.077.041-.159.077-.241.114-.3.141-.591.277-.89.409a.43.43,0,0,1-.1.041c-.3.132-.6.259-.9.382-.077.032-.159.068-.241.1-.3.118-.6.232-.9.345l-.191.068c-.286.1-.577.2-.863.3-.082.027-.159.055-.236.077-.313.1-.632.2-.949.291a18.482,18.482,0,0,1-2.026-11.262c.863-5.17-2.735-7.81-5.356-10.7A53.042,53.042,0,0,0,438.668,364.569Z" transform="translate(-369.02 -242.331)" fill="#b2aa0f"/>
            <path id="Trazado_959571" data-name="Trazado 959571" d="M436.01,325.928a35.271,35.271,0,0,1-1.168,9.036,53.047,53.047,0,0,1-31.746,3.017c-2.108-2.326-3.58-4.811-1.572-8.9,4.493-9.186,14.728-.7,19.748-8.141,3.266-4.852,9.322-5.588,13.152-5.515A35.494,35.494,0,0,1,436.01,325.928Z" transform="translate(-365.194 -212.727)" fill="#c9c411"/>
            <path id="Trazado_959572" data-name="Trazado 959572" d="M399.317,263.1c-2.844.963-9.917,2.462-23.864.7-12.829-1.622-17.041-4.625-18.417-6.451a35.388,35.388,0,0,1,42.281,5.747Z" transform="translate(-338.973 -175.022)" fill="#b2aa0f"/>
            <path id="Trazado_959573" data-name="Trazado 959573" d="M340.137,301.062a13.992,13.992,0,0,0,11.46,6.385c8.2.43,12.585-3.854,9.275-5.217s-11.5.353-14.217-1.819S338.385,296.486,340.137,301.062Z" transform="translate(-328.592 -202.351)" fill="#55b5bf"/>
          </g>
        </g>
        <g id="Grupo_1117435" data-name="Grupo 1117435" transform="translate(10.199 4.09)">
          <g id="Grupo_1117425" data-name="Grupo 1117425" transform="translate(60.131)">
            <g id="Grupo_1117424" data-name="Grupo 1117424">
              <g id="Grupo_1117423" data-name="Grupo 1117423">
                <path id="Trazado_959574" data-name="Trazado 959574" d="M255.384,67.49l-2.53,5.278h5.061Z" transform="translate(-239.141 -67.49)" fill="#f3b612"/>
                <path id="Trazado_959575" data-name="Trazado 959575" d="M267.261,75.039l4.674,2.064L271.5,71.2Z" transform="translate(-247.819 -69.722)" fill="#f3b612"/>
                <path id="Trazado_959576" data-name="Trazado 959576" d="M285.106,83.419l-5.461,1.166,3.142,4.22Z" transform="translate(-255.278 -77.084)" fill="#f3b612"/>
                <path id="Trazado_959577" data-name="Trazado 959577" d="M288.93,102.937l3.994-4.129-5.488-1.014Z" transform="translate(-259.97 -85.742)" fill="#f3b612"/>
                <path id="Trazado_959578" data-name="Trazado 959578" d="M240.594,77.1l4.675-2.064L241.029,71.2Z" transform="translate(-231.757 -69.722)" fill="#f3b612"/>
                <path id="Trazado_959579" data-name="Trazado 959579" d="M228.551,88.805l3.142-4.22-5.461-1.166Z" transform="translate(-223.107 -77.084)" fill="#f3b612"/>
                <path id="Trazado_959580" data-name="Trazado 959580" d="M223.861,97.794l-5.487,1.014,3.994,4.129Z" transform="translate(-218.374 -85.742)" fill="#f3b612"/>
                <path id="Trazado_959581" data-name="Trazado 959581" d="M256.56,147.3l2.531-5.277h-5.061Z" transform="translate(-239.849 -112.381)" fill="#f3b612"/>
                <path id="Trazado_959582" data-name="Trazado 959582" d="M241.029,142.642l4.239-3.843-4.675-2.063Z" transform="translate(-231.757 -109.197)" fill="#f3b612"/>
                <path id="Trazado_959583" data-name="Trazado 959583" d="M226.232,131.206l5.461-1.166-3.142-4.22Z" transform="translate(-223.107 -102.622)" fill="#f3b612"/>
                <path id="Trazado_959584" data-name="Trazado 959584" d="M222.368,112.056l-3.994,4.129,5.487,1.014Z" transform="translate(-218.374 -94.332)" fill="#f3b612"/>
                <path id="Trazado_959585" data-name="Trazado 959585" d="M271.5,142.642l.435-5.906-4.674,2.063Z" transform="translate(-247.819 -109.197)" fill="#f3b612"/>
                <path id="Trazado_959586" data-name="Trazado 959586" d="M279.645,130.04l5.461,1.166-2.319-5.386Z" transform="translate(-255.278 -102.622)" fill="#f3b612"/>
                <path id="Trazado_959587" data-name="Trazado 959587" d="M287.436,117.2l5.488-1.014-3.994-4.129Z" transform="translate(-259.97 -94.332)" fill="#f3b612"/>
              </g>
              <ellipse id="Elipse_13615" data-name="Elipse 13615" cx="12.655" cy="12.601" rx="12.655" ry="12.601" transform="translate(3.837 4.858)" fill="#fffbf2"/>
              <path id="Trazado_959588" data-name="Trazado 959588" d="M254.046,94.545a11.141,11.141,0,0,1-7.982,10.644,11.378,11.378,0,0,1-3.285.482A11.124,11.124,0,1,1,252.9,89.657,10.9,10.9,0,0,1,254.046,94.545Z" transform="translate(-226.29 -77.087)" fill="#f3b612"/>
              <path id="Trazado_959589" data-name="Trazado 959589" d="M263.052,100.206a11.141,11.141,0,0,1-7.982,10.644,9.024,9.024,0,1,1,6.837-15.533A10.9,10.9,0,0,1,263.052,100.206Z" transform="translate(-235.296 -82.749)" fill="#e5a30e"/>
            </g>
          </g>
          <g id="Grupo_1117426" data-name="Grupo 1117426" transform="translate(0 81.734)">
            <path id="Trazado_959590" data-name="Trazado 959590" d="M67.175,311.556H77.368v4.235H69.489Z" transform="translate(-67.175 -296.226)" fill="#d87e13"/>
            <path id="Trazado_959591" data-name="Trazado 959591" d="M74.53,299.026l-.338-5.176-5.146,2.125.918.511-2.789,4.406h5.1l1.4-2.343Z" transform="translate(-67.175 -285.561)" fill="#f3b612"/>
            <path id="Trazado_959592" data-name="Trazado 959592" d="M88.683,273.07l-5,8.88-3.689-2.079,3.868-6.864Z" transform="translate(-74.894 -273.008)" fill="#d87e13"/>
            <path id="Trazado_959593" data-name="Trazado 959593" d="M96.073,280.489l4.676,2.246.674-5.526-.9.549-2.469-4.593-2.5,4.44,1.354,2.37Z" transform="translate(-84.27 -273.103)" fill="#f3b612"/>
            <path id="Trazado_959594" data-name="Trazado 959594" d="M110.588,305.706l-5.375-8.66,3.6-2.233,4.155,6.694Z" transform="translate(-90.085 -286.141)" fill="#d87e13"/>
            <path id="Trazado_959595" data-name="Trazado 959595" d="M98.6,308.963l-4.22,3.018,4.519,3.251-.051-1.05,5.214.047-2.688-4.33-2.729.046Z" transform="translate(-83.561 -294.664)" fill="#f3b612"/>
          </g>
          <g id="Grupo_1117432" data-name="Grupo 1117432" transform="translate(183.196 6.573)">
            <path id="Trazado_959596" data-name="Trazado 959596" d="M533.539,107.223a3.483,3.483,0,0,1,2.181-2.507,3.778,3.778,0,0,1,3.587.706,37.34,37.34,0,0,0-4.989,2.239,2.534,2.534,0,0,0-1.1,2.191h-.487a2.051,2.051,0,0,0-.317-1.825,14.335,14.335,0,0,0-4.6-3.675s2.556-1.168,4.113.122A4.089,4.089,0,0,1,533.539,107.223Z" transform="translate(-527.819 -95.973)" fill="#f3b612"/>
            <path id="Trazado_959597" data-name="Trazado 959597" d="M531.906,118.853s.195-.511,2.117-.754a6.323,6.323,0,0,1,3.237.377,2.851,2.851,0,0,1,1.985.235c.814.532.205.966-2.35.895S531.442,119.892,531.906,118.853Z" transform="translate(-530.251 -104.51)" fill="#f3b612"/>
            <line id="Línea_27208" data-name="Línea 27208" x2="25.83" transform="translate(4.819 3.634)" fill="#008e8e"/>
            <path id="Trazado_959598" data-name="Trazado 959598" d="M565.091,86.613a1.035,1.035,0,0,0-.929.584H553.107a1.817,1.817,0,1,0-2.381,0h-10.7a1.038,1.038,0,1,0,0,.908h11.044v14.148H545.36a.81.81,0,0,0-.81.81v.231a.81.81,0,0,0,.81.81h13.178a.81.81,0,0,0,.81-.81v-.231a.81.81,0,0,0-.81-.81h-5.98V88.106h11.6a1.037,1.037,0,1,0,.929-1.493Z" transform="translate(-533.988 -84.017)" fill="#d87e13"/>
            <g id="Grupo_1117427" data-name="Grupo 1117427" transform="translate(5.261 4.002)">
              <rect id="Rectángulo_416267" data-name="Rectángulo 416267" width="0.397" height="11.678" transform="matrix(0.944, -0.33, 0.33, 0.944, 0, 0.131)" fill="#d87e13"/>
            </g>
            <g id="Grupo_1117428" data-name="Grupo 1117428" transform="translate(1.46 3.822)">
              <rect id="Rectángulo_416268" data-name="Rectángulo 416268" width="11.493" height="0.398" transform="matrix(0.275, -0.961, 0.961, 0.275, 0, 11.049)" fill="#d87e13"/>
            </g>
            <path id="Trazado_959599" data-name="Trazado 959599" d="M531.543,120.816h7.579a.285.285,0,0,1,.231.453,4.919,4.919,0,0,1-4.012,1.818,4.584,4.584,0,0,1-4.033-1.824A.285.285,0,0,1,531.543,120.816Z" transform="translate(-529.888 -106.181)" fill="#d87e13"/>
            <g id="Grupo_1117429" data-name="Grupo 1117429" transform="translate(31.301 3.995)">
              <rect id="Rectángulo_416269" data-name="Rectángulo 416269" width="0.397" height="11.678" transform="matrix(0.944, -0.33, 0.33, 0.944, 0, 0.131)" fill="#d87e13"/>
            </g>
            <g id="Grupo_1117430" data-name="Grupo 1117430" transform="translate(27.501 3.822)">
              <rect id="Rectángulo_416270" data-name="Rectángulo 416270" width="11.493" height="0.398" transform="matrix(0.275, -0.961, 0.961, 0.275, 0, 11.049)" fill="#d87e13"/>
            </g>
            <path id="Trazado_959600" data-name="Trazado 959600" d="M597.022,120.816H604.6a.285.285,0,0,1,.231.453,4.919,4.919,0,0,1-4.012,1.818,4.584,4.584,0,0,1-4.033-1.824A.285.285,0,0,1,597.022,120.816Z" transform="translate(-569.327 -106.181)" fill="#d87e13"/>
            <g id="Grupo_1117431" data-name="Grupo 1117431" transform="translate(29.035 11.106)">
              <rect id="Rectángulo_416271" data-name="Rectángulo 416271" width="4.259" height="0.949" transform="translate(0.243 2.58)" fill="#f3b612"/>
              <rect id="Rectángulo_416272" data-name="Rectángulo 416272" width="3.821" height="0.998" transform="translate(0 1.582)" fill="#f3b612"/>
              <rect id="Rectángulo_416273" data-name="Rectángulo 416273" width="3.578" height="0.876" transform="translate(0.657 0.706)" fill="#f3b612"/>
              <rect id="Rectángulo_416274" data-name="Rectángulo 416274" width="3.578" height="0.876" transform="translate(0.13)" fill="#f3b612"/>
            </g>
          </g>
          <g id="Grupo_1117434" data-name="Grupo 1117434" transform="translate(227.894 47.563)">
            <circle id="Elipse_13616" data-name="Elipse 13616" cx="8.543" cy="8.543" r="8.543" transform="translate(0 16.637) rotate(-76.838)" fill="#e8e1d4"/>
            <g id="Grupo_1117433" data-name="Grupo 1117433" transform="translate(0.17 4.278)">
              <path id="Trazado_959601" data-name="Trazado 959601" d="M668.041,200.491h-2.508s-2.834-2.462-4.459-2.648l-6.968,6.2a.8.8,0,0,0-.064,1.138l.316.353a.8.8,0,0,0,.853.226l.335-.112-.175.25a.8.8,0,0,0,.058,1l.289.324a.805.805,0,0,0,.828.237l.3-.089-.115.2a.8.8,0,0,0,.121.966l.285.291a.8.8,0,0,0,.927.16l.361-.176-.2.367a.8.8,0,0,0,.1.913h0a.8.8,0,0,0,1.046.142c.949-.63,2.886-1.933,4.531-3.141h4.831Z" transform="translate(-648.586 -197.843)" fill="#f3b612"/>
              <path id="Trazado_959602" data-name="Trazado 959602" d="M642.933,201.188h2.508a21.156,21.156,0,0,1,2.379-1.756,2.86,2.86,0,0,1,3.408.289l5.641,5.018a.8.8,0,0,1,.064,1.138l-.316.353a.8.8,0,0,1-.853.226l-.335-.112.175.25a.8.8,0,0,1-.058,1l-.289.324a.8.8,0,0,1-.828.237l-.3-.089.115.2a.8.8,0,0,1-.121.966l-.285.291a.8.8,0,0,1-.927.16l-.361-.176.2.367a.8.8,0,0,1-.1.913h0a.8.8,0,0,1-1.046.142c-.949-.63-2.886-1.933-4.531-3.141h-4.831Z" transform="translate(-641.6 -198.541)" fill="#fffbf2"/>
              <path id="Trazado_959603" data-name="Trazado 959603" d="M641.718,203.536h2l-.827,7.413h-2.259Z" transform="translate(-640.636 -201.272)" fill="#d87e13"/>
              <path id="Trazado_959604" data-name="Trazado 959604" d="M687.631,203.536h-2l.827,7.413h2.259Z" transform="translate(-667.734 -201.272)" fill="#d87e13"/>
              <path id="Trazado_959605" data-name="Trazado 959605" d="M662.888,197.843h-1.8a3.375,3.375,0,0,0-2.14.765l-2.1,1.722s.085.594,1.378.615a4.361,4.361,0,0,0,2.568-1.24,2.785,2.785,0,0,0,1.441.094C662.978,199.63,662.888,197.843,662.888,197.843Z" transform="translate(-650.401 -197.843)" fill="#f3b612"/>
              <path id="Trazado_959606" data-name="Trazado 959606" d="M652.3,220.341s-.5.814,0,1.178a.941.941,0,0,0,1.255-.126c.327-.267.69-.929.427-1.343S653.167,219.35,652.3,220.341Z" transform="translate(-647.525 -210.989)" fill="#f3b612"/>
              <path id="Trazado_959607" data-name="Trazado 959607" d="M655.285,222.847s-.5.814,0,1.178a.941.941,0,0,0,1.255-.126c.327-.267.69-.929.427-1.343S656.154,221.856,655.285,222.847Z" transform="translate(-649.325 -212.498)" fill="#f3b612"/>
              <path id="Trazado_959608" data-name="Trazado 959608" d="M658.911,224.127s-.5.814,0,1.178a.941.941,0,0,0,1.256-.126c.327-.267.69-.929.427-1.343S659.78,223.136,658.911,224.127Z" transform="translate(-651.509 -213.269)" fill="#f3b612"/>
              <path id="Trazado_959609" data-name="Trazado 959609" d="M662.468,225.246s-.453.734,0,1.062a.848.848,0,0,0,1.132-.113c.3-.241.623-.838.385-1.212S663.252,224.352,662.468,225.246Z" transform="translate(-653.664 -213.983)" fill="#f3b612"/>
            </g>
          </g>
        </g>
      </g>
    </g>
  </g>
</svg>
