<svg xmlns="http://www.w3.org/2000/svg" width="120" height="120" viewBox="0 0 120 120">
  <g id="Grupo_1116049" data-name="Grupo 1116049" transform="translate(-64 -6445)">
    <rect id="Rect치ngulo_402033" data-name="Rect치ngulo 402033" width="120" height="120" rx="8" transform="translate(64 6445)" fill="#0042db"/>
    <g id="Rect치ngulo_412110" data-name="Rect치ngulo 412110" transform="translate(69 6450)" fill="none" stroke="#fff" stroke-width="1">
      <rect width="110" height="110" rx="6" stroke="none"/>
      <rect x="0.5" y="0.5" width="109" height="109" rx="5.5" fill="none"/>
    </g>
    <g id="Grupo_1117818" data-name="Grupo 1117818" transform="translate(82.937 6463.893)">
      <g id="Grupo_1117816" data-name="Grupo 1117816" transform="translate(2.29 2.29)">
        <g id="Grupo_1117783" data-name="Grupo 1117783" transform="translate(56.194 49.032)">
          <path id="Trazado_960321" data-name="Trazado 960321" d="M50,40l.968,2.9v.013a12.73,12.73,0,0,0-5.419,2.71L47.421,40Z" transform="translate(-45.55 -40)" fill="#e6e9ed"/>
        </g>
        <g id="Grupo_1117784" data-name="Grupo 1117784" transform="translate(55.974 43.871)">
          <path id="Trazado_960322" data-name="Trazado 960322" d="M52.141,38.026l-2.09,3.135H47.47l-2.09-3.135L48.761,36Z" transform="translate(-45.38 -36)" fill="#ccd1d9"/>
        </g>
        <g id="Grupo_1117785" data-name="Grupo 1117785" transform="translate(60.645 41.123)">
          <path id="Trazado_960323" data-name="Trazado 960323" d="M64.355,41.87a37.284,37.284,0,0,1-2.348,6.271h-.013a12.863,12.863,0,0,0-9.123-3.781,12.677,12.677,0,0,0-2.9.335v-.013L49,41.78l2.09-3.135,3.071,1.845,2.206-6.619a16.2,16.2,0,0,1,7.987,8Z" transform="translate(-49 -33.87)" fill="#ff826e"/>
        </g>
        <g id="Grupo_1117786" data-name="Grupo 1117786" transform="translate(42.826 45.897)">
          <path id="Trazado_960324" data-name="Trazado 960324" d="M45.422,39.57a3.989,3.989,0,0,0,.426-.5l2.49-1.5,2.09,3.135-1.871,5.626a12.9,12.9,0,0,0-4.581,9.858v.077a15.791,15.791,0,0,0-4.245-2.813l-3.5-1.135L35.19,48.125a7.734,7.734,0,0,0,5.51-6.774l.052-.645h1.935A3.862,3.862,0,0,0,45.422,39.57Z" transform="translate(-35.19 -37.57)" fill="#ff826e"/>
        </g>
        <g id="Grupo_1117787" data-name="Grupo 1117787" transform="translate(59.355 40)">
          <path id="Trazado_960325" data-name="Trazado 960325" d="M48,36.871,53.161,33a15.818,15.818,0,0,1,3.5,1.123l-2.206,6.619L51.381,38.9Z" transform="translate(-48 -33)" fill="#fc6e51"/>
        </g>
        <g id="Grupo_1117788" data-name="Grupo 1117788" transform="translate(53.213 40)">
          <path id="Trazado_960326" data-name="Trazado 960326" d="M43.253,35.594l.555-2.232a2.247,2.247,0,0,0,.065-.284h.013c.1-.026.219-.052.335-.077l5.161,3.871L46,38.9l-2.49,1.5a5.611,5.611,0,0,0,.71-2.232,3.774,3.774,0,0,0-.981-2.555Z" transform="translate(-43.24 -33)" fill="#fc6e51"/>
        </g>
        <g id="Grupo_1117789" data-name="Grupo 1117789" transform="translate(1.342 42.787)">
          <path id="Trazado_960327" data-name="Trazado 960327" d="M22.292,38.825a11.116,11.116,0,0,0,1.006-3.11l.09-.555a2.138,2.138,0,0,0,.477.181,9.735,9.735,0,0,1,1.471.465,3.716,3.716,0,0,0-.413,1.729,3.877,3.877,0,0,0,3.871,3.871H30.73l.052.645a7.734,7.734,0,0,0,5.51,6.774l-1.045,4.194a16.526,16.526,0,0,0-3.5,1.123,16.1,16.1,0,0,0-9.071,11.342,37.02,37.02,0,0,1-5.5-3.432v-12.9H12.021v5.161H9.44a38.21,38.21,0,0,1-6.4-13.135A11.631,11.631,0,0,1,10.5,35.341a2.138,2.138,0,0,0,.477-.181l.09.555a11.611,11.611,0,0,0,2.065,4.865,11.414,11.414,0,0,0,4.052,3.406A11.371,11.371,0,0,0,22.292,38.825Z" transform="translate(-3.04 -35.16)" fill="#4fc1e9"/>
        </g>
        <g id="Grupo_1117790" data-name="Grupo 1117790" transform="translate(34.903 69.677)">
          <path id="Trazado_960328" data-name="Trazado 960328" d="M34.147,56l2.516,7.561c-1.252.116-2.516.181-3.806.181a37.033,37.033,0,0,1-3.806-.194L31.566,56Z" transform="translate(-29.05 -56)" fill="#ff826e"/>
        </g>
        <g id="Grupo_1117791" data-name="Grupo 1117791" transform="translate(35.329 64.516)">
          <path id="Trazado_960329" data-name="Trazado 960329" d="M29.38,54.026,32.761,52l3.381,2.026-2.09,3.135H31.47Z" transform="translate(-29.38 -52)" fill="#fc6e51"/>
        </g>
        <g id="Grupo_1117792" data-name="Grupo 1117792" transform="translate(40 61.781)">
          <path id="Trazado_960330" data-name="Trazado 960330" d="M48.394,61.738v.013a38.6,38.6,0,0,1-12.877,3.587L33,57.777l2.09-3.135,3.071,1.845,2.206-6.606a15.791,15.791,0,0,1,4.245,2.813A12.866,12.866,0,0,0,48.394,61.738Z" transform="translate(-33 -49.88)" fill="#b4dd7f"/>
        </g>
        <g id="Grupo_1117793" data-name="Grupo 1117793" transform="translate(20.981 61.768)">
          <path id="Trazado_960331" data-name="Trazado 960331" d="M32.608,54.644,34.7,57.78l-2.516,7.548a38.219,38.219,0,0,1-13.923-4.1v-.013A16.1,16.1,0,0,1,27.331,49.87l2.206,6.619Z" transform="translate(-18.26 -49.87)" fill="#b4dd7f"/>
        </g>
        <g id="Grupo_1117794" data-name="Grupo 1117794" transform="translate(38.71 60.645)">
          <path id="Trazado_960332" data-name="Trazado 960332" d="M37.161,49l3.5,1.135-2.206,6.606L35.381,54.9,32,52.871Z" transform="translate(-32 -49)" fill="#a0d468"/>
        </g>
        <g id="Grupo_1117795" data-name="Grupo 1117795" transform="translate(30.052 60.645)">
          <path id="Trazado_960333" data-name="Trazado 960333" d="M28.787,49l5.161,3.871L30.567,54.9,27.5,56.742,25.29,50.123A16.526,16.526,0,0,1,28.787,49Z" transform="translate(-25.29 -49)" fill="#a0d468"/>
        </g>
        <g id="Grupo_1117796" data-name="Grupo 1117796" transform="translate(10.374 46.452)">
          <path id="Trazado_960334" data-name="Trazado 960334" d="M10.04,38H20.259a11.371,11.371,0,0,1-5.11,5.161A11.236,11.236,0,0,1,10.04,38Z" transform="translate(-10.04 -38)" fill="#e6e9ed"/>
        </g>
        <g id="Grupo_1117797" data-name="Grupo 1117797" transform="translate(23.226 23.226)">
          <path id="Trazado_960335" data-name="Trazado 960335" d="M50.555,37.135,50,39.368l-.013.013a3.78,3.78,0,0,0-2.89-1.316h-1.29v-.1a2.481,2.481,0,0,0-2.452-2.477H36.9a8.007,8.007,0,0,1-6.1-2.813l-3.51,1.742a3.867,3.867,0,0,0-2.129,3.458v.194h-1.29a3.78,3.78,0,0,0-2.89,1.316l-.013-.013-.929-7.419v-.026A3.933,3.933,0,0,1,20,31.3a4.948,4.948,0,0,1,.929-2.89,4.63,4.63,0,0,1,1.484-1.342,4.15,4.15,0,0,1,.968-.452l.49-.168a7.993,7.993,0,0,1,2.774-4.632,7.838,7.838,0,0,1,1.1-.748v-.013a8.117,8.117,0,0,1,4-1.058h5.445a13.45,13.45,0,0,1,3.548.465A13.845,13.845,0,0,1,50.968,33.781a14.814,14.814,0,0,1-.348,3.071A2.248,2.248,0,0,1,50.555,37.135Z" transform="translate(-20 -20)" fill="#b27946"/>
        </g>
        <g id="Grupo_1117798" data-name="Grupo 1117798" transform="translate(16.89 10.581)">
          <path id="Trazado_960336" data-name="Trazado 960336" d="M24.006,24.858a2.57,2.57,0,0,0-1.948-2.5,11.982,11.982,0,0,1-5.548-3.135l-.774-.774a2.881,2.881,0,0,0-.645-.477l2.555-2.555L15.5,13.271c.155-.361.155-.387.31-.748h3.032V10.2A12.915,12.915,0,0,1,29.167,22.845v1.071a7.838,7.838,0,0,0-1.1.748A7.993,7.993,0,0,0,25.3,29.3l-.49.168a4.15,4.15,0,0,0-.968.452l-.013-.013a10.167,10.167,0,0,0,.181-1.9Z" transform="translate(-15.09 -10.2)" fill="#656d78"/>
        </g>
        <g id="Grupo_1117799" data-name="Grupo 1117799" transform="translate(41.29 5.161)">
          <path id="Trazado_960337" data-name="Trazado 960337" d="M38.568,6H46.9a12.9,12.9,0,0,0-2.065,11.355l-.968.477a3.867,3.867,0,0,0-2.129,3.458v.194h-1.29a3.839,3.839,0,0,0-3.161,1.639l-.981-.49a4.165,4.165,0,0,1,0-7.458l.271-.142-1.239-1.239A4.562,4.562,0,0,1,38.568,6Z" transform="translate(-34 -6)" fill="#656d78"/>
        </g>
        <g id="Grupo_1117800" data-name="Grupo 1117800" transform="translate(69.032 22.026)">
          <path id="Trazado_960338" data-name="Trazado 960338" d="M57.435,25.431H55.5l.3-3.51a12.953,12.953,0,0,0,4.31-2.852h.013c.439.9.826,1.819,1.174,2.761a3.856,3.856,0,0,1-3.858,3.6Z" transform="translate(-55.5 -19.07)" fill="#f0d0b4"/>
        </g>
        <g id="Grupo_1117801" data-name="Grupo 1117801" transform="translate(54.194 35.806)">
          <path id="Trazado_960339" data-name="Trazado 960339" d="M53.277,29.75l1.045,4.194-5.161,3.871L44,33.944l1.045-4.194a7.8,7.8,0,0,0,2.206.323h3.819A7.8,7.8,0,0,0,53.277,29.75Z" transform="translate(-44 -29.75)" fill="#f0d0b4"/>
        </g>
        <g id="Grupo_1117802" data-name="Grupo 1117802" transform="translate(49.032 16.516)">
          <path id="Trazado_960340" data-name="Trazado 960340" d="M45.058,33.652A13.659,13.659,0,0,0,40.5,24.968l-.49-5.845A.977.977,0,0,1,40,18.929v-.194a3.867,3.867,0,0,1,2.129-3.458L43.1,14.8a12.909,12.909,0,0,0,17.2,8.361l-.3,3.51-.052.645a7.75,7.75,0,0,1-7.716,7.1H48.413a7.8,7.8,0,0,1-2.206-.323,8.132,8.132,0,0,1-1.148-.439Z" transform="translate(-40 -14.8)" fill="#f0d0b4"/>
        </g>
        <g id="Grupo_1117803" data-name="Grupo 1117803" transform="translate(43.961 20.645)">
          <path id="Trazado_960341" data-name="Trazado 960341" d="M41.154,18.194l.49,5.845a13.675,13.675,0,0,0-5.574-2.994A3.871,3.871,0,0,1,39.851,18h1.29A.977.977,0,0,0,41.154,18.194Z" transform="translate(-36.07 -18)" fill="#f0d0b4"/>
        </g>
        <g id="Grupo_1117804" data-name="Grupo 1117804" transform="translate(48.387 41.29)">
          <path id="Trazado_960342" data-name="Trazado 960342" d="M41.435,34a3.9,3.9,0,0,1,3.871,3.871A5.611,5.611,0,0,1,44.6,40.1a3.989,3.989,0,0,1-.426.5,3.862,3.862,0,0,1-2.735,1.135H39.5l.632-7.639a.252.252,0,0,0,.013-.1Z" transform="translate(-39.5 -34)" fill="#f0d0b4"/>
        </g>
        <g id="Grupo_1117805" data-name="Grupo 1117805" transform="translate(33.548 56.452)">
          <path id="Trazado_960343" data-name="Trazado 960343" d="M37.277,45.75l1.045,4.194-5.161,3.871L28,49.944l1.045-4.194a7.8,7.8,0,0,0,2.206.323h3.819A7.8,7.8,0,0,0,37.277,45.75Z" transform="translate(-28 -45.75)" fill="#f0d0b4"/>
        </g>
        <g id="Grupo_1117806" data-name="Grupo 1117806" transform="translate(28.387 35.897)">
          <path id="Trazado_960344" data-name="Trazado 960344" d="M44.645,35.11v.1a.363.363,0,0,1-.013.1L44,42.955l-.052.645a7.75,7.75,0,0,1-7.716,7.1H32.413A7.75,7.75,0,0,1,24.7,43.6l-.052-.645-.632-7.548A.977.977,0,0,1,24,35.214V35.02a3.867,3.867,0,0,1,2.129-3.458l3.51-1.742a8.007,8.007,0,0,0,6.1,2.813h6.452A2.481,2.481,0,0,1,44.645,35.11Z" transform="translate(-24 -29.82)" fill="#f0d0b4"/>
        </g>
        <g id="Grupo_1117807" data-name="Grupo 1117807" transform="translate(23.226 41.29)">
          <path id="Trazado_960345" data-name="Trazado 960345" d="M25.174,34.194l.632,7.548H23.871A3.877,3.877,0,0,1,20,37.871a3.716,3.716,0,0,1,.413-1.729,3.248,3.248,0,0,1,.568-.826A3.78,3.78,0,0,1,23.871,34h1.29a.977.977,0,0,0,.013.194Z" transform="translate(-20 -34)" fill="#f0d0b4"/>
        </g>
        <g id="Grupo_1117808" data-name="Grupo 1117808" transform="translate(9.277 37.91)">
          <path id="Trazado_960346" data-name="Trazado 960346" d="M21.6,36.257l-.09.555a11.116,11.116,0,0,1-1.006,3.11H10.287a11.552,11.552,0,0,1-1.006-3.11l-.09-.555a2.614,2.614,0,0,0,1.432-1.729l.787-3.148a10.336,10.336,0,0,0,7.974,0l.787,3.148A2.614,2.614,0,0,0,21.6,36.257Z" transform="translate(-9.19 -31.38)" fill="#f0d0b4"/>
        </g>
        <g id="Grupo_1117809" data-name="Grupo 1117809" transform="translate(5.161 17.303)">
          <path id="Trazado_960347" data-name="Trazado 960347" d="M24.1,33.281a10.158,10.158,0,0,1-3.794,2.735A10.316,10.316,0,0,1,6,26.494V17.487c.116-.206.245-.4.361-.606L7.832,15.41c.361.142.387.155.748.31v3.032h5.161V15.72c.361-.155.387-.155.748-.31l2.142,2.142,1.1-1.1a2.881,2.881,0,0,1,.645.477l.774.774A11.982,11.982,0,0,0,24.7,20.842a2.57,2.57,0,0,1,1.948,2.5v3.148a10.167,10.167,0,0,1-.181,1.9l.013.013a4.63,4.63,0,0,0-1.484,1.342,4.948,4.948,0,0,0-.929,2.89,3.933,3.933,0,0,0,.039.619Z" transform="translate(-6 -15.41)" fill="#f0d0b4"/>
        </g>
        <g id="Grupo_1117810" data-name="Grupo 1117810" transform="translate(51.613 0)">
          <path id="Trazado_960348" data-name="Trazado 960348" d="M64.026,24.026A12.9,12.9,0,0,1,44.581,7.161a13.738,13.738,0,0,1,1.2-1.381A12.9,12.9,0,1,1,64.026,24.026Z" transform="translate(-42 -2)" fill="#69d6f4"/>
        </g>
        <g id="Grupo_1117811" data-name="Grupo 1117811" transform="translate(51.613 51.613)">
          <path id="Trazado_960349" data-name="Trazado 960349" d="M64.026,45.781A12.9,12.9,0,1,1,42,54.981V54.9a12.9,12.9,0,0,1,4.581-9.858A12.972,12.972,0,0,1,54.9,42,12.863,12.863,0,0,1,64.026,45.781Z" transform="translate(-42 -42)" fill="#fcd770"/>
        </g>
        <g id="Grupo_1117812" data-name="Grupo 1117812" transform="translate(10.323 56.774)">
          <path id="Trazado_960350" data-name="Trazado 960350" d="M15.161,58.9v7.742H10V46h5.161Z" transform="translate(-10 -46)" fill="#ff826e"/>
        </g>
        <g id="Grupo_1117813" data-name="Grupo 1117813" transform="translate(5.161 61.935)">
          <path id="Trazado_960351" data-name="Trazado 960351" d="M11.161,50V65.484H6V50h5.161Z" transform="translate(-6 -50)" fill="#ff826e"/>
        </g>
        <g id="Grupo_1117814" data-name="Grupo 1117814" transform="translate(0 67.097)">
          <path id="Trazado_960352" data-name="Trazado 960352" d="M2,54H7.161V64.323H2Z" transform="translate(-2 -54)" fill="#ff826e"/>
        </g>
        <g id="Grupo_1117815" data-name="Grupo 1117815" transform="translate(0 0)">
          <path id="Trazado_960353" data-name="Trazado 960353" d="M18.89,20.348l-1.1,1.1L15.652,19.3c-.361.155-.387.155-.748.31v3.032H9.742V19.613c-.361-.155-.387-.168-.748-.31L7.523,20.774l-.671.671L3.2,17.794l2.142-2.142c-.142-.361-.155-.387-.31-.748H2V9.742H5.032c.155-.361.155-.387.31-.748L3.2,6.852,6.852,3.2,8.994,5.342c.361-.155.387-.155.748-.31V2H14.9V5.032c.361.155.387.155.748.31L17.794,3.2l3.652,3.652-.671.671L19.3,8.994c.155.361.155.387.31.748h3.032V14.9H19.613c-.155.361-.155.387-.31.748l2.142,2.142ZM14.9,12.323A2.581,2.581,0,1,0,12.323,14.9,2.588,2.588,0,0,0,14.9,12.323Z" transform="translate(-2 -2)" fill="#fcd770"/>
        </g>
      </g>
      <g id="Grupo_1117817" data-name="Grupo 1117817" transform="translate(1 1)">
        <path id="Trazado_960354" data-name="Trazado 960354" d="M54.161,47.818V45H51.581v2.581H49v3.871a3.876,3.876,0,0,0,3.871,3.871,1.291,1.291,0,0,1,1.29,1.29V57.9h-1.29a1.291,1.291,0,0,1-1.29-1.29v-1.29H49v1.29a3.866,3.866,0,0,0,2.581,3.634v2.818h2.581V60.484h2.581V56.613a3.876,3.876,0,0,0-3.871-3.871,1.291,1.291,0,0,1-1.29-1.29v-1.29h1.29a1.291,1.291,0,0,1,1.29,1.29v1.29h2.581v-1.29A3.866,3.866,0,0,0,54.161,47.818Z" transform="translate(12.935 11.774)"/>
        <path id="Trazado_960355" data-name="Trazado 960355" d="M10.871,14.742A3.871,3.871,0,1,0,7,10.871,3.876,3.876,0,0,0,10.871,14.742Zm0-5.161a1.29,1.29,0,1,1-1.29,1.29A1.292,1.292,0,0,1,10.871,9.581Z" transform="translate(0.742 0.742)"/>
        <path id="Trazado_960356" data-name="Trazado 960356" d="M77.454,24.547a14.171,14.171,0,0,0-20-20,39.925,39.925,0,0,0-35.3,1.185L18.086,1.665l-1.6,1.6V1H8.742V3.267l-1.6-1.6L1.665,7.138l1.6,1.6H1v7.742H3.267l-1.6,1.6,4.067,4.066a39.9,39.9,0,0,0,1.84,40.782H6.161V68.1H1V81H19.065V74.428a39.916,39.916,0,0,0,38.388,3.026,14.171,14.171,0,0,0,20-20,39.944,39.944,0,0,0,0-32.906ZM66.806,52.613a14.179,14.179,0,0,0-2.027.161l-.421-1.261,1.057-1.586,3.4,2.039,2.23-6.692a14.786,14.786,0,0,1,5.863,6.286,37.369,37.369,0,0,1-1.443,4.022A14.113,14.113,0,0,0,66.806,52.613ZM8.742,24.226h7.742V21.959l1.6,1.6,1.179-1.179.419.419a13.227,13.227,0,0,0,6.143,3.479,1.288,1.288,0,0,1,.978,1.252v3.146a8.979,8.979,0,0,1-.084,1.161,6.22,6.22,0,0,0-2.5,4.982c0,.062,0,.107,0,.157a9.02,9.02,0,0,1-15.486-6.3Zm13.215-7.742h2.268V14.575a11.647,11.647,0,0,1,7.742,10.941v.392a9.356,9.356,0,0,0-2.581,2.7V27.53a3.868,3.868,0,0,0-2.932-3.756,10.644,10.644,0,0,1-4.945-2.8l-.419-.419,2.47-2.47Zm2.627,23.591.5,4.026c-.107-.03-.209-.075-.316-.1a1.327,1.327,0,0,1-.966-.966L23.27,40.89A11.428,11.428,0,0,0,24.585,40.075Zm-2.543,7.377H13.507a10.048,10.048,0,0,1-.519-1.8,3.864,3.864,0,0,0,1.255-1.991l.45-1.8a11.233,11.233,0,0,0,6.159,0l.45,1.8a3.884,3.884,0,0,0,1.257,1.992A10.065,10.065,0,0,1,22.041,47.452Zm-1.508,2.581a10.052,10.052,0,0,1-2.759,2.4,10.052,10.052,0,0,1-2.759-2.4Zm8.854-5.161h.1l.431,5.161h-.534a2.581,2.581,0,1,1,0-5.161Zm.128-2.581h-.128a5.112,5.112,0,0,0-1.879.366l-.675-5.379a3.054,3.054,0,0,1-.027-.457,3.646,3.646,0,0,1,2.5-3.466l1.2-.4.146-.734a6.753,6.753,0,0,1,6.6-5.413H42.7A12.5,12.5,0,0,1,54.821,42.335l-.1.414a5.107,5.107,0,0,0-2.1-.459H52.4a3.759,3.759,0,0,0-3.534-2.578v0a6.753,6.753,0,0,1-6.6-5.414l-2.53.506a9.275,9.275,0,0,0,2.714,4.908h-.031a6.753,6.753,0,0,1-6.6-5.414l-2.53.506a9.255,9.255,0,0,0,1.108,2.9l-2.161,1.08a5.105,5.105,0,0,0-2.715,3.51ZM45.828,14.328a3.273,3.273,0,0,1,2.314-5.586h6.037a14.08,14.08,0,0,0-1.261,9.373l-.043.021a5.1,5.1,0,0,0-2.716,3.51h-.128a5.156,5.156,0,0,0-3.446,1.35l-.12-.059a2.885,2.885,0,0,1,0-5.161l1.874-.937ZM66.806,4.617l1.225,1.837a15.745,15.745,0,0,1,1.258,2.288H64.324a15.746,15.746,0,0,1,1.258-2.288Zm3.381,6.706a15.525,15.525,0,0,1,0,7.742H63.426a15.525,15.525,0,0,1,0-7.742Zm8.232,3.871a11.531,11.531,0,0,1-.677,3.871h-4.9a18.24,18.24,0,0,0,0-7.742h4.9A11.531,11.531,0,0,1,78.419,15.194ZM75.792,27.225a2.579,2.579,0,0,1-2.534,2.163h-.534l.114-1.364a14.144,14.144,0,0,0,2.625-1.606Q75.632,26.819,75.792,27.225ZM62.245,50.032h-1.2L60.09,48.6l1.555-.933L63.2,48.6ZM52.51,44.871h.1a2.581,2.581,0,0,1,0,5.161h-.534Zm4.4-.266.08-.321,2.343,1.757-1.606.964a5.124,5.124,0,0,0-.817-2.4Zm7.041,1.436,3.129-2.347a14.764,14.764,0,0,1,1.606.48L67.381,48.1Zm1.394-4.268-3.7,2.775-3.7-2.777.539-2.159a8.984,8.984,0,0,0,1.254.1h3.818a8.745,8.745,0,0,0,1.253-.1Zm-1.794-4.644H59.735a6.378,6.378,0,0,1-2.2-.387,15.042,15.042,0,0,0-4.468-8.352l-.446-5.369c-.008-.093-.012-.188-.012-.284a2.533,2.533,0,0,1,1.1-2.075,14.221,14.221,0,0,0,11.805,8.659v.066a2.583,2.583,0,0,1-2.581,2.581H57.774v2.581h5.161A5.166,5.166,0,0,0,68.1,29.387v-.066a14.087,14.087,0,0,0,2.074-.355l-.187,2.245a6.49,6.49,0,0,1-6.43,5.917Zm-13.418-12.9.174,2.085a15.05,15.05,0,0,0-2.294-1.1,2.583,2.583,0,0,1,2.017-.987ZM66.806,25.77l-1.225-1.837a15.938,15.938,0,0,1-1.258-2.288h4.965a15.747,15.747,0,0,1-1.258,2.288Zm-3.372-.405.756,1.133a11.64,11.64,0,0,1-7.032-4.853h4.373a18.276,18.276,0,0,0,1.9,3.72ZM69.423,26.5l.756-1.133a18.347,18.347,0,0,0,1.9-3.72h4.373A11.647,11.647,0,0,1,69.423,26.5ZM60.77,19.065h-4.9a11.4,11.4,0,0,1,0-7.742h4.9a18.24,18.24,0,0,0,0,7.742ZM33.386,41.089l2.659-1.329a9.313,9.313,0,0,0,6.373,2.53h6.427a1.209,1.209,0,0,1,1.183,1.286l-.69,8.281a6.49,6.49,0,0,1-6.43,5.916H39.09a6.488,6.488,0,0,1-6.428-5.916l-.683-8.19c-.008-.1-.012-.19-.012-.285a2.551,2.551,0,0,1,1.418-2.294Zm9.923,25.6,3.124-2.343a15.01,15.01,0,0,1,1.614.467l-1.311,3.932Zm-4.217-6.332H42.91a8.729,8.729,0,0,0,1.253-.1l.539,2.161L41,65.194l-3.7-2.777.539-2.161a8.762,8.762,0,0,0,1.254.1ZM35.548,64.33l3.142,2.356-3.427,2.057L33.948,64.8a14.727,14.727,0,0,1,1.6-.47ZM31.6,65.9l2.236,6.71,3.4-2.039,1.057,1.586L36.307,78.1a36.867,36.867,0,0,1-11.534-3.4A14.705,14.705,0,0,1,31.6,65.9Zm8.8,4.775-.955-1.434L41,68.311l1.555.933L41.6,70.677Zm4.37-.1,3.4,2.039,2.227-6.683a14.741,14.741,0,0,1,2.255,1.6,14.105,14.105,0,0,0,2.934,7.937A36.885,36.885,0,0,1,45.7,78.12l-1.987-5.96ZM52.832,64.4a17.317,17.317,0,0,0-5.612-2.548l-.582-2.325a9.083,9.083,0,0,0,5.2-6.914h.777A5.13,5.13,0,0,0,56.594,50.7l1.281-.769,1.057,1.586-1.579,4.735a14.177,14.177,0,0,0-4.52,8.151Zm8.452-11.787h.721l.253.76a14.167,14.167,0,0,0-1.419.572Zm16.477-4.634a17.384,17.384,0,0,0-9.894-6.773l-.582-2.325a9.083,9.083,0,0,0,5.2-6.914h.775A5.139,5.139,0,0,0,76.9,30.434,37.285,37.285,0,0,1,78.419,41a37.763,37.763,0,0,1-.658,6.979ZM76.455,8.742H72.083a18.347,18.347,0,0,0-1.9-3.72l-.756-1.133A11.64,11.64,0,0,1,76.455,8.742ZM64.19,3.889l-.756,1.133a18.408,18.408,0,0,0-1.9,3.72H57.157A11.64,11.64,0,0,1,64.19,3.889ZM54.655,6.161H48.142A5.854,5.854,0,0,0,44,16.154l.117.116a5.464,5.464,0,0,0-.154,8.021c-.419-.035-.841-.065-1.271-.065H37.255a9.219,9.219,0,0,0-2.746.435,14.228,14.228,0,0,0-10.284-12.8V8.742H22.045a37.4,37.4,0,0,1,32.61-2.581ZM6.185,13.9h-2.6V11.323h2.6l.972-2.342L5.314,7.138,7.139,5.312,8.981,7.155l2.342-.97v-2.6H13.9v2.6l2.342.97,1.841-1.841,1.826,1.826L18.07,8.981l.972,2.342h2.6V13.9h-2.6l-.972,2.342,1.843,1.841-1.826,1.825L16.245,18.07l-2.342.972v2.6H11.323V19.039L8.982,18.07,7.139,19.911,5.314,18.086l1.841-1.84Zm-.023,13.48v3.294A11.623,11.623,0,0,0,12.275,40.9l-.534,2.132a1.328,1.328,0,0,1-.966.968,12.892,12.892,0,0,0-6.523,3.977,37.015,37.015,0,0,1,1.91-20.595ZM3.581,70.677H6.161v7.742H3.581Zm5.161,7.742v-12.9h2.581v12.9Zm7.742,0H13.9V60.355h2.581ZM11.323,57.774v5.161h-.617A37.077,37.077,0,0,1,5.031,51.271,10.327,10.327,0,0,1,10.6,46.75a12.652,12.652,0,0,0,6.6,8.307l.577.289.577-.289a12.662,12.662,0,0,0,6.01-6.468,5.163,5.163,0,0,0,5.026,4.025h.775a9.087,9.087,0,0,0,5.2,6.914l-.581,2.325A17.29,17.29,0,0,0,22.452,73.475a37.726,37.726,0,0,1-3.386-2.181V57.774ZM38.946,78.338l1.693-5.08h.721l1.7,5.1q-1.026.056-2.062.057c-.689,0-1.372-.045-2.054-.081Zm27.861.081A11.613,11.613,0,1,1,78.419,66.806,11.625,11.625,0,0,1,66.806,78.419Z" transform="translate(-1 -1)"/>
        <path id="Trazado_960357" data-name="Trazado 960357" d="M39.323,39H36.742a2.583,2.583,0,0,1-2.581,2.581H29v2.581h5.161A5.166,5.166,0,0,0,39.323,39Z" transform="translate(7.129 10.032)"/>
        <path id="Trazado_960358" data-name="Trazado 960358" d="M21.323,25H18.742a2.583,2.583,0,0,1-2.581,2.581H11v2.581h5.161A5.166,5.166,0,0,0,21.323,25Z" transform="translate(1.903 5.968)"/>
      </g>
    </g>
  </g>
</svg>
