<svg xmlns="http://www.w3.org/2000/svg" width="120" height="120" viewBox="0 0 120 120">
  <g id="Grupo_1115842" data-name="Grupo 1115842" transform="translate(-64 -6445)">
    <rect id="Rect치ngulo_402033" data-name="Rect치ngulo 402033" width="120" height="120" rx="8" transform="translate(64 6445)" fill="#0042db"/>
    <g id="Rect치ngulo_412110" data-name="Rect치ngulo 412110" transform="translate(69 6450)" fill="none" stroke="#fff" stroke-width="1">
      <rect width="110" height="110" rx="6" stroke="none"/>
      <rect x="0.5" y="0.5" width="109" height="109" rx="5.5" fill="none"/>
    </g>
    <g id="Grupo_1116127" data-name="Grupo 1116127" transform="translate(83 6463.994)">
      <path id="Trazado_957332" data-name="Trazado 957332" d="M65.213,38a25.809,25.809,0,0,1-49.239,0H2.4l2.581,7.9a1.289,1.289,0,0,0,1.626.839l3.032-.994a1.307,1.307,0,0,1,1.535.619,33.109,33.109,0,0,0,5.006,6.9,1.29,1.29,0,0,1,.116,1.652L14.426,57.5A1.286,1.286,0,0,0,14.71,59.3l6.258,4.542a1.284,1.284,0,0,0,1.806-.284l1.871-2.581a1.319,1.319,0,0,1,1.613-.4,32.77,32.77,0,0,0,8.1,2.645,1.3,1.3,0,0,1,1.071,1.265v3.187a1.294,1.294,0,0,0,1.29,1.29h7.742a1.294,1.294,0,0,0,1.29-1.29V64.49a1.3,1.3,0,0,1,1.071-1.265,32.77,32.77,0,0,0,8.1-2.645,1.319,1.319,0,0,1,1.613.4l1.871,2.581a1.284,1.284,0,0,0,1.806.284L66.477,59.3a1.286,1.286,0,0,0,.284-1.806L64.89,54.916a1.29,1.29,0,0,1,.116-1.652,33.109,33.109,0,0,0,5.006-6.9,1.307,1.307,0,0,1,1.535-.619l3.032.994a1.289,1.289,0,0,0,1.626-.839L78.787,38Z" transform="translate(0.406 10.742)" fill="#ff7375"/>
      <path id="Trazado_957333" data-name="Trazado 957333" d="M6,17H17.613V36.355H6Z" transform="translate(1.452 4.645)" fill="#7e97b3"/>
      <path id="Trazado_957334" data-name="Trazado 957334" d="M30.484,40.419V9.452L22.742,3,15,9.452V40.419Z" transform="translate(4.065 0.581)" fill="#90accc"/>
      <path id="Trazado_957335" data-name="Trazado 957335" d="M27,13H39.9V37.516H27Z" transform="translate(7.548 3.484)" fill="#5a6c80"/>
      <path id="Trazado_957336" data-name="Trazado 957336" d="M52.484,40.71V2H37V40.71Z" transform="translate(10.452 0.29)" fill="#90accc"/>
      <path id="Trazado_957337" data-name="Trazado 957337" d="M49,18H60.613V36.065H49Z" transform="translate(13.935 4.935)" fill="#7e97b3"/>
      <path id="Trazado_957338" data-name="Trazado 957338" d="M9.515,44.609l-3.032.981L3.9,37.693l-2.452.8,2.581,7.884a2.57,2.57,0,0,0,3.252,1.665l3.032-.981a34.979,34.979,0,0,0,5.213,7.187l-1.871,2.581a2.541,2.541,0,0,0-.477,1.91,2.609,2.609,0,0,0,1.032,1.7l6.258,4.542a2.581,2.581,0,0,0,3.613-.568l1.884-2.568A33.656,33.656,0,0,0,34.4,64.6v3.187a2.588,2.588,0,0,0,2.581,2.581h7.742a2.588,2.588,0,0,0,2.581-2.581V64.6a33.951,33.951,0,0,0,8.452-2.761L57.618,64.4A2.541,2.541,0,0,0,59.3,65.448a2.514,2.514,0,0,0,1.935-.465l6.258-4.542a2.591,2.591,0,0,0,.568-3.613L66.2,54.235a33.583,33.583,0,0,0,5.2-7.187l3.032.994a2.623,2.623,0,0,0,1.974-.155,2.551,2.551,0,0,0,1.277-1.51l2.581-7.9-2.452-.8-2.581,7.91L72.2,44.6a2.61,2.61,0,0,0-3.071,1.226,31.887,31.887,0,0,1-4.813,6.632,2.564,2.564,0,0,0-.219,3.29l1.871,2.581-6.258,4.542-1.884-2.594a2.6,2.6,0,0,0-3.2-.8,31.759,31.759,0,0,1-7.781,2.542,2.594,2.594,0,0,0-2.129,2.529v3.187H36.973V64.545a2.572,2.572,0,0,0-2.129-2.529,31.439,31.439,0,0,1-7.806-2.555,2.586,2.586,0,0,0-3.187.813l-1.871,2.581-6.258-4.542,1.858-2.568a2.55,2.55,0,0,0-.219-3.3,31.9,31.9,0,0,1-4.826-6.658,2.6,2.6,0,0,0-3.058-1.2Z" transform="translate(0.131 10.649)"/>
      <path id="Trazado_957339" data-name="Trazado 957339" d="M37.821,57.442A26.955,26.955,0,0,0,63.666,38.474L61.2,37.7a24.525,24.525,0,0,1-46.787,0l-2.465.774A26.955,26.955,0,0,0,37.8,57.442Z" transform="translate(3.179 10.655)"/>
      <path id="Trazado_957340" data-name="Trazado 957340" d="M1,34H81v2.581H1Z" transform="translate(0 9.581)"/>
      <path id="Trazado_957341" data-name="Trazado 957341" d="M74.677,41V22.935a1.294,1.294,0,0,0-1.29-1.29H63.065V2.29A1.294,1.294,0,0,0,61.774,1H46.29A1.294,1.294,0,0,0,45,2.29v12.9H34.677V10.032a1.281,1.281,0,0,0-.465-.994L26.471,2.587a1.287,1.287,0,0,0-1.652,0L17.077,9.039a1.281,1.281,0,0,0-.465.994V20.355H6.29A1.294,1.294,0,0,0,5,21.645V41H7.581V22.935h9.032V41h2.581V10.639l6.452-5.381L32.1,10.639V41h2.581V17.774H45V41h2.581V3.581h12.9V41h2.581V24.226H72.1V41Z" transform="translate(1.161)"/>
      <path id="Trazado_957342" data-name="Trazado 957342" d="M40,6h2.581V8.581H40Z" transform="translate(11.323 1.452)"/>
      <path id="Trazado_957343" data-name="Trazado 957343" d="M44,6h2.581V8.581H44Z" transform="translate(12.484 1.452)"/>
      <path id="Trazado_957344" data-name="Trazado 957344" d="M40,11h2.581v2.581H40Z" transform="translate(11.323 2.903)"/>
      <path id="Trazado_957345" data-name="Trazado 957345" d="M44,11h2.581v2.581H44Z" transform="translate(12.484 2.903)"/>
      <path id="Trazado_957346" data-name="Trazado 957346" d="M40,16h2.581v2.581H40Z" transform="translate(11.323 4.355)"/>
      <path id="Trazado_957347" data-name="Trazado 957347" d="M44,16h2.581v2.581H44Z" transform="translate(12.484 4.355)"/>
      <path id="Trazado_957348" data-name="Trazado 957348" d="M18,10h7.742v2.581H18Z" transform="translate(4.935 2.613)"/>
      <path id="Trazado_957349" data-name="Trazado 957349" d="M18,15h7.742v2.581H18Z" transform="translate(4.935 4.065)"/>
    </g>
  </g>
</svg>
