<svg xmlns="http://www.w3.org/2000/svg" width="50" height="50" viewBox="0 0 50 50">
  <g id="Grupo_1116397" data-name="Grupo 1116397" transform="translate(0 0.001)">
    <path id="Trazado_957749" data-name="Trazado 957749" d="M25.062,42.125a14.062,14.062,0,0,1,0-28.125.781.781,0,1,1,0,1.562,12.5,12.5,0,0,0,0,25,.781.781,0,1,1,0,1.562Z" transform="translate(-2.406 -3.063)" fill="#001a58"/>
    <g id="Grupo_1116392" data-name="Grupo 1116392" transform="translate(17.968 10.937)">
      <path id="Trazado_957750" data-name="Trazado 957750" d="M28.781,50.718a.781.781,0,1,1,0-1.562,16.8,16.8,0,0,0,0-33.593.781.781,0,1,1,0-1.562,18.359,18.359,0,0,1,0,36.718Z" transform="translate(-24.093 -14)" fill="#001a58"/>
      <path id="Trazado_957751" data-name="Trazado 957751" d="M28.781,62.25A.781.781,0,0,1,28,61.469V56.781a.781.781,0,1,1,1.562,0v4.687A.781.781,0,0,1,28.781,62.25Z" transform="translate(-24.093 -23.188)" fill="#001a58"/>
      <path id="Trazado_957752" data-name="Trazado 957752" d="M27.686,62.906a.777.777,0,0,1-.4-.112l-3.906-2.344a.781.781,0,1,1,.8-1.34l3.906,2.344a.781.781,0,0,1-.4,1.451Z" transform="translate(-22.999 -23.844)" fill="#001a58"/>
      <path id="Trazado_957753" data-name="Trazado 957753" d="M23.782,59.906a.781.781,0,0,1-.4-1.451l3.906-2.344a.781.781,0,1,1,.8,1.34L24.184,59.8a.777.777,0,0,1-.4.112Z" transform="translate(-23 -23.188)" fill="#001a58"/>
    </g>
    <path id="Trazado_957754" data-name="Trazado 957754" d="M28.781,50.718a.781.781,0,1,1,0-1.562,16.8,16.8,0,0,0,0-33.593.781.781,0,1,1,0-1.562,18.359,18.359,0,0,1,0,36.718Z" transform="translate(-6.125 -3.063)" fill="#001a58"/>
    <g id="Grupo_1116393" data-name="Grupo 1116393" transform="translate(0 -0.001)">
      <path id="Trazado_957755" data-name="Trazado 957755" d="M3.094,36.226a.781.781,0,0,1-.7-.431A22.427,22.427,0,0,1,0,25.655,22.682,22.682,0,0,1,22.656,3a.781.781,0,1,1,0,1.562A21.117,21.117,0,0,0,1.562,25.656a20.878,20.878,0,0,0,2.23,9.439.781.781,0,0,1-.7,1.131Z" transform="translate(0 -0.656)" fill="#001a58"/>
      <path id="Trazado_957756" data-name="Trazado 957756" d="M29.781,6.25A.781.781,0,0,1,29,5.469V.781a.781.781,0,1,1,1.562,0V5.469A.781.781,0,0,1,29.781,6.25Z" transform="translate(-6.344 0.001)" fill="#001a58"/>
      <path id="Trazado_957757" data-name="Trazado 957757" d="M33.686,3.906a.777.777,0,0,1-.4-.112L29.379,1.451a.781.781,0,0,1,.8-1.34l3.906,2.344a.781.781,0,0,1-.4,1.451Z" transform="translate(-6.344 0.001)" fill="#001a58"/>
      <path id="Trazado_957758" data-name="Trazado 957758" d="M29.782,6.906a.781.781,0,0,1-.4-1.451l3.906-2.344a.781.781,0,0,1,.8,1.34L30.184,6.8a.777.777,0,0,1-.4.112Z" transform="translate(-6.344 -0.656)" fill="#001a58"/>
    </g>
    <path id="Trazado_957759" data-name="Trazado 957759" d="M54.343,42.226a.781.781,0,0,1-.7-1.131,20.878,20.878,0,0,0,2.23-9.439A21.117,21.117,0,0,0,34.782,10.562a.781.781,0,1,1,0-1.562A22.682,22.682,0,0,1,57.438,31.656a22.427,22.427,0,0,1-2.4,10.14.781.781,0,0,1-.7.431Z" transform="translate(-7.438 -1.969)" fill="#001a58"/>
    <path id="Trazado_957760" data-name="Trazado 957760" d="M61.468,52.469a.783.783,0,0,1-.5-.18L56.28,48.382a.782.782,0,1,1,1-1.2l4.687,3.906a.781.781,0,0,1-.5,1.381Z" transform="translate(-12.251 -10.282)" fill="#001a58"/>
    <path id="Trazado_957761" data-name="Trazado 957761" d="M56.781,54.031A.781.781,0,0,1,56,53.25V47.781a.781.781,0,1,1,1.562,0V53.25A.781.781,0,0,1,56.781,54.031Z" transform="translate(-12.251 -10.282)" fill="#001a58"/>
    <path id="Trazado_957762" data-name="Trazado 957762" d="M56.781,55.125a.781.781,0,0,1-.247-1.523l4.687-1.562a.781.781,0,1,1,.495,1.482l-4.687,1.562a.782.782,0,0,1-.247.041Z" transform="translate(-12.251 -11.375)" fill="#001a58"/>
    <path id="Trazado_957763" data-name="Trazado 957763" d="M52.125,62.25a3.125,3.125,0,1,1,3.125-3.125A3.128,3.128,0,0,1,52.125,62.25Zm0-4.687a1.562,1.562,0,1,0,1.562,1.562A1.564,1.564,0,0,0,52.125,57.562Z" transform="translate(-10.719 -12.251)" fill="#001a58"/>
    <path id="Trazado_957764" data-name="Trazado 957764" d="M4.125,55.25A3.125,3.125,0,1,1,7.25,52.125,3.128,3.128,0,0,1,4.125,55.25Zm0-4.687a1.562,1.562,0,1,0,1.562,1.562A1.564,1.564,0,0,0,4.125,50.562Z" transform="translate(-0.219 -10.72)" fill="#001a58"/>
    <path id="Trazado_957765" data-name="Trazado 957765" d="M10.344,47.687a2.344,2.344,0,1,1,2.344-2.344A2.347,2.347,0,0,1,10.344,47.687Zm0-3.125a.781.781,0,1,0,.781.781A.782.782,0,0,0,10.344,44.562Z" transform="translate(-1.75 -9.407)" fill="#001a58"/>
    <path id="Trazado_957766" data-name="Trazado 957766" d="M21.344,54.687a2.344,2.344,0,1,1,2.344-2.344A2.347,2.347,0,0,1,21.344,54.687Zm0-3.125a.781.781,0,1,0,.781.781A.782.782,0,0,0,21.344,51.562Z" transform="translate(-4.156 -10.938)" fill="#001a58"/>
    <path id="Trazado_957767" data-name="Trazado 957767" d="M56.344,37.687a2.344,2.344,0,1,1,2.344-2.344A2.347,2.347,0,0,1,56.344,37.687Zm0-3.125a.781.781,0,1,0,.781.781A.782.782,0,0,0,56.344,34.562Z" transform="translate(-11.813 -7.219)" fill="#001a58"/>
    <path id="Trazado_957768" data-name="Trazado 957768" d="M9.344,21.687a2.344,2.344,0,1,1,2.344-2.344A2.347,2.347,0,0,1,9.344,21.687Zm0-3.125a.781.781,0,1,0,.781.781A.782.782,0,0,0,9.344,18.562Z" transform="translate(-1.531 -3.719)" fill="#001a58"/>
    <path id="Trazado_957769" data-name="Trazado 957769" d="M56.344,12.687a2.344,2.344,0,1,1,2.344-2.344A2.347,2.347,0,0,1,56.344,12.687Zm0-3.125a.781.781,0,1,0,.781.781A.782.782,0,0,0,56.344,9.562Z" transform="translate(-11.813 -1.75)" fill="#001a58"/>
    <path id="Trazado_957770" data-name="Trazado 957770" d="M8.344,5.687a2.344,2.344,0,1,1,2.344-2.344A2.347,2.347,0,0,1,8.344,5.687Zm0-3.125a.781.781,0,1,0,.781.781A.782.782,0,0,0,8.344,2.562Z" transform="translate(-1.313 -0.219)" fill="#001a58"/>
    <path id="Trazado_957771" data-name="Trazado 957771" d="M47.125,7.25A3.125,3.125,0,1,1,50.25,4.125,3.128,3.128,0,0,1,47.125,7.25Zm0-4.687a1.562,1.562,0,1,0,1.562,1.562A1.564,1.564,0,0,0,47.125,2.562Z" transform="translate(-9.626 -0.219)" fill="#001a58"/>
    <g id="Grupo_1116396" data-name="Grupo 1116396" transform="translate(11.719 15.624)">
      <path id="Trazado_957772" data-name="Trazado 957772" d="M28.781,45.844A.781.781,0,0,1,28,45.062V31.781a.781.781,0,1,1,1.562,0V45.062A.781.781,0,0,1,28.781,45.844Z" transform="translate(-17.844 -22.406)" fill="#001a58"/>
      <g id="Grupo_1116394" data-name="Grupo 1116394" transform="translate(0 3.907)">
        <path id="Trazado_957773" data-name="Trazado 957773" d="M19.687,37.5A4.692,4.692,0,0,1,15,32.812c0-2.363,3.661-7,4.078-7.519a.781.781,0,0,1,1.391.488c0,1.712.86,2.482,1.855,3.372A4.547,4.547,0,0,1,19.687,37.5Zm-.455-9.819c-1.291,1.8-2.669,4.069-2.669,5.132a3.125,3.125,0,0,0,6.25,0c0-1.073-.552-1.62-1.53-2.494A6.738,6.738,0,0,1,19.232,27.681Z" transform="translate(-15 -25)" fill="#001a58"/>
        <path id="Trazado_957774" data-name="Trazado 957774" d="M26.25,41.031A6.257,6.257,0,0,1,20,34.781a.781.781,0,1,1,1.562,0,4.692,4.692,0,0,0,4.687,4.687.781.781,0,0,1,0,1.562Z" transform="translate(-16.094 -26.969)" fill="#001a58"/>
      </g>
      <path id="Trazado_957775" data-name="Trazado 957775" d="M35.687,44.5a4.547,4.547,0,0,1-2.637-8.347c1-.891,1.855-1.659,1.855-3.372a.781.781,0,0,1,1.391-.488c.417.52,4.078,5.156,4.078,7.519A4.692,4.692,0,0,1,35.687,44.5Zm.455-9.819a6.738,6.738,0,0,1-2.051,2.638c-.977.873-1.53,1.42-1.53,2.494a3.125,3.125,0,0,0,6.25,0C38.812,38.75,37.434,36.484,36.143,34.68Z" transform="translate(-18.5 -22.625)" fill="#001a58"/>
      <g id="Grupo_1116395" data-name="Grupo 1116395" transform="translate(7.812)">
        <path id="Trazado_957776" data-name="Trazado 957776" d="M29.687,30.44a4.687,4.687,0,0,1-3.314-8c1.671-1.671,7.537-2.36,8.2-2.434a.782.782,0,0,1,.638,1.33C34,22.545,34.065,23.7,34.14,25.031A4.7,4.7,0,0,1,33,29.068a4.654,4.654,0,0,1-3.314,1.373ZM32.994,21.8c-2.19.362-4.766.991-5.517,1.741a3.124,3.124,0,0,0,0,4.419,3.2,3.2,0,0,0,4.419,0c.759-.759.755-1.537.682-2.845a6.729,6.729,0,0,1,.416-3.316Z" transform="translate(-25 -20)" fill="#001a58"/>
        <path id="Trazado_957777" data-name="Trazado 957777" d="M28.752,31.5h-.038a.781.781,0,0,1-.743-.818,6.2,6.2,0,0,1,1.814-4.085.781.781,0,0,1,1.1,1.1,4.629,4.629,0,0,0-1.358,3.055A.782.782,0,0,1,28.752,31.5Z" transform="translate(-25.65 -21.392)" fill="#001a58"/>
      </g>
    </g>
    <path id="Trazado_957778" data-name="Trazado 957778" d="M28.781,48.031a.781.781,0,1,1,0-1.562c3.015,0,5.469-2.1,5.469-4.687a.781.781,0,0,1,1.562,0C35.812,45.227,32.659,48.031,28.781,48.031Z" transform="translate(-6.125 -8.969)" fill="#001a58"/>
    <path id="Trazado_957779" data-name="Trazado 957779" d="M44.469,35.25a.781.781,0,0,1-.781-.781,3.911,3.911,0,0,0-3.906-3.906.781.781,0,1,1,0-1.562,5.476,5.476,0,0,1,5.469,5.469A.781.781,0,0,1,44.469,35.25Z" transform="translate(-8.532 -6.344)" fill="#001a58"/>
  </g>
</svg>
