<svg xmlns="http://www.w3.org/2000/svg" width="50" height="50.493" viewBox="0 0 50 50.493">
  <path id="Trazado_957787" data-name="Trazado 957787" d="M44.747,34.982a7.714,7.714,0,0,0-4.928,1.773L37.794,34.71a13.811,13.811,0,0,0,3.537-8.524h2a4.528,4.528,0,1,0,0-1.479h-2a13.822,13.822,0,0,0-.377-2.574.74.74,0,0,0-1.436.353,12.4,12.4,0,0,1-3.524,11.955c-.315-2.9-2.812-3.572-4.669-4.07l-.371-.1c-.145-.039-.263-.235-.355-.438a7.091,7.091,0,0,0,3.215-5.3v-1.7a7.17,7.17,0,0,0-1.958-5.2A6.24,6.24,0,0,0,27.511,15.8h-.025a6.391,6.391,0,0,0-2.606.6.74.74,0,0,0,.633,1.337,4.728,4.728,0,0,1,6.766,4.151,2.417,2.417,0,0,1-.7-.553,2,2,0,0,0-2.169-.707c-.289.075-.535.14-.747.2a5.278,5.278,0,0,1-1.165.247,5.278,5.278,0,0,1-1.165-.247c-.213-.057-.458-.123-.747-.2a2,2,0,0,0-2.169.707,2.414,2.414,0,0,1-.7.554,5.713,5.713,0,0,1,.8-2.364.74.74,0,1,0-1.256-.782,7.6,7.6,0,0,0-1.073,4.083v1.7a7.092,7.092,0,0,0,3.215,5.3c-.092.2-.211.4-.357.439l-.368.1c-1.856.5-4.354,1.168-4.669,4.07A12.375,12.375,0,1,1,38.176,19.187l.005.009c.039.064.076.131.113.2l.033.06a.74.74,0,1,0,1.292-.721l-.031-.057c-.045-.081-.091-.164-.138-.242A13.9,13.9,0,0,0,37.8,16.181L39.86,14.1a7.728,7.728,0,0,0,9.4-.373.742.742,0,0,0,.118-.1,7.753,7.753,0,1,0-10.641-.49l-1.983,2a13.773,13.773,0,0,0-8.513-3.526v-2a4.529,4.529,0,1,0-1.479,0v2a13.794,13.794,0,0,0-8.513,3.535l-2-2a7.752,7.752,0,1,0-10.627.476.742.742,0,0,0,.118.1,7.729,7.729,0,0,0,9.381.385L17.2,16.188a13.807,13.807,0,0,0-3.533,8.518h-2a4.53,4.53,0,1,0,0,1.479h2A13.81,13.81,0,0,0,17.2,34.7l-2.02,2.019a7.766,7.766,0,1,0,1.046,1.046l2.02-2.019q.266.24.545.466a4.3,4.3,0,0,0,.557.429,13.768,13.768,0,0,0,7.411,2.64v2a4.529,4.529,0,1,0,1.479,0v-2a13.768,13.768,0,0,0,7.41-2.64.742.742,0,0,0,.139-.1q.5-.373.96-.79L38.772,37.8a7.742,7.742,0,0,0,.9,10.792.741.741,0,0,0,.144.125,7.735,7.735,0,0,0,9.859,0,.744.744,0,0,0,.144-.125,7.751,7.751,0,0,0-5.073-13.612ZM47.8,22.4a3.05,3.05,0,1,1-3.05,3.049A3.053,3.053,0,0,1,47.8,22.4Zm-3.487-8.366a6.238,6.238,0,0,1-3.765-1.26A3.8,3.8,0,0,1,42.4,9.855a3.69,3.69,0,0,0,3.816,0,3.8,3.8,0,0,1,1.857,2.917,6.238,6.238,0,0,1-3.765,1.26Zm-2.22-7.346a2.22,2.22,0,1,1,2.22,2.221,2.223,2.223,0,0,1-2.22-2.221ZM38.04,7.755a6.273,6.273,0,1,1,11.285,3.768,5.3,5.3,0,0,0-1.99-2.709,3.7,3.7,0,1,0-6.045,0,5.3,5.3,0,0,0-1.99,2.709,6.245,6.245,0,0,1-1.26-3.768ZM24.449,5.135A3.05,3.05,0,1,1,27.5,8.187,3.053,3.053,0,0,1,24.449,5.135Zm-13.764,8.9a6.238,6.238,0,0,1-3.765-1.26A3.8,3.8,0,0,1,8.777,9.855a3.69,3.69,0,0,0,3.816,0,3.8,3.8,0,0,1,1.857,2.917A6.238,6.238,0,0,1,10.685,14.031ZM8.465,6.686a2.22,2.22,0,1,1,2.22,2.221,2.223,2.223,0,0,1-2.22-2.221Zm5.242,2.129a3.7,3.7,0,1,0-6.045,0,5.3,5.3,0,0,0-1.99,2.709,6.273,6.273,0,1,1,10.025,0A5.3,5.3,0,0,0,13.708,8.815ZM7.2,28.5a3.05,3.05,0,1,1,3.05-3.051A3.054,3.054,0,0,1,7.2,28.5Zm3.053,20.484a6.238,6.238,0,0,1-3.765-1.26A3.8,3.8,0,0,1,8.342,44.8a3.69,3.69,0,0,0,3.817,0,3.8,3.8,0,0,1,1.858,2.916A6.238,6.238,0,0,1,10.251,48.981Zm-2.22-7.346a2.22,2.22,0,1,1,2.22,2.221A2.223,2.223,0,0,1,8.031,41.635Zm7.232,4.838a5.3,5.3,0,0,0-1.989-2.71,3.7,3.7,0,1,0-6.048,0,5.3,5.3,0,0,0-1.989,2.711,6.273,6.273,0,1,1,10.026,0Zm7.4-21.94V23.464a3.471,3.471,0,0,0,1.811-1.091c.348-.355.392-.4.743-.31.284.073.525.138.734.194a5.983,5.983,0,0,0,1.547.3,5.978,5.978,0,0,0,1.547-.3c.209-.056.45-.121.734-.194.351-.09.4-.045.743.31a3.471,3.471,0,0,0,1.811,1.091v1.069c0,1.729-1.762,3.956-3.7,4.673a2.869,2.869,0,0,1-2.276,0c-1.935-.717-3.7-2.944-3.7-4.673Zm7.314,6.877-2.1,1.23-.029.018c-.343.223-.363.223-.705,0l-.029-.018-2.1-1.23a2.381,2.381,0,0,0,.683-.874c.047.019.094.038.142.056a4.322,4.322,0,0,0,3.308,0c.048-.018.1-.038.144-.057a2.381,2.381,0,0,0,.682.874Zm.571,14.346a3.05,3.05,0,1,1-3.05-3.049A3.054,3.054,0,0,1,30.549,45.756Zm4-10.139a12.338,12.338,0,0,1-14.1,0v-.543c0-1.855,1.014-2.5,2.732-3.025l3.172,1.86a1.847,1.847,0,0,0,2.287,0l3.172-1.86c1.718.528,2.732,1.17,2.732,3.025Zm10.2,13.4a6.238,6.238,0,0,1-3.765-1.26,3.8,3.8,0,0,1,1.857-2.916,3.691,3.691,0,0,0,3.817,0,3.8,3.8,0,0,1,1.856,2.917,6.238,6.238,0,0,1-3.765,1.26Zm-2.22-7.345a2.22,2.22,0,1,1,2.22,2.221A2.223,2.223,0,0,1,42.527,41.668Zm7.232,4.838A5.3,5.3,0,0,0,47.771,43.8a3.7,3.7,0,1,0-6.048,0,5.3,5.3,0,0,0-1.989,2.71,6.273,6.273,0,1,1,10.025,0Z" transform="translate(-2.499)" fill="#001a58"/>
</svg>
