<svg xmlns="http://www.w3.org/2000/svg" width="400.289" height="190" viewBox="0 0 400.289 190">
  <g id="Grupo_1115952" data-name="Grupo 1115952" transform="translate(-1229.711 -2265)">
    <path id="Rectángulo_35929" data-name="Rectángulo 35929" d="M20,0H380a20,20,0,0,1,20,20V190a0,0,0,0,1,0,0H0a0,0,0,0,1,0,0V20A20,20,0,0,1,20,0Z" transform="translate(1229.711 2265)" fill="#99b3f1"/>
    <rect id="Rectángulo_416117" data-name="Rectángulo 416117" width="400" height="48" transform="translate(1230 2407)" fill="#ccd9f8"/>
    <g id="_7824970_3726685" data-name="7824970_3726685" transform="translate(1312.786 2244.292)">
      <g id="OBJECTS" transform="translate(37.924 41.222)">
        <ellipse id="Elipse_13540" data-name="Elipse 13540" cx="67.55" cy="9.303" rx="67.55" ry="9.303" transform="translate(12.516 137.737)" fill="#f2f2f2"/>
        <ellipse id="Elipse_13541" data-name="Elipse 13541" cx="43.011" cy="5.923" rx="43.011" ry="5.923" transform="translate(37.055 141.482)" fill="#e8e8e8"/>
        <g id="Grupo_1116492" data-name="Grupo 1116492">
          <g id="Grupo_1116466" data-name="Grupo 1116466" transform="translate(0 28.939)">
            <g id="Grupo_1116462" data-name="Grupo 1116462">
              <g id="Grupo_1116460" data-name="Grupo 1116460" transform="translate(0 7.507)">
                <path id="Trazado_957880" data-name="Trazado 957880" d="M62.758,155.414l1.855-1.786a32.842,32.842,0,0,0-11.042-11.939l-1.549.945.586-1.508q-.832-.462-1.672-.831l-2.373,2.418.763-3.036a11.185,11.185,0,0,0-5.221-.546,7,7,0,0,0-4.16,2.261,7.644,7.644,0,0,0-1.847,3.671,9.076,9.076,0,0,0-.169,2.057,11.516,11.516,0,0,0,.282,2.178,22.175,22.175,0,0,0,4.975,9.117l2.914-.988-1.417,2.634c.624.636,1.282,1.264,1.969,1.867l1.271-1.239-.321,2.046q.413.339.837.667a26.971,26.971,0,0,0,13.172,5.761,16,16,0,0,0,5.551-.15s1.945-5.826-1.8-13.9Z" transform="translate(-37.924 -139.021)" fill="#ffd200"/>
              </g>
              <rect id="Rectángulo_416113" data-name="Rectángulo 416113" width="0.419" height="29.239" transform="translate(6.053 15.433) rotate(-46.929)" fill="#fff"/>
              <path id="Trazado_957881" data-name="Trazado 957881" d="M69.8,167.59c-1.115-1.722-2.085-6.041-2.126-6.224l.409-.091c.01.044.995,4.429,2.068,6.088Z" transform="translate(-56.591 -145.475)" fill="#fff"/>
              <path id="Trazado_957882" data-name="Trazado 957882" d="M68.76,185.607l-.158-.388c1.671-.682,4.9-.237,5.033-.217l-.059.414C73.543,185.412,70.326,184.968,68.76,185.607Z" transform="translate(-57.17 -160.26)" fill="#fff"/>
              <path id="Trazado_957883" data-name="Trazado 957883" d="M94.934,189.443c-.955-2.214-.4-5.664-.375-5.81l.413.069c-.006.034-.559,3.476.347,5.576Z" transform="translate(-73.34 -159.502)" fill="#fff"/>
              <g id="Grupo_1116461" data-name="Grupo 1116461" transform="translate(8.259)">
                <path id="Trazado_957884" data-name="Trazado 957884" d="M112.694,164.414s-4.535-12.6-3.968-24.82S105.7,118.2,99.845,118.917s-10.96,22.822,11.338,46.82Z" transform="translate(-81.877 -118.878)" fill="#bce13e"/>
                <path id="Trazado_957885" data-name="Trazado 957885" d="M123,192.636l.456-.287c-.083-.131-8.233-13.265-8.548-27.754l-.538.012C114.685,179.248,122.913,192.5,123,192.636Z" transform="translate(-94.138 -147.559)" fill="#fff"/>
                <path id="Trazado_957886" data-name="Trazado 957886" d="M89.881,219.159s-8.131-4.239-16.471-4.981-14.232-4.024-13.208-7.932,16.493-5.33,30.717,12.009Z" transform="translate(-60.086 -172.123)" fill="#91b31e"/>
                <path id="Trazado_957887" data-name="Trazado 957887" d="M108.608,227.417l.345-.413c-.082-.069-8.334-6.888-18.259-8.457l-.084.531C100.385,220.624,108.527,227.349,108.608,227.417Z" transform="translate(-79.235 -181.404)" fill="#fff"/>
              </g>
            </g>
            <g id="Grupo_1116465" data-name="Grupo 1116465" transform="translate(118.972)">
              <g id="Grupo_1116463" data-name="Grupo 1116463" transform="translate(9.352 7.507)">
                <path id="Trazado_957888" data-name="Trazado 957888" d="M387.179,155.414l-1.855-1.786a32.842,32.842,0,0,1,11.042-11.939l1.55.945-.586-1.508q.832-.462,1.672-.831l2.373,2.418-.763-3.036a11.186,11.186,0,0,1,5.221-.546,7,7,0,0,1,4.16,2.261,7.644,7.644,0,0,1,1.847,3.671,9.076,9.076,0,0,1,.169,2.057,11.515,11.515,0,0,1-.282,2.178,22.172,22.172,0,0,1-4.975,9.117l-2.914-.988,1.417,2.634c-.624.636-1.282,1.264-1.969,1.867l-1.271-1.239.321,2.046q-.413.339-.837.667a26.97,26.97,0,0,1-13.172,5.761,16,16,0,0,1-5.551-.15s-1.945-5.826,1.8-13.9Z" transform="translate(-382.273 -139.021)" fill="#ffd200"/>
              </g>
              <rect id="Rectángulo_416114" data-name="Rectángulo 416114" width="29.239" height="0.419" transform="translate(11.39 35.093) rotate(-43.071)" fill="#fff"/>
              <path id="Trazado_957889" data-name="Trazado 957889" d="M426.024,167.59c1.115-1.722,2.085-6.041,2.126-6.224l-.409-.091c-.01.044-.995,4.429-2.068,6.088Z" transform="translate(-400.148 -145.475)" fill="#fff"/>
              <path id="Trazado_957890" data-name="Trazado 957890" d="M422.768,185.607l.158-.388c-1.671-.682-4.9-.237-5.032-.217l.059.414C417.985,185.412,421.2,184.968,422.768,185.607Z" transform="translate(-395.268 -160.26)" fill="#fff"/>
              <path id="Trazado_957891" data-name="Trazado 957891" d="M403.48,189.443c.955-2.214.4-5.664.375-5.81l-.413.069c.006.034.559,3.476-.347,5.576Z" transform="translate(-385.984 -159.502)" fill="#fff"/>
              <g id="Grupo_1116464" data-name="Grupo 1116464">
                <path id="Trazado_957892" data-name="Trazado 957892" d="M357.218,164.414s4.535-12.6,3.968-24.82,3.023-21.391,8.881-20.678,10.96,22.822-11.338,46.82Z" transform="translate(-357.203 -118.878)" fill="#bce13e"/>
                <path id="Trazado_957893" data-name="Trazado 957893" d="M361.707,192.636l-.456-.287c.082-.131,8.233-13.265,8.548-27.754l.539.012C370.019,179.248,361.79,192.5,361.707,192.636Z" transform="translate(-359.733 -147.559)" fill="#fff"/>
                <path id="Trazado_957894" data-name="Trazado 957894" d="M358.215,219.159s8.131-4.239,16.471-4.981,14.232-4.024,13.208-7.932-16.493-5.33-30.716,12.009Z" transform="translate(-357.178 -172.123)" fill="#91b31e"/>
                <path id="Trazado_957895" data-name="Trazado 957895" d="M360.512,227.417l-.345-.413c.082-.069,8.334-6.888,18.259-8.457l.084.531C368.735,220.624,360.593,227.349,360.512,227.417Z" transform="translate(-359.053 -181.404)" fill="#fff"/>
              </g>
            </g>
          </g>
          <g id="Grupo_1116483" data-name="Grupo 1116483" transform="translate(6.452)">
            <g id="Grupo_1116468" data-name="Grupo 1116468" transform="translate(61.812 126.159)">
              <g id="Grupo_1116467" data-name="Grupo 1116467" transform="translate(0 2.016)">
                <path id="Trazado_957896" data-name="Trazado 957896" d="M237.777,405.681l4.864-20.508H221.108l5.254,20.647h.067c.328.525,2.733.932,5.656.932s5.329-.408,5.656-.932h0v-.006a.228.228,0,0,0,.036-.116C237.782,405.692,237.778,405.687,237.777,405.681Z" transform="translate(-221.108 -385.173)" fill="#ff9a5c"/>
                <path id="Trazado_957897" data-name="Trazado 957897" d="M221.108,385.173l5.254,20.647h.067c.328.525,2.733.932,5.656.932.439,0,.865-.01,1.275-.028l-4.148-21.552h-8.1Z" transform="translate(-221.108 -385.173)" fill="#e87c3c"/>
              </g>
              <ellipse id="Elipse_13542" data-name="Elipse 13542" cx="10.767" cy="2.08" rx="10.767" ry="2.08" transform="translate(0)" fill="#753519"/>
            </g>
            <g id="Grupo_1116469" data-name="Grupo 1116469" transform="translate(24.33 6.421)">
              <circle id="Elipse_13543" data-name="Elipse 13543" cx="48.249" cy="48.249" r="48.249" transform="translate(0)" fill="#1a6652"/>
              <path id="Trazado_957898" data-name="Trazado 957898" d="M178.481,142.869a43.134,43.134,0,0,1-21.348-80.612,48.254,48.254,0,1,0,58.013,60.2A43.1,43.1,0,0,1,178.481,142.869Z" transform="translate(-120.526 -60.839)" fill="#19614f"/>
              <path id="Trazado_957899" data-name="Trazado 957899" d="M202.191,73.408a25.6,25.6,0,0,1-4.437-1.418,6.612,6.612,0,0,0-3.112-1.068c-.861.036-2.649-.433-3.709,0s-2.181,2.616-3.806,3.015-5.7-.462-6.843-1.191a2.611,2.611,0,0,1-1.135-2.914,6.137,6.137,0,0,0,.394-2.5c-.066-.476,1.656-1.41,2.252-2.036s1.16-2.664-.251-3.683a48.039,48.039,0,0,0-18.333,8.478,2.958,2.958,0,0,0,.438,1.136c.4.662-.24,1.059-.219,1.258s.375.176.065.552.006.309-.284.574a8.4,8.4,0,0,1-.754.662c-.2.132-.132.53-.53.994s-1.126.861-1.126,1.589-1.126,1.722-1.258,2.119-1.258,1.921-1.324,2.914a17.428,17.428,0,0,0,0,2.649,6.243,6.243,0,0,1-.05,1.987,15.465,15.465,0,0,0-.348,2.715,2.022,2.022,0,0,0,1.722,2.318c1.258.4,3.639,1.523,4.237,2.384s.929,1.92,1.392,2.053.861,1.523,2.384,2.583,4.371,1.194,5.629,2.55a24.655,24.655,0,0,1,4.172,6.487A6.683,6.683,0,0,0,180,111c1.059.889,2.384,1.883,3.377,1.949s1.4-.35,1.362-.705-1.3-1.414-1.494-1.679-.6-2.053-1.192-3.311-.662-1.31-.464-1.913.6-1.926,1.192-2.258,1.059-.09,1.457-.675a1.927,1.927,0,0,0,.5-1.279c-.037-.365-.633-.591-1.229-.644s-.795-.582-1.589-.715S180,99.3,179.74,98.838a1.251,1.251,0,0,0-1.258-.53,2.7,2.7,0,0,1-2.384-.53c-.795-.795-.861-2.318-.993-3.112a2.872,2.872,0,0,1-.066-1.656c.2-.6.2-1.064,1.126-1.492s2.45-.764,3.377,0,2.782.167,3.179-.3,1.523-1.854,2.45-1.921,2.45,0,3.046-.53,2.848-1.647,3.245-2.545,1.921-3.5,1.921-4.354,2.781-2.5,3.576-2.24,1.854-.993,2.252-.993,1.589.2,2.252-.6,1.192-1.329,1.722-2.088S204.112,74,202.191,73.408Z" transform="translate(-143.919 -60.433)" fill="#108f6e"/>
              <path id="Trazado_957900" data-name="Trazado 957900" d="M251.575,219.762a35.1,35.1,0,0,0-4.131-2.2c-1.9-.8-3.3-3.626-3.794-4.209s-.9-5.676,0-6.575a21.769,21.769,0,0,0,2.549-3.595c.746-1.2,1.045-2,.746-2.5a8.2,8.2,0,0,1,0-3.814,3.886,3.886,0,0,1,2.5-1.279c.7.1,2.9-.515,3.794-.008s4.294,2.3,5.791,2.4,3,1.4,4.194.7,2.957.1,3.975,1.6a12.55,12.55,0,0,0,3.914,4.007c1.7.986,1.55,1.884,2.522,2.084a14.271,14.271,0,0,1,4.322,1.6c1.177.805.791,1.8-.181,3s-2.18,3.1-2.974,4.294a3.319,3.319,0,0,0,0,3.495c.5.5.105,2.6-.594,3.2a11.778,11.778,0,0,0-2.8,2.7c-.6,1.1-.541,1.913-1.918,2.4s-4.472,1.889-6.369,2.339-3.495.555-4.793,1.651-1.481,4.069-2.7,4.58-4.886,2.8-6.284,2.655-1.4-.428-.6-1.436,2.817-2.784,3.955-4.4-.361-3.183.638-3.838,1.173-2.6,1.485-3.177S255.05,221.666,251.575,219.762Z" transform="translate(-197.432 -144.357)" fill="#108f6e"/>
              <path id="Trazado_957901" data-name="Trazado 957901" d="M330.48,107.735c.2.407,1.265.873,2.064,1.273s1.549-.215,1.873-1.273a1.774,1.774,0,0,1,2.454-.858,3.192,3.192,0,0,0,2.064.466c.526-.132,1.545-.523,1.571-.533a48.384,48.384,0,0,0-13.938-18.837,10.4,10.4,0,0,1-1.413,1.6,5,5,0,0,0-1.305,1.861,6.931,6.931,0,0,0-.625,3.329c.266.865.155,1.465,1.143,2.2s1.866.981,1.427,2.321-.106,2.772-.572,3.487a2.4,2.4,0,0,0,.572,3.045,4.436,4.436,0,0,0,2.823.8A4.436,4.436,0,0,1,330.48,107.735Z" transform="translate(-247.649 -76.972)" fill="#108f6e"/>
              <path id="Trazado_957902" data-name="Trazado 957902" d="M252.028,161.213a2.227,2.227,0,0,1-.666,1.514c-.666.6-1.331,1.664-.666,1.8a14.356,14.356,0,0,1,2.4.531c.333.2,2.064,1.133,2.53.8s.8-1.132,1.265-1.2.6-1.247,1-1.622,1.8-1.706,1.93-2.772a7.694,7.694,0,0,0,0-3.062c-.266-.4-2.13-.666-2.33-1.2a1.729,1.729,0,0,0-2.291-.4,3.667,3.667,0,0,0-1.437,2.6C253.625,159.066,251.961,159.7,252.028,161.213Z" transform="translate(-202.015 -119.243)" fill="#108f6e"/>
              <path id="Trazado_957903" data-name="Trazado 957903" d="M275.923,172.366a10.507,10.507,0,0,0-1.336,1.5c-.55.783.943.391,1.336.469s.471.646,1.257.441a4.435,4.435,0,0,0,.786-.2,5.977,5.977,0,0,1,1.65-.236c.707-.079.568-.592.952-1.043a.8.8,0,0,0,0-1.236c-.4-.393-.638.786-1.423,0s-.759-1.46-1.48-1.123-.533.456-.862.751S275.923,172.366,275.923,172.366Z" transform="translate(-217.1 -128.958)" fill="#108f6e"/>
            </g>
            <path id="Trazado_957904" data-name="Trazado 957904" d="M200.47,231.242c-13.542-.277-26.6,10-28.22,20.67-1.625-10.673-14.678-20.946-28.22-20.67a28.108,28.108,0,0,1-17.965-5.767,48.263,48.263,0,0,0,92.371,0A28.111,28.111,0,0,1,200.47,231.242Z" transform="translate(-99.67 -156.812)" fill="#19614f" opacity="0.13"/>
            <path id="Trazado_957905" data-name="Trazado 957905" d="M200.087,242.861c-13.542-.277-26.6,10-28.22,20.67-1.625-10.673-14.678-20.946-28.22-20.67a27.779,27.779,0,0,1-18.192-5.96c4,30.206,21.78,34.471,34.136,33.6a10.237,10.237,0,0,1,10.958,10.214v12.2h2.638v-12.2A10.237,10.237,0,0,1,184.144,270.5c12.355.874,30.135-3.39,34.136-33.6A27.776,27.776,0,0,1,200.087,242.861Z" transform="translate(-99.288 -163.98)" fill="#bce13e"/>
            <path id="Trazado_957906" data-name="Trazado 957906" d="M189.178,292.231c10.323.742,24.455-2.1,31.164-20.681a28.954,28.954,0,0,1-15.175,3.863c-13.542-.276-26.6,10-28.22,20.67-1.625-10.673-14.678-20.946-28.22-20.67a28.954,28.954,0,0,1-15.175-3.863c6.709,18.584,20.842,21.423,31.164,20.681a10.244,10.244,0,0,1,10.911,10.257v12.157h0a2.777,2.777,0,0,0,2.529.053l.109-.053V302.487A10.244,10.244,0,0,1,189.178,292.231Z" transform="translate(-104.368 -185.717)" fill="#91b31e"/>
            <g id="Grupo_1116471" data-name="Grupo 1116471" transform="translate(110.147 1.225)">
              <circle id="Elipse_13544" data-name="Elipse 13544" cx="12.619" cy="12.619" r="12.619" fill="#ffd200"/>
              <g id="Grupo_1116470" data-name="Grupo 1116470" transform="translate(5.022 3.837)">
                <path id="Trazado_957907" data-name="Trazado 957907" d="M380.413,87.059v.005C380.421,87.062,380.423,87.06,380.413,87.059Z" transform="translate(-374.404 -75.039)" fill="#1a6652"/>
                <path id="Trazado_957908" data-name="Trazado 957908" d="M370.28,75.816l-.012,0-.023,0-.019,0-.03,0-.03,0-.035,0-.035,0-.044,0-.044,0-.046,0-.054,0-.049,0-.061,0-.052,0-.07,0-.054,0-.073,0-.06,0-.079,0h-.354c-.1,0-.209,0-.315,0h-.031l-.127,0-.057,0-.1-.005-.061,0-.1-.007-.063-.005-.095-.008-.066-.007-.089-.01-.066-.008L367.8,75.8l-.064-.01-.083-.014-.063-.012-.078-.016-.06-.013-.074-.018-.057-.015-.069-.02-.054-.017-.064-.023-.049-.019-.058-.026-.044-.021c-.018-.009-.035-.02-.053-.03l-.038-.023c-.017-.011-.032-.023-.047-.034s-.021-.015-.031-.023a.509.509,0,0,1-.042-.042c-.007-.007-.015-.014-.021-.021a.448.448,0,0,1-.048-.069.434.434,0,0,1-.045-.131.69.69,0,0,1-.006-.09c-.038-.8,1.17-2.565,1.45-3.1l1.315.6-.887-3.49-3.631,1.07,1.22.663-1.38,2.429a3.167,3.167,0,0,0,2.686,4.783h.086l2.761.033.027-2.288h0Z" transform="translate(-364.287 -63.787)" fill="#1a6652"/>
                <path id="Trazado_957909" data-name="Trazado 957909" d="M376.391,60.048l0-.015,0-.011.008-.022.007-.019.012-.029.01-.026.014-.034.015-.036.015-.034.021-.047.016-.037.024-.053.019-.042.027-.059.02-.044.033-.07.019-.04.038-.079.02-.041.044-.088.018-.036.053-.1.013-.026c.069-.133.144-.273.223-.413l.009-.015.071-.123.021-.035.061-.1.028-.045.056-.091.031-.049.055-.085.034-.05.053-.078.036-.052.053-.073.038-.051.052-.068.038-.048.052-.064.039-.046.052-.058.039-.043.051-.052.039-.038.051-.046.039-.034.051-.04.038-.028c.017-.012.034-.022.052-.033l.037-.023c.018-.01.035-.018.053-.026l.034-.016a.494.494,0,0,1,.058-.018l.028-.008a.41.41,0,0,1,.084-.01.429.429,0,0,1,.137.022.78.78,0,0,1,.082.037c.726.342,1.717,2.236,2.055,2.732l-1.149.88,3.5.853.757-3.709-1.157.767-1.5-2.357a3.167,3.167,0,0,0-5.484.13l-.042.076h0l-1.323,2.424,2.009,1.1S376.39,60.049,376.391,60.048Z" transform="translate(-370.619 -54.804)" fill="#1a6652"/>
                <path id="Trazado_957910" data-name="Trazado 957910" d="M379.777,68.883l0,0C379.77,68.889,379.771,68.891,379.777,68.883Z" transform="translate(-374.001 -63.635)" fill="#1a6652"/>
                <path id="Trazado_957911" data-name="Trazado 957911" d="M391.676,76.691,390.289,74.2l-2,1.115h0a.546.546,0,0,1,.037.046l.005.007c.018.023.039.054.064.09l.009.013c.026.037.054.08.086.127l.014.021.1.16.016.024c.038.059.078.123.119.189l.015.025c.042.069.085.141.13.216l.011.019c.045.078.092.158.138.241l0,0c.046.083.092.168.136.253l.011.022c.043.082.085.166.125.249l.016.034c.039.082.076.163.111.244l.016.038q.051.12.1.237l.015.04q.042.116.075.227l.01.036c.021.074.038.145.051.214l.005.03a1.484,1.484,0,0,1,.022.2c0,.007,0,.014,0,.022a.85.85,0,0,1-.013.176l0,.011a.492.492,0,0,1-.056.15.425.425,0,0,1-.091.1.682.682,0,0,1-.076.051c-.678.43-2.806.26-3.405.281l-.132-1.441-2.587,2.5L386.1,82.8l-.032-1.388,2.793-.011a3.167,3.167,0,0,0,2.813-4.709Z" transform="translate(-376.257 -66.975)" fill="#1a6652"/>
                <path id="Trazado_957912" data-name="Trazado 957912" d="M396.561,77.191l0,0C396.559,77.182,396.557,77.182,396.561,77.191Z" transform="translate(-384.532 -68.844)" fill="#1a6652"/>
              </g>
            </g>
            <g id="Grupo_1116474" data-name="Grupo 1116474" transform="translate(7.704)">
              <g id="Grupo_1116473" data-name="Grupo 1116473">
                <g id="Grupo_1116472" data-name="Grupo 1116472">
                  <ellipse id="Elipse_13545" data-name="Elipse 13545" cx="12.619" cy="12.559" rx="12.619" ry="12.559" fill="#ffd200"/>
                </g>
              </g>
              <path id="Trazado_957913" data-name="Trazado 957913" d="M100.263,70.443H93.784v-4.6h-4.6V59.368h4.6v-4.6h6.479v4.6h4.6v6.479h-4.6v4.6ZM94.9,69.322h4.238v-4.6h4.6V60.488h-4.6v-4.6H94.9v4.6h-4.6v4.238h4.6v4.6Z" transform="translate(-84.24 -49.723)" fill="#1a6652"/>
            </g>
            <g id="Grupo_1116477" data-name="Grupo 1116477" transform="translate(0 77.176)">
              <g id="Grupo_1116475" data-name="Grupo 1116475">
                <ellipse id="Elipse_13546" data-name="Elipse 13546" cx="12.588" cy="12.528" rx="12.588" ry="12.528" fill="#ffd200"/>
              </g>
              <g id="Grupo_1116476" data-name="Grupo 1116476" transform="translate(7.009 4.08)">
                <rect id="Rectángulo_416115" data-name="Rectángulo 416115" width="4.905" height="0.669" transform="translate(2.64 14.781)" fill="#1a6652"/>
                <rect id="Rectángulo_416116" data-name="Rectángulo 416116" width="4.905" height="0.669" transform="translate(2.64 13.626)" fill="#1a6652"/>
                <path id="Trazado_957914" data-name="Trazado 957914" d="M81.245,302.03a1.043,1.043,0,0,0,1,.766h2.812a1.043,1.043,0,0,0,1-.766Z" transform="translate(-78.562 -286.095)" fill="#1a6652"/>
                <path id="Trazado_957915" data-name="Trazado 957915" d="M78.877,259.275a5.5,5.5,0,0,0-4.076,2.143,8.23,8.23,0,0,0,2.976,2.866,4.665,4.665,0,0,1,1.94,5.233s-.215-1.453-3.339-1.85a4.9,4.9,0,0,1-2.332-.825,5.5,5.5,0,0,0,1.023,1.622,4.228,4.228,0,0,1,1.153,2.835v.026a2.368,2.368,0,0,0,.262,1.083h5.307a2.367,2.367,0,0,0,.262-1.083v0a3.97,3.97,0,0,1,1.058-2.755,5.5,5.5,0,0,0-4.235-9.29Z" transform="translate(-74.046 -259.269)" fill="#1a6652"/>
              </g>
              <path id="Trazado_957916" data-name="Trazado 957916" d="M70.267,260.9a7.7,7.7,0,0,0,.854,2.462,6.4,6.4,0,0,0,1.595,1.93,8.75,8.75,0,0,0,1.042.723,11.874,11.874,0,0,1,1.114.772,7.721,7.721,0,0,1,1.017.917,4.3,4.3,0,0,1,.435.543,1.3,1.3,0,0,1,.261.645,1.625,1.625,0,0,0-.463-.457c-.173-.132-.357-.25-.538-.37l-.555-.347-.563-.337-1.131-.67a7.974,7.974,0,0,1-1.134-.818,5.777,5.777,0,0,1-1.6-2.293A5.418,5.418,0,0,1,70.267,260.9Z" transform="translate(-64.635 -256.212)" fill="#1a6652"/>
            </g>
            <g id="Grupo_1116482" data-name="Grupo 1116482" transform="translate(117.851 77.113)">
              <g id="Grupo_1116480" data-name="Grupo 1116480">
                <g id="Grupo_1116479" data-name="Grupo 1116479">
                  <g id="Grupo_1116478" data-name="Grupo 1116478">
                    <ellipse id="Elipse_13547" data-name="Elipse 13547" cx="12.619" cy="12.559" rx="12.619" ry="12.559" fill="#ffd200"/>
                  </g>
                </g>
              </g>
              <g id="Grupo_1116481" data-name="Grupo 1116481" transform="translate(4.608 5.749)">
                <path id="Trazado_957917" data-name="Trazado 957917" d="M391.859,279.433l-.328-.238a24.777,24.777,0,0,1-3.764-3.541c-2.5-2.886-3.851-5.875-3.913-8.641l-.007-.3,4.4-3.14h7.231l4.4,3.14-.006.3c-.062,2.766-1.415,5.754-3.913,8.641a24.773,24.773,0,0,1-3.764,3.541Zm-6.875-12.153c.3,5.2,5.5,9.666,6.875,10.756,1.371-1.091,6.574-5.558,6.875-10.756l-3.618-2.584H388.6Z" transform="translate(-383.848 -263.578)" fill="#1a6652"/>
                <path id="Trazado_957918" data-name="Trazado 957918" d="M396.088,280.415c-1.726-1.515-4.937-4.772-5.5-8.436l2.66-1.9h5.679l2.66,1.9C401.025,275.644,397.813,278.9,396.088,280.415Z" transform="translate(-388.076 -267.656)" fill="#1a6652"/>
              </g>
            </g>
          </g>
          <path id="Trazado_957919" data-name="Trazado 957919" d="M355.291,440.888a7.675,7.675,0,0,1,1.444,2.164,19.641,19.641,0,0,0,1.6,3.535c.452.443,1.3.087,1.448-.647a52.4,52.4,0,0,0,.547-7.8c-.189-1.5-.31-1.962-.511-2.044a37.194,37.194,0,0,0-3.917-.079C355.135,436.06,353.537,438.827,355.291,440.888Z" transform="translate(-236.526 -288.884)" fill="#91b31e"/>
          <g id="Grupo_1116485" data-name="Grupo 1116485" transform="translate(89.084 92.227)">
            <path id="Trazado_957920" data-name="Trazado 957920" d="M289.666,357.532s2.654,8.36,2.422,8.714c-.577.878-5.194,5.816-5.194,5.816l2.27,1.379s6.779-5.354,6.478-8.106l-3.243-8.562Z" transform="translate(-283.198 -331.407)" fill="#ff9a5c"/>
            <g id="Grupo_1116484" data-name="Grupo 1116484" transform="translate(0 35.458)">
              <path id="Trazado_957921" data-name="Trazado 957921" d="M295.522,390.81s-11.67-7.926-15.24-6.85-3.617,3.3-3.016,4.694,11.757,17.682,11.757,17.682l3.691-.562-4.556-8.274a1.04,1.04,0,0,1,1.466-1.117l1.142.535,6.281-2Z" transform="translate(-276.977 -383.859)" fill="#0e1a34"/>
            </g>
            <path id="Trazado_957922" data-name="Trazado 957922" d="M306.854,297a5.354,5.354,0,0,0-3.461-3.268,3.956,3.956,0,0,0-7.2-2.283,5.426,5.426,0,0,0-1.358.12,5.473,5.473,0,1,0-3.675,7.969c1.23,2.265,3.705,3.976,6.211,3.2,1.4,1.8,4.049,1.984,6.3,1.153A5.369,5.369,0,0,0,306.854,297Z" transform="translate(-281.731 -288.709)" fill="#753519"/>
            <path id="Trazado_957923" data-name="Trazado 957923" d="M308.884,391.685s1.243,7.044-3.039,9.392-13.919,5.825-13.919,5.825l17.211,1.086-.789,5.293s-25.016-.465-27.641-3.918,13.973-15.19,13.973-15.19Z" transform="translate(-279.141 -353.31)" fill="#0e1a34"/>
            <path id="Trazado_957924" data-name="Trazado 957924" d="M301.631,322.849s-4.4.2-5.658,3.97c-1.667,5,.067,10.964,5.422,16.443,1.206,1.234,2.688,6,2.657,7.728,0,0,12.528-.186,14.2-2.489C318.254,348.5,314.169,326.048,301.631,322.849Z" transform="translate(-288.511 -310.126)" fill="#91b31e"/>
            <path id="Trazado_957925" data-name="Trazado 957925" d="M294.414,329.437s-3.269,2.912-2.988,12.346c0,0,2.925-.409,3.2-1.79Z" transform="translate(-286.031 -314.259)" fill="#91b31e"/>
            <path id="Trazado_957926" data-name="Trazado 957926" d="M311.232,353.645l-4.788.645s2.487,4.581,2.671,5.226-10.957,11.233-10.957,11.233-1.068.9-1.243,1.065c0,0,0,0,0,0a2.881,2.881,0,0,0-.509.614,4.235,4.235,0,0,0-.612,1.441c-.087.437.153.612.35.612s.458-.349.458-.349a1.427,1.427,0,0,0,0,.633c.087.24.732-.153.9-.546,0,0,0,.853.187.874s.511-.219.577-.787a5.392,5.392,0,0,0,1.582-1.135l.238-.665c1.906-1.429,10.959-8.264,12.441-10.321C314.179,359.884,311.232,353.645,311.232,353.645Z" transform="translate(-288.77 -329.446)" fill="#ff9a5c"/>
            <path id="Trazado_957927" data-name="Trazado 957927" d="M290.148,305.013a6.933,6.933,0,0,1-.3-3.7c.444-1.806,2.984-2.406,4.86-.841a7.511,7.511,0,0,1,2.133,2.624.776.776,0,0,1,.925-.4c.93.155.646,2.349-.568,2.554a4.109,4.109,0,0,1-.4,1.519,3.563,3.563,0,0,1,.524,1.866c-.44,1.676-1.063,3.419-2.1,3.258s-.427-1.339-.359-1.882a.486.486,0,0,0-.368-.609C291.968,310.189,290.148,305.013,290.148,305.013Z" transform="translate(-284.96 -295.524)" fill="#ff9a5c"/>
            <path id="Trazado_957928" data-name="Trazado 957928" d="M290.691,297.964s3.832,3.269,5.254,2.47C295.945,300.434,293.5,294.466,290.691,297.964Z" transform="translate(-285.58 -293.825)" fill="#753519"/>
            <path id="Trazado_957929" data-name="Trazado 957929" d="M299.1,405.571s-8.4,4.727-9.358,5.828" transform="translate(-284.985 -362.022)" fill="none" stroke="#fff" stroke-miterlimit="10" stroke-width="0.96"/>
            <path id="Trazado_957930" data-name="Trazado 957930" d="M312.182,322.849a15.582,15.582,0,0,1,10.454,10.528,7.545,7.545,0,0,1-7.182,1.934S313.427,327.552,312.182,322.849Z" transform="translate(-299.063 -310.126)" fill="#91b31e"/>
            <path id="Trazado_957931" data-name="Trazado 957931" d="M287.239,298.383s-.752,4.981-2.349,5.309C284.889,303.692,282.822,297.584,287.239,298.383Z" transform="translate(-281.638 -294.732)" fill="#753519"/>
          </g>
          <g id="Grupo_1116491" data-name="Grupo 1116491" transform="translate(27.524 64.892)">
            <g id="Grupo_1116490" data-name="Grupo 1116490">
              <path id="Trazado_957932" data-name="Trazado 957932" d="M158.391,224.386c-3.5,3.831-9.038.234-6.483-4.284a2.664,2.664,0,0,1,.207-.345c3.159-4.034,2.3.419,5.675-3.084s11.388.587,7.824,5.134-6.268,1.533-6.268,1.533Z" transform="translate(-136.546 -215.355)" fill="#0e1a34"/>
              <g id="Grupo_1116488" data-name="Grupo 1116488" transform="translate(23.28 33.469)">
                <g id="Grupo_1116486" data-name="Grupo 1116486" transform="translate(6.955 10.863)">
                  <path id="Trazado_957933" data-name="Trazado 957933" d="M193.017,340.939l-.1-2.017,15.841-.3.067,1.369Z" transform="translate(-192.917 -337.015)" fill="#ffd200"/>
                  <path id="Trazado_957934" data-name="Trazado 957934" d="M231.915,337.183l-.054-1.093,2.786-1.771.215,4.353Z" transform="translate(-217.348 -334.318)" fill="#ffd200"/>
                  <path id="Trazado_957935" data-name="Trazado 957935" d="M239.011,338.674c-.2.01-.419-.956-.478-2.158s.058-2.184.263-2.195.419.956.478,2.158S239.216,338.663,239.011,338.674Z" transform="translate(-221.524 -334.32)" fill="#ec643b"/>
                </g>
                <g id="Grupo_1116487" data-name="Grupo 1116487">
                  <path id="Trazado_957936" data-name="Trazado 957936" d="M179.439,313.384a5.551,5.551,0,0,1,1.053-7.364,4.689,4.689,0,0,1,6.755,1.579l-.651.482c-1.364-2.138-3.932-2.8-5.726-1.468a4.738,4.738,0,0,0-.78,6.288Z" transform="translate(-176.924 -305.168)" fill="#ec643b"/>
                  <path id="Trazado_957937" data-name="Trazado 957937" d="M185.361,324.848a.225.225,0,0,0,.029-.024.254.254,0,0,0,.057-.116l7.372-12.013-7.163-6.488-11.227,8.521a.249.249,0,0,0-.11.068.2.2,0,0,0-.021.031l-.023.018.007.007c-.3.634,1.759,3.219,4.719,5.9s5.736,4.475,6.337,4.114l.007.007Z" transform="translate(-174.253 -305.82)" fill="#ffd200"/>
                  <path id="Trazado_957938" data-name="Trazado 957938" d="M211.869,312.674c-.305.337-2.158-.844-4.138-2.637s-3.337-3.52-3.032-3.857,2.158.844,4.138,2.637S212.174,312.336,211.869,312.674Z" transform="translate(-193.326 -305.766)" fill="#ec643b"/>
                  <path id="Trazado_957939" data-name="Trazado 957939" d="M185.392,339.584a.253.253,0,0,0,.057-.116l4.959-8.081a12.436,12.436,0,0,1-15.467-.977c-.24-.217-.465-.443-.684-.674-.041.8,1.95,3.244,4.747,5.777,2.96,2.681,5.736,4.475,6.337,4.114l.007.007.016-.025A.292.292,0,0,0,185.392,339.584Z" transform="translate(-174.255 -320.581)" fill="#fb0"/>
                </g>
                <path id="Trazado_957940" data-name="Trazado 957940" d="M197.837,314.458l1.857-1.476a.38.38,0,0,0,.019-.6h0a.565.565,0,0,0-.7-.023l-1.739,1.382a.456.456,0,0,0-.022.7h0A.456.456,0,0,0,197.837,314.458Z" transform="translate(-188.585 -309.611)" fill="#fff"/>
                <path id="Trazado_957941" data-name="Trazado 957941" d="M184.167,320.037l-4.818,3.83a.473.473,0,0,0-.135.592.456.456,0,0,0,.683.137l4.838-3.845a.456.456,0,0,0,.022-.695h0A.456.456,0,0,0,184.167,320.037Z" transform="translate(-177.331 -314.434)" fill="#fff"/>
              </g>
              <path id="Trazado_957942" data-name="Trazado 957942" d="M162.666,435.925a5.3,5.3,0,0,0,1.2,1.343,13.611,13.611,0,0,1,2.091,1.683c.218.38-.168.887-.685.857a36.29,36.29,0,0,1-5.319-.989c-.972-.388-1.26-.549-1.28-.7a25.756,25.756,0,0,1,.628-2.637C159.459,434.981,161.59,434.392,162.666,435.925Z" transform="translate(-141.197 -353.11)" fill="#91b31e"/>
              <path id="Trazado_957943" data-name="Trazado 957943" d="M116.177,421.744a5.308,5.308,0,0,0,.858,1.582,13.61,13.61,0,0,1,1.648,2.118c.125.42-.367.825-.863.677a36.292,36.292,0,0,1-4.95-2.183c-.857-.6-1.1-.823-1.086-.973A25.656,25.656,0,0,1,113,420.542C113.273,420.089,115.482,420.005,116.177,421.744Z" transform="translate(-111.783 -343.904)" fill="#91b31e"/>
              <path id="Trazado_957944" data-name="Trazado 957944" d="M137.787,326.761s-1.31,5.941.461,8.778,8.915,13.438,9.327,15.167-2.191,16.67-2.191,16.67l4.313.224s5.472-16.954,5.208-18.8c-.926-6.454-4.5-16.414-3.5-22.341Z" transform="translate(-127.804 -285.057)" fill="#0e1a34"/>
              <path id="Trazado_957945" data-name="Trazado 957945" d="M144.12,252.021a9.326,9.326,0,0,1,3.012.726c4.543,3.775,5.3,15.66,4.461,28.44l-14.886-1.116S138.464,257.035,144.12,252.021Z" transform="translate(-127.418 -238.357)" fill="#108f6e"/>
              <path id="Trazado_957946" data-name="Trazado 957946" d="M124.187,353.125a19.376,19.376,0,0,1-1.87,12c-3.156,5.739-8.29,13.45-8.29,13.45l3.682.757s10.4-11.571,12.547-16.819Z" transform="translate(-113.191 -301.784)" fill="#0e1a34"/>
              <g id="Grupo_1116489" data-name="Grupo 1116489" transform="translate(15.957 4.144)">
                <path id="Trazado_957947" data-name="Trazado 957947" d="M162.632,230.424a8.888,8.888,0,0,1-1.614,4.087c-1.187,1.3-2.188.584-2.527.737s-.5,1.13-.471,1.82a1.282,1.282,0,0,1-2.112.718c-1.07-.713-.677-4.259-.677-4.259a4.264,4.264,0,0,1-.272-2.755,3.217,3.217,0,0,1-.25-2.065c.338-.776.9-.594,1.2-.054,0,0,1.2-2.476,3.155-2.149S162.789,227.788,162.632,230.424Z" transform="translate(-154.603 -226.474)" fill="#ff9a5c"/>
              </g>
              <path id="Trazado_957948" data-name="Trazado 957948" d="M150.572,290.841s-10-.665-13.763-2.262-3.51-3.394-3.15-4.7,1.611-4.153,1.611-4.153l3.741,2.125-.006.785-.452,1.418s1.212.6,3.025,1.372,9.127,3.239,9.127,3.239S152.549,289.882,150.572,290.841Z" transform="translate(-125.387 -255.735)" fill="#ff9a5c"/>
              <path id="Trazado_957949" data-name="Trazado 957949" d="M179,305.1a6.341,6.341,0,0,0,1.988,1.133c.146.656.559.9.771.849s.112-1.045.112-1.045c.239.439,1.041.819,1.114.528a1.674,1.674,0,0,0-.078-.74s.349.376.579.352.489-.258.334-.758a4.971,4.971,0,0,0-.891-1.609c-.349-.376-.571-.766-1.25-.849a11.034,11.034,0,0,0-1.672.047,14.614,14.614,0,0,0-1.914.2Z" transform="translate(-153.379 -270.296)" fill="#ff9a5c"/>
              <path id="Trazado_957950" data-name="Trazado 957950" d="M180.718,302.582l-.043-.412a8.68,8.68,0,0,1,2.189-.67c.384.091.788.576,1.013.75S180.718,302.582,180.718,302.582Z" transform="translate(-155.002 -269.393)" fill="#ff9a5c"/>
              <path id="Trazado_957951" data-name="Trazado 957951" d="M142.836,251.527c-.87-.035-5.579,1-7.694,10.994l5.8,1.569s.825-6.385,2.045-12.428C143,251.591,142.915,251.53,142.836,251.527Z" transform="translate(-126.437 -238.047)" fill="#108f6e"/>
              <path id="Trazado_957952" data-name="Trazado 957952" d="M161.754,219.876A3.008,3.008,0,1,1,160,216,3.008,3.008,0,0,1,161.754,219.876Z" transform="translate(-139.478 -215.64)" fill="#0e1a34"/>
              <path id="Trazado_957953" data-name="Trazado 957953" d="M175.438,224.495a3.008,3.008,0,1,1-1.758-3.874A3.009,3.009,0,0,1,175.438,224.495Z" transform="translate(-148.063 -218.538)" fill="#0e1a34"/>
            </g>
            <path id="Trazado_957954" data-name="Trazado 957954" d="M145.162,353.523s4.388,9.779,5.372,10.857" transform="translate(-132.723 -302.034)" fill="none" stroke="#fff" stroke-miterlimit="10" stroke-width="0.96"/>
            <path id="Trazado_957955" data-name="Trazado 957955" d="M246.226,345.192c.631.86.458,1.356.028,1.671s-.955.332-1.586-.528a5.83,5.83,0,0,1-.7-2.588A5.829,5.829,0,0,1,246.226,345.192Z" transform="translate(-194.709 -295.901)" fill="#108f6e"/>
            <path id="Trazado_957956" data-name="Trazado 957956" d="M244.722,359.265c.109.806-.188,1.075-.591,1.129s-.76-.126-.869-.932a4.443,4.443,0,0,1,.476-1.988A4.442,4.442,0,0,1,244.722,359.265Z" transform="translate(-194.257 -304.513)" fill="#108f6e"/>
            <path id="Trazado_957957" data-name="Trazado 957957" d="M249.209,377.212c.108.806-.188,1.075-.591,1.129s-.76-.126-.869-.932a4.448,4.448,0,0,1,.475-1.988A4.444,4.444,0,0,1,249.209,377.212Z" transform="translate(-197.072 -315.771)" fill="#108f6e"/>
            <path id="Trazado_957958" data-name="Trazado 957958" d="M254.731,363.615c.168,1.25-.291,1.666-.916,1.75s-1.179-.2-1.347-1.445a6.89,6.89,0,0,1,.737-3.082A6.889,6.889,0,0,1,254.731,363.615Z" transform="translate(-200.028 -306.623)" fill="#108f6e"/>
          </g>
          <path id="Trazado_957959" data-name="Trazado 957959" d="M230.067,400.508h.011a.533.533,0,0,0,.456-.645l-.834-3.722a.538.538,0,1,0-1.051.235l.834,3.721A.532.532,0,0,0,230.067,400.508Z" transform="translate(-157.566 -263.614)" fill="#fff"/>
          <path id="Trazado_957960" data-name="Trazado 957960" d="M233.118,413.6h-.011a.533.533,0,0,0-.456.646l1.711,7.632a.538.538,0,0,0,1.051-.236l-1.71-7.631A.533.533,0,0,0,233.118,413.6Z" transform="translate(-160.077 -274.827)" fill="#fff"/>
        </g>
      </g>
    </g>
  </g>
</svg>
