<svg xmlns="http://www.w3.org/2000/svg" width="297" height="149" viewBox="0 0 297 149">
  <g id="Grupo_1116816" data-name="Grupo 1116816" transform="translate(4733 4465)">
    <rect id="Rectángulo_416009" data-name="Rectángulo 416009" width="297" height="149" transform="translate(-4733 -4465)" fill="#8bc34a"/>
    <g id="_4700074_2374252" data-name="4700074_2374252" transform="translate(-4710.281 -4505.392)">
      <g id="BACKGROUND" transform="translate(61.525 45.002)">
        <g id="Grupo_1116750" data-name="Grupo 1116750">
          <g id="Grupo_1116742" data-name="Grupo 1116742">
            <path id="Trazado_958543" data-name="Trazado 958543" d="M183.438,94.906c3.039-6.462,1.325-15.073-4.1-19.612-3.695-3.093-8.742-4.41-11.728-8.24-2.739-3.514-3.135-8.374-5.054-12.432a16.9,16.9,0,0,0-14.436-9.614c-5.656-.154-10.939,2.661-16.413,4.141C117.471,53,96.026,47.715,90.041,66.172c-1.416,4.367-2.233,9.037-4.653,12.9-2.751,4.391-7.238,7.214-11.512,10S65.215,94.944,62.885,99.59s-1.772,11.277,2.512,14.044c3.933,2.54,9.777,1.265,12.85,4.861,2.995,3.5,1.221,8.927,1.509,13.6a16.793,16.793,0,0,0,8.607,13.125,24.012,24.012,0,0,0,15.516,2.363c8.175-1.271,16.05-5.634,24.255-4.59,9.747,1.241,17.558,9.87,27.33,10.868a18.943,18.943,0,0,0,16.635-7.295,20.612,20.612,0,0,0,3.157-18.458c-1.573-4.894-5.038-9.407-4.592-14.545.633-7.294,8.492-11.245,12.163-17.5Q183.159,95.5,183.438,94.906Z" transform="translate(-61.525 -45.002)" fill="#b1e9f9"/>
          </g>
          <g id="Grupo_1116745" data-name="Grupo 1116745" transform="translate(114.094 56.852)">
            <g id="Grupo_1116743" data-name="Grupo 1116743" transform="translate(0 7.231)">
              <path id="Trazado_958544" data-name="Trazado 958544" d="M399.1,233.088a3.83,3.83,0,0,0-2.467,2.031,4.281,4.281,0,0,0-.054,3.709,4.556,4.556,0,0,0,5.445,2.444,4.228,4.228,0,0,0,2.233-5.076A4.356,4.356,0,0,0,399.1,233.088Z" transform="translate(-396.185 -232.97)" fill="#b1e9f9"/>
            </g>
            <g id="Grupo_1116744" data-name="Grupo 1116744" transform="translate(9.312 0)">
              <path id="Trazado_958545" data-name="Trazado 958545" d="M425.6,211.8a2.4,2.4,0,0,0-2.1,2.573,2.553,2.553,0,0,0,5.1-.238A2.432,2.432,0,0,0,425.6,211.8Z" transform="translate(-423.499 -211.76)" fill="#b1e9f9"/>
            </g>
          </g>
          <g id="Grupo_1116749" data-name="Grupo 1116749" transform="translate(2.748 19.85)">
            <g id="Grupo_1116746" data-name="Grupo 1116746" transform="translate(0 10.238)">
              <path id="Trazado_958546" data-name="Trazado 958546" d="M74.67,133.4a3.828,3.828,0,0,0-3.154.517,4.28,4.28,0,0,0-1.91,3.18,4.556,4.556,0,0,0,3.48,4.849,4.228,4.228,0,0,0,4.481-3.267A4.355,4.355,0,0,0,74.67,133.4Z" transform="translate(-69.586 -133.256)" fill="#b1e9f9"/>
            </g>
            <g id="Grupo_1116747" data-name="Grupo 1116747" transform="translate(13.19 8.352)">
              <path id="Trazado_958547" data-name="Trazado 958547" d="M111.669,127.818a2.557,2.557,0,0,0-2.106.345,2.859,2.859,0,0,0-1.275,2.124,3.043,3.043,0,0,0,2.324,3.238,2.824,2.824,0,0,0,2.993-2.182A2.909,2.909,0,0,0,111.669,127.818Z" transform="translate(-108.273 -127.724)" fill="#b1e9f9"/>
            </g>
            <g id="Grupo_1116748" data-name="Grupo 1116748" transform="translate(6.274)">
              <path id="Trazado_958548" data-name="Trazado 958548" d="M90.418,103.356a1.738,1.738,0,0,0-2.245.847,1.845,1.845,0,0,0,3.274,1.7A1.758,1.758,0,0,0,90.418,103.356Z" transform="translate(-87.988 -103.228)" fill="#b1e9f9"/>
            </g>
          </g>
        </g>
      </g>
      <g id="OBJECTS" transform="translate(81.996 56.134)">
        <g id="Grupo_1116773" data-name="Grupo 1116773" transform="translate(19.301 0)">
          <ellipse id="Elipse_13577" data-name="Elipse 13577" cx="24.484" cy="3.614" rx="24.484" ry="3.614" transform="translate(0 121.418)" fill="#f2f2f2"/>
          <g id="Grupo_1116772" data-name="Grupo 1116772" transform="translate(6.906)">
            <g id="Grupo_1116751" data-name="Grupo 1116751" transform="translate(18.16 9.411)">
              <path id="Trazado_958549" data-name="Trazado 958549" d="M257.692,108.216c-.319-.745-1.183-2.741-1.829-2.955l-1.935.6c-2,.412-2.3,2.734-2.2,4.475.1,1.721,1.284,4.636,3.406,4.4a3.848,3.848,0,0,0,3.169-3.124A6.051,6.051,0,0,0,257.692,108.216Z" transform="translate(-251.708 -105.261)" fill="#002039"/>
            </g>
            <g id="Grupo_1116752" data-name="Grupo 1116752" transform="translate(2.32 7.042)">
              <path id="Trazado_958550" data-name="Trazado 958550" d="M224.665,109.671a15.658,15.658,0,0,0-.465-3.764,10.784,10.784,0,0,0-4.073-6.207c-3.26-2.276-8.746-1.785-11.072,1.712a6.275,6.275,0,0,0-.937,4.547c.478,2.625,2.629,4.935,2.284,7.581a7.623,7.623,0,0,1-1.4,3.131,12.288,12.288,0,0,0-1.673,3.014,3.457,3.457,0,0,0,.476,3.276c.69.791,1.882,1.161,2.254,2.142a3.2,3.2,0,0,1-.674,2.682q-1.964,3.179-4.142,6.218a20.839,20.839,0,0,0,8.51-5.653l.644,2.3a14.417,14.417,0,0,0,4.367-4.069,29.613,29.613,0,0,0,5.6-13.151A22.859,22.859,0,0,0,224.665,109.671Z" transform="translate(-205.245 -98.311)" fill="#002039"/>
            </g>
            <path id="Trazado_958551" data-name="Trazado 958551" d="M220.389,437.174l.177,0a1.848,1.848,0,0,1,1.379.634c.791.91,2.886.9,4.048.643.063-.011.12-.029.183-.047a.624.624,0,0,0,.2-1.1L222.286,434a1.043,1.043,0,0,1,.023-.206l-2.394.053c-.08.279-.139.468-.139.468C219.467,435.643,219.031,437.167,220.389,437.174Z" transform="translate(-212.291 -312.38)" fill="#002039"/>
            <path id="Trazado_958552" data-name="Trazado 958552" d="M263.605,437.174l.177,0a1.848,1.848,0,0,1,1.379.634c.791.91,2.886.9,4.048.643.062-.011.12-.029.183-.047a.624.624,0,0,0,.2-1.1L265.5,434a1.044,1.044,0,0,1,.023-.206l-2.394.053c-.081.279-.139.468-.139.468C262.683,435.643,262.247,437.167,263.605,437.174Z" transform="translate(-240.773 -312.38)" fill="#002039"/>
            <path id="Trazado_958553" data-name="Trazado 958553" d="M299.116,79.942a.387.387,0,0,1-.551,0l-.16-.16-4.052,4.055a5.02,5.02,0,0,1,1.322,3.137q.01.142.01.283a5.076,5.076,0,0,1-10.11.655,4.841,4.841,0,0,1-.042-.655,5.078,5.078,0,0,1,5.078-5.078,5.026,5.026,0,0,1,2.254.534L297.1,78.48l-.156-.16a.389.389,0,1,1,.551-.551l1.622,1.622A.387.387,0,0,1,299.116,79.942Z" transform="translate(-255.841 -77.655)" fill="#fff" opacity="0.8"/>
            <path id="Trazado_958554" data-name="Trazado 958554" d="M249.955,139.719c-.345,4.1-2.221,3.951-5.6-.352a1.836,1.836,0,0,0,.358-.743,1.167,1.167,0,0,0,.039-.153v-.01c.029-.192.042-.378.052-.547.013-.283-.042-1.081-.124-1.922a12.8,12.8,0,0,0-.394-2.466l4.377,1.788.153,1.69c.033.31.055.625.065.948.01.081.013.163.016.244s.013.176.016.264c.006.121.01.244.013.368a.881.881,0,0,0,.362.7.806.806,0,0,0,.417.156Z" transform="translate(-228.659 -114.479)" fill="#ffac92"/>
            <path id="Trazado_958555" data-name="Trazado 958555" d="M248.918,138.463l-.491-.286a9.275,9.275,0,0,1-4.113-4.594.484.484,0,0,0-.024-.055l4.377,1.788.153,1.69c.033.31.055.625.065.948.01.081.013.163.016.244S248.915,138.375,248.918,138.463Z" transform="translate(-228.659 -114.48)" fill="#e05731"/>
            <path id="Trazado_958556" data-name="Trazado 958556" d="M218.158,315.424c.29,4.191.58,8.607.7,10.809l2.461-.2,5.18-30.827,2.125-17.963.877.1,1.5,17.5,2.685,31.244,2.4-.1c.39-2.785,1.159-9.148,1.777-14.343a58.8,58.8,0,0,0,.417-6.992,59.474,59.474,0,0,0-.622-8.564,13.391,13.391,0,0,1-.019-3.79l1.99-21.614c.035-.278.058-.56.07-.854H218.043c0,.286.012.572.031.854,0,.043,0,.081.008.124l1.476,22.63a15.366,15.366,0,0,1-.243,4.164A67.011,67.011,0,0,0,218.158,315.424Z" transform="translate(-211.331 -204.317)" fill="#004d6c"/>
            <g id="Grupo_1116764" data-name="Grupo 1116764" transform="translate(12.466 7.824)">
              <g id="Grupo_1116762" data-name="Grupo 1116762">
                <g id="Grupo_1116761" data-name="Grupo 1116761">
                  <path id="Trazado_958557" data-name="Trazado 958557" d="M236.5,113.478c-.512-.852-.659-2.149.086-2.467a1.366,1.366,0,0,1,.815-.028c-.284-2.808.7-6.362,2.563-7.156,2.437-1.038,5.013-.514,7.521,5.855.992,2.52.137,5.8-2.183,7.036-1.744.93-4.554-.353-6.257-2.119A2.509,2.509,0,0,1,236.5,113.478Z" transform="translate(-235.705 -102.453)" fill="#ffac92"/>
                  <path id="Trazado_958558" data-name="Trazado 958558" d="M248.366,117.166v-1.213a.163.163,0,1,0-.326,0v.661c-.013-.014-.023-.03-.037-.044a1.26,1.26,0,0,0-.965-.368,1.387,1.387,0,0,0-1.225,1.524h0a1.557,1.557,0,0,0,.074.369.924.924,0,0,0-.246-.026.987.987,0,0,0-.664.264,1.483,1.483,0,0,0-.413-.779,1.244,1.244,0,0,0-1.874.12,1.506,1.506,0,0,0-.315,1.036,1.574,1.574,0,0,0,.031.2l-4.29.2.015.32,4.369-.209a1.457,1.457,0,0,0,.32.47,1.263,1.263,0,0,0,.885.37l.079,0a1.307,1.307,0,0,0,1.11-.847.135.135,0,0,0,.021-.049,1.51,1.51,0,0,0,.087-.383.731.731,0,0,1,.647-.4.713.713,0,0,1,.459.147,1.3,1.3,0,0,0,1.037.55l.078,0a1.387,1.387,0,0,0,1.225-1.524A1.542,1.542,0,0,0,248.366,117.166Zm-4.6,2.577a.939.939,0,0,1-.717-.276,1.181,1.181,0,0,1-.347-.775h0a1.181,1.181,0,0,1,.245-.813.936.936,0,0,1,.676-.365l.058,0a.942.942,0,0,1,.659.278,1.179,1.179,0,0,1,.347.775A1.062,1.062,0,0,1,243.764,119.743Zm3.439-.986a1.124,1.124,0,0,1-.143-2.229.933.933,0,0,1,.717.276,1.181,1.181,0,0,1,.347.775A1.062,1.062,0,0,1,247.2,118.757Z" transform="translate(-237.056 -110.613)" fill="#002039"/>
                  <g id="Grupo_1116753" data-name="Grupo 1116753">
                    <path id="Trazado_958559" data-name="Trazado 958559" d="M245.6,102.562a1.18,1.18,0,0,0-.516-.729,6.1,6.1,0,0,0-3.711-1.229,6.827,6.827,0,0,0-3.7,1.116,5.8,5.8,0,0,0-2.439,3.251c-.506,1.82-.489,6.224,3.48,8a7.318,7.318,0,0,1-.055-1.585,11.48,11.48,0,0,1,.566-3.272,5.908,5.908,0,0,1,.916-1.779c.232-.287.485-.552.737-.82s.51-.541.766-.811c.118-.125.412-.512.583-.5a6.43,6.43,0,0,1-.346.731,3.381,3.381,0,0,0-.394,1.149c0,.02,4.4-1.254,4.119-3.467Z" transform="translate(-235.006 -100.604)" fill="#002039"/>
                  </g>
                  <g id="Grupo_1116760" data-name="Grupo 1116760" transform="translate(4.701 5.112)">
                    <g id="Grupo_1116755" data-name="Grupo 1116755" transform="translate(2.19 4.845)">
                      <g id="Grupo_1116754" data-name="Grupo 1116754">
                        <path id="Trazado_958560" data-name="Trazado 958560" d="M258.33,131.094a2.328,2.328,0,0,0,.253-.095.165.165,0,0,0,.079-.219.16.16,0,0,0-.219-.079,2.276,2.276,0,0,1-2.919-.812.163.163,0,0,0-.227-.051.165.165,0,0,0-.051.227A2.542,2.542,0,0,0,258.33,131.094Z" transform="translate(-255.22 -129.812)" fill="#002039"/>
                      </g>
                    </g>
                    <path id="Trazado_958561" data-name="Trazado 958561" d="M253.43,123.362a.484.484,0,1,0,.33-.636A.507.507,0,0,0,253.43,123.362Z" transform="translate(-251.838 -120.287)" fill="#002039"/>
                    <path id="Trazado_958562" data-name="Trazado 958562" d="M262.783,120.671a.484.484,0,1,0,.329-.635A.507.507,0,0,0,262.783,120.671Z" transform="translate(-258.002 -118.513)" fill="#002039"/>
                    <g id="Grupo_1116757" data-name="Grupo 1116757" transform="translate(0 1.072)">
                      <g id="Grupo_1116756" data-name="Grupo 1116756">
                        <path id="Trazado_958563" data-name="Trazado 958563" d="M249,120.08a.165.165,0,0,0,.126-.125,1.033,1.033,0,0,1,1.187-.87.164.164,0,1,0,.054-.324,1.354,1.354,0,0,0-1.562,1.123.165.165,0,0,0,.2.2Z" transform="translate(-248.796 -118.745)" fill="#002039"/>
                      </g>
                    </g>
                    <g id="Grupo_1116759" data-name="Grupo 1116759" transform="translate(4.216)">
                      <g id="Grupo_1116758" data-name="Grupo 1116758">
                        <path id="Trazado_958564" data-name="Trazado 958564" d="M261.234,116.1a.138.138,0,0,0,.149-.01.867.867,0,0,1,1.232.1.138.138,0,1,0,.212-.176,1.137,1.137,0,0,0-1.609-.145.138.138,0,0,0-.028.193A.13.13,0,0,0,261.234,116.1Z" transform="translate(-261.163 -115.599)" fill="#002039"/>
                      </g>
                    </g>
                  </g>
                </g>
              </g>
              <g id="Grupo_1116763" data-name="Grupo 1116763" transform="translate(9.171 8.349)">
                <path id="Trazado_958565" data-name="Trazado 958565" d="M262.177,126.621a.151.151,0,0,1-.055-.3s.285-.059.33-.226c.021-.077.014-.3-.492-.741a.151.151,0,0,1,.2-.228c.474.411.666.755.586,1.049-.1.352-.547.439-.566.443Z" transform="translate(-261.907 -125.092)" fill="#002039"/>
              </g>
            </g>
            <path id="Trazado_958566" data-name="Trazado 958566" d="M239.78,191.291H218.123c0-6.615,4.7-13.878,4.7-13.878l.078-.124a4.519,4.519,0,0,0,.479-.935,4.885,4.885,0,0,0,.319-1.958,5.447,5.447,0,0,0-.094-.755c-.58-2.82-1.609-7.732-1.912-8.478a9.3,9.3,0,0,1-.479-1.541l-.01-.042a7.551,7.551,0,0,1-.078-2.749c.182-1.124.518-2.218.723-3.342a22.477,22.477,0,0,0-.013-4.322s4.1-1.892,5.075-2.394a1.031,1.031,0,0,0,.2-.114c3.374,4.3,5.251,4.449,5.6.352l.335.046.26.013,1.528.055c.287.013.57.026.857.036,1.589.088,1.228,2.71,1.371,3.739.391,2.85,1.651,5.622,1.137,8.537-.391,2.2-2.742,9.107-3.534,11.416-.085.228-.147.41-.189.537a1.257,1.257,0,0,0-.081.5,1.471,1.471,0,0,0,.283.814c.042.062.091.127.143.2C236.252,178.94,239.962,186.132,239.78,191.291Z" transform="translate(-211.413 -125.77)" fill="#e05731"/>
            <path id="Trazado_958567" data-name="Trazado 958567" d="M224.478,173.228,221.53,191.51l-5.078,31.519-3.221-2.01A8.428,8.428,0,0,1,211,218.994a8.535,8.535,0,0,1-1.782-5.381c.16-9.152,2.071-28.249,8.175-40.291l-2.049-9.481-.01-.042a7.552,7.552,0,0,1-.078-2.749c.182-1.124.518-2.218.723-3.342a8.483,8.483,0,0,0,.1-1.267c.033-1.449-.124-3.185-.124-3.185l5.081-2.264,1.694,4.544A34.82,34.82,0,0,1,224.478,173.228Z" transform="translate(-205.541 -125.99)" fill="#fff"/>
            <path id="Trazado_958568" data-name="Trazado 958568" d="M218.994,187.61c-2.111,4.807-5.384,16.009-8,41.685a8.534,8.534,0,0,1-1.782-5.381c.16-9.152,2.071-28.249,8.175-40.291l-2.049-9.481-.01-.042a7.551,7.551,0,0,1-.078-2.749c.182-1.124.518-2.218.723-3.342a8.481,8.481,0,0,0,.1-1.267c1.029,3.6,2.436,8.413,3.508,12.061A12.883,12.883,0,0,1,218.994,187.61Z" transform="translate(-205.541 -136.37)" fill="#d2f3fb"/>
            <g id="Grupo_1116765" data-name="Grupo 1116765" transform="translate(23.482 1.127)">
              <path id="Trazado_958569" data-name="Trazado 958569" d="M309.258,82.612s.231-2.052-1.306-1.583c0,0-1.446.7-1.446,1.583,0,0-1.4.7-1.166,1.446l-.788-.13a.345.345,0,0,0-.231.639,3.379,3.379,0,0,0,.365.192,5.708,5.708,0,0,1,3.5,5.179l-.029.176,2.5-.459V88.071S310.284,83.638,309.258,82.612ZM307.4,82.8c1.039-1.681,1.111.186,1.111.186Z" transform="translate(-291.592 -80.96)" fill="#ffac92"/>
              <path id="Trazado_958570" data-name="Trazado 958570" d="M286.38,106.462v14.589a2.59,2.59,0,0,1-.042.479,2.849,2.849,0,0,1-1.8,2.192l-2.407.912-12.54,4.759L268.7,126.5l-1.384-4.5,14.354-1.726,1.456-13.211.752-.14Z" transform="translate(-267.316 -97.768)" fill="#fff"/>
              <path id="Trazado_958571" data-name="Trazado 958571" d="M284.8,159.762l-12.54,4.759-.889-2.892Z" transform="translate(-269.991 -132.896)" fill="#d2f3fb"/>
            </g>
            <path id="Trazado_958572" data-name="Trazado 958572" d="M263.961,151.6c-.048.206,1.552,5.409,2.6,8.84a12.274,12.274,0,0,1,.224,6.321l-2.22,9.7.541,46.619,4.232-3.138a6.026,6.026,0,0,0,2.569-5.023c-.112-7.959-.87-28.626-5.632-38.122l3.009-9.876a10.182,10.182,0,0,0-.24-6.631l-3.138-8.636Z" transform="translate(-241.622 -126.391)" fill="#fff"/>
            <path id="Trazado_958573" data-name="Trazado 958573" d="M244.252,223.944v0a.039.039,0,0,0-.019,0Z" transform="translate(-228.621 -174.071)" fill="#b4e7fc"/>
            <g id="Grupo_1116766" data-name="Grupo 1116766" transform="translate(15.121 43.358)">
              <path id="Trazado_958574" data-name="Trazado 958574" d="M252.6,217.162l-3.138-5.767.9-5.451.221.036a.39.39,0,1,0,.127-.77l-2.263-.373a.39.39,0,1,0-.127.77l.221.036-.91,5.528-4.569,4.63a.921.921,0,0,0,.525,1.558l8.078,1.154A.921.921,0,0,0,252.6,217.162Z" transform="translate(-242.792 -204.833)" fill="#fff" opacity="0.8"/>
              <path id="Trazado_958575" data-name="Trazado 958575" d="M249.231,211.352s.163.307.692.144h0a.529.529,0,0,1,.8.538l-.626,3.717,2.945,5.751a.706.706,0,0,1-.073.758h0a.7.7,0,0,1-.65.263l-7.614-1.044a.705.705,0,0,1-.555-.428l-.1-.241a.706.706,0,0,1,.148-.764l4.423-4.512Z" transform="translate(-243.585 -209.129)" fill="#00d4c9"/>
              <circle id="Elipse_13578" data-name="Elipse 13578" cx="0.785" cy="0.785" r="0.785" transform="translate(2.421 10.102)" fill="#50e1da"/>
              <circle id="Elipse_13579" data-name="Elipse 13579" cx="0.785" cy="0.785" r="0.785" transform="translate(7.309 11.405)" fill="#50e1da"/>
              <path id="Trazado_958576" data-name="Trazado 958576" d="M254.372,229.32a.363.363,0,1,1-.363-.363A.363.363,0,0,1,254.372,229.32Z" transform="translate(-249.946 -220.732)" fill="#50e1da"/>
              <path id="Trazado_958577" data-name="Trazado 958577" d="M259.178,231.671a.163.163,0,1,1-.23,0A.163.163,0,0,1,259.178,231.671Z" transform="translate(-253.408 -222.489)" fill="#50e1da"/>
              <path id="Trazado_958578" data-name="Trazado 958578" d="M258.613,224.481a.163.163,0,1,1-.23,0A.163.163,0,0,1,258.613,224.481Z" transform="translate(-253.036 -217.751)" fill="#50e1da"/>
              <circle id="Elipse_13580" data-name="Elipse 13580" cx="0.163" cy="0.163" r="0.163" transform="translate(1.289 11.164)" fill="#50e1da"/>
              <circle id="Elipse_13581" data-name="Elipse 13581" cx="0.163" cy="0.163" r="0.163" transform="translate(5.87 2.998)" fill="#50e1da"/>
              <path id="Trazado_958579" data-name="Trazado 958579" d="M265.857,235.1a.163.163,0,1,1-.23,0A.163.163,0,0,1,265.857,235.1Z" transform="translate(-257.81 -224.749)" fill="#50e1da"/>
              <path id="Trazado_958580" data-name="Trazado 958580" d="M257.482,238.4a.346.346,0,1,1-.346-.346A.346.346,0,0,1,257.482,238.4Z" transform="translate(-252.018 -226.73)" fill="#50e1da"/>
              <path id="Trazado_958581" data-name="Trazado 958581" d="M260.8,216.149a.363.363,0,1,1-.363-.363A.363.363,0,0,1,260.8,216.149Z" transform="translate(-254.181 -212.052)" fill="#50e1da"/>
              <path id="Trazado_958582" data-name="Trazado 958582" d="M259.672,227.375a.363.363,0,1,1-.363-.363A.363.363,0,0,1,259.672,227.375Z" transform="translate(-253.439 -219.45)" fill="#50e1da"/>
              <path id="Trazado_958583" data-name="Trazado 958583" d="M262.161,234.829a.363.363,0,1,1-.363-.363A.363.363,0,0,1,262.161,234.829Z" transform="translate(-255.079 -224.363)" fill="#50e1da"/>
              <path id="Trazado_958584" data-name="Trazado 958584" d="M259.558,219.625a.485.485,0,1,1-.486-.485A.485.485,0,0,1,259.558,219.625Z" transform="translate(-253.202 -214.262)" fill="#50e1da"/>
            </g>
            <g id="Grupo_1116768" data-name="Grupo 1116768" transform="translate(0 27.266)">
              <path id="Trazado_958585" data-name="Trazado 958585" d="M214.071,180.243l-.362,2.677-.15,1.111s-12.807-.645-14.286-3.055a2.316,2.316,0,0,1-.586-.993c-2.13-7.442,10.169-22.35,10.169-22.35,1.215.652,1.726,2.83,1.932,4.759.055.514.088,1.01.107,1.456a5.323,5.323,0,0,1-.971,3.312c-2.352,3.335-5.821,9.032-6.589,10.3a.037.037,0,0,1-.006.013c-.094.16-.147.244-.147.244a2.362,2.362,0,0,0,.459.274s0,0,.013.006h.006c.15.055,1.257.446,2.769.893a53.507,53.507,0,0,0,7.622,1.352A.04.04,0,0,1,214.071,180.243Z" transform="translate(-198.44 -157.632)" fill="#fff"/>
              <path id="Trazado_958586" data-name="Trazado 958586" d="M219.391,176.358c-2.352,3.335-5.821,9.032-6.589,10.3.2-.407,5.342-10.924,7.452-15.067.055.514.088,1.01.107,1.456A5.325,5.325,0,0,1,219.391,176.358Z" transform="translate(-207.906 -166.831)" fill="#d2f3fb"/>
              <g id="Grupo_1116767" data-name="Grupo 1116767" transform="translate(15.271 18.315)">
                <path id="Trazado_958587" data-name="Trazado 958587" d="M253.856,212.851a1.162,1.162,0,0,1-.746.013,14.273,14.273,0,0,1-1.667-.436l-.355.156a3.008,3.008,0,0,1,.463,2.306.127.127,0,0,1-.238.026,2.283,2.283,0,0,0-.111-.2.012.012,0,0,1,0-.01,3.787,3.787,0,0,0-.215-.323.053.053,0,0,1,0,.023v0a2.974,2.974,0,0,1-.085,1.078.14.14,0,0,1-.254.042,3.218,3.218,0,0,0-.222-.313s0-.006,0-.006c-.085-.1-.143-.166-.143-.166l.019.069v0a1.974,1.974,0,0,1,.078.453.226.226,0,0,1-.41.147c-.707-.968-1.388-1-1.755-.925a.674.674,0,0,0-.4.264l-1.883,2.488a1.191,1.191,0,0,1-.69.443c-.677.143-1.348.257-2.006.342l.362-2.677a8.77,8.77,0,0,0,.971.023.816.816,0,0,0,.625-.348l2.094-3.029a.949.949,0,0,1,.837-.41l1.466.085,1.857-.616Z" transform="translate(-243.232 -211.353)" fill="#ffac92"/>
                <path id="Trazado_958588" data-name="Trazado 958588" d="M260.088,219.42l.019.069a2.243,2.243,0,0,0-1.993-1.339s1.355-.853,2.117,1.436C260.147,219.486,260.088,219.42,260.088,219.42Z" transform="translate(-253.04 -215.73)" fill="#e05731"/>
                <path id="Trazado_958589" data-name="Trazado 958589" d="M262.215,217.55a.053.053,0,0,1,0,.023,2.187,2.187,0,0,0-1.945-1.257s1.4-.883,2.156,1.557A3.86,3.86,0,0,0,262.215,217.55Z" transform="translate(-254.464 -214.521)" fill="#e05731"/>
                <path id="Trazado_958590" data-name="Trazado 958590" d="M267.742,214.677a14.271,14.271,0,0,1-1.667-.436l-.355.156-.287-.147.645-.147S267.052,214.475,267.742,214.677Z" transform="translate(-257.864 -213.166)" fill="#e05731"/>
              </g>
            </g>
            <g id="Grupo_1116769" data-name="Grupo 1116769" transform="translate(29.96 9.113)" opacity="0.78">
              <path id="Trazado_958591" data-name="Trazado 958591" d="M295.978,104.656a4.851,4.851,0,0,1-9.66.626,1.786,1.786,0,0,0,.19-.069,3.112,3.112,0,0,1,1.466-.255c.772.034,1.288.847,2.1.716.856-.137,1.478-.853,2.3-1.089a12.392,12.392,0,0,1,2.313-.041c.414-.031.846-.1,1.279-.159C295.975,104.475,295.978,104.565,295.978,104.656Z" transform="translate(-286.318 -104.385)" fill="#805dd8"/>
            </g>
            <g id="Grupo_1116770" data-name="Grupo 1116770" transform="translate(31.208 10.337)">
              <path id="Trazado_958592" data-name="Trazado 958592" d="M291.826,111.71a.692.692,0,1,1-.692-.692A.692.692,0,0,1,291.826,111.71Z" transform="translate(-290.284 -109.981)" fill="#805dd8"/>
              <path id="Trazado_958593" data-name="Trazado 958593" d="M290.818,108.305a.425.425,0,1,1-.509-.319A.425.425,0,0,1,290.818,108.305Z" transform="translate(-289.978 -107.975)" fill="#805dd8"/>
            </g>
            <g id="Grupo_1116771" data-name="Grupo 1116771" transform="translate(33.399 6.146)" opacity="0.78">
              <path id="Trazado_958594" data-name="Trazado 958594" d="M297.79,102.156a.692.692,0,1,1-.692-.692A.692.692,0,0,1,297.79,102.156Z" transform="translate(-296.406 -99.494)" fill="#805dd8"/>
              <path id="Trazado_958595" data-name="Trazado 958595" d="M300.915,96.014a.425.425,0,1,1-.509-.319A.425.425,0,0,1,300.915,96.014Z" transform="translate(-298.825 -95.684)" fill="#805dd8"/>
              <path id="Trazado_958596" data-name="Trazado 958596" d="M302.911,100.291a.425.425,0,1,1-.509-.319A.425.425,0,0,1,302.911,100.291Z" transform="translate(-300.14 -98.503)" fill="#805dd8"/>
            </g>
          </g>
        </g>
        <g id="Grupo_1116774" data-name="Grupo 1116774" transform="translate(9.741 57.375)">
          <path id="Trazado_958597" data-name="Trazado 958597" d="M169.875,246.925H153.394a.49.49,0,0,1-.49-.49h0a.49.49,0,0,1,.49-.49h16.481a.49.49,0,0,1,.49.49h0A.49.49,0,0,1,169.875,246.925Z" transform="translate(-151.962 -245.946)" fill="#002039"/>
          <path id="Trazado_958598" data-name="Trazado 958598" d="M154.486,247.382h-.615l-3.73,9.163h.615Z" transform="translate(-150.14 -246.892)" fill="#002039"/>
          <path id="Trazado_958599" data-name="Trazado 958599" d="M194.511,247.382h.615l3.731,9.163h-.615Z" transform="translate(-179.384 -246.892)" fill="#002039"/>
        </g>
        <g id="Grupo_1116788" data-name="Grupo 1116788" transform="translate(4.491 18.202)">
          <g id="Grupo_1116779" data-name="Grupo 1116779" transform="translate(8.976 40.697)">
            <g id="Grupo_1116777" data-name="Grupo 1116777">
              <g id="Grupo_1116775" data-name="Grupo 1116775">
                <path id="Trazado_958600" data-name="Trazado 958600" d="M173.026,253.795a2.816,2.816,0,0,1-.739,2.039,2.472,2.472,0,0,1-2.172.795c-.055-.01-.107-.023-.163-.036a1.162,1.162,0,0,1-.492-.27,2.333,2.333,0,0,1-1.717.27,1.506,1.506,0,0,1-.169-.059,1.063,1.063,0,0,1-.931.029.672.672,0,0,1-.065-.036,1.267,1.267,0,0,1-.176.065,2.356,2.356,0,0,1-1.749-.287,1.153,1.153,0,0,1-.5.287c-.056.013-.107.026-.163.036a2.482,2.482,0,0,1-2.176-.795,2.83,2.83,0,0,1-.739-2.039,13.333,13.333,0,0,1,.107-1.573,5.458,5.458,0,0,1,.088-1.169,11.888,11.888,0,0,0,2.075,2.325c.013-.388.042-.769.091-1.156a5.693,5.693,0,0,1,.085-1.169,12.129,12.129,0,0,0,1.938,2.205,3.337,3.337,0,0,1,.466-.788,12.488,12.488,0,0,1,1.049-1.179c.241-.248.5-.707.782-.873a12.091,12.091,0,0,0,.283,3.407c.065-.059.13-.117.192-.169a11.979,11.979,0,0,0,2.4-2.6,5.459,5.459,0,0,1,.088,1.169c.046.375.075.746.091,1.12a12.1,12.1,0,0,0,2.029-2.29,5.937,5.937,0,0,1,.088,1.169A12.517,12.517,0,0,1,173.026,253.795Z" transform="translate(-161.069 -250.417)" fill="#e05731"/>
              </g>
              <g id="Grupo_1116776" data-name="Grupo 1116776" transform="translate(2.609 3.293)">
                <path id="Trazado_958601" data-name="Trazado 958601" d="M175.464,261.981a1.615,1.615,0,0,1-.306,1.013c-.055-.01-.107-.023-.163-.036a1.162,1.162,0,0,1-.492-.27,2.332,2.332,0,0,1-1.717.27,1.507,1.507,0,0,1-.169-.059,1.063,1.063,0,0,1-.931.029.694.694,0,0,1-.065-.036,1.27,1.27,0,0,1-.176.065,2.357,2.357,0,0,1-1.749-.287,1.153,1.153,0,0,1-.5.287c-.056.013-.107.026-.163.036a1.6,1.6,0,0,1-.306-1.013,7.233,7.233,0,0,1,.059-.886,3.348,3.348,0,0,1,.049-.661A6.845,6.845,0,0,0,170,261.747c.01-.218.026-.433.052-.651a3.372,3.372,0,0,1,.049-.661,6.819,6.819,0,0,0,1.094,1.244,1.956,1.956,0,0,1,.26-.446,7.188,7.188,0,0,1,.593-.664c.137-.137.283-.4.44-.492a6.922,6.922,0,0,0,.16,1.922l.107-.094a6.821,6.821,0,0,0,1.355-1.469,3.109,3.109,0,0,1,.049.661c.026.208.042.42.052.629a6.683,6.683,0,0,0,1.143-1.29,3.086,3.086,0,0,1,.049.661A6.458,6.458,0,0,1,175.464,261.981Z" transform="translate(-168.722 -260.076)" fill="#e05731"/>
              </g>
            </g>
            <g id="Grupo_1116778" data-name="Grupo 1116778" transform="translate(0.419 5.473)">
              <path id="Trazado_958602" data-name="Trazado 958602" d="M163.959,269.161h-1.482a.178.178,0,0,1-.178-.178v-2.336a.178.178,0,0,1,.178-.178h3.952a.178.178,0,0,1,.122.307l-2.47,2.336A.179.179,0,0,1,163.959,269.161Z" transform="translate(-162.299 -266.469)" fill="#002039"/>
              <path id="Trazado_958603" data-name="Trazado 958603" d="M186.83,269.161h1.482a.178.178,0,0,0,.178-.178v-2.336a.178.178,0,0,0-.178-.178H184.36a.178.178,0,0,0-.122.307l2.47,2.336A.178.178,0,0,0,186.83,269.161Z" transform="translate(-176.722 -266.469)" fill="#002039"/>
              <path id="Trazado_958604" data-name="Trazado 958604" d="M178.581,269.355h-.208a.281.281,0,0,1-.281-.281v-2.323a.281.281,0,0,1,.281-.281h.208a.281.281,0,0,1,.281.281v2.323A.281.281,0,0,1,178.581,269.355Z" transform="translate(-172.708 -266.47)" fill="#002039"/>
            </g>
          </g>
          <g id="Grupo_1116786" data-name="Grupo 1116786" transform="translate(1.061)">
            <g id="Grupo_1116782" data-name="Grupo 1116782">
              <circle id="Elipse_13582" data-name="Elipse 13582" cx="10.593" cy="10.593" r="10.593" transform="translate(3.366 21.581)" fill="#fff" opacity="0.8"/>
              <path id="Trazado_958605" data-name="Trazado 958605" d="M169.565,206.305a9.891,9.891,0,0,1-19.683,1.388,9.26,9.26,0,0,1-.1-1.388,9.892,9.892,0,0,1,19.5-2.361A9.73,9.73,0,0,1,169.565,206.305Z" transform="translate(-145.715 -174.132)" fill="#fff" opacity="0.8"/>
              <g id="Grupo_1116780" data-name="Grupo 1116780" transform="translate(4.167 29.812)" opacity="0.78">
                <path id="Trazado_958606" data-name="Trazado 958606" d="M169.76,220.85a9.891,9.891,0,0,1-19.683,1.388,1.994,1.994,0,0,1,1.583-.765,12.2,12.2,0,0,1,1.629.479,7.63,7.63,0,0,0,1.7.215c1.551,0,2.371-.968,3.514-1.876a3.208,3.208,0,0,1,3.857-.446c1.446.694,3.075,1,4.358-.166a4.141,4.141,0,0,1,2.759-1.189A9.73,9.73,0,0,1,169.76,220.85Z" transform="translate(-150.077 -218.489)" fill="#805dd8"/>
              </g>
              <path id="Trazado_958607" data-name="Trazado 958607" d="M153.369,143.636a1.666,1.666,0,0,0,.87-1.273,2.048,2.048,0,0,0-.974-2,3.33,3.33,0,0,0,1-.948,1.66,1.66,0,0,0-.016-2.1,2.925,2.925,0,0,0-2.4-1.084,4.765,4.765,0,0,0-2.98,1.8,1.9,1.9,0,0,1-.2-.7,1.552,1.552,0,0,1,.111-.694,2.542,2.542,0,0,1,.606-.879,3.943,3.943,0,0,1,1.283-.834l1.925-.8a1.371,1.371,0,0,0,.847-1.2,1.342,1.342,0,0,0-.687-1.257,7.161,7.161,0,0,0-3.058-.632h-7.5a2.3,2.3,0,0,0-2.287,2.274c-.01.974.042,2.277.15,3.87v.01a2.682,2.682,0,0,0-.02,5.273l-.01,2.2a2.683,2.683,0,0,0-.02,5.263l-.01,2.205a2.685,2.685,0,0,0-.02,5.254l-.065,16.51a2.163,2.163,0,0,0,2.163,2.175h.886a.9.9,0,0,1,.9.9v2.755h.922V176.98a1.828,1.828,0,0,0-1.824-1.827h-.886a1.24,1.24,0,0,1-1.241-1.247l.065-16.478a2.683,2.683,0,0,0,.019-5.316l.01-2.156a2.682,2.682,0,0,0,.019-5.306l.01-2.166a2.681,2.681,0,0,0,.019-5.3v-.046c-.107-1.576-.16-2.86-.15-3.814a1.371,1.371,0,0,1,1.365-1.358h7.488a6.106,6.106,0,0,1,2.629.515.413.413,0,0,1,.212.4.451.451,0,0,1-.28.4l-1.922.8a4.837,4.837,0,0,0-1.586,1.036,2.92,2.92,0,0,0-.984,2.27v.019a3.087,3.087,0,0,0,.537,1.472,3.252,3.252,0,0,0-.121,3.557,3.52,3.52,0,0,0,.147,3.332,4.386,4.386,0,0,0-.257.6c-.577,1.717.163,3.244,2.084,4.3a2.125,2.125,0,0,1,1.114,1.847v.215h.922v-.215a3.046,3.046,0,0,0-1.589-2.654c-1.531-.843-2.084-1.918-1.655-3.2.013-.042.029-.081.042-.12a5.007,5.007,0,0,0,.622.472,4.044,4.044,0,0,0,2.9.586,2.194,2.194,0,0,0,2.006-1.684,2,2,0,0,0-.352-1.612A2.188,2.188,0,0,0,153.369,143.636Zm-.046-1.4c-.081.583-.713.87-1.886.866a3.234,3.234,0,0,1-2.01-.658c-.039-.029-.075-.062-.111-.094a4.8,4.8,0,0,1,.664-.7,2.581,2.581,0,0,1,2.453-.651A1.16,1.16,0,0,1,153.323,142.239Zm-1.41-5.084a2.025,2.025,0,0,1,1.655.788c.3.323.046.782-.075.964a2.44,2.44,0,0,1-2.746.928,2.222,2.222,0,0,1-.567-.316,5.708,5.708,0,0,1-.769-.7A4.166,4.166,0,0,1,151.913,137.155Zm-2.987,2.495a6.445,6.445,0,0,0,.7.606,4.364,4.364,0,0,0,.371.248,4.609,4.609,0,0,0-.638.466,5.624,5.624,0,0,0-.606.612A2.438,2.438,0,0,1,148.927,139.65Zm-.02,5.254a2.586,2.586,0,0,1-.032-1.717,3.933,3.933,0,0,0,1.394.687c-.13.065-.257.134-.381.212A4.339,4.339,0,0,0,148.907,144.9Zm4.694.814c-.114.518-.524.834-1.264.967a3.176,3.176,0,0,1-2.244-.456,3.487,3.487,0,0,1-.652-.524,3.642,3.642,0,0,1,3.052-1.378,1.282,1.282,0,0,1,.912.515A1.091,1.091,0,0,1,153.6,145.718Z" transform="translate(-137.854 -131.045)" fill="#fff" opacity="0.8"/>
              <g id="Grupo_1116781" data-name="Grupo 1116781" transform="translate(5.833 23.505)">
                <path id="Trazado_958608" data-name="Trazado 958608" d="M156.346,222.493a.692.692,0,1,1-.692-.692A.692.692,0,0,1,156.346,222.493Z" transform="translate(-154.962 -214.365)" fill="#805dd8"/>
                <path id="Trazado_958609" data-name="Trazado 958609" d="M183.461,235.644a.692.692,0,1,1-.692-.692A.692.692,0,0,1,183.461,235.644Z" transform="translate(-172.833 -223.033)" fill="#805dd8"/>
                <path id="Trazado_958610" data-name="Trazado 958610" d="M172.662,245.563a.692.692,0,1,1-.692-.692A.692.692,0,0,1,172.662,245.563Z" transform="translate(-165.715 -229.57)" fill="#805dd8"/>
                <path id="Trazado_958611" data-name="Trazado 958611" d="M196.406,211.958a.692.692,0,1,1-.692-.692A.692.692,0,0,1,196.406,211.958Z" transform="translate(-181.365 -207.422)" fill="#805dd8"/>
                <path id="Trazado_958612" data-name="Trazado 958612" d="M174.646,228.758a.692.692,0,1,1-.692-.692A.692.692,0,0,1,174.646,228.758Z" transform="translate(-167.023 -218.495)" fill="#805dd8"/>
                <path id="Trazado_958613" data-name="Trazado 958613" d="M178.832,210.281a.692.692,0,1,1-.692-.692A.692.692,0,0,1,178.832,210.281Z" transform="translate(-169.782 -206.317)" fill="#805dd8"/>
                <path id="Trazado_958614" data-name="Trazado 958614" d="M165.054,238.689a.692.692,0,1,1-.692-.692A.692.692,0,0,1,165.054,238.689Z" transform="translate(-160.701 -225.04)" fill="#805dd8"/>
                <path id="Trazado_958615" data-name="Trazado 958615" d="M170.585,200.683a.692.692,0,1,1-.692-.692A.692.692,0,0,1,170.585,200.683Z" transform="translate(-164.347 -199.991)" fill="#805dd8"/>
                <path id="Trazado_958616" data-name="Trazado 958616" d="M168.382,208.467a.326.326,0,1,1-.326-.326A.326.326,0,0,1,168.382,208.467Z" transform="translate(-163.378 -205.362)" fill="#805dd8"/>
                <path id="Trazado_958617" data-name="Trazado 958617" d="M187.939,211.712a.326.326,0,1,1-.326-.326A.326.326,0,0,1,187.939,211.712Z" transform="translate(-176.267 -207.501)" fill="#805dd8"/>
                <circle id="Elipse_13583" data-name="Elipse 13583" cx="0.326" cy="0.326" r="0.326" transform="translate(15.656 8.494)" fill="#805dd8"/>
                <path id="Trazado_958618" data-name="Trazado 958618" d="M157.643,233.089a.326.326,0,1,1-.326-.326A.326.326,0,0,1,157.643,233.089Z" transform="translate(-156.3 -221.59)" fill="#805dd8"/>
                <path id="Trazado_958619" data-name="Trazado 958619" d="M186.756,228.071a.326.326,0,1,1-.326-.326A.326.326,0,0,1,186.756,228.071Z" transform="translate(-175.488 -218.283)" fill="#805dd8"/>
                <path id="Trazado_958620" data-name="Trazado 958620" d="M173.96,238.383a.326.326,0,1,1-.326-.326A.326.326,0,0,1,173.96,238.383Z" transform="translate(-167.054 -225.079)" fill="#805dd8"/>
                <path id="Trazado_958621" data-name="Trazado 958621" d="M192,241.428a.326.326,0,1,1-.326-.326A.326.326,0,0,1,192,241.428Z" transform="translate(-178.945 -227.086)" fill="#805dd8"/>
                <path id="Trazado_958622" data-name="Trazado 958622" d="M179.451,201.392a.326.326,0,1,1-.326-.326A.326.326,0,0,1,179.451,201.392Z" transform="translate(-170.673 -200.7)" fill="#805dd8"/>
                <path id="Trazado_958623" data-name="Trazado 958623" d="M162.463,215.425a1.067,1.067,0,1,1-.632,1.371A1.067,1.067,0,0,1,162.463,215.425Z" transform="translate(-159.446 -210.119)" fill="#805dd8"/>
                <path id="Trazado_958624" data-name="Trazado 958624" d="M195.209,229.992a1.067,1.067,0,1,1-.632,1.371A1.067,1.067,0,0,1,195.209,229.992Z" transform="translate(-181.028 -219.72)" fill="#805dd8"/>
                <path id="Trazado_958625" data-name="Trazado 958625" d="M184.627,243.837a1.067,1.067,0,1,1-.632,1.371A1.067,1.067,0,0,1,184.627,243.837Z" transform="translate(-174.053 -228.845)" fill="#805dd8"/>
              </g>
            </g>
            <g id="Grupo_1116783" data-name="Grupo 1116783" transform="translate(0.288 7.69)">
              <path id="Trazado_958626" data-name="Trazado 958626" d="M143.415,154.643a2.358,2.358,0,1,1-4.5-.98,2.06,2.06,0,0,1,1.495.189c.427.3.583.466,1.13.436s1.065-.306,1.616-.345a1.274,1.274,0,0,1,.153,0A2.27,2.27,0,0,1,143.415,154.643Z" transform="translate(-138.699 -153.601)" fill="#ffac92"/>
            </g>
            <g id="Grupo_1116784" data-name="Grupo 1116784" transform="translate(0.288 15.202)">
              <path id="Trazado_958627" data-name="Trazado 958627" d="M143.415,176.677a2.358,2.358,0,1,1-4.5-.98,2.061,2.061,0,0,1,1.495.189c.427.3.583.466,1.13.436s1.065-.306,1.616-.345a1.154,1.154,0,0,1,.153,0A2.273,2.273,0,0,1,143.415,176.677Z" transform="translate(-138.699 -175.635)" fill="#00d4c9"/>
            </g>
            <g id="Grupo_1116785" data-name="Grupo 1116785" transform="translate(0.288 22.645)">
              <path id="Trazado_958628" data-name="Trazado 958628" d="M143.415,198.509a2.358,2.358,0,1,1-4.5-.98,2.062,2.062,0,0,1,1.495.189c.427.3.583.466,1.13.436s1.065-.306,1.616-.345a1.144,1.144,0,0,1,.153,0A2.27,2.27,0,0,1,143.415,198.509Z" transform="translate(-138.699 -197.467)" fill="#e05731"/>
            </g>
          </g>
          <g id="Grupo_1116787" data-name="Grupo 1116787" transform="translate(0 2.636)">
            <path id="Trazado_958629" data-name="Trazado 958629" d="M135.413,163.006v-24.23h-.267v24.23h-.405v21.96h1.077v-21.96Z" transform="translate(-134.741 -138.776)" fill="#002039"/>
            <rect id="Rectángulo_416166" data-name="Rectángulo 416166" width="4.251" height="0.245" transform="translate(0.405 1.8)" fill="#002039"/>
            <rect id="Rectángulo_416167" data-name="Rectángulo 416167" width="4.251" height="0.245" transform="translate(0.405 17.078)" fill="#002039"/>
            <rect id="Rectángulo_416168" data-name="Rectángulo 416168" width="4.251" height="0.245" transform="translate(0.405 25.322)" fill="#002039"/>
          </g>
        </g>
        <g id="Grupo_1116812" data-name="Grupo 1116812" transform="translate(52.357 55.758)">
          <path id="Trazado_958630" data-name="Trazado 958630" d="M295.427,244.516V243.4H275.142v1.111h.513v8.337h-.513v1.111h20.285v-1.111h-.549v-8.337Zm-1.8,8.336H276.908v-8.337h16.716Z" transform="translate(-275.142 -242.655)" fill="#00af9f"/>
          <g id="Grupo_1116792" data-name="Grupo 1116792" transform="translate(5.501 0)">
            <g id="Grupo_1116791" data-name="Grupo 1116791">
              <path id="Trazado_958631" data-name="Trazado 958631" d="M294.2,246.663v6.192a.824.824,0,1,1-1.648,0v-6.192H294.2Z" transform="translate(-292.12 -244.802)" fill="#fff" opacity="0.5"/>
              <g id="Grupo_1116790" data-name="Grupo 1116790" transform="translate(0.436 3.613)">
                <g id="Grupo_1116789" data-name="Grupo 1116789" opacity="0.9">
                  <path id="Trazado_958632" data-name="Trazado 958632" d="M294.2,252.006v4.237a.824.824,0,1,1-1.648,0v-4.3a.917.917,0,0,1,.531-.13c.257.065.4.257.7.26A4.163,4.163,0,0,0,294.2,252.006Z" transform="translate(-292.556 -251.804)" fill="#e05731"/>
                </g>
                <circle id="Elipse_13584" data-name="Elipse 13584" cx="0.229" cy="0.229" r="0.229" transform="translate(0.349 0.498)" fill="#e05731"/>
                <path id="Trazado_958633" data-name="Trazado 958633" d="M295.379,257.577a.229.229,0,1,1-.229-.229A.229.229,0,0,1,295.379,257.577Z" transform="translate(-294.115 -255.458)" fill="#e05731"/>
                <path id="Trazado_958634" data-name="Trazado 958634" d="M294.089,263.366a.229.229,0,1,1-.229-.229A.229.229,0,0,1,294.089,263.366Z" transform="translate(-293.265 -259.273)" fill="#e05731"/>
              </g>
              <path id="Trazado_958635" data-name="Trazado 958635" d="M293.422,241.205h-1.77a.375.375,0,0,0-.375.375h0a.375.375,0,0,0,.375.375h1.77a.375.375,0,0,0,.375-.375h0A.375.375,0,0,0,293.422,241.205Z" transform="translate(-291.277 -241.205)" fill="#fff" opacity="0.5"/>
            </g>
          </g>
          <g id="Grupo_1116797" data-name="Grupo 1116797" transform="translate(2.288 0)">
            <g id="Grupo_1116796" data-name="Grupo 1116796">
              <path id="Trazado_958636" data-name="Trazado 958636" d="M284.784,246.663v6.192a.824.824,0,1,1-1.648,0v-6.192h1.648Z" transform="translate(-282.699 -244.802)" fill="#fff" opacity="0.5"/>
              <g id="Grupo_1116795" data-name="Grupo 1116795" transform="translate(0.437 4.568)">
                <g id="Grupo_1116793" data-name="Grupo 1116793" opacity="0.5">
                  <path id="Trazado_958637" data-name="Trazado 958637" d="M284.784,254.806v3.283a.824.824,0,1,1-1.648,0v-3.345a.917.917,0,0,1,.531-.13c.257.065.4.257.7.26C284.455,254.874,284.618,254.831,284.784,254.806Z" transform="translate(-283.136 -254.604)" fill="#00d4c9"/>
                </g>
                <g id="Grupo_1116794" data-name="Grupo 1116794" transform="translate(0.348 0.573)">
                  <circle id="Elipse_13585" data-name="Elipse 13585" cx="0.229" cy="0.229" r="0.229" transform="translate(0 1.266)" fill="#00af9f"/>
                  <path id="Trazado_958638" data-name="Trazado 958638" d="M285.886,256.606a.229.229,0,1,1,.3.118A.229.229,0,0,1,285.886,256.606Z" transform="translate(-285.284 -256.286)" fill="#00af9f"/>
                  <path id="Trazado_958639" data-name="Trazado 958639" d="M285.654,263.59a.229.229,0,1,1-.229-.229A.229.229,0,0,1,285.654,263.59Z" transform="translate(-284.841 -260.949)" fill="#00af9f"/>
                </g>
              </g>
              <path id="Trazado_958640" data-name="Trazado 958640" d="M284,241.205h-1.77a.375.375,0,0,0-.375.375h0a.375.375,0,0,0,.375.375H284a.375.375,0,0,0,.375-.375h0A.375.375,0,0,0,284,241.205Z" transform="translate(-281.853 -241.205)" fill="#fff" opacity="0.5"/>
            </g>
          </g>
          <g id="Grupo_1116801" data-name="Grupo 1116801" transform="translate(11.974 0)">
            <g id="Grupo_1116800" data-name="Grupo 1116800">
              <path id="Trazado_958641" data-name="Trazado 958641" d="M313.192,246.663v6.192a.824.824,0,1,1-1.648,0v-6.192h1.648Z" transform="translate(-311.108 -244.802)" fill="#fff" opacity="0.5"/>
              <g id="Grupo_1116799" data-name="Grupo 1116799" transform="translate(0.436 3.613)">
                <g id="Grupo_1116798" data-name="Grupo 1116798" opacity="0.9">
                  <path id="Trazado_958642" data-name="Trazado 958642" d="M313.192,252.006v4.237a.824.824,0,1,1-1.648,0v-4.3a.917.917,0,0,1,.531-.13c.257.065.4.257.7.26A4.161,4.161,0,0,0,313.192,252.006Z" transform="translate(-311.544 -251.804)" fill="#e05731"/>
                </g>
                <circle id="Elipse_13586" data-name="Elipse 13586" cx="0.229" cy="0.229" r="0.229" transform="translate(0.349 0.498)" fill="#e05731"/>
                <circle id="Elipse_13587" data-name="Elipse 13587" cx="0.229" cy="0.229" r="0.229" transform="translate(0.806 1.89)" fill="#e05731"/>
                <path id="Trazado_958643" data-name="Trazado 958643" d="M313.077,263.366a.229.229,0,1,1-.229-.229A.229.229,0,0,1,313.077,263.366Z" transform="translate(-312.253 -259.273)" fill="#e05731"/>
              </g>
              <path id="Trazado_958644" data-name="Trazado 958644" d="M312.41,241.205h-1.77a.375.375,0,0,0-.375.375h0a.375.375,0,0,0,.375.375h1.77a.375.375,0,0,0,.375-.375h0A.375.375,0,0,0,312.41,241.205Z" transform="translate(-310.265 -241.205)" fill="#fff" opacity="0.5"/>
            </g>
          </g>
          <g id="Grupo_1116806" data-name="Grupo 1116806" transform="translate(8.761 0)">
            <g id="Grupo_1116805" data-name="Grupo 1116805">
              <path id="Trazado_958645" data-name="Trazado 958645" d="M303.772,246.663v6.192a.824.824,0,1,1-1.648,0v-6.192h1.648Z" transform="translate(-301.687 -244.802)" fill="#fff" opacity="0.5"/>
              <g id="Grupo_1116804" data-name="Grupo 1116804" transform="translate(0.437 4.568)">
                <g id="Grupo_1116802" data-name="Grupo 1116802" opacity="0.5">
                  <path id="Trazado_958646" data-name="Trazado 958646" d="M303.772,254.806v3.283a.824.824,0,1,1-1.648,0v-3.345a.917.917,0,0,1,.531-.13c.257.065.4.257.7.26C303.443,254.874,303.606,254.831,303.772,254.806Z" transform="translate(-302.124 -254.604)" fill="#00d4c9"/>
                </g>
                <g id="Grupo_1116803" data-name="Grupo 1116803" transform="translate(0.347 0.573)">
                  <path id="Trazado_958647" data-name="Trazado 958647" d="M303.6,260.227a.229.229,0,1,1-.229-.229A.229.229,0,0,1,303.6,260.227Z" transform="translate(-303.143 -258.732)" fill="#00af9f"/>
                  <path id="Trazado_958648" data-name="Trazado 958648" d="M304.874,256.606a.229.229,0,1,1,.3.118A.229.229,0,0,1,304.874,256.606Z" transform="translate(-304.271 -256.286)" fill="#00af9f"/>
                  <path id="Trazado_958649" data-name="Trazado 958649" d="M304.642,263.59a.229.229,0,1,1-.229-.229A.229.229,0,0,1,304.642,263.59Z" transform="translate(-303.829 -260.949)" fill="#00af9f"/>
                </g>
              </g>
              <path id="Trazado_958650" data-name="Trazado 958650" d="M302.986,241.205h-1.77a.375.375,0,0,0-.375.375h0a.375.375,0,0,0,.375.375h1.77a.375.375,0,0,0,.375-.375h0A.375.375,0,0,0,302.986,241.205Z" transform="translate(-300.841 -241.205)" fill="#fff" opacity="0.5"/>
            </g>
          </g>
          <g id="Grupo_1116811" data-name="Grupo 1116811" transform="translate(15.194 0)">
            <g id="Grupo_1116810" data-name="Grupo 1116810">
              <path id="Trazado_958651" data-name="Trazado 958651" d="M322.641,246.663v6.192a.824.824,0,1,1-1.648,0v-6.192h1.648Z" transform="translate(-320.555 -244.802)" fill="#fff" opacity="0.5"/>
              <g id="Grupo_1116809" data-name="Grupo 1116809" transform="translate(0.438 4.568)">
                <g id="Grupo_1116807" data-name="Grupo 1116807" opacity="0.5">
                  <path id="Trazado_958652" data-name="Trazado 958652" d="M322.641,254.806v3.283a.824.824,0,1,1-1.648,0v-3.345a.917.917,0,0,1,.531-.13c.257.065.4.257.7.26C322.312,254.874,322.475,254.831,322.641,254.806Z" transform="translate(-320.993 -254.604)" fill="#00d4c9"/>
                </g>
                <g id="Grupo_1116808" data-name="Grupo 1116808" transform="translate(0.347 0.573)">
                  <circle id="Elipse_13588" data-name="Elipse 13588" cx="0.229" cy="0.229" r="0.229" transform="translate(0 1.266)" fill="#00af9f"/>
                  <path id="Trazado_958653" data-name="Trazado 958653" d="M323.742,256.606a.229.229,0,1,1,.3.118A.229.229,0,0,1,323.742,256.606Z" transform="translate(-323.14 -256.286)" fill="#00af9f"/>
                  <path id="Trazado_958654" data-name="Trazado 958654" d="M323.51,263.59a.229.229,0,1,1-.229-.229A.229.229,0,0,1,323.51,263.59Z" transform="translate(-322.697 -260.949)" fill="#00af9f"/>
                </g>
              </g>
              <path id="Trazado_958655" data-name="Trazado 958655" d="M321.854,241.205h-1.77a.375.375,0,0,0-.375.375h0a.375.375,0,0,0,.375.375h1.77a.375.375,0,0,0,.375-.375h0A.375.375,0,0,0,321.854,241.205Z" transform="translate(-319.709 -241.205)" fill="#fff" opacity="0.5"/>
            </g>
          </g>
        </g>
        <g id="Grupo_1116814" data-name="Grupo 1116814" transform="translate(71.194 49.413)">
          <path id="Trazado_958656" data-name="Trazado 958656" d="M343.706,238.412l-5.236-7.19.24-7.481.3.01a.529.529,0,0,0,.034-1.057l-3.106-.1a.529.529,0,0,0-.034,1.057l.3.01-.243,7.586-5.317,7.028a1.247,1.247,0,0,0,.981,2l11.054.119A1.247,1.247,0,0,0,343.706,238.412Z" transform="translate(-330.395 -222.594)" fill="#fff" opacity="0.8"/>
          <g id="Grupo_1116813" data-name="Grupo 1116813" transform="translate(0.518 2.889)">
            <path id="Trazado_958657" data-name="Trazado 958657" d="M337.328,231.159s.273.384.955.071h0a.717.717,0,0,1,1.168.581l-.182,5.1,4.975,7.2a.955.955,0,0,1,.035,1.03h0a.955.955,0,0,1-.826.468l-10.411-.053a.956.956,0,0,1-.822-.477l-.177-.306a.955.955,0,0,1,.063-1.053l5.142-6.843Z" transform="translate(-331.915 -231.067)" fill="#e05731"/>
            <path id="Trazado_958658" data-name="Trazado 958658" d="M341.681,264.545a1.064,1.064,0,1,1-1.194-.916A1.064,1.064,0,0,1,341.681,264.545Z" transform="translate(-336.955 -252.522)" fill="#e05731"/>
            <path id="Trazado_958659" data-name="Trazado 958659" d="M361.615,267.139a1.064,1.064,0,1,1-1.194-.916A1.064,1.064,0,0,1,361.615,267.139Z" transform="translate(-350.093 -254.231)" fill="#e05731"/>
            <path id="Trazado_958660" data-name="Trazado 958660" d="M344.4,256.219a.492.492,0,1,1-.552-.423A.492.492,0,0,1,344.4,256.219Z" transform="translate(-339.499 -247.362)" fill="#e05731"/>
            <path id="Trazado_958661" data-name="Trazado 958661" d="M351.209,258.6a.221.221,0,1,1-.309.041A.221.221,0,0,1,351.209,258.6Z" transform="translate(-344.398 -249.182)" fill="#e05731"/>
            <path id="Trazado_958662" data-name="Trazado 958662" d="M349.176,249.042a.221.221,0,1,1-.309.041A.221.221,0,0,1,349.176,249.042Z" transform="translate(-343.058 -242.884)" fill="#e05731"/>
            <path id="Trazado_958663" data-name="Trazado 958663" d="M335.709,268.782a.221.221,0,1,1-.309.041A.221.221,0,0,1,335.709,268.782Z" transform="translate(-334.182 -255.894)" fill="#e05731"/>
            <path id="Trazado_958664" data-name="Trazado 958664" d="M349.513,234.229a.221.221,0,1,1-.309.041A.221.221,0,0,1,349.513,234.229Z" transform="translate(-343.28 -233.121)" fill="#e05731"/>
            <path id="Trazado_958665" data-name="Trazado 958665" d="M360.787,262.021a.221.221,0,1,1-.309.041A.221.221,0,0,1,360.787,262.021Z" transform="translate(-350.711 -251.438)" fill="#e05731"/>
            <path id="Trazado_958666" data-name="Trazado 958666" d="M350.183,267.874a.469.469,0,1,1-.526-.4A.469.469,0,0,1,350.183,267.874Z" transform="translate(-343.34 -255.057)" fill="#e05731"/>
            <path id="Trazado_958667" data-name="Trazado 958667" d="M350.7,237.389a.492.492,0,1,1-.552-.423A.492.492,0,0,1,350.7,237.389Z" transform="translate(-343.65 -234.952)" fill="#e05731"/>
            <path id="Trazado_958668" data-name="Trazado 958668" d="M351.175,252.668a.492.492,0,1,1-.552-.423A.492.492,0,0,1,351.175,252.668Z" transform="translate(-343.964 -245.022)" fill="#e05731"/>
            <path id="Trazado_958669" data-name="Trazado 958669" d="M355.839,262.238a.492.492,0,1,1-.552-.423A.492.492,0,0,1,355.839,262.238Z" transform="translate(-347.038 -251.329)" fill="#e05731"/>
            <path id="Trazado_958670" data-name="Trazado 958670" d="M349.688,242.235a.658.658,0,1,1-.738-.566A.658.658,0,0,1,349.688,242.235Z" transform="translate(-342.766 -238.051)" fill="#e05731"/>
          </g>
        </g>
        <g id="Grupo_1116815" data-name="Grupo 1116815" transform="translate(0 67.028)">
          <path id="Trazado_958671" data-name="Trazado 958671" d="M207.7,277.145H123.011a1.442,1.442,0,0,1-1.442-1.442h0a1.442,1.442,0,0,1,1.442-1.442H207.7a1.442,1.442,0,0,1,1.442,1.442h0A1.442,1.442,0,0,1,207.7,277.145Z" transform="translate(-121.569 -274.261)" fill="#002039" opacity="0.84"/>
          <path id="Trazado_958672" data-name="Trazado 958672" d="M208.46,285.335H131.382a2.884,2.884,0,0,1-2.884-2.885h82.846A2.885,2.885,0,0,1,208.46,285.335Z" transform="translate(-126.136 -279.658)" fill="#002039"/>
        </g>
      </g>
    </g>
  </g>
</svg>
