<svg xmlns="http://www.w3.org/2000/svg" width="85" height="85" viewBox="0 0 85 85">
  <g id="Grupo_1116002" data-name="Grupo 1116002" transform="translate(-704.668 -6155)">
    <rect id="Rectángulo_402033" data-name="Rectángulo 402033" width="85" height="85" rx="8" transform="translate(704.668 6155)" fill="#0042db"/>
    <g id="layer1" transform="translate(719.725 5888.634)">
      <path id="path5182" d="M52.207,308.187V288.4a90,90,0,0,1-25.442-7.538A89.994,89.994,0,0,1,1.323,288.4v19.788c0,23.558,25.442,27.327,25.442,27.327S52.207,331.744,52.207,308.187Z" transform="translate(0.678 0.678)" fill="#ff6b6b"/>
      <path id="circle5186" d="M36.007,300.054a16.019,16.019,0,1,1-16.019-16.019,16.019,16.019,0,0,1,16.019,16.019Z" transform="translate(7.455 8.81)" fill="#dbe9ee"/>
      <path id="path5184" d="M11.739,286.152v5.654H6.085v5.654h5.654v5.654h5.654V297.46h5.654v-5.654H17.393v-5.654Z" transform="translate(12.877 14.233)" fill="#ff6b6b"/>
      <path id="path4550-7" d="M27.018,280.7A89.221,89.221,0,0,1,1.872,288.14a.942.942,0,0,0-.813.94V291.9a.943.943,0,1,0,1.885,0V289.89a91.772,91.772,0,0,0,24.5-7.3,88.793,88.793,0,0,0,24.5,7.3v18.971c0,11.439-6.09,17.92-12.27,21.7a36.343,36.343,0,0,1-12.228,4.667,36.31,36.31,0,0,1-12.228-4.667c-6.18-3.777-12.272-10.257-12.272-21.7V295.673a.943.943,0,1,0-1.885,0v13.189c0,12.118,6.634,19.306,13.176,23.3a38.843,38.843,0,0,0,13.069,4.96.924.924,0,0,0,.28,0,38.843,38.843,0,0,0,13.069-4.96c6.541-4,13.176-11.186,13.176-23.3V289.08a.942.942,0,0,0-.813-.94A89.221,89.221,0,0,1,27.868,280.7a.952.952,0,0,0-.85,0Zm.425,11.206a16.962,16.962,0,1,0,12.4,28.534.943.943,0,1,0-1.377-1.288,15.039,15.039,0,1,1,2.28-3.191.943.943,0,0,0,1.664.889A16.973,16.973,0,0,0,27.443,291.9Zm-3.771,8.479V305.1H18.964a.942.942,0,0,0-.946.939v5.656a.942.942,0,0,0,.946.939h4.708v4.717a.942.942,0,0,0,.948.939h5.646a.943.943,0,0,0,.946-.939v-4.717h4.71a.943.943,0,0,0,.946-.939v-5.656a.942.942,0,0,0-.946-.939h-4.71v-4.717a.942.942,0,0,0-.946-.939h-5.7a.948.948,0,0,0-.9.939Zm1.886.946h3.769v4.71a.942.942,0,0,0,.939.939h4.717v3.771H30.266a.942.942,0,0,0-.939.946v4.71H25.558v-4.71a.942.942,0,0,0-.939-.946H19.9v-3.771H24.62a.942.942,0,0,0,.939-.939Z" transform="translate(0 0)"/>
    </g>
  </g>
</svg>
