<svg xmlns="http://www.w3.org/2000/svg" width="50" height="54.732" viewBox="0 0 50 54.732">
  <g id="Grupo_1116459" data-name="Grupo 1116459" transform="translate(-22.135)">
    <g id="Grupo_1116458" data-name="Grupo 1116458" transform="translate(22.135 0)">
      <path id="Trazado_957874" data-name="Trazado 957874" d="M178.3,44.269H149.074a.8.8,0,0,0,0,1.6H178.03V92.666H143.3a.8.8,0,0,0,0,1.6h35a1.338,1.338,0,0,0,1.336-1.336V45.605A1.338,1.338,0,0,0,178.3,44.269Z" transform="translate(-129.633 -39.537)" fill="#001a58"/>
      <path id="Trazado_957875" data-name="Trazado 957875" d="M63.991,7.171a5.672,5.672,0,0,0-3.247,1.018H36.156L35.432,6.5c.068-.052.133-.107.2-.164h2.2a.8.8,0,0,0,0-1.6H36.684a3.621,3.621,0,1,0-6.891,0H23.471a1.338,1.338,0,0,0-1.336,1.336V53.4a1.338,1.338,0,0,0,1.336,1.336h8.591a.8.8,0,0,0,0-1.6H23.738V6.336h7.108c.064.057.129.112.2.164l-.723,1.69H26.394a.8.8,0,0,0-.8.8V26.7a3.789,3.789,0,0,0,0,6.029V50.474a.8.8,0,0,0,.8.8H44.11a3.79,3.79,0,0,0,5.837,0h17.93a.8.8,0,0,0,.8-.8V16.124a5.7,5.7,0,0,0-4.687-8.952Zm-9.14,2.621h4.344a5.693,5.693,0,0,0-.457,5.31H54.851Zm-6.914,0h5.31V15.1h-5.31Zm-6.914,0h5.31V15.1h-5.31ZM37.835,10.85h-.54l-.453-1.058h2.577V15.1h-5.31V12.454h3.726a.8.8,0,1,0,0-1.6ZM33.238,1.6A2.018,2.018,0,1,1,31.22,3.621,2.02,2.02,0,0,1,33.238,1.6ZM32.5,7.167a3.632,3.632,0,0,0,1.472,0l1.576,3.683H30.926ZM25.7,29.718a2.191,2.191,0,1,1,2.191,2.191A2.194,2.194,0,0,1,25.7,29.718Zm6.8,19.954H27.2v-5.31h5.31v5.31Zm0-6.914H27.2v-5.31h5.31v5.31Zm0-6.914H27.2v-2.4a3.79,3.79,0,0,0,4.4-2.913h.907Zm0-6.914h-.9a3.79,3.79,0,0,0-4.41-2.942V23.62h5.31v5.31Zm0-6.914H27.2v-5.31h5.31v5.31Zm0-6.914H27.2V9.793h2.439l-.453,1.058h-.54a.8.8,0,0,0,0,1.6h3.864Zm6.914,34.569h-5.31v-5.31h5.31Zm3.814-.819a3.788,3.788,0,0,0,.09.819h-2.3v-5.31h5.31v.761A3.8,3.8,0,0,0,43.233,48.853Zm3.795,2.191a2.191,2.191,0,1,1,2.191-2.191A2.194,2.194,0,0,1,47.028,51.044Zm6.219-1.372H50.733a3.792,3.792,0,0,0-2.8-4.5v-.807h5.31Zm6.914,0h-5.31v-5.31h5.31Zm0-6.914H34.109V16.706H59.766q.188.207.4.4V42.758Zm6.914,6.914h-5.31v-5.31h5.31Zm0-6.914h-5.31v-5.31h5.31Zm0-6.914h-5.31v-5.31h5.31Zm0-6.914h-5.31V23.62h5.31Zm0-6.914h-5.31V18.129a5.692,5.692,0,0,0,5.31-.456Zm-3.084-5.038a4.1,4.1,0,1,1,4.1-4.1A4.106,4.106,0,0,1,63.991,16.978Z" transform="translate(-22.135 0)" fill="#001a58"/>
      <path id="Trazado_957876" data-name="Trazado 957876" d="M148.708,177.7h11.372a1.124,1.124,0,0,0,1.122-1.122v-5.733a1.124,1.124,0,0,0-1.122-1.122H148.708a1.124,1.124,0,0,0-1.122,1.122v5.733A1.124,1.124,0,0,0,148.708,177.7Zm.481-6.375H159.6v4.771h-10.41Z" transform="translate(-134.175 -151.577)" fill="#001a58"/>
      <path id="Trazado_957877" data-name="Trazado 957877" d="M151.3,275.593a3.8,3.8,0,0,0,3.473-2.267h2.3v2.433a1.124,1.124,0,0,0,1.122,1.122h11.372a1.124,1.124,0,0,0,1.122-1.122v-5.733a1.124,1.124,0,0,0-1.122-1.122h-2.022a.8.8,0,1,0,0,1.6h1.541v4.771h-10.41v-1.952h1.037a1.416,1.416,0,0,0,1.415-1.415v-1.4H163.8a.8.8,0,1,0,0-1.6h-2.676v-3.734a1.416,1.416,0,0,0-1.415-1.415H152.97a1.416,1.416,0,0,0-1.415,1.415v2.844c-.086-.006-.172-.009-.26-.009a3.795,3.795,0,0,0,0,7.59Zm1.863-10.235h6.365v6.365h-6.365Zm-1.863,4.249a2.189,2.189,0,0,1,.26.016v2.289a1.416,1.416,0,0,0,1.311,1.409,2.19,2.19,0,1,1-1.57-3.714Z" transform="translate(-134.099 -235.559)" fill="#001a58"/>
      <path id="Trazado_957878" data-name="Trazado 957878" d="M391.618,101.035a2.641,2.641,0,1,0-2.641-2.641A2.644,2.644,0,0,0,391.618,101.035Zm0-3.678a1.037,1.037,0,1,1-1.037,1.037A1.038,1.038,0,0,1,391.618,97.357Z" transform="translate(-349.763 -85.518)" fill="#001a58"/>
      <circle id="Elipse_13537" data-name="Elipse 13537" cx="0.802" cy="0.802" r="0.802" transform="translate(19.663 33.957)" fill="#001a58"/>
      <circle id="Elipse_13538" data-name="Elipse 13538" cx="0.802" cy="0.802" r="0.802" transform="translate(21.44 32.179)" fill="#001a58"/>
      <circle id="Elipse_13539" data-name="Elipse 13539" cx="0.802" cy="0.802" r="0.802" transform="translate(23.218 30.402)" fill="#001a58"/>
      <path id="Trazado_957879" data-name="Trazado 957879" d="M293.434,223.461a1.123,1.123,0,0,0,1.587,0l1.714-1.714a1.123,1.123,0,0,0,0-1.587l-2.994-2.994a1.124,1.124,0,0,0-1.588,0l-1.714,1.714a1.124,1.124,0,0,0,0,1.587Zm-.487-4.821,2.314,2.314-1.033,1.033-2.314-2.314Z" transform="translate(-261.465 -193.658)" fill="#001a58"/>
    </g>
  </g>
</svg>
