<svg xmlns="http://www.w3.org/2000/svg" width="120" height="120" viewBox="0 0 120 120">
  <g id="Grupo_1115860" data-name="Grupo 1115860" transform="translate(-64 -6445)">
    <rect id="Rect치ngulo_402033" data-name="Rect치ngulo 402033" width="120" height="120" rx="8" transform="translate(64 6445)" fill="#0042db"/>
    <g id="Rect치ngulo_412110" data-name="Rect치ngulo 412110" transform="translate(69 6450)" fill="none" stroke="#fff" stroke-width="1">
      <rect width="110" height="110" rx="6" stroke="none"/>
      <rect x="0.5" y="0.5" width="109" height="109" rx="5.5" fill="none"/>
    </g>
    <g id="Grupo_1116126" data-name="Grupo 1116126" transform="translate(76.021 6444.343)">
      <g id="Grupo_1116125" data-name="Grupo 1116125" transform="translate(9.273 24.383)">
        <g id="Grupo_1116121" data-name="Grupo 1116121" transform="translate(30.767 0)">
          <path id="Trazado_957297" data-name="Trazado 957297" d="M231.807,34.54a17.821,17.821,0,0,1,5.217,2.163l3.39-1.506,4,4L242.9,42.582a17.816,17.816,0,0,1,2.163,5.219l3.459,1.331v5.651l-3.46,1.332a17.818,17.818,0,0,1-2.163,5.217l1.506,3.39-4,4-3.389-1.505a17.816,17.816,0,0,1-5.219,2.163l-1.331,3.459h-5.651l-1.332-3.46a17.821,17.821,0,0,1-5.217-2.163l-3.39,1.506-4-4,1.505-3.389a17.818,17.818,0,0,1-2.163-5.219l-3.459-1.331V49.132l3.459-1.332a17.818,17.818,0,0,1,2.163-5.218l-1.506-3.39,4-4,3.39,1.506a17.819,17.819,0,0,1,5.217-2.163l1.332-3.46h5.651Z" transform="translate(-206.772 -31.08)" fill="#ffe177" fill-rule="evenodd"/>
          <path id="Trazado_957298" data-name="Trazado 957298" d="M257.752,67.213l-3.39,1.506-.522-.522,3.179-1.412Q257.381,67.008,257.752,67.213Zm13.531-32.672A17.821,17.821,0,0,1,276.5,36.7l-.964.428a23.5,23.5,0,0,0-5.951-2.591l-1.332-3.46h1.7ZM276.5,67.213a17.816,17.816,0,0,1-5.219,2.163l-1.331,3.459h-1.7l1.331-3.459a23.488,23.488,0,0,0,5.952-2.591ZM253.84,35.72l.522-.522,3.39,1.506q-.372.205-.734.428Zm24.876,0,1.175-.522,4,4-1.505,3.389a17.815,17.815,0,0,1,2.163,5.219L288,49.133v5.651l-3.46,1.332a17.817,17.817,0,0,1-2.163,5.217l1.506,3.39-4,4-1.175-.522,3.474-3.474-1.506-3.39a17.817,17.817,0,0,0,2.163-5.217l3.46-1.332V49.133L282.848,47.8a17.818,17.818,0,0,0-2.163-5.219l1.505-3.389Z" transform="translate(-246.249 -31.081)" fill="#ffd064" fill-rule="evenodd"/>
          <circle id="Elipse_13512" data-name="Elipse 13512" cx="11.301" cy="11.301" r="11.301" transform="translate(4.89 20.88) rotate(-45)" fill="#eceff1"/>
          <path id="Trazado_957299" data-name="Trazado 957299" d="M277.454,90.459a11.3,11.3,0,0,0,0,22.6q.454,0,.9-.035a11.3,11.3,0,0,1,0-22.531q-.445-.035-.9-.035Z" transform="translate(-256.576 -80.883)" fill="#d1d1d6" fill-rule="evenodd"/>
        </g>
        <g id="Grupo_1116122" data-name="Grupo 1116122" transform="translate(0 39.691)">
          <path id="Trazado_957300" data-name="Trazado 957300" d="M49.354,288.119l15.121-8.761c2.838-1.644,5.724-2.81,8.843-1.8,3.478,1.128,9.157,3.55,14.948,4.594a4.2,4.2,0,0,1,2.905,5.032c-.585,2.183-2.429,3.308-5.032,2.906l2.025.324a9.425,9.425,0,0,0,6.481-1.129l14.538-8.468c11.3-6.582,12.961,3.544,9.2,5.857L92,302.922a9.675,9.675,0,0,1-7.834,1.1L65.032,298.9l-7.087,4.092a2.862,2.862,0,0,1-3.9-1.046l-5.731-9.926a2.862,2.862,0,0,1,1.042-3.9Z" transform="translate(-42.781 -277.182)" fill="#f6dccd" fill-rule="evenodd"/>
          <path id="Trazado_957301" data-name="Trazado 957301" d="M49.354,288.119l15.121-8.761c2.838-1.644,5.724-2.81,8.843-1.8,1.86.6,4.351,1.577,7.152,2.512L51.178,296.984l-2.866-4.965a2.862,2.862,0,0,1,1.042-3.9Z" transform="translate(-42.781 -277.182)" fill="#f1cbbc" fill-rule="evenodd"/>
          <path id="Trazado_957302" data-name="Trazado 957302" d="M24.081,309.767l11.992,21.19a2.147,2.147,0,0,1-.809,2.917l-4.079,2.309a2.147,2.147,0,0,1-2.917-.808l-11.992-21.19a2.147,2.147,0,0,1,.809-2.917l4.079-2.309a2.147,2.147,0,0,1,2.917.809Z" transform="translate(-16.001 -303.602)" fill="#d1d1d6" fill-rule="evenodd"/>
          <path id="Trazado_957303" data-name="Trazado 957303" d="M59.448,324.327l2.123,3.75,2.1,3.709a2.147,2.147,0,0,1-.8,2.914l1.457-.825a2.147,2.147,0,0,0,.808-2.917l-2.106-3.721L58.8,319.765l-4.234-7.481-1.424-2.516a2.149,2.149,0,0,0-2.493-.991l2.465,4.355,4.229,7.472,2.106,3.721Z" transform="translate(-45.059 -303.603)" fill="#b1b1b5" fill-rule="evenodd"/>
        </g>
        <g id="Grupo_1116123" data-name="Grupo 1116123" transform="translate(43.622 12.762)">
          <circle id="Elipse_13513" data-name="Elipse 13513" cx="3.99" cy="3.99" r="3.99" transform="translate(2.827 7.374) rotate(-67.486)" fill="#f6dccd"/>
          <path id="Trazado_957304" data-name="Trazado 957304" d="M286.482,171.739a11.965,11.965,0,0,0,16.045,0,8.357,8.357,0,0,0-16.045,0Z" transform="translate(-286.482 -156.771)" fill="#9bc9ff" fill-rule="evenodd"/>
          <path id="Trazado_957305" data-name="Trazado 957305" d="M334.011,117.805a3.99,3.99,0,1,1-.426,7.958,3.99,3.99,0,0,0,0-7.935A4.037,4.037,0,0,1,334.011,117.805Z" transform="translate(-325.988 -116.581)" fill="#f1cbbc" fill-rule="evenodd"/>
          <path id="Trazado_957306" data-name="Trazado 957306" d="M310.049,172.324q.36-.279.7-.584a8.356,8.356,0,0,0-14.464-2.98,8.356,8.356,0,0,1,13.766,3.564Z" transform="translate(-294.702 -156.772)" fill="#60b7ff" fill-rule="evenodd"/>
        </g>
        <g id="Grupo_1116124" data-name="Grupo 1116124" transform="translate(48.061 23.217)">
          <path id="Trazado_957307" data-name="Trazado 957307" d="M330.623,177.333a11.834,11.834,0,0,1,3.463,1.436l2.25-1,2.652,2.652-1,2.25a11.821,11.821,0,0,1,1.436,3.464l2.3.884v3.751l-2.3.884a11.83,11.83,0,0,1-1.436,3.463l1,2.25-2.652,2.653-2.25-1a11.822,11.822,0,0,1-3.464,1.436l-.884,2.3h-3.751l-.884-2.3a11.825,11.825,0,0,1-3.463-1.436l-2.25,1-2.653-2.652,1-2.25a11.826,11.826,0,0,1-1.436-3.464l-2.3-.884V187.02l2.3-.884a11.827,11.827,0,0,1,1.436-3.464l-1-2.25,2.652-2.653,2.25,1a11.825,11.825,0,0,1,3.463-1.436l.884-2.3h3.751Z" transform="translate(-314.005 -175.037)" fill="#a79ba7" fill-rule="evenodd"/>
          <path id="Trazado_957308" data-name="Trazado 957308" d="M347.846,199.022l-2.25,1-.347-.347,2.11-.937Q347.6,198.886,347.846,199.022Zm8.982-21.688a11.834,11.834,0,0,1,3.463,1.436l-.64.284a15.6,15.6,0,0,0-3.95-1.72l-.884-2.3h1.127Zm3.464,21.688a11.822,11.822,0,0,1-3.464,1.436l-.884,2.3h-1.127l.884-2.3a15.59,15.59,0,0,0,3.951-1.72Zm-15.043-20.906.347-.346,2.25,1q-.247.136-.487.284Zm16.513,0,.78-.346,2.652,2.652-1,2.25a11.821,11.821,0,0,1,1.436,3.464l2.3.884v3.751l-2.3.884a11.83,11.83,0,0,1-1.436,3.463l1,2.25-2.652,2.653-.78-.347,2.306-2.306-1-2.25a11.831,11.831,0,0,0,1.436-3.463l2.3-.884V187.02l-2.3-.884a11.83,11.83,0,0,0-1.436-3.464l1-2.25Z" transform="translate(-340.21 -175.037)" fill="#837683" fill-rule="evenodd"/>
          <circle id="Elipse_13514" data-name="Elipse 13514" cx="7.502" cy="7.502" r="7.502" transform="translate(4.08 17.923) rotate(-67.486)" fill="#eceff1"/>
          <path id="Trazado_957309" data-name="Trazado 957309" d="M360.924,214.453a7.5,7.5,0,0,0,0,15q.3,0,.6-.024a7.5,7.5,0,0,1,0-14.956Q361.225,214.453,360.924,214.453Z" transform="translate(-347.065 -208.096)" fill="#d1d1d6" fill-rule="evenodd"/>
        </g>
      </g>
      <path id="Trazado_957310" data-name="Trazado 957310" d="M66.8,57.067a6.212,6.212,0,1,1,0,8.784,6.218,6.218,0,0,1,0-8.784Zm4.393,13.18a8.788,8.788,0,1,0-6.217-2.571A8.765,8.765,0,0,0,71.19,70.248ZM16.254,74.641A1.456,1.456,0,1,1,14.6,73.41,1.455,1.455,0,0,1,16.254,74.641ZM84.2,72.475a3.306,3.306,0,0,0,1.07-3.518,2.736,2.736,0,0,0-2.093-2.031c-.129.282-.264.561-.413.835l.73,1.647a1.289,1.289,0,0,1-.266,1.437L80.576,73.5a1.291,1.291,0,0,1-1.436.268l-1.648-.733A13.063,13.063,0,0,1,74.918,74.1l-.648,1.684a1.29,1.29,0,0,1-1.2.827H69.315a1.292,1.292,0,0,1-1.2-.827L67.463,74.1c-.042-.013-.08-.027-.121-.039L61.782,77.3a10.4,10.4,0,0,1-5.345,1.451,12.754,12.754,0,0,1-1.99-.162l-1.807-.3a.088.088,0,0,1-.026,0l-.026,0c-2.258-.461-4.353-1.061-6.572-1.7C45,76.3,43.958,76,42.894,75.717a1.29,1.29,0,1,1,.668-2.492c1.085.291,2.141.592,3.162.884,2.153.614,4.188,1.195,6.33,1.635,1.261.145,2.848-.092,3.358-1.995a2.891,2.891,0,0,0-1.98-3.447,75.291,75.291,0,0,1-11.944-3.537c-1.179-.427-2.2-.795-3.082-1.082-2.752-.893-5.375.284-7.8,1.688L20.766,73.646l7.2,12.714,2.91-1.679a1.288,1.288,0,0,1,.978-.129L50.99,89.68a8.4,8.4,0,0,0,6.824-.958ZM28.3,92.707a.844.844,0,0,0-.077-.645L16.229,70.869a.861.861,0,0,0-.748-.428.834.834,0,0,0-.411.107l-4.079,2.309a.862.862,0,0,0-.321,1.159L22.663,95.208a.862.862,0,0,0,1.159.321l4.08-2.31A.844.844,0,0,0,28.3,92.707ZM61.6,69.647l1.4,1.4,1.439-.638a1.286,1.286,0,0,1,1.2.08,10.514,10.514,0,0,0,3.088,1.277,1.291,1.291,0,0,1,.9.792l.566,1.47h1.979l.568-1.47a1.279,1.279,0,0,1,.9-.792,10.534,10.534,0,0,0,3.087-1.277,1.29,1.29,0,0,1,1.2-.08l1.439.638,1.4-1.4-.639-1.44a1.29,1.29,0,0,1,.081-1.2A10.536,10.536,0,0,0,81.5,63.921a1.292,1.292,0,0,1,.792-.906l1.471-.566V60.47L82.286,59.9A1.292,1.292,0,0,1,81.5,59a10.562,10.562,0,0,0-1.277-3.087,1.286,1.286,0,0,1-.081-1.2l.639-1.439-1.4-1.4-1.439.639a1.292,1.292,0,0,1-1.2-.08,10.5,10.5,0,0,0-3.087-1.278,1.292,1.292,0,0,1-.906-.792l-.566-1.471H70.2l-.566,1.472a1.292,1.292,0,0,1-.906.792,10.486,10.486,0,0,0-3.085,1.277,1.289,1.289,0,0,1-1.2.08L63,51.873l-1.4,1.4.64,1.439a1.29,1.29,0,0,1-.08,1.2A10.544,10.544,0,0,0,60.885,59a1.289,1.289,0,0,1-.792.906l-1.47.566v1.98l1.47.566a1.288,1.288,0,0,1,.792.906,10.542,10.542,0,0,0,1.278,3.086,1.291,1.291,0,0,1,.08,1.2Zm6.506-22.51-.369.961a9.111,9.111,0,0,0-2.929-2.177,5.28,5.28,0,1,0-7.791,0,9.16,9.16,0,0,0-4.555,4.716,10.013,10.013,0,1,1,18.46-5.377,9.856,9.856,0,0,1-.055,1.049H69.315a1.291,1.291,0,0,0-1.2.827Zm-7.194-2.076a2.7,2.7,0,1,0-2.7-2.7A2.7,2.7,0,0,0,60.916,45.061ZM58.885,53.51a1.29,1.29,0,0,1,.268-1.436L61.8,49.422a1.291,1.291,0,0,1,1.437-.266l1.649.732c.219-.12.442-.232.667-.339a6.6,6.6,0,0,0-11.109,3.361A9.951,9.951,0,0,0,59.6,55.185l.015-.027Zm-2.018,4.87,1.685-.648c.01-.032.021-.063.031-.1A12.592,12.592,0,1,1,73.506,45.262c0,.37-.019.741-.052,1.109a1.29,1.29,0,0,1,.815.767l.648,1.684a13.1,13.1,0,0,1,2.034.789q.068-.245.126-.49a1.291,1.291,0,0,1,.792-.906L80.5,47.2V43.322l-2.63-1.013a1.288,1.288,0,0,1-.792-.9,16.539,16.539,0,0,0-2.008-4.841,1.291,1.291,0,0,1-.08-1.2l1.146-2.58-2.743-2.742-2.581,1.146a1.291,1.291,0,0,1-1.2-.08A16.519,16.519,0,0,0,64.774,29.1a1.286,1.286,0,0,1-.9-.792l-1.014-2.633H58.976l-1.013,2.633a1.292,1.292,0,0,1-.906.792,16.5,16.5,0,0,0-4.839,2.006,1.294,1.294,0,0,1-1.2.08l-2.58-1.146-2.742,2.742,1.145,2.581a1.287,1.287,0,0,1-.081,1.2A16.513,16.513,0,0,0,44.752,41.4a1.287,1.287,0,0,1-.792.906l-2.632,1.013V47.2l2.632,1.013a1.288,1.288,0,0,1,.792.9,16.509,16.509,0,0,0,2.006,4.841,1.291,1.291,0,0,1,.081,1.2L45.694,57.74l2.742,2.743,2.582-1.146a1.291,1.291,0,0,1,1.2.08,16.5,16.5,0,0,0,3.824,1.728V59.584a1.292,1.292,0,0,1,.826-1.2Zm30.9,9.909a5.22,5.22,0,0,0-2.9-3.5l.648-.25a1.291,1.291,0,0,0,.827-1.2V59.584a1.29,1.29,0,0,0-.827-1.2l-1.684-.648a12.967,12.967,0,0,0-1.066-2.573l.732-1.648a1.288,1.288,0,0,0-.266-1.436l-2.28-2.28,1.308-.5a1.29,1.29,0,0,0,.826-1.2V42.436a1.289,1.289,0,0,0-.826-1.2L79.418,40.14a19.091,19.091,0,0,0-1.8-4.338l1.235-2.781a1.289,1.289,0,0,0-.267-1.436l-4-4a1.289,1.289,0,0,0-1.435-.267l-2.784,1.236a19.058,19.058,0,0,0-4.335-1.8l-1.093-2.84a1.29,1.29,0,0,0-1.2-.826H58.091a1.289,1.289,0,0,0-1.2.826l-1.092,2.84a19.076,19.076,0,0,0-4.337,1.8l-2.781-1.236a1.291,1.291,0,0,0-1.437.267l-4,4a1.293,1.293,0,0,0-.268,1.436L44.213,35.8a19,19,0,0,0-1.8,4.337l-2.838,1.092a1.289,1.289,0,0,0-.827,1.2v5.651a1.29,1.29,0,0,0,.827,1.2l2.838,1.092a19.057,19.057,0,0,0,1.8,4.338L42.975,57.5a1.293,1.293,0,0,0,.268,1.436l4,4a1.292,1.292,0,0,0,1.437.267l2.781-1.236a19.086,19.086,0,0,0,4.7,1.89,1.288,1.288,0,0,0,.714.684l1.684.648a13.114,13.114,0,0,0,1.064,2.573l-.732,1.649a1.291,1.291,0,0,0,.268,1.437L61.8,73.5a1.3,1.3,0,0,0,.75.365l-2.072,1.206a7.9,7.9,0,0,1-2.243.9,5.7,5.7,0,0,0,.666-1.555,5.508,5.508,0,0,0-3.754-6.593,1.249,1.249,0,0,0-.17-.043,72.8,72.8,0,0,1-11.617-3.443c-1.152-.416-2.239-.809-3.162-1.109-3.723-1.208-7.088.287-9.89,1.909L19.495,71.4l-1.019-1.8A3.437,3.437,0,0,0,13.8,68.3L9.72,70.61a3.437,3.437,0,0,0-1.3,4.678L20.417,96.479a3.405,3.405,0,0,0,2.071,1.613,3.448,3.448,0,0,0,.925.128,3.391,3.391,0,0,0,1.68-.446l4.08-2.308a3.439,3.439,0,0,0,1.3-4.675l-1.236-2.185L31.7,87.182l18.621,4.99a11.929,11.929,0,0,0,3.095.423,10.813,10.813,0,0,0,5.752-1.675L85.552,74.671a5.781,5.781,0,0,0,2.211-6.382Z" fill="#242222" fill-rule="evenodd"/>
    </g>
  </g>
</svg>
