<svg xmlns="http://www.w3.org/2000/svg" width="120" height="120" viewBox="0 0 120 120">
  <g id="Grupo_1115893" data-name="Grupo 1115893" transform="translate(-64 -6445)">
    <rect id="Rect치ngulo_402033" data-name="Rect치ngulo 402033" width="120" height="120" rx="8" transform="translate(64 6445)" fill="#0042db"/>
    <g id="Rect치ngulo_412110" data-name="Rect치ngulo 412110" transform="translate(69 6450)" fill="none" stroke="#fff" stroke-width="1">
      <rect width="110" height="110" rx="6" stroke="none"/>
      <rect x="0.5" y="0.5" width="109" height="109" rx="5.5" fill="none"/>
    </g>
    <g id="Grupo_1116299" data-name="Grupo 1116299" transform="translate(49.275 6464.571)">
      <g id="Grupo_1116297" data-name="Grupo 1116297" transform="translate(41.913 1.186)">
        <path id="Trazado_957578" data-name="Trazado 957578" d="M53.064,443.149a4.843,4.843,0,0,0,0,9.687h4.818l5.874-9.687H53.064Z" transform="translate(-48.228 -374.351)" fill="#ffc697"/>
        <path id="Trazado_957579" data-name="Trazado 957579" d="M134.8,7.509V81.15a4.84,4.84,0,0,1-4.837,4.844H78.85a4.842,4.842,0,0,0,4.837-4.844v-68.8a4.84,4.84,0,0,1,4.836-4.844Z" transform="translate(-74.014 -7.509)" fill="#fff7d7"/>
        <path id="Trazado_957580" data-name="Trazado 957580" d="M131.012,7.509h3.79V81.15a4.84,4.84,0,0,1-4.837,4.844H78.85a4.838,4.838,0,0,0,4.755-3.954h42.57a4.84,4.84,0,0,0,4.837-4.844Z" transform="translate(-74.014 -7.509)" fill="#ffe5b6"/>
        <path id="Trazado_957581" data-name="Trazado 957581" d="M186.379,7.511H140.1a4.843,4.843,0,0,1,0,9.687h46.279a4.843,4.843,0,0,0,0-9.687Z" transform="translate(-125.59 -7.511)" fill="#ffc697"/>
        <path id="Trazado_957582" data-name="Trazado 957582" d="M340.693,393a4.45,4.45,0,0,1-4.446,4.454,4.4,4.4,0,0,1-1.687-.332,4.457,4.457,0,0,1,0-8.243,4.4,4.4,0,0,1,1.687-.332A4.45,4.45,0,0,1,340.693,393Z" transform="translate(-287.017 -328.373)" fill="#ff394c"/>
        <path id="Trazado_957583" data-name="Trazado 957583" d="M355.412,393a4.45,4.45,0,0,1-4.446,4.454,4.4,4.4,0,0,1-1.687-.332,4.457,4.457,0,0,0,0-8.243,4.4,4.4,0,0,1,1.687-.332A4.45,4.45,0,0,1,355.412,393Z" transform="translate(-301.737 -328.373)" fill="#e81a5a"/>
      </g>
      <g id="Grupo_1116298" data-name="Grupo 1116298" transform="translate(40.729)">
        <path id="Trazado_957584" data-name="Trazado 957584" d="M108.722,6.03A6.032,6.032,0,0,0,102.7,0H56.422A6.032,6.032,0,0,0,50.4,6.03V68.8H46.75a6.03,6.03,0,0,0,0,12.059H59.738a1.186,1.186,0,0,0,0-2.372h-8.2a6.005,6.005,0,0,0,1.237-3.657V6.03a3.652,3.652,0,1,1,3.652,3.657,1.186,1.186,0,0,0,0,2.372H88.759a1.186,1.186,0,0,0,0-2.372H61.206a6.025,6.025,0,0,0,0-7.314h41.5a3.657,3.657,0,0,1,0,7.314H94.286a1.186,1.186,0,0,0,0,2.372h7.231V74.828a3.659,3.659,0,0,1-3.652,3.657H65.254a1.186,1.186,0,0,0,0,2.372H97.865a6.032,6.032,0,0,0,6.021-6.03V11.942a6.037,6.037,0,0,0,4.836-5.912ZM43.1,74.828a3.659,3.659,0,0,1,3.652-3.657H50.4v3.657a3.652,3.652,0,1,1-7.3,0Z" transform="translate(-40.729)"/>
        <path id="Trazado_957585" data-name="Trazado 957585" d="M144.784,127.807h8.137a1.186,1.186,0,0,0,0-2.372h-8.137a1.186,1.186,0,0,0,0,2.372Z" transform="translate(-127.354 -105.626)"/>
        <path id="Trazado_957586" data-name="Trazado 957586" d="M144.784,162.859h37.431a1.186,1.186,0,0,0,0-2.372H144.784a1.186,1.186,0,0,0,0,2.372Z" transform="translate(-127.354 -135.142)"/>
        <path id="Trazado_957587" data-name="Trazado 957587" d="M340.109,195.459H332.29a1.186,1.186,0,0,0,0,2.372h7.819a1.186,1.186,0,0,0,0-2.372Z" transform="translate(-285.248 -164.591)"/>
        <path id="Trazado_957588" data-name="Trazado 957588" d="M144.784,197.831h24.148a1.186,1.186,0,0,0,0-2.372H144.784a1.186,1.186,0,0,0,0,2.372Z" transform="translate(-127.354 -164.591)"/>
        <path id="Trazado_957589" data-name="Trazado 957589" d="M144.784,252.686h8.137a1.186,1.186,0,0,0,0-2.372h-8.137a1.186,1.186,0,0,0,0,2.372Z" transform="translate(-127.354 -210.783)"/>
        <path id="Trazado_957590" data-name="Trazado 957590" d="M144.784,287.738h37.431a1.186,1.186,0,0,0,0-2.372H144.784a1.186,1.186,0,0,0,0,2.372Z" transform="translate(-127.354 -240.3)"/>
        <path id="Trazado_957591" data-name="Trazado 957591" d="M144.784,322.71H152.6a1.186,1.186,0,0,0,0-2.372h-7.819a1.186,1.186,0,0,0,0,2.372Z" transform="translate(-127.354 -269.749)"/>
        <path id="Trazado_957592" data-name="Trazado 957592" d="M253.038,320.338H228.889a1.186,1.186,0,0,0,0,2.372h24.148a1.186,1.186,0,0,0,0-2.372Z" transform="translate(-198.177 -269.749)"/>
        <path id="Trazado_957593" data-name="Trazado 957593" d="M329.933,381.04a5.64,5.64,0,1,0,5.631,5.639A5.642,5.642,0,0,0,329.933,381.04Zm0,8.906a3.267,3.267,0,1,1,3.262-3.267A3.268,3.268,0,0,1,329.933,389.947Z" transform="translate(-279.519 -320.864)"/>
        <path id="Trazado_957594" data-name="Trazado 957594" d="M144.784,394.12h10.029a1.186,1.186,0,0,0,0-2.372H144.784a1.186,1.186,0,0,0,0,2.372Z" transform="translate(-127.354 -329.881)"/>
        <path id="Trazado_957595" data-name="Trazado 957595" d="M144.784,429.1H162.71a1.186,1.186,0,0,0,0-2.372H144.784a1.186,1.186,0,0,0,0,2.372Z" transform="translate(-127.354 -359.338)"/>
      </g>
    </g>
  </g>
</svg>
