<svg xmlns="http://www.w3.org/2000/svg" width="80" height="80" viewBox="0 0 80 80">
  <g id="Grupo_1117858" data-name="Grupo 1117858" transform="translate(-340 -7994.062)">
    <rect id="Rectángulo_402033" data-name="Rectángulo 402033" width="80" height="80" rx="8" transform="translate(340 7994.062)" fill="#0042db"/>
    <path id="Trazado_960504" data-name="Trazado 960504" d="M89.284,92.324,85.765,92.3c-.036,0-.1.073-.1.121l.012,9.926c0,.036.061.073.109.073l3.519.024c.036,0,.1-.073.1-.121l-.012-9.914C89.4,92.36,89.344,92.324,89.284,92.324Zm-3.507-1.468,3.519.024a1.543,1.543,0,0,1,1.553,1.529c0,3.3.024,6.613.012,9.914a1.577,1.577,0,0,1-1.553,1.577c-1.177,0-2.354-.024-3.531-.024a1.558,1.558,0,0,1-1.371-.813c-3.434-.049-13.955.012-15.52-.158a.431.431,0,0,1-.121-.024c-2.718-.789-10.314-6.456-14.137-9.089-1.177-.813-1.662-1.966-.922-2.924.764-1,2.427-1.129,3.81-.655a1.9,1.9,0,0,1,1.456-1.4,4.333,4.333,0,0,1,3.373.68l.024.012,5.181,3.665a15.171,15.171,0,0,0,1.456.582c.655.243,1.444.522,2.2.752.813-.049,1.626-.121,2.391-.194,1.335-.121,2.451-.158,3.106-.194-.158-.085-.34-.182-.558-.316-.837-.546-2-1.213-3.276-1.905a3.7,3.7,0,0,1-2.318-2.682,2.127,2.127,0,0,1,1.177-2.208c.971-.522,2.548-.546,4.55.449a.265.265,0,0,1,.061.036c2.815,1.772,5.3,2.6,7.985,4.429a1.53,1.53,0,0,1,1.456-1.068Zm-1.541,10.751c-.012-2.645-.024-5.291-.012-7.948a28.711,28.711,0,0,0-4.757-2.779,41.372,41.372,0,0,1-3.883-2.124c-1.5-.74-2.6-.777-3.2-.461a.694.694,0,0,0-.413.752c.061.51.546,1.092,1.5,1.553l.073.036c1.311.716,2.5,1.4,3.373,1.966,1.129.728,2.014,1.5,1.626,2.2a.708.708,0,0,1-.789.352,25.358,25.358,0,0,1-4.053.619c-2.1.194-7.875.667-9.064-.012L57.43,91.729c-1.311-.68-2.633-.243-2.609.121.012.182.194.425.631.728.692.473,1.432,1,2.293,1.6,3.665,2.6,9.344,6.625,11.37,7.269C69.808,101.594,81.348,101.57,84.236,101.607ZM59.275,91.11,65.342,94.5a8.3,8.3,0,0,0,1.99.17,4.462,4.462,0,0,1-.631-.3l-5.145-3.64c-1.371-.886-2.585-.51-2.621-.206C58.923,90.637,59.02,90.843,59.275,91.11ZM84.757,74.389a5.315,5.315,0,1,1-5.3,5.315A5.313,5.313,0,0,1,84.757,74.389Zm2.718,2.585a3.853,3.853,0,1,0,0,5.448A3.852,3.852,0,0,0,87.476,76.973Zm-4.089-6.965h2.742a.73.73,0,0,1,.728.728v1.2a8.2,8.2,0,0,1,1.905.789l.849-.862a.74.74,0,0,1,1.031,0l1.942,1.942a.74.74,0,0,1,0,1.031l-.849.849a8.2,8.2,0,0,1,.789,1.905h1.2a.73.73,0,0,1,.728.728v2.742a.73.73,0,0,1-.728.728h-1.2a8.2,8.2,0,0,1-.789,1.905l.849.849a.74.74,0,0,1,0,1.031l-1.942,1.942a.718.718,0,0,1-1.031,0l-.849-.849a8.2,8.2,0,0,1-1.905.789v1.2a.73.73,0,0,1-.728.728H83.386a.73.73,0,0,1-.728-.728v-1.2a8.42,8.42,0,0,1-1.905-.789l-.849.849a.718.718,0,0,1-1.031,0l-1.942-1.942a.718.718,0,0,1,0-1.031l.849-.849a8.172,8.172,0,0,1-.461-.922,6.67,6.67,0,0,1-.328-.983h-1.2a.73.73,0,0,1-.728-.728V78.32a.73.73,0,0,1,.728-.728h1.2a7.3,7.3,0,0,1,.643-1.638A10.175,10.175,0,0,1,67.114,76c.036.218.085.437.121.655a2.034,2.034,0,0,1,2.014.546,2.161,2.161,0,0,1,.619,1.226,2.161,2.161,0,0,1,1.226.619,1.945,1.945,0,0,1,.036,2.839l-.631.631a6.705,6.705,0,0,1,.959,2.536,1.8,1.8,0,0,1-.5,1.4l-1.82,1.82a2.487,2.487,0,0,1-2.937.049l-1-.5-.631.631a1.945,1.945,0,0,1-2.839-.036,2.161,2.161,0,0,1-.619-1.226,2.121,2.121,0,0,1-1.772-2.645c-2.633-.449-5.412-1-7.414-2.985A8.707,8.707,0,0,1,62.151,67.7a10.218,10.218,0,1,1,18.918,4.854,5.944,5.944,0,0,1,.631-.291,6.671,6.671,0,0,1,.983-.328v-1.2A.7.7,0,0,1,83.386,70.008Zm-6.528,4.732a.737.737,0,0,1,.085-.934l1.942-1.942a.736.736,0,0,1,.946-.073,8.767,8.767,0,1,0-16.2-3.665c.024.218.049.437.085.643.17.146.352.315.522.473a9.906,9.906,0,0,1,2.439,4.648,8.832,8.832,0,0,0,2.548,1.5A8.685,8.685,0,0,0,76.858,74.741ZM85.4,71.464H84.114V72.52a.727.727,0,0,1-.595.716,7.054,7.054,0,0,0-1.274.376,6.406,6.406,0,0,0-1.141.607.723.723,0,0,1-.959-.061l-.752-.752-.91.91.752.752a.718.718,0,0,1,.085.922,6.516,6.516,0,0,0-1.007,2.415.734.734,0,0,1-.728.643H76.53v1.286h1.056a.737.737,0,0,1,.716.595,7.489,7.489,0,0,0,.376,1.286,5.757,5.757,0,0,0,.619,1.141.737.737,0,0,1-.061.959l-.752.752.91.91.752-.752a.718.718,0,0,1,.922-.085,6.6,6.6,0,0,0,2.415,1.007.734.734,0,0,1,.643.728v1.056h1.286V86.875a.727.727,0,0,1,.595-.716,6.549,6.549,0,0,0,2.427-1,.723.723,0,0,1,.959.061l.752.752.91-.91-.752-.752a.718.718,0,0,1-.085-.922,6.516,6.516,0,0,0,1.007-2.415.725.725,0,0,1,.728-.643h1.056V79.048H91.953a.727.727,0,0,1-.716-.595,6.549,6.549,0,0,0-1-2.427.723.723,0,0,1,.061-.959l.752-.752-.91-.91-.752.752a.718.718,0,0,1-.922.085,6.517,6.517,0,0,0-2.415-1.007.725.725,0,0,1-.643-.728V71.464ZM68.254,79.036a.518.518,0,0,0-.036-.789.526.526,0,0,0-.789-.036l-6.565,6.565c-.51.51.315,1.323.813.813Zm-7.912,4.223,1.238-1.25L57.321,77.75a.96.96,0,1,0,0,1.359.74.74,0,0,1,1.031,0,.718.718,0,0,1,0,1.031,2.418,2.418,0,1,1,0-3.422l4.259,4.259.74-.74-4.271-4.259a2.42,2.42,0,1,1,3.422,0,.729.729,0,0,1-1.031-1.031.967.967,0,0,0-.68-1.65.953.953,0,0,0-.959.959.975.975,0,0,0,.279.68l4.259,4.259,1.553-1.553c-.449-2.609-.9-5.533-2.73-7.366A7.25,7.25,0,1,0,52.941,80.529c1.857,1.869,4.781,2.281,7.4,2.73Zm9.077.364-3.143,3.143c.388.194,1.5.825,1.82.51l1.82-1.82C70.232,85.128,69.614,84.011,69.419,83.623Zm-.133-3.568L62.721,86.62a.5.5,0,0,0,.036.777.526.526,0,0,0,.789.036l6.565-6.565a.51.51,0,0,0-.036-.789A.536.536,0,0,0,69.286,80.056ZM45.332,69.9a.732.732,0,0,1-.352-.971.718.718,0,0,1,.959-.352l2.73,1.262a.732.732,0,0,1,.352.971.718.718,0,0,1-.959.352Zm7.523-7.669a.739.739,0,0,1,.437-.934.729.729,0,0,1,.934.437l1.031,2.827a.729.729,0,0,1-1.371.5ZM53.1,88.161a.732.732,0,0,1-.971.352.718.718,0,0,1-.352-.959l1.262-2.73a.73.73,0,0,1,1.323.619Zm-7.669-7.523a.729.729,0,1,1-.5-1.371l2.827-1.031a.729.729,0,0,1,.5,1.371ZM71.6,62.351v-.777a.728.728,0,0,1,1.456,0v.777a2.848,2.848,0,0,1,2.124,2.755.728.728,0,0,1-1.456,0,1.4,1.4,0,0,0-2.378-.983,1.375,1.375,0,0,0-.413.983c0,1.044.777,1.226,1.553,1.408,1.347.315,2.682.631,2.682,2.827A2.848,2.848,0,0,1,73.048,72.1v.777a.728.728,0,0,1-1.456,0V72.1a2.848,2.848,0,0,1-2.124-2.755.728.728,0,0,1,1.456,0,1.4,1.4,0,0,0,2.378.983,1.364,1.364,0,0,0,.4-.983c0-1.044-.777-1.226-1.553-1.408-1.347-.315-2.682-.643-2.682-2.827A2.912,2.912,0,0,1,71.6,62.351Z" transform="translate(310.547 7953.611)" fill="#fff"/>
  </g>
</svg>
