<svg xmlns="http://www.w3.org/2000/svg" width="400" height="245" viewBox="0 0 400 245">
  <g id="Grupo_1116282" data-name="Grupo 1116282" transform="translate(-179.711 -3564)">
    <path id="Rectángulo_415866" data-name="Rectángulo 415866" d="M20,0H380a20,20,0,0,1,20,20V228a0,0,0,0,1,0,0H0a0,0,0,0,1,0,0V20A20,20,0,0,1,20,0Z" transform="translate(179.711 3564)" fill="#ccd9f8"/>
    <rect id="Rectángulo_416099" data-name="Rectángulo 416099" width="400" height="63" transform="translate(179.711 3746)" fill="#99b3f1"/>
    <g id="_12810348_5063407" data-name="12810348_5063407" transform="translate(35.967 3553.654)">
      <g id="OBJECTS" transform="translate(194.99 39.862)">
        <g id="Grupo_1116281" data-name="Grupo 1116281">
          <g id="Grupo_1116130" data-name="Grupo 1116130" transform="translate(3.803)">
            <path id="Trazado_957368" data-name="Trazado 957368" d="M276.475,230.939c42.681,10.709,112.452,11.9,159.544-10.638,43.5-20.82,52.453-97.37,22.6-140.79C437.4,48.654,396.756,36.345,357.779,40.718c-45.99,5.159-58.191,36.962-88.709,59.811-18.989,14.216-57.772,10.718-65.1,52.2C195.632,200,247.008,223.544,276.475,230.939Z" transform="translate(-203.07 -39.862)" fill="#feefe6"/>
          </g>
          <g id="Grupo_1116169" data-name="Grupo 1116169" transform="translate(0 73.823)">
            <g id="Grupo_1116135" data-name="Grupo 1116135" transform="translate(226.543 15.371)">
              <g id="Grupo_1116132" data-name="Grupo 1116132">
                <path id="Trazado_957369" data-name="Trazado 957369" d="M676.25,330.083c5.475-94.974,46.786-106.667,53.272-98.674C743.112,248.148,695.926,300.554,676.25,330.083Z" transform="translate(-676.25 -229.345)" fill="#d49ba0"/>
                <g id="Grupo_1116131" data-name="Grupo 1116131" transform="translate(1.12 5.821)">
                  <path id="Trazado_957370" data-name="Trazado 957370" d="M726.282,241.71a222.526,222.526,0,0,0-47.652,94.16" transform="translate(-678.63 -241.71)" fill="none" stroke="#f2cdbf" stroke-linecap="round" stroke-miterlimit="10" stroke-width="1"/>
                  <path id="Trazado_957371" data-name="Trazado 957371" d="M753.97,243.44a41.638,41.638,0,0,1,2.165,12.352,68.612,68.612,0,0,1,13.439-1.53" transform="translate(-718.505 -242.626)" fill="none" stroke="#f2cdbf" stroke-linecap="round" stroke-miterlimit="10" stroke-width="1"/>
                  <path id="Trazado_957372" data-name="Trazado 957372" d="M720.19,278.41a52.509,52.509,0,0,1,5.672,14.489,73.323,73.323,0,0,1,15.991-1.624" transform="translate(-700.627 -261.134)" fill="none" stroke="#f2cdbf" stroke-linecap="round" stroke-miterlimit="10" stroke-width="1"/>
                  <path id="Trazado_957373" data-name="Trazado 957373" d="M696.91,329.12a69.305,69.305,0,0,1,5.578,10.695,40.062,40.062,0,0,1,16.056-2.895" transform="translate(-688.305 -287.974)" fill="none" stroke="#f2cdbf" stroke-linecap="round" stroke-miterlimit="10" stroke-width="1"/>
                  <path id="Trazado_957374" data-name="Trazado 957374" d="M703.663,370.041a34.048,34.048,0,0,0-9.961.744,31.983,31.983,0,0,0-3.573-7.645" transform="translate(-684.717 -305.979)" fill="none" stroke="#f2cdbf" stroke-linecap="round" stroke-miterlimit="10" stroke-width="1"/>
                </g>
              </g>
              <g id="Grupo_1116134" data-name="Grupo 1116134" transform="translate(0 47.063)">
                <path id="Trazado_957375" data-name="Trazado 957375" d="M676.25,383c30.362-48.344,69.122-64.273,70.882-46.8C749.575,360.386,697.211,376.174,676.25,383Z" transform="translate(-676.25 -329.325)" fill="#d49ba0"/>
                <g id="Grupo_1116133" data-name="Grupo 1116133" transform="translate(0.748 3.533)">
                  <path id="Trazado_957376" data-name="Trazado 957376" d="M743.149,347.55a256.961,256.961,0,0,0-65.309,44.71" transform="translate(-677.84 -342.504)" fill="none" stroke="#f2cdbf" stroke-linecap="round" stroke-miterlimit="10" stroke-width="1"/>
                  <path id="Trazado_957377" data-name="Trazado 957377" d="M797.25,336.83a40.479,40.479,0,0,1-.96,10.045,17.241,17.241,0,0,1,9.123,3.723" transform="translate(-740.532 -336.83)" fill="none" stroke="#f2cdbf" stroke-linecap="round" stroke-miterlimit="10" stroke-width="1"/>
                  <path id="Trazado_957378" data-name="Trazado 957378" d="M763.95,352.71a50.629,50.629,0,0,1,.734,10.77,27.316,27.316,0,0,1,12.616,4.458" transform="translate(-723.416 -345.235)" fill="none" stroke="#f2cdbf" stroke-linecap="round" stroke-miterlimit="10" stroke-width="1"/>
                  <path id="Trazado_957379" data-name="Trazado 957379" d="M731.41,376.38a19.845,19.845,0,0,1,1.685,8.892,26.754,26.754,0,0,1,11.778,3.808" transform="translate(-706.193 -357.763)" fill="none" stroke="#f2cdbf" stroke-linecap="round" stroke-miterlimit="10" stroke-width="1"/>
                </g>
              </g>
            </g>
            <g id="Grupo_1116159" data-name="Grupo 1116159" transform="translate(173.284 25.419)">
              <g id="Grupo_1116144" data-name="Grupo 1116144" transform="translate(0 14.819)">
                <rect id="Rectángulo_416081" data-name="Rectángulo 416081" width="67.314" height="7.061" fill="#f2cdbf"/>
                <g id="Grupo_1116136" data-name="Grupo 1116136" transform="translate(1.982 7.061)">
                  <path id="Trazado_957380" data-name="Trazado 957380" d="M630.666,297.17v68.811H624.7v-3.766H573.261v3.766H567.32V297.17Z" transform="translate(-567.32 -297.17)" fill="#f2cdbf"/>
                  <rect id="Rectángulo_416082" data-name="Rectángulo 416082" width="63.341" height="1.412" fill="#d4a59b"/>
                </g>
                <g id="Grupo_1116143" data-name="Grupo 1116143" transform="translate(7.8 11.815)">
                  <g id="Grupo_1116138" data-name="Grupo 1116138">
                    <g id="Grupo_1116137" data-name="Grupo 1116137">
                      <rect id="Rectángulo_416083" data-name="Rectángulo 416083" width="50.486" height="15.299" transform="translate(0.518 1.412)" fill="#d4a59b"/>
                      <rect id="Rectángulo_416084" data-name="Rectángulo 416084" width="51.521" height="15.299" fill="#faded2"/>
                    </g>
                  </g>
                  <g id="Grupo_1116140" data-name="Grupo 1116140" transform="translate(0 19.3)">
                    <g id="Grupo_1116139" data-name="Grupo 1116139">
                      <rect id="Rectángulo_416085" data-name="Rectángulo 416085" width="50.486" height="15.299" transform="translate(0.518 1.412)" fill="#d4a59b"/>
                      <rect id="Rectángulo_416086" data-name="Rectángulo 416086" width="51.521" height="15.299" fill="#faded2"/>
                    </g>
                  </g>
                  <g id="Grupo_1116142" data-name="Grupo 1116142" transform="translate(0 38.6)">
                    <g id="Grupo_1116141" data-name="Grupo 1116141">
                      <rect id="Rectángulo_416087" data-name="Rectángulo 416087" width="50.486" height="15.299" transform="translate(0.518 1.412)" fill="#d4a59b"/>
                      <rect id="Rectángulo_416088" data-name="Rectángulo 416088" width="51.521" height="15.299" fill="#faded2"/>
                    </g>
                  </g>
                </g>
              </g>
              <g id="Grupo_1116158" data-name="Grupo 1116158" transform="translate(11.707)">
                <g id="Grupo_1116155" data-name="Grupo 1116155" transform="translate(4.274)">
                  <g id="Grupo_1116146" data-name="Grupo 1116146">
                    <g id="Grupo_1116145" data-name="Grupo 1116145">
                      <path id="Trazado_957381" data-name="Trazado 957381" d="M598.19,262.839V252.13h2.942v10.709a1.294,1.294,0,0,1-1.294,1.294h-.353A1.294,1.294,0,0,1,598.19,262.839Z" transform="translate(-597.658 -251.452)" fill="#fff"/>
                      <path id="Trazado_957382" data-name="Trazado 957382" d="M597.06,251.029h0a.34.34,0,0,1,.339-.339h3.328a.341.341,0,0,1,.339.339h0a.341.341,0,0,1-.339.339H597.4A.344.344,0,0,1,597.06,251.029Z" transform="translate(-597.06 -250.69)" fill="#fff"/>
                    </g>
                    <path id="Trazado_957383" data-name="Trazado 957383" d="M599.19,266.634v-7h2v7a1,1,0,0,1-1,1h0A1,1,0,0,1,599.19,266.634Z" transform="translate(-598.187 -255.422)" fill="#f0d3d8"/>
                  </g>
                  <g id="Grupo_1116148" data-name="Grupo 1116148" transform="translate(5.884)">
                    <g id="Grupo_1116147" data-name="Grupo 1116147">
                      <path id="Trazado_957384" data-name="Trazado 957384" d="M610.69,262.839V252.13h2.942v10.709a1.294,1.294,0,0,1-1.295,1.294h-.353A1.294,1.294,0,0,1,610.69,262.839Z" transform="translate(-610.158 -251.452)" fill="#fff"/>
                      <path id="Trazado_957385" data-name="Trazado 957385" d="M609.56,251.029h0a.341.341,0,0,1,.339-.339h3.328a.34.34,0,0,1,.339.339h0a.341.341,0,0,1-.339.339H609.9A.344.344,0,0,1,609.56,251.029Z" transform="translate(-609.56 -250.69)" fill="#fff"/>
                    </g>
                    <path id="Trazado_957386" data-name="Trazado 957386" d="M611.69,266.634v-7h2v7a1,1,0,0,1-1,1h0A1,1,0,0,1,611.69,266.634Z" transform="translate(-610.687 -255.422)" fill="#f0d3d8"/>
                  </g>
                  <g id="Grupo_1116150" data-name="Grupo 1116150" transform="translate(12.121)">
                    <g id="Grupo_1116149" data-name="Grupo 1116149">
                      <path id="Trazado_957387" data-name="Trazado 957387" d="M623.94,262.839V252.13h2.942v10.709a1.294,1.294,0,0,1-1.294,1.294h-.353A1.294,1.294,0,0,1,623.94,262.839Z" transform="translate(-623.408 -251.452)" fill="#fff"/>
                      <path id="Trazado_957388" data-name="Trazado 957388" d="M622.81,251.029h0a.34.34,0,0,1,.339-.339h3.328a.341.341,0,0,1,.339.339h0a.341.341,0,0,1-.339.339h-3.328A.344.344,0,0,1,622.81,251.029Z" transform="translate(-622.81 -250.69)" fill="#fff"/>
                    </g>
                    <path id="Trazado_957389" data-name="Trazado 957389" d="M624.94,266.634v-7h2v7a1,1,0,0,1-1,1h0A1,1,0,0,1,624.94,266.634Z" transform="translate(-623.937 -255.422)" fill="#f0d3d8"/>
                  </g>
                  <g id="Grupo_1116152" data-name="Grupo 1116152" transform="translate(18.476)">
                    <g id="Grupo_1116151" data-name="Grupo 1116151">
                      <path id="Trazado_957390" data-name="Trazado 957390" d="M637.44,262.839V252.13h2.942v10.709a1.294,1.294,0,0,1-1.294,1.294h-.353A1.294,1.294,0,0,1,637.44,262.839Z" transform="translate(-636.908 -251.452)" fill="#fff"/>
                      <path id="Trazado_957391" data-name="Trazado 957391" d="M636.31,251.029h0a.34.34,0,0,1,.339-.339h3.328a.341.341,0,0,1,.339.339h0a.341.341,0,0,1-.339.339h-3.328A.344.344,0,0,1,636.31,251.029Z" transform="translate(-636.31 -250.69)" fill="#fff"/>
                    </g>
                    <path id="Trazado_957392" data-name="Trazado 957392" d="M638.44,266.634v-7h2v7a1,1,0,0,1-1,1h0A1,1,0,0,1,638.44,266.634Z" transform="translate(-637.437 -255.422)" fill="#f0d3d8"/>
                  </g>
                  <g id="Grupo_1116154" data-name="Grupo 1116154" transform="translate(25.302)">
                    <g id="Grupo_1116153" data-name="Grupo 1116153">
                      <path id="Trazado_957393" data-name="Trazado 957393" d="M651.94,262.839V252.13h2.942v10.709a1.294,1.294,0,0,1-1.294,1.294h-.353A1.294,1.294,0,0,1,651.94,262.839Z" transform="translate(-651.408 -251.452)" fill="#fff"/>
                      <path id="Trazado_957394" data-name="Trazado 957394" d="M650.81,251.029h0a.341.341,0,0,1,.339-.339h3.328a.341.341,0,0,1,.339.339h0a.341.341,0,0,1-.339.339h-3.328A.344.344,0,0,1,650.81,251.029Z" transform="translate(-650.81 -250.69)" fill="#fff"/>
                    </g>
                    <path id="Trazado_957395" data-name="Trazado 957395" d="M652.94,266.634v-7h2v7a1,1,0,0,1-1,1h0A1,1,0,0,1,652.94,266.634Z" transform="translate(-651.937 -255.422)" fill="#f0d3d8"/>
                  </g>
                </g>
                <g id="Grupo_1116157" data-name="Grupo 1116157">
                  <rect id="Rectángulo_416089" data-name="Rectángulo 416089" width="36.246" height="0.941" transform="translate(1.897 1.295)" fill="#a7c2d9"/>
                  <rect id="Rectángulo_416090" data-name="Rectángulo 416090" width="40.483" height="2.354" transform="translate(0 12.465)" fill="#d49ba0"/>
                  <g id="Grupo_1116156" data-name="Grupo 1116156" transform="translate(1.605)">
                    <rect id="Rectángulo_416091" data-name="Rectángulo 416091" width="1.031" height="13.637" fill="#d49ba0"/>
                    <rect id="Rectángulo_416092" data-name="Rectángulo 416092" width="1.031" height="13.637" transform="translate(35.921)" fill="#d49ba0"/>
                  </g>
                </g>
              </g>
            </g>
            <g id="Grupo_1116168" data-name="Grupo 1116168">
              <g id="Grupo_1116166" data-name="Grupo 1116166">
                <g id="Grupo_1116161" data-name="Grupo 1116161" transform="translate(28.625)">
                  <path id="Trazado_957396" data-name="Trazado 957396" d="M265.935,270.59a52.937,52.937,0,0,0-7.569-73.9,265.434,265.434,0,0,1-1.247,30.155c-.937,9.528-2.377,19.272-.1,28.573A29.252,29.252,0,0,0,265.935,270.59Z" transform="translate(-255.8 -196.69)" fill="#bf828b"/>
                  <g id="Grupo_1116160" data-name="Grupo 1116160" transform="translate(1.902 6.039)">
                    <path id="Trazado_957397" data-name="Trazado 957397" d="M270.957,289.6c0-33.671,8.934-44.54-4.157-80.076" transform="translate(-263.524 -209.52)" fill="none" stroke="#f2cdbf" stroke-linecap="round" stroke-miterlimit="10" stroke-width="1"/>
                    <path id="Trazado_957398" data-name="Trazado 957398" d="M271.106,221.93q-1.37,2.923-2.74,5.851a14.252,14.252,0,0,0-5.206-1.422" transform="translate(-261.597 -216.088)" fill="none" stroke="#f2cdbf" stroke-linecap="round" stroke-miterlimit="10" stroke-width="1"/>
                    <path id="Trazado_957399" data-name="Trazado 957399" d="M260.67,260.742a22.962,22.962,0,0,1,9.852,2.678,31.869,31.869,0,0,1,7.061-6.43" transform="translate(-260.279 -234.645)" fill="none" stroke="#f2cdbf" stroke-linecap="round" stroke-miterlimit="10" stroke-width="1"/>
                    <path id="Trazado_957400" data-name="Trazado 957400" d="M259.84,293.939a15.747,15.747,0,0,1,9.866,2.523,43.625,43.625,0,0,1,9.546-7.612" transform="translate(-259.84 -251.507)" fill="none" stroke="#f2cdbf" stroke-linecap="round" stroke-miterlimit="10" stroke-width="1"/>
                    <path id="Trazado_957401" data-name="Trazado 957401" d="M263.15,324.63a11.02,11.02,0,0,1,6.821,3.408,29.61,29.61,0,0,1,6.736-6.628" transform="translate(-261.592 -268.74)" fill="none" stroke="#f2cdbf" stroke-linecap="round" stroke-miterlimit="10" stroke-width="1"/>
                  </g>
                </g>
                <g id="Grupo_1116163" data-name="Grupo 1116163" transform="translate(39.466 8.643)">
                  <path id="Trazado_957402" data-name="Trazado 957402" d="M287.352,279.281a39.771,39.771,0,0,1,2.038-33.214c5.131-9.589,16.217-21.258,30.042-31.016,0,0-6.581,35.822-14.757,50.8A26.629,26.629,0,0,1,287.352,279.281Z" transform="translate(-281.915 -215.05)" fill="#d49ba0"/>
                  <g id="Grupo_1116162" data-name="Grupo 1116162" transform="translate(0 6.934)">
                    <path id="Trazado_957403" data-name="Trazado 957403" d="M311.343,229.78c-14.282,22.943-24.45,47.977-32.513,73.73" transform="translate(-278.83 -229.78)" fill="none" stroke="#f2cdbf" stroke-linecap="round" stroke-miterlimit="10" stroke-width="1"/>
                    <path id="Trazado_957404" data-name="Trazado 957404" d="M328.6,241.85a38.145,38.145,0,0,1,2.048,6.176,59.21,59.21,0,0,1,7.339-.923" transform="translate(-305.172 -236.168)" fill="none" stroke="#f2cdbf" stroke-linecap="round" stroke-miterlimit="10" stroke-width="1"/>
                    <path id="Trazado_957405" data-name="Trazado 957405" d="M304.5,272.43a38.882,38.882,0,0,1,4.806,9.217A40.9,40.9,0,0,1,321.314,278" transform="translate(-292.416 -252.353)" fill="none" stroke="#f2cdbf" stroke-linecap="round" stroke-miterlimit="10" stroke-width="1"/>
                    <path id="Trazado_957406" data-name="Trazado 957406" d="M290.33,298.29a32.293,32.293,0,0,1,5.456,10.563,65.619,65.619,0,0,1,13.246-4" transform="translate(-284.917 -266.04)" fill="none" stroke="#f2cdbf" stroke-linecap="round" stroke-miterlimit="10" stroke-width="1"/>
                    <path id="Trazado_957407" data-name="Trazado 957407" d="M286.49,329.41a57.35,57.35,0,0,1,3.968,4.957,43.136,43.136,0,0,1,9.768-2.721" transform="translate(-282.884 -282.511)" fill="none" stroke="#f2cdbf" stroke-linecap="round" stroke-miterlimit="10" stroke-width="1"/>
                  </g>
                </g>
                <g id="Grupo_1116165" data-name="Grupo 1116165" transform="translate(0 15.529)">
                  <path id="Trazado_957408" data-name="Trazado 957408" d="M226.223,290.234s6.284-8.911,1.638-24.365C221.5,244.7,194.99,229.68,194.99,229.68s7.108,28.969,12.653,43.4C213.259,287.683,226.223,290.234,226.223,290.234Z" transform="translate(-194.99 -229.68)" fill="#d49ba0"/>
                  <g id="Grupo_1116164" data-name="Grupo 1116164" transform="translate(3.512 4.058)">
                    <path id="Trazado_957409" data-name="Trazado 957409" d="M231.809,302.564s-3.615-29.138-29.359-64.264" transform="translate(-202.45 -238.3)" fill="none" stroke="#f2cdbf" stroke-linecap="round" stroke-miterlimit="10" stroke-width="1"/>
                    <path id="Trazado_957410" data-name="Trazado 957410" d="M214.357,251.35a20.272,20.272,0,0,0-1.492,5.493,20.236,20.236,0,0,0-5.545-.763" transform="translate(-205.028 -245.207)" fill="none" stroke="#f2cdbf" stroke-linecap="round" stroke-miterlimit="10" stroke-width="1"/>
                    <path id="Trazado_957411" data-name="Trazado 957411" d="M215.05,284.233a24.014,24.014,0,0,1,10.549.739,19.064,19.064,0,0,1,4.26-8.563" transform="translate(-209.119 -258.471)" fill="none" stroke="#f2cdbf" stroke-linecap="round" stroke-miterlimit="10" stroke-width="1"/>
                    <path id="Trazado_957412" data-name="Trazado 957412" d="M244.626,305.94A27.578,27.578,0,0,0,239.133,315a15.943,15.943,0,0,0-10.653-.678" transform="translate(-216.227 -274.1)" fill="none" stroke="#f2cdbf" stroke-linecap="round" stroke-miterlimit="10" stroke-width="1"/>
                    <path id="Trazado_957413" data-name="Trazado 957413" d="M244.4,342.706a21.05,21.05,0,0,1,6.957-.094,16.1,16.1,0,0,1,3.37-4.952" transform="translate(-224.653 -290.888)" fill="none" stroke="#f2cdbf" stroke-linecap="round" stroke-miterlimit="10" stroke-width="1"/>
                  </g>
                </g>
              </g>
              <g id="Grupo_1116167" data-name="Grupo 1116167" transform="translate(20.816 78.536)">
                <path id="Trazado_957414" data-name="Trazado 957414" d="M273.794,363.53l-.993,5.6-1.087,6.162-.574,3.229-1.087,6.167-2.9,16.414H245.979l-2.956-16.414-1.111-6.167-.579-3.229-1.116-6.162-1.007-5.6Z" transform="translate(-239.21 -363.53)" fill="#d49ba0"/>
                <path id="Trazado_957415" data-name="Trazado 957415" d="M273.934,375.43l-1.087,6.162H242.466l-1.116-6.162Z" transform="translate(-240.343 -369.828)" fill="#faded2"/>
                <path id="Trazado_957416" data-name="Trazado 957416" d="M274.178,395.38l-1.087,6.167H246.061l-1.111-6.167Z" transform="translate(-242.248 -380.387)" fill="#faded2"/>
              </g>
            </g>
          </g>
          <g id="Grupo_1116271" data-name="Grupo 1116271" transform="translate(55.899 31.4)">
            <g id="Grupo_1116237" data-name="Grupo 1116237" transform="translate(0 22.078)">
              <g id="Grupo_1116195" data-name="Grupo 1116195" transform="translate(0 5.282)">
                <g id="Grupo_1116175" data-name="Grupo 1116175" transform="translate(0.184 83.413)">
                  <g id="Grupo_1116173" data-name="Grupo 1116173" transform="translate(0 7.042)">
                    <rect id="Rectángulo_416093" data-name="Rectángulo 416093" width="34.679" height="3.224" transform="translate(3.177 32.127)" fill="#326894"/>
                    <g id="Grupo_1116170" data-name="Grupo 1116170" transform="translate(0 0.347)">
                      <path id="Trazado_957417" data-name="Trazado 957417" d="M323.243,359.513a2.132,2.132,0,0,1-.019.245l-.537,4.444-4.8,39.593a1.888,1.888,0,0,1-2.1,1.681,1.921,1.921,0,0,1-1.657-1.916,2.144,2.144,0,0,1,.019-.245l4.736-39.113.593-4.919a1.888,1.888,0,0,1,3.766.231Z" transform="translate(-314.13 -357.586)" fill="#4d8ab3"/>
                      <path id="Trazado_957418" data-name="Trazado 957418" d="M328.594,359.513a2.146,2.146,0,0,1-.019.245l-.537,4.444h-3.8l.593-4.919a1.886,1.886,0,0,1,3.761.231Z" transform="translate(-319.481 -357.586)" fill="#326894"/>
                    </g>
                    <g id="Grupo_1116171" data-name="Grupo 1116171" transform="translate(19.102)">
                      <path id="Trazado_957419" data-name="Trazado 957419" d="M358.5,358.789V403.16a1.906,1.906,0,0,1-1.883,1.935,1.853,1.853,0,0,1-1.332-.57,1.951,1.951,0,0,1-.551-1.37V358.785a1.909,1.909,0,0,1,1.883-1.935,1.837,1.837,0,0,1,1.332.57A1.977,1.977,0,0,1,358.5,358.789Z" transform="translate(-354.721 -356.85)" fill="#4d8ab3"/>
                      <path id="Trazado_957420" data-name="Trazado 957420" d="M357.93,357.435a1.939,1.939,0,0,1,.551,1.37v5.018H354.71V358.8a1.909,1.909,0,0,1,1.883-1.935A1.818,1.818,0,0,1,357.93,357.435Z" transform="translate(-354.71 -356.86)" fill="#326894"/>
                    </g>
                    <g id="Grupo_1116172" data-name="Grupo 1116172" transform="translate(32.72 0.338)">
                      <path id="Trazado_957421" data-name="Trazado 957421" d="M392.749,403.54a1.915,1.915,0,0,1-1.652,1.921,1.9,1.9,0,0,1-2.1-1.681l-4.8-39.593-.537-4.444a2.152,2.152,0,0,1-.019-.245,1.925,1.925,0,0,1,1.657-1.916,1.9,1.9,0,0,1,2.1,1.68l.593,4.919L392.73,403.3A1.5,1.5,0,0,1,392.749,403.54Z" transform="translate(-383.64 -357.568)" fill="#4d8ab3"/>
                      <path id="Trazado_957422" data-name="Trazado 957422" d="M388,364.187h-3.8l-.537-4.444a2.139,2.139,0,0,1-.019-.245,1.925,1.925,0,0,1,1.657-1.916,1.9,1.9,0,0,1,2.1,1.68Z" transform="translate(-383.645 -357.568)" fill="#326894"/>
                    </g>
                  </g>
                  <g id="Grupo_1116174" data-name="Grupo 1116174" transform="translate(1.699)">
                    <path id="Trazado_957423" data-name="Trazado 957423" d="M361.3,345.868v1.257a3.976,3.976,0,0,1-3.978,3.978H321.718a3.976,3.976,0,0,1-3.978-3.978v-1.257a3.976,3.976,0,0,1,3.978-3.978h35.606A3.973,3.973,0,0,1,361.3,345.868Z" transform="translate(-317.74 -341.89)" fill="#994403"/>
                    <path id="Trazado_957424" data-name="Trazado 957424" d="M365,345.868v1.257a3.976,3.976,0,0,1-3.978,3.978H328.7a3.976,3.976,0,0,1-3.978-3.978v-1.257a3.976,3.976,0,0,1,3.978-3.978h32.32A3.973,3.973,0,0,1,365,345.868Z" transform="translate(-321.434 -341.89)" fill="#852e03"/>
                  </g>
                </g>
                <g id="Grupo_1116194" data-name="Grupo 1116194">
                  <path id="Trazado_957425" data-name="Trazado 957425" d="M322,176.915c-.447.913-.9,1.831-1.3,2.711a19.786,19.786,0,0,0,0,4.778,13.57,13.57,0,0,1-.268,4.759,5.332,5.332,0,0,1-3.022,3.578c-1,.381-2.189.41-2.961,1.134a3.332,3.332,0,0,0-.494,3.347,5.2,5.2,0,0,0,1.45,2.57,2.637,2.637,0,0,0,2.806.617,2.025,2.025,0,0,1,2.5.593c.593.725.871,1.662,1.455,2.4a4.717,4.717,0,0,0,3.578,1.619,7.2,7.2,0,0,0,3.719-.725c1.944-1.219,4.368-2.029,6.36-.885a23.182,23.182,0,0,0,3.013,2,3.7,3.7,0,0,0,3-.184c.909-.48,1.257-1.506,1.826-2.292,1.045-1.44,3.578-.278,5.329-.753a3.843,3.843,0,0,0,2.7-4.411c-.438-1.841-2.476-2.495-4.293-2.768-1.247-.188-1.76-1.775-2.048-2.961a13.175,13.175,0,0,1-.184-3.653c.108-2.49,1.243-8.3.523-9.08a12.053,12.053,0,0,0-2.3-1.676q-3.545-1.617-7.089-3.239c-2.151-.984-4.406-1.986-6.783-1.921A8.286,8.286,0,0,0,322,176.915Z" transform="translate(-313.74 -168.804)" fill="#732d02"/>
                  <g id="Grupo_1116177" data-name="Grupo 1116177" transform="translate(4.723 24.468)">
                    <path id="Trazado_957426" data-name="Trazado 957426" d="M335.5,229.549s-10.488,1.657-11.6,5.371,5.258,29.7,5.258,29.7l23.565-1.44s1.714-29.957-2.034-31.835S335.5,229.549,335.5,229.549Z" transform="translate(-323.774 -223.486)" fill="#ebf5ff"/>
                    <g id="Grupo_1116176" data-name="Grupo 1116176" transform="translate(7.723)">
                      <path id="Trazado_957427" data-name="Trazado 957427" d="M353.332,223.764s-1.53,5.211-4.307,6.35-8.845-5.809-8.845-5.809c1.224-.777,1.685-2.645,1.836-4.35A18.958,18.958,0,0,0,342,216.67l8.426,1.619c-.216,2.608.551,3.978,1.356,4.7A3.077,3.077,0,0,0,353.332,223.764Z" transform="translate(-340.18 -216.67)" fill="#fbbd9a"/>
                      <path id="Trazado_957428" data-name="Trazado 957428" d="M353.822,223c-4,.527-7.626-1.478-9.763-3.031a18.957,18.957,0,0,0-.019-3.286l8.426,1.619C352.245,220.9,353.017,222.277,353.822,223Z" transform="translate(-342.223 -216.675)" fill="#f0997f"/>
                    </g>
                  </g>
                  <g id="Grupo_1116184" data-name="Grupo 1116184" transform="translate(5.169 61.505)">
                    <g id="Grupo_1116179" data-name="Grupo 1116179" transform="translate(17.925 4.881)">
                      <g id="Grupo_1116178" data-name="Grupo 1116178" transform="translate(8.647 46.809)">
                        <path id="Trazado_957429" data-name="Trazado 957429" d="M397.848,421.241c-.909,1.511-16.678-8.21-16.678-9.885,0-1.092,2.057-2.674,3.488-3.634.767-.518,1.351-.861,1.351-.861l3.681-1.69,1.657.89a91.549,91.549,0,0,1,5.875,11.514C397.909,419.353,398.187,420.68,397.848,421.241Z" transform="translate(-381.17 -405.165)" fill="#d43226"/>
                        <path id="Trazado_957430" data-name="Trazado 957430" d="M401.154,417.564c-4.519.188-10.493-7.122-12.564-9.852.767-.518,1.351-.861,1.351-.861l3.681-1.69,1.657.89A90.909,90.909,0,0,1,401.154,417.564Z" transform="translate(-385.097 -405.16)" fill="#f0997f"/>
                      </g>
                      <path id="Trazado_957431" data-name="Trazado 957431" d="M371.9,305.72s28.7,3.634,29.679,10.982-18.005,39.772-18.005,39.772l-6.826-1.779,8.906-28.987-22.854-9.7,4.552-10.29Z" transform="translate(-362.8 -305.72)" fill="#002a42"/>
                    </g>
                    <g id="Grupo_1116183" data-name="Grupo 1116183">
                      <g id="Grupo_1116180" data-name="Grupo 1116180" transform="translate(19.596 52.529)">
                        <path id="Trazado_957432" data-name="Trazado 957432" d="M383.028,423.021c-.909,1.511-16.678-8.21-16.678-9.885,0-1.092,2.057-2.674,3.488-3.634.767-.518,1.351-.861,1.351-.861l3.681-1.69,1.657.89a91.56,91.56,0,0,1,5.875,11.514C383.089,421.133,383.367,422.46,383.028,423.021Z" transform="translate(-366.35 -406.945)" fill="#eb4a2a"/>
                        <path id="Trazado_957433" data-name="Trazado 957433" d="M386.334,419.344c-4.519.188-10.493-7.122-12.564-9.852.767-.518,1.351-.861,1.351-.861l3.681-1.69,1.657.89A90.912,90.912,0,0,1,386.334,419.344Z" transform="translate(-370.277 -406.94)" fill="#fbbd9a"/>
                      </g>
                      <g id="Grupo_1116182" data-name="Grupo 1116182">
                        <path id="Trazado_957434" data-name="Trazado 957434" d="M327.535,297.77s-9.947,19.667,7.555,21.79c12.714,1.544,21.14,1.233,21.4,1.939.433,1.134-8.271,28.6-8.271,28.6l8.572,2.711s17.742-38.105,16.777-41.424c-.8-2.73-25.278-6.9-25.278-6.9,2.062-.979,3.578-4.542,3.356-9.137Z" transform="translate(-324.72 -295.35)" fill="#06384f"/>
                        <g id="Grupo_1116181" data-name="Grupo 1116181" transform="translate(2.663 0.716)">
                          <path id="Trazado_957435" data-name="Trazado 957435" d="M333.288,296.87s-5.705,12.554-1.139,17.648c5.38,6,28.912,4.067,30.55,6.19,1.313,1.7-9.09,29.458-9.09,29.458" transform="translate(-330.378 -296.87)" fill="none" stroke="#27788f" stroke-linecap="round" stroke-miterlimit="10" stroke-width="1"/>
                          <line id="Línea_27191" data-name="Línea 27191" x2="8.294" y2="2.528" transform="translate(21.532 52.877)" fill="none" stroke="#27788f" stroke-linecap="round" stroke-miterlimit="10" stroke-width="1"/>
                        </g>
                      </g>
                    </g>
                  </g>
                  <g id="Grupo_1116188" data-name="Grupo 1116188" transform="translate(5.58)">
                    <path id="Trazado_957436" data-name="Trazado 957436" d="M372.887,197.419c2.023-.229,3.8.783,3.965,2.26s-1.336,2.861-3.359,3.09-3.8-.783-3.965-2.26S370.865,197.648,372.887,197.419Z" transform="translate(-348.84 -181.995)" fill="#f0997f"/>
                    <g id="Grupo_1116185" data-name="Grupo 1116185" transform="translate(4.023 2.664)">
                      <path id="Trazado_957437" data-name="Trazado 957437" d="M334.14,182.989c0-6.981,4.434-12.639,10.389-12.639s10.784,5.658,10.784,12.639-3.046,12.987-8.652,13.2C341.013,196.41,334.14,189.965,334.14,182.989Z" transform="translate(-334.14 -170.35)" fill="#fbbd9a"/>
                      <path id="Trazado_957438" data-name="Trazado 957438" d="M335.37,186.011a12.569,12.569,0,0,0,6.567-6.91,10.692,10.692,0,0,0,6.1,3.163,32.359,32.359,0,0,0,6.849.287,4.142,4.142,0,0,1,1.384,2.387,14.054,14.054,0,0,0-.645-6.181q-8.9-2.711-17.685-5.757C337.065,177.175,336.189,181.351,335.37,186.011Z" transform="translate(-334.791 -171.753)" fill="#f0997f"/>
                    </g>
                    <g id="Grupo_1116186" data-name="Grupo 1116186" transform="translate(1.252)">
                      <path id="Trazado_957439" data-name="Trazado 957439" d="M345.943,171.506a10.7,10.7,0,0,0,6.336,4.834,29.519,29.519,0,0,0,8.111,1.04,18.284,18.284,0,0,1,.522,4.844,16.84,16.84,0,0,0,1.53-5.908c.024-.527.024-1.064.009-1.629a9.3,9.3,0,0,0-3.86-7.663,12.078,12.078,0,0,0-7.452-2.335c-2.66,0-4.35.6-5.362,1.652a4.061,4.061,0,0,0-.828,1.271C344.517,168.63,345,169.736,345.943,171.506Z" transform="translate(-337.006 -164.69)" fill="#8c4206"/>
                      <path id="Trazado_957440" data-name="Trazado 957440" d="M328.323,184.775c-.089-3.413-.306-9.255,1.069-12.046a6.355,6.355,0,0,1,4.618-3.62,4.3,4.3,0,0,1,4.717,2.961,23.761,23.761,0,0,1-6.458,12.093A6.511,6.511,0,0,1,328.323,184.775Z" transform="translate(-328.254 -167.01)" fill="#8c4206"/>
                      <path id="Trazado_957441" data-name="Trazado 957441" d="M346.88,166.352a13.518,13.518,0,0,1,11.5,2.316,14.83,14.83,0,0,1,5.173,7.659c.024-.527.024-1.064.009-1.629a9.3,9.3,0,0,0-3.86-7.663,12.078,12.078,0,0,0-7.452-2.335C349.582,164.7,347.892,165.3,346.88,166.352Z" transform="translate(-338.112 -164.695)" fill="#a66317"/>
                    </g>
                    <path id="Trazado_957442" data-name="Trazado 957442" d="M325.657,200.577c.369-1.441,2.267-2.2,4.238-1.695s3.272,2.082,2.9,3.522-2.267,2.2-4.238,1.695S325.288,202.017,325.657,200.577Z" transform="translate(-325.594 -182.704)" fill="#fbbd9a"/>
                    <g id="Grupo_1116187" data-name="Grupo 1116187" transform="translate(11.409 14.255)">
                      <ellipse id="Elipse_13518" data-name="Elipse 13518" cx="0.56" cy="0.894" rx="0.56" ry="0.894" transform="translate(2.843 3.637)" fill="#2f344d"/>
                      <ellipse id="Elipse_13519" data-name="Elipse 13519" cx="0.56" cy="0.894" rx="0.56" ry="0.894" transform="translate(10.634 3.642)" fill="#2f344d"/>
                      <path id="Trazado_957443" data-name="Trazado 957443" d="M370.13,195.538a3.915,3.915,0,0,1,3.272.4" transform="translate(-360.574 -195.172)" fill="none" stroke="#8c4206" stroke-linecap="round" stroke-miterlimit="10" stroke-width="2"/>
                      <path id="Trazado_957444" data-name="Trazado 957444" d="M353.714,195.24a3.723,3.723,0,0,0-3.884.668" transform="translate(-349.83 -194.974)" fill="none" stroke="#8c4206" stroke-linecap="round" stroke-miterlimit="10" stroke-width="2"/>
                      <path id="Trazado_957445" data-name="Trazado 957445" d="M365.26,203.45a4.925,4.925,0,0,1-.24,2.876" transform="translate(-357.87 -199.46)" fill="none" stroke="#d45e4e" stroke-linecap="round" stroke-miterlimit="10" stroke-width="2"/>
                      <path id="Trazado_957446" data-name="Trazado 957446" d="M359.485,213.752c-1.243.245-3.493-.466-4.1-1.5" transform="translate(-352.767 -204.118)" fill="none" stroke="#d45e4e" stroke-linecap="round" stroke-miterlimit="10" stroke-width="2"/>
                    </g>
                  </g>
                  <g id="Grupo_1116191" data-name="Grupo 1116191" transform="translate(24.176 30.8)">
                    <g id="Grupo_1116190" data-name="Grupo 1116190" transform="translate(3.748 0.532)">
                      <path id="Trazado_957447" data-name="Trazado 957447" d="M373.61,235.627l4.2-2.537s3.545.3,5.945,4.712c2.387,4.387,6.882,18.57,8.3,19.2s18.688.847,18.688.847l.235,5.06s-21.155,3.356-23.678,1.968-10.69-17.746-10.69-17.746Z" transform="translate(-373.351 -232.224)" fill="#fbbd9a"/>
                      <path id="Trazado_957448" data-name="Trazado 957448" d="M373.06,234.084l.81-2.834s4.641.2,7.014,2.057,4.317,6.915,4.317,6.915l-6.035,9.744Z" transform="translate(-373.06 -231.25)" fill="#de3b26"/>
                      <path id="Trazado_957449" data-name="Trazado 957449" d="M388.27,270.868s6.482-5.6,7.48-6.995c.494-.692,4,7.456,3.408,8.454-.946,1.591-6.854,5.413-7.183,5.192S388.27,270.868,388.27,270.868Z" transform="translate(-381.11 -248.495)" fill="#163649"/>
                      <path id="Trazado_957450" data-name="Trazado 957450" d="M384.28,256.842q2.93-4.653,5.856-9.3a1.48,1.48,0,0,1,.391-.461,1.016,1.016,0,0,1,1.389.621,2.886,2.886,0,0,1-.094,1.723,1.235,1.235,0,0,1,1.266,1.139,3.131,3.131,0,0,1-.49,1.808,16.872,16.872,0,0,1-8.417,7.649C384.017,258.955,383.692,257.774,384.28,256.842Z" transform="translate(-378.82 -239.566)" fill="#b82621"/>
                      <g id="Grupo_1116189" data-name="Grupo 1116189" transform="translate(34.726 21.06)">
                        <path id="Trazado_957451" data-name="Trazado 957451" d="M446.83,281.342c2.419-1.7,7.1-5.07,7.452-5.23a12.749,12.749,0,0,1,4.806.264,5.327,5.327,0,0,1,3.549,3.06c.155.428.2,1-.179,1.247a.8.8,0,0,1-.838-.042,3.147,3.147,0,0,1-.645-.607,4.687,4.687,0,0,0-3.672-1.662,4.624,4.624,0,0,1,3.9,3.507c.118.391.165.885-.151,1.139a.788.788,0,0,1-.894-.028,3.076,3.076,0,0,1-.654-.7,6.862,6.862,0,0,0-2.834-2.123,5.022,5.022,0,0,1,2.937,3.822,1.367,1.367,0,0,1-.042.73.565.565,0,0,1-.574.367.858.858,0,0,1-.452-.325,11.942,11.942,0,0,0-2.613-2.631c1.017,1.356,1.874,3.559,1.662,4.133-.066.174-.5.475-.984,0-.551-.551-.937-1.492-1.793-2.542a6.314,6.314,0,0,1-5.964,1.911C448.153,284.18,447.475,282.726,446.83,281.342Z" transform="translate(-446.83 -275.989)" fill="#fbbd9a"/>
                        <path id="Trazado_957452" data-name="Trazado 957452" d="M456.16,280.914a49.418,49.418,0,0,1,5.249-1.568,2.084,2.084,0,0,1,.72-.085.739.739,0,0,1,.588.372.715.715,0,0,1-.108.706,1.9,1.9,0,0,1-.574.48,24.212,24.212,0,0,1-2.382,1.261,3.472,3.472,0,0,1-2.3,2.787" transform="translate(-451.768 -277.717)" fill="#fbbd9a" stroke="#d45e4e" stroke-linecap="round" stroke-miterlimit="10" stroke-width="1"/>
                      </g>
                    </g>
                    <path id="Trazado_957453" data-name="Trazado 957453" d="M365.108,230.2c1.007.876,1.662,5.809,2.179,8.944.777,4.7,4.731,25.123,4.966,26.568.419,2.551,8.5,2.377,8.821,1.045.061-.245-2.358-1.37-2.744-3-.344-1.459-3.027-29.9-4.321-31.393C372.3,230.384,364.784,229.913,365.108,230.2Z" transform="translate(-365.098 -230.121)" fill="#eb4a2a"/>
                  </g>
                  <g id="Grupo_1116193" data-name="Grupo 1116193" transform="translate(1.878 30.873)">
                    <path id="Trazado_957454" data-name="Trazado 957454" d="M330.3,230.278c.843.3,3.488,5.922,4.745,11.067,2.627,10.747,1.064,26.7,0,28.813s-11.373,3.036-13.124,2.476c-1.017-.325-2.123-32.494-1.422-36.533C320.973,233.408,330.048,230.189,330.3,230.278Z" transform="translate(-319.08 -230.276)" fill="#eb4a2a"/>
                    <path id="Trazado_957455" data-name="Trazado 957455" d="M373.814,303.959c2.175-.8,8.468-2.452,9.339-2.363a3.251,3.251,0,0,1,2.335,1.139,4.978,4.978,0,0,1,.692,1.647l.8,2.824a2.493,2.493,0,0,1,.141,1.012.767.767,0,0,1-.6.7c-.452.038-.734-.5-.9-.96-.424-1.172-.847-2.344-1.266-3.493.278,1.445.551,2.895.828,4.34a2.489,2.489,0,0,1,.052,1.036.771.771,0,0,1-.668.65c-.48-.009-.711-.626-.819-1.134a31.259,31.259,0,0,0-.857-3.385,9.661,9.661,0,0,1,.207,4.966,1.465,1.465,0,0,1-.3.692.475.475,0,0,1-.65.075.832.832,0,0,1-.184-.537c-.146-1.459-.292-2.923-.438-4.383a12.359,12.359,0,0,1-.155,4.6,1.505,1.505,0,0,1-.372.706.541.541,0,0,1-.7.066.976.976,0,0,1-.226-.725c-.033-.918-.066-1.836-.071-2.909a5.189,5.189,0,0,1-3.112,1.76,7.962,7.962,0,0,1-3.582-.461C373.414,308.116,373.512,306.4,373.814,303.959Z" transform="translate(-347.147 -268.022)" fill="#fbbd9a"/>
                    <path id="Trazado_957456" data-name="Trazado 957456" d="M328.3,242.708c-.659-3.046-3.389-7.984-5.616-6.962-1.276.588-4.952,1.817-4.952,9.871,0,10.888,1.431,25.193,4.952,27.589,1.789,1.219,21.352,2.415,21.352,2.415l1.431-7.009s-14.418-2.674-15.082-4.651C329.446,261.17,330.049,250.81,328.3,242.708Z" transform="translate(-317.73 -233.099)" fill="#eb4a2a"/>
                    <g id="Grupo_1116192" data-name="Grupo 1116192" transform="translate(2.17 7.938)">
                      <path id="Trazado_957457" data-name="Trazado 957457" d="M336.56,247.14c2.42,8.181,2.928,22.1,3.286,22.939.325.763,2.165,1.083,3.61,1.577" transform="translate(-329.866 -247.14)" fill="none" stroke="#b82621" stroke-linecap="round" stroke-miterlimit="10" stroke-width="1"/>
                      <path id="Trazado_957458" data-name="Trazado 957458" d="M331.8,309.826c-2.683-.268-6.016-.791-6.76-1.346-.876-.654-1.944-3.855-2.7-6.039" transform="translate(-322.34 -276.409)" fill="none" stroke="#b82621" stroke-linecap="round" stroke-miterlimit="10" stroke-width="1"/>
                      <path id="Trazado_957459" data-name="Trazado 957459" d="M341.6,269.528c.965-1.21,1.36-3.215,1.44-5.658" transform="translate(-332.534 -255.995)" fill="none" stroke="#b82621" stroke-linecap="round" stroke-miterlimit="10" stroke-width="1"/>
                    </g>
                  </g>
                </g>
              </g>
              <g id="Grupo_1116236" data-name="Grupo 1116236" transform="translate(44.587)">
                <g id="Grupo_1116233" data-name="Grupo 1116233" transform="translate(18.39)">
                  <g id="Grupo_1116201" data-name="Grupo 1116201" transform="translate(18.402 88.695)">
                    <g id="Grupo_1116199" data-name="Grupo 1116199" transform="translate(0 7.047)">
                      <rect id="Rectángulo_416094" data-name="Rectángulo 416094" width="34.679" height="3.14" transform="translate(3.173 31.285)" fill="#326894"/>
                      <g id="Grupo_1116196" data-name="Grupo 1116196" transform="translate(0 0.324)">
                        <path id="Trazado_957460" data-name="Trazado 957460" d="M495.733,359.432a2.052,2.052,0,0,1-.019.24L495.178,364l-4.8,38.557a1.888,1.888,0,0,1-3.761-.226,2.064,2.064,0,0,1,.019-.24l4.736-38.1.593-4.792a1.89,1.89,0,0,1,3.766.231Z" transform="translate(-486.62 -357.548)" fill="#4d8ab3"/>
                        <path id="Trazado_957461" data-name="Trazado 957461" d="M501.084,359.437a2.064,2.064,0,0,1-.019.24L500.529,364h-3.8l.593-4.792a1.888,1.888,0,0,1,3.761.226Z" transform="translate(-491.971 -357.553)" fill="#326894"/>
                      </g>
                      <g id="Grupo_1116197" data-name="Grupo 1116197" transform="translate(19.102)">
                        <path id="Trazado_957462" data-name="Trazado 957462" d="M530.976,358.743v43.213a1.883,1.883,0,1,1-3.766,0V358.743a1.882,1.882,0,0,1,1.883-1.883,1.88,1.88,0,0,1,1.883,1.883Z" transform="translate(-527.205 -356.86)" fill="#4d8ab3"/>
                        <path id="Trazado_957463" data-name="Trazado 957463" d="M530.42,357.411a1.867,1.867,0,0,1,.551,1.332v4.891H527.2v-4.891a1.887,1.887,0,0,1,3.22-1.332Z" transform="translate(-527.2 -356.86)" fill="#326894"/>
                      </g>
                      <g id="Grupo_1116198" data-name="Grupo 1116198" transform="translate(32.72 0.328)">
                        <path id="Trazado_957464" data-name="Trazado 957464" d="M565.239,402.335a1.885,1.885,0,0,1-3.756.235l-4.8-38.557-.537-4.326a2.078,2.078,0,0,1-.019-.24,1.888,1.888,0,0,1,3.761-.226l.593,4.792,4.735,38.1A1.217,1.217,0,0,1,565.239,402.335Z" transform="translate(-556.13 -357.563)" fill="#4d8ab3"/>
                        <path id="Trazado_957465" data-name="Trazado 957465" d="M560.494,364h-3.8l-.537-4.326a2.077,2.077,0,0,1-.019-.24,1.888,1.888,0,0,1,3.761-.226Z" transform="translate(-556.135 -357.558)" fill="#326894"/>
                      </g>
                    </g>
                    <g id="Grupo_1116200" data-name="Grupo 1116200" transform="translate(1.699)">
                      <path id="Trazado_957466" data-name="Trazado 957466" d="M533.791,345.868v1.257a3.976,3.976,0,0,1-3.978,3.978H494.208a3.976,3.976,0,0,1-3.978-3.978v-1.257a3.976,3.976,0,0,1,3.978-3.978h35.606A3.973,3.973,0,0,1,533.791,345.868Z" transform="translate(-490.23 -341.89)" fill="#994403"/>
                      <path id="Trazado_957467" data-name="Trazado 957467" d="M537.491,345.868v1.257a3.976,3.976,0,0,1-3.978,3.978H501.2a3.976,3.976,0,0,1-3.978-3.978v-1.257a3.976,3.976,0,0,1,3.978-3.978h32.315A3.973,3.973,0,0,1,537.491,345.868Z" transform="translate(-493.93 -341.89)" fill="#852e03"/>
                    </g>
                  </g>
                  <g id="Grupo_1116208" data-name="Grupo 1116208" transform="translate(7.992 27.589)">
                    <g id="Grupo_1116207" data-name="Grupo 1116207">
                      <g id="Grupo_1116203" data-name="Grupo 1116203">
                        <g id="Grupo_1116202" data-name="Grupo 1116202">
                          <path id="Trazado_957468" data-name="Trazado 957468" d="M473.541,220.3c.715-1.172.019-2.7.245-4.053a1.6,1.6,0,0,1,.518-1,.818.818,0,0,1,1.05,0c.334.325.221.871.217,1.337a11.4,11.4,0,0,0,.565,2.434c.424,1.986-.631,3.62-1.638,5.333a9.807,9.807,0,0,1-4.034,1.6c-.668.066-4.091-1.822-5.427-5.879-.673-2.034-.593-2.876-.367-3.154a.731.731,0,0,1,.956-.193,1.079,1.079,0,0,1,.325.546c.428,1.219.852,2.438,1.271,3.7a7.839,7.839,0,0,1-2.443-6.1c.024-.433.155-.956.57-1.083a.78.78,0,0,1,.758.235,2.371,2.371,0,0,1,.438.706c.593,1.285,1.191,2.565,2.024,4.091a5.934,5.934,0,0,1-1.619-5.719c.089-.339.292-.734.645-.739s.57.391.7.73q.9,2.422,1.808,4.848a6.865,6.865,0,0,1-1.017-4.575c.075-.574.367-1.266.951-1.29a.96.96,0,0,1,.81.494,3.205,3.205,0,0,1,.325.937C471.615,215.356,472.434,217.107,473.541,220.3Z" transform="translate(-464.505 -212.079)" fill="#fdbd9b"/>
                          <path id="Trazado_957469" data-name="Trazado 957469" d="M465.62,221.979c.537-.146.913.042,1.12.819.292,1.1,1.069,3.639,1.869,4.2" transform="translate(-465.095 -217.295)" fill="none" stroke="#b0514a" stroke-linecap="round" stroke-miterlimit="10" stroke-width="0.5"/>
                        </g>
                        <path id="Trazado_957470" data-name="Trazado 957470" d="M479.834,236.02l1.972,4.6-5.216,3.159-2.321-6.138Z" transform="translate(-469.673 -224.75)" fill="#fdbd9b"/>
                      </g>
                      <g id="Grupo_1116206" data-name="Grupo 1116206" transform="translate(1.884 1.832)">
                        <g id="Grupo_1116204" data-name="Grupo 1116204" transform="translate(0 0.042)">
                          <path id="Trazado_957471" data-name="Trazado 957471" d="M476.568,220.042a4.52,4.52,0,0,0-3.775-3.836l-.028-.146s-.946.169-1.262.24c-2.062.461-3.337,2.773-2.914,5.164s2.424,4.114,4.519,3.836c.32-.042,1.266-.212,1.266-.212l-.028-.146A4.5,4.5,0,0,0,476.568,220.042Z" transform="translate(-468.508 -216.06)" fill="#316382"/>
                        </g>
                        <path id="Trazado_957472" data-name="Trazado 957472" d="M473.718,216.027a4.626,4.626,0,1,1-3.18,5.229A4.345,4.345,0,0,1,473.718,216.027Z" transform="translate(-469.54 -215.971)" fill="#407c91"/>
                        <g id="Grupo_1116205" data-name="Grupo 1116205" transform="translate(1.844 1.058)">
                          <path id="Trazado_957473" data-name="Trazado 957473" d="M478.627,221.19a3.349,3.349,0,0,0-3.691-2.928.606.606,0,0,0-.089.019,3.568,3.568,0,0,0,1.243,6.943.589.589,0,0,0,.089-.014A3.339,3.339,0,0,0,478.627,221.19Z" transform="translate(-472.425 -218.219)" fill="#ebf5ff"/>
                        </g>
                      </g>
                    </g>
                    <path id="Trazado_957474" data-name="Trazado 957474" d="M494.611,230.663l-3.21-2.443a8.572,8.572,0,0,0-3.21,3.667c-1.116,2.481-2.594,10.761-2.594,10.761l-6-9.961-7.64,5.423s8.473,21.446,13.576,21.705,8.694-4.467,8.694-4.467Z" transform="translate(-468.451 -220.622)" fill="#fff"/>
                  </g>
                  <g id="Grupo_1116215" data-name="Grupo 1116215" transform="translate(0 68.764)">
                    <g id="Grupo_1116210" data-name="Grupo 1116210" transform="translate(0 61.058)">
                      <path id="Trazado_957475" data-name="Trazado 957475" d="M466.32,429.745l.974,6.143,4.02,1.633,4.618-2.208-.838-6.054Z" transform="translate(-457.474 -429.26)" fill="#fbbd9a"/>
                      <g id="Grupo_1116209" data-name="Grupo 1116209" transform="translate(0 5.507)">
                        <path id="Trazado_957476" data-name="Trazado 957476" d="M468.584,449.617l-20.839-.3a5.3,5.3,0,0,1-.2-1.059,3.753,3.753,0,0,1,1.29-3.4c1.751-1.36,4.533-1.549,6.341-2.25a4.028,4.028,0,0,0,1.737-1.488l2.966.169s.245,1.652,1.346,1.553a26.945,26.945,0,0,0,4.74-1.883,18.332,18.332,0,0,1,2.584,7.3A7.48,7.48,0,0,1,468.584,449.617Z" transform="translate(-447.527 -440.96)" fill="#502202"/>
                        <path id="Trazado_957477" data-name="Trazado 957477" d="M468.607,457.82l-20.839-.3a5.3,5.3,0,0,1-.2-1.059h21A7.285,7.285,0,0,1,468.607,457.82Z" transform="translate(-447.55 -449.164)" fill="#855321"/>
                      </g>
                    </g>
                    <g id="Grupo_1116214" data-name="Grupo 1116214" transform="translate(5.353)">
                      <g id="Grupo_1116212" data-name="Grupo 1116212" transform="translate(19.568 61.058)">
                        <path id="Trazado_957478" data-name="Trazado 957478" d="M519.26,429.745l.974,6.143,4.02,1.633,4.618-2.208-.838-6.054Z" transform="translate(-510.414 -429.26)" fill="#fbbd9a"/>
                        <g id="Grupo_1116211" data-name="Grupo 1116211" transform="translate(0 5.507)">
                          <path id="Trazado_957479" data-name="Trazado 957479" d="M521.524,449.617l-20.839-.3a5.3,5.3,0,0,1-.2-1.059,3.753,3.753,0,0,1,1.29-3.4c1.751-1.36,4.533-1.549,6.341-2.25a4.028,4.028,0,0,0,1.737-1.488l2.965.169s.245,1.652,1.346,1.553a26.944,26.944,0,0,0,4.74-1.883,18.333,18.333,0,0,1,2.584,7.3A7.472,7.472,0,0,1,521.524,449.617Z" transform="translate(-500.467 -440.96)" fill="#502202"/>
                          <path id="Trazado_957480" data-name="Trazado 957480" d="M521.547,457.82l-20.839-.3a5.3,5.3,0,0,1-.2-1.059h21A7.284,7.284,0,0,1,521.547,457.82Z" transform="translate(-500.49 -449.164)" fill="#855321"/>
                        </g>
                      </g>
                      <g id="Grupo_1116213" data-name="Grupo 1116213">
                        <path id="Trazado_957481" data-name="Trazado 957481" d="M486.088,301.29l-3.413,5.531s-19.54,2.975-22.7,7.762c-2.919,4.415,1.036,49.172,1.036,49.172h13.42s-1.026-33.059,0-36.119,31.8-2.886,33.563-7.037,2.354-18.721,2.354-18.721" transform="translate(-458.898 -300.471)" fill="#112c45"/>
                        <path id="Trazado_957482" data-name="Trazado 957482" d="M532.781,306.752s.758,11.98-3.177,14.847c-3.418,2.49-12.107,3.14-12.107,3.14L519.173,362l-12.832.838s-6.374-43.491-6.072-47.661,12.644-7.188,11.8-7.781c0,0-9.513-3.229-5.988-6.778.08-.08.169-.165.259-.245.819-.725,10.841.024,10.841.024l9.24-.847,3.657,4.147Z" transform="translate(-480.789 -299.55)" fill="#163a4a"/>
                      </g>
                    </g>
                  </g>
                  <path id="Trazado_957483" data-name="Trazado 957483" d="M538.8,310.541c-.08.588-.169,1.219-.264,1.859-1.582-2.01-4.138-4.952-6.393-6.19-4.674-2.57-19.615-4.326-19.615-4.326l.057-1.276c.08-.08.169-.165.259-.245.819-.725,10.841.024,10.841.024l9.24-.847,3.657,4.147Z" transform="translate(-481.931 -230.78)" fill="#112c45"/>
                  <g id="Grupo_1116225" data-name="Grupo 1116225" transform="translate(28.078)">
                    <g id="Grupo_1116216" data-name="Grupo 1116216" transform="translate(7.567 24.092)">
                      <path id="Trazado_957484" data-name="Trazado 957484" d="M538.285,212.182s-5.5,7.108-8.93,6.746-6.105-4.157-6.105-4.157a3.808,3.808,0,0,0,1.968-2.754,12.447,12.447,0,0,0-.165-5.856l10.187-1.511a14.111,14.111,0,0,0,.381,3.53A5.845,5.845,0,0,0,538.285,212.182Z" transform="translate(-523.25 -204.65)" fill="#fdbd9b"/>
                      <path id="Trazado_957485" data-name="Trazado 957485" d="M527.245,212.027a12.445,12.445,0,0,0-.165-5.856l10.187-1.511a14.105,14.105,0,0,0,.381,3.53A17.3,17.3,0,0,1,527.245,212.027Z" transform="translate(-525.277 -204.655)" fill="#f0997f"/>
                    </g>
                    <g id="Grupo_1116224" data-name="Grupo 1116224">
                      <g id="Grupo_1116218" data-name="Grupo 1116218" transform="translate(0 17.442)">
                        <path id="Trazado_957486" data-name="Trazado 957486" d="M507.187,192.659c.156-1.377,1.811-2.32,3.7-2.106s3.288,1.5,3.132,2.88-1.811,2.32-3.7,2.106S507.03,194.035,507.187,192.659Z" transform="translate(-507.175 -190.523)" fill="#f0997f"/>
                        <g id="Grupo_1116217" data-name="Grupo 1116217" transform="translate(1.786 1.646)">
                          <path id="Trazado_957487" data-name="Trazado 957487" d="M513.065,194.877v-.038a.82.82,0,0,0-.819-.819h-.457a.82.82,0,0,0-.819.819v.038a.82.82,0,0,0,.819.819h.457A.82.82,0,0,0,513.065,194.877Z" transform="translate(-510.97 -194.02)" fill="#4b8394"/>
                          <rect id="Rectángulo_416095" data-name="Rectángulo 416095" width="0.687" height="1.883" transform="translate(0 0.838)" fill="#4b8394"/>
                        </g>
                      </g>
                      <g id="Grupo_1116219" data-name="Grupo 1116219" transform="translate(2.69 4.232)">
                        <path id="Trazado_957488" data-name="Trazado 957488" d="M533.44,174.242c0-6.505-4.5-11.782-10.055-11.782s-10.055,3.474-10.055,11.782c0,6.505,2.523,12.15,8.5,12.545C527.372,187.15,533.44,180.753,533.44,174.242Z" transform="translate(-513.123 -162.46)" fill="#fdbd9b"/>
                        <path id="Trazado_957489" data-name="Trazado 957489" d="M532.02,179.9a14.143,14.143,0,0,1-3.874-6.548,3.067,3.067,0,0,1-2.7-.41,7.48,7.48,0,0,1-6.317-.362,5.263,5.263,0,0,1-4.684-.146,9.989,9.989,0,0,0-1.558,3.2q.212-3.361.433-6.727,7.958-1.123,15.986-1.563a1.746,1.746,0,0,1,.894.108,1.725,1.725,0,0,1,.706,1.111A25.537,25.537,0,0,1,532.02,179.9Z" transform="translate(-512.89 -165.036)" fill="#f0997f"/>
                      </g>
                      <g id="Grupo_1116220" data-name="Grupo 1116220" transform="translate(1.886)">
                        <path id="Trazado_957490" data-name="Trazado 957490" d="M533.678,160.851c-.221,3.342-.438,7.654-.659,10.954-.311,1.134-1.285,1.092-2.608,1.516a32.712,32.712,0,0,1-2.438-8.925,6.48,6.48,0,0,1-3.992-.264,8.517,8.517,0,0,1-6.218-.014,7.177,7.177,0,0,1-4.623.085,28.844,28.844,0,0,0-.946,5.889c-.188-1.605-.81-6.571-.965-9.975a11.49,11.49,0,0,1,.118-3.13c.631-1.85,2.674-1.252,3.22-.617a3.062,3.062,0,0,1,2.076-1.732,3.367,3.367,0,0,1,2.749.654,3.509,3.509,0,0,1,2.952-1.812,2.923,2.923,0,0,1,2.829,1.808,6.162,6.162,0,0,1,1.775-.716,2.588,2.588,0,0,1,1.855.287,2,2,0,0,1,.65.692,2.857,2.857,0,0,1,.362,1.059,1.877,1.877,0,0,1,2.349-.438,3.059,3.059,0,0,1,1.44,2.081A8.9,8.9,0,0,1,533.678,160.851Z" transform="translate(-511.188 -153.474)" fill="#502202"/>
                        <path id="Trazado_957491" data-name="Trazado 957491" d="M529.445,155.545a3.471,3.471,0,0,0-2.137-.207,3.191,3.191,0,0,0-2.147,1.648,2.933,2.933,0,0,0-2.81-1.855,3.423,3.423,0,0,0-2.862,2.358,3.107,3.107,0,0,0-2.683-1.059,2.958,2.958,0,0,0-2.354,1.751,1.338,1.338,0,0,0-1.464-.3,2.584,2.584,0,0,0-1.177,1.036,5.7,5.7,0,0,0-.593,1.186,11.487,11.487,0,0,1,.118-3.13c.631-1.85,2.674-1.252,3.22-.617a3.062,3.062,0,0,1,2.076-1.732,3.367,3.367,0,0,1,2.749.654,3.509,3.509,0,0,1,2.952-1.812,2.923,2.923,0,0,1,2.829,1.808,6.162,6.162,0,0,1,1.775-.716,2.588,2.588,0,0,1,1.855.287A2.025,2.025,0,0,1,529.445,155.545Z" transform="translate(-511.182 -153.469)" fill="#6b4019"/>
                      </g>
                      <g id="Grupo_1116221" data-name="Grupo 1116221" transform="translate(4.418 15.43)">
                        <path id="Trazado_957492" data-name="Trazado 957492" d="M519.116,186.334a3.271,3.271,0,0,0-2.556.466" transform="translate(-516.56 -186.248)" fill="none" stroke="#502202" stroke-linecap="round" stroke-miterlimit="10" stroke-width="2"/>
                        <path id="Trazado_957493" data-name="Trazado 957493" d="M536.1,186.516a3.1,3.1,0,0,1,2.937.287" transform="translate(-526.902 -186.261)" fill="none" stroke="#502202" stroke-linecap="round" stroke-miterlimit="10" stroke-width="2"/>
                        <path id="Trazado_957494" data-name="Trazado 957494" d="M527.54,194.43a19.613,19.613,0,0,0,.273,2.777" transform="translate(-522.371 -190.579)" fill="none" stroke="#b0514a" stroke-linecap="round" stroke-miterlimit="10" stroke-width="2"/>
                        <path id="Trazado_957495" data-name="Trazado 957495" d="M530.33,204.539a4.384,4.384,0,0,0,3.1-1.149" transform="translate(-523.848 -195.321)" fill="none" stroke="#b0514a" stroke-linecap="round" stroke-miterlimit="10" stroke-width="2"/>
                        <path id="Trazado_957496" data-name="Trazado 957496" d="M536.416,193.985c.284-.05.568.21.633.581a.619.619,0,0,1-.4.763c-.284.05-.568-.21-.633-.581A.619.619,0,0,1,536.416,193.985Z" transform="translate(-526.852 -190.34)" fill="#2d3a5e"/>
                        <path id="Trazado_957497" data-name="Trazado 957497" d="M519.675,194.214c.284-.05.568.21.633.581a.619.619,0,0,1-.4.763c-.284.05-.568-.21-.633-.581A.619.619,0,0,1,519.675,194.214Z" transform="translate(-517.992 -190.461)" fill="#2d3a5e"/>
                      </g>
                      <g id="Grupo_1116223" data-name="Grupo 1116223" transform="translate(19.061 17.427)">
                        <path id="Trazado_957498" data-name="Trazado 957498" d="M550.745,190.535c1.88-.259,3.557.643,3.747,2.016s-1.181,2.7-3.061,2.955-3.557-.643-3.747-2.016S548.865,190.794,550.745,190.535Z" transform="translate(-547.667 -190.491)" fill="#fdbd9b"/>
                        <g id="Grupo_1116222" data-name="Grupo 1116222" transform="translate(2.972 1.661)">
                          <path id="Trazado_957499" data-name="Trazado 957499" d="M553.98,194.877v-.038a.82.82,0,0,1,.819-.819h.457a.82.82,0,0,1,.819.819v.038a.82.82,0,0,1-.819.819H554.8A.82.82,0,0,1,553.98,194.877Z" transform="translate(-553.98 -194.02)" fill="#4b8394"/>
                          <rect id="Rectángulo_416096" data-name="Rectángulo 416096" width="0.687" height="1.883" transform="translate(1.407 0.838)" fill="#4b8394"/>
                        </g>
                      </g>
                    </g>
                  </g>
                  <g id="Grupo_1116226" data-name="Grupo 1116226" transform="translate(30.914 29.981)">
                    <path id="Trazado_957500" data-name="Trazado 957500" d="M531.714,217.34s-5.578,3.37-6.548,4.58a7.294,7.294,0,0,0-1.266,2.871,25.834,25.834,0,0,0-1.638-3.055c-.3-.235-2.641-2.452-2.641-2.452l-2.744,2.081-3.676,1.911.155,35.314,24.864,1.685.64-38.322Z" transform="translate(-513.2 -217.255)" fill="#69c5c9"/>
                    <path id="Trazado_957501" data-name="Trazado 957501" d="M533.112,233.61c-1.177,9.9.866,27.213-2.453,33.935" transform="translate(-522.441 -225.866)" fill="none" stroke="#3e7c8a" stroke-linecap="round" stroke-miterlimit="10" stroke-width="0.5"/>
                    <path id="Trazado_957502" data-name="Trazado 957502" d="M536.89,223.227a5.152,5.152,0,0,1,1.384-2.335c.965-.772,5.941-3.7,6.072-3.733s2.575,1.671,2.575,1.671l-3.69,5.239s-3.785-2.66-4.67-2.434C537.714,221.857,536.89,223.227,536.89,223.227Z" transform="translate(-525.738 -217.159)" fill="#9bebe7"/>
                    <path id="Trazado_957503" data-name="Trazado 957503" d="M527.444,224.989a5.511,5.511,0,0,0-.791-1.723,20.946,20.946,0,0,0-2.711-2.787,7,7,0,0,0-2.5,1.9c-.348.711-.151,4.072-.151,4.072s3.3-3.144,4.594-2.787A3.524,3.524,0,0,1,527.444,224.989Z" transform="translate(-517.451 -218.917)" fill="#9bebe7"/>
                  </g>
                  <g id="Grupo_1116227" data-name="Grupo 1116227" transform="translate(45.993 30.476)">
                    <path id="Trazado_957504" data-name="Trazado 957504" d="M551.178,219.41s-4.317,4.058-4.966,8.177-.4,25.791,3.6,33c3.464,6.256,3.794,26.182,3.794,35.432l12.126-4.18s-.052-16.593-3.968-31.958c-3.036-11.909-.122-33.671-1.859-35.8C558.691,222.6,551.178,219.41,551.178,219.41Z" transform="translate(-545.605 -218.846)" fill="#fff"/>
                    <path id="Trazado_957505" data-name="Trazado 957505" d="M545.688,241.9s-1-11.448-.033-15.134,3.775-8.37,4.533-8.534c1.252-.268,4.053,1.9,4.053,1.9a27.645,27.645,0,0,0-2.937,9.881c-.061.537-4.51,2.179-4.51,2.179s3.474,2.542,3.427,2.791S545.688,241.9,545.688,241.9Z" transform="translate(-545.232 -218.211)" fill="#dae8f7"/>
                  </g>
                  <g id="Grupo_1116230" data-name="Grupo 1116230" transform="translate(33.776 32.997)">
                    <g id="Grupo_1116228" data-name="Grupo 1116228" transform="translate(0 36.148)">
                      <ellipse id="Elipse_13520" data-name="Elipse 13520" cx="4.712" cy="2.933" rx="4.712" ry="2.933" transform="translate(0 1.597)" fill="#407c91"/>
                      <path id="Trazado_957506" data-name="Trazado 957506" d="M532.7,301.046l-4.8-.635a2.312,2.312,0,0,0-1.28.075,1.728,1.728,0,0,0-.838,1.516c.8.071,1.6.137,2.41.268a15.8,15.8,0,0,1-3.53,3.507,3.874,3.874,0,0,0-.843.72,1.142,1.142,0,0,0-.24,1.04,1.089,1.089,0,0,0,.833.654,9.275,9.275,0,0,0,1.167.033,1.274,1.274,0,0,0,.617,1.389,1.53,1.53,0,0,0,1.6-.207,1.7,1.7,0,0,0,1.238.871,3.794,3.794,0,0,0,1.52-.24,2.009,2.009,0,0,0,1.53.687,2.546,2.546,0,0,0,1.61-.7,12.383,12.383,0,0,0,3.206-4.5A34.369,34.369,0,0,1,532.7,301.046Z" transform="translate(-521.532 -300.358)" fill="#fbbd9a"/>
                    </g>
                    <g id="Grupo_1116229" data-name="Grupo 1116229" transform="translate(9.038)">
                      <path id="Trazado_957507" data-name="Trazado 957507" d="M548.37,230.648c-.118-2.274,1.036-6.553,2.674-7,2.551-.692,6.887,3.14,8.026,6.19s4.58,21.743,3.615,24.29c-1.323,3.474-18.791,12.818-18.791,12.818l-5.413-7.913s12.112-6.571,12.832-8.661C551.759,249.062,548.648,235.981,548.37,230.648Z" transform="translate(-538.48 -223.566)" fill="#fff"/>
                      <path id="Trazado_957508" data-name="Trazado 957508" d="M560.825,230.29a12.438,12.438,0,0,0-1.953,7.16c0,4.6,1.13,15.506.866,15.906s-8.8,5.936-8.8,5.936" transform="translate(-545.075 -227.125)" fill="none" stroke="#b8c8e3" stroke-linecap="round" stroke-miterlimit="10" stroke-width="1"/>
                      <path id="Trazado_957509" data-name="Trazado 957509" d="M565.19,254.423a11.966,11.966,0,0,1-2.58-5.183" transform="translate(-551.251 -237.155)" fill="none" stroke="#b8c8e3" stroke-linecap="round" stroke-miterlimit="10" stroke-width="1"/>
                      <path id="Trazado_957510" data-name="Trazado 957510" d="M558.24,305.215a72.885,72.885,0,0,0,9.2-5.795" transform="translate(-548.938 -263.713)" fill="none" stroke="#b8c8e3" stroke-linecap="round" stroke-miterlimit="10" stroke-width="1"/>
                    </g>
                  </g>
                  <g id="Grupo_1116232" data-name="Grupo 1116232" transform="translate(20.878 31.539)">
                    <path id="Trazado_957511" data-name="Trazado 957511" d="M507.64,221.12a33.837,33.837,0,0,0-.734,7.734c0,8.238-1.073,31.143-5.409,34.528-3.408,2.66-7.678,2.49-9.617,2.49,0,0,4.034-2.147,5.54-4.637,1.676-2.768,1.958-11.566,2.179-16.151.235-4.858.673-18.245,1.229-19.413C502.034,223.154,507.64,221.12,507.64,221.12Z" transform="translate(-491.88 -220.814)" fill="#fff"/>
                    <path id="Trazado_957512" data-name="Trazado 957512" d="M516.872,243.8a130.535,130.535,0,0,0,.984-13.143,48.236,48.236,0,0,1,.993-10.187s-3.427,1.087-3.8,1.643-2.151,3.742-3.06,9.782c-.151,1,3.9,1.822,3.9,1.822s-3.121,2.424-3.121,3.031C512.767,237.925,516.872,243.8,516.872,243.8Z" transform="translate(-502.519 -220.47)" fill="#dae8f7"/>
                    <g id="Grupo_1116231" data-name="Grupo 1116231" transform="translate(6.896 7.254)">
                      <path id="Trazado_957513" data-name="Trazado 957513" d="M508.505,235.88a196.452,196.452,0,0,1-1.765,27.288" transform="translate(-506.641 -235.88)" fill="none" stroke="#b8c8e3" stroke-linecap="round" stroke-miterlimit="10" stroke-width="1"/>
                      <path id="Trazado_957514" data-name="Trazado 957514" d="M506.53,245.88a11.089,11.089,0,0,0,1.662,4.312" transform="translate(-506.53 -241.173)" fill="none" stroke="#b8c8e3" stroke-linecap="round" stroke-miterlimit="10" stroke-width="1"/>
                    </g>
                  </g>
                </g>
                <g id="Grupo_1116235" data-name="Grupo 1116235" transform="translate(0 21.757)">
                  <path id="Trazado_957515" data-name="Trazado 957515" d="M511.67,199.714s.645,15.153,9.73,15.732c7.668.49,11.924-8.934,11.924-15.755" transform="translate(-463.086 -199.69)" fill="none" stroke="#163649" stroke-miterlimit="10" stroke-width="1"/>
                  <g id="Grupo_1116234" data-name="Grupo 1116234" transform="translate(0 15.944)">
                    <path id="Trazado_957516" data-name="Trazado 957516" d="M467.618,233.56s-5.588,20.42-21.089,24.111c-18.97,4.519-37.559-.56-37.559-.56" transform="translate(-408.73 -233.56)" fill="none" stroke="#163649" stroke-linecap="round" stroke-miterlimit="10" stroke-width="1"/>
                    <path id="Trazado_957517" data-name="Trazado 957517" d="M442.566,234.79s2.142,12.38-7.456,18.791c-8.5,5.682-26.139,3.926-26.139,3.926" transform="translate(-408.73 -234.211)" fill="none" stroke="#163649" stroke-linecap="round" stroke-miterlimit="10" stroke-width="1"/>
                    <path id="Trazado_957518" data-name="Trazado 957518" d="M460.946,295.937s-34.768.071-52.486-12.347" transform="translate(-408.46 -260.039)" fill="none" stroke="#163649" stroke-linecap="round" stroke-miterlimit="10" stroke-width="1"/>
                  </g>
                </g>
              </g>
            </g>
            <g id="Grupo_1116270" data-name="Grupo 1116270" transform="translate(130.166)">
              <path id="Trazado_957519" data-name="Trazado 957519" d="M674.577,115.079a8.07,8.07,0,0,1,15.369-3.879c1.346,2.881.885,6.256.235,9.372s-1.45,6.341-.711,9.433c.626,2.6,2.307,4.9,2.641,7.555a7.936,7.936,0,0,1-5.677,8.374c-2.015.523-4.618-.122-5.258-2.1-.593-1.836.763-3.789.489-5.7-.231-1.6-1.535-2.787-2.608-3.992C675.1,129.691,675.048,123.275,674.577,115.079Z" transform="translate(-634.88 -106.567)" fill="#381b07"/>
              <g id="Grupo_1116239" data-name="Grupo 1116239" transform="translate(0 36.473)">
                <path id="Trazado_957520" data-name="Trazado 957520" d="M597.591,205.309a14.84,14.84,0,0,1-3.121-7.009,12.288,12.288,0,0,1,.282-4.364,10.949,10.949,0,0,1,1.087-2c.466-.73.927-1.459,1.393-2.189a1.473,1.473,0,0,1,.758-.715c.579-.155,1.111.5,1.083,1.1a2.352,2.352,0,0,1-1.111,1.638,6.492,6.492,0,0,1,1.586-2.942.876.876,0,0,1,.767-.367c.475.113.461.791.334,1.262-.32,1.182-.635,2.363-.89,3.38,1.007,1.921.918,4.2.937,6.364s.231,4.51,1.662,6.138C600.985,206.213,599.366,203.812,597.591,205.309Z" transform="translate(-592.46 -186.381)" fill="#db8e62"/>
                <path id="Trazado_957521" data-name="Trazado 957521" d="M600.72,217.575s4.778,16.325,8.388,16.659c4.368.41,7.918-3.629,7.918-3.629l2.853-14.621-6.468-3.874-3.568,11.716-5.093-5.757Z" transform="translate(-595.796 -198.901)" fill="#db8e62"/>
                <path id="Trazado_957522" data-name="Trazado 957522" d="M634.415,203.571c-3.559-1.346-7.131-2.664-10.685-4.029.97-4.646,2.316-10.215,3.493-11.994a7.9,7.9,0,0,1,5.762-3.5l1.624,4.806-.193,14.616Z" transform="translate(-607.975 -184.05)" fill="#1d9fb3"/>
                <g id="Grupo_1116238" data-name="Grupo 1116238" transform="translate(0 2.085)">
                  <path id="Trazado_957523" data-name="Trazado 957523" d="M613.42,215.373l-10.4-26.893-12.757,3.309,11.806,29.943Z" transform="translate(-590.26 -188.48)" fill="#b23f37"/>
                  <path id="Trazado_957524" data-name="Trazado 957524" d="M613.545,215.557l-9.372-23.937-10.4,2.82,10.248,26.191Z" transform="translate(-592.118 -190.142)" fill="#ebf5ff"/>
                  <path id="Trazado_957525" data-name="Trazado 957525" d="M604.091,190.24l.65,1.737-4.081,1.134-.73-1.775Z" transform="translate(-595.378 -189.411)" fill="#678ca8"/>
                </g>
              </g>
              <g id="Grupo_1116243" data-name="Grupo 1116243" transform="translate(17.012 73.251)">
                <g id="Grupo_1116242" data-name="Grupo 1116242" transform="translate(0 71.033)">
                  <g id="Grupo_1116241" data-name="Grupo 1116241">
                    <g id="Grupo_1116240" data-name="Grupo 1116240" transform="translate(0 8.426)">
                      <path id="Trazado_957526" data-name="Trazado 957526" d="M626.4,440.926c.038,1.765,18.551,1.167,19.385-.287.541-.951-.457-3.342-1.219-4.891-.4-.833-.744-1.422-.744-1.422l-2.354-3.3-1.878-.052a90.756,90.756,0,0,0-10.822,7.07C627.289,439.265,626.386,440.272,626.4,440.926Z" transform="translate(-626.4 -430.98)" fill="#136d94"/>
                      <path id="Trazado_957527" data-name="Trazado 957527" d="M631.43,438.06c3.827,2.41,12.644-.96,15.8-2.3-.4-.833-.744-1.422-.744-1.422l-2.354-3.3-1.878-.052A90.374,90.374,0,0,0,631.43,438.06Z" transform="translate(-629.062 -430.985)" fill="#db8e62"/>
                    </g>
                    <path id="Trazado_957528" data-name="Trazado 957528" d="M643.5,414.247l.654,7.216.235,2.589.165,1.779,7.489-.786.061-1.257v0l.061-1.318.414-8.53.042-.857-4.561.584Z" transform="translate(-635.45 -413.08)" fill="#db8e62"/>
                  </g>
                  <path id="Trazado_957529" data-name="Trazado 957529" d="M643.5,414.9l.654,7.216,3.747.466h0l3.159.4,1.1.136.414-8.53-4.519-.273Z" transform="translate(-635.45 -413.736)" fill="#cf6e4a"/>
                </g>
                <path id="Trazado_957530" data-name="Trazado 957530" d="M629.261,262.18a60.477,60.477,0,0,0-2.584,21.569c.636,12.663,5.974,56.822,5.974,56.822l13.3-.626-2.278-57.005-3.21-17.652" transform="translate(-626.502 -262.18)" fill="#1d9fb3"/>
              </g>
              <g id="Grupo_1116248" data-name="Grupo 1116248" transform="translate(17.86 70.384)">
                <g id="Grupo_1116246" data-name="Grupo 1116246" transform="translate(27.406 66.97)">
                  <g id="Grupo_1116245" data-name="Grupo 1116245">
                    <g id="Grupo_1116244" data-name="Grupo 1116244" transform="translate(4.71 7.824)">
                      <path id="Trazado_957531" data-name="Trazado 957531" d="M696.748,432.285c1.172,1.318,14.875-11.147,14.569-12.79-.2-1.073-2.514-2.245-4.1-2.928-.847-.367-1.487-.6-1.487-.6l-3.931-.979-1.464,1.177a90.483,90.483,0,0,0-3.648,12.4C696.343,430.439,696.315,431.795,696.748,432.285Z" transform="translate(-696.426 -414.985)" fill="#136d94"/>
                      <path id="Trazado_957532" data-name="Trazado 957532" d="M696.98,428.556c4.477-.65,9-8.934,10.53-12-.847-.367-1.487-.6-1.487-.6l-3.931-.979-1.464,1.177A90.292,90.292,0,0,0,696.98,428.556Z" transform="translate(-696.719 -414.98)" fill="#db8e62"/>
                    </g>
                    <path id="Trazado_957533" data-name="Trazado 957533" d="M686.42,405.167l3.112,3.046,3.921,3.836,1.28,1.247,5.192-5.451-.772-1-2.245-2.909-4.3-5.573Z" transform="translate(-686.42 -398.36)" fill="#db8e62"/>
                  </g>
                  <path id="Trazado_957534" data-name="Trazado 957534" d="M686.42,405.167l3.112,3.046,7.376-4.279-4.3-5.573Z" transform="translate(-686.42 -398.36)" fill="#cf6e4a"/>
                </g>
                <g id="Grupo_1116247" data-name="Grupo 1116247">
                  <path id="Trazado_957535" data-name="Trazado 957535" d="M628.341,267.326c1.294,3.6,11.043,9.932,11.043,9.932s-.094,25.1.268,31.431,13.472,26.982,13.472,26.982l12.286-10.907s-9.523-15.925-10.177-19.667,3.465-23.423,3.465-31.435a30.923,30.923,0,0,0-.362-4.524,56.4,56.4,0,0,0-2.189-9.033c-.786-2.424-1.45-4.015-1.45-4.015a121.124,121.124,0,0,0-13.34,2.834c-6.1,1.7-12.178,4.166-13.105,7.306A1.773,1.773,0,0,0,628.341,267.326Z" transform="translate(-628.2 -256.09)" fill="#25b2c2"/>
                  <path id="Trazado_957536" data-name="Trazado 957536" d="M628.343,270.512a79.128,79.128,0,0,0,10.116,5.046,15.2,15.2,0,0,1,.734-1.737c.306.664.617,1.318.993,2.217,6.007-1.506,12.069-2.782,18.156-3.714a56.426,56.426,0,0,0-2.189-9.033q-7.386-.692-14.79-1.182c-6.1,1.7-12.178,4.166-13.1,7.306A1.733,1.733,0,0,0,628.343,270.512Z" transform="translate(-628.202 -259.276)" fill="#1d9fb3"/>
                </g>
              </g>
              <path id="Trazado_957537" data-name="Trazado 957537" d="M660.078,185.421c-.466-2.824-11.156-6.454-14.79-6.124-7.8.711-13.458,2.128-15.238,3.243s-3.4,11.538-3.4,14.442c0,3.436,1.182,10.182.866,12.9-.612,5.277-3.813,16.452-3.813,16.452l11.763,4.124,1.459-2.57,1.332,3.257,19.441-4.458s-1.487-15.482-1.487-18.2C656.213,205.888,660.68,189.064,660.078,185.421Z" transform="translate(-607.959 -145.05)" fill="#27b8c1"/>
              <g id="Grupo_1116250" data-name="Grupo 1116250" transform="translate(28.945 42.216)">
                <path id="Trazado_957538" data-name="Trazado 957538" d="M656.763,196.25c-3.907,20.35-4.124,26.177-5.013,40.473" transform="translate(-651.75 -196.25)" fill="none" stroke="#51dbdb" stroke-linecap="round" stroke-miterlimit="10" stroke-width="1"/>
                <g id="Grupo_1116249" data-name="Grupo 1116249" transform="translate(1.323 3.375)">
                  <circle id="Elipse_13521" data-name="Elipse 13521" cx="0.654" cy="0.654" r="0.654" transform="translate(3.554)" fill="#136d94"/>
                  <circle id="Elipse_13522" data-name="Elipse 13522" cx="0.654" cy="0.654" r="0.654" transform="translate(1.916 8.901)" fill="#136d94"/>
                  <circle id="Elipse_13523" data-name="Elipse 13523" cx="0.654" cy="0.654" r="0.654" transform="translate(0.654 18.283)" fill="#136d94"/>
                  <circle id="Elipse_13524" data-name="Elipse 13524" cx="0.654" cy="0.654" r="0.654" transform="translate(0 29.039)" fill="#136d94"/>
                </g>
              </g>
              <g id="Grupo_1116259" data-name="Grupo 1116259" transform="translate(11.269 37.431)">
                <g id="Grupo_1116258" data-name="Grupo 1116258" transform="translate(0 11.3)">
                  <g id="Grupo_1116256" data-name="Grupo 1116256">
                    <g id="Grupo_1116255" data-name="Grupo 1116255">
                      <g id="Grupo_1116252" data-name="Grupo 1116252" transform="translate(0 0.096)">
                        <path id="Trazado_957539" data-name="Trazado 957539" d="M614.2,216.28l1.949.155.151.014,13.067-3.432a1.433,1.433,0,0,0,.833-1.808,1.479,1.479,0,0,0-1.888-.829l-12.465,4.406-.127.113Z" transform="translate(-614.2 -210.294)" fill="#136d94"/>
                        <g id="Grupo_1116251" data-name="Grupo 1116251" transform="translate(0 4.606)">
                          <path id="Trazado_957540" data-name="Trazado 957540" d="M614.2,221.459l.537.042,1.412.113a.92.92,0,0,1-.127-.108.645.645,0,0,1-.193-.631c.028-.094.085-.193.047-.282a.451.451,0,0,0-.085-.1.469.469,0,0,1-.075-.41L614.6,221.1Z" transform="translate(-614.2 -220.08)" fill="#d68a5a"/>
                          <path id="Trazado_957541" data-name="Trazado 957541" d="M614.2,222.6l.537.042a.522.522,0,0,1-.118-.212.53.53,0,0,1-.019-.193Z" transform="translate(-614.2 -221.223)" fill="#24151a"/>
                        </g>
                      </g>
                      <g id="Grupo_1116254" data-name="Grupo 1116254" transform="translate(3.467)">
                        <path id="Trazado_957542" data-name="Trazado 957542" d="M633.538,219.076c-1.285-2.382-2.565-4.764-3.935-7.15a12.96,12.96,0,0,0-3.328-1.836,9.26,9.26,0,0,0-3.78,2.405c-.264.278-.541.668-.419,1.04a.606.606,0,0,0,.635.386,1.812,1.812,0,0,0,.739-.3c.711-.414,1.422-.833,2.245-1.233a6.02,6.02,0,0,1,.635.6,5.386,5.386,0,0,0-1.535.179,24.2,24.2,0,0,0-2.688,1.483.984.984,0,0,0-.541.673.625.625,0,0,0,.334.593,1.168,1.168,0,0,0,.659.094,4.349,4.349,0,0,0,2.307-.861,3.026,3.026,0,0,1,.753.292,3.828,3.828,0,0,0-1.036.3,1.439,1.439,0,0,0-.678,2.043.545.545,0,0,0-.282.537,1.516,1.516,0,0,0,.2.607,12.036,12.036,0,0,0,.664,1.153,2.109,2.109,0,0,0,.857.833.847.847,0,0,0,1.078-.41,4.8,4.8,0,0,0,4.547,2.471A14.588,14.588,0,0,0,633.538,219.076Z" transform="translate(-621.565 -210.09)" fill="#db8e62"/>
                        <g id="Grupo_1116253" data-name="Grupo 1116253" transform="translate(2.408 2.862)">
                          <path id="Trazado_957543" data-name="Trazado 957543" d="M633.454,216.481a5.141,5.141,0,0,0-1.464-.311" transform="translate(-629.49 -216.17)" fill="none" stroke="#a8473e" stroke-linecap="round" stroke-miterlimit="10" stroke-width="0.5"/>
                          <path id="Trazado_957544" data-name="Trazado 957544" d="M631.645,221.177a5.382,5.382,0,0,0-1.285.038" transform="translate(-628.628 -218.809)" fill="none" stroke="#a8473e" stroke-linecap="round" stroke-miterlimit="10" stroke-width="0.5"/>
                          <path id="Trazado_957545" data-name="Trazado 957545" d="M626.68,225.56a4.658,4.658,0,0,1,2.481-.475" transform="translate(-626.68 -220.876)" fill="none" stroke="#a8473e" stroke-linecap="round" stroke-miterlimit="10" stroke-width="0.5"/>
                          <path id="Trazado_957546" data-name="Trazado 957546" d="M630.863,230.352a5,5,0,0,1-.523-1.412" transform="translate(-628.617 -222.929)" fill="none" stroke="#a8473e" stroke-linecap="round" stroke-miterlimit="10" stroke-width="0.5"/>
                          <path id="Trazado_957547" data-name="Trazado 957547" d="M629.707,230.57a4.252,4.252,0,0,1-.847.066" transform="translate(-627.834 -223.792)" fill="none" stroke="#a8473e" stroke-linecap="round" stroke-miterlimit="10" stroke-width="0.5"/>
                        </g>
                      </g>
                    </g>
                  </g>
                  <g id="Grupo_1116257" data-name="Grupo 1116257" transform="translate(12.079 1.855)">
                    <path id="Trazado_957548" data-name="Trazado 957548" d="M639.86,224.452s16.268,13.8,20.66,12.244c1.746-.621,3.479-5.686,4.736-10.4,1.158-4.335,1.911-8.37,1.911-8.37l-9.217-3.893s-.617,4.18-1.238,7.579c-.41,2.292-.824,4.227-1.045,4.284-.941.264-12.884-5.051-12.884-5.051Z" transform="translate(-639.86 -214.03)" fill="#db8e62"/>
                    <path id="Trazado_957549" data-name="Trazado 957549" d="M675.66,221.619A51.786,51.786,0,0,0,684.2,226.3c1.158-4.335,1.911-8.37,1.911-8.37l-9.217-3.893S676.281,218.22,675.66,221.619Z" transform="translate(-658.808 -214.035)" fill="#cf6e4a"/>
                  </g>
                </g>
                <path id="Trazado_957550" data-name="Trazado 957550" d="M685.39,208.042a68.6,68.6,0,0,1-11.09-2.81c.546-4.528,1.822-12.719,2.857-15.242.734-1.789,3.62-4.933,6.873-3.573s4.5,3.507,4.157,9.17C688.059,197.6,686.144,203.942,685.39,208.042Z" transform="translate(-646.009 -186.085)" fill="#32c9cf"/>
              </g>
              <g id="Grupo_1116269" data-name="Grupo 1116269" transform="translate(22.276 2.306)">
                <g id="Grupo_1116262" data-name="Grupo 1116262" transform="translate(8.076 24.207)">
                  <g id="Grupo_1116260" data-name="Grupo 1116260" transform="translate(0.631)">
                    <path id="Trazado_957551" data-name="Trazado 957551" d="M656.08,172.686s.946,4.284,2.773,5.536,8.741-6.449,8.741-6.449c-1.191-1.111-1.478-3.29-1.464-5.22a22.372,22.372,0,0,1,.344-3.662l-8.426,2.434a16.905,16.905,0,0,1-.348,4.66C657.125,172.323,656.08,172.686,656.08,172.686Z" transform="translate(-656.08 -162.89)" fill="#db8e62"/>
                    <path id="Trazado_957552" data-name="Trazado 957552" d="M659.53,169.984c3.883.824,6.854-1.648,8.426-3.432a22.376,22.376,0,0,1,.344-3.662l-8.426,2.434A16.74,16.74,0,0,1,659.53,169.984Z" transform="translate(-657.906 -162.89)" fill="#cf6e4a"/>
                  </g>
                  <g id="Grupo_1116261" data-name="Grupo 1116261" transform="translate(0 6.467)">
                    <path id="Trazado_957553" data-name="Trazado 957553" d="M662.614,185.643a10.859,10.859,0,0,1,.706-3.159c.273-.249,6.915-6.068,7.31-5.851a7.843,7.843,0,0,1,1.534,2.156,24.325,24.325,0,0,1-3.94,3.94C666.455,184.165,663.631,185.817,662.614,185.643Z" transform="translate(-658.9 -176.627)" fill="#136d94"/>
                    <path id="Trazado_957554" data-name="Trazado 957554" d="M658.453,186.8a11.982,11.982,0,0,0-.32-3.276,11.128,11.128,0,0,1-1.483-4.684s-1.676.635-1.883,1,.706,3.088,1.407,4.382C657.366,186.4,658.336,186.918,658.453,186.8Z" transform="translate(-654.739 -177.799)" fill="#136d94"/>
                  </g>
                </g>
                <g id="Grupo_1116268" data-name="Grupo 1116268" transform="translate(0)">
                  <g id="Grupo_1116265" data-name="Grupo 1116265">
                    <ellipse id="Elipse_13525" data-name="Elipse 13525" cx="2.561" cy="3.507" rx="2.561" ry="3.507" transform="matrix(0.113, -0.994, 0.994, 0.113, 0, 22.21)" fill="#cf6e4a"/>
                    <g id="Grupo_1116263" data-name="Grupo 1116263" transform="translate(3.23 3.998)">
                      <path id="Trazado_957555" data-name="Trazado 957555" d="M664.955,131.978c0-6.637-4.59-12.018-10.253-12.018s-10.252,5.38-10.252,12.018,2.829,13.237,8.567,13C658.671,144.744,664.955,138.615,664.955,131.978Z" transform="translate(-644.448 -119.96)" fill="#db8e62"/>
                      <path id="Trazado_957556" data-name="Trazado 957556" d="M662.679,135.265a11.225,11.225,0,0,1-2.128-4.778,5.609,5.609,0,0,1-3.21-2.895c-1.737,1.737-8.337,2.716-10.54,2.142-1.568,1.935-1.615,2.895-2.17,5.366a27.021,27.021,0,0,1,.466-9.062,97.107,97.107,0,0,0,12.084-4.811,2.317,2.317,0,0,1,2.109-.268,2.488,2.488,0,0,1,.833,1.134,14.4,14.4,0,0,0,3.7,4.7c.4.334.857.711.876,1.229a1.864,1.864,0,0,1-.33.946C663.63,130.332,663.757,133.6,662.679,135.265Z" transform="translate(-644.445 -120.4)" fill="#cf6e4a"/>
                    </g>
                    <g id="Grupo_1116264" data-name="Grupo 1116264" transform="translate(1.49)">
                      <path id="Trazado_957557" data-name="Trazado 957557" d="M640.75,123.42c-.033,2.514,2.015,7.734,2.015,7.734s.014-4.3,1.972-7.089c4.053,0,8.544-.188,11.029-2.495a5.5,5.5,0,0,0,3.45,3.389c-.047,2.278,1,4.411,1.652,6.327,1.276-.777,2.236-.447,3.276-1.676a27.377,27.377,0,0,0,1.059-7.856,10.83,10.83,0,0,0-1.563-4.938,7.652,7.652,0,0,0-.753-.993,6.132,6.132,0,0,0-5.832-2.019,6.7,6.7,0,0,0-4.731-2.316,9.407,9.407,0,0,0-5.122,1.351,12.122,12.122,0,0,0-6.185,8.12A12.927,12.927,0,0,0,640.75,123.42Z" transform="translate(-640.749 -111.471)" fill="#412408"/>
                      <path id="Trazado_957558" data-name="Trazado 957558" d="M640.75,123.415a9.889,9.889,0,0,1,.306-.96,13.663,13.663,0,0,1,2.6-4.133,12.892,12.892,0,0,1,6.058-4.157,7.321,7.321,0,0,1,6.967,1.483,6.909,6.909,0,0,1,6.953,1.158,7.643,7.643,0,0,0-.753-.993,6.132,6.132,0,0,0-5.832-2.019,6.7,6.7,0,0,0-4.731-2.316,9.407,9.407,0,0,0-5.122,1.351,12.122,12.122,0,0,0-6.185,8.12A13.416,13.416,0,0,0,640.75,123.415Z" transform="translate(-640.75 -111.466)" fill="#664216"/>
                    </g>
                    <path id="Trazado_957559" data-name="Trazado 957559" d="M683.51,148.709c1.876-.48,3.682.241,4.033,1.611s-.886,2.87-2.762,3.351-3.682-.241-4.033-1.611S681.633,149.189,683.51,148.709Z" transform="translate(-660.397 -131.099)" fill="#db8e62"/>
                  </g>
                  <g id="Grupo_1116267" data-name="Grupo 1116267" transform="translate(4.645 15.946)">
                    <g id="Grupo_1116266" data-name="Grupo 1116266">
                      <ellipse id="Elipse_13526" data-name="Elipse 13526" cx="0.447" cy="0.716" rx="0.447" ry="0.716" transform="translate(9.09 3.798)" fill="#411f00"/>
                      <ellipse id="Elipse_13527" data-name="Elipse 13527" cx="0.447" cy="0.716" rx="0.447" ry="0.716" transform="translate(0.876 3.798)" fill="#411f00"/>
                      <path id="Trazado_957560" data-name="Trazado 957560" d="M650.091,145.52a3.334,3.334,0,0,0-2.641.212" transform="translate(-647.45 -145.341)" fill="none" stroke="#412408" stroke-linecap="round" stroke-miterlimit="10" stroke-width="2"/>
                      <path id="Trazado_957561" data-name="Trazado 957561" d="M666.23,146.23a3.157,3.157,0,0,1,2.994.292" transform="translate(-657.39 -145.68)" fill="none" stroke="#412408" stroke-linecap="round" stroke-miterlimit="10" stroke-width="2"/>
                      <path id="Trazado_957562" data-name="Trazado 957562" d="M656.73,156.09a8.688,8.688,0,0,0,.01,2.01" transform="translate(-652.333 -151.03)" fill="none" stroke="#a8473e" stroke-linecap="round" stroke-miterlimit="10" stroke-width="2"/>
                    </g>
                    <path id="Trazado_957563" data-name="Trazado 957563" d="M657.86,163.686a2.583,2.583,0,0,0,3.224-.8" transform="translate(-652.96 -154.629)" fill="none" stroke="#a8473e" stroke-linecap="round" stroke-miterlimit="10" stroke-width="2"/>
                  </g>
                </g>
              </g>
            </g>
          </g>
          <g id="Grupo_1116280" data-name="Grupo 1116280" transform="translate(55.904 3.647)">
            <g id="Grupo_1116273" data-name="Grupo 1116273" transform="translate(0 5.649)">
              <circle id="Elipse_13528" data-name="Elipse 13528" cx="17.271" cy="17.271" r="17.271" fill="#ffa8b1"/>
              <g id="Grupo_1116272" data-name="Grupo 1116272" transform="translate(4.74 8.855)">
                <path id="Trazado_957564" data-name="Trazado 957564" d="M325.946,81.028c3.78-7.042,11.255,2.41,11.255,2.41s7.489-8.078,11.255-2.829c3.912,5.446-11.255,18.132-11.255,18.132S322.731,87.021,325.946,81.028Z" transform="translate(-324.698 -78.421)" fill="#b82621"/>
                <path id="Trazado_957565" data-name="Trazado 957565" d="M323.82,90.768l5.239.056,1.629-6.374,3.356,12.117L336.7,81.89l2.886,13.218,1.723-9.584,1.845,5.027,5.729.155" transform="translate(-323.82 -80.257)" fill="none" stroke="#fff" stroke-linecap="round" stroke-miterlimit="10" stroke-width="1"/>
              </g>
            </g>
            <g id="Grupo_1116275" data-name="Grupo 1116275" transform="translate(47.426 32.184)">
              <circle id="Elipse_13529" data-name="Elipse 13529" cx="17.652" cy="17.652" r="17.652" fill="#ffa8b1"/>
              <g id="Grupo_1116274" data-name="Grupo 1116274" transform="translate(5.537 8.424)">
                <path id="Trazado_957566" data-name="Trazado 957566" d="M447.8,143.886l-13.51,7.739a5.36,5.36,0,1,1-5.329-9.3l13.51-7.739a5.358,5.358,0,0,1,7.833,6.058A5.308,5.308,0,0,1,447.8,143.886Z" transform="translate(-426.263 -133.876)" fill="#fff"/>
                <path id="Trazado_957567" data-name="Trazado 957567" d="M458.418,143.886l-6.76,3.869-5.329-9.3,6.76-3.869a5.358,5.358,0,0,1,7.833,6.058A5.309,5.309,0,0,1,458.418,143.886Z" transform="translate(-436.884 -133.876)" fill="#b82621"/>
              </g>
            </g>
            <g id="Grupo_1116279" data-name="Grupo 1116279" transform="translate(92.7)">
              <circle id="Elipse_13530" data-name="Elipse 13530" cx="17.271" cy="17.271" r="17.271" fill="#ffa8b1"/>
              <g id="Grupo_1116278" data-name="Grupo 1116278" transform="translate(8.464 6.101)">
                <g id="Grupo_1116276" data-name="Grupo 1116276">
                  <path id="Trazado_957568" data-name="Trazado 957568" d="M546.27,63.074V74.913a8.572,8.572,0,0,1-3.907,7.179l-4.9,2.857-4.491-2.914A8.6,8.6,0,0,1,528.66,74.6V63.074l8.746-2.5.061.019Z" transform="translate(-528.66 -60.57)" fill="#fff"/>
                  <path id="Trazado_957569" data-name="Trazado 957569" d="M556.173,63.1V74.934a8.572,8.572,0,0,1-3.907,7.179l-4.9,2.857V60.61Z" transform="translate(-538.563 -60.591)" fill="#f2e4e5"/>
                </g>
                <g id="Grupo_1116277" data-name="Grupo 1116277" transform="translate(2.114 5.498)">
                  <rect id="Rectángulo_416097" data-name="Rectángulo 416097" width="4.062" height="13.378" transform="translate(4.66)" fill="#b82621"/>
                  <rect id="Rectángulo_416098" data-name="Rectángulo 416098" width="13.378" height="4.062" transform="translate(0 4.659)" fill="#b82621"/>
                </g>
              </g>
            </g>
          </g>
        </g>
      </g>
    </g>
  </g>
</svg>
