<svg xmlns="http://www.w3.org/2000/svg" width="120" height="120" viewBox="0 0 120 120">
  <g id="Grupo_1115880" data-name="Grupo 1115880" transform="translate(-64 -6445)">
    <rect id="Rectángulo_402033" data-name="Rectángulo 402033" width="120" height="120" rx="8" transform="translate(64 6445)" fill="#0042db"/>
    <g id="Rectángulo_412110" data-name="Rectángulo 412110" transform="translate(69 6450)" fill="none" stroke="#fff" stroke-width="1">
      <rect width="110" height="110" rx="6" stroke="none"/>
      <rect x="0.5" y="0.5" width="109" height="109" rx="5.5" fill="none"/>
    </g>
    <g id="Layer_32" data-name="Layer 32" transform="translate(83 6464.291)">
      <path id="Trazado_957259" data-name="Trazado 957259" d="M73.607,37a34.648,34.648,0,0,1-5.191,11.9l3.164,3.164-9.124,9.124-3.168-3.16A34.653,34.653,0,0,1,46.094,63.49v4.477h-12.9V63.49A34.653,34.653,0,0,1,20,58.032L16.832,61.2,7.708,52.068l3.16-3.164A34.648,34.648,0,0,1,5.677,37H15.984A24.524,24.524,0,0,0,63.3,37Z" transform="translate(1.358 10.161)" fill="#f79b31"/>
      <path id="Trazado_957260" data-name="Trazado 957260" d="M61.428,37a24.524,24.524,0,0,1-47.316,0H12.127A37.444,37.444,0,0,0,44.221,63.9V63.49a34.653,34.653,0,0,0,13.195-5.458L60.58,61.2,69.7,52.072,66.544,48.9A34.648,34.648,0,0,0,71.735,37Z" transform="translate(3.23 10.161)" fill="#fcb732"/>
      <path id="Trazado_957261" data-name="Trazado 957261" d="M62.226,30.355v-15.1A12.258,12.258,0,0,0,49.968,3,10.968,10.968,0,0,0,39,13.968v21.29Z" transform="translate(11.032 0.29)" fill="#383838"/>
      <path id="Trazado_957262" data-name="Trazado 957262" d="M50.721,3.059A10.968,10.968,0,0,0,41,13.951V34.7l20.645-4.359v-15.1A12.258,12.258,0,0,0,50.721,3.059Z" transform="translate(11.613 0.307)" fill="#4c4c4c"/>
      <path id="Trazado_957263" data-name="Trazado 957263" d="M48.194,20v3.871l-8.535,1.707A7.04,7.04,0,0,0,34,32.479v9.457H70.129V32.479a7.04,7.04,0,0,0-5.658-6.9l-8.535-1.707V20Z" transform="translate(9.581 5.226)" fill="#0059be"/>
      <path id="Trazado_957264" data-name="Trazado 957264" d="M16.194,20v3.871L7.658,25.578A7.04,7.04,0,0,0,2,32.479v9.457H38.129V32.479a7.04,7.04,0,0,0-5.658-6.9l-8.535-1.707V20Z" transform="translate(0.29 5.226)" fill="#8dbf00"/>
      <path id="Trazado_957265" data-name="Trazado 957265" d="M69.258,32.479a7.04,7.04,0,0,0-5.658-6.9l-8.535-1.707V20H49.9v3.871l-7.1,1.419a5.1,5.1,0,0,1,.645,2.452A5.161,5.161,0,0,1,38.29,32.9h-.343A9.08,9.08,0,0,1,37,34.037v.621l6.461,1.29a9.657,9.657,0,0,1,7.08,5.987H69.258Z" transform="translate(10.452 5.226)" fill="#006bdb"/>
      <path id="Trazado_957266" data-name="Trazado 957266" d="M27.217,35.951l6.461-1.29V34.04A9.08,9.08,0,0,1,32.73,32.9h-.343a5.125,5.125,0,0,1-4.23-8.071l-4.8-.961V20H18.194v3.871L9.658,25.578A7.04,7.04,0,0,0,4,32.479v9.457H20.137a9.657,9.657,0,0,1,7.08-5.985Z" transform="translate(0.871 5.226)" fill="#a2ce02"/>
      <path id="Trazado_957267" data-name="Trazado 957267" d="M49.447,30.323a6.452,6.452,0,0,0,6.431-5.936l-2.56-.516V20H45.576v3.871l-2.561.516A6.452,6.452,0,0,0,49.447,30.323Z" transform="translate(12.198 5.226)" fill="#d08d78"/>
      <path id="Trazado_957268" data-name="Trazado 957268" d="M55.347,24.1l-2.56-.516v-2.61a6.356,6.356,0,0,1-6.452.774v1.836a1.848,1.848,0,0,0-1.172,2.85c1.08,1.564,2.679,3.366,4.4,3.539A6.432,6.432,0,0,0,55.347,24.1Z" transform="translate(12.729 5.509)" fill="#f2b9a1"/>
      <path id="Trazado_957269" data-name="Trazado 957269" d="M43.161,39.032H40.581V36.968A10.021,10.021,0,0,1,38,30.225V30h2.581v.222a7.47,7.47,0,0,0,2.2,5.317,1.29,1.29,0,0,1,.378.912Z" transform="translate(10.742 8.129)" fill="#0059be"/>
      <path id="Trazado_957270" data-name="Trazado 957270" d="M17.447,30.323a6.452,6.452,0,0,0,6.431-5.936l-2.56-.516V20H13.576v3.871l-2.561.516a6.452,6.452,0,0,0,6.432,5.935Z" transform="translate(2.908 5.226)" fill="#d08d78"/>
      <path id="Trazado_957271" data-name="Trazado 957271" d="M23.347,24.1l-2.56-.516v-2.61a6.356,6.356,0,0,1-6.452.774v1.836a1.848,1.848,0,0,0-1.172,2.85c1.08,1.564,2.679,3.366,4.4,3.539A6.432,6.432,0,0,0,23.347,24.1Z" transform="translate(3.439 5.509)" fill="#f2b9a1"/>
      <path id="Trazado_957272" data-name="Trazado 957272" d="M7,31H9.581v7.742H7Z" transform="translate(1.742 8.419)" fill="#8dbf00"/>
      <path id="Trazado_957273" data-name="Trazado 957273" d="M23,31h2.581v7.742H23Z" transform="translate(6.387 8.419)" fill="#8dbf00"/>
      <path id="Trazado_957274" data-name="Trazado 957274" d="M25,27.542v-8.09A6.452,6.452,0,0,1,31.452,13h4.857a4.668,4.668,0,0,1,4.175,2.581,4.667,4.667,0,0,1,2.581,4.174v7.786" transform="translate(6.968 3.194)" fill="#383838"/>
      <path id="Trazado_957275" data-name="Trazado 957275" d="M27,19.452v8.09H42.484V19.755a4.667,4.667,0,0,0-2.58-4.174A4.668,4.668,0,0,0,35.728,13H33.452A6.452,6.452,0,0,0,27,19.452Z" transform="translate(7.548 3.194)" fill="#4c4c4c"/>
      <path id="Trazado_957276" data-name="Trazado 957276" d="M27,24.161v3.871a6.452,6.452,0,0,0,12.9,0V21.581A2.581,2.581,0,0,0,37.323,19a9.338,9.338,0,0,1-8.351,5.161Z" transform="translate(7.548 4.935)" fill="#d08d78"/>
      <path id="Trazado_957277" data-name="Trazado 957277" d="M27.871,24h-1.29a2.581,2.581,0,0,0,0,5.161h1.828" transform="translate(6.677 6.387)" fill="#d08d78"/>
      <path id="Trazado_957278" data-name="Trazado 957278" d="M37.121,24h1.29a2.581,2.581,0,0,1,0,5.161H36.583" transform="translate(10.331 6.387)" fill="#d08d78"/>
      <path id="Trazado_957279" data-name="Trazado 957279" d="M32.194,30v3.871l-8.535,1.707A7.04,7.04,0,0,0,18,42.479v9.457H54.129V42.479a7.04,7.04,0,0,0-5.658-6.9l-8.535-1.707V30Z" transform="translate(4.935 8.129)" fill="#e73844"/>
      <path id="Trazado_957280" data-name="Trazado 957280" d="M53.338,40.773a7.037,7.037,0,0,0-5.448-5.195l-8.535-1.707V30H34.194v3.871l-8.535,1.707A7.04,7.04,0,0,0,20,42.479v9.457H53.548V42.479a7.031,7.031,0,0,0-.21-1.7Z" transform="translate(5.516 8.129)" fill="#ff4d55"/>
      <path id="Trazado_957281" data-name="Trazado 957281" d="M33.447,40.323a6.452,6.452,0,0,0,6.431-5.936l-2.56-.516V30H29.576v3.871l-2.561.516A6.452,6.452,0,0,0,33.447,40.323Z" transform="translate(7.553 8.129)" fill="#d08d78"/>
      <path id="Trazado_957282" data-name="Trazado 957282" d="M39.347,34.1l-2.56-.516v-2.61a6.356,6.356,0,0,1-6.452.774v1.836a1.848,1.848,0,0,0-1.172,2.85c1.08,1.564,2.679,3.366,4.4,3.539A6.432,6.432,0,0,0,39.347,34.1Z" transform="translate(8.084 8.413)" fill="#f2b9a1"/>
      <path id="Trazado_957283" data-name="Trazado 957283" d="M23,41h2.581v7.742H23Z" transform="translate(6.387 11.323)" fill="#e73844"/>
      <path id="Trazado_957284" data-name="Trazado 957284" d="M39,41h2.581v7.742H39Z" transform="translate(11.032 11.323)" fill="#e73844"/>
      <g id="Grupo_1116120" data-name="Grupo 1116120" transform="translate(10.032 7.161)">
        <path id="Trazado_957285" data-name="Trazado 957285" d="M55.9,14.161v3.871a6.452,6.452,0,1,1-12.9,0V9a17.623,17.623,0,0,0,12.461,5.161Z" transform="translate(2.161 -5.129)" fill="#d08d78"/>
        <path id="Trazado_957286" data-name="Trazado 957286" d="M53.121,14h1.29a2.581,2.581,0,1,1,0,5.161H52.583" transform="translate(4.943 -3.677)" fill="#d08d78"/>
        <path id="Trazado_957287" data-name="Trazado 957287" d="M43.871,14h-1.29a2.581,2.581,0,1,0,0,5.161h1.828" transform="translate(1.29 -3.677)" fill="#d08d78"/>
        <rect id="Rectángulo_416078" data-name="Rectángulo 416078" width="12.903" height="19.355" rx="5" transform="translate(3.871)" fill="#d08d78"/>
        <path id="Trazado_957288" data-name="Trazado 957288" d="M11.871,14h-1.29a2.581,2.581,0,1,0,0,5.161h1.828" transform="translate(-8 -3.677)" fill="#d08d78"/>
        <path id="Trazado_957289" data-name="Trazado 957289" d="M21.121,14h1.29a2.581,2.581,0,1,1,0,5.161H20.583" transform="translate(-4.347 -3.677)" fill="#d08d78"/>
      </g>
      <path id="Trazado_957290" data-name="Trazado 957290" d="M33.806,34.419a6.431,6.431,0,0,0,5.806-6.387V21.581A2.581,2.581,0,0,0,37.032,19a9.338,9.338,0,0,1-8.351,5.161H28v3.871a6.431,6.431,0,0,0,5.806,6.387Z" transform="translate(7.839 4.935)" fill="#f2b9a1"/>
      <path id="Trazado_957291" data-name="Trazado 957291" d="M56.581,39.032H54V36.452a1.29,1.29,0,0,1,.378-.912,7.47,7.47,0,0,0,2.2-5.318V30h2.581v.222a10.021,10.021,0,0,1-2.581,6.746Z" transform="translate(15.387 8.129)" fill="#0059be"/>
      <path id="Trazado_957292" data-name="Trazado 957292" d="M17.806,6.05A6.431,6.431,0,0,0,12,12.437v6.452a6.431,6.431,0,0,0,5.806,6.387,6.431,6.431,0,0,0,5.806-6.387V12.437A6.431,6.431,0,0,0,17.806,6.05Z" transform="translate(3.194 1.176)" fill="#f2b9a1"/>
      <path id="Trazado_957293" data-name="Trazado 957293" d="M17.452,6A6.452,6.452,0,0,0,11,12.452v1.29a2.088,2.088,0,0,1,3.022-1.867l.986.493a5.466,5.466,0,0,0,4.888,0l.986-.493A2.088,2.088,0,0,1,23.9,13.742v-1.29A6.452,6.452,0,0,0,17.452,6Z" transform="translate(2.903 1.161)" fill="#a37765"/>
      <path id="Trazado_957294" data-name="Trazado 957294" d="M17.792,6.05a6.41,6.41,0,0,0-5.741,5.729,2.044,2.044,0,0,1,1.666.081l.986.493a5.466,5.466,0,0,0,4.888,0l.986-.493A2.088,2.088,0,0,1,23.6,13.727v-1.29A6.431,6.431,0,0,0,17.792,6.05Z" transform="translate(3.208 1.176)" fill="#bf9377"/>
      <path id="Trazado_957295" data-name="Trazado 957295" d="M49.807,24.156a6.431,6.431,0,0,0,5.806-6.387V13.9H55.17A17.622,17.622,0,0,1,44,9.906v7.864A6.431,6.431,0,0,0,49.807,24.156Z" transform="translate(12.484 2.295)" fill="#f2b9a1"/>
      <path id="Trazado_957296" data-name="Trazado 957296" d="M74.548,29.613V15.548A13.564,13.564,0,0,0,61,2,12.272,12.272,0,0,0,48.742,14.258v3.8c-.114-.077-.221-.161-.341-.231A5.92,5.92,0,0,0,43.276,14.9H38.419a7.742,7.742,0,0,0-6.692,3.871A3.863,3.863,0,0,0,28.1,16.194V13.613a7.742,7.742,0,1,0-15.484,0v2.581a3.871,3.871,0,0,0,0,7.742h1.048a7.8,7.8,0,0,0,1.533,1.884V28.04l-7.5,1.5A8.328,8.328,0,0,0,1,37.706v9.455a1.29,1.29,0,0,0,1.29,1.29H6.05A35.759,35.759,0,0,0,10.566,58.9L8.154,61.317a1.29,1.29,0,0,0,0,1.825l9.124,9.124a1.29,1.29,0,0,0,1.825,0l2.414-2.418a35.7,35.7,0,0,0,11.742,4.859v3.422a1.29,1.29,0,0,0,1.29,1.29h12.9a1.29,1.29,0,0,0,1.29-1.29V74.707a35.7,35.7,0,0,0,11.742-4.859L62.9,72.266a1.29,1.29,0,0,0,1.825,0l9.124-9.124a1.29,1.29,0,0,0,0-1.825L71.428,58.9a35.759,35.759,0,0,0,4.516-10.452H79.71A1.29,1.29,0,0,0,81,47.161V37.706a8.307,8.307,0,0,0-6.452-8.093ZM48.742,32.968v-1.29a1.29,1.29,0,1,1,0,2.581h-.116A7.742,7.742,0,0,0,48.742,32.968Zm2.581-3.9V22.929A3.846,3.846,0,0,0,53.9,23.935h1.048a7.8,7.8,0,0,0,1.533,1.884V28.04Zm2.7-7.717H53.9a1.29,1.29,0,0,1,0-2.581v1.29a7.742,7.742,0,0,0,.116,1.29Zm7.626,3.871a5.161,5.161,0,0,1-5.161-5.161V13.837a18.747,18.747,0,0,0,10.323,3.627v2.6A5.161,5.161,0,0,1,61.645,25.226Zm-3.613,5.135A1.29,1.29,0,0,0,59.065,29.1V27.355a7.6,7.6,0,0,0,5.161,0V29.1a1.29,1.29,0,0,0,1.033,1.265l1.3.258a5.143,5.143,0,0,1-9.835,0Zm8.774-2.323V25.819a7.8,7.8,0,0,0,1.533-1.884h1.048a3.846,3.846,0,0,0,2.581-1.006v6.143Zm2.581-7.974v-1.29a1.29,1.29,0,1,1,0,2.581h-.116A7.741,7.741,0,0,0,69.387,20.065ZM61,4.581A10.981,10.981,0,0,1,71.968,15.548V17.2a3.846,3.846,0,0,0-2.581-1.006A1.29,1.29,0,0,0,68.1,14.9h-.443A16.223,16.223,0,0,1,56.106,10.12a1.29,1.29,0,0,0-2.2.912v5.161A3.846,3.846,0,0,0,51.323,17.2V14.258A9.688,9.688,0,0,1,61,4.581ZM33.258,22.645a5.161,5.161,0,0,1,5.161-5.161h4.857a3.355,3.355,0,0,1,3.014,1.867,1.29,1.29,0,0,0,.578.578,3.355,3.355,0,0,1,1.874,3.019v3.568a3.871,3.871,0,0,0-3.871-3.871,1.29,1.29,0,0,0-1.161.714,8,8,0,0,1-7.19,4.448H34.548a1.29,1.29,0,0,0-1.29,1.29Zm19.9,22.323a5.748,5.748,0,0,1,4.621,5.641v8.165H52.613V52.323H50.032v6.452H31.968V52.323H29.387v6.452H24.226V50.609a5.747,5.747,0,0,1,4.621-5.641l4.685-.938a7.742,7.742,0,0,0,14.937,0ZM51.632,61.355a23.192,23.192,0,0,1-21.265,0Zm-7.019-18.09,1.3.258a5.143,5.143,0,0,1-9.835,0l1.3-.258A1.29,1.29,0,0,0,38.419,42V40.258a7.6,7.6,0,0,0,5.161,0V42a1.29,1.29,0,0,0,1.033,1.265ZM41,38.129a5.161,5.161,0,0,1-5.161-5.161V30.387h.681a10.563,10.563,0,0,0,9.005-4.982,1.29,1.29,0,0,1,.636,1.111v6.452A5.161,5.161,0,0,1,41,38.129ZM25.516,28.04V25.819a7.8,7.8,0,0,0,1.533-1.884H28.1a3.846,3.846,0,0,0,2.581-1.006v6.143Zm7.742,3.637v1.29a7.742,7.742,0,0,0,.116,1.29h-.116a1.29,1.29,0,1,1,0-2.581ZM29.387,20.065a1.29,1.29,0,0,1-1.29,1.29h-.116a7.742,7.742,0,0,0,.116-1.29v-1.29A1.29,1.29,0,0,1,29.387,20.065ZM20.355,8.452a5.161,5.161,0,0,1,4.732,3.111,3.169,3.169,0,0,0-.368-.037,3.409,3.409,0,0,0-1.511.356l-.986.493a4.245,4.245,0,0,1-3.734,0l-.986-.493a3.409,3.409,0,0,0-1.511-.356,3.169,3.169,0,0,0-.368.037A5.161,5.161,0,0,1,20.355,8.452Zm-4,5.738.985.493a6.756,6.756,0,0,0,6.044,0l.985-.493a.821.821,0,0,1,1.148.714v5.161a5.161,5.161,0,0,1-10.323,0V14.9a.819.819,0,0,1,1.161-.714Zm-3.742,7.165a1.29,1.29,0,0,1,0-2.581v1.29a7.742,7.742,0,0,0,.116,1.29Zm7.742,6.452a7.711,7.711,0,0,0,2.581-.452V29.1a1.29,1.29,0,0,0,1.033,1.265l1.3.258a5.143,5.143,0,0,1-9.835,0l1.3-.258A1.29,1.29,0,0,0,17.774,29.1V27.355a7.711,7.711,0,0,0,2.581.452Zm-16.774,9.9A5.747,5.747,0,0,1,8.2,32.065l4.685-.938a7.742,7.742,0,0,0,14.937,0l1.855.372a3.863,3.863,0,0,0,3.579,5.341h1.048a7.8,7.8,0,0,0,1.533,1.884v2.221l-3.871.774v-2.3H29.387v2.813l-1.048.21a8.343,8.343,0,0,0-5.186,3.428H11.323V39.419H8.742v6.452H3.581ZM21.645,53.533A23.333,23.333,0,0,1,19.1,48.452h2.839c-.013.046-.034.089-.045.129a8.343,8.343,0,0,0-.253,2.028Zm47.061,4.8a1.29,1.29,0,0,0,.152,1.641L71.11,62.23l-7.3,7.3-2.252-2.252a1.29,1.29,0,0,0-1.641-.152,33.19,33.19,0,0,1-12.7,5.259,1.29,1.29,0,0,0-1.052,1.267v3.187H35.839V73.652a1.29,1.29,0,0,0-1.052-1.267,33.19,33.19,0,0,1-12.7-5.259,1.29,1.29,0,0,0-1.641.152L18.19,69.529l-7.3-7.3,2.252-2.252a1.29,1.29,0,0,0,.152-1.641,33.169,33.169,0,0,1-4.565-9.885h7.658a25.867,25.867,0,0,0,5.258,9.312v2.3a1.29,1.29,0,0,0,1.29,1.29h2.6a25.741,25.741,0,0,0,30.924,0h2.6a1.29,1.29,0,0,0,1.29-1.29v-2.3a25.889,25.889,0,0,0,5.258-9.312h7.658A33.169,33.169,0,0,1,68.706,58.337Zm-8.6-9.748c-.012-.046-.034-.09-.045-.137H62.9a23.294,23.294,0,0,1-2.545,5.08V50.609a8.323,8.323,0,0,0-.249-2.02Zm18.314-2.717H71.968V45.1a10.182,10.182,0,0,0,2.581-6.742v-.226H71.968v.222a7.572,7.572,0,0,1-2.2,5.317,1.29,1.29,0,0,0-.378.912v1.29H58.845a8.341,8.341,0,0,0-5.185-3.428L52.4,42.185a7.467,7.467,0,0,1-1.079-3.834v-.222H48.742v.222a10.087,10.087,0,0,0,.539,3.215l-3.12-.623V38.723a7.8,7.8,0,0,0,1.533-1.884h1.048A3.863,3.863,0,0,0,52.321,31.5l1.855-.372a7.742,7.742,0,0,0,14.937,0l4.685.938a5.748,5.748,0,0,1,4.621,5.636Z"/>
    </g>
  </g>
</svg>
