<svg xmlns="http://www.w3.org/2000/svg" width="120" height="120" viewBox="0 0 120 120">
  <g id="Grupo_1115849" data-name="Grupo 1115849" transform="translate(-64 -6445)">
    <rect id="Rect치ngulo_402033" data-name="Rect치ngulo 402033" width="120" height="120" rx="8" transform="translate(64 6445)" fill="#0042db"/>
    <g id="Rect치ngulo_412110" data-name="Rect치ngulo 412110" transform="translate(69 6450)" fill="none" stroke="#fff" stroke-width="1">
      <rect width="110" height="110" rx="6" stroke="none"/>
      <rect x="0.5" y="0.5" width="109" height="109" rx="5.5" fill="none"/>
    </g>
    <g id="Grupo_1116129" data-name="Grupo 1116129" transform="translate(80.001 6434.514)">
      <path id="Trazado_957350" data-name="Trazado 957350" d="M411.457,243.128a5.158,5.158,0,0,1,5.143,5.143v21.476H406.314V248.271A5.158,5.158,0,0,1,411.457,243.128Z" transform="translate(-338.456 -174.685)" fill="#2dcffc" fill-rule="evenodd"/>
      <circle id="Elipse_13515" data-name="Elipse 13515" cx="4.952" cy="4.952" r="4.952" transform="translate(68.049 58.539)" fill="#fdb0a0"/>
      <g id="Grupo_1116128" data-name="Grupo 1116128" transform="translate(10.074 36.595)">
        <path id="Trazado_957351" data-name="Trazado 957351" d="M411.329,191.2a4.954,4.954,0,1,1,3.814-4.821A4.954,4.954,0,0,1,411.329,191.2Z" transform="translate(-349.54 -159.483)" fill="#ffcec0" fill-rule="evenodd"/>
        <path id="Trazado_957352" data-name="Trazado 957352" d="M413.077,271.405h-6.762V249.929a3.6,3.6,0,1,1,6.762,0Z" transform="translate(-348.531 -212.938)" fill="#66deff" fill-rule="evenodd"/>
        <path id="Trazado_957353" data-name="Trazado 957353" d="M118.041,122.647h16.093l.274,5.627h1.059a3.484,3.484,0,0,0,3.637-3.312,150.3,150.3,0,0,0,.258-16.318c-.169-2.2-.662-3.03-2.045-3.841a45.934,45.934,0,0,0-7.153-2.328,1.592,1.592,0,0,0-1.367.234,4.478,4.478,0,0,1-5.27.083,1.59,1.59,0,0,0-1.315-.214c-.92.241-1.8.47-2,.521-7.546,1.942-11.1-.8-14.059-6.075-1.453-2.589-5.648-.479-4.35,2.237,2.634,5.516,6.344,10.41,14.787,10.916a1.538,1.538,0,0,1,1.448,1.537v10.934Z" transform="translate(-92.149 -87.377)" fill="#9cf" fill-rule="evenodd"/>
        <path id="Trazado_957354" data-name="Trazado 957354" d="M118.04,123.417h16.093l.274,5.627h1.059a3.981,3.981,0,0,0,1.431-.26,2.091,2.091,0,0,0,.317-1.1c.281-5.622.569-12.139.258-17.775-.169-2.2-.662-3.03-2.045-3.841a45.278,45.278,0,0,0-7.077-2.307,4.436,4.436,0,0,1-4.825-.2,1.59,1.59,0,0,0-1.315-.214c-.8.21-1.571.41-1.887.492h0c-.92.241-1.8.47-2,.521-7.546,1.942-11.1-.8-14.059-6.075a8.961,8.961,0,0,0-.937-1.523,2.341,2.341,0,0,0-1.525,3.268c2.634,5.516,6.344,10.41,14.787,10.916a1.538,1.538,0,0,1,1.448,1.537v10.934Z" transform="translate(-92.149 -88.147)" fill="#b6dbff" fill-rule="evenodd"/>
        <path id="Trazado_957355" data-name="Trazado 957355" d="M242.392,143.422l-1.034,10.338,2.349,3.362,2.349-3.362-1.034-10.337a4.253,4.253,0,0,1-2.63,0Z" transform="translate(-209.757 -127.4)" fill="#fb545c" fill-rule="evenodd"/>
        <path id="Trazado_957356" data-name="Trazado 957356" d="M256.156,157.131l2.349-3.362-1.034-10.337a4.3,4.3,0,0,1-1.315.208Z" transform="translate(-222.207 -127.409)" fill="#e8333c" fill-rule="evenodd"/>
        <path id="Trazado_957357" data-name="Trazado 957357" d="M226.783,55.814c-6.506-.422-8.224-13.328,0-13.328S233.288,55.392,226.783,55.814Z" transform="translate(-192.833 -42.486)" fill="#fdb0a0" fill-rule="evenodd"/>
        <path id="Trazado_957358" data-name="Trazado 957358" d="M226.783,55.814c-6.506-.422-8.224-13.328,0-13.328a6.943,6.943,0,0,1,1.146.093c3.3,3.24,2.5,10.024-.963,13.218-.061.006-.121.013-.183.017Z" transform="translate(-192.833 -42.486)" fill="#ffcec0" fill-rule="evenodd"/>
        <path id="Trazado_957359" data-name="Trazado 957359" d="M47.417,243.128a5.158,5.158,0,0,1,5.143,5.143v21.476H42.274V248.271A5.158,5.158,0,0,1,47.417,243.128Z" transform="translate(-42.274 -211.28)" fill="#2dcffc" fill-rule="evenodd"/>
        <path id="Trazado_957360" data-name="Trazado 957360" d="M49.036,271.405H42.274V249.929a5.163,5.163,0,0,1,3.381-4.83,5.162,5.162,0,0,1,3.381,4.83Z" transform="translate(-42.274 -212.938)" fill="#66deff" fill-rule="evenodd"/>
      </g>
      <circle id="Elipse_13516" data-name="Elipse 13516" cx="4.952" cy="4.952" r="4.952" transform="translate(9.859 58.539)" fill="#fdb0a0"/>
      <path id="Trazado_957361" data-name="Trazado 957361" d="M44.729,191.2a4.954,4.954,0,0,1,0-9.641,4.954,4.954,0,0,1,0,9.641Z" transform="translate(-31.056 -122.888)" fill="#ffcec0" fill-rule="evenodd"/>
      <path id="Trazado_957362" data-name="Trazado 957362" d="M31.414,264.148l-20.4,25.146v3.082H88.793v-3.082l-20.4-25.146H31.414Z" transform="translate(-5.902 -192.368)" fill="#f29988" fill-rule="evenodd"/>
      <path id="Trazado_957363" data-name="Trazado 957363" d="M11.015,422.566H88.793v3.082H11.015Z" transform="translate(-5.902 -325.641)" fill="#c86f5c"/>
      <path id="Trazado_957364" data-name="Trazado 957364" d="M184.085,391.454a13.629,13.629,0,0,1,13.571,12.39H170.514A13.629,13.629,0,0,1,184.085,391.454Z" transform="translate(-140.084 -299.467)" fill="#2dcffc" fill-rule="evenodd"/>
      <path id="Trazado_957365" data-name="Trazado 957365" d="M193.876,404.156H170.514a13.631,13.631,0,0,1,12.3-12.331A14.022,14.022,0,0,1,193.876,404.156Z" transform="translate(-140.084 -299.779)" fill="#66deff" fill-rule="evenodd"/>
      <circle id="Elipse_13517" data-name="Elipse 13517" cx="6.49" cy="6.49" r="6.49" transform="translate(34.814 85.451) rotate(-45)" fill="#b6dbff"/>
      <path id="Trazado_957366" data-name="Trazado 957366" d="M220.3,322.952a6.492,6.492,0,0,1,0-12.714,6.492,6.492,0,0,1,0,12.714Z" transform="translate(-177.615 -231.142)" fill="#e3f1ff" fill-rule="evenodd"/>
      <path id="Trazado_957367" data-name="Trazado 957367" d="M57.118,98.9q-.224-.438-.476-.86H81.777v.86ZM31.7,103.267a12.523,12.523,0,0,1,24.6,0ZM6.221,98.9v-.86H31.356q-.252.421-.476.86Zm4.962-25.311a4.032,4.032,0,0,1,8.064,0v4.151l-8.064,9.94Zm3.626-13.936a3.841,3.841,0,1,1-3.841,3.841A3.845,3.845,0,0,1,14.809,59.649ZM44,90.831a5.38,5.38,0,1,1,5.381-5.381A5.387,5.387,0,0,1,44,90.831ZM26.039,72.89,7.442,95.814H32.992q.49-.55,1.037-1.056A14.684,14.684,0,0,1,39.5,91.578a7.6,7.6,0,1,1,8.989,0,14.711,14.711,0,0,1,5.475,3.181q.547.5,1.036,1.056H80.556l-18.6-22.923H26.039Zm8.551-14.626C26.518,57.781,23.177,53.046,20.767,48a1.206,1.206,0,0,1,.63-1.627,1.264,1.264,0,0,1,1.739.417c2.156,3.841,4.972,7.248,10.613,7.248a18.745,18.745,0,0,0,4.663-.652c.2-.051,1.08-.28,2-.521a.478.478,0,0,1,.422.068,6.347,6.347,0,0,0,.675.384l-.95,9.5a1.106,1.106,0,0,0,.2.746L43.1,66.92a1.112,1.112,0,0,0,1.822,0l2.344-3.357a1.111,1.111,0,0,0,.2-.746l-.95-9.5a6.681,6.681,0,0,0,.824-.486.48.48,0,0,1,.439-.076,49.568,49.568,0,0,1,6.87,2.211c.941.55,1.341.973,1.493,2.947a121.155,121.155,0,0,1-.09,12.751H53.142V60.025a1.111,1.111,0,1,0-2.222,0V70.668H37.08v-9.76a2.652,2.652,0,0,0-2.49-2.643Zm9.748-4.352a4.947,4.947,0,0,1-.653,0l-.871,8.713,1.2,1.714,1.2-1.714Zm24.63,19.673a4.032,4.032,0,0,1,8.064,0V87.941L68.967,78V73.585Zm.191-10.1A3.841,3.841,0,1,1,73,67.331a3.845,3.845,0,0,1-3.841-3.841ZM83.751,96.225l-4.5-5.544v-17.1a6.256,6.256,0,0,0-2.731-5.165,6.063,6.063,0,1,0-7.045,0,6.257,6.257,0,0,0-2.731,5.165v1.676l-3.394-4.183a1.112,1.112,0,0,0-.863-.411H58.273a123.887,123.887,0,0,0,.084-12.886.121.121,0,0,1,0-.024c-.192-2.5-.844-3.684-2.587-4.706a41.406,41.406,0,0,0-7.408-2.437,2.706,2.706,0,0,0-2.291.392,3.378,3.378,0,0,1-4.019.065,2.682,2.682,0,0,0-2.2-.357c-.914.24-1.791.467-1.988.517-7.046,1.814-10.116-.771-12.785-5.53a3.421,3.421,0,0,0-4.7-1.3,3.391,3.391,0,0,0-1.615,4.557c2.574,5.387,6.451,10.972,15.7,11.524a.429.429,0,0,1,.4.426v9.76H25.51a1.113,1.113,0,0,0-.864.411L21.469,75V73.585a6.256,6.256,0,0,0-2.949-5.306,6.062,6.062,0,1,0-7.026.284A6.248,6.248,0,0,0,8.96,73.585V90.414L4.247,96.225a1.107,1.107,0,0,0-.248.7v3.082a1.111,1.111,0,0,0,1.111,1.111H29.96a14.811,14.811,0,0,0-.643,3.16,1.111,1.111,0,0,0,1.108,1.21H57.573a1.111,1.111,0,0,0,1.107-1.21,14.668,14.668,0,0,0-.643-3.16H82.887A1.112,1.112,0,0,0,84,100.007V96.925a1.11,1.11,0,0,0-.248-.7ZM39.574,42.308c-.1,2.979,1.66,6.291,4.436,6.524,2.777-.233,4.534-3.544,4.438-6.524-.035-1.079-.458-4.6-4.438-4.6s-4.4,3.522-4.436,4.6Zm4.365,8.748c.024,0,.047,0,.071,0s.047,0,.073,0c4.235-.275,6.716-4.792,6.585-8.819-.133-4.1-2.746-6.752-6.659-6.752s-6.525,2.649-6.657,6.752C37.223,46.263,39.7,50.781,43.938,51.055Z" transform="translate(0)" fill-rule="evenodd"/>
    </g>
  </g>
</svg>
