<svg xmlns="http://www.w3.org/2000/svg" xmlns:xlink="http://www.w3.org/1999/xlink" width="295" height="140" viewBox="0 0 295 140">
  <defs>
    <clipPath id="clip-path">
      <rect id="Rectángulo_416118" data-name="Rectángulo 416118" width="110.731" height="131.339" fill="none" stroke="#707070" stroke-width="1"/>
    </clipPath>
    <clipPath id="clip-path-2">
      <path id="Trazado_958043" data-name="Trazado 958043" d="M231.646,325.984a30.433,30.433,0,1,0,30.433-30.433,30.433,30.433,0,0,0-30.433,30.433" transform="translate(-231.646 -295.551)" fill="none"/>
    </clipPath>
  </defs>
  <g id="Grupo_1116501" data-name="Grupo 1116501" transform="translate(-1020 -3800)">
    <path id="Image_Place_Holder" data-name="Image Place Holder" d="M20,0H275a20,20,0,0,1,20,20V140a0,0,0,0,1,0,0H0a0,0,0,0,1,0,0V20A20,20,0,0,1,20,0Z" transform="translate(1020 3800)" fill="#99b3f1"/>
    <g id="Grupo_1116500" data-name="Grupo 1116500" transform="translate(1112.135 3808.662)">
      <g id="Grupo_1116497" data-name="Grupo 1116497" transform="translate(0 -0.001)">
        <g id="Grupo_1116496" data-name="Grupo 1116496" clip-path="url(#clip-path)">
          <path id="Trazado_957991" data-name="Trazado 957991" d="M806.429,921.132c-.661-7.468,12.222-17.95,14.035-16.589,5.037,3.78-14.035,16.589-14.035,16.589" transform="translate(-718.948 -806.335)" fill="#00794c"/>
          <path id="Trazado_957992" data-name="Trazado 957992" d="M931.93,273.42c-.124-7.1,7.51-14.111,9.215-13.192,2.236,1.2-4.443,11.211-9.215,13.192" transform="translate(-830.858 -231.933)" fill="#00794c"/>
          <path id="Trazado_957993" data-name="Trazado 957993" d="M761.85,188.948c-1.009-6.322-12.455-10.7-13.918-6.8-.818,2.179,9.641,4.311,13.918,6.8" transform="translate(-666.777 -161.079)" fill="#00794c"/>
          <path id="Trazado_957994" data-name="Trazado 957994" d="M928.114,16.355c-1.707-2.672.76-15.818,3.933-16.333,4.126-.67,1.915,13.2-3.933,16.333" transform="translate(-826.96 0.001)" fill="#00794c"/>
          <path id="Trazado_957995" data-name="Trazado 957995" d="M855.8,486.346c2.286-4.668,11.15-9.354,12.72-7.892,2.133,1.985-4.691,8.135-12.72,7.892" transform="translate(-762.985 -426.322)" fill="#00794c"/>
          <path id="Trazado_957996" data-name="Trazado 957996" d="M771.908,966.243c3.415-12.626,12.328-16.557,15.214-20.8" transform="translate(-688.193 -842.907)" fill="none" stroke="#0c231c" stroke-linecap="round" stroke-linejoin="round" stroke-width="1"/>
          <path id="Trazado_957997" data-name="Trazado 957997" d="M837.2,104.678c8.629-9.254,8.646-19.4,7.51-29.126s5.558-20.172,6.283-26.762" transform="translate(-746.405 -43.499)" fill="none" stroke="#0c231c" stroke-linecap="round" stroke-linejoin="round" stroke-width="1"/>
          <path id="Trazado_957998" data-name="Trazado 957998" d="M904.389,315.64c2.872-8.03,6.694-9.062,9.592-14.8" transform="translate(-806.306 -268.21)" fill="none" stroke="#0c231c" stroke-linecap="round" stroke-linejoin="round" stroke-width="1"/>
          <path id="Trazado_957999" data-name="Trazado 957999" d="M798.4,214.3c-1.447-8.831-6.251-13.7-13.646-15.612" transform="translate(-699.644 -177.136)" fill="none" stroke="#0c231c" stroke-linecap="round" stroke-linejoin="round" stroke-width="1"/>
          <path id="Trazado_958000" data-name="Trazado 958000" d="M853.715,502.958C850.075,506.2,842.171,509,842.171,509" transform="translate(-750.835 -448.411)" fill="none" stroke="#0c231c" stroke-linecap="round" stroke-linejoin="round" stroke-width="1"/>
          <path id="Trazado_958001" data-name="Trazado 958001" d="M74.1,960.862c-5.443-.561-14.807,7.31-11.651,9.636S74.1,960.862,74.1,960.862" transform="translate(-55.114 -856.629)" fill="#00794c"/>
          <path id="Trazado_958002" data-name="Trazado 958002" d="M16.075,876.032c-7.34,1.75-17.4-2.73-15.93-4.276,5.019-5.278,15.93,4.276,15.93,4.276" transform="translate(0 -775.794)" fill="#00794c"/>
          <path id="Trazado_958003" data-name="Trazado 958003" d="M31.809,536.628c-3.776-3.887-17.23-.616-16.707,3.669.3,2.418,16.707-3.669,16.707-3.669" transform="translate(-13.451 -476.883)" fill="#00794c"/>
          <path id="Trazado_958004" data-name="Trazado 958004" d="M145.3,304.7c4.438-7,4.287-17.842,1.052-17.39-4.571.639-1.052,17.39-1.052,17.39" transform="translate(-128.384 -256.139)" fill="#00794c"/>
          <path id="Trazado_958005" data-name="Trazado 958005" d="M19.889,103.647c1.358-6.319-6.663-14.494-8.629-11.234s8.629,11.234,8.629,11.234" transform="translate(-9.822 -81.729)" fill="#00794c"/>
          <path id="Trazado_958006" data-name="Trazado 958006" d="M195.629,59.365c4.571-7.34,13.86-8.715,13.65-5.194-.338,5.652-6.917,2.535-13.65,5.194" transform="translate(-174.413 -46.645)" fill="#00794c"/>
          <path id="Trazado_958007" data-name="Trazado 958007" d="M62.383,905.3c-2.818-9.8-27.174-14.9-27.174-14.9" transform="translate(-31.39 -793.828)" fill="none" stroke="#0c231c" stroke-linecap="round" stroke-linejoin="round" stroke-width="1"/>
          <path id="Trazado_958008" data-name="Trazado 958008" d="M89.921,965.188c5.934-8.79,14.534-6.6,14.534-6.6" transform="translate(-80.169 -854.411)" fill="none" stroke="#0c231c" stroke-linecap="round" stroke-linejoin="round" stroke-width="1"/>
          <path id="Trazado_958009" data-name="Trazado 958009" d="M61.433,548.351c-5.757-2.967-15.34.828-15.34.828" transform="translate(-41.094 -487.871)" fill="none" stroke="#0c231c" stroke-linecap="round" stroke-linejoin="round" stroke-width="1"/>
          <path id="Trazado_958010" data-name="Trazado 958010" d="M102.707,128.309c-10.142-12.626-13.937-22.493-11.8-30.133,2.3-8.208,11.109-17.888,18.63-19.93" transform="translate(-80.536 -69.76)" fill="none" stroke="#0c231c" stroke-linecap="round" stroke-linejoin="round" stroke-width="1"/>
          <path id="Trazado_958011" data-name="Trazado 958011" d="M154.782,323.312c-.207,6.417-1.319,15.929-1.319,15.929" transform="translate(-136.82 -288.248)" fill="none" stroke="#0c231c" stroke-linecap="round" stroke-linejoin="round" stroke-width="1"/>
          <path id="Trazado_958012" data-name="Trazado 958012" d="M52.032,142.044c.677-5.024-5.939-12.525-5.939-12.525" transform="translate(-41.094 -115.472)" fill="none" stroke="#0c231c" stroke-linecap="round" stroke-linejoin="round" stroke-width="1"/>
          <path id="Trazado_958013" data-name="Trazado 958013" d="M542.908,345.129H510.686s-.652-23.367-.807-26.247-.932-18.527-.932-18.527,6.889-20.169,7.3-27.353-1.668-27.43-.913-29.849c.547-1.754,2.7-2.691,5.4-1.069,2.5-6.486,8.71,2.877,8.71,2.877s1.9-1.52,3.516-.389c1.81,1.271,9.447,11.253,10.492,14.567s5.158,19.952,5.158,19.952c2.06,2.091,4.808,3.767,4.983,4.708.322,1.734-.056,11.564-6.775,19.658-5.877,7.081-9.332,11.246-10.5,14.88-2.378,7.4,1.244,13.716,6.584,26.791" transform="translate(-453.75 -213.79)" fill="#7a9954"/>
          <path id="Trazado_958014" data-name="Trazado 958014" d="M508.946,374.814s.213,4.28.438,8.775a30.433,30.433,0,0,0,5.875-60.277c.307,7.2,1.286,19.012.99,24.148-.414,7.184-7.3,27.353-7.3,27.353" transform="translate(-453.75 -288.248)" fill="#0c231c"/>
          <path id="Trazado_958015" data-name="Trazado 958015" d="M675.428,923.652c4.627.412,7.645-3.5,10.586-4.6" transform="translate(-602.176 -819.382)" fill="none" stroke="#0c231c" stroke-linecap="round" stroke-linejoin="round" stroke-width="1"/>
          <path id="Trazado_958016" data-name="Trazado 958016" d="M780.585,564.486c.784-2.13,3.337-5.787,3.2-6.891s-.951-2-1.027-3.726-.009-7.8,2.683-8.582c3-.871,3.534,5.322,5.355,6.089" transform="translate(-695.929 -486.076)" fill="none" stroke="#0c231c" stroke-linecap="round" stroke-linejoin="round" stroke-width="1"/>
          <path id="Trazado_958017" data-name="Trazado 958017" d="M816.2,666.185c2.131,1.017,6.257-.092,6.257-.092" transform="translate(-727.68 -593.853)" fill="none" stroke="#0c231c" stroke-linecap="round" stroke-linejoin="round" stroke-width="1"/>
          <path id="Trazado_958018" data-name="Trazado 958018" d="M687.15,287.423c-1.3,1.038-1.661,1.969-.988,4.453s7.588,13.092,7.752,13.816,1.252,12.438,1.252,12.438" transform="translate(-611.451 -256.251)" fill="none" stroke="#0c231c" stroke-linecap="round" stroke-linejoin="round" stroke-width="1"/>
          <path id="Trazado_958019" data-name="Trazado 958019" d="M617.072,260.9c-.8,1.966,5.065,12.515,5.065,12.515.966,5.25,3.494,8.235,3.644,9.02s1.185,11.064,1.185,11.064" transform="translate(-550.083 -232.602)" fill="none" stroke="#0c231c" stroke-linecap="round" stroke-linejoin="round" stroke-width="1"/>
          <path id="Trazado_958020" data-name="Trazado 958020" d="M760.369,455.208a10.916,10.916,0,0,0,5.026-.082" transform="translate(-677.905 -405.766)" fill="none" stroke="#0c231c" stroke-linecap="round" stroke-linejoin="round" stroke-width="1"/>
          <path id="Trazado_958021" data-name="Trazado 958021" d="M718.388,377.225a7.38,7.38,0,0,0,4.553-.928" transform="translate(-640.477 -335.487)" fill="none" stroke="#0c231c" stroke-linecap="round" stroke-linejoin="round" stroke-width="1"/>
          <path id="Trazado_958022" data-name="Trazado 958022" d="M113.881,345.129H146.1s.652-23.367.807-26.247.932-18.527.932-18.527-6.889-20.169-7.3-27.353,1.668-27.43.913-29.849c-.547-1.754-2.7-2.691-5.4-1.069-2.5-6.486-8.71,2.877-8.71,2.877s-1.9-1.52-3.515-.389c-1.81,1.271-9.447,11.253-10.493,14.567s-5.158,19.952-5.158,19.952c-2.06,2.091-4.808,3.767-4.983,4.708-.322,1.734.056,11.564,6.775,19.658,5.877,7.081,9.332,11.246,10.5,14.88,2.378,7.4-1.244,13.716-6.584,26.791" transform="translate(-91.929 -213.79)" fill="#7a9954"/>
          <path id="Trazado_958023" data-name="Trazado 958023" d="M262.437,374.814s-.213,4.28-.438,8.775a30.433,30.433,0,0,1-5.875-60.277c-.307,7.2-1.286,19.012-.99,24.148.414,7.184,7.3,27.353,7.3,27.353" transform="translate(-206.523 -288.248)" fill="#0c231c"/>
          <path id="Trazado_958024" data-name="Trazado 958024" d="M262.054,923.652c-4.627.412-7.645-3.5-10.586-4.6" transform="translate(-224.196 -819.382)" fill="none" stroke="#0c231c" stroke-linecap="round" stroke-linejoin="round" stroke-width="1"/>
          <path id="Trazado_958025" data-name="Trazado 958025" d="M159.993,564.486c-.784-2.13-3.337-5.787-3.2-6.891s.951-2,1.027-3.726.009-7.8-2.683-8.582c-3-.871-3.534,5.322-5.355,6.089" transform="translate(-133.54 -486.076)" fill="none" stroke="#0c231c" stroke-linecap="round" stroke-linejoin="round" stroke-width="1"/>
          <path id="Trazado_958026" data-name="Trazado 958026" d="M156.873,666.185c-2.131,1.017-6.257-.092-6.257-.092" transform="translate(-134.281 -593.853)" fill="none" stroke="#0c231c" stroke-linecap="round" stroke-linejoin="round" stroke-width="1"/>
          <path id="Trazado_958027" data-name="Trazado 958027" d="M260.614,287.423c1.3,1.038,1.661,1.969.988,4.453s-7.588,13.092-7.752,13.816S252.6,318.13,252.6,318.13" transform="translate(-225.203 -256.251)" fill="none" stroke="#0c231c" stroke-linecap="round" stroke-linejoin="round" stroke-width="1"/>
          <path id="Trazado_958028" data-name="Trazado 958028" d="M325.475,260.9c.8,1.966-5.065,12.515-5.065,12.515-.966,5.25-3.494,8.235-3.644,9.02S315.58,293.5,315.58,293.5" transform="translate(-281.355 -232.602)" fill="none" stroke="#0c231c" stroke-linecap="round" stroke-linejoin="round" stroke-width="1"/>
          <path id="Trazado_958029" data-name="Trazado 958029" d="M222.823,455.208a10.916,10.916,0,0,1-5.026-.082" transform="translate(-194.176 -405.766)" fill="none" stroke="#0c231c" stroke-linecap="round" stroke-linejoin="round" stroke-width="1"/>
          <path id="Trazado_958030" data-name="Trazado 958030" d="M268.691,377.225a7.381,7.381,0,0,1-4.553-.928" transform="translate(-235.492 -335.487)" fill="none" stroke="#0c231c" stroke-linecap="round" stroke-linejoin="round" stroke-width="1"/>
          <path id="Trazado_958031" data-name="Trazado 958031" d="M292.511,325.984a30.433,30.433,0,1,0-30.433,30.433,30.433,30.433,0,0,0,30.433-30.433" transform="translate(-206.523 -263.498)" fill="#74b0d3" stroke="#707070" stroke-width="1"/>
        </g>
      </g>
      <g id="Grupo_1116499" data-name="Grupo 1116499" transform="translate(25.123 32.052)">
        <g id="Grupo_1116498" data-name="Grupo 1116498" clip-path="url(#clip-path-2)">
          <path id="Trazado_958032" data-name="Trazado 958032" d="M582.749,296.09c-4.639-2.741-9.852,2.012-11.4,3.4,0,0-2.666,2.455-4.024,3.863s-3.445,1.987-2.716,2.82,1.1-1.044,2.091-.154-.054,1.094.261,1.773,1.358.054,2.3-.94-.1-1.462-.211-2.3,1.83-2.037,2.562-1.93-1.308,1.512-1.465,2.3,1.726,0,2.3.833-.365,0-1.358,0-.572.993-.886,1.569-1.3.886-3.03,1.411-1.651-.443-2.428,0a12.769,12.769,0,0,0-2.168,1.979c-1.043.993-2.141-.261-2.873.625s.786.629,1.358.993-.365.783-1.2,1.2-1.687-.113-2.4.507c-.925.8-.522,1.426-.575,2.419s2.289.89,3.867-.368c.167-.133.625-1.358,1.408-1.619s.472,1.358,1.308,2.091.207-2.3.354-2.509,1.315,1.776,2.048,2.405.783.05,1.2-.472.575.472.993,1.672.575,1.3,1.88,1.3-.211-.729-.625-1.408.364-2.037,1.094-2.144.107,2.455,1.1,2.977,2.77-1.1,3.606-.418-2.352,2.98-3.238,2.3-3.5-.679-3.813-.629-1.047,1.461-1.672.732-1.983-.315-2.505-.629-.465-1.182-1.509-1.653a2.519,2.519,0,0,0-2.879.245c-.836.729-1.044-.315-1.908-.418s-.911.468-1.172.993.154,1.462-1.151,2.609-2.82,2.823-2.873,4.128.783.575,1.254,1.2-.733,1.3-.783,2.351.836,1.669,2.087,3.706,4.807.314,5.693.261,1.047.368,2.144.786a21.776,21.776,0,0,0,.261,2.662c.207,1.151.94.993,1.619,2.194s-.368,3.341.207,4.649,2.509,5.378,4.231,5.743a4.481,4.481,0,0,0,3.759-.468,9.962,9.962,0,0,0,2.387-4.388c.121-1.1,1.794-.994,1.948-2.3s-1.93-1.723-.94-3.656,6.479-5.9,6.164-6.843-2.4-.468-3.552-.572-.729-.993-1.619-2.091-2.3-1.933-2.3-3.03-1.3-3.08-.575-3.238,3.763,6.843,4.546,7.208,3.238-1.933,3.863-1.983,2.977-.261,3.238-1.515-.99-1.569-1.669-2.3-1.254.625-2.141-.418-2.144-1.933-1.358-2.141,1.669,1.358,2.3,1.3,1.251-.625,1.983.261.468,1.694,1.619,1.4,2.455-.876,3.188.275,1.512,1.254,2.559.05,3.288,3.084,3.445,3.03l.983-3.356ZM577.064,315.2c-.861.393-1.683-.2-2.509-.783s-.822.861-1.762,1.058-.979-.743-.236-1.333.368-1.712.94-1.84c.354-.079.825.314,1.186,1.176s.186-.783,1.008-1.451.511,1.058.629,1.687,1.6,1.1.743,1.487m2.386,2.509c-1.512-.472.3-1.53.034-2.391s-.737-1.447-.707-2.076.113-.783.906-1.176c1.108-.547,1.276-.272,1.711.432s-.569.861-1.34,1.19.269.808.636,1.812a3.686,3.686,0,0,0,.973,1.579c.6.786-.7,1.1-2.213.629" transform="translate(-517.598 -295.286)" fill="#00794c"/>
          <path id="Trazado_958033" data-name="Trazado 958033" d="M601.793,386.452s.679,3.708,0,4.178-1.671.366-1.462-.627-1.828.574-2.194.731-1.41.731-1.671.052,1.232-1.96,2.089-2.35a5,5,0,0,0,2.141-1.985c.168-.324,1.005-.56,1.1,0" transform="translate(-556.873 -376.293)" fill="#00794c"/>
          <path id="Trazado_958034" data-name="Trazado 958034" d="M782.678,720.2c-.281-.281-1.567.052-1.828.627s-1.985.992-1.88,1.41.836.627.261,1.149-1.515.157-1.045,1.41,1.932,2.716,3.134,0,2.089-3.865,1.358-4.6" transform="translate(-718.799 -674.057)" fill="#00794c"/>
          <path id="Trazado_958035" data-name="Trazado 958035" d="M300.185,575.614c.478-.239,2.9-1.085,4.542.717.8.88,2.311.558,3.347.956s.33.99,1.923,2.106,5.169.843,5.01,2.835-3.188,1.514-2.152,2.948,2.933,1.5,1.514,2.869c-1.06,1.025-1.888.067-1.914.766-.047,1.274.559,1.067-.556,2.1s-1.334,1.078-1.674,1.833a6.552,6.552,0,0,0-.717,2.47c-.08,1.116,3.108,5.26,2.789,5.977s-2.147-.8-4.7-3.745-2.791-7.969-3.269-9.722-2.55-1.594-3.108-2.47.956-1.2-.558-2.47-2.948-.638-2.789-2.709.558-3.586,2.311-4.463" transform="translate(-290.681 -544.878)" fill="#00794c"/>
          <path id="Trazado_958036" data-name="Trazado 958036" d="M183.031,336.7c-2.159,1.535-2.709,3.188-.956,3.267s1.435-1.674,2.709-.956-1.355,1.992,0,2.63,2.709-.239,2.072,1.036-2.63,3.267-4.542,1.753-1.435-1.833-3.108-3.188-1.275-5.339-1.912-5.339,1.2,2.55,0,2.789-2.709-.876-3.666-3.427a11.045,11.045,0,0,1,0-9.164c1.673-3.745,1.833-8.606,3.984-10.2s5.9-.4,7.65,0,2.47,1.992,4.223,2.63,3.666.239,3.984-.478-.637-2.789.478-2.152.319,2.152,1.275,2.789-.877,2.55-2.709,3.267-3.85.756-2.709,2.311c.581.791,1.634,1.265,1.833,2.152.159.71,1.355.478,2.231-1.2s.231-3.188.912-3.427.6,1.514,1.558,2.072,1.275-.877,1.913.08,1.913,4.463.558,4.941-2.537-.862-2.642.439a2.292,2.292,0,0,1-1.318,1.682c-1.592.662-2.655.919-2.948,1.124-1.13.79-3.133,2.254-3.292,3.21s.956,4.463-.717,3.506-1.275-4.7-4.861-2.152" transform="translate(-179.025 -312.978)" fill="#00794c"/>
          <path id="Trazado_958037" data-name="Trazado 958037" d="M434.339,277.755c-2.333-.389-.08-3.506,0-6.455s-2.869-3.984-1.594-5.419.805-.717,2.236-1.594,7.008-2.152,7.247-.717,2.072.956,3.028,1.594-2.231,3.019-2.63,5.175-1.833,2.555-3.028,3.272-1.514.08-2.709,1.594-1.594,2.709-2.55,2.55" transform="translate(-410.65 -266.462)" fill="#00794c"/>
          <path id="Trazado_958038" data-name="Trazado 958038" d="M391.473,321.085c-1.112,1.772-.637,2.709,0,2.709s.319-1.434,1.833-1.833,2.072-1.674.478-3.188-3.347-2.55-3.984-1.833,2.264,3.2,1.673,4.144" transform="translate(-372.565 -314.414)" fill="#00794c"/>
          <path id="Trazado_958039" data-name="Trazado 958039" d="M319.652,304.486c-1.415.25-2.231,1.679-.478,2.871s3.347.4,2.869-1.039-1.036-2.072-2.391-1.833" transform="translate(-308.792 -303.474)" fill="#00794c" stroke="#707070" stroke-width="1"/>
          <path id="Trazado_958040" data-name="Trazado 958040" d="M400.7,261.844c.979.565-1.17.86-1.71,1.806s-.4,3.6-1.215,3.24.63-2.492,0-2.506-2.745.076-2.3-.869,4.275-2.216,5.22-1.67" transform="translate(-377.659 -265.383)" fill="#00794c" stroke="#707070" stroke-width="1"/>
          <path id="Trazado_958041" data-name="Trazado 958041" d="M365.338,284.926c-.689.275.63,2.385,1.035,2.029s.45-2.62-1.035-2.029" transform="translate(-350.664 -285.991)" fill="#00794c" stroke="#707070" stroke-width="1"/>
          <path id="Trazado_958042" data-name="Trazado 958042" d="M506.729,359.759c1.2.629-.945,3.195-1.845,2.43s.135-3.33,1.845-2.43" transform="translate(-474.954 -352.627)" fill="#00794c"/>
        </g>
      </g>
    </g>
  </g>
</svg>
