<svg xmlns="http://www.w3.org/2000/svg" width="120" height="120" viewBox="0 0 120 120">
  <g id="Grupo_1116063" data-name="Grupo 1116063" transform="translate(-64 -6445)">
    <rect id="Rect치ngulo_402033" data-name="Rect치ngulo 402033" width="120" height="120" rx="8" transform="translate(64 6445)" fill="#0042db"/>
    <g id="Rect치ngulo_412110" data-name="Rect치ngulo 412110" transform="translate(69 6450)" fill="none" stroke="#fff" stroke-width="1">
      <rect width="110" height="110" rx="6" stroke="none"/>
      <rect x="0.5" y="0.5" width="109" height="109" rx="5.5" fill="none"/>
    </g>
    <g id="Grupo_1117847" data-name="Grupo 1117847" transform="translate(84 6460.954)">
      <g id="Grupo_1117834" data-name="Grupo 1117834" transform="translate(51.669 12.817)">
        <path id="Trazado_960380" data-name="Trazado 960380" d="M334.4,56.135l-3.72,10.585A30.636,30.636,0,0,1,341.844,70.4l3.72-10.585Z" transform="translate(-330.683 -56.135)" fill="#eff6ff" fill-rule="evenodd"/>
      </g>
      <g id="Grupo_1117835" data-name="Grupo 1117835" transform="translate(50.808 5.968)">
        <path id="Trazado_960381" data-name="Trazado 960381" d="M326.632,13.49l-1.377,4.181a1.733,1.733,0,0,0,1.1,2.183l2.648.868L340.158,24.4l2.644.872a1.735,1.735,0,0,0,2.183-1.1l1.377-4.181a1.735,1.735,0,0,0-1.1-2.183l-16.444-5.417A1.735,1.735,0,0,0,326.632,13.49Z" transform="translate(-325.169 -12.301)" fill="#375e7d" fill-rule="evenodd"/>
      </g>
      <g id="Grupo_1117836" data-name="Grupo 1117836" transform="translate(64.367 10.129)">
        <path id="Trazado_960382" data-name="Trazado 960382" d="M416.021,47.738a1.735,1.735,0,0,0,2.183-1.1l1.377-4.181a1.735,1.735,0,0,0-1.1-2.183L414.4,38.929a1.735,1.735,0,0,1,1.1,2.183l-1.377,4.181a1.735,1.735,0,0,1-2.183,1.1h.009l1.422.47Z" transform="translate(-411.946 -38.929)" fill="#2b4d66" fill-rule="evenodd"/>
      </g>
      <g id="Grupo_1117837" data-name="Grupo 1117837" transform="translate(18.18 21.488)">
        <path id="Trazado_960383" data-name="Trazado 960383" d="M137.189,170.741a30.316,30.316,0,1,0-19.305-38.275A30.314,30.314,0,0,0,137.189,170.741Z" transform="translate(-116.354 -111.627)" fill="#375e7d" fill-rule="evenodd"/>
      </g>
      <g id="Grupo_1117838" data-name="Grupo 1117838" transform="translate(24.871 28.18)">
        <path id="Trazado_960384" data-name="Trazado 960384" d="M190.192,155.649a23.623,23.623,0,1,0,15.049,29.829l.013-.044A23.622,23.622,0,0,0,190.192,155.649Z" transform="translate(-159.173 -154.456)" fill="#eff6ff" fill-rule="evenodd"/>
      </g>
      <g id="Grupo_1117839" data-name="Grupo 1117839" transform="translate(49.542 29.373)">
        <path id="Trazado_960385" data-name="Trazado 960385" d="M323.416,162.089l-6.156,18.69a4.028,4.028,0,0,0,2.485,4.925l18.734,6.17A23.622,23.622,0,0,0,323.416,162.089Z" transform="translate(-317.068 -162.089)" fill="#eb5468" fill-rule="evenodd"/>
      </g>
      <g id="Grupo_1117840" data-name="Grupo 1117840" transform="translate(44.612 47.866)">
        <path id="Trazado_960386" data-name="Trazado 960386" d="M290.641,280.644a3.9,3.9,0,1,0,2.485,4.925A3.9,3.9,0,0,0,290.641,280.644Z" transform="translate(-285.519 -280.448)" fill="#ffd772" fill-rule="evenodd"/>
      </g>
      <g id="Grupo_1117841" data-name="Grupo 1117841" transform="translate(60.208 31.286)">
        <path id="Trazado_960387" data-name="Trazado 960387" d="M396.074,202.206a23.634,23.634,0,0,0-10.744-27.871,51.355,51.355,0,0,1,2.6,16.3,52.669,52.669,0,0,1-.709,8.654Z" transform="translate(-385.33 -174.335)" fill="#e5384f" fill-rule="evenodd"/>
      </g>
      <g id="Grupo_1117842" data-name="Grupo 1117842" transform="translate(48.361 22.49)">
        <path id="Trazado_960388" data-name="Trazado 960388" d="M338.438,156.842a30.323,30.323,0,0,0-13.907-35.9,29.812,29.812,0,0,0-3.911-1.842c-.492-.19-.988-.368-1.492-.536-.593-.195-1.187-.372-1.785-.527a45.338,45.338,0,0,1,4.013,8.8A23.634,23.634,0,0,1,332.1,154.707c0,.013-.009.027-.013.044A23.6,23.6,0,0,1,316.2,170.058a37.145,37.145,0,0,1-6.692,7.622A30.32,30.32,0,0,0,338.438,156.842Z" transform="translate(-309.509 -118.04)" fill="#2b4d66" fill-rule="evenodd"/>
      </g>
      <g id="Grupo_1117843" data-name="Grupo 1117843" transform="translate(55.053 56.243)">
        <path id="Trazado_960389" data-name="Trazado 960389" d="M352.338,352.325a23.6,23.6,0,0,0,15.886-15.306l.013-.044-8.849-2.914a48.267,48.267,0,0,1-4.411,13.716A43.136,43.136,0,0,1,352.338,352.325Z" transform="translate(-352.338 -334.06)" fill="#d9eeff" fill-rule="evenodd"/>
      </g>
      <g id="Grupo_1117844" data-name="Grupo 1117844" transform="translate(59.473 16.724)">
        <path id="Trazado_960390" data-name="Trazado 960390" d="M384.537,89.807l2.414-7.33-1.43-.47-2.644-.872-2.25,6.829a29.861,29.861,0,0,1,3.911,1.843Z" transform="translate(-380.626 -81.135)" fill="#d9eeff" fill-rule="evenodd"/>
      </g>
      <g id="Grupo_1117845" data-name="Grupo 1117845" transform="translate(46.638 47.867)">
        <path id="Trazado_960391" data-name="Trazado 960391" d="M304.063,285.572a3.9,3.9,0,0,0-5.58-4.642,3.9,3.9,0,0,1,.416,7.042c.08.031.159.057.239.084A3.9,3.9,0,0,0,304.063,285.572Z" transform="translate(-298.483 -280.451)" fill="#fbba58" fill-rule="evenodd"/>
      </g>
      <g id="Grupo_1117846" data-name="Grupo 1117846" transform="translate(0 4.796)">
        <path id="Trazado_960392" data-name="Trazado 960392" d="M97.058,37.629A31.28,31.28,0,0,0,85.242,24.858l1.749-5.311,1.533.5a2.907,2.907,0,0,0,3.662-1.85l1.378-4.182a2.9,2.9,0,0,0-1.85-3.662L86.1,8.511a1.172,1.172,0,1,0-.733,2.226l5.612,1.847a.565.565,0,0,1,.355.7L89.959,17.47a.564.564,0,0,1-.7.355L72.806,12.408a.547.547,0,0,1-.318-.277.56.56,0,0,1-.033-.427l1.378-4.182a.564.564,0,0,1,.7-.355L80.369,9.09A1.172,1.172,0,0,0,81.1,6.864L75.269,4.941a2.907,2.907,0,0,0-3.662,1.85l-1.378,4.182a2.9,2.9,0,0,0,1.845,3.662l1.534.5-1.751,5.308a31.2,31.2,0,0,0-7.217.164,1.172,1.172,0,0,0,.322,2.321A29.148,29.148,0,0,1,96.625,60.926a29.139,29.139,0,1,1-36.772-36.8,1.172,1.172,0,0,0-.734-2.226,31.671,31.671,0,0,0-5.733,2.55H44a1.172,1.172,0,1,0,0,2.343h5.844A31.163,31.163,0,0,0,39.438,40.85H31.244a1.172,1.172,0,1,0,0,2.343h7.425a31.259,31.259,0,0,0-.746,14.057H25.407a1.172,1.172,0,1,0,0,2.343H38.432a31.842,31.842,0,0,0,7.822,14.061H35.721a1.172,1.172,0,1,0,0,2.343H48.769a31.494,31.494,0,0,0,48.29-38.369ZM74.22,20.763l1.613-4.89,8.932,2.941-1.611,4.892a32.017,32.017,0,0,0-8.934-2.943Z" transform="translate(-20.448 -4.796)"/>
        <path id="Trazado_960393" data-name="Trazado 960393" d="M1.172,132.9H15.743a1.172,1.172,0,1,0,0-2.343H1.172a1.172,1.172,0,1,0,0,2.343Z" transform="translate(0 -110.904)"/>
        <path id="Trazado_960394" data-name="Trazado 960394" d="M31.161,183.049a1.172,1.172,0,1,0,0,2.343H42.175a1.172,1.172,0,1,0,0-2.343Z" transform="translate(-25.303 -155.197)"/>
        <path id="Trazado_960395" data-name="Trazado 960395" d="M10.585,289.183a1.172,1.172,0,0,0-1.172-1.172H1.172a1.172,1.172,0,0,0,0,2.343H9.414A1.172,1.172,0,0,0,10.585,289.183Z" transform="translate(0 -243.759)"/>
        <path id="Trazado_960396" data-name="Trazado 960396" d="M54.087,394.174A1.172,1.172,0,0,0,52.915,393h-5.74a1.172,1.172,0,0,0,0,2.343h5.74A1.172,1.172,0,0,0,54.087,394.174Z" transform="translate(-38.816 -332.345)"/>
        <path id="Trazado_960397" data-name="Trazado 960397" d="M152.946,163.973a24.8,24.8,0,0,0,47.1,15.512l.01-.03.009-.031a24.832,24.832,0,0,0-23.234-32.5,24.571,24.571,0,0,0-7.48,1.055,25.115,25.115,0,0,0-4.024,1.613A24.642,24.642,0,0,0,152.946,163.973Zm45.226,13.612-16.607-5.469a5.077,5.077,0,0,0-2.4-4.753l5.456-16.565A22.489,22.489,0,0,1,198.172,177.584Zm-20.432-3.464a2.729,2.729,0,1,1-.377-5.028h0a2.729,2.729,0,0,1,1.737,3.444h0A2.708,2.708,0,0,1,177.741,174.12Zm-1.266-24.857a22.418,22.418,0,0,1,5.923.8l-5.456,16.565a5.04,5.04,0,0,0-2.716.526,5.134,5.134,0,0,0-.812.51l-7.817-7.125a1.172,1.172,0,1,0-1.579,1.732l7.919,7.219a5.151,5.151,0,0,0-.245.606,5.072,5.072,0,0,0,3.231,6.4,5.12,5.12,0,0,0,1.023.221l.4,3.408a1.172,1.172,0,0,0,1.162,1.036,1.2,1.2,0,0,0,.137-.008,1.172,1.172,0,0,0,1.028-1.3l-.4-3.419a5.181,5.181,0,0,0,.522-.227,5.035,5.035,0,0,0,2.037-1.872l16.612,5.471a22.268,22.268,0,0,1-9.774,11.389l-1.307-2.592a1.172,1.172,0,0,0-2.092,1.055l1.309,2.6a22.262,22.262,0,0,1-14.983,1.128l.912-2.769a1.172,1.172,0,1,0-2.226-.733l-.913,2.769A22.359,22.359,0,0,1,157,182.841l2.584-1.3a1.172,1.172,0,0,0-1.055-2.092l-2.581,1.3a22.364,22.364,0,0,1-1.1-14.964l2.729.9a1.172,1.172,0,0,0,.734-2.225l-2.725-.9a22.276,22.276,0,0,1,9.794-11.337l1.284,2.539a1.172,1.172,0,0,0,2.092-1.057l-1.281-2.534a22.293,22.293,0,0,1,9-1.906Z" transform="translate(-127.998 -124.712)"/>
      </g>
    </g>
  </g>
</svg>
