<svg xmlns="http://www.w3.org/2000/svg" width="100" height="100" viewBox="0 0 100 100">
  <g id="Grupo_1115858" data-name="Grupo 1115858" transform="translate(0 0)">
    <g id="Grupo_156312" data-name="Grupo 156312" transform="translate(0 0)">
      <path id="Elipse_5845" data-name="Elipse 5845" d="M50,0A50,50,0,1,1,0,50,50,50,0,0,1,50,0Z" fill="#66d16a"/>
    </g>
    <g id="Grupo_1115156" data-name="Grupo 1115156" transform="translate(15.936 15.003)">
      <path id="Trazado_937878" data-name="Trazado 937878" d="M5.8,208.3a4.008,4.008,0,0,0-5.481,4.123l1.974,19.421a5.765,5.765,0,0,0,1.334,3.149l6.694,7.937-1.976,3.951,2.073,1.037,2.317-4.634a1.16,1.16,0,0,0-.15-1.265L5.4,233.5a3.456,3.456,0,0,1-.8-1.89l-1.972-19.42a1.7,1.7,0,0,1,.925-1.682,1.691,1.691,0,0,1,2.348.942l4.514,12.638a3.6,3.6,0,0,0,.563,2.324l4.4,6.592,1.928-1.285-4.4-6.592a1.288,1.288,0,0,1-.065-1.343,1.347,1.347,0,0,1,2.173-.2l5.432,6.79c1.726,2.157,2.582,8.3,2.247,11.273l-1.672,5.409,2.214.683,1.7-5.51a1.261,1.261,0,0,0,.043-.2c.417-3.34-.458-10.27-2.726-13.106l-5.432-6.79a3.609,3.609,0,0,0-4.9-.7L8.078,210.67A4.011,4.011,0,0,0,5.8,208.3Zm0,0" transform="translate(-0.297 -177.889)" fill="#001a58"/>
      <path id="Trazado_937879" data-name="Trazado 937879" d="M330.7,231.844l1.973-19.421a4.006,4.006,0,0,0-7.759-1.752l-3.843,10.761a3.609,3.609,0,0,0-4.9.7l-5.432,6.79c-2.268,2.837-3.143,9.768-2.726,13.106a1.2,1.2,0,0,0,.043.2l1.7,5.51,2.214-.683-1.672-5.409c-.336-2.968.52-9.115,2.246-11.273l5.432-6.79a1.345,1.345,0,0,1,2.173.2,1.288,1.288,0,0,1-.065,1.342l-4.4,6.592L317.624,233l4.4-6.592a3.588,3.588,0,0,0,.563-2.323L327.1,211.45a1.691,1.691,0,0,1,2.347-.942,1.7,1.7,0,0,1,.926,1.681l-1.974,19.423a3.46,3.46,0,0,1-.8,1.889l-7.186,8.52a1.155,1.155,0,0,0-.15,1.265l2.317,4.634,2.072-1.036-1.976-3.952L329.364,235a5.766,5.766,0,0,0,1.337-3.151Zm0,0" transform="translate(-263.368 -177.889)" fill="#001a58"/>
      <path id="Trazado_937880" data-name="Trazado 937880" d="M112.186,51.856a1.158,1.158,0,0,0-1.159,1.159v1.159a6.951,6.951,0,1,0,13.9,0V53.014a1.158,1.158,0,0,0-1.159-1.159h-1.514L119.65,44.9H128.4V69.233h-2.317V71.55h6.951V69.233h-2.317V44.9h8.755l-2.607,6.951h-1.514a1.158,1.158,0,0,0-1.159,1.159v1.159a6.951,6.951,0,1,0,13.9,0V53.014a1.158,1.158,0,0,0-1.158-1.159h-1.514l-3.194-8.517a1.158,1.158,0,0,0-1.084-.751H131.011l2.954-3.939a1.156,1.156,0,0,0,0-1.389l-3.476-4.634a1.2,1.2,0,0,0-1.853,0l-3.476,4.634a1.156,1.156,0,0,0,0,1.389l2.954,3.939H117.978a1.161,1.161,0,0,0-1.086.751L113.7,51.856Zm33.6,2.317a4.634,4.634,0,0,1-9.268,0Zm-2.83-2.317h-3.608l1.8-4.81Zm-15.416-13.9,2.027-2.7,2.027,2.7-2.027,2.7Zm-4.924,16.219a4.634,4.634,0,0,1-9.268,0Zm-4.634-7.127,1.8,4.81h-3.608Zm0,0" transform="translate(-94.992 -27.526)" fill="#001a58"/>
      <path id="Trazado_937881" data-name="Trazado 937881" d="M166.855,10.586a24.088,24.088,0,0,0-2.262.979l1.029,2.077a21.755,21.755,0,0,1,2.045-.886Zm0,0" transform="translate(-140.801 -9.053)" fill="#001a58"/>
      <path id="Trazado_937882" data-name="Trazado 937882" d="M264.332,2.321a24.315,24.315,0,0,0-2.414-.485l-.339,2.293c.729.107,1.463.256,2.184.438Zm0,0" transform="translate(-223.741 -1.57)" fill="#001a58"/>
      <path id="Trazado_937883" data-name="Trazado 937883" d="M214.123,318.293l-.346,2.293c.809.12,1.633.2,2.451.243l.114-2.315c-.742-.037-1.488-.11-2.219-.221Zm0,0" transform="translate(-182.862 -272.2)" fill="#001a58"/>
      <path id="Trazado_937884" data-name="Trazado 937884" d="M232.365,2.342l.108-2.315C232.09.01,231.7,0,231.321,0c-.453,0-.876.01-1.309.032l.12,2.315c.374-.02.75-.03,1.131-.03S232,2.326,232.365,2.342Zm0,0" transform="translate(-196.746 0)" fill="#001a58"/>
      <path id="Trazado_937885" data-name="Trazado 937885" d="M198.847,2a23.655,23.655,0,0,0-2.413.5l.588,2.243a21.611,21.611,0,0,1,2.179-.453Zm0,0" transform="translate(-168.031 -1.707)" fill="#001a58"/>
      <path id="Trazado_937886" data-name="Trazado 937886" d="M249.107,318.25a21.6,21.6,0,0,1-2.216.224l.117,2.315a24.322,24.322,0,0,0,2.452-.249Zm0,0" transform="translate(-211.18 -272.163)" fill="#001a58"/>
      <path id="Trazado_937887" data-name="Trazado 937887" d="M104.542,256.787a22.007,22.007,0,0,1-1.368-1.76l-1.9,1.328c.468.669.977,1.323,1.513,1.945Zm0,0" transform="translate(-86.651 -218.096)" fill="#001a58"/>
      <path id="Trazado_937888" data-name="Trazado 937888" d="M71.148,170.787l2.3-.238a22.231,22.231,0,0,1-.116-2.225l-2.317,0c0,.82.045,1.647.128,2.458Zm0,0" transform="translate(-60.778 -143.949)" fill="#001a58"/>
      <path id="Trazado_937889" data-name="Trazado 937889" d="M126.755,279.783a22.132,22.132,0,0,1-1.693-1.45l-1.594,1.681a24.424,24.424,0,0,0,1.871,1.6Zm0,0" transform="translate(-105.632 -238.026)" fill="#001a58"/>
      <path id="Trazado_937890" data-name="Trazado 937890" d="M87.836,230.194a22.042,22.042,0,0,1-.986-2l-2.127.919a24.6,24.6,0,0,0,1.09,2.208Zm0,0" transform="translate(-72.497 -195.15)" fill="#001a58"/>
      <path id="Trazado_937891" data-name="Trazado 937891" d="M378.516,102.063a21.839,21.839,0,0,1,.782,2.086l2.208-.7a24.115,24.115,0,0,0-.865-2.307Zm0,0" transform="translate(-323.745 -86.494)" fill="#001a58"/>
      <path id="Trazado_937892" data-name="Trazado 937892" d="M150.355,299.094a24.4,24.4,0,0,0,2.154,1.194l1.019-2.082a21.846,21.846,0,0,1-1.949-1.08Zm0,0" transform="translate(-128.625 -254.098)" fill="#001a58"/>
      <path id="Trazado_937893" data-name="Trazado 937893" d="M137.858,25.652c-.694.437-1.373.913-2.014,1.413l1.424,1.828a21.964,21.964,0,0,1,1.825-1.279Zm0,0" transform="translate(-116.215 -21.938)" fill="#001a58"/>
      <path id="Trazado_937894" data-name="Trazado 937894" d="M181.681,310.66l-.8,2.174a24.269,24.269,0,0,0,2.35.733l.576-2.245A21.861,21.861,0,0,1,181.681,310.66Zm0,0" transform="translate(-154.732 -265.672)" fill="#001a58"/>
      <path id="Trazado_937895" data-name="Trazado 937895" d="M74.5,199.375a24.139,24.139,0,0,0,.621,2.385l2.209-.7a22.135,22.135,0,0,1-.561-2.156Zm0,0" transform="translate(-63.754 -170.102)" fill="#001a58"/>
      <path id="Trazado_937896" data-name="Trazado 937896" d="M343.355,47.514a21.79,21.79,0,0,1,1.542,1.61l1.752-1.516a24.3,24.3,0,0,0-1.7-1.78Zm0,0" transform="translate(-293.676 -39.192)" fill="#001a58"/>
      <path id="Trazado_937897" data-name="Trazado 937897" d="M292.152,10.227l-.8,2.174c.7.256,1.385.55,2.051.873l1.015-2.082a24.2,24.2,0,0,0-2.268-.965Zm0,0" transform="translate(-249.206 -8.746)" fill="#001a58"/>
      <path id="Trazado_937898" data-name="Trazado 937898" d="M322.227,26.518a24.42,24.42,0,0,0-2.025-1.4l-1.221,1.968c.628.39,1.245.817,1.834,1.27Zm0,0" transform="translate(-272.831 -21.48)" fill="#001a58"/>
      <path id="Trazado_937899" data-name="Trazado 937899" d="M332.133,279.579l1.421,1.831a24.394,24.394,0,0,0,1.867-1.606l-1.6-1.678c-.537.51-1.105,1-1.691,1.454Zm0,0" transform="translate(-284.079 -237.849)" fill="#001a58"/>
      <path id="Trazado_937900" data-name="Trazado 937900" d="M111.273,48.335l1.762,1.505c.482-.563,1-1.109,1.532-1.62l-1.6-1.674A24.563,24.563,0,0,0,111.273,48.335Zm0,0" transform="translate(-95.202 -39.806)" fill="#001a58"/>
      <path id="Trazado_937901" data-name="Trazado 937901" d="M387.82,134.006a21.925,21.925,0,0,1,.343,2.2l2.3-.24a24.377,24.377,0,0,0-.38-2.434Zm0,0" transform="translate(-331.701 -114.194)" fill="#001a58"/>
      <path id="Trazado_937902" data-name="Trazado 937902" d="M390.369,167.613a22.163,22.163,0,0,1-.112,2.225l2.306.233q.121-1.215.123-2.479l-.707-.045Zm0,0" transform="translate(-333.786 -143.284)" fill="#001a58"/>
      <path id="Trazado_937903" data-name="Trazado 937903" d="M363.484,72.839a21.825,21.825,0,0,1,1.186,1.887l2.022-1.134a24.541,24.541,0,0,0-1.313-2.084Zm0,0" transform="translate(-310.89 -61.153)" fill="#001a58"/>
      <path id="Trazado_937904" data-name="Trazado 937904" d="M354.4,256.547l1.761,1.507c.534-.625,1.041-1.279,1.506-1.946l-1.9-1.327C355.346,255.387,354.887,255.98,354.4,256.547Zm0,0" transform="translate(-303.123 -217.886)" fill="#001a58"/>
      <path id="Trazado_937905" data-name="Trazado 937905" d="M386.924,199.058l-2.269-.464a22.169,22.169,0,0,1-.557,2.159l2.212.691A24.511,24.511,0,0,0,386.924,199.058Zm0,0" transform="translate(-328.518 -169.835)" fill="#001a58"/>
      <path id="Trazado_937906" data-name="Trazado 937906" d="M71.844,137l2.305.229c.073-.738.184-1.479.33-2.205l-2.272-.458A24.567,24.567,0,0,0,71.844,137Zm0,0" transform="translate(-61.483 -115.083)" fill="#001a58"/>
      <path id="Trazado_937907" data-name="Trazado 937907" d="M371.98,229.922l2.026,1.125c.4-.72.764-1.465,1.086-2.212l-2.13-.914c-.291.675-.621,1.35-.982,2Zm0,0" transform="translate(-318.155 -194.916)" fill="#001a58"/>
      <path id="Trazado_937908" data-name="Trazado 937908" d="M91.914,74.457l2.027,1.12c.359-.648.755-1.284,1.176-1.892l-1.9-1.322a24.377,24.377,0,0,0-1.3,2.094Zm0,0" transform="translate(-78.647 -61.884)" fill="#001a58"/>
      <path id="Trazado_937909" data-name="Trazado 937909" d="M78.57,104.413l2.213.688c.218-.7.477-1.405.769-2.094l-2.133-.907C79.1,102.861,78.811,103.638,78.57,104.413Zm0,0" transform="translate(-67.235 -87.316)" fill="#001a58"/>
      <path id="Trazado_937910" data-name="Trazado 937910" d="M279.4,310.539a21.936,21.936,0,0,1-2.125.668l.579,2.243a24.146,24.146,0,0,0,2.351-.738Zm0,0" transform="translate(-237.163 -265.569)" fill="#001a58"/>
      <path id="Trazado_937911" data-name="Trazado 937911" d="M309.25,298.936l-1.23-1.963a22.26,22.26,0,0,1-1.945,1.084l1.022,2.079A24.5,24.5,0,0,0,309.25,298.936Zm0,0" transform="translate(-261.794 -253.967)" fill="#001a58"/>
    </g>
  </g>
</svg>
