<svg xmlns="http://www.w3.org/2000/svg" width="50.5" height="50.296" viewBox="0 0 50.5 50.296">
  <g id="XMLID_1749_" transform="translate(0.25 -0.776)">
    <g id="XMLID_1832_" transform="translate(19.112 35.597)">
      <path id="Trazado_957852" data-name="Trazado 957852" d="M222.088,467.79h-3.243a.5.5,0,1,1,0-1.008h3.243a.5.5,0,1,1,0,1.008Z" transform="translate(-215.618 -454.776)" fill="#001a58" stroke="#001a58" stroke-width="0.5"/>
      <g id="XMLID_1949_">
        <path id="XMLID_1967_" d="M235.175,389.084a.6.6,0,1,0-.288.789A.6.6,0,0,0,235.175,389.084Z" transform="translate(-229.746 -384.539)" fill="#001a58" stroke="#001a58" stroke-width="0.5"/>
        <path id="Trazado_957853" data-name="Trazado 957853" d="M194.581,354.483l-3.4-6a.5.5,0,0,1,.88-.5l3.166,5.592,2.755-1.28-3.226-4.8a.5.5,0,0,1,.839-.562l3.554,5.288a.509.509,0,0,1-.206.738l-3.713,1.726A.42.42,0,0,1,194.581,354.483Z" transform="translate(-191.12 -346.717)" fill="#001a58" stroke="#001a58" stroke-width="0.5"/>
      </g>
    </g>
    <g id="XMLID_1602_" transform="translate(39.121 32.038)">
      <path id="Trazado_957854" data-name="Trazado 957854" d="M395.862,320.427a4.648,4.648,0,1,1,4.651-4.648A4.655,4.655,0,0,1,395.862,320.427Zm0-8.289a3.64,3.64,0,1,0,3.641,3.64A3.645,3.645,0,0,0,395.862,312.138Z" transform="translate(-391.211 -311.13)" fill="#001a58" stroke="#001a58" stroke-width="0.5"/>
    </g>
    <g id="XMLID_1751_" transform="translate(19.917 3.015)">
      <g id="XMLID_1752_">
        <path id="Trazado_957855" data-name="Trazado 957855" d="M203.818,30.2a4.648,4.648,0,1,1,4.651-4.648A4.655,4.655,0,0,1,203.818,30.2Zm0-8.289a3.64,3.64,0,1,0,3.641,3.64A3.645,3.645,0,0,0,203.818,21.909Z" transform="translate(-199.167 -20.901)" fill="#001a58" stroke="#001a58" stroke-width="0.5"/>
      </g>
    </g>
    <g id="XMLID_2099_" transform="translate(4.333 30.025)">
      <path id="Trazado_957856" data-name="Trazado 957856" d="M81.978,347.761H80.316V344.99a.505.505,0,0,0-1.01,0v2.771H46.5V337.545a.505.505,0,0,0-1.01,0v10.216h-1.66a.506.506,0,0,0-.505.505,4.979,4.979,0,0,0,4.978,4.968H77.5a4.979,4.979,0,0,0,4.978-4.969A.5.5,0,0,0,81.978,347.761ZM77.5,352.226H48.3a3.971,3.971,0,0,1-3.936-3.457H81.441A3.971,3.971,0,0,1,77.5,352.226Z" transform="translate(-43.326 -332.436)" fill="#001a58" stroke="#001a58" stroke-width="0.5"/>
      <g id="XMLID_1951_" transform="translate(12.746)">
        <path id="Trazado_957857" data-name="Trazado 957857" d="M171.283,292.253a.507.507,0,0,1-.214-.961l.535-.249a.5.5,0,1,1,.426.914l-.535.249A.5.5,0,0,1,171.283,292.253Z" transform="translate(-170.787 -290.996)" fill="#001a58" stroke="#001a58" stroke-width="0.5"/>
        <path id="Trazado_957858" data-name="Trazado 957858" d="M176.9,306.023a.507.507,0,0,1-.214-.961l.535-.249a.5.5,0,1,1,.426.914l-.535.249A.5.5,0,0,1,176.9,306.023Z" transform="translate(-175.845 -303.389)" fill="#001a58" stroke="#001a58" stroke-width="0.5"/>
        <path id="Trazado_957859" data-name="Trazado 957859" d="M184.867,319.526a.507.507,0,0,1-.214-.961l.535-.249a.5.5,0,1,1,.427.914l-.535.249A.5.5,0,0,1,184.867,319.526Z" transform="translate(-183.012 -315.542)" fill="#001a58" stroke="#001a58" stroke-width="0.5"/>
      </g>
    </g>
    <path id="Trazado_957860" data-name="Trazado 957860" d="M53.508,165.75H45.65a23.435,23.435,0,0,0-3.118-4.3c-.921-.983-2.634-2.555-3.764-2.03a1.352,1.352,0,0,0-.681.889l-1.638,5.445H24.968a5.47,5.47,0,1,0-1.631,8.886l.018,10.685a.5.5,0,0,0,.505.5h0a.5.5,0,0,0,.5-.5l-.019-11.267a5.459,5.459,0,0,0,2.253-4.415c0-.009,0-.018,0-.026h7.038a11.2,11.2,0,0,1-2.489,1.655l-2.019.938a3.483,3.483,0,1,0,2.951,6.31l2.019-.938c2.081-.967,5.529-1.411,7.7-.48l5.181,2.225a1.3,1.3,0,0,0,1.848-.83c.537-1.472.209-4.934-1.328-8.88h4.128v15.709a.505.505,0,0,0,1.01,0V169.108a.5.5,0,0,0-.505-.5H47.082q-.407-.938-.88-1.845h7.306a.877.877,0,0,1,.877.875v2.63a.5.5,0,0,0,.5.5h0a.5.5,0,0,0,.505-.5v-2.63A1.887,1.887,0,0,0,53.508,165.75ZM21.118,174.1a4.46,4.46,0,1,1,4.472-4.46A4.471,4.471,0,0,1,21.118,174.1ZM26.5,168.6a5.427,5.427,0,0,0-.727-1.845H36.017a9.25,9.25,0,0,1-1.339,1.845Zm1.855,7.8a2.527,2.527,0,0,1,1.364-3.362,11.942,11.942,0,0,0,2.1,4.483A2.417,2.417,0,0,1,28.355,176.4Zm4.4.685a10.93,10.93,0,0,1-2.1-4.483s1.641-.794,2.015-1.027a11.9,11.9,0,0,0,2.167,4.631C34.42,176.346,32.754,177.09,32.754,177.09Zm9.442-.919a10.762,10.762,0,0,0-6.3-.25,10.9,10.9,0,0,1-2.322-4.962,11.162,11.162,0,0,0,3.7-4.523c.387-1,.639-2.057.947-3.079a36.01,36.01,0,0,0,2.579,7.265,37.445,37.445,0,0,0,3.933,6.64Zm.286-6.331a.505.505,0,0,0-.671-.244l-.293.136-.274-.586.889-.413a1.151,1.151,0,1,1,.977,2.085l-.89.413-.274-.586.292-.136a.5.5,0,0,0,.245-.67h0Zm5.2,8.623c-.113.054-.825-.12-2.233-1.926a30.516,30.516,0,0,1-2.767-4.407l.856-.4a2.159,2.159,0,1,0-1.829-3.912l-.857.4c-1.581-3.849-2.113-6.761-1.768-7.708.036-.1.076-.194.195-.194.309,0,1.2.406,2.518,1.819a24.234,24.234,0,0,1,4.037,6.15c1.958,4.186,2.586,8.378,2.045,9.863a.592.592,0,0,1-.2.316C47.566,178.517,47.716,178.446,47.68,178.463Z" transform="translate(-14.072 -142.455)" fill="#001a58" stroke="#001a58" stroke-width="0.5"/>
    <g id="XMLID_1750_" transform="translate(32.579 3.256)">
      <g id="XMLID_2204_">
        <path id="Trazado_957861" data-name="Trazado 957861" d="M342.561,29.328a.5.5,0,0,0,.505-.5V23.813a.5.5,0,0,0-.505-.5H326.3a.5.5,0,0,0-.505.5l-.007,13.079a.512.512,0,0,0,.505.5h16.268a.5.5,0,0,0,.505-.5V32.956a.577.577,0,0,0-.539-.561H326.8l0-8.078h15.251v4.507A.5.5,0,0,0,342.561,29.328Zm-.505,4.075v2.985H326.8V33.4Z" transform="translate(-325.788 -23.309)" fill="#001a58" stroke="#001a58" stroke-width="0.5"/>
        <path id="Trazado_957862" data-name="Trazado 957862" d="M344.981,135.041h-1.012a.5.5,0,1,1,0-1.008h1.012a.5.5,0,1,1,0,1.008Z" transform="translate(-341.696 -122.961)" fill="#001a58" stroke="#001a58" stroke-width="0.5"/>
        <path id="Trazado_957863" data-name="Trazado 957863" d="M462.4,129.48h0v0a.505.505,0,0,0-1.01,0v0h0a.5.5,0,1,0,0,1.008h0v0a.505.505,0,0,0,1.01,0v0h0a.5.5,0,1,0,0-1.008Z" transform="translate(-447.374 -118.408)" fill="#001a58" stroke="#001a58" stroke-width="0.5"/>
        <path id="Trazado_957864" data-name="Trazado 957864" d="M378.883,130.721h-4.15a.873.873,0,0,0-1.424,0H371.72a.5.5,0,1,0,0,1.008h1.589a.873.873,0,0,0,1.424,0h4.15a.5.5,0,1,0,0-1.008Z" transform="translate(-366.672 -119.649)" fill="#001a58" stroke="#001a58" stroke-width="0.5"/>
        <path id="Trazado_957865" data-name="Trazado 957865" d="M388.957,53.249l-3.378-1.782a.769.769,0,0,1,0-1.348l3.378-1.782a.772.772,0,0,1,1.12.674v3.565A.743.743,0,0,1,388.957,53.249Zm-2.494-2.456,2.6,1.374V49.418Z" transform="translate(-379.241 -45.756)" fill="#001a58" stroke="#001a58" stroke-width="0.5"/>
      </g>
    </g>
    <g id="XMLID_3006_" transform="translate(40.171 10.165)">
      <ellipse id="XMLID_1179_" cx="0.648" cy="0.647" rx="0.648" ry="0.647" transform="translate(0 19.044)" fill="#001a58" stroke="#001a58" stroke-width="0.5"/>
      <ellipse id="XMLID_1177_" cx="0.648" cy="0.647" rx="0.648" ry="0.647" transform="translate(8.533)" fill="#001a58" stroke="#001a58" stroke-width="0.5"/>
    </g>
    <g id="XMLID_1624_" transform="translate(0 1.028)">
      <g id="XMLID_672_" transform="translate(0 0)">
        <path id="Trazado_957866" data-name="Trazado 957866" d="M4.351,82.969H.505a.5.5,0,0,1-.505-.5V72.532a.5.5,0,0,1,.505-.5H4.351a.5.5,0,0,1,.505.5v9.933A.5.5,0,0,1,4.351,82.969ZM1.01,81.961H3.846V73.036H1.01Z" transform="translate(0 -64.928)" fill="#001a58" stroke="#001a58" stroke-width="0.5"/>
        <path id="Trazado_957867" data-name="Trazado 957867" d="M65.809,19.332H59.336a.5.5,0,1,1,0-1.008h6.473a.753.753,0,0,0,.753-.751.761.761,0,0,0-.761-.759H64.334a.505.505,0,0,1-.481-.35.51.51,0,0,1,.478-.666h2.187a.753.753,0,0,0,.753-.751.761.761,0,0,0-.761-.759H64.772a.516.516,0,0,1-.508-.492.51.51,0,0,1,.5-.524h2.46a.753.753,0,0,0,.753-.751.761.761,0,0,0-.761-.759H64.925a.5.5,0,0,1-.505-.5.512.512,0,0,1,.505-.512h3.011a.753.753,0,0,0,.753-.751.763.763,0,0,0-.757-.759l-6.517-.014a.518.518,0,0,1-.081-.007.853.853,0,0,1-.742-1.092.494.494,0,0,1,.023-.076,15.775,15.775,0,0,0,.608-1.83A4.682,4.682,0,0,0,60.2,2.392a19.017,19.017,0,0,1-1.81,4.754.5.5,0,0,1-.874-.5,19.321,19.321,0,0,0,1.884-5.229c.146-.632.962-.37,1.265-.036a5.8,5.8,0,0,1,1.552,5.054,15.409,15.409,0,0,1-.576,1.782l6.3.013A1.781,1.781,0,0,1,69.7,10a1.76,1.76,0,0,1-.986,1.577A1.758,1.758,0,0,1,68,14.1a1.758,1.758,0,0,1-.709,2.526,1.76,1.76,0,0,1-1.486,2.707Z" transform="translate(-51.698 -1.028)" fill="#001a58" stroke="#001a58" stroke-width="0.5"/>
      </g>
    </g>
    <g id="XMLID_1180_" transform="translate(1.719 15.291)">
      <ellipse id="XMLID_367_" cx="0.709" cy="0.707" rx="0.709" ry="0.707" fill="#001a58" stroke="#001a58" stroke-width="0.5"/>
    </g>
    <g id="XMLID_153_" transform="translate(3.919 24.61)">
      <path id="XMLID_158_" d="M41.772,238.429c0-.975-.486-1.58-1.269-1.58s-1.313.677-1.313,1.646c.009,1.1.648,1.593,1.277,1.593C41.116,240.089,41.772,239.575,41.772,238.429Zm-1.291.912c-.385,0-.428-.613-.422-.869,0-.325.089-.876.422-.876.367,0,.422.54.422.862C40.9,238.724,40.862,239.341,40.481,239.341Z" transform="translate(-39.19 -236.849)" fill="#001a58" stroke="#001a58" stroke-width="0.5"/>
      <path id="XMLID_157_" d="M54.994,236.85l-2.957,5.206h.823l2.957-5.206Z" transform="translate(-50.752 -236.85)" fill="#001a58" stroke="#001a58" stroke-width="0.5"/>
      <path id="XMLID_154_" d="M77.315,256.223c-.653,0-1.312.511-1.312,1.654.008,1.1.647,1.586,1.276,1.586.646,0,1.3-.513,1.3-1.659C78.577,256.828,78.094,256.223,77.315,256.223Zm-.022,2.492c-.38,0-.432-.6-.429-.869,0-.422.134-.876.429-.876.381,0,.422.6.422.862S77.675,258.715,77.294,258.715Z" transform="translate(-72.322 -254.286)" fill="#001a58" stroke="#001a58" stroke-width="0.5"/>
    </g>
    <g id="XMLID_1498_" transform="translate(42.612 34.227)">
      <path id="XMLID_113_" d="M426.946,334.538c0-.164.118-.34.451-.34a1.5,1.5,0,0,1,.768.249l.235-.62a1.639,1.639,0,0,0-.728-.262v-.545h-.629v.584a1.046,1.046,0,0,0-.84,1c0,.607.478.879,1,1.082.475.192.54.369.54.532,0,.243-.211.406-.523.406a1.536,1.536,0,0,1-.867-.311l-.226.63a1.569,1.569,0,0,0,.851.321v.592h.629v-.627a1.058,1.058,0,0,0,.881-1.05,1.232,1.232,0,0,0-.934-1.137C427.033,334.83,426.946,334.715,426.946,334.538Z" transform="translate(-426.122 -333.02)" fill="#001a58" stroke="#001a58" stroke-width="0.5"/>
    </g>
    <g id="XMLID_162_" transform="translate(23.339 5.238)">
      <path id="XMLID_165_" d="M234.816,45.154c-.515-.213-.6-.328-.6-.5s.118-.34.451-.34a1.5,1.5,0,0,1,.768.249l.235-.62a1.639,1.639,0,0,0-.728-.262v-.545h-.629v.584a1.046,1.046,0,0,0-.84,1c0,.607.478.879,1,1.082.475.192.54.369.54.532,0,.243-.211.406-.523.406a1.536,1.536,0,0,1-.867-.311l-.226.63a1.569,1.569,0,0,0,.851.321v.593h.629v-.627a1.058,1.058,0,0,0,.881-1.05,1.232,1.232,0,0,0-.934-1.137C234.3,44.941,235.254,45.332,234.816,45.154Z" transform="translate(-233.39 -43.131)" fill="#001a58" stroke="#001a58" stroke-width="0.5"/>
    </g>
  </g>
</svg>
