<svg xmlns="http://www.w3.org/2000/svg" width="120" height="120" viewBox="0 0 120 120">
  <g id="Grupo_1116006" data-name="Grupo 1116006" transform="translate(-1236.5 -460)">
    <g id="Elipse_12108" data-name="Elipse 12108" transform="translate(1241.5 465)" fill="#8bc34a" stroke="rgba(255,255,255,0.4)" stroke-width="5">
      <circle cx="55" cy="55" r="55" stroke="none"/>
      <circle cx="55" cy="55" r="57.5" fill="none"/>
    </g>
    <g id="Grupo_1117466" data-name="Grupo 1117466" transform="translate(1253.438 476.938)">
      <path id="Trazado_959651" data-name="Trazado 959651" d="M247.682,8.41a1.682,1.682,0,0,0,1.682-1.682V1.682a1.682,1.682,0,0,0-3.364,0V6.728A1.682,1.682,0,0,0,247.682,8.41Z" transform="translate(-204.621)" fill="#001a58"/>
      <path id="Trazado_959652" data-name="Trazado 959652" d="M457.682,249.364h6.056a1.682,1.682,0,1,0,0-3.364h-6.056a1.682,1.682,0,1,0,0,3.364Z" transform="translate(-379.297 -204.621)" fill="#001a58"/>
      <path id="Trazado_959653" data-name="Trazado 959653" d="M1.682,249.364H7.738a1.682,1.682,0,0,0,0-3.364H1.682a1.682,1.682,0,0,0,0,3.364Z" transform="translate(0 -204.621)" fill="#001a58"/>
      <path id="Trazado_959654" data-name="Trazado 959654" d="M397.362,76.73l3.569-3.569a1.682,1.682,0,1,0-2.379-2.379l-3.569,3.569a1.682,1.682,0,0,0,2.379,2.379Z" transform="translate(-328.133 -58.466)" fill="#001a58"/>
      <path id="Trazado_959655" data-name="Trazado 959655" d="M80.351,76.73a1.682,1.682,0,0,0,2.379-2.379l-3.569-3.569a1.682,1.682,0,0,0-2.379,2.379Z" transform="translate(-63.457 -58.466)" fill="#001a58"/>
      <ellipse id="Elipse_13625" data-name="Elipse 13625" cx="2" cy="1.5" rx="2" ry="1.5" transform="translate(41.062 83.062)" fill="#001a58"/>
      <path id="Trazado_959656" data-name="Trazado 959656" d="M111,115.4v12.616c0,9.22,7.42,14.515,10.093,16.122V159.3a1.682,1.682,0,0,0,1.682,1.682h5.046a1.682,1.682,0,1,0,0-3.364h-3.364V143.154a1.687,1.687,0,0,0-.927-1.5c-.092-.046-9.166-4.733-9.166-13.636V115.4a3.371,3.371,0,0,1,3.364-3.366h18.334a8.425,8.425,0,0,1-8.241,6.73h-5.046a1.682,1.682,0,1,0,0,3.364,13.472,13.472,0,0,1,13.457,13.457,1.682,1.682,0,0,0,3.364,0,8.42,8.42,0,0,1,8.41-8.41,1.682,1.682,0,1,0,0-3.364A11.772,11.772,0,0,0,138.25,129a16.927,16.927,0,0,0-6.41-7.577,11.841,11.841,0,0,0,6.633-6.059,6.7,6.7,0,0,0,4.486,1.712c.431,0,.872.007,1.278.007a11.737,11.737,0,0,0,2.263-.159,6.721,6.721,0,0,0,9.916,4.3v6.792c0,8.9-9.074,13.59-9.163,13.634a1.682,1.682,0,0,0-.93,1.5V157.62H142.96a1.682,1.682,0,1,0,0,3.364h5.046a1.682,1.682,0,0,0,1.682-1.682V144.138c2.672-1.608,10.093-6.9,10.093-16.122V106.821a6.724,6.724,0,0,0-10.136-5.8,6.722,6.722,0,0,0-10.093-5.046,6.727,6.727,0,0,0-13.371,0,6.724,6.724,0,0,0-10.136,5.8v7.11A6.74,6.74,0,0,0,111,115.4Zm42.052-11.943a3.368,3.368,0,0,1,3.364,3.364V115.4a3.364,3.364,0,0,1-6.728,0v-8.579A3.368,3.368,0,0,1,153.052,103.457ZM142.96,98.41a3.368,3.368,0,0,1,3.364,3.364v11.1a1.173,1.173,0,0,1-.1.612,7.056,7.056,0,0,1-2.586.233c-.223,0-.45,0-.681,0a3.368,3.368,0,0,1-3.364-3.364v-8.579A3.368,3.368,0,0,1,142.96,98.41ZM129.5,96.728a3.364,3.364,0,1,1,6.728,0v11.943H129.5Zm-6.728,1.682a3.368,3.368,0,0,1,3.364,3.364v6.9H119.41v-6.9A3.368,3.368,0,0,1,122.775,98.41Z" transform="translate(-92.329 -74.861)" fill="#001a58"/>
    </g>
  </g>
</svg>
