<svg xmlns="http://www.w3.org/2000/svg" width="120" height="120" viewBox="0 0 120 120">
  <g id="Grupo_1115907" data-name="Grupo 1115907" transform="translate(-64 -6445)">
    <rect id="Rect치ngulo_402033" data-name="Rect치ngulo 402033" width="120" height="120" rx="8" transform="translate(64 6445)" fill="#0042db"/>
    <g id="Rect치ngulo_412110" data-name="Rect치ngulo 412110" transform="translate(69 6450)" fill="none" stroke="#fff" stroke-width="1">
      <rect width="110" height="110" rx="6" stroke="none"/>
      <rect x="0.5" y="0.5" width="109" height="109" rx="5.5" fill="none"/>
    </g>
    <g id="Grupo_1116321" data-name="Grupo 1116321" transform="translate(83.877 6464.805)">
      <g id="Grupo_1116319" data-name="Grupo 1116319" transform="translate(1.172 1.172)">
        <path id="Trazado_957622" data-name="Trazado 957622" d="M185.983,85.156H133.9A3.157,3.157,0,0,1,130.74,82V10.657A3.157,3.157,0,0,1,133.9,7.5h52.087a3.157,3.157,0,0,1,3.157,3.157V82A3.157,3.157,0,0,1,185.983,85.156Z" transform="translate(-111.484 -7.5)" fill="#eaf6ff"/>
        <path id="Trazado_957623" data-name="Trazado 957623" d="M460.432,7.5h-4.419a3.157,3.157,0,0,1,3.157,3.157V82a3.157,3.157,0,0,1-3.157,3.157h4.419A3.157,3.157,0,0,0,463.588,82V10.657A3.157,3.157,0,0,0,460.432,7.5Z" transform="translate(-385.932 -7.5)" fill="#d8ecfe"/>
        <path id="Trazado_957624" data-name="Trazado 957624" d="M234.408,44.877H199.684a1.263,1.263,0,0,1-1.263-1.263V41.089a1.263,1.263,0,0,1,1.263-1.263h34.724a1.263,1.263,0,0,1,1.263,1.263v2.525A1.263,1.263,0,0,1,234.408,44.877Z" transform="translate(-168.59 -34.775)" fill="#918291"/>
        <path id="Trazado_957625" data-name="Trazado 957625" d="M180.9,109.476H164.328a1.263,1.263,0,0,1-1.263-1.263v-2.525a1.263,1.263,0,0,1,1.263-1.263H180.9a1.263,1.263,0,0,1,1.263,1.263v2.525A1.262,1.262,0,0,1,180.9,109.476Z" transform="translate(-138.758 -89.28)" fill="#fd8087"/>
        <path id="Trazado_957626" data-name="Trazado 957626" d="M351.208,109.476H368.1a1.263,1.263,0,0,0,1.263-1.263v-2.525a1.263,1.263,0,0,0-1.263-1.263H351.208a1.263,1.263,0,0,0-1.263,1.263v2.525A1.263,1.263,0,0,0,351.208,109.476Z" transform="translate(-296.438 -89.28)" fill="#60b7ff"/>
        <path id="Trazado_957627" data-name="Trazado 957627" d="M404.873,39.825h-4.42a1.263,1.263,0,0,1,1.263,1.263v2.525a1.263,1.263,0,0,1-1.263,1.263h4.42a1.263,1.263,0,0,0,1.263-1.263V41.088A1.263,1.263,0,0,0,404.873,39.825Z" transform="translate(-339.054 -34.774)" fill="#7a6d79"/>
        <g id="Grupo_1116318" data-name="Grupo 1116318" transform="translate(0 36.303)">
          <g id="Grupo_1116317" data-name="Grupo 1116317">
            <path id="Trazado_957628" data-name="Trazado 957628" d="M100.561,477.226H72.15v-1.894a3.157,3.157,0,0,1,3.157-3.157H97.4a3.157,3.157,0,0,1,3.157,3.157v1.894Z" transform="translate(-62.048 -435.872)" fill="#ffe177"/>
            <path id="Trazado_957629" data-name="Trazado 957629" d="M140.842,244.889h-10.1v-2.841a2.21,2.21,0,0,1,2.21-2.21h5.682a2.21,2.21,0,0,1,2.21,2.21Z" transform="translate(-111.484 -239.838)" fill="#ffe177"/>
            <path id="Trazado_957630" data-name="Trazado 957630" d="M211.616,472.175h-4.1a3.157,3.157,0,0,1,3.157,3.157v1.894h4.1v-1.894A3.157,3.157,0,0,0,211.616,472.175Z" transform="translate(-176.26 -435.872)" fill="#ffd15b"/>
            <path id="Trazado_957631" data-name="Trazado 957631" d="M7.5,366.992v-.947a.947.947,0,0,1,.947-.947H25.809a.947.947,0,0,1,.947.947v.947a5.051,5.051,0,0,1-5.051,5.051H12.551A5.051,5.051,0,0,1,7.5,366.992Z" transform="translate(-7.5 -345.526)" fill="#ffe177"/>
            <path id="Trazado_957632" data-name="Trazado 957632" d="M80.359,365.1h-4.1a.947.947,0,0,1,.947.947v.947a5.051,5.051,0,0,1-5.051,5.051h4.1a5.051,5.051,0,0,0,5.051-5.051v-.947A.947.947,0,0,0,80.359,365.1Z" transform="translate(-62.049 -345.526)" fill="#ffd15b"/>
            <g id="Grupo_1116316" data-name="Grupo 1116316" transform="translate(7.103 2.525)">
              <path id="Trazado_957633" data-name="Trazado 957633" d="M214.646,366.992v-.947a.947.947,0,0,0-.947-.947H196.337a.947.947,0,0,0-.947.947v.947a5.051,5.051,0,0,0,5.051,5.051H209.6A5.051,5.051,0,0,0,214.646,366.992Z" transform="translate(-173.135 -348.051)" fill="#ffe177"/>
              <circle id="Elipse_13531" data-name="Elipse 13531" cx="2.525" cy="2.525" r="2.525" fill="#ffe177"/>
              <circle id="Elipse_13532" data-name="Elipse 13532" cx="2.525" cy="2.525" r="2.525" transform="translate(29.358)" fill="#ffe177"/>
            </g>
            <path id="Trazado_957634" data-name="Trazado 957634" d="M268.248,365.1h-4.1a.947.947,0,0,1,.947.947v.947a5.051,5.051,0,0,1-5.051,5.051h4.1a5.051,5.051,0,0,0,5.051-5.051v-.947A.947.947,0,0,0,268.248,365.1Z" transform="translate(-220.581 -345.526)" fill="#ffd15b"/>
          </g>
        </g>
      </g>
      <g id="Grupo_1116320" data-name="Grupo 1116320" transform="translate(0 0)">
        <path id="Trazado_957635" data-name="Trazado 957635" d="M78.828,184.54a1.172,1.172,0,0,0-1.172,1.172v22.7a1.987,1.987,0,0,1-1.984,1.984H40.856v-.722a4.334,4.334,0,0,0-4.329-4.329H26.651V176.439h10a3.706,3.706,0,0,0,1.009,1.553l-4.736,10.625H31.477a2.121,2.121,0,0,0-2.119,2.119v.947a6.23,6.23,0,0,0,6.223,6.223h9.155a6.23,6.23,0,0,0,6.223-6.223v-.947a2.121,2.121,0,0,0-2.119-2.119H47.39l-4.736-10.625a3.7,3.7,0,1,0-6-3.9H31.7v-1.669a3.385,3.385,0,0,0-3.382-3.382H26.651V167.06a1.172,1.172,0,0,0-2.344,0v1.985H22.638a3.368,3.368,0,0,0-1.038.164V158.5a1.172,1.172,0,0,0-2.344,0v15.6H14.306a3.7,3.7,0,1,0-6,3.9L3.567,188.617H2.119A2.121,2.121,0,0,0,0,190.736v.947a6.23,6.23,0,0,0,6.223,6.223h9.155a6.191,6.191,0,0,0,3.879-1.362v8.8H14.43a4.334,4.334,0,0,0-4.329,4.329v.722H7.012a1.172,1.172,0,0,0,0,2.344h68.66A4.333,4.333,0,0,0,80,208.414v-22.7A1.172,1.172,0,0,0,78.828,184.54Zm-30.214,7.143a3.883,3.883,0,0,1-3.879,3.879H35.581a3.883,3.883,0,0,1-3.879-3.879v-.722H48.614v.722Zm-3.79-3.066H35.492l4.31-9.67c.118.011.236.018.357.018s.239-.006.357-.018Zm-4.666-14.7a1.354,1.354,0,1,1-1.353,1.354A1.355,1.355,0,0,1,40.158,173.914Zm-17.52-2.525H28.32a1.039,1.039,0,0,1,1.038,1.038V174.1H21.6v-1.67A1.039,1.039,0,0,1,22.638,171.389ZM10.8,173.914a1.354,1.354,0,1,1-1.354,1.354A1.355,1.355,0,0,1,10.8,173.914Zm-.357,5.033c.117.011.236.018.357.018s.239-.006.357-.018l4.31,9.67H6.134Zm8.813,12.735a3.883,3.883,0,0,1-3.879,3.879H6.223a3.883,3.883,0,0,1-3.879-3.879v-.722H19.256Zm-1.224-3.066L13.3,177.992a3.706,3.706,0,0,0,1.009-1.553h4.95v12.178ZM21.6,176.439h2.707v28.908H21.6Zm-9.155,33.237a1.987,1.987,0,0,1,1.985-1.985h22.1a1.987,1.987,0,0,1,1.985,1.985v.722H12.445Z" transform="translate(0 -132.742)"/>
        <path id="Trazado_957636" data-name="Trazado 957636" d="M179.656,0H127.568a4.333,4.333,0,0,0-4.328,4.328V20.269a1.172,1.172,0,1,0,2.344,0V4.328a1.987,1.987,0,0,1,1.984-1.984h52.088a1.987,1.987,0,0,1,1.984,1.984V47.485a1.172,1.172,0,1,0,2.344,0V4.328A4.333,4.333,0,0,0,179.656,0Z" transform="translate(-103.984 0)"/>
        <path id="Trazado_957637" data-name="Trazado 957637" d="M364.2,99.36a2.437,2.437,0,0,0-2.435-2.435H344.88a2.437,2.437,0,0,0-2.435,2.435v2.525a2.437,2.437,0,0,0,2.435,2.435h16.889a2.437,2.437,0,0,0,2.435-2.435Zm-2.344,2.525a.091.091,0,0,1-.091.091H344.88a.091.091,0,0,1-.091-.091V99.36a.091.091,0,0,1,.091-.091h16.889a.091.091,0,0,1,.091.091Z" transform="translate(-288.938 -81.78)"/>
        <path id="Trazado_957638" data-name="Trazado 957638" d="M193.354,34.674h14.62a1.172,1.172,0,0,0,0-2.344h-14.62a2.437,2.437,0,0,0-2.434,2.434v2.525a2.437,2.437,0,0,0,2.434,2.434h34.725a2.437,2.437,0,0,0,2.434-2.434V34.764a2.437,2.437,0,0,0-2.434-2.434h-14.62a1.172,1.172,0,0,0,0,2.344h14.62a.09.09,0,0,1,.091.091v2.525a.091.091,0,0,1-.091.091H193.354a.091.091,0,0,1-.091-.091V34.764A.09.09,0,0,1,193.354,34.674Z" transform="translate(-161.089 -27.278)"/>
        <path id="Trazado_957639" data-name="Trazado 957639" d="M310.12,98.1v21.158a1.172,1.172,0,0,0,2.344,0V98.1a1.172,1.172,0,0,0-2.344,0Z" transform="translate(-261.664 -81.78)"/>
        <path id="Trazado_957640" data-name="Trazado 957640" d="M155.565,99.36v2.525A2.437,2.437,0,0,0,158,104.32h16.573a2.437,2.437,0,0,0,2.435-2.435V99.36a2.437,2.437,0,0,0-2.435-2.435H158A2.437,2.437,0,0,0,155.565,99.36Zm19.1,0v2.525a.091.091,0,0,1-.091.091H158a.091.091,0,0,1-.091-.091V99.36a.091.091,0,0,1,.091-.091h16.573A.091.091,0,0,1,174.663,99.36Z" transform="translate(-131.258 -81.78)"/>
        <path id="Trazado_957641" data-name="Trazado 957641" d="M203.11,161.576H189.062a1.172,1.172,0,0,0,0,2.344H203.11a1.172,1.172,0,0,0,0-2.344Z" transform="translate(-158.532 -136.33)"/>
        <path id="Trazado_957642" data-name="Trazado 957642" d="M203.11,193.9H189.062a1.172,1.172,0,0,0,0,2.344H203.11a1.172,1.172,0,0,0,0-2.344Z" transform="translate(-158.532 -163.604)"/>
        <path id="Trazado_957643" data-name="Trazado 957643" d="M343.617,163.92h14.048a1.172,1.172,0,0,0,0-2.344H343.617a1.172,1.172,0,0,0,0,2.344Z" transform="translate(-288.938 -136.33)"/>
        <path id="Trazado_957644" data-name="Trazado 957644" d="M343.617,196.245h14.048a1.172,1.172,0,0,0,0-2.344H343.617a1.172,1.172,0,1,0,0,2.344Z" transform="translate(-288.938 -163.604)"/>
        <path id="Trazado_957645" data-name="Trazado 957645" d="M343.617,402.368h10.376a1.172,1.172,0,0,0,0-2.344H343.617a1.172,1.172,0,0,0,0,2.344Z" transform="translate(-288.938 -337.52)"/>
        <path id="Trazado_957646" data-name="Trazado 957646" d="M343.617,464.675a1.172,1.172,0,0,0,0,2.344h10.376a1.172,1.172,0,0,0,0-2.344Z" transform="translate(-288.938 -392.07)"/>
        <path id="Trazado_957647" data-name="Trazado 957647" d="M364.2,433.522a1.172,1.172,0,0,0-1.172-1.172H343.617a1.172,1.172,0,1,0,0,2.344h19.414A1.172,1.172,0,0,0,364.2,433.522Z" transform="translate(-288.938 -364.795)"/>
        <path id="Trazado_957648" data-name="Trazado 957648" d="M363.486,291.409a1.172,1.172,0,0,0,1.172-1.172v-.345a3.747,3.747,0,0,0,2.466-2.9,3.315,3.315,0,0,0-2.25-3.753,8.925,8.925,0,0,1-2.242-1.036.833.833,0,0,1-.265-.742.75.75,0,0,1,.567-.574,1.759,1.759,0,0,1,1.629.37,1.172,1.172,0,0,0,1.586-1.726,4.244,4.244,0,0,0-1.49-.857v-.117a1.172,1.172,0,0,0-2.344,0v.071c-.058.018-.115.033-.174.054a3.06,3.06,0,0,0-2.088,2.406,3.162,3.162,0,0,0,1.133,2.96,10.552,10.552,0,0,0,2.908,1.4.974.974,0,0,1,.72,1.154,1.345,1.345,0,0,1-1.335,1.134,2.383,2.383,0,0,1-1.752-.455,1.172,1.172,0,1,0-1.283,1.961,4.456,4.456,0,0,0,1.871.773v.22A1.172,1.172,0,0,0,363.486,291.409Z" transform="translate(-303.676 -234.044)"/>
      </g>
    </g>
  </g>
</svg>
