<svg xmlns="http://www.w3.org/2000/svg" width="120" height="120" viewBox="0 0 120 120">
  <g id="Grupo_1115921" data-name="Grupo 1115921" transform="translate(-64 -6445)">
    <rect id="Rect치ngulo_402033" data-name="Rect치ngulo 402033" width="120" height="120" rx="8" transform="translate(64 6445)" fill="#0042db"/>
    <g id="Rect치ngulo_412110" data-name="Rect치ngulo 412110" transform="translate(69 6450)" fill="none" stroke="#fff" stroke-width="1">
      <rect width="110" height="110" rx="6" stroke="none"/>
      <rect x="0.5" y="0.5" width="109" height="109" rx="5.5" fill="none"/>
    </g>
    <g id="Grupo_1116335" data-name="Grupo 1116335" transform="translate(43.352 6464.544)">
      <g id="Grupo_1116333" data-name="Grupo 1116333" transform="translate(49.431 1.187)">
        <g id="Grupo_1116322" data-name="Grupo 1116322" transform="translate(9.1)">
          <path id="Trazado_957649" data-name="Trazado 957649" d="M169.893,84.827V8.739a1.068,1.068,0,0,0-1.227-1.227H130.4L116.051,21.856V84.827a1.232,1.232,0,0,0,1.228,1.227h51.387A1.232,1.232,0,0,0,169.893,84.827Z" transform="translate(-116.051 -7.512)" fill="#f8f6f7" fill-rule="evenodd"/>
        </g>
        <g id="Grupo_1116323" data-name="Grupo 1116323" transform="translate(57.88)">
          <path id="Trazado_957650" data-name="Trazado 957650" d="M429.782,84.827V8.739a1.068,1.068,0,0,0-1.227-1.227H424.72a1.068,1.068,0,0,1,1.227,1.227V84.827a1.232,1.232,0,0,1-1.227,1.227h3.835A1.232,1.232,0,0,0,429.782,84.827Z" transform="translate(-424.72 -7.512)" fill="#e7daec" fill-rule="evenodd"/>
        </g>
        <g id="Grupo_1116324" data-name="Grupo 1116324" transform="translate(0 40.042)">
          <path id="Trazado_957651" data-name="Trazado 957651" d="M58.821,283.972l22.726-22.725a1.233,1.233,0,0,1,1.734,0l2.312,2.312a1.233,1.233,0,0,1,0,1.734L62.867,288.017a1.233,1.233,0,0,1-1.734,0l-2.312-2.312a1.233,1.233,0,0,1,0-1.734Z" transform="translate(-58.465 -260.89)" fill="#f08851" fill-rule="evenodd"/>
        </g>
        <g id="Grupo_1116325" data-name="Grupo 1116325" transform="translate(1.619 42.391)">
          <path id="Trazado_957652" data-name="Trazado 957652" d="M94.355,277.674l-22.86,22.86a1.233,1.233,0,0,1-1.734,0l-1.048-1.053,23.724-23.725Z" transform="translate(-68.713 -275.757)" fill="#db733c" fill-rule="evenodd"/>
        </g>
        <g id="Grupo_1116326" data-name="Grupo 1116326" transform="translate(20.085 30.471)">
          <path id="Trazado_957653" data-name="Trazado 957653" d="M189.912,212.946a17.31,17.31,0,0,1-4.354-6.841l5.779-5.779a18.709,18.709,0,0,1,11.19,11.195l-5.779,5.774A17.334,17.334,0,0,1,189.912,212.946Z" transform="translate(-185.558 -200.327)" fill="#fb9a67" fill-rule="evenodd"/>
        </g>
        <g id="Grupo_1116327" data-name="Grupo 1116327" transform="translate(24.694 30.471)">
          <path id="Trazado_957654" data-name="Trazado 957654" d="M214.727,201.492l1.169-1.165a18.709,18.709,0,0,1,11.19,11.195l-5.779,5.775a14.223,14.223,0,0,1-2.665-1.165l3.561-3.561a1.989,1.989,0,0,0,.444-2.612,19.606,19.606,0,0,0-7.92-8.467Z" transform="translate(-214.727 -200.327)" fill="#f08851" fill-rule="evenodd"/>
        </g>
        <g id="Grupo_1116328" data-name="Grupo 1116328" transform="translate(15.206 25.593)">
          <path id="Trazado_957655" data-name="Trazado 957655" d="M170.757,191.305l5.779-5.775a2.86,2.86,0,0,1,4.045,4.045L174.8,195.35a2.86,2.86,0,1,1-4.045-4.045Zm-15.235-15.236,5.774-5.779a2.862,2.862,0,0,1,4.05,4.045l-5.779,5.779a2.86,2.86,0,0,1-4.045-4.045Z" transform="translate(-154.689 -169.458)" fill="#f08851" fill-rule="evenodd"/>
        </g>
        <g id="Grupo_1116329" data-name="Grupo 1116329" transform="translate(16.143 25.593)">
          <path id="Trazado_957656" data-name="Trazado 957656" d="M181.627,185.429a2.862,2.862,0,0,1,3.942,4.148l-5.779,5.774a2.864,2.864,0,0,1-3.938.1c1.958-1.765,3.991-3.982,5.882-5.873A2.873,2.873,0,0,0,181.627,185.429Zm-15.236-15.236a2.861,2.861,0,0,1,3.942,4.144l-5.779,5.779a2.874,2.874,0,0,1-3.942.1c1.958-1.77,3.991-3.982,5.882-5.877A2.864,2.864,0,0,0,166.392,170.194Z" transform="translate(-160.613 -169.46)" fill="#db733c" fill-rule="evenodd"/>
        </g>
        <g id="Grupo_1116330" data-name="Grupo 1116330" transform="translate(9.1 0)">
          <path id="Trazado_957657" data-name="Trazado 957657" d="M130.4,7.512V20.629a1.1,1.1,0,0,1-1.227,1.227H116.051Z" transform="translate(-116.051 -7.512)" fill="#d9c1e1" fill-rule="evenodd"/>
        </g>
        <g id="Grupo_1116331" data-name="Grupo 1116331" transform="translate(30.433 7.473)">
          <path id="Trazado_957658" data-name="Trazado 957658" d="M253,66.277a6.726,6.726,0,1,1,9.515-9.51l.417.412a1.113,1.113,0,0,0,1.734,0l.417-.412a6.726,6.726,0,1,1,9.515,9.51l-9.932,9.932a1.086,1.086,0,0,1-1.734,0Z" transform="translate(-251.04 -54.801)" fill="#ff6270" fill-rule="evenodd"/>
        </g>
        <g id="Grupo_1116332" data-name="Grupo 1116332" transform="translate(41.278 7.475)">
          <path id="Trazado_957659" data-name="Trazado 957659" d="M325.706,55.089a6.724,6.724,0,0,1,6.675,11.2l-9.932,9.932a1.086,1.086,0,0,1-1.734,0l-1.048-1.048,8.879-8.883a6.722,6.722,0,0,0-2.84-11.2Z" transform="translate(-319.667 -54.814)" fill="#f64b51" fill-rule="evenodd"/>
        </g>
      </g>
      <g id="Grupo_1116334" data-name="Grupo 1116334" transform="translate(47.735 0)">
        <path id="Trazado_957660" data-name="Trazado 957660" d="M74.26,46.253c-.417-.358-.829-.739-1.228-1.138s-.784-.811-1.142-1.232l-3.266,3.266a1.185,1.185,0,0,1-1.675-1.675l3.5-3.5A17.283,17.283,0,0,1,68.915,39.2a4.083,4.083,0,0,1-1.42.26,4.045,4.045,0,0,1-2.862-6.9l5.774-5.779a4.045,4.045,0,0,1,6.648,4.283,17.066,17.066,0,0,1,2.392,1.281,20.784,20.784,0,0,1,3.526,2.836A21,21,0,0,1,85.808,38.7a17.506,17.506,0,0,1,1.277,2.392,4.046,4.046,0,0,1,4.283,6.648L85.593,53.51a4.047,4.047,0,0,1-6.648-4.283A17.6,17.6,0,0,1,76.168,47.7L59.714,64.149V78.543H111.19V54.308a1.185,1.185,0,1,1,2.37,0V78.5a2.417,2.417,0,0,1-2.415,2.41H59.759a2.417,2.417,0,0,1-2.415-2.41V66.519L53.8,70.063a1.187,1.187,0,0,1-1.675,0l-4.045-4.045a1.184,1.184,0,0,1,0-1.68l9.259-9.26V15.531a1.191,1.191,0,0,1,.345-.838L72.033.354A1.171,1.171,0,0,1,72.875,0h38.27a2.381,2.381,0,0,1,1.747.632,2.371,2.371,0,0,1,.668,1.783V48.936a1.185,1.185,0,1,1-2.37,0V2.37H74.058V14.3a2.28,2.28,0,0,1-2.41,2.414H59.714v35.99l3.436-3.436a1.185,1.185,0,0,1,1.675,1.676Q57.716,58.063,50.6,65.175l2.37,2.37L74.26,46.253ZM69.13,72.114a1.185,1.185,0,0,1,0-2.37h6.746a1.188,1.188,0,0,1,.972.506l.838,1.057L80.966,64.6a1.183,1.183,0,0,1,1.581-.546,1.159,1.159,0,0,1,.6.69l3.078,7.445.891-1.783a1.185,1.185,0,0,1,1.062-.659h6.746a1.185,1.185,0,0,1,0,2.37H88.913l-1.72,3.454a1.187,1.187,0,0,1-2.155-.081l-3.1-7.495-2.948,6.039a1.239,1.239,0,0,1-.332.408A1.179,1.179,0,0,1,77,74.247l-1.693-2.132H69.13ZM95.574,44.752a1.185,1.185,0,0,1,0-2.37h11.549a1.185,1.185,0,1,1,0,2.37ZM69.13,60.861a1.185,1.185,0,0,1,0-2.37h37.992a1.185,1.185,0,0,1,0,2.37ZM88.805,55.49a1.185,1.185,0,0,1,0-2.37h18.318a1.185,1.185,0,1,1,0,2.37Zm5.913-5.367a1.185,1.185,0,0,1,0-2.37h12.4a1.185,1.185,0,1,1,0,2.37Zm-3.279-33.8a1.185,1.185,0,1,1,2.37,0v1.523h1.523a1.185,1.185,0,1,1,0,2.37H93.809V21.74a1.185,1.185,0,0,1-2.37,0V20.217H89.916a1.185,1.185,0,0,1,0-2.37h1.523Zm5.528,8.592a1.185,1.185,0,0,1,1.675,1.675l-5.179,5.183a1.187,1.187,0,0,1-1.675,0l-10.8-10.8A7.914,7.914,0,0,1,92.178,9.784l.448.448.444-.448a7.914,7.914,0,0,1,11.19,11.195L102.441,22.8a1.185,1.185,0,0,1-1.675-1.675l1.819-1.823a5.542,5.542,0,0,0-7.84-7.835l-1.281,1.281a1.187,1.187,0,0,1-1.675,0L90.5,11.464a5.542,5.542,0,0,0-7.84,7.835l9.963,9.963ZM71.688,4.045l-10.3,10.3h9.47c.927,0,.829.112.829-.829ZM87.322,43.691l-5.774,5.775a1.674,1.674,0,1,0,2.365,2.37l5.779-5.774a1.676,1.676,0,1,0-2.37-2.37Zm-6.93,3.575,4.731-4.731a14.36,14.36,0,0,0-1.308-2.571,19.2,19.2,0,0,0-5.635-5.635,14.367,14.367,0,0,0-2.571-1.308l-4.731,4.731a14.349,14.349,0,0,0,1.308,2.571,19.058,19.058,0,0,0,5.636,5.636A14.37,14.37,0,0,0,80.392,47.265ZM74.452,30.82a1.674,1.674,0,0,0-2.366-2.37L66.308,34.23a1.672,1.672,0,0,0-.488,1.183A1.66,1.66,0,0,0,67.5,37.083a1.667,1.667,0,0,0,1.183-.484Z" transform="translate(-47.735 0)"/>
      </g>
    </g>
  </g>
</svg>
